<svg xmlns="http://www.w3.org/2000/svg" x="0px" y="0px" width="20px" height="20px" viewBox="5.52 5.02 388.96 388.96">
<style>
.st0-EB9B71BB-4CA3-44AC-8227-3F48E10C8BD3{fill:#446ca9}
.st1-B1B2744C-E59E-4A6E-AD53-BFA8EF5E13B3{fill:#76c4d5}
</style>
<g>
<g>
<path d="M66.7 261.9H13.2v124.7h124.7v-53.4H66.7z" class="st0-EB9B71BB-4CA3-44AC-8227-3F48E10C8BD3"></path>
<path d="M333.8 262.3v70.9h-70.9l-.3-.4v53.8h124.6V261.9h-53.8z" class="st0-EB9B71BB-4CA3-44AC-8227-3F48E10C8BD3"></path>
<path d="M13.2 137.3h53.9l-.4-.4V66h70.8l.4.4V12.6H13.2z" class="st0-EB9B71BB-4CA3-44AC-8227-3F48E10C8BD3"></path>
<path d="M262.6 12.6V66h71.2v71.3h53.4V12.6z" class="st0-EB9B71BB-4CA3-44AC-8227-3F48E10C8BD3"></path>
</g>
<g>
<path d="M256 137.3L184.7 66h77.9V12.6H137.9v53.8l70.8 70.9z" class="st1-B1B2744C-E59E-4A6E-AD53-BFA8EF5E13B3"></path>
<path d="M191.7 261.9h-47.2l59 59.1 12.2 12.2h-77.8v53.4h124.7v-53.8l-35.5-35.5z" class="st1-B1B2744C-E59E-4A6E-AD53-BFA8EF5E13B3"></path>
<path d="M333.8 137.3v77.8l-12.2-12.2-59-59v47.2l35.4 35.4 35.4 35.4h53.8V137.3z" class="st1-B1B2744C-E59E-4A6E-AD53-BFA8EF5E13B3"></path>
<path d="M137.9 208.1l-70.8-70.8H13.2v124.6h53.5v-77.8l71.2 71.2z" class="st1-B1B2744C-E59E-4A6E-AD53-BFA8EF5E13B3"></path>
</g>
</g>
</svg>