<svg xmlns="http://www.w3.org/2000/svg" x="0" y="0" width="20px" height="20px" viewBox="0 0 100 100">
<g>
<path d="M65.732,83.093,55.2,47.181a5.414,5.414,0,0,0-10.39,0L34.268,83.093a6.732,6.732,0,0,0,2.293,7.188h-.008c.088.07.183.131.272.2.064.046.125.1.191.14a21.44,21.44,0,0,0,25.968,0c.067-.044.128-.1.193-.142.088-.068.183-.129.27-.2h-.008A6.732,6.732,0,0,0,65.732,83.093Z"></path>
<circle cx="50" cy="31.423" r="5.202"></circle>
<path d="M39.364,31.423a10.551,10.551,0,0,1,1.394-5.254,2.142,2.142,0,0,0-.358-2.574h0a2.171,2.171,0,0,0-3.426.484,14.931,14.931,0,0,0,0,14.689,2.171,2.171,0,0,0,3.426.484h0a2.142,2.142,0,0,0,.358-2.574A10.551,10.551,0,0,1,39.364,31.423Z"></path>
<path d="M60.636,31.423a10.551,10.551,0,0,1-1.394,5.254A2.142,2.142,0,0,0,59.6,39.25h0a2.171,2.171,0,0,0,3.426-.484,14.931,14.931,0,0,0,0-14.689,2.171,2.171,0,0,0-3.426-.484h0a2.142,2.142,0,0,0-.358,2.574A10.551,10.551,0,0,1,60.636,31.423Z"></path>
<path d="M72.584,31.423a22.475,22.475,0,0,1-4.48,13.5A2.312,2.312,0,0,0,68.3,47.95h0a2.317,2.317,0,0,0,3.5-.274,27.192,27.192,0,0,0,0-32.506,2.317,2.317,0,0,0-3.5-.274h0a2.312,2.312,0,0,0-.195,3.029A22.475,22.475,0,0,1,72.584,31.423Z"></path>
<path d="M27.416,31.423a22.475,22.475,0,0,1,4.48-13.5A2.312,2.312,0,0,0,31.7,14.9h0a2.317,2.317,0,0,0-3.5.274,27.192,27.192,0,0,0,0,32.506,2.317,2.317,0,0,0,3.5.274h0a2.312,2.312,0,0,0,.195-3.029A22.475,22.475,0,0,1,27.416,31.423Z"></path>
<path d="M77.523,5.671h0a2.277,2.277,0,0,0-.133,3.069,35.539,35.539,0,0,1,0,45.364,2.277,2.277,0,0,0,.133,3.069h0a2.28,2.28,0,0,0,3.36-.14,40.09,40.09,0,0,0,0-51.222A2.28,2.28,0,0,0,77.523,5.671Z"></path>
<path d="M22.477,57.174a2.277,2.277,0,0,0,.133-3.069,35.539,35.539,0,0,1,0-45.364,2.277,2.277,0,0,0-.133-3.069h0a2.28,2.28,0,0,0-3.36.14,40.09,40.09,0,0,0,0,51.222,2.28,2.28,0,0,0,3.36.14Z"></path>
</g>
</svg>