<svg xmlns="http://www.w3.org/2000/svg" x="0" y="0" width="20px" height="20px" viewBox="0 0 98 122.5">
<g>
<path d="M34.8,25a20,20,0,0,0,0,28.3l1.4-1.4a18.2,18.2,0,0,1,0-25.5Z"></path>
<path d="M63.2,53.3c9.1-9.1,9.1-19.2,0-28.3l-1.4,1.4c8.3,8.3,8.3,17.1,0,25.5Z"></path>
<path d="M25,15.7c-6.8,6.9-10.5,15-10.5,23.4S18.2,55.7,25,62.6l1.5-1.4c-6.5-6.5-10-14.1-10-22.1s3.5-15.5,10-22Z"></path>
<path d="M73,62.1c6.8-6.9,10.5-14.8,10.5-23S79.8,23.1,73,16.2l-1.5,1.4c6.5,6.5,10,13.9,10,21.5S78,54.2,71.5,60.7Z"></path>
<path d="M50,82.3V47.4a8.2,8.2,0,1,0-2,0V82.3Zm-7.2-43A6.2,6.2,0,1,1,50,45.4H48A6.2,6.2,0,0,1,42.8,39.3Z"></path>
</g>
</svg>