<svg xmlns="http://www.w3.org/2000/svg" x="0" y="0" width="20px" height="20px" viewBox="0 0 216 216">
<path d="M 103.46211,192.45505 H 45.048501 v -8.91057 H 103.95714 V 165.7234 H 45.048501 v -8.91057 H 102.96709 L 83.165859,136.02156 113.85775,103.84455 h 16.33603 v -8.910546 h -21.28632 c -4.95032,0 -9.405591,-2.475152 -11.385711,-5.940367 -2.47516,-3.960246 -1.98012,-8.910551 0.49503,-13.365827 L 129.69874,17.709225 C 128.21364,13.25395 123.75837,9.7887362 118.80807,9.7887362 H 36.137947 c -6.435398,0 -11.880734,5.4453358 -11.880734,11.8807358 V 215.22644 H 129.69874 v -23.26642 h -20.29626 -5.94037 z M 45.048501,36.520391 h 64.353979 v 8.910551 H 45.048501 Z" style="fill:#000000;fill-opacity:1;stroke-width:4.95030594"></path>
<g transform="matrix(4.9503064,0,0,4.9503064,-425.2306,-430.29351)" style="fill:#000000;fill-opacity:1">
<polygon points="119.9,115.7 119.9,113.3 112,113.3 109.1,113.3 112.6,109.8 109.7,109.8 105.1,114.5 109.7,119.2 112.6,119.2 109.1,115.7 112,115.7 " style="fill:#000000;fill-opacity:1"></polygon>
</g>
<g transform="matrix(4.9503064,0,0,4.9503064,-425.2306,-430.29351)" style="fill:#000000;fill-opacity:1">
<polygon points="115.6,127.5 118.6,127.5 123.1,122.8 118.6,118.1 115.6,118.1 119.1,121.6 116.2,121.6 108.6,121.6 108.6,124 116.2,124 119.1,124 " style="fill:#000000;fill-opacity:1"></polygon>
</g>
<path d="m 154.45025,3.3533371 c -1.9801,-3.46521385 -4.95028,-3.46521385 -6.93041,0 l -42.0776,77.2247809 c -1.98013,3.465213 -0.49503,5.940366 3.46522,5.940366 h 84.1552 c 3.96024,0 5.44532,-2.475153 3.46521,-5.940366 z m -3.46518,20.2962569 c 4.45526,0 8.41552,3.960244 8.41552,8.415521 0,4.455276 -3.96026,8.415519 -8.41552,8.415519 -4.45529,0 -8.41554,-3.960243 -8.41554,-8.415519 0,-4.950308 3.96025,-8.415521 8.41554,-8.415521 z m 17.32606,35.642205 c -1.98012,0.495032 -3.46522,0.990061 -4.45528,1.980124 L 153.46021,41.965726 c 1.48509,-0.49503 2.97019,-0.990059 3.96023,-2.475152 z M 143.5596,39.985604 c 0.99007,0.990063 2.47515,1.980122 3.96024,2.475154 L 137.1242,61.766953 c -0.99007,-0.990062 -2.47515,-1.980122 -4.45528,-1.980122 z m -12.37577,38.117359 c -4.45527,0 -8.41551,-3.960245 -8.41551,-8.415521 0,-4.455276 3.96024,-8.415519 8.41551,-8.415519 4.45527,0 8.41552,3.960243 8.41552,8.415519 -0.49503,4.950308 -3.96025,8.415521 -8.41552,8.415521 z m 28.71177,-5.940366 h -18.31612 c 0.49503,-0.990063 0.49503,-1.485093 0.49503,-2.475155 0,-0.990059 0,-1.485093 -0.49503,-2.475151 h 18.31612 c -0.49501,0.990058 -0.49501,1.485092 -0.49501,2.475151 0,0.990062 0,1.980123 0.49501,2.475155 z m 10.39565,5.940366 c -4.45528,0 -8.41551,-3.960245 -8.41551,-8.415521 0,-4.455276 3.96023,-8.415519 8.41551,-8.415519 4.45527,0 8.41553,3.960243 8.41553,8.415519 -0.49504,4.950308 -3.96026,8.415521 -8.41553,8.415521 z" style="fill:#000000;fill-opacity:1;stroke-width:4.95030594"></path>
</svg>