<svg xmlns="http://www.w3.org/2000/svg" x="0" y="0" width="20px" height="20px" viewBox="0 0 792 612">
<path d="M 722.90953,670.40077 504.25547,307.76592 c -9.61362,-15.42651 -25.04015,-15.42651 -34.43019,0 L 251.17121,670.40077 c -9.61362,15.42651 -2.01214,26.82872 17.2151,26.82872 h 437.30813 c 19.22724,2.01215 26.82872,-11.40221 17.21509,-26.82872 z M 615.59465,662.7993 h -95.91267 v -57.45817 h 38.4545 v -38.4545 h -57.45817 -19.45082 -57.45818 v 38.4545 h 38.45451 v 57.45817 h -95.91267 v -57.45817 h 38.45449 v -57.45818 h 19.22725 57.2346 v -38.45449 h -38.4545 v -57.45818 h 95.91266 v 57.45818 h -38.45449 v 38.45449 h 57.45817 19.22724 v 57.45818 h 38.45452 v 57.45817 z" style="fill:#000000;stroke-width:2.23572659"></path>
<path d="M 442.99657,-85.274817 H 136.0313 c -21.01583,0 -38.454491,17.215095 -38.454491,38.454497 V 701.25379 H 204.89168 c 0,-7.60147 2.01216,-17.21509 7.60148,-25.04013 l 30.62945,-51.86885 H 154.81142 V 585.8903 h 111.33917 l 23.02799,-38.4545 H 154.81142 V 508.98131 H 312.20656 L 448.3623,282.72578 c 7.60148,-13.41435 19.22725,-21.01583 32.6416,-23.02798 V -48.832473 c 0.22359,-19.227249 -16.9915,-36.442344 -38.00733,-36.442344 z M 423.76931,68.096026 H 155.25854 V 29.641529 h 268.51077 c 0,0.223573 0,38.454497 0,38.454497 z" style="fill:#000000;stroke-width:2.23572659"></path>
</svg>