<svg xmlns="http://www.w3.org/2000/svg" x="0" y="0" width="20px" height="20px" viewBox="0 0 218.9 169.1">
<g transform="matrix(5.674786,0,0,4.8075676,-516.19516,-320.00681)">
<g>
<g transform="translate(4.5,-13.962)">
<path d="m 99.9,101.2 c 0,0.5 -0.4,1 -1,1 -0.6,0 -1,-0.5 -1,-1 v -5.1 c 0,-0.5 0.4,-1 1,-1 0.6,0 1,0.5 1,1 z" style="fill:#000000"></path>
</g>
<g transform="translate(15,-13.962)">
<path d="m 103.1,101.2 c 0,0.5 -0.4,1 -1,1 -0.6,0 -1,-0.5 -1,-1 v -5.1 c 0,-0.5 0.4,-1 1,-1 0.6,0 1,0.5 1,1 z" style="fill:#000000"></path>
</g>
<g transform="translate(6.75,-9.7515)">
<path d="m 98.6,90.9 v 7.5 c 0,0.9 0.6,1.5 1.4,1.5 h 0.6 v 2.6 c 0,0.5 0.4,1 0.9,1 0.5,0 0.9,-0.5 0.9,-1 v -2.6 h 2 v 2.6 c 0,0.5 0.4,1 0.9,1 0.5,0 0.9,-0.5 0.9,-1 v -2.6 h 0.9 c 0.8,0 1.1,-0.7 1.1,-1.5 v -7.5 z" style="fill:#000000"></path>
</g>
<path d="m 113.2,75.9 0.8,-1.4 c 0.1,-0.1 0,-0.3 -0.1,-0.4 -0.1,-0.1 -0.3,0 -0.3,0.1 l -0.8,1.5 c -0.7,-0.4 -1.6,-0.6 -2.5,-0.6 -0.9,0 -1.8,0.2 -2.5,0.6 L 107,74.2 c -0.1,-0.1 -0.2,-0.2 -0.3,-0.1 -0.1,0.1 -0.2,0.2 -0.1,0.4 l 0.8,1.4 c -1.4,0.9 -2.4,2.3 -2.4,4 0,0.1 0,0.2 0,0.2 h 10.6 c 0,0 0,-0.1 0,-0.2 0,-1.7 -0.9,-3.2 -2.4,-4 z m -5.4,2.2 c -0.3,0 -0.5,-0.2 -0.5,-0.5 0,-0.3 0.2,-0.5 0.5,-0.5 0.3,0 0.5,0.2 0.5,0.5 0,0.3 -0.2,0.5 -0.5,0.5 z m 4.9,0 c -0.3,0 -0.5,-0.2 -0.5,-0.5 0,-0.3 0.2,-0.5 0.5,-0.5 0.3,0 0.5,0.2 0.5,0.5 0,0.3 -0.2,0.5 -0.5,0.5 z" style="fill:#000000"></path>
</g>
<path d="M 122.7,61.6 H 97.8 c -0.7,0 -1.3,0.5 -1.3,1.2 v 42.5 c 0,0.7 0.6,1.4 1.3,1.4 h 24.9 c 0.7,0 1.3,-0.7 1.3,-1.4 V 62.9 c -0.1,-0.7 -0.7,-1.3 -1.3,-1.3 z m -15.2,1.8 h 5.9 v 1 h -5.9 z m 2.8,42.4 c -1.1,0 -2,-0.9 -2,-2 0,-1.1 0.9,-2 2,-2 1.1,0 2,0.9 2,2 0,1.1 -0.9,2 -2,2 z M 121,100.9 H 99.4 V 100.8 66.6 H 121 Z" style="fill:#000000"></path>
</g>
</svg>