<svg xmlns="http://www.w3.org/2000/svg" x="0" y="0" width="20px" height="20px" viewBox="0 0 792 612" xml:space="preserve">
<g transform="matrix(1.7045455,0,0,1.7045455,-237.40911,-195.64774)" style="fill:#000000;fill-opacity:1">
<g style="fill:#000000;fill-opacity:1">
<g style="fill:#000000;fill-opacity:1">
<path d="M 374.2,118.3 H 236.9 c -9.4,0 -17.2,7.7 -17.2,17.2 v 334.8 h 94.4 V 436 h -68.7 v -17.2 h 68.7 v -17.2 h -68.7 v -17.2 h 68.7 v -51.5 -8.6 h 8.6 51.5 c 5.2,0 8.6,0 17.2,0 V 135.5 c 0,-9.5 -7.8,-17.2 -17.2,-17.2 z M 365.6,187 H 245.4 v -17.2 h 120.2 c 0,0 0,17.2 0,17.2 z" style="fill:#000000;fill-opacity:1"></path>
</g>
<g style="fill:#000000;fill-opacity:1">
<path d="m 326.1,337.2 v 133 h 197.4 v -133 z m 188,122.7 H 333.9 v -94.4 h 180.3 v 94.4 z" style="fill:#000000;fill-opacity:1"></path>
<polygon points="411.1,382.7 351,382.7 351,442.8 411.1,442.8 " style="fill:#000000;fill-opacity:1"></polygon>
<polygon points="496.9,434.2 432.6,434.2 432.6,442.8 496.9,442.8 " style="fill:#000000;fill-opacity:1"></polygon>
<polygon points="496.9,417 432.6,417 432.6,425.6 496.9,425.6 " style="fill:#000000;fill-opacity:1"></polygon>
<polygon points="496.9,399.8 432.6,399.8 432.6,408.4 496.9,408.4 " style="fill:#000000;fill-opacity:1"></polygon>
<polygon points="496.9,382.7 432.6,382.7 432.6,391.3 496.9,391.3 " style="fill:#000000;fill-opacity:1"></polygon>
</g>
</g>
</g>
</svg>