<svg xmlns="http://www.w3.org/2000/svg" x="0" y="0" width="20px" height="20px" viewBox="0 0 792 612" xml:space="preserve">
<g style="fill:#000000;fill-opacity:1" transform="matrix(1.992883,0,0,1.992883,-393.18167,-302.9254)">
<path d="M 198.6,172.5 V 438.6 H 593.4 V 172.5 Z M 573.7,417.2 H 213.2 V 228.3 h 360.5 z" style="fill:#000000;fill-opacity:1"></path>
<path d="m 344.5,316.8 h -8.9 v -8.7 h -0.2 c -3.9,6.7 -9.6,10.1 -17.2,10.1 -5.4,0 -9.7,-1.5 -12.9,-4.4 -3.2,-2.9 -4.8,-6.9 -4.8,-11.8 0,-10.4 6.1,-16.5 18.4,-18.2 l 16.7,-2.3 c 0,-9.4 -3.8,-14.2 -11.5,-14.2 -6.7,0 -12.8,2.3 -18.2,6.8 v -9.2 c 1.6,-1.2 4.4,-2.4 8.4,-3.6 4,-1.1 7.5,-1.7 10.6,-1.7 13.1,0 19.7,7 19.7,20.9 v 36.3 z m -8.9,-28.2 -13.5,1.9 c -4.6,0.7 -7.8,1.8 -9.7,3.3 -1.9,1.5 -2.8,4 -2.8,7.5 0,2.8 1,5 3,6.7 2,1.7 4.6,2.5 7.7,2.5 4.4,0 8.1,-1.6 11,-4.7 2.9,-3.1 4.3,-7 4.3,-11.7 z" style="fill:#000000;fill-opacity:1"></path>
<path d="m 412.7,287.2 c 0,9.4 -2.3,17 -6.9,22.6 -4.6,5.6 -10.8,8.4 -18.5,8.4 -7.3,0 -12.9,-3.1 -16.7,-9.4 h -0.2 v 33.7 h -8.9 V 261 h 8.9 v 9.8 h 0.2 c 4.4,-7.4 10.8,-11.2 19.3,-11.2 7,0 12.5,2.5 16.7,7.4 4,5 6.1,11.7 6.1,20.2 z m -9.2,-0.1 c 0,-6 -1.4,-10.8 -4.3,-14.4 -2.8,-3.6 -6.7,-5.4 -11.7,-5.4 -5.1,0 -9.3,1.8 -12.5,5.3 -3.2,3.6 -4.8,8.1 -4.8,13.6 v 7.8 c 0,4.7 1.5,8.6 4.6,11.8 3.1,3.2 6.9,4.7 11.4,4.7 5.4,0 9.6,-2.1 12.7,-6.2 3.1,-4.1 4.6,-9.9 4.6,-17.2 z" style="fill:#000000;fill-opacity:1"></path>
<path d="m 477.8,287.2 c 0,9.4 -2.3,17 -6.9,22.6 -4.6,5.6 -10.8,8.4 -18.5,8.4 -7.3,0 -12.9,-3.1 -16.7,-9.4 h -0.2 v 33.7 h -8.9 V 261 h 8.9 v 9.8 h 0.2 c 4.4,-7.4 10.8,-11.2 19.3,-11.2 7,0 12.5,2.5 16.7,7.4 4.1,5 6.1,11.7 6.1,20.2 z m -9.1,-0.1 c 0,-6 -1.4,-10.8 -4.3,-14.4 -2.8,-3.6 -6.7,-5.4 -11.7,-5.4 -5.1,0 -9.3,1.8 -12.5,5.3 -3.2,3.6 -4.8,8.1 -4.8,13.6 v 7.8 c 0,4.7 1.5,8.6 4.6,11.8 3.1,3.2 6.9,4.7 11.4,4.7 5.4,0 9.6,-2.1 12.7,-6.2 3.1,-4.1 4.6,-9.9 4.6,-17.2 z" style="fill:#000000;fill-opacity:1"></path>
</g>
</svg>