<svg xmlns="http://www.w3.org/2000/svg" x="0" y="0" width="20px" height="20px" viewBox="0 0 792 612" xml:space="preserve">
<g style="fill:#000000;fill-opacity:1" transform="matrix(1.996797,0,0,1.996797,-394.93129,-304.92004)">
<path d="M 198.7,172.9 V 439 H 593.5 V 172.9 Z M 573.8,417.5 H 213.3 V 228.6 h 360.5 z" style="fill:#000000;fill-opacity:1"></path>
<polygon points="367.8,263 247.7,263 247.7,383.1 367.8,383.1 " style="fill:#000000;fill-opacity:1"></polygon>
<polygon points="539.5,366 410.7,366 410.7,383.1 539.5,383.1 " style="fill:#000000;fill-opacity:1"></polygon>
<polygon points="539.5,331.6 410.7,331.6 410.7,348.8 539.5,348.8 " style="fill:#000000;fill-opacity:1"></polygon>
<polygon points="539.5,297.3 410.7,297.3 410.7,314.5 539.5,314.5 " style="fill:#000000;fill-opacity:1"></polygon>
<polygon points="539.5,263 410.7,263 410.7,280.1 539.5,280.1 " style="fill:#000000;fill-opacity:1"></polygon>
</g>
</svg>