<svg xmlns="http://www.w3.org/2000/svg" xmlns:xlink="http://www.w3.org/1999/xlink" x="0" y="0" width="20px" height="20px" viewBox="-0.5 -0.5 61 61">
<g>
<path d="M 0 0 L 60 0 L 60 60 L 0 60 Z" fill="none" stroke="none"></path>
<path d="M 30.96 39.11 L 30.96 40.03 L 30.96 53.52 L 54 53.52 L 54 39.11 Z M 32.81 40.95 L 52.16 40.95 L 52.16 51.67 L 32.81 51.67 Z M 30.96 22.76 L 30.96 23.68 L 30.96 37.17 L 54 37.17 L 54 22.76 Z M 32.81 24.6 L 52.16 24.6 L 52.16 35.32 L 32.81 35.32 Z M 30.96 6.48 L 30.96 7.4 L 30.96 20.89 L 54 20.89 L 54 6.48 Z M 32.81 8.33 L 52.16 8.33 L 52.16 19.05 L 32.81 19.05 Z M 17.52 42.01 C 15.15 42.01 13.22 43.94 13.22 46.31 C 13.22 48.67 15.15 50.61 17.52 50.61 C 19.88 50.61 21.82 48.67 21.82 46.31 C 21.82 43.94 19.88 42.01 17.52 42.01 Z M 17.52 43.86 C 18.89 43.86 19.98 44.95 19.98 46.31 C 19.98 47.68 18.89 48.76 17.52 48.76 C 16.15 48.76 15.06 47.68 15.06 46.31 C 15.06 44.95 16.15 43.86 17.52 43.86 Z M 6 39.11 L 6 40.03 L 6 53.52 L 29.04 53.52 L 29.04 39.11 Z M 7.84 40.95 L 27.19 40.95 L 27.19 51.67 L 7.84 51.67 Z M 17.52 25.67 C 15.15 25.67 13.22 27.6 13.22 29.96 C 13.22 32.32 15.15 34.26 17.52 34.26 C 19.88 34.26 21.82 32.32 21.82 29.96 C 21.82 27.6 19.88 25.67 17.52 25.67 Z M 17.52 27.51 C 18.89 27.51 19.98 28.59 19.98 29.96 C 19.98 31.33 18.89 32.42 17.52 32.42 C 16.15 32.42 15.06 31.33 15.06 29.96 C 15.06 28.59 16.15 27.51 17.52 27.51 Z M 6 22.76 L 6 23.68 L 6 37.17 L 29.04 37.17 L 29.04 22.76 Z M 7.84 24.6 L 27.19 24.6 L 27.19 35.32 L 7.84 35.32 Z M 17.52 9.39 C 15.15 9.39 13.22 11.33 13.22 13.69 C 13.22 16.05 15.15 17.99 17.52 17.99 C 19.88 17.99 21.82 16.05 21.82 13.69 C 21.82 11.33 19.88 9.39 17.52 9.39 Z M 17.52 11.24 C 18.89 11.24 19.98 12.32 19.98 13.69 C 19.98 15.05 18.89 16.14 17.52 16.14 C 16.15 16.14 15.06 15.05 15.06 13.69 C 15.06 12.32 16.15 11.24 17.52 11.24 Z M 6 6.48 L 6 7.4 L 6 20.89 L 29.04 20.89 L 29.04 6.48 Z M 7.84 8.33 L 27.19 8.33 L 27.19 19.05 L 7.84 19.05 Z" fill="#232f3e" stroke="none"></path>
</g>
</svg>