<svg xmlns="http://www.w3.org/2000/svg" x="0" y="0" width="20px" height="20px"  viewBox="0 0 792 612" xml:space="preserve">
<g transform="matrix(1.3836494,0,0,1.3836494,-140.92515,-117.25835)" style="fill:#000000;fill-opacity:1">
<g style="fill:#000000;fill-opacity:1">
<polygon points="318.8,412.9 318.8,455.9 370.4,404.3 370.4,524.7 404.8,524.7 404.8,404.3 456.3,455.9 456.3,412.9 387.6,344.2 " style="fill:#000000;fill-opacity:1"></polygon>
<path d="m 609.4,246.1 c 0.9,-5.2 1.7,-10.3 1.7,-16.3 0,-54.2 -41.3,-97.1 -92,-97.1 -15.5,0 -31,4.3 -44.7,12.9 -15.5,-35.2 -49,-58.5 -85.1,-58.5 -52.4,0 -95.4,45.6 -95.4,101.4 0,0.9 0,1.7 0,3.4 -6.9,-2.6 -13.8,-3.4 -20.6,-3.4 -24.9,0 -48.1,13.8 -61,36.1 -3.4,-0.9 -6,-0.9 -9.5,-0.9 -44.7,0 -80.8,38.7 -80.8,86 0,47.3 36.1,86 80.8,86 h 107.5 l 64.5,-64.5 12,-12 12,12 64.5,64.5 H 587 l 11.2,-2.6 c 32.7,-8.6 55.9,-39.5 55.9,-75.7 0,-31.7 -18.1,-59.2 -44.7,-71.3 z" style="fill:#000000;fill-opacity:1"></path>
</g>
</g>
</svg>