<svg xmlns="http://www.w3.org/2000/svg" x="0" y="0" width="20px" height="20px" viewBox="0 0 792 612" xml:space="preserve">
<g transform="matrix(1.4691841,0,0,1.4691841,-198.57881,-130.27422)" style="fill:#000000;fill-opacity:1">
<g style="fill:#000000;fill-opacity:1">
<path d="m 229.6,392.2 c -13.7,0 -26.6,12.9 -26.6,25.8 v 85 h 403.4 v -85 c 0,-12.9 -13.7,-25.8 -26.6,-25.8 z m 342.5,47.2 c -7.7,0 -13.7,-6 -13.7,-12.9 0,-6.9 6,-12.9 13.7,-12.9 7.7,0 13.7,6 13.7,12.9 0,6.9 -6,12.9 -13.7,12.9 z" style="fill:#000000;fill-opacity:1"></path>
<g style="fill:#000000;fill-opacity:1">
<polygon points="486.3,175.9 426.2,236 426.2,90.9 383.3,90.9 383.3,236 323.2,175.9 323.2,225.7 404.7,306.4 486.3,225.7 " style="fill:#000000;fill-opacity:1"></polygon>
<polygon points="370.4,296.9 280.3,296.9 223.6,374.2 586.7,374.2 529.2,296.9 439.1,296.9 416.7,318.4 404.7,330.4 392.7,318.4 " style="fill:#000000;fill-opacity:1"></polygon>
</g>
</g>
</g>
</svg>