<svg xmlns="http://www.w3.org/2000/svg" x="0" y="0" width="20px" height="20px" viewBox="0 0 792 612" xml:space="preserve">
<g style="fill:#000000;fill-opacity:1" transform="matrix(1.8136203,0,0,1.8136203,-329.99221,-243.52695)">
<path d="m 194.3,135.6 v 334.8 h 412 V 135.6 c 0,0 -412,0 -412,0 z M 589.1,453.2 H 211.5 V 195.7 h 377.7 v 257.5 z" style="fill:#000000;fill-opacity:1"></path>
<rect x="228.60001" y="393.10001" width="42.900002" height="42.900002" style="fill:#000000;fill-opacity:1"></rect>
<rect x="228.60001" y="333" width="42.900002" height="42.900002" style="fill:#000000;fill-opacity:1"></rect>
<rect x="228.60001" y="273" width="42.900002" height="42.900002" style="fill:#000000;fill-opacity:1"></rect>
<rect x="288.70001" y="393.10001" width="42.900002" height="42.900002" style="fill:#000000;fill-opacity:1"></rect>
<rect x="288.70001" y="333" width="42.900002" height="42.900002" style="fill:#000000;fill-opacity:1"></rect>
<rect x="288.70001" y="273" width="42.900002" height="42.900002" style="fill:#000000;fill-opacity:1"></rect>
<rect x="288.70001" y="212.89999" width="42.900002" height="42.900002" style="fill:#000000;fill-opacity:1"></rect>
<rect x="348.79999" y="393.10001" width="42.900002" height="42.900002" style="fill:#000000;fill-opacity:1"></rect>
<rect x="348.79999" y="333" width="42.900002" height="42.900002" style="fill:#000000;fill-opacity:1"></rect>
<rect x="348.79999" y="273" width="42.900002" height="42.900002" style="fill:#000000;fill-opacity:1"></rect>
<rect x="348.79999" y="212.89999" width="42.900002" height="42.900002" style="fill:#000000;fill-opacity:1"></rect>
<rect x="408.89999" y="393.10001" width="42.900002" height="42.900002" style="fill:#000000;fill-opacity:1"></rect>
<rect x="408.89999" y="333" width="42.900002" height="42.900002" style="fill:#000000;fill-opacity:1"></rect>
<rect x="408.89999" y="273" width="42.900002" height="42.900002" style="fill:#000000;fill-opacity:1"></rect>
<rect x="408.89999" y="212.89999" width="42.900002" height="42.900002" style="fill:#000000;fill-opacity:1"></rect>
<rect x="469" y="393.10001" width="42.900002" height="42.900002" style="fill:#000000;fill-opacity:1"></rect>
<rect x="469" y="333" width="42.900002" height="42.900002" style="fill:#000000;fill-opacity:1"></rect>
<rect x="469" y="273" width="42.900002" height="42.900002" style="fill:#000000;fill-opacity:1"></rect>
<rect x="469" y="212.89999" width="42.900002" height="42.900002" style="fill:#000000;fill-opacity:1"></rect>
<rect x="529" y="333" width="42.900002" height="42.900002" style="fill:#000000;fill-opacity:1"></rect>
<rect x="529" y="273" width="42.900002" height="42.900002" style="fill:#000000;fill-opacity:1"></rect>
<rect x="529" y="212.89999" width="42.900002" height="42.900002" style="fill:#000000;fill-opacity:1"></rect>
<path d="m 194.3,135.6 v 334.8 h 412 V 135.6 c 0,0 -412,0 -412,0 z M 589.1,453.2 H 211.5 V 195.7 h 377.7 v 257.5 z" style="fill:#000000;fill-opacity:1"></path>
</g>
</svg>