<svg xmlns="http://www.w3.org/2000/svg" x="0" y="0" width="20px" height="20px" viewBox="0 0 792 612" xml:space="preserve">
<g style="fill:#000000;fill-opacity:1" transform="matrix(1.630422,0,0,1.630422,-287.62453,-238.50388)">
<path d="M 382.9,379.5 H 234.6 c -7.7,0 -13.7,-6 -13.7,-13.7 V 212.4 h 42.8 v -42 h 275.1 c 7.7,0 13.7,6 13.7,13.7 v 1.7 c 6.9,1.7 14.6,5.1 21.4,7.7 v -10.3 c 0,-18.9 -15.4,-35.1 -35.1,-35.1 h -287 l -51.4,52.3 v 165.4 c 0,18.9 15.4,35.1 35.1,35.1 h 161.1 c -6,-6.8 -10.3,-13.6 -13.7,-21.4 z" style="fill:#000000;fill-opacity:1"></path>
<g transform="translate(59.286,-2749.37)" style="fill:#000000;fill-opacity:1">
<g transform="translate(1.9875)" style="fill:#000000;fill-opacity:1">
<path d="m 507.4,3166.4 51.4,77.1 -48,-12.9 -13.7,38.6 -51.4,-68.6 -38.6,68.6 -18,-41.1 -48,12.9 47.1,-81.4 c 0,0 12.9,22.3 59.1,22.3 47.2,-0.1 60.1,-15.5 60.1,-15.5 z" style="fill:#000000;fill-opacity:1"></path>
</g>
<g transform="translate(5.3475,-13.3447)" style="fill:#000000;fill-opacity:1">
<path d="m 447.9,3165.5 c -45.4,0 -82.3,-36.8 -82.3,-81.4 0,-44.6 36.8,-81.4 82.3,-81.4 45.5,0 82.3,36.8 82.3,81.4 -0.8,44.6 -36.8,81.4 -82.3,81.4 z m 0,-144.8 c -35.1,0 -64.3,28.3 -64.3,63.4 0,35.1 29.1,63.4 64.3,63.4 35.2,0 64.3,-28.3 64.3,-63.4 0,-35.1 -29.1,-63.4 -64.3,-63.4 z" style="fill:#000000;fill-opacity:1"></path>
</g>
<g transform="translate(0,-8.08875)" style="fill:#000000;fill-opacity:1">
<path d="m 452.9,3203.5 c -69.4,0 -126,-55.7 -126,-124.3 0,-68.6 56.6,-124.3 126,-124.3 69.4,0 126,55.7 126,124.3 0,67.7 -56.6,124.3 -126,124.3 z m 0,-230.5 c -59.1,0 -108,48 -108,106.3 0,58.3 48,106.3 108,106.3 60,0 108,-48 108,-106.3 0,-59.2 -48,-106.3 -108,-106.3 z" style="fill:#000000;fill-opacity:1"></path>
</g>
</g>
</g>
</svg>