<svg xmlns="http://www.w3.org/2000/svg" x="0" y="0" width="20px" height="20px" viewBox="0 0 792 612" xml:space="preserve">
<g transform="matrix(1.4492308,0,0,1.4492308,-178.67526,-126.45047)" style="fill:#000000;fill-opacity:1">
<g style="fill:#000000;fill-opacity:1">
<path d="m 246,169.7 v 206 h 309 v -206 z m 85.8,188.8 H 263.1 V 229.8 h 68.7 z m 206,0 H 349 V 229.8 h 188.8 z" style="fill:#000000;fill-opacity:1"></path>
<polygon points="400.5,246.9 400.5,264.1 494.9,264.1 494.9,246.9 " style="fill:#000000;fill-opacity:1"></polygon>
<polygon points="400.5,272.7 400.5,289.9 494.9,289.9 494.9,272.7 " style="fill:#000000;fill-opacity:1"></polygon>
<polygon points="400.5,298.4 400.5,315.6 494.9,315.6 494.9,298.4 " style="fill:#000000;fill-opacity:1"></polygon>
<polygon points="400.5,324.2 400.5,341.4 494.9,341.4 494.9,324.2 " style="fill:#000000;fill-opacity:1"></polygon>
<g style="fill:#000000;fill-opacity:1">
<path d="m 623.6,395.4 c 0,-237.8 0,-237.8 0,-237.8 0,-11.2 -5.1,-30.9 -18,-30.9 -29.2,0 -410.3,0 -410.3,0 -12.9,0 -25.7,19.7 -25.7,30.9 0,237.8 0,237.8 0,237.8 -46.3,49.8 -43.8,49.8 -43.8,49.8 0,13.7 6.9,24.9 26.6,24.9 137.3,0 489.2,0 489.2,0 15.4,0 25.7,-11.2 25.7,-24.9 z m -184.5,54.1 c -85,0 -85,0 -85,0 -4.3,0 -8.6,-1.7 -8.6,-4.3 9.4,-15.4 9.4,-15.4 9.4,-15.4 0,-1.7 3.4,-2.6 6.9,-2.6 68.7,0 68.7,0 68.7,0 3.4,0 6.9,0.9 6.9,2.6 10.3,16.3 10.3,16.3 10.3,16.3 0,1.7 -4.3,3.4 -8.6,3.4 z M 606.4,392 v 0 c -60.1,0.9 -420.6,0.9 -420.6,0.9 0,-226.6 0,-231.7 0,-231.7 v 0 0 c 0,-6 5.1,-17.2 12,-17.2 394,0 398.3,0 398.3,0 6.9,0 11.2,7.7 11.2,12.9 V 392 Z" style="fill:#000000;fill-opacity:1"></path>
</g>
</g>
</g>
</svg>