<svg xmlns="http://www.w3.org/2000/svg" x="0" y="0" width="20px" height="20px" viewBox="0 0 792 612" xml:space="preserve">
<g transform="matrix(1.4420196,0,0,1.4420196,-175.25606,-135.04169)" style="fill:#000000;fill-opacity:1">
<g style="fill:#000000;fill-opacity:1">
<g style="fill:#000000;fill-opacity:1">
<path d="m 621,310.6 c 27.5,12.9 45.5,42.1 45.5,75.5 0,38.6 -24,71.2 -56.7,79.8 l -11.2,2.6 H 208.2 c -45.5,0 -82.4,-41.2 -82.4,-91 0,-49.8 36.9,-91 82.4,-91 3.4,0 6,0 9.4,0.9 13.7,-24 36.9,-37.8 62.7,-37.8 6.9,0 13.7,0.9 20.6,3.4 0,-0.9 0,-2.6 0,-3.4 0,-59.2 42.9,-106.4 96.1,-106.4 36.9,0 71.2,24.9 86.7,61.8 13.7,-8.6 29.2,-13.7 45.5,-13.7 51.5,0 92.7,46.4 92.7,103 0.8,5.2 0,10.3 -0.9,16.3 z" style="fill:#000000;fill-opacity:1"></path>
</g>
</g>
</g>
</svg>