<svg xmlns="http://www.w3.org/2000/svg" x="0" y="0" width="20px" height="20px" viewBox="0 0 792 612" xml:space="preserve">
<g transform="matrix(1.3584229,0,0,1.3584229,-142.13923,-115.38278)" style="fill:#000000;fill-opacity:1">
<g style="fill:#000000;fill-opacity:1">
<path d="M 464.8,181.4 H 327.5 c -9.4,0 -17.2,7.7 -17.2,17.2 V 533.4 H 482 V 198.6 c 0,-9.5 -7.7,-17.2 -17.2,-17.2 z M 456.2,499 H 336.1 V 481.8 H 456.3 V 499 Z m 0,-34.4 H 336.1 v -17.2 h 120.2 v 17.2 z m 0,-214.5 H 336.1 v -17.2 h 120.2 v 17.2 z" style="fill:#000000;fill-opacity:1"></path>
<g style="fill:#000000;fill-opacity:1">
<path d="M 559.2,87 H 421.9 c -9.4,0 -17.2,7.7 -17.2,17.2 v 60.1 h 60.1 c 18.9,0 34.3,15.5 34.3,34.3 v 154.5 h 51.5 v 17.2 h -51.5 v 17.2 h 51.5 v 17.2 H 499.1 V 439 h 77.3 V 104.1 C 576.4,94.7 568.7,87 559.2,87 Z m -8.6,68.6 H 430.5 v -17.2 h 120.2 v 17.2 z" style="fill:#000000;fill-opacity:1"></path>
</g>
<g style="fill:#000000;fill-opacity:1">
<path d="m 293.1,404.6 h -51.5 v -17.2 h 51.5 V 370.2 H 241.6 V 353 h 51.5 V 198.6 c 0,-18.9 15.5,-34.3 34.3,-34.3 h 60.1 V 104.2 C 387.5,94.8 379.8,87 370.3,87 H 233.1 c -9.4,0 -17.2,7.7 -17.2,17.2 V 439 h 77.3 V 404.6 Z M 241.6,138.5 h 120.2 v 17.2 H 241.6 Z" style="fill:#000000;fill-opacity:1"></path>
</g>
</g>
</g>
</svg>