<svg xmlns="http://www.w3.org/2000/svg" x="0" y="0" width="20px" height="20px" viewBox="90 91 792 612" style="enable-background:new 90 91 792 612;" xml:space="preserve">
<g style="fill:#000000;fill-opacity:1" transform="matrix(2.2575728,0,0,2.2575728,-610.61599,-498.01474)">
<path fill="#2A3282" d="M 561,262.6 H 392.5 c -19.7,0 -35.9,16.3 -35.9,35.9 v 195.9 c 0,19.7 16.3,35.9 35.9,35.9 H 579 c 19.7,0 35.9,-16.3 35.9,-35.9 V 315.6 Z m 31.7,231.8 c 0,7.7 -6,13.7 -13.7,13.7 H 392.5 c -7.7,0 -13.7,-6 -13.7,-13.7 V 298.5 c 0,-7.7 6,-13.7 13.7,-13.7 h 157.4 v 42.8 h 42.8 z" style="fill:#000000;fill-opacity:1"></path>
</g>
<g style="fill:#000000;fill-opacity:1" transform="matrix(2.2575728,0,0,2.2575728,-611.18038,-507.04503)">
<path fill="#2A3282" d="m 414,379.6 c -1.3,-0.5 -2.5,-0.8 -3.7,-0.8 -3.2,0 -4.8,1.7 -4.8,5.2 v 3.4 h 7.3 v 7.3 h -7.3 v 24.7 h -9.8 v -24.7 h -5.4 v -7.3 h 5.4 v -4 c 0,-3.6 1.2,-6.6 3.6,-8.8 2.4,-2.2 5.6,-3.3 9.7,-3.3 2,0 3.7,0.2 5,0.6 z" style="fill:#000000;fill-opacity:1"></path>
<path fill="#2A3282" d="m 448.1,419.4 h -9.8 v -4.9 h -0.2 c -2.4,3.8 -5.7,5.7 -9.8,5.7 -7.4,0 -11.1,-4.5 -11.1,-13.5 v -19.3 h 9.8 v 18.4 c 0,4.5 1.8,6.8 5.4,6.8 1.8,0 3.2,-0.6 4.3,-1.9 1.1,-1.2 1.6,-2.9 1.6,-5 v -18.3 h 9.8 z" style="fill:#000000;fill-opacity:1"></path>
<path fill="#2A3282" d="m 487.3,419.4 h -9.8 v -17.8 c 0,-5 -1.8,-7.4 -5.3,-7.4 -1.7,0 -3.1,0.7 -4.2,2 -1.1,1.3 -1.7,3 -1.7,5 v 18.3 h -9.9 v -32 h 9.9 v 5.1 h 0.1 c 2.4,-3.9 5.8,-5.8 10.3,-5.8 7.1,0 10.6,4.4 10.6,13.2 z" style="fill:#000000;fill-opacity:1"></path>
<path fill="#2A3282" d="m 519.4,418.2 c -2.2,1.3 -5.4,1.9 -9.7,1.9 -4.9,0 -8.9,-1.5 -11.9,-4.5 -3,-3 -4.6,-6.8 -4.6,-11.5 0,-5.4 1.6,-9.7 4.9,-12.9 3.3,-3.1 7.6,-4.7 13.1,-4.7 3.8,0 6.5,0.5 8.2,1.5 v 8.4 c -2.1,-1.5 -4.4,-2.3 -6.9,-2.3 -2.8,0 -5.1,0.8 -6.7,2.5 -1.6,1.7 -2.5,3.9 -2.5,6.9 0,2.8 0.8,5.1 2.4,6.7 1.6,1.6 3.8,2.4 6.5,2.4 2.5,0 4.9,-0.8 7.2,-2.3 z" style="fill:#000000;fill-opacity:1"></path>
<path fill="#2A3282" d="m 544.8,429.6 h -8.1 c -6.7,-7.4 -10.1,-16.5 -10.1,-27.3 0,-10.4 3.4,-19.7 10.1,-27.7 h 8 c -6.3,8.4 -9.5,17.6 -9.5,27.7 0,10.1 3.2,19.1 9.6,27.3 z" style="fill:#000000;fill-opacity:1"></path>
<path fill="#2A3282" d="m 571.5,429.6 h -8 c 6.4,-8.1 9.6,-17.2 9.6,-27.3 0,-10 -3.2,-19.2 -9.6,-27.7 h 8.1 c 6.8,8 10.1,17.2 10.1,27.7 0,10.6 -3.4,19.8 -10.2,27.3 z" style="fill:#000000;fill-opacity:1"></path>
</g>
</svg>