<svg xmlns="http://www.w3.org/2000/svg" x="0" y="0" width="20px" height="20px" viewBox="0 0 792 612" xml:space="preserve">
<g transform="matrix(1.8153811,0,0,1.8153811,-339.50165,-264.93736)" style="fill:#000000;fill-opacity:1">
<g style="fill:#000000;fill-opacity:1">
<path d="m 411.6,412.4 c -54.1,0 -97.9,-43.8 -97.9,-97.9 0,-54.1 43.8,-97.9 97.9,-97.9 24,0 45.5,8.6 62.7,22.3 l 27.5,-27.5 c -24,-21.5 -55.8,-34.3 -90.1,-34.3 -67,0 -122.7,48.1 -134.8,111.6 h -58.4 c -19.7,0 -29.2,12 -29.2,25.8 0,13.8 13.7,25.8 29.2,25.8 h 58.4 c 12,63.5 67.8,111.6 134.8,111.6 36.1,0 68.7,-13.7 92.7,-36.9 l -27.5,-27.5 c -17.3,15.4 -40.4,24.9 -65.3,24.9 z" style="fill:#000000;fill-opacity:1"></path>
<path d="M 621,316.2 531.7,257 v 31.8 h -85.8 c -1.7,-1.7 -3.4,-4.3 -5.2,-6 -18,-18.9 -48.1,-18.9 -66.1,0 -18,18 -18,48.1 0,66.1 18,18 48.1,18 66.1,0 2.6,-2.6 5.2,-5.2 6.9,-8.6 h 84.1 v 35.2 z" style="fill:#000000;fill-opacity:1"></path>
</g>
</g>
</svg>