<svg xmlns="http://www.w3.org/2000/svg" x="0" y="0" width="20px" height="20px" viewBox="0 0 792 612" xml:space="preserve">
<g transform="matrix(1.7251981,0,0,1.7251981,-287.43723,-221.7381)" style="fill:#000000;fill-opacity:1">
<g style="fill:#000000;fill-opacity:1">
<path d="m 460.4,329.4 c -26.5,0 -53.9,-5.1 -68.5,-16.3 V 451 c 0,17.1 30.8,30.8 68.5,30.8 37.7,0 68.5,-13.7 68.5,-30.8 V 313.2 c -14.6,10.2 -42,16.2 -68.5,16.2 z" style="fill:#000000;fill-opacity:1"></path>
<path d="m 528.9,294.3 c 0,-13.7 -30.8,-24.8 -68.5,-24.8 -37.7,0 -68.5,11.1 -68.5,24.8 0,13.7 30.8,24.8 68.5,24.8 37.7,0 68.5,-11.1 68.5,-24.8 z" style="fill:#000000;fill-opacity:1"></path>
<g style="fill:#000000;fill-opacity:1">
<path d="m 374.7,396.2 v -83.9 -15.4 -2.6 c 0,-23.1 27.4,-36 59.9,-40.2 v -107 c 0,-9.4 -7.7,-17.1 -17.1,-17.1 h -137 c -9.4,0 -17.1,7.7 -17.1,17.1 V 481 h 130.2 c -12,-8.6 -18.8,-18.8 -18.8,-30.8 v -3.4 h -85.6 v -17.1 h 85.6 v -17.1 h -85.6 v -17.1 h 85.6 v 0.7 z m -85.6,-214 H 409 v 17.1 H 289.1 Z" style="fill:#000000;fill-opacity:1"></path>
</g>
</g>
</g>
</svg>