<svg xmlns="http://www.w3.org/2000/svg" x="0" y="0" width="20px" height="20px" viewBox="0 0 792 612" xml:space="preserve">
<g transform="matrix(1.7170353,0,0,1.7170353,-321.4632,-218.72599)" style="fill:#000000;fill-opacity:1">
<g style="fill:#000000;fill-opacity:1">
<path d="M 386.6,447.2 H 305.9 V 430 h 73.8 c -1.7,-5.2 -3.4,-11.2 -3.4,-17.2 h -69.5 v -17.2 h 68.7 c 1.7,-45.5 34.3,-82.4 77.3,-92.7 V 146.8 c 0,-9.4 -7.7,-17.2 -17.2,-17.2 H 298.1 c -9.4,0 -17.2,7.7 -17.2,17.2 v 334.8 h 138.2 c -14.5,-8.7 -24.8,-20.7 -32.5,-34.4 z M 305.9,181.1 H 426 v 17.2 H 305.9 Z" style="fill:#000000;fill-opacity:1"></path>
</g>
<path d="m 472.4,448.9 c -16.3,0 -29.2,-6.9 -37.8,-18.9 v 24 L 420.9,440.3 V 404.2 H 457 l 13.7,13.7 h -26.6 c 6,9.4 16.3,13.7 29.2,13.7 16.3,0 30,-12 33.5,-27.5 H 524 c -4.4,25.9 -25.9,44.8 -51.6,44.8 z M 523,393.1 h -34.3 l -14.6,-13.7 h 25.8 c -6,-9.4 -16.3,-12.9 -28.3,-12.9 -16.3,0 -30,12 -33.5,26.6 h -17.2 c 3.4,-24.9 24.9,-43.8 50.6,-43.8 16.3,0 28.3,6 37.8,18 v -23.2 l 13.7,14.6 z m -49.7,-74.7 c -44.6,0 -81.5,36.9 -81.5,81.5 0,44.6 36.9,81.5 81.5,81.5 44.6,0 81.5,-36.9 81.5,-81.5 0,-44.6 -36.9,-81.5 -81.5,-81.5 z" style="fill:#000000;fill-opacity:1"></path>
</g>
</svg>