<svg xmlns="http://www.w3.org/2000/svg" x="0" y="0" width="20px" height="20px" viewBox="0 0 792 612" xml:space="preserve">
<g transform="matrix(1.8198199,0,0,1.8198199,-325.59499,-276.0148)" style="fill:#000000;fill-opacity:1">
<g transform="translate(1972.87,-1602.08)" style="fill:#000000;fill-opacity:1">
<path d="m -1576.7,1828.1 c -49.7,0 -90.8,-12 -90.8,-27.4 0,-15.4 40.2,-27.4 90.8,-27.4 49.7,0 89.9,12 89.9,27.4 0,15.4 -39.4,27.4 -89.9,27.4 z m -126.7,157.5 v 49.7 c 0,23.1 46.2,48.8 107,53.1 h 40.2 c 60.8,-4.3 107,-24.8 107,-48.8 v -233.7 c 0,-25.7 -57.4,-50.5 -127.6,-50.5 -70.2,0 -126.7,23.1 -126.7,49.7 v 104.4 z" style="fill:#000000;fill-opacity:1"></path>
</g>
</g>
</svg>