<svg xmlns="http://www.w3.org/2000/svg" x="0" y="0" width="20px" height="20px" viewBox="0 0 792 612" xml:space="preserve">
<g transform="matrix(2.3389532,0,0,2.3389532,-530.57631,-393.23006)" style="fill:#000000;fill-opacity:1">
<g style="fill:#000000;fill-opacity:1">
<path d="M 547.2,299.4 H 245.1 c -8.6,0 -16.3,5.2 -16.3,12 v 60.9 c 0,6.9 6.9,12 16.3,12 h 302.1 c 8.6,0 16.3,-5.2 16.3,-12 v -60.9 c 0,-6.8 -6.8,-12 -16.3,-12 z m -266.9,60.1 c -9.4,0 -17.2,-7.7 -17.2,-17.2 0,-9.5 7.7,-17.2 17.2,-17.2 9.5,0 17.2,7.7 17.2,17.2 0,9.5 -7.8,17.2 -17.2,17.2 z m 77.2,0 c -9.4,0 -17.2,-7.7 -17.2,-17.2 0,-9.5 7.7,-17.2 17.2,-17.2 9.4,0 17.2,7.7 17.2,17.2 0,9.5 -7.7,17.2 -17.2,17.2 z m 77.3,0 c -9.4,0 -17.2,-7.7 -17.2,-17.2 0,-9.5 7.7,-17.2 17.2,-17.2 9.5,0 17.2,7.7 17.2,17.2 0,9.5 -7.8,17.2 -17.2,17.2 z m 77.2,0 c -9.4,0 -17.2,-7.7 -17.2,-17.2 0,-9.5 7.7,-17.2 17.2,-17.2 9.4,0 17.2,7.7 17.2,17.2 0,9.5 -7.7,17.2 -17.2,17.2 z" style="fill:#000000;fill-opacity:1"></path>
<polygon points="228.8,273.7 563.5,273.7 501.7,213.6 290.6,213.6 " style="fill:#000000;fill-opacity:1"></polygon>
</g>
</g>
</svg>