<svg xmlns="http://www.w3.org/2000/svg" x="0" y="0" width="20px" height="20px" viewBox="0 0 792 612" xml:space="preserve">
<g style="fill:#000000;fill-opacity:1" transform="matrix(1.6430296,0,0,1.6430296,-226.40679,-196.60275)">
<path d="m 463.3,485.3 -29.2,-49.8 c -1.7,-2.6 -5.2,-5.2 -8.6,-5.2 H 210.9 c -3.4,0 -7.7,2.6 -8.6,5.2 l -29.2,49.8 c -1.7,2.6 0,5.2 3.4,5.2 h 283.3 c 3.5,-0.1 4.3,-2.6 3.5,-5.2 z m -220.6,-11.2 11.2,-18 h 124.5 l 11.2,18 z" style="fill:#000000;fill-opacity:1"></path>
<path d="M 405.8,267.3 H 232.4 c -13.7,0 -24.9,11.2 -24.9,24 v 97.9 c 0,13.7 11.2,24 24.9,24 h 173.4 c 13.7,0 24.9,-11.2 24.9,-24 v -97.9 c 0,-12.9 -11.2,-24 -24.9,-24 z m -0.9,120.1 H 233.2 V 293 h 171.7 c 0,0 0,94.4 0,94.4 z" style="fill:#000000;fill-opacity:1"></path>
<path d="m 585.2,138.5 c 0,-9.4 -7.7,-17.2 -17.2,-17.2 H 430.7 c -9.4,0 -17.2,7.7 -17.2,17.2 V 251 c 19.7,3.4 34.3,20.6 34.3,40.3 v 96.1 h 103 v 17.2 h -103 v 17.2 h 103 V 439 h -95.3 l 19.7,34.3 h 109 V 138.5 Z M 550.8,190 h -103 v -17.2 h 103 z" style="fill:#000000;fill-opacity:1"></path>
<polygon points="387.7,348.8 375.7,360.8 375.7,331.6 341.4,365.1 332,355.7 365.4,322.2 337.1,322.2 349.1,310.2 387.7,310.2 " style="fill:#000000;fill-opacity:1"></polygon>
</g>
</svg>