<svg xmlns="http://www.w3.org/2000/svg" x="0" y="0" width="20px" height="20px" viewBox="0 0 792 612" xml:space="preserve">
<g transform="matrix(1.7669031,0,0,1.7669031,-304.40715,-233.84749)">
<path d="M 447.6,134.2 H 258.8 V 477.5 H 533.5 V 220.1 Z m 68.7,326.2 H 276 v -309 h 163.1 v 77.3 h 77.3 v 231.7 z" style="fill:#000000"></path>
<polygon points="318.9,271.6 473.4,271.6 473.4,288.7 318.9,288.7 " style="fill:#000000"></polygon>
<polygon points="318.9,314.5 473.4,314.5 473.4,331.6 318.9,331.6 " style="fill:#000000"></polygon>
<polygon points="318.9,357.4 473.4,357.4 473.4,374.6 318.9,374.6 " style="fill:#000000"></polygon>
<polygon points="318.9,400.3 473.4,400.3 473.4,417.5 318.9,417.5 " style="fill:#000000"></polygon>
<polygon points="533.5,134.2 533.5,477.6 258.8,477.6 258.8,134.2 " style="fill:none"></polygon>
</g>
</svg>