<svg xmlns="http://www.w3.org/2000/svg" x="0" y="0" width="20px" height="20px" viewBox="0 0 792 612" xml:space="preserve">
<g style="fill:#000000;fill-opacity:1" transform="matrix(1.626382,0,0,1.9967359,-248.77914,-304.10265)">
<rect x="322.29999" y="264.10001" width="134.8" height="24.9" style="fill:#000000;fill-opacity:1"></rect>
<rect x="322.29999" y="308.70001" width="134.8" height="24.9" style="fill:#000000;fill-opacity:1"></rect>
<rect x="322.29999" y="352.39999" width="134.8" height="24.9" style="fill:#000000;fill-opacity:1"></rect>
<path d="M 481,154.5 H 291.3 c -22.3,0 -40.3,18 -40.3,40.3 v 221.5 c 0,22.3 18,40.3 40.3,40.3 h 210.3 c 22.3,0 40.3,-18 40.3,-40.3 V 214.6 Z m 20.6,278.1 H 291.3 c -8.6,0 -15.5,-6.9 -15.5,-16.3 V 194.8 c 0,-8.6 6.9,-15.5 15.5,-15.5 h 176.8 v 49.8 H 517 v 188 c 0,8.6 -6.8,15.5 -15.4,15.5 z" style="fill:#000000;fill-opacity:1"></path>
</g>
</svg>