<svg xmlns="http://www.w3.org/2000/svg" x="0" y="0" width="20px" height="20px" viewBox="0 0 792 612" xml:space="preserve">
<g style="fill:#000000;fill-opacity:1" transform="matrix(1.7289826,0,0,1.7289826,-288.94294,-222.89578)">
<path d="m 368.4,481.4 c -6,0 -8.6,-4.3 -6,-9.4 l 74.5,-123.3 c 3.4,-5.1 8.6,-5.1 12,0 L 523.4,472 c 3.4,5.1 0.9,9.4 -6,9.4 z" style="fill:#000000;fill-opacity:1"></path>
<path d="m 421.5,130.4 h -137 c -9.4,0 -17.1,7.7 -17.1,17.1 v 333.9 h 77.9 c -1.7,-6 0,-12 2.6,-18 l 9.4,-16.3 H 293.1 V 430 h 74.5 l 10.3,-17.1 h -84.8 v -17.1 h 94.2 l 30.8,-53.9 c 3.4,-5.1 7.7,-9.4 12,-12 2.6,-1.7 5.1,-2.6 8.6,-2.6 V 146.7 c -0.1,-8.6 -7.8,-16.3 -17.2,-16.3 z m -8.6,68.5 H 293.1 V 181.8 H 413 v 17.1 z" style="fill:#000000;fill-opacity:1"></path>
</g>
</svg>