<svg xmlns="http://www.w3.org/2000/svg" x="0" y="0" height="20px" width="20px" viewBox="0 0 792 612" xml:space="preserve">
<g transform="matrix(2.0227103,0,0,2.0227103,-405.29669,-312.74708)" style="fill:#000000;fill-opacity:1">
<g style="fill:#000000;fill-opacity:1">
<polygon points="310.3,224.4 224.5,224.4 224.5,155.7 310.3,155.7 " style="fill:#000000;fill-opacity:1"></polygon>
<polygon points="472.5,224.4 319.8,224.4 319.8,155.7 472.5,155.7 " style="fill:#000000;fill-opacity:1"></polygon>
<polygon points="567.8,224.4 482,224.4 482,155.7 567.8,155.7 " style="fill:#000000;fill-opacity:1"></polygon>
<polygon points="386.7,301.6 224.5,301.6 224.5,232.9 386.7,232.9 " style="fill:#000000;fill-opacity:1"></polygon>
<polygon points="567.8,301.6 396.1,301.6 396.1,232.9 567.8,232.9 " style="fill:#000000;fill-opacity:1"></polygon>
<polygon points="310.3,378.9 224.5,378.9 224.5,310.2 310.3,310.2 " style="fill:#000000;fill-opacity:1"></polygon>
<polygon points="472.5,378.9 319.8,378.9 319.8,310.2 472.5,310.2 " style="fill:#000000;fill-opacity:1"></polygon>
<polygon points="567.8,378.9 482,378.9 482,310.2 567.8,310.2 " style="fill:#000000;fill-opacity:1"></polygon>
<polygon points="386.7,456.1 224.5,456.1 224.5,387.4 386.7,387.4 " style="fill:#000000;fill-opacity:1"></polygon>
<polygon points="567.8,456.1 396.1,456.1 396.1,387.4 567.8,387.4 " style="fill:#000000;fill-opacity:1"></polygon>
</g>
</g>
</svg>