<svg xmlns="http://www.w3.org/2000/svg" x="0" y="0" width="20px" height="20px" viewBox="0 0 792 612" xml:space="preserve">
<g style="fill:#000000;fill-opacity:1" transform="matrix(1.9676183,0,0,1.9676183,-383.47199,-295.99282)">
<path d="m 350.1,151.5 h -71.4 c -11.2,0 -24.1,5.2 -31.8,12.9 l -18.1,18.1 c -7.7,7.7 -12.9,20.6 -12.9,31.8 V 432 c 0,15.5 12.9,28.4 28.4,28.4 H 548 c 15.5,0 28.4,-12.9 28.4,-28.4 V 231.5 C 576.4,216 563.5,203.1 548,203.1 H 419.8 c -1.7,0 -6,-2.6 -7.7,-4.3 l -29.3,-33.6 v 0 0 c -8.6,-8.6 -21.5,-13.7 -32.7,-13.7 z" style="fill:#000000;fill-opacity:1"></path>
</g>
</svg>