<svg xmlns="http://www.w3.org/2000/svg" x="0" y="0" width="20px" height="20px" viewBox="0 0 83.4 83.4" xml:space="preserve">
<g style="fill:#000000;fill-opacity:1" transform="matrix(1.9635991,0,0,1.9635991,-40.280262,-40.182082)">
<rect x="23.700001" y="57.700001" width="12" height="2" style="clip-rule:evenodd;fill:#000000;fill-opacity:1;fill-rule:evenodd"></rect>
<rect x="47.700001" y="57.700001" width="12" height="2" style="clip-rule:evenodd;fill:#000000;fill-opacity:1;fill-rule:evenodd"></rect>
<rect x="40.700001" y="51.099998" width="2" height="2.5999999" style="clip-rule:evenodd;fill:#000000;fill-opacity:1;fill-rule:evenodd"></rect>
<path d="m 44.8,54.7 h -6.3 c -1,0 -1.9,1 -1.9,2 v 4 c 0,1 0.8,2 1.9,2 h 6.3 c 1,0 1.9,-1 1.9,-2 v -4 c 0,-1 -0.9,-2 -1.9,-2 z m -0.1,6 h -6 v 0 c 0,0 0,0 0,0 v -4 c 0,0 0,0 0,0 h 6 v 0 0 4 c 0,0 0,0 0,0 z" style="fill:#000000;fill-opacity:1"></path>
<path d="m 46.2,20.7 c -1.5,0 -2.4,0.5 -3.2,1.3 v 0 0 l -3,3.4 c -0.2,0.2 -0.6,0.4 -0.8,0.4 H 26.6 c -1.6,0 -2.9,1.3 -2.9,2.9 v 20.1 c 0,1.6 1.3,2.9 2.9,2.9 h 30.3 c 1.6,0 2.9,-1.3 2.9,-2.9 V 27.1 c 0,-1.1 -0.6,-2.4 -1.3,-3.2 l -2,-1.9 c -0.8,-0.8 -1.8,-1.3 -3.2,-1.3 z" style="fill:#000000;fill-opacity:1"></path>
</g>
</svg>