<svg xmlns="http://www.w3.org/2000/svg" x="0" y="0" height="20px" width="20px" viewBox="0 0 792 612" xml:space="preserve">
<g transform="matrix(1.6063,0,0,1.6063,-240.33575,-185.36717)" style="fill:#000000;fill-opacity:1">
<path d="m 396.1,117.1 c -104.7,0 -188.8,85 -188.8,188.8 0,103.8 84.1,188.8 188.8,188.8 C 500.8,494.7 585,409.8 585,305.9 585,202 500.9,117.1 396.1,117.1 Z M 379,202.9 v -60.1 h 34.3 v 60.1 h 17.2 l -34.3,69.5 -34.3,-69.5 H 379 Z m -77.3,137.3 -69.5,-34.3 69.5,-34.3 v 17.2 h 60.1 v 34.3 h -60.1 z m 111.6,60.1 v 60.1 H 379 v -60.1 h -17.2 l 34.3,-69.5 34.3,69.5 z m 77.3,-60.1 V 323 h -60.1 v -34.3 h 60.1 v -17.2 l 69.5,34.3 z" style="fill:#000000;fill-opacity:1"></path>
</g>
</svg>