<svg xmlns="http://www.w3.org/2000/svg" x="0" y="0" width="20px" height="20px" viewBox="0 0 250.3 193.4" xml:space="preserve">
<path d="M 170.02314,0.88264104 H 69.718473 C 58.104245,0.88264104 48.6017,10.385189 48.6017,21.999414 V 171.40058 c 0,11.61423 9.502545,21.11677 21.116773,21.11677 H 180.58153 c 11.61423,0 21.11677,-9.50254 21.11677,-21.11677 V 32.029881 Z M 189.02823,171.40058 c 0,4.75128 -3.69542,8.4467 -8.4467,8.4467 H 69.718473 c -4.75128,0 -8.446702,-3.69542 -8.446702,-8.4467 V 120.72032 H 115.11952 V 139.1975 L 164.74395,102.24315 115.11952,65.288798 V 86.933491 H 61.271771 V 21.999414 c 0,-4.751274 3.695422,-8.446709 8.446702,-8.446709 h 93.441717 v 26.395966 h 25.86804 z" style="fill:#000000;fill-opacity:1;stroke-width:5.27919292">
</path>
</svg>