<svg xmlns="http://www.w3.org/2000/svg" x="0" y="0" width="20px" height="20px" viewBox="0 0 100 100" >
<g>
<path d="M87.14,29.37a2.5,2.5,0,0,0-.67-1.16,42.47,42.47,0,0,0-72.94,0,2.5,2.5,0,0,0-.67,1.16,42.38,42.38,0,0,0,0,41.26,2.5,2.5,0,0,0,.67,1.16,42.47,42.47,0,0,0,72.94,0,2.5,2.5,0,0,0,.67-1.16,42.38,42.38,0,0,0,0-41.26Zm-4,38.13H70.57a75.79,75.79,0,0,0,1.89-15.07h15A37,37,0,0,1,83.15,67.5ZM12.59,52.43h15A75.79,75.79,0,0,0,29.43,67.5H16.85A37,37,0,0,1,12.59,52.43ZM16.85,32.5H29.43a75.93,75.93,0,0,0-1.89,14.93H12.6A37.16,37.16,0,0,1,16.85,32.5Zm35.65-5V12.91c4.58,1.47,8.65,6.92,11.39,14.59Zm12.9,5a70.89,70.89,0,0,1,2,14.93h-15V32.5ZM47.5,12.91V27.5H36.11C38.85,19.83,42.92,14.38,47.5,12.91Zm0,19.59V47.43h-15A70.89,70.89,0,0,1,34.6,32.5Zm-15,19.93h15V67.5H34.6A70.93,70.93,0,0,1,32.54,52.43Zm15,20.07V87.09c-4.58-1.47-8.65-6.92-11.39-14.59Zm5,14.59V72.5H63.89C61.15,80.17,57.08,85.62,52.5,87.09Zm0-19.59V52.43h15A70.93,70.93,0,0,1,65.4,67.5Zm20-20.07A75.93,75.93,0,0,0,70.57,32.5H83.15A37.16,37.16,0,0,1,87.4,47.43ZM80,27.5H69.19a41.7,41.7,0,0,0-6.48-12.78A37.6,37.6,0,0,1,80,27.5ZM37.29,14.72A41.7,41.7,0,0,0,30.81,27.5H20A37.6,37.6,0,0,1,37.29,14.72ZM20,72.5H30.81a41.7,41.7,0,0,0,6.48,12.78A37.6,37.6,0,0,1,20,72.5ZM62.71,85.28A41.7,41.7,0,0,0,69.19,72.5H80A37.6,37.6,0,0,1,62.71,85.28Z"></path>
</g>
</svg>