<svg xmlns="http://www.w3.org/2000/svg" x="0" y="0" height="20px" width="20px" viewBox="-417 223.6 128.5 167.4" xml:space="preserve">
<g transform="matrix(3.6876772,0,0,3.6876772,946.23429,-828.13581)" style="fill:#000000;fill-opacity:1">
<path d="m -344.7,310.7 c -1.5,-0.8 -2.3,-2 -2.3,-3.7 0,-1.4 0.6,-2.6 1.7,-3.4 h 0.1 c -0.7,-0.9 -1.7,-1.8 -3.2,-1.8 -1.1,0 -1.9,1.1 -3.4,1.1 -1.2,0 -1.6,-1 -2.9,-1 -2.6,0 -5.2,2.3 -5.2,5.4 0,1.6 0.5,4.1 1.7,6.3 0.9,1.6 1.9,2.6 3.1,2.6 0.9,0 1.9,-0.9 3.1,-0.9 1.1,0 2,0.8 3,0.8 2.3,0 4.4,-3 4.4,-5 0,-0.1 0,-0.2 0,-0.3 v -0.1 z" style="fill:#000000;fill-opacity:1"></path>
<g style="fill:#000000;fill-opacity:1">
<path d="m -341.2,285.4 h -22.2 c -1.5,0 -2.7,1.3 -2.7,2.8 v 39.4 c 0,1.5 1.6,2.8 3.1,2.8 h 21.5 c 1.5,0 3.1,-1 3.1,-2.8 v -39.4 c -0.1,-1.5 -1.3,-2.8 -2.8,-2.8 z m -13.7,3.1 h 5.1 v 1 h -5.1 z m 2.6,39.9 c -1,0 -1.8,-0.8 -1.8,-1.8 0,-1 0.8,-1.8 1.8,-1.8 1,0 1.8,0.8 1.8,1.8 0,1 -0.8,1.8 -1.8,1.8 z m 10.7,-5.2 h -21.5 v -32.7 h 21.5 z" style="fill:#000000;fill-opacity:1"></path>
</g>
<g transform="translate(10.4258,-21.0293)" style="fill:#000000;fill-opacity:1">
<path d="m -359,317.9 c -1.7,0.5 -3.3,1.8 -3.3,4 0,0.2 0.1,0.4 0.1,0.7 v 0.1 c 1.7,-0.5 3.2,-1.8 3.2,-4.1 0,-0.2 0,-0.4 0,-0.7 z" style="fill:#000000;fill-opacity:1"></path>
</g>
</g>
</svg>