<svg xmlns="http://www.w3.org/2000/svg" x="0" y="0" width="20px" height="20px" viewBox="0 0 792 612" xml:space="preserve">
<g style="fill:#000000;fill-opacity:1" transform="matrix(2.2660416,0,0,2.2660416,-500.78596,-386.16241)">
<path d="M 471,171.6 H 302.5 c -19.7,0 -35.9,16.3 -35.9,35.9 v 195.9 c 0,19.7 16.3,35.9 35.9,35.9 H 489 c 19.7,0 35.9,-16.3 35.9,-35.9 V 224.6 Z m 31.7,231.8 c 0,7.7 -6,13.7 -13.7,13.7 H 302.5 c -7.7,0 -13.7,-6 -13.7,-13.7 V 207.5 c 0,-7.7 6,-13.7 13.7,-13.7 h 157.4 v 42.8 h 42.8 z" style="fill:#000000;fill-opacity:1"></path>
<path d="m 344.4,264 v 18 c 0,10.3 -4.3,15.4 -12,15.4 v 14.5 c 8.6,0 12,5.1 12,14.5 v 19.7 c 0,10.3 2.6,17.1 6.8,21.4 5.1,6 13.7,8.6 26.5,8.6 v -15.4 c -4.3,0 -7.7,-0.9 -10.3,-3.4 -1.7,-2.6 -3.4,-6 -3.4,-11.1 v -16.3 c 0.9,-12.8 -3.4,-21.4 -11.1,-24.8 v 0 c 8.6,-3.4 12,-11.1 12,-24 V 264 c 0,-9.4 4.3,-13.7 12.8,-13.7 v -15.4 c -12.8,0 -21.4,2.6 -26.5,7.7 -4.2,3.4 -6.8,11.1 -6.8,21.4 z" style="fill:#000000;fill-opacity:1"></path>
<path d="m 438.5,281.9 v -18.8 c 0,-10.3 -2.6,-17.1 -6.8,-22.2 -5.1,-4.3 -13.7,-6.8 -26.5,-6.8 v 15.4 c 8.6,0 12.8,4.3 12.8,13.7 v 16.3 c 0,13.7 4.3,22.2 12,25.7 v 0 c -8.6,3.4 -12,11.1 -12,24 v 17.1 c 0,5.1 -0.9,8.6 -2.6,11.1 -2.6,2.6 -5.1,3.4 -10.3,3.4 v 15.4 c 12.8,0 21.4,-2.6 26.5,-7.7 4.3,-4.3 6.8,-12 6.8,-22.2 v -18.8 c 0,-10.3 4.3,-15.4 12,-15.4 v -14.5 c -7.6,-0.3 -11.9,-5.4 -11.9,-15.7 z" style="fill:#000000;fill-opacity:1"></path>
</g>
</svg>