<svg xmlns="http://www.w3.org/2000/svg" x="0" y="0" height="20px" width="20px" viewBox="0 0 792 612" xml:space="preserve">
<g transform="matrix(1.9588151,0,0,1.9588151,-380.7696,-293.20007)" style="fill:#000000;fill-opacity:1">
<g transform="translate(1.50075,-1.50075)" style="fill:#000000;fill-opacity:1">
<path d="M 455.7,152.9 H 334.5 c -11.1,0 -20.5,9.4 -20.5,20.5 v 84.5 c 0,11.1 9.4,19.6 21.3,19.6 h 23.9 v 151.1 c 0,19.6 12,33.3 29,33.3 15.4,0 27.3,-12 29,-28.2 4.3,-0.9 7.7,-0.9 7.7,-0.9 0,0 0.9,-15.4 0,-20.5 -0.9,-5.1 9.4,-11.1 9.4,-11.1 0,0 0.9,-8.5 0,-9.4 -9.4,-4.3 -14.5,-8.5 -17.1,-12 v -10.2 c 2.6,-3.4 6,-6 7.7,-7.7 3.4,-4.3 11.1,-16.2 11.1,-16.2 0,0 -8.5,-12 -11.1,-14.5 -4.3,-5.1 -6.8,-10.2 -7.7,-14.5 V 309 c 2.6,-17.1 22.2,-31.6 22.2,-31.6 h -22.2 v 0 h 39.3 c 10.2,0 19.6,-8.5 19.6,-19.6 v -84.5 c -0.8,-11.1 -9.3,-20.4 -20.4,-20.4 z m -70,280 c 0,5.1 -0.9,11.1 -6.8,11.1 -6,0 -6.8,-6 -6.8,-11.1 v -140 c 0,-5.1 1.7,-11.1 6.8,-11.1 5.1,0 6.8,6 6.8,11.1 z m 9.4,-228.8 c -10.2,0 -18.8,-8.5 -18.8,-18.8 0,-10.2 8.5,-18.8 18.8,-18.8 10.2,0 18.8,8.5 18.8,18.8 0,10.2 -8.6,18.8 -18.8,18.8 z" style="fill:#000000;fill-opacity:1"></path>
</g>
</g>
</svg>