<svg xmlns="http://www.w3.org/2000/svg" x="0" y="0" height="20px" width="20px" viewBox="0 0 792 612" xml:space="preserve">
<g transform="matrix(1.9067192,0,0,1.9067192,-359.25148,-277.07473)" style="fill:#000000;fill-opacity:1">
<g style="fill:#000000;fill-opacity:1">
<path d="M 583.3,181.4 H 209 c -10.3,0 -18.9,8.6 -18.9,19.7 v 209.4 c 0,11.2 8.6,19.7 18.9,19.7 h 374.2 c 10.3,0 18.9,-8.6 18.9,-19.7 V 201.2 c 0,-11.2 -8.5,-19.8 -18.8,-19.8 z M 568.7,396 H 223.6 V 215.8 h 345.1 z" style="fill:#000000;fill-opacity:1"></path>
<polygon points="284.6,267.3 284.6,232.9 250.2,232.9 250.2,267.3 " style="fill:#000000;fill-opacity:1"></polygon>
<polygon points="336.1,267.3 336.1,232.9 301.7,232.9 301.7,267.3 " style="fill:#000000;fill-opacity:1"></polygon>
<polygon points="387.6,267.3 387.6,232.9 353.2,232.9 353.2,267.3 " style="fill:#000000;fill-opacity:1"></polygon>
<polygon points="439.1,267.3 439.1,232.9 404.7,232.9 404.7,267.3 " style="fill:#000000;fill-opacity:1"></polygon>
<polygon points="490.6,267.3 490.6,232.9 456.2,232.9 456.2,267.3 " style="fill:#000000;fill-opacity:1"></polygon>
<polygon points="542.1,267.3 542.1,232.9 507.7,232.9 507.7,267.3 " style="fill:#000000;fill-opacity:1"></polygon>
<polygon points="284.6,318.8 284.6,284.4 250.2,284.4 250.2,318.8 " style="fill:#000000;fill-opacity:1"></polygon>
<polygon points="336.1,318.8 336.1,284.4 301.7,284.4 301.7,318.8 " style="fill:#000000;fill-opacity:1"></polygon>
<polygon points="387.6,318.8 387.6,284.4 353.2,284.4 353.2,318.8 " style="fill:#000000;fill-opacity:1"></polygon>
<polygon points="439.1,318.8 439.1,284.4 404.7,284.4 404.7,318.8 " style="fill:#000000;fill-opacity:1"></polygon>
<polygon points="490.6,318.8 490.6,284.4 456.2,284.4 456.2,318.8 " style="fill:#000000;fill-opacity:1"></polygon>
<polygon points="542.1,318.8 542.1,284.4 507.7,284.4 507.7,318.8 " style="fill:#000000;fill-opacity:1"></polygon>
<polygon points="301.7,378.9 301.7,335.9 250.2,335.9 250.2,378.9 " style="fill:#000000;fill-opacity:1"></polygon>
<polygon points="542.1,378.9 542.1,335.9 490.6,335.9 490.6,378.9 " style="fill:#000000;fill-opacity:1"></polygon>
<polygon points="473.4,378.9 473.4,335.9 318.9,335.9 318.9,378.9 " style="fill:#000000;fill-opacity:1"></polygon>
</g>
</g>
</svg>