<svg xmlns="http://www.w3.org/2000/svg" x="0" y="0" height="20px" width="20px" viewBox="0 0 792 612" xml:space="preserve">
<g transform="matrix(1.7831407,0,0,1.7831407,-311.0045,-239.64105)" style="fill:#000000;fill-opacity:1">
<path d="m 579.7,383.7 c 0,-189.7 0,-189.7 0,-189.7 0,-9.4 -8.6,-24.9 -18.9,-24.9 -23.2,0 -328.7,0 -328.7,0 -10.3,0 -20.6,15.5 -20.6,24.9 0,189.7 0,189.7 0,189.7 -36.9,39.5 -35.2,39.5 -35.2,39.5 0,11.2 10.3,19.7 23.2,19.7 394,0 394,0 394,0 12.9,0 23.2,-9.4 23.2,-19.7 z m -152.8,42.9 c -68.7,0 -68.7,0 -68.7,0 -3.4,0 -6.9,-1.7 -6.9,-3.4 7.7,-12.9 7.7,-12.9 7.7,-12.9 0,-1.7 2.6,-2.6 6,-2.6 54.9,0 54.9,0 54.9,0 2.6,0 5.2,0.9 5.2,2.6 8.6,12.9 8.6,12.9 8.6,12.9 0.1,2.5 -3.4,3.4 -6.8,3.4 z m 136.5,-43.8 c -338.2,0 -335.6,0 -335.6,0 0,-187.1 0,-187.1 0,-187.1 0,-4.3 4.3,-10.3 9.4,-10.3 319.3,0 317.6,0 317.6,0 5.2,0 8.6,6 8.6,10.3 z" style="fill:#000000;fill-opacity:1"></path>
</g>
</svg>