<svg xmlns="http://www.w3.org/2000/svg" x="0" y="0" height="20px" width="20px" viewBox="0 0 792 612" xml:space="preserve">
<path d="m 601.71263,290.23577 c -9.75546,0 -18.23844,8.48299 -18.23844,18.23843 v 68.00534 L 412.40046,204.13337 v -88.6473 c 23.04548,-7.35193 40.01145,-29.12495 40.01145,-54.573935 0,-31.528465 -25.44898,-58.2498989 -58.24989,-58.2498989 -31.52847,0 -58.24991,25.4489849 -58.24991,58.2498989 0,25.448985 16.966,47.363375 40.01147,54.573935 v 88.6473 L 207.39474,371.53113 V 308.4742 c 0,-9.75544 -8.48298,-18.23843 -18.23843,-18.23843 -9.75545,0 -18.23844,8.48299 -18.23844,18.23843 v 126.25524 h 126.25524 c 9.75544,0 18.23844,-8.48298 18.23844,-18.23844 0,-9.75543 -8.483,-18.23844 -18.23844,-18.23844 H 232.84373 L 376.06497,255.03133 v 285.17003 l -46.09094,-46.09095 c -7.35194,-7.35193 -18.23844,-7.35193 -25.44899,0 -3.67596,3.67596 -4.80702,8.48299 -4.80702,13.29002 0,4.80703 1.27244,9.75545 4.80702,13.29003 l 88.6473,88.6473 88.64729,-88.6473 c 7.35193,-7.35194 7.35193,-18.23843 0,-25.44899 -7.35192,-7.21055 -18.23843,-7.35193 -25.44899,0 l -43.97018,43.82881 V 255.03133 L 554.34924,396.98011 H 494.8269 c -9.75546,0 -18.23845,8.483 -18.23845,18.23844 0,9.75545 8.48299,18.23844 18.23845,18.23844 H 621.08213 V 308.4742 c -1.13107,-10.8865 -9.61406,-18.23843 -19.3695,-18.23843 z" style="fill:#000000;fill-opacity:1;stroke-width:1.41383243"></path>
</svg>