<svg xmlns="http://www.w3.org/2000/svg" x="0" y="0" height="20px" width="20px" viewBox="260 230 792 612">
<path d="m 995.54631,452.61633 h -51.34142 v -73.68219 c 0,-155.96062 -126.93614,-236.0286 -275.92074,-236.0286 h -24.25331 c -151.50441,0 -275.92074,78.10311 -275.92074,236.0286 v 73.68219 h -51.3414 c -21.73349,0 -51.34142,23.08708 -51.34142,40.03399 v 396.41016 c 0,16.94691 29.60793,40.03399 51.34142,40.03399 h 678.46262 c 21.73348,0 51.34138,-23.08708 51.34138,-40.03399 V 492.65032 c -2.5198,-16.94691 -32.1277,-40.03399 -51.02639,-40.03399 z M 692.53747,686.68008 V 851.23696 H 616.94273 V 686.68008 c -29.60792,-10.56111 -51.34141,-33.6482 -51.34141,-61.15622 0,-38.06913 40.63217,-69.50686 89.13877,-69.50686 48.82159,0 89.13878,31.68334 89.13878,69.50686 0,25.29756 -21.4185,48.38464 -51.3414,61.15622 z M 849.3965,452.61633 H 462.91849 v -73.68219 c 0,-98.97973 67.72027,-166.52174 181.11235,-166.52174 h 24.25332 c 116.22689,0 181.11235,67.54201 181.11235,166.52174 z" style="fill:#000000;stroke-width:1.01246881"></path>
</svg>