<svg xmlns="http://www.w3.org/2000/svg" x="0" y="0" height="20px" width="20px" viewBox="0 0 792 612" xml:space="preserve">
<g transform="matrix(1.2868419,0,0,1.2868419,-113.77445,-87.709279)" style="fill:#000000;fill-opacity:1">
<g style="fill:#000000;fill-opacity:1">
<path d="M 530.9,90.5 C 524,83.6 517.2,78.5 508.6,74.2 l -9.4,4.3 v 77.3 0.9 c -4.3,13.7 -18.9,24 -34.3,24.9 v 0 0 c -15.5,0 -29.2,-10.3 -34.3,-24 v -1.7 -78.3 l -9.4,-3.4 c -7.7,4.3 -15.5,9.4 -22.3,16.3 -37.8,37.8 -37.8,97.9 0,135.6 6,6 11.2,11.2 18,15.5 0,0 3.4,1.7 5.2,3.4 v 5.2 248.8 c 0,23.2 20.6,42.9 43.8,42.9 23.2,0 42.1,-19.7 42.1,-42.9 V 244.1 c 9.4,-4.3 16.3,-10.3 23.2,-18 37.5,-37.8 37.5,-97.9 -0.3,-135.6 z m -66.1,425.7 c -9.4,0 -17.2,-7.7 -17.2,-17.2 0,-9.5 7.7,-17.2 17.2,-17.2 9.4,0 17.2,7.7 17.2,17.2 0,9.5 -7.7,17.2 -17.2,17.2 z" style="fill:#000000;fill-opacity:1"></path>
<g style="fill:#000000;fill-opacity:1">
<path d="m 233.1,529.1 c 0,6.9 6,12.9 12.9,12.9 h 30 8.6 12.9 c 6.9,0 12.9,-6 12.9,-12.9 V 413.2 h -77.3 z" style="fill:#000000;fill-opacity:1"></path>
<path d="M 297.4,344.5 H 284.5 V 172.9 L 293.1,130 V 69.9 H 250.2 V 130 l 8.6,42.9 v 171.7 h -12.9 c -6.9,0 -12.9,6.9 -12.9,13.7 V 396 h 77.3 v -37.8 c 0,-6.8 -6,-13.7 -12.9,-13.7 z" style="fill:#000000;fill-opacity:1"></path>
</g>
</g>
</g>
</svg>