<svg xmlns="http://www.w3.org/2000/svg" x="0" y="0" width="20px" height="20px" viewBox="0 0 71.2 71.3" xml:space="preserve">
<g style="fill:#000000;fill-opacity:1" transform="matrix(2.1139134,0,0,2.1139134,-39.655319,-39.711011)">
<path d="m 50.6,22.8 h -30 c -0.9,0 -1.7,0.8 -1.7,1.7 v 22.3 c 0,0.9 0.8,1.7 1.7,1.7 h 30 c 0.9,0 1.7,-0.8 1.7,-1.7 V 24.5 c 0,-1 -0.8,-1.7 -1.7,-1.7 z M 48.1,26.2 35.4,36 22.8,26.1 H 48.1 Z M 22.4,45.1 V 30.2 l 12,9.3 c 0.3,0.3 0.7,0.4 1.1,0.4 0.4,0 0.7,-0.1 1.1,-0.4 L 49.1,29.8 V 45 H 22.4 Z" style="fill:#000000;fill-opacity:1"></path>
</g>
</svg>