<svg xmlns="http://www.w3.org/2000/svg" x="0" y="0" height="20px" width="20px" viewBox="0 0 71.2 71.3" xml:space="preserve">
<g transform="matrix(1.7621195,0,0,1.7621195,-27.161412,-27.204801)" style="fill:#000000;fill-opacity:1">
<g style="fill:#000000;fill-opacity:1">
<g transform="translate(43.917,-3621.38)" style="fill:#000000;fill-opacity:1">
<path d="m 9.3,3638.5 h -35.4 c -1.2,0 -2.2,1.1 -2.2,2.3 v 24.8 c 0,1.2 1,2 2.2,2 H -14 c 1.3,4.6 -0.5,5.6 -8.1,5.6 v 2.4 h 9.8 7.1 10.9 v -2.4 c -7.7,0 -10.1,-1 -8.8,-5.6 H 9.3 c 1.2,0 2.4,-0.8 2.4,-2 v -24.8 c 0,-1.2 -1.2,-2.3 -2.4,-2.3 z m -0.6,3 v 23 h -34 v -23 z" style="fill:#000000;fill-opacity:1"></path>
</g>
</g>
</g>
</svg>