<svg xmlns="http://www.w3.org/2000/svg" x="0" y="0" height="20px" width="20px" viewBox="0 0 71.2 71.3" xml:space="preserve">
<g transform="matrix(1.6848586,0,0,1.6848586,-24.465211,-24.330965)" style="fill:#000000;fill-opacity:1">
<g style="fill:#000000;fill-opacity:1">
<path d="m 36.4,19 c 1.6,0 2.9,1.3 2.9,2.9 v 5.8 c 0,1.6 -1.3,2.9 -2.9,2.9 v 4.1 h 11.8 v -7 c 0,-6.4 -2.9,-13 -11.8,-13 z" style="fill:#000000;fill-opacity:1"></path>
<path d="m 33.4,21.9 v 5.8 c 0,0.8 0.7,1.4 1.5,1.4 h 1.5 v 0 0 c 0.8,0 1.5,-0.7 1.5,-1.4 v -5.8 c 0,-0.8 -0.7,-1.4 -1.5,-1.4 h -1.5 c -0.8,-0.1 -1.5,0.6 -1.5,1.4 z" style="fill:#000000;fill-opacity:1"></path>
<path d="M 23.1,36.6 V 45 c 0,6.5 4.4,11.6 11.8,11.6 h 1.5 c 7.4,0 11.8,-5.1 11.8,-11.6 v -8.4 z" style="fill:#000000;fill-opacity:1"></path>
<path d="M 34.9,34.6 V 30.5 C 33.3,30.5 32,29.2 32,27.6 v -5.8 c 0,-1.6 1.3,-2.9 2.9,-2.9 v -4.3 c -8.8,0 -11.8,6.5 -11.8,13 v 7 z" style="fill:#000000;fill-opacity:1"></path>
</g>
</g>
</svg>