<svg xmlns="http://www.w3.org/2000/svg" x="0" y="0" width="20px" height="20px" viewBox="0 0 32 40" xml:space="preserve">
<g>
<path d="M12,10V6c0-1.103,0.897-2,2-2h4c1.103,0,2,0.897,2,2v4c0,1.103-0.897,2-2,2h-4C12.897,12,12,11.103,12,10z M18,20h-4 c-1.103,0-2,0.897-2,2v4c0,1.103,0.897,2,2,2h4c1.103,0,2-0.897,2-2v-4C20,20.897,19.103,20,18,20z M27,20h-4c-1.103,0-2,0.897-2,2 v4c0,1.103,0.897,2,2,2h4c1.103,0,2-0.897,2-2v-4C29,20.897,28.103,20,27,20z M9,20H5c-1.103,0-2,0.897-2,2v4c0,1.103,0.897,2,2,2 h4c1.103,0,2-0.897,2-2v-4C11,20.897,10.103,20,9,20z M7,19c0.553,0,1-0.448,1-1v-1h7v1c0,0.552,0.447,1,1,1s1-0.448,1-1v-1h7v1 c0,0.552,0.447,1,1,1s1-0.448,1-1v-2c0-0.552-0.447-1-1-1h-8v-1c0-0.552-0.447-1-1-1s-1,0.448-1,1v1H7c-0.553,0-1,0.448-1,1v2 C6,18.552,6.447,19,7,19z"></path>
</g>
</svg>