<svg xmlns="http://www.w3.org/2000/svg" x="0" y="0" height="20px" width="20px" viewBox="0 0 71.2 71.3" xml:space="preserve">
<g transform="matrix(1.6832318,0,0,1.6832318,-24.366818,-26.478084)" style="fill:#000000;fill-opacity:1">
<g style="fill:#000000;fill-opacity:1">
<g transform="translate(47.226,-3690.94)" style="fill:#000000;fill-opacity:1">
<path d="m -0.3,3706.8 h -22.6 c -1.5,0 -2.7,1.3 -2.7,2.9 v 36.3 c 0,1.6 1.2,2.9 2.7,2.9 h 22.6 c 1.5,0 2.7,-1.3 2.7,-2.9 v -36.3 c 0,-1.6 -1.2,-2.9 -2.7,-2.9 z m -15.5,1.9 h 8.5 c 0.7,0 1.2,0.1 1.2,0.6 0,0.6 -0.5,0.6 -1.2,0.6 h -8.5 c -0.7,0 -1.2,0 -1.2,-0.6 0,-0.5 0.6,-0.6 1.2,-0.6 z m 6.7,37.1 h -4.8 c -0.5,0 -0.9,-0.4 -0.9,-1 0,-0.5 0.4,-1 0.9,-1 h 4.8 c 0.5,0 0.9,0.5 0.9,1 0,0.5 -0.4,1 -0.9,1 z m 8.5,-4 h -22 v -30 h 22 z" style="fill:#000000;fill-opacity:1"></path>
</g>
</g>
</g>
</svg>