<svg xmlns="http://www.w3.org/2000/svg" x="0" y="0" width="20px" height="20px" viewBox="0 0 71.2 71.3" xml:space="preserve">
<g style="fill:#000000;fill-opacity:1" transform="matrix(1.3835208,0,0,1.3835208,-14.898511,-13.603339)">
<path d="M 60.2,18.1 H 12.8 c -1,0 -1.8,0.7 -1.8,1.5 v 6 c 0,0.8 0.8,1.5 1.8,1.5 h 18.3 l 3.9,-4.3 1.5,-1.7 1.5,1.7 3.9,4.3 h 18.3 c 1,0 1.8,-0.7 1.8,-1.5 v -6 c 0,-0.8 -0.8,-1.5 -1.8,-1.5 z" style="fill:#000000;fill-opacity:1"></path>
<path d="M 60.2,31.1 H 38 v -2 h 3 l -4.5,-5 -4.5,5 h 3 v 2 H 12.8 c -1,0 -1.8,0.7 -1.8,1.5 v 6 c 0,0.8 0.8,1.5 1.8,1.5 h 18.3 l 3.9,-4.3 1.5,-1.7 1.5,1.7 3.9,4.3 h 18.3 c 1,0 1.8,-0.7 1.8,-1.5 v -6 c 0,-0.8 -0.8,-1.5 -1.8,-1.5 z" style="fill:#000000;fill-opacity:1"></path>
<path d="M 60.2,44.1 H 38 v -2 h 3 l -4.5,-5 -4.5,5 h 3 v 2 H 12.8 c -1,0 -1.8,0.7 -1.8,1.5 v 6 c 0,0.8 0.8,1.5 1.8,1.5 h 47.4 c 1,0 1.8,-0.7 1.8,-1.5 v -6 c 0,-0.8 -0.8,-1.5 -1.8,-1.5 z" style="fill:#000000;fill-opacity:1"></path>
</g>
</svg>