<svg xmlns="http://www.w3.org/2000/svg" x="0" y="0" width="20px" height="20px" viewBox="0 0 83.4 83.4" xml:space="preserve">
<g style="fill:#000000;fill-opacity:1" transform="matrix(1.0972326,0,0,1.0972326,-4.1041936,-4.0436263)">
<g transform="translate(23.0452,-3158.56)" style="fill:#000000;fill-opacity:1">
<g style="fill:#000000;fill-opacity:1">
<path d="m 48.6,3211.7 h -65 c -1.4,0 -2.5,-1.6 -2.5,-2.9 v -17.6 c 0,-1.3 1.1,-2.4 2.5,-2.4 h 65 c 0.5,0 1.4,0 7.5,11.5 l 0.2,0.4 -0.2,0.4 c -6.1,10.6 -7,10.6 -7.5,10.6 z m -65.1,-21.3 c -0.5,0 -0.9,0.4 -0.9,0.8 v 17.6 c 0,0.6 0.5,1.3 0.9,1.3 h 64.8 c 0.8,-0.7 3.6,-5.3 6,-9.5 -2.4,-4.6 -5.2,-9.5 -6.1,-10.3 h -64.7 z" style="fill:#000000;fill-opacity:1"></path>
</g>
<g transform="translate(3.68175,-3.72675)" style="fill:#000000;fill-opacity:1">
<path d="m -0.3,3196.6 h -17.4 c -0.5,0 -1,0.4 -1,1 v 13 c 0,0.5 0.4,1 1,1 h 17.4 c 0.5,0 1,-0.4 1,-1 v -13 c -0.1,-0.6 -0.5,-1 -1,-1 z m -1.5,2 -7.4,5.7 -7.3,-5.7 z m -15,11 v -8.6 l 7,5.4 c 0.2,0.1 0.4,0.2 0.6,0.2 0.2,0 0.4,-0.1 0.6,-0.2 l 7.2,-5.6 v 8.8 z" style="fill:#000000;fill-opacity:1"></path>
</g>
<g transform="translate(23.9377,-3.72675)" style="fill:#000000;fill-opacity:1">
<path d="m 0.8,3196.6 h -17.4 c -0.5,0 -1,0.4 -1,1 v 13 c 0,0.5 0.4,1 1,1 H 0.8 c 0.5,0 1,-0.4 1,-1 v -13 c 0,-0.6 -0.5,-1 -1,-1 z m -1.5,2 -7.4,5.7 -7.3,-5.7 z m -15,11 v -8.6 l 7,5.4 c 0.2,0.1 0.4,0.2 0.6,0.2 0.2,0 0.4,-0.1 0.6,-0.2 l 7.2,-5.6 v 8.8 z" style="fill:#000000;fill-opacity:1"></path>
</g>
<g transform="translate(44.1945,-3.72675)" style="fill:#000000;fill-opacity:1">
<path d="m 1.9,3196.6 h -17.4 c -0.5,0 -1,0.4 -1,1 v 13 c 0,0.5 0.4,1 1,1 H 1.9 c 0.5,0 1,-0.4 1,-1 v -13 c 0,-0.6 -0.5,-1 -1,-1 z m -1.5,2 -7.4,5.7 -7.3,-5.7 z m -14.9,11 v -8.6 l 7,5.4 c 0.2,0.1 0.4,0.2 0.6,0.2 0.2,0 0.4,-0.1 0.6,-0.2 l 7.2,-5.6 v 8.8 z" style="fill:#000000;fill-opacity:1"></path>
</g>
</g>
</g>
</svg>