<svg xmlns="http://www.w3.org/2000/svg" x="0" y="0" width="20px" height="20px" viewBox="0 0 128 128">
<path d="M64,128a64,64,0,1,1,64-64A64.07,64.07,0,0,1,64,128ZM64,4a60,60,0,1,0,60,60A60.07,60.07,0,0,0,64,4Z"></path>
<path d="M97,84.5a2,2,0,0,1-1.41-.58L65.44,53.77a2,2,0,0,1,0-2.83L95.59,20.79a2,2,0,1,1,2.82,2.83L69.68,52.35,98.41,81.09A2,2,0,0,1,97,84.5Z"></path>
<path d="M31,107.8a2,2,0,0,1-1.41-3.42L58.32,75.65,29.59,46.91a2,2,0,0,1,2.82-2.83L62.56,74.23a2,2,0,0,1,0,2.83L32.41,107.21A2,2,0,0,1,31,107.8Z"></path>
</svg>