<svg xmlns="http://www.w3.org/2000/svg" x="0" y="0" width="20px" height="20px" viewBox="0 0 83.4 83.4" xml:space="preserve">
<g style="fill:#000000;fill-opacity:1" transform="matrix(1.9564443,0,0,1.9564443,-39.883727,-39.883727)">
<path d="m 34.7,57.7 h -6 v -2 h 10 c 0,0 0,-0.4 0,-0.7 v -1.3 h -10 v -2 h 10 v -7.2 c 0,-0.8 0.8,-1.6 1.5,-1.6 h 0.4 v -1.4 c 0,-4.3 2.4,-6.4 5.1,-6.8 v -12 c 0,-1.1 -0.9,-2 -2,-2 h -16 c -1.1,0 -2,0.9 -2,2 v 39 h 9 z m -6,-31 h 14 v 2 h -14 z" style="fill:#000000;fill-opacity:1"></path>
<path d="M 52.8,43.8 H 52 v -1.7 c 0,-3.6 -2.1,-5.4 -4.6,-5.4 H 47 c -2.5,0 -4.6,1.8 -4.6,5.4 v 1.7 h -0.8 c -0.3,0 -0.8,0.5 -0.8,0.9 v 9.1 c 0,0.4 0.7,0.9 1,0.9 h 11 c 0.3,0 1,-0.5 1,-0.9 v -9.1 c -0.1,-0.4 -0.6,-0.9 -1,-0.9 z m -5,5.4 V 53 h -1.3 v -3.8 c -0.5,-0.3 -0.9,-0.8 -0.9,-1.4 0,-0.9 0.7,-1.6 1.5,-1.6 0.8,0 1.5,0.7 1.5,1.6 0.1,0.6 -0.3,1.1 -0.8,1.4 z m 2.6,-5.4 H 44 v -1.7 c 0,-2.3 1.1,-3.8 3,-3.8 h 0.4 c 1.9,0 3,1.6 3,3.8 z" style="clip-rule:evenodd;fill:#000000;fill-opacity:1;fill-rule:evenodd"></path>
<path d="m 50.5,58.7 c 0,-0.5 -0.3,-1 -0.8,-1 h -1.1 l -0.1,-4 h -0.9 v 4 h -1 v -4 h -1 v 4 h -1.2 c -0.4,0 -0.8,0.5 -0.8,1 v 1 1 1 c 0,0.5 0.3,1 0.8,1 h 5.3 c 0.4,0 0.8,-0.5 0.8,-1 z m -0.8,3 h -5 v -3 h 5 z" style="clip-rule:evenodd;fill:#000000;fill-opacity:1;fill-rule:evenodd"></path>
<rect x="36.700001" y="58.700001" width="8" height="3" style="clip-rule:evenodd;fill:#000000;fill-opacity:1;fill-rule:evenodd"></rect>
<rect x="49.700001" y="58.700001" width="8" height="3" style="clip-rule:evenodd;fill:#000000;fill-opacity:1;fill-rule:evenodd"></rect>
</g>
</svg>