<svg xmlns="http://www.w3.org/2000/svg" x="0" y="0" height="20px" width="20px" viewBox="0 0 83.4 83.4" xml:space="preserve">
<g transform="matrix(1.5617198,0,0,1.5617198,-23.423715,-23.423715)" style="fill:#000000;fill-opacity:1">
<g style="fill:#000000;fill-opacity:1">
<path d="M 59.3,40.2 H 24.1 c -1,0 -1.9,0.6 -1.9,1.4 v 7.1 c 0,0.8 0.8,1.4 1.9,1.4 h 35.2 c 1,0 1.9,-0.6 1.9,-1.4 v -7.1 c 0,-0.7 -0.9,-1.4 -1.9,-1.4 z m -31.1,7 c -1.1,0 -2,-0.9 -2,-2 0,-1.1 0.9,-2 2,-2 1.1,0 2,0.9 2,2 0,1.1 -0.9,2 -2,2 z m 9,0 c -1.1,0 -2,-0.9 -2,-2 0,-1.1 0.9,-2 2,-2 1.1,0 2,0.9 2,2 0,1.1 -0.9,2 -2,2 z m 9,0 c -1.1,0 -2,-0.9 -2,-2 0,-1.1 0.9,-2 2,-2 1.1,0 2,0.9 2,2 0,1.1 -0.9,2 -2,2 z m 9,0 c -1.1,0 -2,-0.9 -2,-2 0,-1.1 0.9,-2 2,-2 1.1,0 2,0.9 2,2 0,1.1 -0.9,2 -2,2 z" style="clip-rule:evenodd;fill:#000000;fill-opacity:1;fill-rule:evenodd"></path>
<polygon points="54,30.2 29.4,30.2 22.2,37.2 61.2,37.2 " style="clip-rule:evenodd;fill:#000000;fill-opacity:1;fill-rule:evenodd"></polygon>
<g style="fill:#000000;fill-opacity:1">
<polygon points="61.1,21.2 59.3,23 65,23 59,29 60.4,30.4 66.4,24.4 66.4,30 68.2,28.3 68.2,21.2 " style="fill:#000000;fill-opacity:1"></polygon>
</g>
<g style="fill:#000000;fill-opacity:1">
<polygon points="61.1,62.2 59.3,60.4 65,60.4 59,54.4 60.4,53 66.4,59 66.4,53.4 68.2,55.1 68.2,62.2 " style="fill:#000000;fill-opacity:1"></polygon>
</g>
<g style="fill:#000000;fill-opacity:1">
<polygon points="23.3,21.2 25,23 19.4,23 25.4,29 24,30.4 18,24.4 18,30 16.2,28.3 16.2,21.2 " style="fill:#000000;fill-opacity:1"></polygon>
</g>
<g style="fill:#000000;fill-opacity:1">
<polygon points="22.3,62.2 24,60.4 18.4,60.4 24.4,54.4 23,53 17,59 17,53.4 15.2,55.1 15.2,62.2 " style="fill:#000000;fill-opacity:1"></polygon>
</g>
</g>
</g>
</svg>