<svg xmlns="http://www.w3.org/2000/svg" x="0" y="0" width="20px" height="20px" viewBox="0 0 34 42.5" xml:space="preserve">
<g>
<path d="M1,26c0,1.93,1.57,3.5,3.5,3.5h25c1.93,0,3.5-1.57,3.5-3.5v-8c0-1.93-1.57-3.5-3.5-3.5H29V6c0-0.828-0.672-1.5-1.5-1.5   C26.672,4.5,26,5.172,26,6v8.5H8V6c0-0.828-0.672-1.5-1.5-1.5C5.672,4.5,5,5.172,5,6v8.5H4.5C2.57,14.5,1,16.07,1,18V26z M4,18   c0-0.275,0.225-0.5,0.5-0.5h25c0.275,0,0.5,0.225,0.5,0.5v8c0,0.275-0.225,0.5-0.5,0.5h-25C4.225,26.5,4,26.275,4,26V18z"></path>
<path d="M8.062,23.059c0.585-0.583,0.585-1.536,0-2.119c-0.559-0.561-1.559-0.561-2.13,0c-0.573,0.594-0.572,1.538,0.01,2.119   C6.52,23.636,7.444,23.656,8.062,23.059z"></path>
<path d="M12.562,23.059c0.585-0.583,0.585-1.536,0-2.119c-0.559-0.561-1.569-0.561-2.12,0c-0.581,0.581-0.588,1.531,0,2.119   C11.036,23.652,11.985,23.638,12.562,23.059z"></path>
<path d="M17.062,23.059c0.585-0.583,0.585-1.536,0-2.119c-0.559-0.561-1.569-0.561-2.12,0c-0.578,0.578-0.593,1.526,0,2.119   C15.536,23.652,16.485,23.638,17.062,23.059z"></path>
<path d="M20.5,23.5H27c0.828,0,1.5-0.672,1.5-1.5c0-0.828-0.672-1.5-1.5-1.5h-6.5c-0.828,0-1.5,0.672-1.5,1.5   C19,22.828,19.672,23.5,20.5,23.5z"></path>
</g>
</svg>