<svg xmlns="http://www.w3.org/2000/svg" x="0" y="0" width="20px" height="20px" viewBox="0 0 71.2 71.3" xml:space="preserve">
<g style="fill:#000000;fill-opacity:1" transform="matrix(2.0766242,0,0,2.2671147,-38.327823,-45.172638)">
<path d="M 44.4,20 H 24.7 c -2.3,0 -4.2,1.9 -4.2,4.2 v 22.9 c 0,2.3 1.9,4.2 4.2,4.2 h 21.8 c 2.3,0 4.2,-1.9 4.2,-4.2 V 26.2 Z m 3.7,27.1 c 0,0.9 -0.7,1.6 -1.6,1.6 H 24.7 c -0.9,0 -1.6,-0.7 -1.6,-1.6 V 24.2 c 0,-0.9 0.7,-1.6 1.6,-1.6 h 18.4 v 5.1 h 5 z" style="fill:#000000;fill-opacity:1"></path>
<path d="m 42.4,42.7 v 0.1 C 42.3,43.4 41.6,44 41,44 h -5.2 c -0.6,0 -1,-0.6 -0.9,-1.2 v -0.1 c 0.2,-0.6 0.8,-1.1 1.4,-1.1 h 5.2 c 0.7,-0.1 1.1,0.4 0.9,1.1 z m -13.9,0.8 v 0 C 28.1,43 28.3,42.3 28.9,41.9 L 38.1,35.5 32.2,29 C 31.8,28.6 32,27.9 32.6,27.4 h 0.1 c 0.3,-0.2 0.9,-0.3 1.3,0.2 l 5.7,6.4 0.7,0.7 0.1,0.1 c 0.4,0.4 0.5,1.3 0.1,1.7 l -1,0.7 -9.2,6.4 C 29.7,44 28.9,44 28.5,43.5 Z" style="clip-rule:evenodd;fill:#000000;fill-opacity:1;fill-rule:evenodd"></path>
</g>
</svg>