<svg xmlns="http://www.w3.org/2000/svg" x="0" y="0" width="20px" height="20px" viewBox="0 0 83.4 83.4" xml:space="preserve">
<g style="fill:#000000;fill-opacity:1" transform="matrix(2.4584433,0,0,2.6449768,-60.817085,-68.727781)">
<path d="M 50.5,26.1 H 30.8 c -2.3,0 -4.2,1.9 -4.2,4.2 v 22.9 c 0,2.3 1.9,4.2 4.2,4.2 h 21.8 c 2.3,0 4.2,-1.9 4.2,-4.2 V 32.3 Z m 3.7,27.1 c 0,0.9 -0.7,1.6 -1.6,1.6 H 30.8 c -0.9,0 -1.6,-0.7 -1.6,-1.6 v -23 c 0,-0.9 0.7,-1.6 1.6,-1.6 h 18.4 v 5.1 h 5 z" style="fill:#000000;fill-opacity:1"></path>
<polygon points="32.9,42.6 36.9,40.1 36.9,38 31.2,41.9 31.2,43.3 36.9,47 36.9,44.9 32.9,42.6 " style="fill:#000000;fill-opacity:1"></polygon>
<polygon points="38.2,49.6 39.9,49.6 44.2,35.1 42.4,35.1 " style="fill:#000000;fill-opacity:1"></polygon>
<polygon points="45.6,46.9 51.3,43.2 51.3,41.8 45.6,37.9 45.6,40 49.7,42.5 45.6,44.8 " style="fill:#000000;fill-opacity:1"></polygon>
</g>
</svg>