<svg xmlns="http://www.w3.org/2000/svg" x="0" y="0" height="20px" width="20px" viewBox="0 0 83.4 83.4" xml:space="preserve">
<g transform="matrix(1.947591,0,0,1.947591,-38.965661,-40.596477)" style="fill:#000000;fill-opacity:1">
<g style="fill:#000000;fill-opacity:1">
<path d="M 60.9,50.6 H 22.5 c -0.9,0 -1.6,0.7 -1.6,1.6 v 9.7 c 0,0.9 0.7,1.6 1.6,1.6 h 38.4 c 0.9,0 1.6,-0.7 1.6,-1.6 v -9.7 c 0,-0.9 -0.7,-1.6 -1.6,-1.6 z M 24.4,61.9 c -0.8,0 -1.5,-0.7 -1.5,-1.5 0,-0.8 0.7,-1.5 1.5,-1.5 0.8,0 1.5,0.7 1.5,1.5 0,0.8 -0.7,1.5 -1.5,1.5 z m 35,-0.6 H 51 c -0.3,0 -0.5,-0.2 -0.5,-0.5 0,-0.3 0.2,-0.5 0.5,-0.5 h 8.4 c 0.3,0 0.5,0.2 0.5,0.5 0,0.3 -0.2,0.5 -0.5,0.5 z m 0,-1.6 H 51 c -0.3,0 -0.5,-0.2 -0.5,-0.5 0,-0.3 0.2,-0.5 0.5,-0.5 h 8.4 c 0.3,0 0.5,0.2 0.5,0.5 0,0.3 -0.2,0.5 -0.5,0.5 z m 0,-1.6 H 51 c -0.3,0 -0.5,-0.2 -0.5,-0.5 0,-0.3 0.2,-0.5 0.5,-0.5 h 8.4 c 0.3,0 0.5,0.2 0.5,0.5 0,0.3 -0.2,0.5 -0.5,0.5 z" style="fill:#000000;fill-opacity:1"></path>
</g>
<g style="fill:#000000;fill-opacity:1">
<path d="M 60.9,35.8 H 22.5 c -0.9,0 -1.6,0.7 -1.6,1.6 v 9.7 c 0,0.9 0.7,1.6 1.6,1.6 h 38.4 c 0.9,0 1.6,-0.7 1.6,-1.6 v -9.7 c 0,-0.9 -0.7,-1.6 -1.6,-1.6 z M 24.4,47.1 c -0.8,0 -1.5,-0.7 -1.5,-1.5 0,-0.8 0.7,-1.5 1.5,-1.5 0.8,0 1.5,0.7 1.5,1.5 0,0.8 -0.7,1.5 -1.5,1.5 z m 35,-0.6 H 51 c -0.3,0 -0.5,-0.2 -0.5,-0.5 0,-0.3 0.2,-0.5 0.5,-0.5 h 8.4 c 0.3,0 0.5,0.2 0.5,0.5 0,0.3 -0.2,0.5 -0.5,0.5 z m 0,-1.6 H 51 c -0.3,0 -0.5,-0.2 -0.5,-0.5 0,-0.3 0.2,-0.5 0.5,-0.5 h 8.4 c 0.3,0 0.5,0.2 0.5,0.5 0,0.3 -0.2,0.5 -0.5,0.5 z m 0,-1.6 H 51 c -0.3,0 -0.5,-0.2 -0.5,-0.5 0,-0.3 0.2,-0.5 0.5,-0.5 h 8.4 c 0.3,0 0.5,0.2 0.5,0.5 0,0.3 -0.2,0.5 -0.5,0.5 z" style="fill:#000000;fill-opacity:1"></path>
</g>
<g style="fill:#000000;fill-opacity:1">
<path d="M 60.9,21 H 22.5 c -0.9,0 -1.6,0.7 -1.6,1.6 v 9.7 c 0,0.9 0.7,1.6 1.6,1.6 h 38.4 c 0.9,0 1.6,-0.7 1.6,-1.6 V 22.6 C 62.5,21.7 61.8,21 60.9,21 Z M 24.4,32.3 c -0.8,0 -1.5,-0.7 -1.5,-1.5 0,-0.8 0.7,-1.5 1.5,-1.5 0.8,0 1.5,0.7 1.5,1.5 0,0.8 -0.7,1.5 -1.5,1.5 z m 35,-0.6 H 51 c -0.3,0 -0.5,-0.2 -0.5,-0.5 0,-0.3 0.2,-0.5 0.5,-0.5 h 8.4 c 0.3,0 0.5,0.2 0.5,0.5 0,0.3 -0.2,0.5 -0.5,0.5 z m 0,-1.6 H 51 c -0.3,0 -0.5,-0.2 -0.5,-0.5 0,-0.3 0.2,-0.5 0.5,-0.5 h 8.4 c 0.3,0 0.5,0.2 0.5,0.5 0,0.3 -0.2,0.5 -0.5,0.5 z m 0,-1.6 H 51 c -0.3,0 -0.5,-0.2 -0.5,-0.5 0,-0.3 0.2,-0.5 0.5,-0.5 h 8.4 c 0.3,0 0.5,0.2 0.5,0.5 0,0.2 -0.2,0.5 -0.5,0.5 z" style="fill:#000000;fill-opacity:1"></path>
</g>
</g>
</svg>