<svg xmlns="http://www.w3.org/2000/svg" x="0" y="0" height="20px" width="20px" viewBox="0 0 83.4 83.4" xml:space="preserve">
<g transform="matrix(1.5000623,0,0,1.5000623,-20.852597,-23.477706)" style="fill:#000000;fill-opacity:1">
<g style="fill:#000000;fill-opacity:1">
<path d="M 29.5,26 H 15.9 c -0.9,0 -1.7,0.7 -1.7,1.7 V 61 h 17 V 27.7 C 31.2,26.8 30.4,26 29.5,26 Z m -1.3,32 h -11 v -2 h 11 z m 0,-4 h -11 v -2 h 11 z m 0,-21 h -11 v -2 h 11 z" style="fill:#000000;fill-opacity:1"></path>
</g>
<g style="fill:#000000;fill-opacity:1">
<path d="M 48.5,25.9 H 34.9 c -0.9,0 -1.7,0.7 -1.7,1.7 v 33.3 h 17 V 27.6 c 0,-0.9 -0.8,-1.7 -1.7,-1.7 z m -1.3,32 h -11 v -2 h 11 z m 0,-4 h -11 v -2 h 11 z m 0,-21 h -11 v -2 h 11 z" style="fill:#000000;fill-opacity:1"></path>
</g>
<g style="fill:#000000;fill-opacity:1">
<path d="M 67.5,26 H 53.9 c -0.9,0 -1.7,0.7 -1.7,1.7 V 61 h 17 V 27.7 C 69.2,26.8 68.4,26 67.5,26 Z m -1.3,32 h -11 v -2 h 11 z m 0,-4 h -11 v -2 h 11 z m 0,-21 h -11 v -2 h 11 z" style="fill:#000000;fill-opacity:1"></path>
</g>
</g>
</svg>