<svg xmlns="http://www.w3.org/2000/svg" x="0" y="0" height="20px" width="20px" viewBox="0 0 83.4 83.4" xml:space="preserve">
<g transform="matrix(2.0163738,0,0,2.0163738,-42.382787,-42.382787)" style="fill:#000000;fill-opacity:1">
<g style="fill:#000000;fill-opacity:1">
<g style="fill:#000000;fill-opacity:1">
<path d="m 43.7,21.2 h -16 c -1.1,0 -2,0.9 -2,2 v 39 h 11 v -4 h -8 v -2 h 8 v -2 h -8 v -2 h 8 v -6 h 1 v -1 h 6 c 0.6,0 1,0 2,0 v -22 c 0,-1.1 -0.9,-2 -2,-2 z m -1,8 h -14 v -2 h 14 z" style="fill:#000000;fill-opacity:1"></path>
</g>
<g style="fill:#000000;fill-opacity:1">
<path d="m 44.2,50.1 c 0.7,0 1.3,0.6 1.3,1.2 0,0.7 -0.6,1.2 -1.3,1.2 -0.7,0 -1.3,-0.6 -1.3,-1.2 0.1,-0.7 0.6,-1.2 1.3,-1.2 z" style="clip-rule:evenodd;fill:#000000;fill-opacity:1;fill-rule:evenodd"></path>
<path d="m 46.5,54.4 c -0.2,-1 -0.3,-1.1 -1.3,-1.3 0,0 0,0 -0.1,0 -0.1,0 -0.2,0 -0.2,0 -0.1,0.3 -0.6,1 -0.7,1.2 0,0 0,0 0,0 v 0 0 c 0,0 0,0 0,0 -0.2,-0.3 -0.7,-1 -0.8,-1.3 0,0 -0.1,0 -0.2,0 0,0 -0.1,0 -0.1,0 -1,0.2 -1.1,0.3 -1.3,1.3 0,0.2 0,0.3 0,0.4 0,0.4 1.1,0.6 2.3,0.6 v 0 0 c 1.3,0 2.3,-0.3 2.3,-0.6 0.2,0 0.2,-0.1 0.1,-0.3 z" style="clip-rule:evenodd;fill:#000000;fill-opacity:1;fill-rule:evenodd"></path>
<path d="m 52.1,50 c 0.7,0 1.3,0.5 1.3,1.2 0,0.7 -0.6,1.2 -1.3,1.2 -0.7,0 -1.3,-0.5 -1.3,-1.2 0.1,-0.6 0.6,-1.2 1.3,-1.2 z" style="clip-rule:evenodd;fill:#000000;fill-opacity:1;fill-rule:evenodd"></path>
<path d="m 54.5,54.4 c -0.2,-1 -0.3,-1.1 -1.3,-1.3 0,0 0,0 -0.1,0 -0.1,0 -0.2,0 -0.2,0 -0.1,0.3 -0.6,1 -0.8,1.2 0,0 0,0 0,0 v 0 0 c 0,0 0,0 0,0 -0.1,-0.3 -0.7,-1 -0.8,-1.3 0,0 -0.1,0 -0.2,0 0,0 -0.1,0 -0.1,0 -1,0.2 -1.1,0.3 -1.3,1.3 0,0.2 0,0.3 0,0.3 0,0.4 1.1,0.6 2.4,0.6 v 0 0 c 1.3,0 2.3,-0.3 2.4,-0.6 0,0.1 0,0 0,-0.2 z" style="clip-rule:evenodd;fill:#000000;fill-opacity:1;fill-rule:evenodd"></path>
<rect x="49.700001" y="57" width="5" height="1" style="clip-rule:evenodd;fill:#000000;fill-opacity:1;fill-rule:evenodd"></rect>
<rect x="49.700001" y="59" width="5" height="1" style="clip-rule:evenodd;fill:#000000;fill-opacity:1;fill-rule:evenodd"></rect>
<rect x="41.700001" y="57" width="5" height="1" style="clip-rule:evenodd;fill:#000000;fill-opacity:1;fill-rule:evenodd"></rect>
<rect x="41.700001" y="59" width="5" height="1" style="clip-rule:evenodd;fill:#000000;fill-opacity:1;fill-rule:evenodd"></rect>
<path d="m 57.7,51.2 v -3 h -1 v -1 h -4.8 c -1.2,0 -2.5,0.4 -3.5,0.9 H 48 c -1.1,-0.5 -2.3,-0.9 -3.5,-0.9 h -4.8 v 1 h -1 v 14 H 57.1 V 60 h -0.5 v -0.8 h 1 v -3 h -1 v -1 h 1 v -2.9 h -1 v -1.1 z m -13,9.9 H 40.4 V 47.9 h 4.3 c 1.1,0 2.3,0.4 3.3,0.9 v 13.1 c -1.1,-0.5 -2.2,-0.8 -3.3,-0.8 z m 11.2,0 h -4.3 c -1.1,0 -2.3,0.2 -3.3,0.7 v -13 c 1,-0.5 2.1,-0.9 3.3,-0.9 h 4.3 z" style="clip-rule:evenodd;fill:#000000;fill-opacity:1;fill-rule:evenodd"></path>
</g>
</g>
</g>
</svg>