<svg xmlns="http://www.w3.org/2000/svg" x="0" y="0" height="20px" width="20px" viewBox="0 0 83.4 83.4" xml:space="preserve">
<g style="fill:#000000;fill-opacity:1" transform="matrix(2.059617,0,0,2.059617,-44.417735,-44.494971)">
<path d="m 61,46.3 -3.3,-1.4 c -0.5,-0.2 -1,-0.5 -0.9,-0.6 0,-0.1 0.1,-0.7 0.1,-1.3 v -2.7 c 0,-0.6 -0.1,-1.2 -0.1,-1.3 0,-0.1 0.4,-0.4 0.9,-0.6 L 61,37.1 c 0.5,-0.2 0.8,-0.8 0.6,-1.4 L 60,31.8 C 59.8,31.3 59.2,31 58.6,31.2 l -3.3,1.3 c -0.5,0.2 -1,0.3 -1.1,0.2 -0.1,-0.1 -0.4,-0.5 -0.8,-1 L 51.5,30 c -0.4,-0.4 -0.9,-0.7 -1,-0.8 -0.1,-0.1 0,-0.6 0.2,-1.1 l 1.4,-3.3 c 0.2,-0.5 0,-1.2 -0.6,-1.4 l -3.9,-1.6 c -0.5,-0.2 -1.2,0 -1.4,0.6 l -1.4,3.3 c -0.2,0.5 -0.5,1 -0.6,0.9 -0.1,0 -0.7,-0.1 -1.3,-0.2 0,0 -0.6,-0.1 -1.4,-0.1 -0.8,0 -1.3,0.1 -1.3,0.1 -0.6,0.1 -1.1,0.1 -1.3,0.2 -0.1,0 -0.4,-0.4 -0.6,-0.9 L 37,22.4 c -0.2,-0.5 -0.8,-0.8 -1.4,-0.6 l -3.9,1.6 c -0.5,0.2 -0.8,0.8 -0.6,1.4 l 1.3,3.3 c 0.2,0.5 0.3,1 0.2,1.1 -0.1,0.1 -0.5,0.4 -1,0.8 L 30,31.9 c -0.4,0.4 -0.7,0.9 -0.8,1 -0.1,0.1 -0.6,0 -1.1,-0.2 l -3.3,-1.4 c -0.5,-0.2 -1.2,0 -1.4,0.6 l -1.6,3.9 c -0.2,0.5 0,1.2 0.6,1.4 l 3.3,1.4 c 0.5,0.2 1,0.5 0.9,0.6 0,0.1 -0.1,0.7 -0.1,1.3 v 2.7 c 0,0.6 0.1,1.1 0.1,1.3 0,0.1 -0.4,0.4 -0.9,0.6 l -3.3,1.3 c -0.5,0.2 -0.8,0.8 -0.6,1.4 l 1.6,3.9 c 0.2,0.5 0.8,0.8 1.4,0.6 L 28.1,51 c 0.5,-0.2 1,-0.3 1.1,-0.2 0.1,0.1 0.4,0.5 0.8,1 l 1.9,1.9 c 0.4,0.4 0.9,0.7 1,0.8 0.1,0.1 0,0.6 -0.2,1.1 l -1.4,3.3 c -0.2,0.5 0,1.2 0.6,1.4 l 3.9,1.6 c 0.5,0.2 1.2,0 1.4,-0.6 L 38.6,58 c 0.2,-0.5 0.5,-1 0.6,-0.9 0.1,0 0.7,0.1 1.3,0.2 0,0 0.6,0.1 1.4,0.1 0.8,0 1.3,-0.1 1.3,-0.1 0.6,-0.1 1.1,-0.1 1.3,-0.2 0.1,0 0.4,0.4 0.6,0.9 l 1.3,3.3 c 0.2,0.5 0.8,0.8 1.4,0.6 l 3.9,-1.6 c 0.5,-0.2 0.8,-0.8 0.6,-1.4 L 51,55.6 c -0.2,-0.5 -0.3,-1 -0.2,-1.1 0.1,-0.1 0.5,-0.4 1,-0.8 l 1.9,-1.9 c 0.4,-0.4 0.7,-0.9 0.8,-1 0.1,-0.1 0.6,0 1.1,0.2 l 3.3,1.4 c 0.5,0.2 1.2,0 1.4,-0.6 l 1.6,-3.9 C 61.8,47.1 61.6,46.5 61,46.3 Z m -19.3,6 c -5.9,0 -10.6,-4.8 -10.6,-10.6 0,-5.9 4.7,-10.6 10.6,-10.6 5.9,0 10.6,4.7 10.6,10.6 0,5.9 -4.8,10.6 -10.6,10.6 z" style="fill:#000000;fill-opacity:1"></path>
</g>
</svg>