<svg xmlns="http://www.w3.org/2000/svg" x="0" y="0" width="20px" height="20px" viewBox="0 0 16 16" style="enable-background:new 0 0 16 16;" xml:space="preserve">
<g style="fill:#000000;fill-opacity:1" transform="matrix(1.0726888,0,0,1.0726888,-0.55798586,-0.59129055)">
<path fill="#0078D7" d="M 3.5,2.2 C 3.3,2 3.1,1.8 2.9,1.6 2.4,1.3 1.9,1.1 1.9,1.1 L 1.2,0.9 C 1.1,1.1 1,1.2 1,1.5 1,2.4 1.3,2.6 1.3,2.6 H 3.7 C 3.6,2.5 3.5,2.4 3.5,2.2 Z" style="fill:#000000;fill-opacity:1"></path>
<path fill="#0078D7" d="M 3.9,14.6 C 4.1,14.4 4.2,14.1 4.2,13.7 V 13.2 H 4.7 12 C 12,13 12,12.8 12,12.7 12,10.1 14.3,6.3 14.3,3.3 14.3,0.9 12,0.6 12,0.6 H 3.8 2 c 0,0 1.8,0.4 2.2,2 0.1,0.2 0.1,0.4 0.1,0.7 0,3 -2.3,6.8 -2.3,9.4 0,0.3 0,0.7 0.1,1 0.1,0.3 0.2,0.5 0.4,0.7 0.1,0.1 0.2,0.2 0.4,0.3 0.1,0.1 0.3,0.2 0.4,0.2 0.2,0 0.4,-0.1 0.6,-0.3 z" style="fill:#000000;fill-opacity:1"></path>
<path fill="#0078D7" d="M 3.4,15.4" style="fill:#000000;fill-opacity:1"></path>
<path fill="#0078D7" d="m 4.7,13.8 c 0,0.5 -0.2,1 -0.4,1.2 -0.3,0.3 -0.9,0.4 -0.9,0.4 h 9.8 0.3 c 0,0 0,0 0,0 0.3,0 0.6,-0.2 0.8,-0.5 0.2,-0.3 0.3,-0.7 0.3,-1.2 h -2.5 z" style="fill:#000000;fill-opacity:1"></path>
</g>
<g>
<path fill="#FFFFFF" d="M9,7.2c0,0-0.1-0.1-0.2-0.1L8.6,7.2c-0.1,0-0.1,0-0.2,0L8.3,7c0,0-0.1-0.1,0-0.2l0.1-0.2c0-0.1,0-0.1-0.1-0.1   L7.8,6.3c-0.1,0-0.1,0-0.1,0.1L7.5,6.6c0,0.1-0.1,0.1-0.1,0.1l-0.2,0C7.1,6.7,7,6.6,7,6.6L6.8,6.4c0-0.1-0.1-0.1-0.1-0.1   c0,0-0.1,0-0.2,0.1C6.3,6.4,6.2,6.5,6.2,6.5c0,0-0.1,0.1-0.1,0.2l0.1,0.2c0,0.1,0,0.1,0,0.2L6.1,7.3c0,0-0.1,0.1-0.2,0L5.6,7.2   c-0.1,0-0.1,0-0.1,0.1L5.3,7.8c0,0.1,0,0.1,0.1,0.1L5.6,8c0.1,0,0.1,0.1,0.1,0.1l0,0.2c0,0.1,0,0.1-0.1,0.2L5.4,8.7   c-0.1,0-0.1,0.1-0.1,0.1c0,0,0,0.1,0.1,0.2c0.1,0.1,0.1,0.2,0.1,0.2c0,0,0.1,0.1,0.2,0.1l0.2-0.1c0.1,0,0.1,0,0.2,0l0.2,0.2   c0,0,0.1,0.1,0,0.2L6.3,9.9c0,0.1,0,0.1,0.1,0.1l0.5,0.2c0.1,0,0.1,0,0.1-0.1l0.1-0.2c0-0.1,0.1-0.1,0.1-0.1l0.2,0   c0.1,0,0.1,0,0.2,0.1l0.1,0.2c0,0.1,0.1,0.1,0.1,0.1c0,0,0.1,0,0.2-0.1C8.2,10.1,8.3,10,8.3,10c0,0,0.1-0.1,0.1-0.2L8.3,9.6   c0-0.1,0-0.1,0-0.2l0.2-0.2c0,0,0.1-0.1,0.2,0l0.2,0.1c0.1,0,0.1,0,0.1-0.1l0.2-0.5c0-0.1,0-0.1-0.1-0.1L9,8.5   c-0.1,0-0.1-0.1-0.1-0.1l0-0.2c0-0.1,0-0.1,0.1-0.2l0.2-0.1c0.1,0,0.1-0.1,0.1-0.1c0,0,0-0.1-0.1-0.2C9.1,7.3,9,7.2,9,7.2z    M7.5,8.7c-0.3,0.1-0.6,0-0.7-0.3c-0.1-0.3,0-0.6,0.3-0.7c0.3-0.1,0.6,0,0.7,0.3C7.9,8.3,7.8,8.6,7.5,8.7z"></path>
<path fill="#FFFFFF" d="M11.6,5.4c0,0-0.1-0.1-0.1-0.1l-0.2,0c-0.1,0-0.1,0-0.1-0.1L11,5c0,0,0-0.1,0-0.1l0.1-0.2c0,0,0-0.1,0-0.1   l-0.3-0.3c0,0-0.1,0-0.1,0l-0.2,0.1c0,0-0.1,0-0.1,0l-0.2-0.1c0,0-0.1-0.1-0.1-0.1l0-0.2c0-0.1,0-0.1-0.1-0.1c0,0-0.1,0-0.2,0   c-0.1,0-0.2,0-0.2,0c0,0-0.1,0.1-0.1,0.1l0,0.2c0,0.1,0,0.1-0.1,0.1L9.2,4.4c0,0-0.1,0-0.1,0L8.9,4.2c0,0-0.1,0-0.1,0L8.4,4.6   c0,0,0,0.1,0,0.1l0.1,0.2c0,0,0,0.1,0,0.1L8.5,5.2c0,0-0.1,0.1-0.1,0.1l-0.2,0c-0.1,0-0.1,0-0.1,0.1c0,0,0,0.1,0,0.2   c0,0.1,0,0.2,0,0.2c0,0,0.1,0.1,0.1,0.1l0.2,0c0.1,0,0.1,0,0.1,0.1l0.1,0.2c0,0,0,0.1,0,0.1L8.4,6.6c0,0,0,0.1,0,0.1L8.7,7   c0,0,0.1,0,0.1,0L9,6.9c0,0,0.1,0,0.1,0l0.2,0.1c0,0,0.1,0.1,0.1,0.1l0,0.2c0,0.1,0,0.1,0.1,0.1c0,0,0.1,0,0.2,0c0.1,0,0.2,0,0.2,0   c0,0,0.1-0.1,0.1-0.1l0-0.2c0-0.1,0-0.1,0.1-0.1l0.2-0.1c0,0,0.1,0,0.1,0L10.8,7c0,0,0.1,0,0.1,0l0.3-0.3c0,0,0-0.1,0-0.1l-0.1-0.2   c0,0,0-0.1,0-0.1L11.1,6c0,0,0.1-0.1,0.1-0.1l0.2,0c0.1,0,0.1,0,0.1-0.1c0,0,0-0.1,0-0.2C11.6,5.5,11.6,5.4,11.6,5.4z M9.8,6.1   c-0.3,0-0.5-0.2-0.5-0.5c0-0.3,0.2-0.5,0.5-0.5c0.3,0,0.5,0.2,0.5,0.5C10.3,5.9,10.1,6.1,9.8,6.1z"></path>
</g>
</svg>