<svg xmlns="http://www.w3.org/2000/svg" x="0" y="0" width="20px" height="20px" viewBox="0 0 100 100" style="enable-background:new 0 0 100 100;" xml:space="preserve">
<path d="M93.5094299,48.0897789l-19.6131058-8.8011131c-0.9438782-0.4240646-2.0355988-0.2336044-2.7816467,0.4808807  c-0.746582,0.7165909-0.9801865,1.8004189-0.5950546,2.7611351l2.02034,5.0382271h-3.054718H52.6937866V27.6419716  l5.0140266,2.0732174c0.9549255,0.3935471,2.0413857,0.1715183,2.7658691-0.5661163  c0.7239532-0.7386875,0.9244118-1.8277779,0.5113983-2.7758656L52.4438744,6.7779942  c-0.3988075-0.9154677-1.3021736-1.5099955-2.3007698-1.5152564c-0.9975433-0.0021048-1.9072227,0.5797958-2.3160286,1.4900022  l-8.8005867,19.6141548c-0.4240646,0.9428253-0.2351837,2.0350723,0.4814072,2.781126  c0.4871979,0.5071907,1.1438103,0.7776222,1.8167305,0.7776222c0.3162041,0,0.6366196-0.0599785,0.9438782-0.183094  l5.0377007-2.0204735v19.8468342H33.954586h-6.5748577l2.0722332-5.0129738  c0.3951225-0.955452,0.1736221-2.0413857-0.5650654-2.7663956c-0.7381611-0.7250061-1.826725-0.9270401-2.7758656-0.5124512  L6.5158176,47.8182945c-0.9154673,0.3988075-1.5105214,1.3016472-1.5157824,2.3012962  c-0.0052614,0.9985962,0.5803223,1.9077492,1.4905281,2.3149757l19.613102,8.8011131  c0.3346195,0.1504745,0.6876526,0.2241325,1.0375309,0.2241325c0.6371441,0,1.2627125-0.2430725,1.744648-0.7060661  c0.7460537-0.7165909,0.9791298-1.8004189,0.5940018-2.7600822l-2.0202103-5.0371742h6.4949512h13.3516197v19.9260178  l-5.0119209-2.0712433c-0.9565048-0.3967056-2.0424385-0.1746826-2.7663956,0.5629578  c-0.7250061,0.7376328-0.9265137,1.827774-0.513504,2.7769165c0.0005264,0,0.0005264,0.0010529,0.0005264,0.0010529  L47.556118,93.747406c0.3988075,0.9154663,1.3021736,1.5099945,2.3007698,1.5152512c0.0047379,0,0.0089455,0,0.0131531,0  c0.9933357,0,1.8967018-0.5850525,2.3028755-1.4910507l8.8005867-19.6131058  c0.4240646-0.9438782,0.2351837-2.0350723-0.4814072-2.7821732c-0.7176437-0.7460556-1.8004189-0.9786072-2.7611351-0.5945282  l-5.0371742,2.020668V52.9564896h16.7914581h3.1346893l-2.0718994,5.0129738  c-0.3951263,0.955452-0.1736221,2.0413857,0.564537,2.7653427c0.4835129,0.4745674,1.1175003,0.7250061,1.7641144,0.7250061  c0.3409348,0,0.6850204-0.0694504,1.0122757-0.2125549l19.5952148-8.5412064  c0.9149399-0.3988075,1.5099945-1.3005943,1.5157776-2.2991905C95.0057449,49.4082642,94.4206848,48.4991074,93.5094299,48.0897789z  "></path>
</svg>