<svg xmlns="http://www.w3.org/2000/svg" x="0" y="0" width="20px" height="20px" viewBox="0 0 128 160" style="enable-background:new 0 0 128 128;" xml:space="preserve">
<g display="none">
<g display="inline">
<rect fill="none" stroke="#000000" stroke-width="0.1" stroke-miterlimit="10" width="128" height="128"></rect>
<line fill="none" stroke="#000000" stroke-width="0.1" stroke-miterlimit="10" x1="0" y1="124" x2="128" y2="124"></line>
<line fill="none" stroke="#000000" stroke-width="0.1" stroke-miterlimit="10" x1="0" y1="120" x2="128" y2="120"></line>
<line fill="none" stroke="#000000" stroke-width="0.1" stroke-miterlimit="10" x1="0" y1="116" x2="128" y2="116"></line>
<line fill="none" stroke="#000000" stroke-width="0.1" stroke-miterlimit="10" x1="0" y1="112" x2="128" y2="112"></line>
<line fill="none" stroke="#000000" stroke-width="0.1" stroke-miterlimit="10" x1="0" y1="108" x2="128" y2="108"></line>
<line fill="none" stroke="#000000" stroke-width="0.1" stroke-miterlimit="10" x1="0" y1="104" x2="128" y2="104"></line>
<line fill="none" stroke="#000000" stroke-width="0.1" stroke-miterlimit="10" x1="0" y1="100" x2="128" y2="100"></line>
<line fill="none" stroke="#000000" stroke-width="0.1" stroke-miterlimit="10" x1="0" y1="96" x2="128" y2="96"></line>
<line fill="none" stroke="#000000" stroke-width="0.1" stroke-miterlimit="10" x1="0" y1="92" x2="128" y2="92"></line>
<line fill="none" stroke="#000000" stroke-width="0.1" stroke-miterlimit="10" x1="0" y1="88" x2="128" y2="88"></line>
<line fill="none" stroke="#000000" stroke-width="0.1" stroke-miterlimit="10" x1="0" y1="84" x2="128" y2="84"></line>
<line fill="none" stroke="#000000" stroke-width="0.1" stroke-miterlimit="10" x1="0" y1="80" x2="128" y2="80"></line>
<line fill="none" stroke="#000000" stroke-width="0.1" stroke-miterlimit="10" x1="0" y1="76" x2="128" y2="76"></line>
<line fill="none" stroke="#000000" stroke-width="0.1" stroke-miterlimit="10" x1="0" y1="72" x2="128" y2="72"></line>
<line fill="none" stroke="#000000" stroke-width="0.1" stroke-miterlimit="10" x1="0" y1="68" x2="128" y2="68"></line>
<line fill="none" stroke="#000000" stroke-width="0.1" stroke-miterlimit="10" x1="0" y1="64" x2="128" y2="64"></line>
<line fill="none" stroke="#000000" stroke-width="0.1" stroke-miterlimit="10" x1="0" y1="60" x2="128" y2="60"></line>
<line fill="none" stroke="#000000" stroke-width="0.1" stroke-miterlimit="10" x1="0" y1="56" x2="128" y2="56"></line>
<line fill="none" stroke="#000000" stroke-width="0.1" stroke-miterlimit="10" x1="0" y1="52" x2="128" y2="52"></line>
<line fill="none" stroke="#000000" stroke-width="0.1" stroke-miterlimit="10" x1="0" y1="48" x2="128" y2="48"></line>
<line fill="none" stroke="#000000" stroke-width="0.1" stroke-miterlimit="10" x1="0" y1="44" x2="128" y2="44"></line>
<line fill="none" stroke="#000000" stroke-width="0.1" stroke-miterlimit="10" x1="0" y1="40" x2="128" y2="40"></line>
<line fill="none" stroke="#000000" stroke-width="0.1" stroke-miterlimit="10" x1="0" y1="36" x2="128" y2="36"></line>
<line fill="none" stroke="#000000" stroke-width="0.1" stroke-miterlimit="10" x1="0" y1="32" x2="128" y2="32"></line>
<line fill="none" stroke="#000000" stroke-width="0.1" stroke-miterlimit="10" x1="0" y1="28" x2="128" y2="28"></line>
<line fill="none" stroke="#000000" stroke-width="0.1" stroke-miterlimit="10" x1="0" y1="24" x2="128" y2="24"></line>
<line fill="none" stroke="#000000" stroke-width="0.1" stroke-miterlimit="10" x1="0" y1="20" x2="128" y2="20"></line>
<line fill="none" stroke="#000000" stroke-width="0.1" stroke-miterlimit="10" x1="0" y1="16" x2="128" y2="16"></line>
<line fill="none" stroke="#000000" stroke-width="0.1" stroke-miterlimit="10" x1="0" y1="12" x2="128" y2="12"></line>
<line fill="none" stroke="#000000" stroke-width="0.1" stroke-miterlimit="10" x1="0" y1="8" x2="128" y2="8"></line>
<line fill="none" stroke="#000000" stroke-width="0.1" stroke-miterlimit="10" x1="0" y1="4" x2="128" y2="4"></line>
<line fill="none" stroke="#000000" stroke-width="0.1" stroke-miterlimit="10" x1="124" y1="0" x2="124" y2="128"></line>
<line fill="none" stroke="#000000" stroke-width="0.1" stroke-miterlimit="10" x1="120" y1="0" x2="120" y2="128"></line>
<line fill="none" stroke="#000000" stroke-width="0.1" stroke-miterlimit="10" x1="116" y1="0" x2="116" y2="128"></line>
<line fill="none" stroke="#000000" stroke-width="0.1" stroke-miterlimit="10" x1="112" y1="0" x2="112" y2="128"></line>
<line fill="none" stroke="#000000" stroke-width="0.1" stroke-miterlimit="10" x1="108" y1="0" x2="108" y2="128"></line>
<line fill="none" stroke="#000000" stroke-width="0.1" stroke-miterlimit="10" x1="104" y1="0" x2="104" y2="128"></line>
<line fill="none" stroke="#000000" stroke-width="0.1" stroke-miterlimit="10" x1="100" y1="0" x2="100" y2="128"></line>
<line fill="none" stroke="#000000" stroke-width="0.1" stroke-miterlimit="10" x1="96" y1="0" x2="96" y2="128"></line>
<line fill="none" stroke="#000000" stroke-width="0.1" stroke-miterlimit="10" x1="92" y1="0" x2="92" y2="128"></line>
<line fill="none" stroke="#000000" stroke-width="0.1" stroke-miterlimit="10" x1="88" y1="0" x2="88" y2="128"></line>
<line fill="none" stroke="#000000" stroke-width="0.1" stroke-miterlimit="10" x1="84" y1="0" x2="84" y2="128"></line>
<line fill="none" stroke="#000000" stroke-width="0.1" stroke-miterlimit="10" x1="80" y1="0" x2="80" y2="128"></line>
<line fill="none" stroke="#000000" stroke-width="0.1" stroke-miterlimit="10" x1="76" y1="0" x2="76" y2="128"></line>
<line fill="none" stroke="#000000" stroke-width="0.1" stroke-miterlimit="10" x1="72" y1="0" x2="72" y2="128"></line>
<line fill="none" stroke="#000000" stroke-width="0.1" stroke-miterlimit="10" x1="68" y1="0" x2="68" y2="128"></line>
<line fill="none" stroke="#000000" stroke-width="0.1" stroke-miterlimit="10" x1="64" y1="0" x2="64" y2="128"></line>
<line fill="none" stroke="#000000" stroke-width="0.1" stroke-miterlimit="10" x1="60" y1="0" x2="60" y2="128"></line>
<line fill="none" stroke="#000000" stroke-width="0.1" stroke-miterlimit="10" x1="56" y1="0" x2="56" y2="128"></line>
<line fill="none" stroke="#000000" stroke-width="0.1" stroke-miterlimit="10" x1="52" y1="0" x2="52" y2="128"></line>
<line fill="none" stroke="#000000" stroke-width="0.1" stroke-miterlimit="10" x1="48" y1="0" x2="48" y2="128"></line>
<line fill="none" stroke="#000000" stroke-width="0.1" stroke-miterlimit="10" x1="44" y1="0" x2="44" y2="128"></line>
<line fill="none" stroke="#000000" stroke-width="0.1" stroke-miterlimit="10" x1="40" y1="0" x2="40" y2="128"></line>
<line fill="none" stroke="#000000" stroke-width="0.1" stroke-miterlimit="10" x1="36" y1="0" x2="36" y2="128"></line>
<line fill="none" stroke="#000000" stroke-width="0.1" stroke-miterlimit="10" x1="32" y1="0" x2="32" y2="128"></line>
<line fill="none" stroke="#000000" stroke-width="0.1" stroke-miterlimit="10" x1="28" y1="0" x2="28" y2="128"></line>
<line fill="none" stroke="#000000" stroke-width="0.1" stroke-miterlimit="10" x1="24" y1="0" x2="24" y2="128"></line>
<line fill="none" stroke="#000000" stroke-width="0.1" stroke-miterlimit="10" x1="20" y1="0" x2="20" y2="128"></line>
<line fill="none" stroke="#000000" stroke-width="0.1" stroke-miterlimit="10" x1="16" y1="0" x2="16" y2="128"></line>
<line fill="none" stroke="#000000" stroke-width="0.1" stroke-miterlimit="10" x1="12" y1="0" x2="12" y2="128"></line>
<line fill="none" stroke="#000000" stroke-width="0.1" stroke-miterlimit="10" x1="8" y1="0" x2="8" y2="128"></line>
<line fill="none" stroke="#000000" stroke-width="0.1" stroke-miterlimit="10" x1="4" y1="0" x2="4" y2="128"></line>
</g>
</g>
<g>
<g>
<g>
<g>
<g>
<line fill="none" stroke="#000000" stroke-width="5" stroke-miterlimit="10" x1="21.1" y1="64" x2="53.7" y2="64"></line>
<polyline fill="none" stroke="#000000" stroke-width="5" stroke-miterlimit="10" points="44.3,54.3 53.9,63.9 44,73.7      "></polyline>
</g>
</g>
</g>
<g>
<g>
<g>
<line fill="none" stroke="#000000" stroke-width="5" stroke-miterlimit="10" x1="64" y1="70.7" x2="64" y2="103.3"></line>
<polyline fill="none" stroke="#000000" stroke-width="5" stroke-miterlimit="10" points="54.3,93.9 63.9,103.5 73.7,93.6      "></polyline>
</g>
</g>
</g>
<g>
<g>
<g>
<line fill="none" stroke="#000000" stroke-width="5" stroke-miterlimit="10" x1="106.9" y1="64" x2="74.3" y2="64"></line>
<polyline fill="none" stroke="#000000" stroke-width="5" stroke-miterlimit="10" points="83.7,73.7 74.1,64.1 84,54.3      "></polyline>
</g>
</g>
</g>
<g>
<g>
<g>
<line fill="none" stroke="#000000" stroke-width="5" stroke-miterlimit="10" x1="64" y1="57.3" x2="64" y2="24.7"></line>
<polyline fill="none" stroke="#000000" stroke-width="5" stroke-miterlimit="10" points="73.7,34.1 64.1,24.5 54.3,34.4      "></polyline>
</g>
</g>
</g>
<circle fill="none" stroke="#000000" stroke-width="5" stroke-miterlimit="10" cx="64" cy="64" r="60"></circle>
</g>
</g>
</svg>