<svg xmlns="http://www.w3.org/2000/svg" x="0" y="0" height="20px" width="20px" viewBox="0 0 83.4 83.4" xml:space="preserve">
<g style="fill:#000000;fill-opacity:1" transform="matrix(2.0195599,0,0,2.0195599,-42.515648,-42.515647)">
<rect x="25.200001" y="21.200001" width="11" height="11" style="fill:#000000;fill-opacity:1"></rect>
<rect x="38.200001" y="21.200001" width="11" height="11" style="fill:#000000;fill-opacity:1"></rect>
<rect x="51.200001" y="21.200001" width="11" height="11" style="fill:#000000;fill-opacity:1"></rect>
<rect x="25.200001" y="34.200001" width="11" height="11" style="fill:#000000;fill-opacity:1"></rect>
<rect x="38.200001" y="34.200001" width="11" height="11" style="fill:#000000;fill-opacity:1"></rect>
<rect x="51.200001" y="34.200001" width="11" height="11" style="fill:#000000;fill-opacity:1"></rect>
<rect x="25.200001" y="47.200001" width="11" height="11" style="fill:#000000;fill-opacity:1"></rect>
<rect x="38.200001" y="47.200001" width="11" height="11" style="fill:#000000;fill-opacity:1"></rect>
<rect x="51.200001" y="47.200001" width="11" height="11" style="fill:#000000;fill-opacity:1"></rect>
<polygon points="23.2,60.2 24.2,60.2 62.2,60.2 62.2,62.2 21.2,62.2 21.2,21.2 23.2,21.2 " style="fill:#000000;fill-opacity:1"></polygon>
</g>
</svg>