<svg xmlns="http://www.w3.org/2000/svg" x="0" y="0" height="20px" width="20px" viewBox="0 0 83.4 83.4" xml:space="preserve">
<g style="fill:#000000;fill-opacity:1" transform="matrix(2.1805431,0,0,2.1805431,-49.26637,-49.294063)">
<g transform="translate(45.0173,-3660.32)" style="fill:#000000;fill-opacity:1">
<path d="m 13.4,3688 h -33.6 c -1.1,0 -2.1,1 -2.1,2.2 v 23.7 c 0,1.1 0.9,2.2 2.1,2.2 h 33.6 c 1.1,0 2.3,-1 2.3,-2.2 v -23.7 c 0,-1.2 -1.2,-2.2 -2.3,-2.2 z M -1,3715.1 h -4.7 c -0.5,0 -0.9,-0.3 -0.9,-0.6 0,-0.3 0.4,-0.6 0.9,-0.6 H -1 c 0.5,0 0.9,0.3 0.9,0.6 0,0.4 -0.4,0.6 -0.9,0.6 z M 12.7,3691 v 22 h -32 v -22 z" style="fill:#000000;fill-opacity:1"></path>
</g>
</g>
</svg>