<svg xmlns="http://www.w3.org/2000/svg" x="0" y="0" width="20px" height="20px" viewBox="0 0 152 117.5" xml:space="preserve">
<g style="fill:#000000;fill-opacity:1" transform="matrix(4.1995578,0,0,4.1995578,-249.21376,-162.73468)">
<g transform="translate(1239.04,-2598.31)" style="fill:#000000;fill-opacity:1">
<g transform="translate(3.40575,-3.5085)" style="fill:#000000;fill-opacity:1">
<path d="m -1164.3,2658.6 -0.4,-1.5 -1.4,0.1 c -0.1,-0.2 -0.3,-0.4 -0.5,-0.6 l 0.5,-1.2 -1.4,-0.8 -0.8,1 c -0.3,-0.1 -0.6,-0.1 -0.9,-0.1 l -0.5,-1.2 -1.5,0.4 0.2,1.3 c -0.2,0.1 -0.4,0.3 -0.6,0.4 l -1.2,-0.5 -0.8,1.4 1,0.8 c -0.1,0.3 -0.1,0.6 -0.1,0.8 l -1.1,0.5 0.4,1.5 1.3,-0.1 c 0.1,0.3 0.3,0.5 0.5,0.7 l -0.5,1.1 1.4,0.8 0.8,-1 c 0.3,0.1 0.5,0.1 0.8,0.1 l 0.5,1.1 1.5,-0.4 -0.1,-1.3 c 0.2,-0.2 0.5,-0.3 0.7,-0.5 l 1.2,0.5 0.8,-1.3 -1,-0.8 c 0.1,-0.3 0.1,-0.5 0.1,-0.8 z m -3.8,2.4 c -1.1,0.6 -2.4,0.1 -3,-1 -0.6,-1.1 -0.1,-2.4 1,-3 1.1,-0.5 2.4,-0.1 3,1 0.5,1.1 0.1,2.5 -1,3 z" style="fill:#000000;fill-opacity:1"></path>
</g>
<g transform="translate(9.71025,-7.14675)" style="fill:#000000;fill-opacity:1">
<path d="m -1166.3,2654.5 c -0.3,-0.1 -0.6,-0.1 -0.9,-0.1 l -0.5,-1.2 -1.5,0.4 0.2,1.3 c -0.2,0.1 -0.4,0.3 -0.6,0.4 l -1.2,-0.5 -0.8,1.4 1,0.8 c -0.1,0.3 -0.1,0.6 -0.1,0.8 l -1.1,0.5 0.4,1.5 1.3,-0.1 c 0.1,0.3 0.3,0.5 0.5,0.7 l -0.5,1.1 1.4,0.8 0.8,-1 c 0.3,0.1 0.5,0.1 0.8,0.1 l 0.5,1.1 1.5,-0.4 -0.1,-1.3 c 0.2,-0.1 0.5,-0.3 0.7,-0.5 l 1.2,0.5 0.8,-1.3 -1,-0.8 c 0.1,-0.3 0.1,-0.5 0.1,-0.8 l 1.2,-0.5 -0.4,-1.5 -1.4,0.1 c -0.1,-0.2 -0.3,-0.4 -0.5,-0.6 l 0.5,-1.2 -1.4,-0.8 z m 0.1,5.4 c -1.1,0.6 -2.4,0.1 -3,-1 -0.6,-1.1 -0.1,-2.4 1,-3 1.1,-0.6 2.4,-0.1 3,1 0.5,1.1 0.1,2.5 -1,3 z" style="fill:#000000;fill-opacity:1"></path>
</g>
<path d="m -1153.8,2637.2 h -0.4 c 0,0 -1.3,0 -2.7,0 h -14.4 c -2,0 -3.6,1.6 -3.6,3.6 v 20.5 c 0,2 1.6,3.6 3.6,3.6 h 19.4 c 2,0 3.6,-1.6 3.6,-3.6 v -15.7 -2.9 z m 3.6,24.1 c 0,0.9 -0.7,1.6 -1.6,1.6 h -19.4 c -0.9,0 -1.6,-0.7 -1.6,-1.6 v -20.5 c 0,-0.9 0.7,-1.6 1.6,-1.6 h 14.4 c 0.9,0 1.7,0 2.2,0 v 4.5 h 4.4 z" style="fill:#000000;fill-opacity:1"></path>
</g>
</g>
</svg>