<svg xmlns="http://www.w3.org/2000/svg" x="0" y="0" height="20px" width="20px" viewBox="0 0 83.4 83.4" xml:space="preserve">
<g style="fill:#000000;fill-opacity:1" transform="matrix(1.8489966,0,0,1.8489966,-35.365538,-35.495607)">
<path d="m 41.4,44.5 2.5,2.4 2.8,-2.7 c -0.2,-1.3 0.3,-2.7 1.3,-3.7 1,-1 2.5,-1.5 3.8,-1.3 L 64.1,27.3 57.2,20.7 45,32.6 c 0.1,1.3 -0.3,2.7 -1.3,3.7 -1,1 -2.5,1.4 -3.8,1.3 l -2.9,2.7 2.5,2.4 -12.1,11.7 -0.5,-0.4 -2.3,1.8 -3.9,6 1,1 6.2,-3.8 1.9,-2.3 -0.4,-0.4 z m 7,-1.1 c -0.1,0.4 -0.1,0.8 -0.1,1.2 l 0.1,0.5 -0.4,0.3 -2.8,2.7 -1,1 -2.5,-2.4 -1.3,1.3 13.7,13.3 c 0.9,0.9 2,1.3 3.2,1.3 1.2,0 2.3,-0.4 3.2,-1.3 1.8,-1.7 1.8,-4.5 0,-6.2 z M 31.8,39.8 v 0 l 4.1,4 1.3,-1.3 -1.7,-1.7 -0.8,-0.7 4.3,-4.1 0.5,0.1 c 0.1,0 0.3,0 0.4,0 0.3,0 0.5,0 0.8,-0.1 L 38.2,33.6 38,33.5 c 0.9,-3.1 0.1,-6.6 -2.4,-9 -2.5,-2.4 -6.1,-3.2 -9.3,-2.4 l 5.4,5.2 -1.4,5.2 -5.3,1.3 -5.4,-5.3 c -0.9,3.1 0,6.5 2.5,9 2.6,2.6 6.4,3.3 9.7,2.3 z" style="clip-rule:evenodd;fill:#000000;fill-opacity:1;fill-rule:evenodd"></path>
</g>
</svg>