<svg xmlns="http://www.w3.org/2000/svg" x="0" y="0" width="20px" height="20px" viewBox="0 0 16 16" style="enable-background:new 0 0 16 16;" xml:space="preserve">
<g style="fill:#000000;fill-opacity:1" transform="matrix(1.0700456,0,0,1.0700456,-0.66736936,-0.66736936)">
<path fill="#0078D7" d="M 3.8,2.3 C 3.6,2.1 3.4,1.9 3.2,1.7 2.7,1.4 2.2,1.2 2.2,1.2 L 1.5,1 C 1.4,1.2 1.3,1.3 1.3,1.6 1.3,2.5 1.6,2.7 1.6,2.7 H 4 C 3.9,2.6 3.9,2.5 3.8,2.3 Z" style="fill:#000000;fill-opacity:1"></path>
<path fill="#0078D7" d="M 4.2,14.7 C 4.4,14.5 4.5,14.2 4.5,13.8 V 13.3 H 5 12.3 c 0,-0.2 0,-0.4 0,-0.5 0,-2.6 2.3,-6.4 2.3,-9.4 C 14.6,1 12.3,0.7 12.3,0.7 H 4.1 2.3 c 0,0 1.8,0.4 2.2,2 0.1,0.2 0.1,0.4 0.1,0.7 0,3 -2.3,6.8 -2.3,9.4 0,0.3 0,0.7 0.1,1 0.1,0.3 0.2,0.5 0.4,0.7 0.1,0.1 0.2,0.2 0.4,0.3 0.1,0.1 0.2,0.2 0.4,0.2 0.2,0 0.4,-0.1 0.6,-0.3 z" style="fill:#000000;fill-opacity:1"></path>
<path fill="#0078D7" d="M 3.7,15.5" style="fill:#000000;fill-opacity:1"></path>
<path fill="#0078D7" d="m 5,13.9 c 0,0.5 -0.2,1 -0.4,1.2 -0.3,0.3 -0.9,0.4 -0.9,0.4 h 9.8 0.3 c 0,0 0,0 0,0 0.3,0 0.6,-0.2 0.8,-0.5 0.2,-0.3 0.3,-0.7 0.3,-1.2 h -2.5 z" style="fill:#000000;fill-opacity:1"></path>
</g>
<path fill="#FFFFFF" d="M11.1,4.4L8.8,6.5h2l-3.9,3.6l1.6-3H6.7l2-3h2.4V4.4z"></path>
</svg>