<svg xmlns="http://www.w3.org/2000/svg" x="0" y="0" height="20px" width="20px" viewBox="0 0 792 612" xml:space="preserve">
<g transform="matrix(1.8243327,0,0,1.8243327,-314.39515,-249.69174)" style="fill:#000000;fill-opacity:1">
<path d="m 498,278 h -16.3 v -43.8 c 0,-63.5 -40.3,-96.1 -87.6,-96.1 h -7.7 c -48.1,0 -87.6,31.8 -87.6,96.1 v 2.6 h 30.9 v -2.6 c 0,-40.3 21.5,-67.8 57.5,-67.8 h 7.7 c 36.9,0 57.5,27.5 57.5,67.8 v 42.9 H 328.9 v 0 H 298 v 0 h -16.3 c -6.9,0 -16.3,9.4 -16.3,16.3 v 161.4 c 0,6.9 9.4,16.3 16.3,16.3 h 215.4 c 6.9,0 16.3,-9.4 16.3,-16.3 V 293.5 C 513.4,286.6 504,278 498,278 Z m -96.2,94.4 v 67 h -24 v -67 c -9.4,-4.3 -16.3,-13.7 -16.3,-24.9 0,-15.5 12.9,-28.3 28.3,-28.3 15.5,0 28.3,12.9 28.3,28.3 0.1,11.2 -6.8,20.7 -16.3,24.9 z" style="fill:#000000;fill-opacity:1"></path>
</g>
</svg>