<svg xmlns="http://www.w3.org/2000/svg" x="0" y="0" height="20px" width="20px" viewBox="0 0 792 612" xml:space="preserve">
<g style="fill:#000000;fill-opacity:1" transform="matrix(2.2850723,0,0,2.2850723,-508.88863,-393.11787)">
<path d="m 457.1,241.9 h -38.5 v 38.5 H 432 c 0.4,8.8 0.5,19.9 -3.5,23.9 -2.1,2.1 -7.7,4.3 -12.4,6 -4.6,1.7 -9.9,3.7 -14.5,6.4 V 220.5 H 423 l -26.1,-47 -29.5,47 h 21.4 v 125.9 c -3,-1.9 -6.2,-3.5 -9,-5 -4.3,-1.7 -7.7,-3.4 -9.8,-5.6 -5.2,-4.8 -7.1,-12.7 -7.2,-30.4 8.7,-2.7 14.9,-10.7 14.9,-20.4 0,-12 -9.4,-21.4 -21.4,-21.4 -12,0 -21.4,9.4 -21.4,21.4 0,9.7 6.2,17.8 15,20.4 0.2,18.6 2.2,30.9 11.1,39.4 3.8,3.4 8.5,6 13.2,8.1 9,4.3 14.5,7.7 14.5,13.7 v 25.7 c -9.8,2.8 -17.1,12 -17.1,22.6 0,12.8 10.7,23.5 23.5,23.5 12.8,0 23.5,-10.7 23.5,-23.5 0,-10.6 -7.3,-19.7 -17.1,-22.6 v -56.1 c 0,-6.4 7.7,-9.8 19.2,-14.5 6.8,-2.6 13.2,-4.7 17.1,-9 7.5,-7.9 7.3,-21.1 6.9,-32.5 H 457 v -38.3 z" style="fill:#000000;fill-opacity:1"></path>
</g>
</svg>