<svg xmlns="http://www.w3.org/2000/svg" x="0" y="0" height="20px" width="20px" viewBox="0 0 792 612" xml:space="preserve">
<g style="fill:#000000;fill-opacity:1" transform="matrix(3.2971838,0,0,3.2971838,-909.84964,-719.09444)">
<path d="m 477.5,218.7 v 8.6 h -17.2 v -8.6 H 331.7 v 8.6 h -17.2 v -8.6 h -8.6 v 184.4 h 8.6 v -8.6 h 17.2 v 8.6 h 128.7 v -8.6 h 17.2 v 8.6 h 8.6 V 218.7 Z m -145.8,163 h -17.2 v -12.9 h 17.2 z m 0,-25.8 H 314.5 V 343 h 17.2 z m 0,-25.7 h -17.2 v -12.9 h 17.2 z m 0,-25.7 h -17.2 v -12.9 h 17.2 z m 0,-25.8 h -17.2 v -12.9 h 17.2 z m 0,-25.7 h -17.2 v -12.9 h 17.2 z M 451.8,390.3 H 340.2 v -72.9 h 111.5 v 72.9 z m 0,-85.8 H 340.2 v -72.9 h 111.5 v 72.9 z m 25.7,77.2 h -17.2 v -12.9 h 17.2 z m 0,-25.8 H 460.3 V 343 h 17.2 z m 0,-25.7 h -17.2 v -12.9 h 17.2 z m 0,-25.7 h -17.2 v -12.9 h 17.2 z m 0,-25.8 h -17.2 v -12.9 h 17.2 z m 0,-25.7 h -17.2 v -12.9 h 17.2 z" style="fill:#000000;fill-opacity:1"></path>
</g>
</svg>