<svg xmlns="http://www.w3.org/2000/svg" x="0" y="0" height="20px" width="20px" viewBox="0 0 792 612" xml:space="preserve">
<g style="fill:#000000;fill-opacity:1" transform="matrix(2.1951701,0,0,2.1951701,-495.45944,-401.06429)">
<path d="M 537.6,183.9 H 273 c -8.7,0 -16.5,7.1 -16.5,16.5 v 187.5 c 0,8.7 7.1,17.3 16.5,17.3 h 90.6 c 9.5,34.7 5.5,37.8 -52,37.8 v 17.3 h 189 V 443 c -57.5,0 -65.4,-3.2 -55.9,-37.8 h 92.9 c 8.7,0 18.1,-7.9 18.1,-15.8 v -189 c 0.1,-9.4 -9.4,-16.5 -18.1,-16.5 z m -5.5,196.9 H 278.5 l 1.6,-174.1 252,0.8 z" style="fill:#000000;fill-opacity:1"></path>
<polygon points="402.2,287.1 448.6,260.3 448.6,259.6 402.2,232.8 356.5,259.6 356.5,260.3 " style="fill:#000000;fill-opacity:1"></polygon>
<polygon points="406.1,297.4 406.1,350.1 453.4,323.4 453.4,270.6 " style="fill:#000000;fill-opacity:1"></polygon>
<polygon points="398.2,297.4 351,270.6 351,323.4 398.2,350.1 " style="fill:#000000;fill-opacity:1"></polygon>
</g>
</svg>