<svg xmlns="http://www.w3.org/2000/svg" x="0" y="0" height="20px" width="20px" viewBox="0 0 83.4 83.4" xml:space="preserve">
<g transform="matrix(1.8151988,0,0,1.8151988,-33.993789,-34.084549)" style="fill:#000000;fill-opacity:1">
<g style="fill:#000000;fill-opacity:1">
<g style="fill:#000000;fill-opacity:1">
<polygon points="37.5,37.2 43.4,33.8 43.4,33.7 37.5,30.3 31.7,33.7 31.7,33.8 " style="clip-rule:evenodd;fill:#000000;fill-opacity:1;fill-rule:evenodd"></polygon>
<polygon points="38.1,38.5 38.1,45.2 44,41.8 44,35.1 " style="clip-rule:evenodd;fill:#000000;fill-opacity:1;fill-rule:evenodd"></polygon>
<polygon points="37,38.5 31.1,35.1 31.1,41.8 37,45.2 " style="clip-rule:evenodd;fill:#000000;fill-opacity:1;fill-rule:evenodd"></polygon>
<path d="m 62.7,43 c -4.6,2.1 -5.5,-2.1 -7.5,-2.1 -2,0 -2.9,4.2 -7.5,2.1 -1,-0.5 -1.7,0.4 -1.7,1.3 0,12.5 9.2,15 9.2,15 0,0 9.2,-2.5 9.2,-15 0,-0.9 -0.6,-1.9 -1.7,-1.3 z" style="fill:#000000;fill-opacity:1"></path>
<path d="m 48.4,57 c -5.8,-0.1 -6.6,-0.7 -5.5,-4.8 h 2.6 c -0.4,-0.9 -0.7,-1.9 -0.9,-3 H 21.9 L 22,27.1 54,27.2 v 11.9 c 0.4,-0.1 0.7,-0.2 1.2,-0.2 0.7,0 1.3,0.2 1.8,0.5 V 26.2 c 0,-1.1 -1.2,-2 -2.3,-2 H 21.1 C 20,24.2 19,25.1 19,26.3 v 23.8 c 0,1.1 0.9,2.2 2.1,2.2 h 11.5 c 1.2,4.4 0.7,4.8 -6.6,4.8 v 2.2 h 24 v -0.7 c -0.5,-0.5 -1.1,-1 -1.6,-1.6 z" style="clip-rule:evenodd;fill:#000000;fill-opacity:1;fill-rule:evenodd"></path>
</g>
</g>
</g>
</svg>