<svg xmlns="http://www.w3.org/2000/svg" x="0" y="0" height="20px" width="20px" viewBox="0 0 792 612" xml:space="preserve">
<g style="fill:#000000;fill-opacity:1" transform="matrix(1.859053,0,0,1.859053,-340.18499,-317.43342)">
<path d="m 441.7,498.8 c -42.5,0 -77.2,-34.7 -77.2,-77.2 0,-42.5 34.7,-77.2 77.2,-77.2 42.5,0 77.2,34.7 77.2,77.2 0,42.6 -34.7,77.2 -77.2,77.2 z m -18.9,-40.1 c 5.5,18.9 13.4,28.4 18.9,28.4 5.5,0 14.2,-8.7 18.9,-28.4 -6.3,-0.8 -12.6,-1.6 -18.9,-1.6 -6.3,0 -12.6,0.8 -18.9,1.6 z m -28.4,7.1 c 7.1,7.9 15.8,13.4 25.2,16.5 -3.9,-6.3 -6.3,-13.4 -8.7,-22.1 -6.2,1.6 -11.7,3.2 -16.5,5.6 z m 78.8,-5.5 c -2.4,8.7 -5.5,15.8 -8.7,22.1 9.5,-3.2 18.1,-9.5 25.2,-17.3 -4.7,-1.7 -10.2,-3.3 -16.5,-4.8 z m -96.1,-33.1 c 0.8,10.2 3.9,18.9 9.5,28.4 6.3,-3.2 13.4,-5.5 21.3,-7.1 -1.6,-7.1 -1.6,-14.2 -2.4,-21.3 z m 98.5,22 c 7.9,1.6 15.8,3.9 21.3,7.1 5.5,-9.5 8.7,-18.1 9.5,-28.4 h -29.1 c 0.6,7.1 -0.2,13.5 -1.7,21.3 z m -57.5,-22 c 0,6.3 0.8,12.6 1.6,18.9 7.1,-0.8 15,-1.6 22.1,-1.6 7.1,0 14.2,0.8 22.1,1.6 0.8,-6.3 1.6,-12.6 1.6,-18.9 z m 89,-12.6 c -0.8,-11 -4.7,-21.3 -11,-30.7 -6.3,3.2 -13.4,5.5 -20.5,7.1 1.6,7.1 2.4,15 2.4,23.6 z m -41,0 c 0,-7.1 -0.8,-15 -2.4,-21.3 -7.1,0.8 -14.2,1.6 -21.3,1.6 -7.1,0 -14.2,-0.8 -21.3,-1.6 -1.6,6.3 -2.4,14.2 -2.4,21.3 z m -59.9,0 c 0,-7.9 0.8,-15.8 2.4,-23.6 -7.9,-1.6 -14.2,-3.9 -20.5,-7.1 -6.3,9.5 -10.2,19.7 -11.8,30.7 z m 17.4,-32.3 c 6.3,0.8 12.6,1.6 18.9,1.6 6.3,0 12.6,-0.8 18.9,-1.6 -5.5,-18.1 -13.4,-26 -18.9,-26 -6.3,0 -14.2,7.9 -18.9,26 z M 396,375.2 c 4.7,1.6 10.2,3.9 15.8,4.7 2.4,-7.9 4.7,-14.2 8.7,-19.7 -9.5,3.2 -17.4,7.9 -24.5,15 z m 68.5,-15 c 3.2,5.5 6.3,12.6 8.7,19.7 5.5,-1.6 11,-3.2 15.8,-4.7 -7.9,-7.1 -15.8,-11.8 -24.5,-15 z" style="fill:#000000;fill-opacity:1"></path>
<path d="m 441.7,346 c -41,0 -74.8,33.9 -74.8,74.8 0,40.9 33.9,74.8 74.8,74.8 40.9,0 74.8,-33.9 74.8,-74.8 0,-40.9 -33.1,-74.8 -74.8,-74.8 z m 0,142.6 c -8.7,0 -17.3,-12.6 -22.1,-32.3 7.1,-0.8 15,-1.6 22.1,-1.6 7.1,0 15,0.8 22.1,1.6 -4.8,20.5 -13.5,32.3 -22.1,32.3 z m 0,-40.9 c -7.9,0 -15.8,0.8 -23.6,1.6 -1.6,-7.9 -2.4,-15 -2.4,-24.4 h 52.8 c 0,9.5 -0.8,16.5 -2.4,24.4 -7.9,-0.9 -15.8,-1.6 -24.4,-1.6 z m 0,-93.8 c 7.9,0 16.5,11.8 22.1,30.7 -7.1,0.8 -14.2,1.6 -22.1,1.6 -7.1,0 -15,-0.8 -22.1,-1.6 5.5,-19.7 14.2,-30.7 22.1,-30.7 z m 0,38.6 c 7.9,0 15.8,-0.8 23.6,-1.6 1.6,7.9 2.4,16.5 3.2,26 h -52.8 c 0,-9.5 1.6,-18.9 3.2,-26 7,1.6 14.9,1.6 22.8,1.6 z m -33.1,24.4 h -34.7 c 0.8,-13.4 6.3,-26 13.4,-35.4 7.1,3.2 15,6.3 24.4,7.9 -1.6,7.9 -2.4,16.5 -3.2,26 z m 0,7.9 c 0,9.5 0.8,17.3 2.4,25.2 -9.5,1.6 -18.1,4.7 -25.2,7.9 -7.1,-10.2 -11,-21.3 -11,-33.9 h 33.9 v 0.8 z m 67,0 h 33.9 c -0.8,12.6 -4.7,23.6 -11,33.9 -7.1,-3.2 -15.8,-6.3 -25.2,-7.9 1.5,-8.7 2.3,-15.8 2.3,-26 z m 0,-7.9 c 0,-9.5 -1.6,-19.7 -3.2,-27.6 8.7,-1.6 17.3,-4.7 24.4,-7.9 7.1,10.2 11.8,22.8 12.6,35.4 h -33.8 v -1.6 z M 492.1,376 c -6.3,3.2 -13.4,5.5 -21.3,7.1 -3.2,-11 -7.1,-20.5 -12.6,-26.8 13.4,3.1 25.2,10.2 33.9,19.7 z m -66.2,-20.5 c -5.5,6.3 -9.5,15.8 -12.6,26.8 -7.9,-1.6 -15,-3.9 -21.3,-7.1 8.7,-8.7 20.5,-15.8 33.9,-19.7 z M 390.5,465 c 6.3,-3.2 14.2,-5.5 22.1,-7.1 3.2,12.6 7.9,22.1 12.6,29.1 -13.4,-3.9 -26,-11.8 -34.7,-22 z m 67.7,22 c 5.5,-7.1 10.2,-16.5 13.4,-29.1 8.7,1.6 15.8,3.9 22.1,7.1 -8.7,10.2 -21.3,18.1 -35.5,22 z" style="fill:#000000;fill-opacity:1"></path>
<path d="m 351.9,416.9 c 1.6,-44.1 35.4,-80.3 78.8,-85.9 V 187.7 c 0,-8.7 -7.1,-15.8 -15.8,-15.8 h -126 c -8.7,0 -15.8,7.1 -15.8,15.8 V 494.9 H 391.2 C 379.4,487 369.9,476 362.8,463.4 h -66.2 v -15.8 h 59.1 c -1.6,-4.7 -2.4,-10.2 -3.2,-15.8 H 296.6 V 416 h 55.1 v 0.9 z M 296.8,220 H 407 v 15.8 H 296.8 Z" style="fill:#000000;fill-opacity:1"></path>
</g>
</svg>