<svg xmlns="http://www.w3.org/2000/svg" x="0" y="0" height="20px" width="20px" viewBox="0 0 792 612" xml:space="preserve">
<g style="fill:#000000;fill-opacity:1" transform="matrix(1.7954515,0,0,1.7954515,-335.46694,-257.41268)">
<path d="m 407.4,144.5 c -93.7,0 -169.3,75.6 -169.3,169.3 0,93.7 75.6,169.3 169.3,169.3 93.7,0 169.3,-75.6 169.3,-169.3 0,-93.7 -75.6,-169.3 -169.3,-169.3 z M 552.3,302 h -33.1 c -1.6,-26 -7.1,-50.4 -16.5,-71.7 5.5,-3.2 11,-6.3 15.8,-10.2 18.9,22 31.5,50.4 33.8,81.9 z m -47.2,-96.1 c -3.2,2.4 -7.1,4.7 -11,7.1 -6.3,-11 -14.2,-21.3 -22.1,-29.9 11.8,6.3 22.8,13.3 33.1,22.8 z m -85.9,-30.7 c 22.8,4.7 43.3,21.3 57.5,45.7 -17.3,7.1 -37,11.8 -57.5,13.4 z m 0,78.7 c 23.6,-1.6 46.5,-6.3 66.2,-15.8 7.9,18.9 12.6,40.2 14.2,63 h -80.3 z m 80.4,71.7 c -1.6,23.6 -6.3,45.7 -15,63.8 -19.7,-8.7 -41.7,-15 -65.4,-16.5 v -48 h 80.3 v 0.7 z m -184.3,0 h 80.3 v 48 c -23.6,1.6 -46.5,6.3 -66.2,15.8 -7.8,-18.9 -12.6,-40.9 -14.1,-63.8 z m 0,-23.6 c 1.6,-23.6 6.3,-45.7 15,-63.8 19.7,8.7 41.7,15 65.4,16.5 v 48 H 315.4 V 302 Z m 80.3,-126.8 v 59.1 c -20.5,-1.6 -39.4,-6.3 -56.7,-14.2 14.2,-23.7 34.6,-40.2 56.7,-44.9 z m -52.8,7.9 c -7.9,7.9 -15,17.3 -21.3,28.4 -3.9,-2.4 -7.1,-4.7 -10.2,-7.1 9.5,-8 20.5,-15.8 31.5,-21.3 z m -45.7,35.4 c 4.7,3.9 10.2,7.1 15,10.2 -9.5,21.3 -15.8,46.5 -17.3,73.3 h -33.1 c 3.1,-31.5 15.7,-60.7 35.4,-83.5 z m -1.5,107.1 c 1.6,26 7.1,50.4 16.5,71.7 -5.5,3.2 -11,6.3 -15.8,10.2 -18.9,-22.8 -31.5,-51.2 -33.9,-81.9 z m 14.1,96.1 c 3.2,-2.4 7.1,-4.7 11,-7.1 6.3,11 14.2,21.3 22.1,29.9 C 331,438.3 320,430.4 309.7,421.7 Z M 338.1,406 c 17.3,-7.1 37,-11.8 57.5,-13.4 v 59.1 c -22.9,-4 -42.5,-20.5 -57.5,-45.7 z m 81.1,46.4 v -59.1 c 20.5,1.6 39.4,6.3 56.7,14.2 -14.1,23.7 -34.6,40.2 -56.7,44.9 z m 74.1,-36.2 c 3.9,2.4 7.1,4.7 10.2,7.1 C 494,432 483,439 472,444.6 c 7.9,-7.9 15,-18.2 21.3,-28.4 z m 24.4,-7.1 c -4.7,-3.9 -10.2,-7.1 -15,-10.2 9.5,-21.3 15.8,-46.5 17.3,-73.3 h 33.9 c -3.9,31.5 -16.5,60.7 -36.2,83.5 z" style="fill:#000000;fill-opacity:1"></path>
</g>
</svg>