<svg xmlns="http://www.w3.org/2000/svg" x="0" y="0" width="20px" height="20px" viewBox="0 0 100 125" xml:space="preserve" style="" fill-rule="evenodd" clip-rule="evenodd" stroke-linejoin="round" stroke-miterlimit="1.41421">
<g transform="matrix(1,0,0,1,-5,0)">
<path d="M90.174,9.015C90.323,9.055 90.365,9.056 90.5,9.134C90.702,9.251 90.86,9.438 90.94,9.658C90.993,9.805 90.987,9.846 91,10L91,90C90.987,90.154 90.993,90.195 90.94,90.342C90.839,90.618 90.618,90.839 90.342,90.94C90.195,90.993 90.154,90.987 90,91L80,91C79.846,90.987 79.805,90.993 79.658,90.94C79.382,90.839 79.161,90.618 79.06,90.342C79.007,90.195 79.013,90.154 79,90L79,10C79.013,9.846 79.007,9.805 79.06,9.658C79.161,9.382 79.382,9.161 79.658,9.06C79.805,9.007 79.846,9.013 80,9L90,9C90.058,9.005 90.116,9.01 90.174,9.015ZM81,11L81,89L89,89L89,11C86.333,11 83.667,11 81,11Z" style="" fill="black" fill-rule="nonzero"></path>
</g>
<g transform="matrix(1,0,0,0.75,-25,22.5)">
<path d="M90.142,8.68C90.266,8.716 90.3,8.717 90.415,8.787C90.677,8.947 90.878,9.256 90.959,9.624C90.995,9.787 90.991,9.832 91,10L91,90C90.991,90.168 90.995,90.213 90.959,90.376C90.864,90.807 90.605,91.153 90.282,91.279C90.16,91.327 90.126,91.321 90,91.333L80,91.333C79.874,91.321 79.84,91.327 79.718,91.279C79.395,91.153 79.136,90.807 79.041,90.376C79.005,90.213 79.009,90.168 79,90L79,10C79.009,9.832 79.005,9.787 79.041,9.624C79.136,9.193 79.395,8.847 79.718,8.721C79.84,8.673 79.874,8.679 80,8.667L90,8.667C90.047,8.671 90.095,8.676 90.142,8.68ZM81,11.333L81,88.667L89,88.667L89,11.333C86.333,11.333 83.667,11.333 81,11.333Z" style="" fill="black" fill-rule="nonzero"></path>
</g>
<g transform="matrix(1,0,0,0.5,-45,45)">
<path d="M90.121,8.015C90.16,8.029 90.2,8.039 90.239,8.058C90.318,8.097 90.393,8.154 90.465,8.229C90.716,8.493 90.903,8.97 90.971,9.521C90.997,9.73 90.994,9.786 91,10L91,90C90.998,90.08 90.998,90.161 90.993,90.241C90.983,90.401 90.964,90.558 90.935,90.709C90.834,91.24 90.62,91.669 90.355,91.87C90.279,91.927 90.201,91.966 90.121,91.985C90.081,91.995 90.04,91.995 90,92L80,92C79.96,91.995 79.919,91.995 79.879,91.985C79.799,91.966 79.721,91.927 79.645,91.87C79.38,91.669 79.166,91.24 79.065,90.709C79.036,90.558 79.017,90.401 79.007,90.241C79.002,90.161 79.002,90.08 79,90L79,10C79.002,9.92 79.002,9.839 79.007,9.759C79.017,9.599 79.036,9.442 79.065,9.291C79.166,8.76 79.38,8.331 79.645,8.13C79.721,8.073 79.799,8.034 79.879,8.015C79.919,8.005 79.96,8.005 80,8L90,8C90.04,8.005 90.08,8.01 90.121,8.015ZM81,12L81,88L89,88L89,12C86.333,12 83.667,12 81,12Z" style="" fill="black" fill-rule="nonzero"></path>
</g>
<g transform="matrix(1,0,0,0.25,-65,67.5)">
<rect x="80" y="10" width="10" height="80" style="" fill="black"></rect>
</g>
</svg>