<svg xmlns="http://www.w3.org/2000/svg" xml:space="preserve" style="shape-rendering:geometricPrecision;text-rendering:geometricPrecision;image-rendering:optimizeQuality;" x="0" y="0" width="20px" height="20px" viewBox="0 0 100000 125000" fill-rule="evenodd" clip-rule="evenodd">
<g>
<path fill="black" fill-rule="nonzero" d="M50000 40862c9123,0 17395,3688 23401,9651l-3800 3800c-5027,-4978 -11958,-8059 -19601,-8059 -7647,0 -14574,3081 -19601,8059l-3800 -3800c6004,-5959 14278,-9651 23401,-9651zm0 23635c5066,0 9168,4103 9168,9169 0,5063 -4102,9168 -9168,9168 -5066,0 -9168,-4105 -9168,-9168 0,-5066 4102,-9169 9168,-9169zm40155 -30742l-3800 3804c-9319,-9263 -22170,-14999 -36355,-14999 -14189,0 -27036,5736 -36355,14999l-3800 -3804c10292,-10247 24488,-16589 40155,-16589 15666,0 29863,6342 40155,16589zm-8553 8557l-3815 3815c-7122,-7084 -16947,-11464 -27787,-11464 -10852,0 -20677,4377 -27793,11456l-3801 -3801c8105,-8060 19275,-13049 31594,-13049 12324,0 23504,4989 31602,13043zm-16882 16882l-3815 3812c-2804,-2755 -6658,-4469 -10905,-4469 -4247,0 -8101,1714 -10905,4469l-3815 -3812c3782,-3734 8980,-6049 14720,-6049 5740,0 10938,2315 14720,6049z"></path>
</g>
</svg>