<svg xmlns="http://www.w3.org/2000/svg" xml:space="preserve" style="shape-rendering:geometricPrecision;text-rendering:geometricPrecision;image-rendering:optimizeQuality;" x="0" y="0" width="20px" height="20px" viewBox="0 0 846.66 1058.325" fill-rule="evenodd" clip-rule="evenodd">
<g>
<path fill="black" d="M380.4 584.1c0,-23.71 19.22,-42.93 42.93,-42.93 23.71,0 42.93,19.22 42.93,42.93 0,23.7 -19.22,42.92 -42.93,42.92 -23.71,0 -42.93,-19.22 -42.93,-42.92zm310.08 0.73l15.63 -178.25c4.11,-46.84 -64.67,-46.84 -60.56,0l15.64 178.25 29.29 0zm-14.65 19.33c19.98,0 36.18,16.19 36.18,36.17 0,19.98 -16.2,36.18 -36.18,36.18 -19.98,0 -36.17,-16.2 -36.17,-36.18 0,-19.98 16.19,-36.17 36.17,-36.17zm-364.1 -134.25c61.31,-61.32 161.89,-61.32 223.21,0l-51.82 51.81c-32.83,-32.84 -86.74,-32.84 -119.58,0l-51.81 -51.81zm-85.71 -96.39c108.4,-108.39 286.23,-108.39 394.63,0l-51.82 51.82c-79.92,-79.92 -211.08,-79.91 -290.99,0l-51.82 -51.82zm-99.14 -81.22c162.86,-162.87 430.05,-162.87 592.92,0l-51.82 51.81c-134.38,-134.38 -354.9,-134.38 -489.29,0l-51.81 -51.81z"></path>
</g>
</svg>