<svg xmlns="http://www.w3.org/2000/svg" x="0" y="0" height="20px" width="20px" viewBox="0 0 792 612" xml:space="preserve">
<g style="fill:#000000;fill-opacity:1" transform="matrix(1.7891677,0,0,1.7891677,-305.62211,-241.48532)">
<path d="m 356.7,305.6 c 0,20.5 -8.7,39.4 -22.1,53.6 l 23.6,23.6 c 19.7,-19.7 31.5,-46.5 31.5,-76.4 0,-29.9 -11.8,-56.7 -31.5,-75.6 l -23.6,23.6 c 13.4,11.8 22.1,30.7 22.1,51.2 z" style="fill:#000000;fill-opacity:1"></path>
<path d="m 422.9,305.6 c 0,38.6 -15.8,74 -41.7,100 l 23.6,23.6 C 436.3,397.7 456,354.4 456,306.3 456,258.2 437,215 405.5,183.5 l -23.6,23.6 c 25.2,24.5 41,59.9 41,98.5 z" style="fill:#000000;fill-opacity:1"></path>
<path d="m 489.8,305.6 c 0,57.5 -23.6,109.5 -60.6,146.5 l 23.6,23.6 c 43.3,-43.3 70.1,-104 70.1,-170.1 0,-66.1 -26.8,-126 -70.1,-169.3 l -23.6,23.6 c 37.8,37 60.6,89 60.6,145.7 z" style="fill:#000000;fill-opacity:1"></path>
<path d="m 324.4,306.4 c 0,17.3 -14.2,31.5 -31.5,31.5 -17.3,0 -31.5,-14.2 -31.5,-31.5 0,-17.3 14.2,-31.5 31.5,-31.5 17.3,0 31.5,14.2 31.5,31.5 z" style="fill:#000000;fill-opacity:1"></path>
</g>
</svg>