<svg xmlns="http://www.w3.org/2000/svg" x="0" y="0" width="20px" height="20px" viewBox="0 0 120 150">
<path d="M66.62,110v-1A42.43,42.43,0,0,1,109,66.62h1V85h-1a24.07,24.07,0,0,0-24,24v1Z"></path>
<path d="M109,67.62A41.38,41.38,0,0,0,67.62,109H84a25,25,0,0,1,25-25Z"></path>
<path d="M109,38.31A70.77,70.77,0,0,0,38.31,109v1H56.64v-1A52.41,52.41,0,0,1,109,56.64h1V38.31Zm0,17.33A53.36,53.36,0,0,0,55.64,109H39.31A69.69,69.69,0,0,1,109,39.31Z"></path>
<path d="M109,10a99.11,99.11,0,0,0-99,99v1H28.33v-1A80.76,80.76,0,0,1,109,28.33h1V10Zm0,17.33A81.67,81.67,0,0,0,27.33,109H11a98,98,0,0,1,98-98Z"></path>
<path d="M94.93,110v-1A14.08,14.08,0,0,1,109,94.93h1V110Z"></path>
<path d="M109,95.93A13.07,13.07,0,0,0,95.93,109H109Z"></path>
</svg>