<svg xmlns="http://www.w3.org/2000/svg" x="0" y="0" height="20px" width="20px" viewBox="0 0 792 612" xml:space="preserve">
<g style="fill:#000000;fill-opacity:1" transform="matrix(1.8735521,0,0,1.8735521,-332.06235,-267.30694)">
<path d="m 333.5,387.9 v -79.6 l 86.6,-13.4 V 159.5 c 0,-8.7 -7.1,-15.8 -15.8,-15.8 h -126 c -8.7,0 -15.8,7.1 -15.8,15.8 V 466.7 H 393.2 L 333.3,458 V 435.2 H 286 v -15.8 h 47.3 V 403.6 H 286 V 387.8 Z M 286.2,191 h 110.3 v 15.8 H 286.2 Z" style="fill:#000000;fill-opacity:1"></path>
<polygon points="420.1,379.3 514.7,379.3 514.7,298.9 420.1,311.5 " style="fill:#000000;fill-opacity:1"></polygon>
<polygon points="412.3,379.3 412.3,312.3 349.3,321 349.3,379.3 " style="fill:#000000;fill-opacity:1"></polygon>
<polygon points="412.3,387.9 349.3,387.9 349.3,444.6 412.3,454.1 " style="fill:#000000;fill-opacity:1"></polygon>
<polygon points="420.1,387.9 420.1,454.9 514.7,468.3 514.7,387.9 " style="fill:#000000;fill-opacity:1"></polygon>
</g>
</svg>