<svg xmlns="http://www.w3.org/2000/svg" x="0" y="0" height="20px" width="20px" viewBox="0 0 792 612" xml:space="preserve">
<g style="fill:#000000;fill-opacity:1" transform="matrix(1.8803316,0,0,1.8803316,-381.43886,-292.88561)">
<path d="M 567.7,274.8 H 346.4 c -3.9,0 -7.9,3.2 -7.9,7.9 v 140.2 c 0,3.9 3.2,10.2 7.9,10.2 h 94.5 c 0,8.7 0,14.2 0,15 0,4.7 -7.1,13.4 -12.6,13.4 -1.6,0 -15.8,0 -15.8,0 -17.3,0 -29.9,4.7 -29.9,14.2 0,4.7 -0.8,4.7 16.5,4.7 0,0 4.7,0 8.7,0 13.4,0 15.8,-7.9 29.1,-7.9 4.7,0 29.1,0 33.9,0 13.4,0 23.6,7.9 32.3,7.9 4.7,0 8.7,0 8.7,0 17.3,0 17.3,-0.8 17.3,-4.7 0,-8.7 -13.4,-14.2 -30.7,-14.2 0,0 -14.2,0 -15.8,0 -4.7,0 -11,-8.7 -11,-13.4 0,-0.8 0,-6.3 0,-15 h 94.5 c 3.9,0 7.9,-5.5 7.9,-10.2 V 282.6 c 1.6,-3.9 -1.6,-7.8 -6.3,-7.8 z M 552,408.7 H 363 V 298.4 h 189 z" style="fill:#000000;fill-opacity:1"></path>
<path d="M 323.5,400.8 V 282.6 c 0,-12.6 10.2,-23.6 23.6,-23.6 h 63 v -86.6 c 0,-8.7 -7.1,-15.8 -15.8,-15.8 h -126 c -8.7,0 -15.8,7.1 -15.8,15.8 v 307.2 h 115.8 c 0,-1.6 0,-3.9 0,-4.7 V 474 c 0,-5.5 1.6,-19.7 22.1,-26.8 H 387.2 348 277.1 v -15.8 h 49.6 c -1.6,-3.2 -2.4,-7.1 -2.4,-10.2 v -5.5 H 277 V 400 h 46.5 z M 276.3,196 h 110.3 v 23.6 H 276.3 Z" style="fill:#000000;fill-opacity:1"></path>
</g>
</svg>