<svg xmlns="http://www.w3.org/2000/svg" xmlns:xlink="http://www.w3.org/1999/xlink" x="0" y="0" width="20px" height="20px" viewBox="0 0 65 65">
<circle cx="32.5" cy="32.5" r="32.5" fill="#f37738"></circle>
<g fill="#fff">
<use xlink:href="#A3CE6518-FD2B-412A-8C41-60F5EC7E599D"></use>
<path d="M32.2 45.4c-2.8 0-5.1-2.3-5.1-5.1s2.3-5.1 5.1-5.1 5.1 2.3 5.1 5.1-2.3 5.1-5.1 5.1zm0-9.2c-2.3 0-4.1 1.8-4.1 4.1s1.8 4.1 4.1 4.1 4.1-1.8 4.1-4.1c-.1-2.3-1.9-4.1-4.1-4.1z"></path>
<circle cx="32.2" cy="19" r="4.6"></circle>
<use xlink:href="#A3CE6518-FD2B-412A-8C41-60F5EC7E599D" x="29.1"></use>
<path d="M31.7 23.6h1v10.2h-1z"></path>
<path d="M47.2 33.8h-1v-4.2H18.1v4.2h-1v-4.7a.47.47 0 0 1 .5-.5h29.1a.47.47 0 0 1 .5.5v4.7z"></path>
</g>
<defs>
<path id="A3CE6518-FD2B-412A-8C41-60F5EC7E599D" d="M17.6 45.4c-2.8 0-5.1-2.3-5.1-5.1s2.3-5.1 5.1-5.1 5.1 2.3 5.1 5.1-2.3 5.1-5.1 5.1zm0-9.2c-2.3 0-4.1 1.8-4.1 4.1s1.8 4.1 4.1 4.1 4.1-1.8 4.1-4.1-1.8-4.1-4.1-4.1z"></path>
</defs>
</svg>