<svg width="20px" height="20px" viewBox="0 0 41 41" xmlns="http://www.w3.org/2000/svg" xmlns:xlink="http://www.w3.org/1999/xlink">
    <g stroke="none" stroke-width="1" fill="none" fill-rule="evenodd">
        <g transform="translate(1.000000, 1.000000)">
            <g stroke="#00C1DE" stroke-width="1.6">
                <rect fill="#FFFFFF" fill-rule="nonzero" x="0.6" y="0.6" width="38.4" height="38.4" rx="8"></rect>
                <rect x="0.6" y="0.6" width="38.4" height="38.4" rx="8"></rect>
            </g>
            <g transform="translate(8.500000, 6.500000)" fill="#00C1DE" fill-rule="nonzero">
                <path d="M18.44,13.55 L18.03,13.55 L18.03,11.45 C18.03,11.37 17.99,11.29 17.93,11.23 C17.87,11.16 17.79,11.12 17.71,11.12 L16.42,11.12 C16.2,11.12 16.1,11.23 16.1,11.45 L16.1,13.51 L8.05,13.47 L8.05,11.41 C8.05,11.33 8.01,11.25 7.95,11.18 C7.89,11.12 7.81,11.08 7.72,11.08 L6.43,11.08 C6.25,11.12 6.15,11.23 6.11,11.41 L6.11,13.51 L4.92,13.51 C4.13,13.51 3.47,13.22 2.96,12.66 C2.46,12.09 2.2,11.39 2.2,10.52 C2.2,9.79 2.4,9.17 2.76,8.64 C3.15,8.12 3.63,7.79 4.25,7.63 L4.76,7.51 L4.86,7 C4.92,6.7 5.02,6.42 5.18,6.14 C5.34,5.85 5.53,5.61 5.75,5.39 C5.97,5.17 6.21,4.96 6.47,4.8 C6.74,4.64 7.02,4.5 7.32,4.42 C7.62,4.32 7.93,4.28 8.23,4.28 L8.23,4.28 C8.35,4.28 8.47,4.28 8.59,4.3 C8.71,4.32 8.83,4.34 8.96,4.36 C9.08,4.38 9.2,4.42 9.3,4.46 C9.42,4.5 9.52,4.54 9.62,4.58 L10.27,4.88 L10.63,4.28 C11.01,3.65 11.6,3.11 12.41,2.64 C13.19,2.2 13.98,1.98 14.71,1.98 L14.75,1.98 C15.39,1.98 16.02,2.12 16.62,2.36 C17.21,2.62 17.73,2.97 18.15,3.39 C18.58,3.81 18.92,4.34 19.18,4.94 C19.43,5.55 19.57,6.18 19.57,6.82 C19.57,6.86 19.57,6.88 19.57,6.92 C19.57,6.96 19.57,6.98 19.57,7.02 C19.57,7.06 19.57,7.09 19.57,7.13 C19.57,7.17 19.57,7.19 19.57,7.23 L19.53,7.73 L19.97,7.99 C20.37,8.24 20.72,8.6 21.02,9.1 C21.3,9.61 21.44,10.09 21.44,10.56 L21.44,10.56 C21.44,11.39 21.14,12.07 20.58,12.66 C19.95,13.26 19.24,13.57 18.44,13.55 L18.44,13.55 Z M16.1,16.8 L8.05,16.76 L8.05,15.12 L16.1,15.16 L16.1,16.8 Z M16.08,19.87 L8.03,19.83 L8.03,18.29 L16.08,18.33 L16.08,19.87 L16.08,19.87 L16.08,19.87 Z M16.06,22.94 L8.01,22.9 L8.01,21.36 L16.06,21.4 L16.06,22.94 Z M21.16,6.9 L21.16,6.84 C21.16,5.07 20.56,3.55 19.3,2.28 C18.05,1.01 16.54,0.38 14.77,0.36 C13.76,0.36 12.79,0.58 11.9,1.01 C11.01,1.45 10.25,2.08 9.64,2.86 C9.52,2.82 9.38,2.78 9.2,2.76 C9.04,2.72 8.85,2.7 8.69,2.68 C8.51,2.66 8.37,2.66 8.25,2.66 C7.52,2.66 6.84,2.8 6.17,3.11 C5.51,3.41 4.94,3.81 4.48,4.36 C3.99,4.9 3.65,5.51 3.43,6.2 C2.86,6.4 2.38,6.72 1.93,7.15 C1.51,7.57 1.19,8.05 0.95,8.64 C0.7,9.23 0.6,9.83 0.58,10.5 C0.58,11.81 0.99,12.9 1.81,13.77 C2.64,14.64 3.67,15.08 4.92,15.1 L6.11,15.1 L6.05,26.86 C6.05,26.9 6.05,26.94 6.07,26.98 C6.09,27.02 6.11,27.06 6.15,27.08 C6.17,27.1 6.21,27.14 6.25,27.16 C6.29,27.18 6.33,27.18 6.37,27.18 L7.66,27.18 C7.7,27.18 7.74,27.18 7.79,27.16 C7.83,27.14 7.87,27.12 7.89,27.08 C7.91,27.06 7.95,27.02 7.97,26.98 C7.99,26.94 7.99,26.9 7.99,26.86 L8.01,24.41 L16.06,24.45 L16.04,26.92 C16.04,27 16.08,27.08 16.14,27.14 C16.2,27.2 16.28,27.24 16.36,27.24 L17.65,27.24 C17.83,27.22 17.93,27.1 17.97,26.92 L18.03,15.16 L18.44,15.16 C19.69,15.16 20.78,14.72 21.67,13.83 C22.55,12.94 23.02,11.87 23.02,10.6 L23.02,10.58 C23.02,9.93 22.84,9.27 22.47,8.54 C22.11,7.83 21.67,7.29 21.16,6.9 L21.16,6.9 Z" id="Shape"></path>
            </g>
        </g>
    </g>
</svg>