<svg width="20px" height="20px" viewBox="0 0 41 41" xmlns="http://www.w3.org/2000/svg" xmlns:xlink="http://www.w3.org/1999/xlink">
    <g stroke="none" stroke-width="1" fill="none" fill-rule="evenodd">
        <g transform="translate(1.000000, 1.000000)">
            <g stroke="#00C1DE" stroke-width="1.6">
                <rect fill="#FFFFFF" fill-rule="nonzero" x="0.6" y="0.6" width="38.4" height="38.4" rx="8"></rect>
                <rect x="0.6" y="0.6" width="38.4" height="38.4" rx="8"></rect>
            </g>
            <g transform="translate(6.500000, 6.500000)" fill="#00C1DE" fill-rule="nonzero">
                <path d="M11.5,16.25 C11.5,16.44 11.41,16.57 11.24,16.65 L2.6,20.31 C2.53,20.33 2.49,20.35 2.42,20.35 C2.34,20.35 2.25,20.33 2.19,20.29 C2.14,20.27 2.12,20.23 2.08,20.2 C2.06,20.16 2.02,20.12 2.02,20.08 C1.99,20.03 1.99,19.99 1.99,19.95 L1.99,19.95 L1.99,10.26 C1.99,10.22 1.99,10.2 2.02,10.15 C2.02,10.11 2.04,10.09 2.06,10.05 C2.08,10.03 2.1,9.98 2.12,9.96 C2.14,9.94 2.17,9.92 2.21,9.9 C2.23,9.88 2.27,9.85 2.32,9.85 C2.36,9.83 2.4,9.83 2.45,9.83 C2.51,9.83 2.55,9.85 2.62,9.88 L11.22,13.4 C11.39,13.47 11.48,13.62 11.48,13.81 L11.48,13.81 L11.5,16.25 L11.5,16.25 L11.5,16.25 Z M11.5,24.52 L11.5,24.52 C11.5,24.67 11.43,24.8 11.31,24.89 C11.24,24.93 11.16,24.97 11.07,24.97 C11,24.97 10.96,24.97 10.9,24.95 L3.95,22.24 C3.76,22.17 3.67,22.04 3.67,21.83 L3.67,21.83 C3.67,21.64 3.76,21.51 3.93,21.44 L10.9,18.52 L11.07,18.47 L11.31,18.54 C11.43,18.62 11.5,18.73 11.5,18.9 L11.5,18.9 L11.5,24.52 L11.5,24.52 Z M12.57,12.44 L1.44,7.8 C1.35,7.76 1.26,7.74 1.16,7.74 C1.01,7.74 0.88,7.78 0.77,7.84 C0.68,7.91 0.6,7.99 0.55,8.1 C0.51,8.21 0.47,8.31 0.47,8.42 L0.47,8.42 L0.47,21.89 C0.47,22.19 0.62,22.41 0.9,22.54 L12.04,27.18 C12.06,27.18 12.08,27.2 12.12,27.2 C12.17,27.2 12.19,27.22 12.23,27.22 C12.27,27.22 12.29,27.22 12.32,27.22 C12.79,27.22 13.03,26.98 13.03,26.51 L13.03,13.04 C12.98,12.78 12.83,12.57 12.57,12.44 L12.57,12.44 Z M25.63,19.93 C25.63,20.08 25.56,20.2 25.43,20.29 C25.37,20.33 25.28,20.35 25.2,20.35 C25.13,20.35 25.09,20.33 25.03,20.31 L16.38,16.65 C16.32,16.63 16.25,16.57 16.19,16.48 C16.14,16.4 16.1,16.33 16.1,16.25 L16.1,13.79 C16.1,13.7 16.12,13.62 16.17,13.55 C16.21,13.49 16.27,13.43 16.36,13.4 L25,9.83 C25.07,9.81 25.11,9.79 25.18,9.79 C25.22,9.79 25.26,9.79 25.3,9.81 C25.35,9.83 25.39,9.83 25.41,9.85 C25.48,9.9 25.52,9.94 25.56,10 C25.61,10.07 25.61,10.13 25.61,10.22 L25.63,19.93 L25.63,19.93 Z M23.65,22.21 L16.7,24.93 C16.66,24.95 16.6,24.95 16.55,24.95 C16.47,24.95 16.38,24.93 16.32,24.87 C16.19,24.78 16.12,24.67 16.12,24.5 L16.12,24.5 L16.12,18.88 C16.12,18.81 16.14,18.73 16.17,18.66 C16.21,18.6 16.25,18.56 16.32,18.52 C16.38,18.47 16.47,18.45 16.55,18.45 C16.62,18.45 16.66,18.47 16.72,18.49 L23.67,21.38 C23.84,21.44 23.93,21.57 23.93,21.77 L23.93,21.77 C23.93,22 23.84,22.15 23.65,22.21 L23.65,22.21 Z M26.83,7.87 C26.79,7.82 26.72,7.8 26.64,7.78 C26.55,7.76 26.49,7.74 26.44,7.74 C26.42,7.74 26.38,7.74 26.36,7.74 C26.34,7.74 26.29,7.76 26.25,7.76 C26.21,7.76 26.19,7.78 26.16,7.78 L15.03,12.42 C14.75,12.55 14.6,12.76 14.6,13.06 L14.6,26.53 C14.6,26.73 14.66,26.9 14.81,27.03 C14.94,27.15 15.11,27.24 15.31,27.24 C15.39,27.24 15.5,27.22 15.58,27.18 L26.7,22.58 C26.98,22.45 27.13,22.24 27.13,21.94 L27.13,8.46 L27.13,8.46 C27.13,8.21 27.02,8.02 26.83,7.87 L26.83,7.87 Z M22.75,6.13 L15.22,8.79 C15.2,8.79 15.15,8.81 15.11,8.81 C15.07,8.81 15.05,8.81 15,8.81 C14.9,8.81 14.81,8.79 14.7,8.72 C14.62,8.68 14.55,8.59 14.49,8.51 C14.45,8.42 14.4,8.31 14.4,8.21 L14.4,2.67 L14.4,2.67 C14.4,2.52 14.47,2.37 14.57,2.26 C14.68,2.16 14.83,2.09 14.98,2.09 L14.98,2.09 L15.2,2.13 L22.72,5 C22.98,5.09 23.09,5.28 23.09,5.53 L23.09,5.53 C23.09,5.6 23.07,5.64 23.07,5.71 C23.05,5.77 23.03,5.81 22.98,5.86 C22.94,5.9 22.9,5.94 22.85,5.98 C22.85,6.09 22.79,6.11 22.75,6.13 L22.75,6.13 Z M13.26,8.25 C13.26,8.4 13.2,8.55 13.09,8.66 C12.98,8.76 12.83,8.83 12.68,8.83 C12.62,8.83 12.55,8.81 12.49,8.79 L4.96,6.13 C4.9,6.11 4.83,6.07 4.77,6.01 C4.7,5.94 4.66,5.88 4.62,5.81 C4.57,5.75 4.57,5.66 4.57,5.6 L4.57,5.6 C4.57,5.34 4.7,5.15 4.94,5.06 L12.47,2.2 C12.53,2.18 12.6,2.16 12.68,2.16 C12.81,2.16 12.92,2.2 13,2.26 C13.09,2.33 13.15,2.39 13.2,2.48 C13.24,2.56 13.26,2.65 13.26,2.76 L13.26,8.25 Z M26.47,5.62 L26.47,5.62 C26.47,5.3 26.32,5.11 26.04,5 L14.12,0.4 C14.04,0.38 13.95,0.36 13.89,0.36 C13.82,0.36 13.71,0.38 13.65,0.4 L1.76,5 C1.67,5.04 1.59,5.09 1.52,5.15 C1.46,5.21 1.41,5.28 1.37,5.36 C1.33,5.45 1.33,5.53 1.33,5.62 C1.33,5.71 1.35,5.79 1.37,5.88 C1.41,5.96 1.46,6.03 1.52,6.09 C1.59,6.16 1.67,6.2 1.76,6.24 L13.63,10.82 L13.86,10.86 C13.95,10.86 14.04,10.84 14.1,10.82 L26.01,6.24 C26.14,6.2 26.23,6.11 26.32,5.98 C26.42,5.88 26.47,5.75 26.47,5.62 L26.47,5.62 L26.47,5.62 Z" id="Shape"></path>
            </g>
        </g>
    </g>
</svg>