<svg width="20px" height="20px" viewBox="0 0 41 41" xmlns="http://www.w3.org/2000/svg" xmlns:xlink="http://www.w3.org/1999/xlink">
    <g stroke="none" stroke-width="1" fill="none" fill-rule="evenodd">
        <g transform="translate(1.000000, 1.000000)">
            <g stroke="#00C1DE" stroke-width="1.6">
                <rect fill="#FFFFFF" fill-rule="nonzero" x="0.6" y="0.6" width="38.4" height="38.4" rx="8"></rect>
                <rect x="0.6" y="0.6" width="38.4" height="38.4" rx="8"></rect>
            </g>
            <g transform="translate(6.500000, 6.500000)" fill="#00C1DE" fill-rule="nonzero">
                <path d="M18.22,8.15 C20,8.42 21.56,9.29 22.84,10.75 C24.29,12.43 25.14,14.32 25.43,16.42 C25.58,17.27 25.56,18.47 25.37,20.07 C24.56,21.55 23.22,23.04 21.31,24.56 C21.41,24.37 21.45,24.25 21.45,24.21 C21.68,23.77 21.85,23.42 21.95,23.19 C22.05,22.96 22.2,22.65 22.39,22.23 C22.55,21.84 22.7,21.49 22.8,21.22 C22.9,20.93 22.99,20.61 23.09,20.24 C23.17,19.87 23.26,19.51 23.3,19.16 C23.53,17.19 23.22,15.36 22.39,13.61 C21.97,12.74 21.37,11.95 20.56,11.31 C20.25,10.19 19.46,9.13 18.22,8.15 L18.22,8.15 Z M19.69,17.6 C20.21,17.04 20.58,15.84 20.81,14.03 C21.31,14.88 21.58,15.75 21.66,16.63 C21.95,19.28 21.16,21.67 19.28,23.85 C18.13,25.14 16.77,26.16 15.15,26.95 C12.89,27.24 10.65,26.89 8.43,25.89 C9.07,25.95 9.74,25.95 10.4,25.89 C11.06,25.83 11.73,25.72 12.37,25.58 C13.01,25.43 13.63,25.23 14.24,24.98 C14.84,24.73 15.42,24.41 15.94,24.06 C18.01,22.63 19.23,20.76 19.59,18.45 C19.63,18.27 19.69,17.98 19.69,17.6 L19.69,17.6 Z M0.57,15.15 C1.11,16.17 1.75,17.1 2.48,17.95 C3.22,18.81 4.03,19.55 4.92,20.18 C5.82,20.8 6.71,21.26 7.64,21.53 C9.69,22.15 11.68,21.88 13.59,20.76 L13.8,20.76 C14.51,20.76 15.15,20.66 15.69,20.47 C15.81,20.43 15.96,20.38 16.1,20.34 C16.25,20.3 16.39,20.24 16.56,20.16 C16.72,20.09 16.85,20.03 16.95,19.97 C17.06,19.93 17.2,19.84 17.39,19.76 C17.33,19.87 17.26,19.97 17.18,20.07 L16.95,20.43 C16.87,20.55 16.81,20.66 16.74,20.74 C15.54,22.21 14.07,23.17 12.33,23.6 C11.56,23.79 10.73,23.87 9.8,23.9 C7.89,23.83 5.98,23.21 4.05,22.07 C3.93,22.01 3.78,21.92 3.64,21.82 C3.49,21.71 3.39,21.65 3.29,21.57 C3.18,21.49 3.08,21.4 2.91,21.28 C1.36,19.14 0.57,17.08 0.57,15.15 L0.57,15.15 Z M7.79,17.39 C8.3,18.35 9.11,19.18 10.21,19.84 L10.25,19.87 L10.3,19.89 L10.34,19.91 L10.38,19.93 L10.42,19.95 L10.46,19.97 L10.5,19.99 L10.54,20.01 L10.59,20.03 L10.63,20.05 L10.67,20.07 L10.71,20.09 L10.75,20.11 L10.79,20.14 L10.86,20.18 L9.88,20.18 C8.97,20.09 8.12,19.87 7.33,19.53 C6.54,19.2 5.84,18.74 5.19,18.18 C4.55,17.62 4.01,16.96 3.58,16.19 C2.58,14.46 2.04,12.41 1.96,10.02 C1.96,9.65 1.96,9.38 1.96,9.17 C1.96,8.96 1.98,8.71 2,8.42 C2.02,8.11 2.06,7.84 2.1,7.57 C2.95,5.2 4.38,3.62 6.38,2.79 C5.48,4.2 4.84,5.72 4.49,7.34 C4.01,9.4 3.99,11.35 4.43,13.16 C4.86,15.09 6.02,16.52 7.79,17.39 L7.79,17.39 Z M7.85,9.69 C7,10.64 6.58,12.03 6.58,13.9 C6.06,12.87 5.79,11.64 5.79,10.27 C5.79,8.9 6.02,7.65 6.52,6.53 C7.43,4.64 8.76,3.12 10.5,1.98 C11.64,1.27 12.93,0.73 14.36,0.36 C14.8,0.42 15.23,0.48 15.69,0.57 C16.14,0.65 16.56,0.75 16.95,0.86 C17.35,0.96 17.72,1.07 18.07,1.17 C18.42,1.27 18.76,1.38 19.05,1.5 C19.34,1.61 19.61,1.71 19.81,1.79 C20.04,1.88 20.21,1.96 20.37,2.04 L19.81,2.04 C19.71,2.04 19.5,2.04 19.17,2.04 C18.84,2.04 18.63,2.04 18.51,2.04 C18.38,2.04 18.18,2.04 17.89,2.04 C17.6,2.04 17.39,2.06 17.22,2.06 C17.08,2.08 16.87,2.08 16.62,2.1 C16.37,2.13 16.14,2.15 15.98,2.17 C15.81,2.19 15.6,2.23 15.38,2.27 C15.15,2.31 14.94,2.35 14.73,2.42 C14.53,2.48 14.34,2.54 14.13,2.6 C12.16,3.29 10.65,4.29 9.59,5.62 C8.66,6.74 8.08,8.09 7.85,9.69 L7.85,9.69 Z M25.41,7.38 C25.99,8.17 26.41,9.19 26.66,10.46 C26.91,11.72 27.03,12.76 27.03,13.61 L27.03,13.82 C27.01,13.78 26.97,13.7 26.93,13.57 C26.89,13.45 26.84,13.36 26.82,13.32 C26.76,13.2 26.7,13.01 26.58,12.74 C26.47,12.47 26.37,12.24 26.26,12.03 C26.18,11.85 26.08,11.66 25.97,11.49 C25.25,10.37 24.46,9.4 23.59,8.63 C23.22,8.32 22.82,8 22.41,7.76 C21.99,7.49 21.58,7.26 21.16,7.05 C20.75,6.84 20.31,6.67 19.88,6.55 C19.44,6.4 19.03,6.32 18.59,6.26 C18.16,6.2 17.74,6.18 17.35,6.18 C17.22,6.18 17.1,6.18 16.97,6.2 C16.85,6.2 16.7,6.22 16.56,6.24 C16.41,6.26 16.27,6.28 16.12,6.3 C15.98,6.32 15.81,6.34 15.67,6.38 C15.52,6.4 15.36,6.45 15.21,6.49 C15.04,6.53 14.9,6.57 14.75,6.61 C14.53,6.57 14.17,6.55 13.7,6.55 C13.32,6.55 13.03,6.57 12.85,6.61 C12.14,6.76 11.79,6.82 11.79,6.82 C11.71,6.84 11.64,6.86 11.58,6.88 C11.52,6.9 11.46,6.92 11.39,6.94 C11.33,6.97 11.27,6.99 11.21,7.01 C11.15,7.03 11.08,7.05 11.02,7.07 C10.96,7.09 10.9,7.11 10.86,7.15 C10.79,7.17 10.75,7.19 10.69,7.24 C10.63,7.26 10.59,7.3 10.54,7.32 C11,6.67 11.6,6.11 12.33,5.64 C13.05,5.16 13.9,4.78 14.88,4.51 C15.98,4.2 17.2,4.1 18.55,4.24 C19.88,4.39 21.16,4.76 22.37,5.35 C22.57,5.43 22.78,5.53 22.99,5.64 C23.19,5.74 23.4,5.86 23.59,5.99 C23.8,6.11 23.98,6.26 24.19,6.4 C24.4,6.55 24.58,6.72 24.79,6.86 C25.02,7.01 25.23,7.19 25.41,7.38 L25.41,7.38 Z" id="Shape"></path>
            </g>
        </g>
    </g>
</svg>