<svg width="20px" height="20px" viewBox="0 0 41 41" xmlns="http://www.w3.org/2000/svg" xmlns:xlink="http://www.w3.org/1999/xlink">
    <g stroke="none" stroke-width="1" fill="none" fill-rule="evenodd">
        <g transform="translate(1.000000, 1.000000)">
            <g stroke="#00C1DE" stroke-width="1.6">
                <rect fill="#FFFFFF" fill-rule="nonzero" x="0.6" y="0.6" width="38.4" height="38.4" rx="8"></rect>
                <rect x="0.6" y="0.6" width="38.4" height="38.4" rx="8"></rect>
            </g>
            <g transform="translate(7.500000, 6.500000)" fill="#00C1DE" fill-rule="nonzero">
                <path d="M20.25,18.39 C20.19,18.39 20.13,18.39 20.07,18.39 C20,18.39 19.94,18.39 19.88,18.41 C19.82,18.41 19.76,18.43 19.7,18.43 C19.63,18.43 19.57,18.45 19.53,18.45 C19.47,18.47 19.41,18.47 19.37,18.49 C19.31,18.51 19.26,18.51 19.2,18.53 C19.14,18.55 19.1,18.58 19.04,18.6 C18.98,18.62 18.94,18.64 18.87,18.66 L17.5,17.01 C18.65,15.65 19.22,14.13 19.22,12.42 C19.22,11.58 19.08,10.77 18.79,10.03 C18.5,9.29 18.09,8.61 17.58,8 L18.44,7.21 C19.02,7.5 19.57,7.65 20.09,7.65 C21.07,7.65 21.94,7.3 22.66,6.58 C23.38,5.86 23.72,5.01 23.72,4 C23.72,2.73 23.19,1.74 22.14,1 C21.5,0.57 20.83,0.36 20.09,0.36 C19.1,0.36 18.24,0.71 17.52,1.43 C16.8,2.15 16.45,2.99 16.45,4 C16.45,4.52 16.53,4.95 16.72,5.3 L15.59,6.25 C15.4,6.14 15.19,6.04 14.97,5.94 C14.74,5.83 14.5,5.75 14.25,5.67 C14,5.59 13.74,5.53 13.49,5.46 C13.24,5.4 12.97,5.36 12.73,5.32 C12.48,5.28 12.26,5.28 12.05,5.28 C12.05,5.28 12.03,5.28 12.03,5.28 C10.78,5.28 9.5,5.63 8.23,6.33 L6.93,4.68 C6.93,4.62 6.95,4.52 6.97,4.37 C6.99,4.23 7.01,4.13 7.01,4.06 L7.01,4.06 C7.01,3.82 6.97,3.57 6.89,3.32 C6.81,3.08 6.71,2.87 6.56,2.69 C6.42,2.5 6.25,2.34 6.07,2.19 C5.88,2.05 5.66,1.94 5.43,1.86 C5.18,1.78 4.96,1.74 4.69,1.74 L4.69,1.74 L4.69,1.74 C4.26,1.74 3.89,1.84 3.52,2.05 C3.17,2.25 2.88,2.54 2.68,2.89 C2.47,3.24 2.37,3.63 2.37,4.06 L2.37,4.06 L2.37,4.06 C2.37,4.7 2.59,5.26 3.05,5.71 C3.5,6.16 4.05,6.39 4.69,6.39 L4.69,6.39 L4.96,6.39 L6.34,8.12 C5.35,9.5 4.86,10.92 4.86,12.38 C4.86,13.57 5.12,14.64 5.64,15.59 L4.51,16.54 C4.44,16.5 4.38,16.46 4.3,16.43 C4.22,16.41 4.14,16.39 4.05,16.37 C3.95,16.37 3.89,16.35 3.83,16.35 C3.77,16.35 3.68,16.35 3.56,16.35 C3.25,16.35 2.96,16.39 2.66,16.5 C2.37,16.6 2.1,16.72 1.88,16.91 C1.65,17.09 1.44,17.3 1.26,17.53 C1.07,17.75 0.95,18.02 0.85,18.31 C0.75,18.6 0.7,18.9 0.7,19.21 C0.7,20 0.99,20.67 1.55,21.23 C2.1,21.79 2.78,22.07 3.56,22.07 C3.95,22.07 4.32,21.99 4.67,21.85 C5.02,21.7 5.33,21.5 5.58,21.23 C5.82,20.98 6.03,20.67 6.19,20.32 C6.34,19.97 6.42,19.6 6.42,19.21 C6.42,18.86 6.4,18.62 6.34,18.43 L7.28,17.57 C8.68,18.78 10.3,19.4 12.13,19.4 C12.67,19.4 13.18,19.36 13.65,19.25 C14.13,19.15 14.58,19.01 14.99,18.8 L16.47,20.63 C16.28,20.96 16.14,21.31 16.04,21.68 C15.93,22.05 15.87,22.42 15.87,22.81 C15.87,23.62 16.08,24.36 16.47,25.04 C16.86,25.72 17.41,26.25 18.11,26.64 C18.81,27.03 19.57,27.24 20.39,27.24 C21.65,27.24 22.72,26.81 23.58,25.94 C24.46,25.08 24.9,24.03 24.9,22.81 C24.9,22.22 24.77,21.64 24.53,21.11 C24.28,20.55 23.95,20.1 23.54,19.69 C23.13,19.3 22.64,18.97 22.08,18.74 C21.44,18.51 20.87,18.39 20.25,18.39 L20.25,18.39 Z M12.01,18.06 C10.45,18.06 9.09,17.5 7.98,16.41 C6.85,15.3 6.29,13.99 6.29,12.42 C6.29,10.86 6.85,9.54 7.98,8.43 C9.11,7.32 10.45,6.78 12.01,6.78 C13.57,6.78 14.93,7.34 16.04,8.43 C17.17,9.54 17.72,10.86 17.72,12.42 C17.72,13.45 17.46,14.4 16.94,15.26 C16.43,16.13 15.73,16.8 14.85,17.32 C13.98,17.79 13.04,18.06 12.01,18.06 L12.01,18.06 Z M10.2,12.32 C10.2,12.34 10.2,12.34 10.2,12.32 C10.2,12.34 10.2,12.34 10.2,12.34 C10.2,12.83 9.97,13.16 9.5,13.33 L9.15,13.39 C9.01,13.39 8.88,13.37 8.74,13.31 C8.62,13.24 8.49,13.18 8.41,13.08 C8.31,12.98 8.25,12.87 8.19,12.75 C8.12,12.63 8.1,12.48 8.1,12.34 C8.1,12.34 8.1,12.34 8.1,12.32 C8.1,12.32 8.1,12.32 8.1,12.3 C8.1,12.01 8.21,11.76 8.41,11.56 C8.62,11.35 8.86,11.25 9.15,11.25 C9.44,11.25 9.69,11.35 9.89,11.56 C10.1,11.8 10.2,12.03 10.2,12.32 L10.2,12.32 Z M12.97,12.32 L12.97,12.32 C12.97,12.61 12.87,12.85 12.67,13.06 C12.46,13.26 12.21,13.37 11.93,13.37 C11.74,13.37 11.56,13.33 11.41,13.22 C11.25,13.12 11.12,13 11.04,12.85 C10.96,12.71 10.9,12.52 10.9,12.34 C10.9,12.05 11,11.8 11.21,11.6 C11.41,11.39 11.66,11.29 11.95,11.29 C12.23,11.29 12.48,11.39 12.69,11.6 C12.87,11.8 12.97,12.03 12.97,12.32 L12.97,12.32 L12.97,12.32 Z M15.83,12.32 L15.83,12.32 C15.83,12.5 15.79,12.69 15.69,12.83 C15.59,13 15.46,13.12 15.32,13.2 C15.15,13.31 14.99,13.35 14.8,13.35 C14.62,13.35 14.43,13.31 14.29,13.2 C14.13,13.1 14,12.98 13.92,12.83 C13.82,12.67 13.78,12.5 13.78,12.32 C13.78,12.03 13.88,11.78 14.08,11.58 C14.29,11.37 14.54,11.27 14.82,11.27 C14.97,11.27 15.09,11.29 15.24,11.35 C15.36,11.41 15.48,11.47 15.56,11.58 C15.65,11.68 15.73,11.78 15.79,11.91 C15.79,12.05 15.83,12.19 15.83,12.32 L15.83,12.32 L15.83,12.32 Z" id="Shape"></path>
            </g>
        </g>
    </g>
</svg>