<svg width="20px" height="20px" viewBox="0 0 41 41" xmlns="http://www.w3.org/2000/svg" xmlns:xlink="http://www.w3.org/1999/xlink">
    <g stroke="none" stroke-width="1" fill="none" fill-rule="evenodd">
        <g transform="translate(1.000000, 1.000000)">
            <g stroke="#00C1DE" stroke-width="1.6">
                <rect fill="#FFFFFF" fill-rule="nonzero" x="0.6" y="0.6" width="38.4" height="38.4" rx="8"></rect>
                <rect x="0.6" y="0.6" width="38.4" height="38.4" rx="8"></rect>
            </g>
            <g transform="translate(6.500000, 6.500000)" fill="#00C1DE" fill-rule="nonzero">
                <path d="M13.74,12.04 C14.21,12.04 14.61,12.2 14.94,12.53 C15.27,12.86 15.43,13.25 15.43,13.73 C15.43,13.95 15.39,14.18 15.29,14.39 C15.21,14.59 15.08,14.78 14.92,14.92 C14.75,15.07 14.59,15.19 14.38,15.29 C14.17,15.38 13.94,15.44 13.72,15.44 C13.53,15.44 13.35,15.42 13.18,15.36 C13.01,15.29 12.85,15.21 12.7,15.11 C12.56,15 12.44,14.88 12.33,14.74 C12.23,14.59 12.15,14.45 12.08,14.26 C12.02,14.1 12,13.91 12,13.73 C12,13.25 12.17,12.86 12.5,12.53 C12.87,12.2 13.26,12.04 13.74,12.04 L13.74,12.04 L13.74,12.04 Z M13.66,27.24 C13.68,27.24 13.68,27.24 13.7,27.24 C15.23,27.24 16.92,26.85 18.78,26.09 C20.64,25.32 22.11,24.4 23.19,23.31 C24.04,22.46 24.76,21.53 25.34,20.53 C25.94,19.52 26.37,18.42 26.68,17.29 C26.99,16.16 27.14,14.98 27.14,13.79 C27.14,13.79 27.14,13.77 27.14,13.77 L27.14,13.75 C27.14,12.22 26.74,10.54 25.98,8.68 C25.21,6.83 24.28,5.37 23.19,4.29 C21.91,3.02 20.46,2.05 18.82,1.37 C17.19,0.69 15.45,0.36 13.66,0.36 C10.47,0.36 7.64,1.37 5.16,3.37 C2.68,5.37 1.13,7.92 0.46,11.03 L2.57,11.03 C3.13,8.81 4.27,6.89 6,5.32 C7.74,3.76 9.73,2.79 12,2.46 L12.25,2.42 L12.25,3.22 L15.21,3.22 L15.21,2.5 L15.47,2.54 C16.12,2.65 16.74,2.81 17.38,3.06 C18.02,3.31 18.62,3.59 19.2,3.94 C19.78,4.29 20.33,4.71 20.87,5.14 C21.41,5.59 21.88,6.07 22.34,6.6 C22.79,7.14 23.19,7.69 23.54,8.27 C23.89,8.85 24.2,9.44 24.43,10.08 C24.68,10.72 24.84,11.34 24.94,11.98 L24.99,12.22 L24.18,12.22 L24.18,15.17 L24.99,15.17 L24.94,15.42 C24.59,17.87 23.54,19.97 21.78,21.74 C21.06,22.46 20.09,23.14 18.85,23.76 C17.63,24.38 16.49,24.77 15.47,24.93 L15.23,24.97 L15.23,24.09 L12.25,24.09 L12.25,25.06 L12,25.02 C10.41,24.77 8.94,24.21 7.6,23.37 C6.25,22.52 5.14,21.47 4.25,20.17 L1.85,20.17 C3.05,22.34 4.72,24.07 6.81,25.32 C8.9,26.58 11.19,27.24 13.66,27.24 L13.66,27.24 L13.66,27.24 Z M13.14,3.88 L14.34,3.88 L14.34,6.25 L13.14,6.25 L13.14,3.88 Z M13.14,6.44 L14.34,6.44 L14.34,8.81 L13.14,8.81 L13.14,6.44 Z M13.14,8.97 L14.34,8.97 L14.34,11.34 L13.14,11.34 L13.14,8.97 Z M21.14,12.88 L23.44,12.88 L23.44,14.08 L21.14,14.08 L21.14,12.88 Z M18.6,12.88 L20.97,12.88 L20.97,14.08 L18.6,14.08 L18.6,12.88 Z M16.03,12.97 L18.41,12.97 L18.41,14.16 L16.03,14.16 L16.03,12.97 Z M13.14,15.77 L14.34,15.77 L14.34,18.14 L13.14,18.14 L13.14,15.77 Z M13.14,18.3 L14.34,18.3 L14.34,20.67 L13.14,20.67 L13.14,18.3 Z M13.14,20.85 L14.34,20.85 L14.34,23.22 L13.14,23.22 L13.14,20.85 L13.14,20.85 Z" id="Shape"></path>
            </g>
        </g>
    </g>
</svg>