<svg xmlns="http://www.w3.org/2000/svg" id="fd454f1c-5506-44b8-874e-8814b8b2f70b" x="0" y="0" width="20px" height="20px" viewBox="0 0 18 18">
<defs>
<linearGradient id="f34d9569-2bd0-4002-8f16-3d01d8106cb5" x1="8.88" y1="12.21" x2="8.88" y2="0.21" gradientUnits="userSpaceOnUse">
<stop offset="0" stop-color="#0078d4"></stop>
<stop offset="0.82" stop-color="#5ea0ef"></stop>
</linearGradient>
<linearGradient id="bdb45a0b-eb58-4970-a60a-fb2ce314f866" x1="8.88" y1="16.84" x2="8.88" y2="12.21" gradientUnits="userSpaceOnUse">
<stop offset="0.15" stop-color="#ccc"></stop>
<stop offset="1" stop-color="#707070"></stop>
</linearGradient>
</defs>
<rect x="-0.12" y="0.21" width="18" height="12" rx="0.6" fill="url(#f34d9569-2bd0-4002-8f16-3d01d8106cb5)"></rect>
<polygon points="11.88 4.46 11.88 7.95 8.88 9.71 8.88 6.21 11.88 4.46" fill="#50e6ff"></polygon>
<polygon points="11.88 4.46 8.88 6.22 5.88 4.46 8.88 2.71 11.88 4.46" fill="#c3f1ff"></polygon>
<polygon points="8.88 6.22 8.88 9.71 5.88 7.95 5.88 4.46 8.88 6.22" fill="#9cebff"></polygon>
<polygon points="5.88 7.95 8.88 6.21 8.88 9.71 5.88 7.95" fill="#c3f1ff"></polygon>
<polygon points="11.88 7.95 8.88 6.21 8.88 9.71 11.88 7.95" fill="#9cebff"></polygon>
<path d="M12.49,15.84c-1.78-.28-1.85-1.56-1.85-3.63H7.11c0,2.07-.06,3.35-1.84,3.63a1,1,0,0,0-.89,1h9A1,1,0,0,0,12.49,15.84Z" fill="url(#bdb45a0b-eb58-4970-a60a-fb2ce314f866)"></path>
</svg>