<svg xmlns="http://www.w3.org/2000/svg" xmlns:xlink="http://www.w3.org/1999/xlink" x="0" y="0" width="20px" height="20px" viewBox="-210 205 225 225" style="enable-background:new -251 163 288 288;" xml:space="preserve">
<switch>
<g>
<g>
<g>
<circle fill="#F80000" cx="-139.4" cy="320.7" r="5.8"></circle>
</g>
<g>
<circle fill="#F80000" cx="-158.3" cy="320.7" r="5.8"></circle>
</g>
<g>
<circle fill="#F80000" cx="-177.1" cy="320.7" r="5.8"></circle>
</g>
<path fill="#F80000" d="M-42,267.7v41.9v0.1c-1.3,23.3-18.4,43.7-43.9,56.5c-25.5-12.7-42.6-33.2-43.9-56.5v-0.1v-41.9l43.9-18.9     L-42,267.7z M-118.6,311.7v18l15.9-9L-118.6,311.7z M-94.3,285.8L-130,286v12l35.7-0.1c4.6,0,8.3,3.7,8.3,8.3     c0,4.6-3.7,8.3-8.3,8.3h-3.1v12.1h3.1c11.3,0,20.4-9.1,20.4-20.4S-83.1,285.8-94.3,285.8z"></path>
<polygon fill="#F80000" points="-163,286 -163,279 -184.2,291.8 -163,305 -163,298 -130,298 -130,286"></polygon>
</g>
</g>
</switch>
</svg>