<svg xmlns="http://www.w3.org/2000/svg" xmlns:xlink="http://www.w3.org/1999/xlink" x="0" y="0" width="20px" height="20px" viewBox="85 80 140 140" style="enable-background:new 0 0 288 288;" xml:space="preserve">
<g>
<g>
<path fill="#F80000" d="M171.9,130.4v-12.8c0-15.4-12.5-27.9-27.9-27.9c-15.4,0-27.9,12.5-27.9,27.9v12.8h-10.5v51.4l38.4,16.4    l38.4-16.4v-51.4H171.9z M147.1,160l2.8,15.8h-12.1l3-15.9c-4.1-1.4-7.1-5.2-7.1-9.8c0-5.7,4.6-10.4,10.4-10.4    c5.7,0,10.4,4.7,10.4,10.4C154.4,154.7,151.3,158.6,147.1,160 M161.4,130.4h-34.9v-12.8c0-9.6,7.8-17.4,17.5-17.4    c9.6,0,17.4,7.8,17.4,17.4V130.4z"></path>
</g>
</g>
</svg>