<svg xmlns="http://www.w3.org/2000/svg" xmlns:xlink="http://www.w3.org/1999/xlink" x="0" y="0" width="20px" height="20px" viewBox="-210 205 225 225"style="enable-background:new -251 163 288 288;" xml:space="preserve">
<switch>
<g>
<path fill="#F80000" d="M-63,272.5v41.9v0.1c-1.3,23.3-18.4,43.7-43.9,56.5c-25.5-12.7-42.6-33.2-43.9-56.5v-0.1v-41.9l43.9-18.9    L-63,272.5z M-121.3,295l-15.6,0c-1.9,0-3,1.1-3,3l0,15.6c0,1.9,1.2,3.4,3,3.4l5,0v29h4l2-4h5v-4h-5v-3h5v-3h-5v-15l4.6,0    c1.9,0,3.4-1.5,3.4-3.4l0-15.7C-118,296.2-119.5,295-121.3,295z M-95.7,278.4c0-6.4-5.2-11.6-11.6-11.6s-11.6,5.2-11.6,11.6    c0,5.5,3.8,10.1,9,11.3V317h8.3l0-2l-2.3-3v-3h3.3v-4h-3.3v-15.5C-99.2,288.1-95.7,283.6-95.7,278.4z M-72.4,305l-4.9-8.3    c-0.6-1-1.7-1.7-2.9-1.7h-9.2c-1.2,0-2.3,0.6-2.9,1.7l-4.3,8.3c-0.6,1-0.6,2.3,0,3.3l4.3,7.9c0.6,1,1.7,1.7,2.9,1.7h1.4v23.4    l5,5.2l3-6l-2-2v-2h3v-4l-3,0l0-2h3v-2l-3.1-2.4v-8.1h1.9c1.2,0,2.3-0.6,2.9-1.7l4.9-7.9C-71.9,307.3-71.9,306-72.4,305z     M-129,299.2c-1.8,0-3.3,1.5-3.3,3.3s1.5,3.3,3.3,3.3c1.8,0,3.3-1.5,3.3-3.3S-127.1,299.2-129,299.2z M-107.3,271.3    c-1.8,0-3.3,1.5-3.3,3.3c0,1.8,1.5,3.3,3.3,3.3c1.8,0,3.3-1.5,3.3-3.3C-103.9,272.8-105.4,271.3-107.3,271.3z M-84.7,300.1    c-1.8,0-3.3,1.5-3.3,3.3c0,1.8,1.5,3.3,3.3,3.3s3.3-1.5,3.3-3.3C-81.3,301.6-82.8,300.1-84.7,300.1z"></path>
</g>
</switch>
</svg>