<svg xmlns="http://www.w3.org/2000/svg" xmlns:xlink="http://www.w3.org/1999/xlink" x="0" y="0" width="20px" height="20px" viewbox="0 0 75 75">
<defs>
<linearGradient id="BlueGradient-acf8e885-9dd9-46fb-b29a-e37f0ff6f478" x1="-15.53" y1="90.53" x2="90.53" y2="-15.53" gradientTransform="translate(0 0)" gradientUnits="userSpaceOnUse">
<stop offset="0" stop-color="#2e27ad"></stop>
<stop offset="1" stop-color="#527fff"></stop>
</linearGradient>
</defs>
<g>
<rect data-name="Blue Gradient" style="fill:url(#BlueGradient-acf8e885-9dd9-46fb-b29a-e37f0ff6f478)" width="75" height="75"></rect>
<g data-name="Icon Test">
<path fill="#fff" d="M61.5,61.5h-7v-2h6v-44h-46v44h28v2h-29a1,1,0,0,1-1-1v-46a1,1,0,0,1,1-1h48a1,1,0,0,1,1,1v46A1,1,0,0,1,61.5,61.5Z"></path>
<rect fill="#fff" x="13.5" y="21.5" width="48" height="2"></rect>
<rect fill="#fff" x="16.5" y="17.5" width="2" height="2"></rect>
<rect fill="#fff" x="20.5" y="17.5" width="2" height="2"></rect>
<rect fill="#fff" x="24.5" y="17.5" width="2" height="2"></rect>
<path fill="#fff" d="M24,50.81l-1.41-1.42,8.89-8.88-8.89-8.89L24,30.2l9.6,9.6a1,1,0,0,1,.29.71,1,1,0,0,1-.29.7Z"></path>
<rect fill="#fff" x="35.5" y="45.5" width="15" height="2"></rect>
</g>
</g>
</svg>