<svg xmlns="http://www.w3.org/2000/svg" xmlns:xlink="http://www.w3.org/1999/xlink" x="0" y="0" width="20px" height="20px" viewbox="0 0 75 75">
<defs>
<linearGradient id="TurquoiseGradient-5e9664b4-ee63-4b67-8cba-0afb7e406205" x1="-15.53" y1="90.53" x2="90.53" y2="-15.53" gradientTransform="translate(0 0)" gradientUnits="userSpaceOnUse">
<stop offset="0" stop-color="#055f4e"></stop>
<stop offset="1" stop-color="#56c0a7"></stop>
</linearGradient>
</defs>
<g>
<rect data-name="Turquoise Gradient" style="fill:url(#TurquoiseGradient-5e9664b4-ee63-4b67-8cba-0afb7e406205)" width="75" height="75"></rect>
<g data-name="Icon Test">
<path fill="#fff" d="M56,24.1A23.12,23.12,0,0,0,37.5,14.82a22.88,22.88,0,0,0-18,8.65L18,22.22a25,25,0,0,1,39.6.69Z"></path>
<path fill="#fff" d="M31.93,62.18A25.15,25.15,0,0,1,12.5,37.82a24.13,24.13,0,0,1,.63-5.54l1.94.46a22.28,22.28,0,0,0-.57,5.08A23.13,23.13,0,0,0,32.37,60.23Z"></path>
<path fill="#fff" d="M43.07,62.18l-.44-2A23.13,23.13,0,0,0,60.5,37.82a22.22,22.22,0,0,0-.41-4.29l2-.39a23.81,23.81,0,0,1,.45,4.68A25.15,25.15,0,0,1,43.07,62.18Z"></path>
<path fill="#fff" d="M52,28.93,38,20.85a1,1,0,0,0-1,0L23,28.93a1,1,0,0,0-.5.87V46a1,1,0,0,0,.5.87l14,8.08a1,1,0,0,0,1,0l14-8.08a1,1,0,0,0,.5-.87V29.8A1,1,0,0,0,52,28.93ZM37.5,22.87l12,6.92-12,6.94-12-6.94Zm-13,8.66,12,6.93V52.31l-12-6.92Zm26,13.86-12,6.92V38.46l12-6.93Z"></path>
</g>
</g>
</svg>