<svg xmlns="http://www.w3.org/2000/svg" xmlns:xlink="http://www.w3.org/1999/xlink" x="0" y="0" width="20px" height="20px" viewbox="0 0 75 75">
<defs>
<linearGradient id="TurquoiseGradient-8e8c6c84-40aa-4172-ab0b-ae07208c663b" x1="-636.58" y1="1457.81" x2="-486.58" y2="1457.81" gradientTransform="translate(-596.23 -1390.42) rotate(-45)" gradientUnits="userSpaceOnUse">
<stop offset="0" stop-color="#055f4e"></stop>
<stop offset="1" stop-color="#56c0a7"></stop>
</linearGradient>
</defs>
<g>
<rect data-name="Turquoise Gradient" style="fill:url(#TurquoiseGradient-8e8c6c84-40aa-4172-ab0b-ae07208c663b)" width="75" height="75"></rect>
<g data-name="Icon Test">
<path fill="#fff" d="M49.5,62.5h-2V48.71A13.1,13.1,0,0,0,47,45.5H44.5v-2h1.78c-.45-1.11-1-1.93-1.31-2H42.5v-2H45c3.06,0,4.52,7.39,4.52,9.21Zm-4,0h-2v-12h2Zm-14,0h-2v-8h2Zm-4-9h-2V48.71C25.5,46.89,27,39.5,30,39.5H32.5v2H30c-.36.07-.85.89-1.3,2h10.7v2H28a13.1,13.1,0,0,0-.54,3.21Zm4-1h-2v-4h2Zm12-7H41.42v-2H43.5Zm-2-3h-2v-2h-4v2h-2v-4H28.79a3.3,3.3,0,0,1-3.29-3.29V15.79a3.3,3.3,0,0,1,3.29-3.29H37.5v2H28.79a1.28,1.28,0,0,0-1.29,1.29V35.21a1.28,1.28,0,0,0,1.29,1.29H46.21a1.28,1.28,0,0,0,1.29-1.29V15.79a1.28,1.28,0,0,0-1.29-1.29H43.5v-2h2.71a3.3,3.3,0,0,1,3.29,3.29V35.21a3.3,3.3,0,0,1-3.29,3.29H41.5Zm-4-11a6,6,0,1,1,6-6A6,6,0,0,1,37.5,31.5Zm0-10a4,4,0,1,0,4,4A4,4,0,0,0,37.5,21.5Zm4-7h-2v-2h2Zm-4,35A1.5,1.5,0,1,0,39,51,1.5,1.5,0,0,0,37.5,49.5Zm0,5A1.5,1.5,0,1,0,39,56,1.5,1.5,0,0,0,37.5,54.5Zm0,5A1.5,1.5,0,1,0,39,61,1.5,1.5,0,0,0,37.5,59.5Zm0-35.5A1.5,1.5,0,1,0,39,25.5,1.5,1.5,0,0,0,37.5,24Z"></path>
</g>
</g>
</svg>