<svg xmlns="http://www.w3.org/2000/svg" xmlns:xlink="http://www.w3.org/1999/xlink" x="0" y="0" width="20px" height="20px" viewbox="0 0 75 75">
<defs>
<linearGradient id="TurquoiseGradient-ff922628-ce11-450e-acdc-96f148120929" x1="-42.35" y1="-106.27" x2="-42.35" y2="-256.27" gradientTransform="translate(-60.73 195.62) rotate(45)" gradientUnits="userSpaceOnUse">
<stop offset="0" stop-color="#055f4e"></stop>
<stop offset="1" stop-color="#56c0a7"></stop>
</linearGradient>
</defs>
<g>
<rect data-name="Turquoise Gradient" style="fill:url(#TurquoiseGradient-ff922628-ce11-450e-acdc-96f148120929)" width="75" height="75"></rect>
<g data-name="Icon Test">
<path fill="#fff" d="M27.54,50.5h-14a1,1,0,0,1-1-1v-8h2v7h13Z"></path>
<path fill="#fff" d="M39.25,22.79l-10-10a1,1,0,0,0-.71-.29h-15a1,1,0,0,0-1,1v23h2v-22h13v9a1,1,0,0,0,1,1h9v2h2v-3A1,1,0,0,0,39.25,22.79Zm-9.71-.29V15.91l6.59,6.59Z"></path>
<rect fill="#fff" x="16.54" y="29.5" width="8" height="2"></rect>
<path fill="#fff" d="M61.19,62.5a1.17,1.17,0,0,1-.55-.13l-8.36-4.18A15.88,15.88,0,0,1,28.77,46.54l2-.27a13.88,13.88,0,0,0,21,9.93,1,1,0,0,1,1,0l6.83,3.42-3.43-6.72a1,1,0,0,1,0-1,13.55,13.55,0,0,0,2.21-7.48A13.87,13.87,0,0,0,38,32.1l-.94-1.76a15.86,15.86,0,0,1,23.28,14,15.68,15.68,0,0,1-2.22,8.08l4.19,8.21a1.25,1.25,0,0,1-.22,1.45A1.26,1.26,0,0,1,61.19,62.5Zm-.65-.94h0Z"></path>
<rect fill="#fff" x="42.54" y="40.5" width="2" height="8"></rect>
<rect fill="#fff" x="45.54" y="39.5" width="2" height="10"></rect>
<rect fill="#fff" x="48.54" y="38.5" width="2" height="12"></rect>
<rect fill="#fff" x="51.54" y="41.5" width="2" height="7"></rect>
<rect fill="#fff" x="36.54" y="40.5" width="2" height="8"></rect>
<rect fill="#fff" x="16.54" y="34.5" width="19" height="2"></rect>
<rect fill="#fff" x="16.54" y="39.5" width="14" height="2"></rect>
<rect fill="#fff" x="26.54" y="29.5" width="4" height="2"></rect>
<rect fill="#fff" x="39.54" y="42.5" width="2" height="4"></rect>
<rect fill="#fff" x="37.54" y="34.5" width="6" height="1.9"></rect>
</g>
</g>
</svg>