<svg xmlns="http://www.w3.org/2000/svg" xmlns:xlink="http://www.w3.org/1999/xlink" x="0" y="0" width="20px" height="20px" viewbox="0 0 75 75">
<defs>
<linearGradient id="TurquoiseGradient-3de9cb73-1772-4758-bcff-3fe00ed8d9a0" x1="-522.54" y1="465.47" x2="-416.47" y2="571.54" gradientTransform="translate(-481 -432) rotate(-90)" gradientUnits="userSpaceOnUse">
<stop offset="0" stop-color="#055f4e"></stop>
<stop offset="1" stop-color="#56c0a7"></stop>
</linearGradient>
</defs>
<g>
<rect data-name="Turquoise Gradient" style="fill:url(#TurquoiseGradient-3de9cb73-1772-4758-bcff-3fe00ed8d9a0)" width="75" height="75"></rect>
<g data-name="Icon Test">
<path fill="#fff" d="M39.5,18.5a17,17,0,0,0-17,17,16.79,16.79,0,0,0,2,7.93L14,54A5,5,0,0,0,21,61l2-1.94,8.46-8.49.09-.09a17,17,0,1,0,7.91-32ZM19.62,59.62a3,3,0,0,1-4.24-4.24L25.56,45.2a17.08,17.08,0,0,0,4.24,4.24ZM39.5,50.5a15,15,0,1,1,15-15A15,15,0,0,1,39.5,50.5Z"></path>
<path fill="#fff" d="M39.5,12.5a22.69,22.69,0,0,0-9.58,2.1l.83,1.82a21,21,0,1,1-.25,38L29,55.93A23,23,0,1,0,39.5,12.5ZM21.23,25.17l-1.73-1A22.89,22.89,0,0,0,19.07,46l1.49-1.52a20.81,20.81,0,0,1,.67-19.33Z"></path>
<polygon fill="#fff" points="48.5 44.5 43.5 44.5 43.5 42.5 46.5 42.5 46.5 39.5 48.5 39.5 48.5 44.5"></polygon>
<polygon fill="#fff" points="48.5 31.5 46.5 31.5 46.5 28.5 43.5 28.5 43.5 26.5 48.5 26.5 48.5 31.5"></polygon>
<polygon fill="#fff" points="32.5 31.5 30.5 31.5 30.5 26.5 35.5 26.5 35.5 28.5 32.5 28.5 32.5 31.5"></polygon>
<polygon fill="#fff" points="35.5 44.5 30.5 44.5 30.5 39.5 32.5 39.5 32.5 42.5 35.5 42.5 35.5 44.5"></polygon>
<polygon fill="#fff" points="34.5 40.5 37.72 40.5 34.5 37.28 34.5 40.5"></polygon>
<polygon fill="#fff" points="34.5 30.5 34.5 33.72 37.72 30.5 34.5 30.5"></polygon>
<polygon fill="#fff" points="44.5 30.5 41.28 30.5 44.5 33.72 44.5 30.5"></polygon>
<polygon fill="#fff" points="44.5 40.5 44.5 37.28 41.28 40.5 44.5 40.5"></polygon>
</g>
</g>
</svg>