<svg xmlns="http://www.w3.org/2000/svg" xmlns:xlink="http://www.w3.org/1999/xlink" x="0" y="0" height="20px" width="20px" viewBox="0 0 75 75">
<defs>
<linearGradient id="TurquoiseGradient-1464ee84-5fef-4291-ba4f-25b4f74e906d" x1="1382.53" y1="-41.53" x2="1276.47" y2="64.53" gradientTransform="translate(1367 49) rotate(180)" gradientUnits="userSpaceOnUse">
<stop offset="0" stop-color="#055f4e"></stop>
<stop offset="1" stop-color="#56c0a7"></stop>
</linearGradient>
</defs>
<g>
<rect data-name="Turquoise Gradient" style="fill:url(#TurquoiseGradient-1464ee84-5fef-4291-ba4f-25b4f74e906d);" width="75" height="75"></rect>
<g data-name="Icon Test">
<path fill="#fff" d="M61.5,62.5a1,1,0,0,1-.71-.29l-18-18,1.42-1.42L60.5,59.09V14.5H15.91l16.3,16.29-1.42,1.42-18-18a1,1,0,0,1-.21-1.09,1,1,0,0,1,.92-.62h48a1,1,0,0,1,1,1v48a1,1,0,0,1-.62.92A.84.84,0,0,1,61.5,62.5Z"></path>
<path fill="#fff" d="M38.5,62.5a1,1,0,0,1-.71-.29l-25-25a1,1,0,0,1-.21-1.09,1,1,0,0,1,.92-.62h25a1,1,0,0,1,1,1v25a1,1,0,0,1-.62.92A.84.84,0,0,1,38.5,62.5Zm-22.59-25L37.5,59.09V37.5Z"></path>
</g>
</g>
</svg>