<svg xmlns="http://www.w3.org/2000/svg" xmlns:xlink="http://www.w3.org/1999/xlink" x="0" y="0" height="20px" width="20px" viewBox="0 0 75 75">
<defs>
<linearGradient id="TurquoiseGradient-37725a47-7b56-4455-b8ed-f6a5b8d175ec" x1="179.53" y1="153.53" x2="73.47" y2="47.47" gradientTransform="translate(138 -89) rotate(90)" gradientUnits="userSpaceOnUse">
<stop offset="0" stop-color="#055f4e"></stop>
<stop offset="1" stop-color="#56c0a7"></stop>
</linearGradient>
</defs>
<g>
<rect data-name="Red Gradient" style="fill:url(#TurquoiseGradient-37725a47-7b56-4455-b8ed-f6a5b8d175ec);" width="75" height="75"></rect>
<g data-name="Icon Test">
<path fill="#fff" d="M62.21,36.79l-24-24a1,1,0,0,0-.71-.29h-24a1,1,0,0,0-1,1v48a1,1,0,0,0,1,1h48a1,1,0,0,0,1-1v-24A1,1,0,0,0,62.21,36.79ZM38.5,15.91,59.09,36.5H38.5Zm22,44.59h-22v-2h-2v2h-22v-22h2v-2h-2v-22h22v22h-3v2h3v3h2v-3h22Zm-42-24v2h3v-2Zm5,0v2h3v-2Zm5,0v2h3v-2Zm8,7v3h2v-3Zm0,5v3h2v-3Zm0,5v3h2v-3Z"></path>
</g>
</g>
</svg>