<svg xmlns="http://www.w3.org/2000/svg" xmlns:xlink="http://www.w3.org/1999/xlink" x="0" y="0" height="20px" width="20px" viewBox="0 0 75 75">
<defs>
<linearGradient id="TurquoiseGradient-39bb6491-0c72-46e9-b693-6f1c9d8dcde7" x1="124.6" y1="296.78" x2="124.6" y2="146.78" gradientTransform="translate(106.22 -207.43) rotate(45)" gradientUnits="userSpaceOnUse">
<stop offset="0" stop-color="#055f4e"></stop>
<stop offset="1" stop-color="#56c0a7"></stop>
</linearGradient>
</defs>
<g>
<rect data-name="Green Gradient" style="fill:url(#TurquoiseGradient-39bb6491-0c72-46e9-b693-6f1c9d8dcde7);" width="75" height="75"></rect>
<g data-name="ICONS - EDIT">
<path fill="#fff" d="M25.47,46.18H14.6a1.12,1.12,0,0,1-1.12-1.12V14.6a1.12,1.12,0,0,1,1.12-1.12H45.06a1.12,1.12,0,0,1,1.12,1.12V25.28h-2V15.49H15.48V44.18h10Z"></path>
<path fill="#fff" d="M60.41,61.52H29.93a1.11,1.11,0,0,1-1.11-1.11V49.5h2v10H59.51V30.83h-9.8v-2H60.4a1.11,1.11,0,0,1,1.11,1.11V60.42A1.09,1.09,0,0,1,60.41,61.52Z"></path>
<path fill="#fff" d="M46.89,48.05H28.1A1.16,1.16,0,0,1,27,46.9V28.11A1.16,1.16,0,0,1,28.1,27H46.89A1.16,1.16,0,0,1,48,28.11V46.9A1.15,1.15,0,0,1,46.89,48.05ZM29,46.05H46V29H29Z"></path>
</g>
</g>
</svg>