<svg xmlns="http://www.w3.org/2000/svg" xmlns:xlink="http://www.w3.org/1999/xlink" x="0" y="0" width="20px" height="20px" viewBox="-210 205 225 225" style="enable-background:new -251 163 288 288;" xml:space="preserve">
<switch>
<g>
<g>
<g>
<circle fill="#F80000" cx="-107" cy="307" r="96"></circle>
<circle fill="#FFFFFF" cx="-107" cy="307" r="88"></circle>
<circle fill="none" stroke="#F80000" stroke-width="3.0474" stroke-miterlimit="10" cx="-107" cy="307" r="76"></circle>
</g>
</g>
<g>
<g>
<g>
<ellipse fill="#F80000" cx="-109.1" cy="339.7" rx="2" ry="1.9"></ellipse>
<path fill="#F80000" d="M-97.7,293.3h-52c-1.8,0-3.2,1.4-3.2,3.2v57.3c0,1.8,1.4,3.2,3.2,3.2h52c1.8,0,3.2-1.4,3.2-3.2v-57.3       C-94.5,294.8-96,293.3-97.7,293.3z M-129.7,310.6v-0.4v-3.3c0-0.7,0.6-1.3,1.4-1.3h9.2c0.8,0,1.4,0.6,1.4,1.3v3.3v0.4v5.3       c0,0.7-0.6,1.3-1.4,1.3h-9.2c-0.8,0-1.4-0.6-1.4-1.3V310.6z M-129.7,324.6v-0.4v-3.3c0-0.7,0.6-1.3,1.4-1.3h9.2       c0.8,0,1.4,0.6,1.4,1.3v3.3v0.4v5.3c0,0.7-0.6,1.3-1.4,1.3h-9.2c-0.8,0-1.4-0.6-1.4-1.3V324.6z M-143.7,310.6v-0.4v-3.3       c0-0.7,0.6-1.3,1.4-1.3h9.2c0.8,0,1.4,0.6,1.4,1.3v3.3v0.4v5.3c0,0.7-0.6,1.3-1.4,1.3h-9.2c-0.8,0-1.4-0.6-1.4-1.3V310.6z        M-143.7,324.6v-0.4v-3.3c0-0.7,0.6-1.3,1.4-1.3h9.2c0.8,0,1.4,0.6,1.4,1.3v3.3v0.4v5.3c0,0.7-0.6,1.3-1.4,1.3h-9.2       c-0.8,0-1.4-0.6-1.4-1.3V324.6z M-103.7,343.7c0,1-0.8,1.8-1.8,1.8h-36.4c-1,0-1.8-0.8-1.8-1.8v-10h40L-103.7,343.7       L-103.7,343.7z M-103.7,324.2v0.4v5.3c0,0.7-0.6,1.3-1.4,1.3h-9.2c-0.8,0-1.4-0.6-1.4-1.3v-5.3v-0.4v-3.3       c0-0.7,0.6-1.3,1.4-1.3h9.2c0.8,0,1.4,0.6,1.4,1.3V324.2z M-103.7,310.2v0.4v5.3c0,0.7-0.6,1.3-1.4,1.3h-9.2       c-0.8,0-1.4-0.6-1.4-1.3v-5.3v-0.4v-3.3c0-0.7,0.6-1.3,1.4-1.3h9.2c0.8,0,1.4,0.6,1.4,1.3V310.2z"></path>
</g>
<g>
<rect x="-89.3" y="259" fill="#F80000" width="12" height="4"></rect>
<rect x="-125.2" y="259" fill="#F80000" width="12" height="4"></rect>
<rect x="-107.3" y="259" fill="#F80000" width="12" height="4"></rect>
<rect x="-143.2" y="259" fill="#F80000" width="12" height="4"></rect>
<rect x="-152.4" y="259" fill="#F80000" width="3.2" height="4"></rect>
<rect x="-64.8" y="344.6" fill="#F80000" width="4" height="12"></rect>
<rect x="-64.8" y="272.8" fill="#F80000" width="4" height="12"></rect>
<path fill="#F80000" d="M-60.8,266.5c0-4.1-3.6-7.5-8-7.5h-2.6v4h2.6c2.2,0,4,1.6,4,3.6l0,1.6h4l0-1.5L-60.8,266.5z"></path>
<rect x="-64.8" y="326.7" fill="#F80000" width="4" height="12"></rect>
<rect x="-64.8" y="308.7" fill="#F80000" width="4" height="12"></rect>
<rect x="-64.8" y="290.8" fill="#F80000" width="4" height="12"></rect>
</g>
<polygon fill="#F80000" points="-81,270 -77.4,273.6 -86.9,283.1 -90.4,279.5 -93.9,292.6 -81,289.1 -84.6,285.5 -75.1,275.9       -71.6,279.5 -68.1,266.5"></polygon>
</g>
</g>
</g>
</switch>
</svg>