<svg xmlns="http://www.w3.org/2000/svg" xmlns:xlink="http://www.w3.org/1999/xlink" x="0" y="0" width="20px" height="20px" viewBox="-210 205 225 225" style="enable-background:new -251 163 288 288;" xml:space="preserve">
<switch>
<g>
<g>
<g>
<circle fill="#F80000" cx="-107" cy="307" r="96"></circle>
<circle fill="#FFFFFF" cx="-107" cy="307" r="88"></circle>
<circle fill="none" stroke="#F80000" stroke-width="3.0474" stroke-miterlimit="10" cx="-107" cy="307" r="76"></circle>
</g>
</g>
<g>
<g>
<g>
<path fill="#F80000" d="M-84.1,272l0,17.5l-46.6,0l0-17.5c0-1.1,0.9-2,2-2l42.6,0C-85,270-84.1,270.9-84.1,272z M-95.1,280.1       c0,1.6,1.3,2.9,2.9,2.9c1.6,0,2.9-1.3,2.9-2.9s-1.3-2.9-2.9-2.9C-93.8,277.2-95.1,278.5-95.1,280.1z"></path>
</g>
<g>
<path fill="#F80000" d="M-111,296.2l0,17.5l-46.6,0l0-17.5c0-1.1,0.9-2,2-2l42.6,0C-111.9,294.2-111,295.1-111,296.2z M-122,304.2       c0,1.6,1.3,2.9,2.9,2.9c1.6,0,2.9-1.3,2.9-2.9s-1.3-2.9-2.9-2.9C-120.7,301.4-122,302.6-122,304.2z"></path>
</g>
<g>
<path fill="#F80000" d="M-57.3,296.2l0,17.5l-46.6,0l0-17.5c0-1.1,0.9-2,2-2l42.6,0C-58.2,294.2-57.3,295.1-57.3,296.2z        M-68.3,304.2c0,1.6,1.3,2.9,2.9,2.9c1.6,0,2.9-1.3,2.9-2.9c0-1.6-1.3-2.9-2.9-2.9C-67,301.4-68.3,302.6-68.3,304.2z"></path>
</g>
<g>
<g>
<path fill="#F80000" d="M-171.1,315.1v0.8c0-0.9,0.2-1.7,0.7-2.5C-171,314.4-171.1,315-171.1,315.1z"></path>
<path fill="#F80000" d="M-44.3,313.6c0.3,0.7,0.5,1.4,0.5,2.2v-0.8C-43.8,315-43.8,314.5-44.3,313.6z"></path>
<path fill="#F80000" d="M-44.3,313.6c-1-2.2-3.6-4.1-7.3-5.7v0.2v1.2v1.4c3.4,1.6,5.2,3.4,5.2,5.1c0,6.3-25,13.3-61,13.3        c-35.9,0-61-7-61-13.3c0-1.7,1.8-3.4,5.2-5.1v-1.4v-1.2v-0.2c-3.5,1.6-6,3.4-7.1,5.5c-0.4,0.8-0.7,1.6-0.7,2.5V326        c0,0,0.4,10.8,29.2,15.4c16.5,2.5,33.7,2.5,34.5,2.5c0.7,0,17.8,0,34.5-2.5c28.9-4.5,29.2-15.3,29.2-15.4v-10.2        C-43.8,315.1-44,314.4-44.3,313.6z"></path>
</g>
</g>
</g>
</g>
</g>
</switch>
</svg>