<svg xmlns="http://www.w3.org/2000/svg" xmlns:xlink="http://www.w3.org/1999/xlink" x="0" y="0" width="20px" height="20px" viewBox="-210 205 225 225" xml:space="preserve">
<switch>
<g>
<g>
<g>
<circle fill="#F80000" cx="-107" cy="307" r="96"></circle>
<circle fill="#FFFFFF" cx="-107" cy="307" r="88"></circle>
<circle fill="none" stroke="#F80000" stroke-width="3.0474" stroke-miterlimit="10" cx="-107" cy="307" r="76"></circle>
</g>
</g>
<g>
<g>
<circle fill="#F80000" cx="-122.6" cy="353.6" r="6"></circle>
<circle fill="#F80000" cx="-78.7" cy="353.6" r="6"></circle>
<path fill="#F80000" d="M-62.7,288.8c0.2-1,0.3-2,0.3-3.1c0-8.4-6.8-15.2-15.2-15.2c-2.9,0-5.6,0.8-7.8,2.2      c-4.2-5.4-10.6-8.7-17.7-8.7c-11.8,0-21.5,9.2-22.3,20.9c-3.3,1.8-6.2,4.4-8.2,7.6c-0.1-0.4-0.2-0.8-0.3-1.1      c-1.4-5.9-2.6-10.6-3-12.3c-3-11.8-15.5-12.6-21.7-11.5l1.3,7.1c0,0,3.2-0.6,6.5,0.1c2.4,0.5,5.7,1.6,6.9,6.1      c0.4,1.6,1.6,6.5,3,12.2c1.3,5.4,2.8,11.5,4,16.6c0.1,0.5,0.2,0.9,0.3,1.4c0,0.1,0.1,0.3,0.1,0.4l0,0      c2.2,7.3,7.9,13.3,15.5,15.5c2.1,0.6,4.3,0.9,6.5,0.9h35.6v0c0,0,0,0,0,0h0.6v0c2.7-0.1,5.4-0.6,7.8-1.6c-0.4,1.1-0.8,2.1-1,2.9      l0,0.1c-1.3,3.8-2.8,7.9-11,7.9h-48.1v7.7h48.1c13.3,0,16.4-9.4,17.8-13.4l0-0.1c0.9-2.8,3.8-9.9,5.5-14.1      c1.3-3.3,1.6-3.9,1.7-4.2c1-2.6,1.5-5.3,1.5-8.1C-56,298.8-58.5,293-62.7,288.8z M-69.5,317.6c-2.7,2-5.9,3.1-9.3,3.1h-35.6      c-1.5,0-3-0.2-4.5-0.6c-5.2-1.5-9.1-5.6-10.6-10.7c-0.1-0.4-0.2-0.9-0.3-1.3c-0.2-1-0.3-2-0.3-3c0-4.9,2.3-9.3,5.8-12.2      c1.5-1.2,3.1-2.1,5-2.7c-0.2-1-0.3-2-0.3-3.1c0-9.2,7.5-16.7,16.7-16.7c8,0,15.9,5.5,16.3,13.2c0,0,0,0,0,0      c1-3.7,4.4-6.4,8.4-6.4c4.8,0,8.8,3.9,8.8,8.8c0,2-0.7,3.9-1.8,5.4c2,1.1,3.8,2.7,5.1,4.5c1.9,2.6,3,5.9,3,9.2      C-63.2,310-65.5,314.6-69.5,317.6z"></path>
<polygon fill="#F80000" points="-82,295 -93.6,305 -93.6,280.8 -100.7,280.8 -100.7,305.1 -112.4,295.5 -112.4,304.3 -97.5,316.5       -82,303.8 -82,295"></polygon>
</g>
</g>
</g>
</switch>
</svg>