<svg xmlns="http://www.w3.org/2000/svg" x="0" y="0" width="20px" height="20px" viewBox="0 0 512 512">
<defs>
<style>
.cls-1-10B03514-A7D4-4302-8831-14E003F0916B{fill:#4285f4;}
.cls-2-24B001FB-BC5F-4711-A20B-37FF69ABD00C{fill:none;}
.cls-3-43E9ACF5-9B00-4BB8-9004-B4E43CE4C9CF{opacity:0.07;}
.cls-4-510A74E4-544E-4501-A459-CFE0F6993DA2{fill:#fff;}
</style>
</defs>
<g>
<path class="cls-1-10B03514-A7D4-4302-8831-14E003F0916B" d="M505.9,232.48l-105.22-183C392.24,34.91,377,26,361.22,26H150.79c-16.86,0-31.59,9.88-39.46,23.5L6.11,232.1a45.9,45.9,0,0,0,0,45.75l105.22,183.8C119.75,476.26,135,486,150.78,486H361.21c16.86,0,31.59-10.63,39.46-24.24l105.22-183A46.94,46.94,0,0,0,505.9,232.48Z"/>
<line class="cls-2-24B001FB-BC5F-4711-A20B-37FF69ABD00C" x1="353.47" y1="233.68" x2="357.47" y2="226.74"/>
</g>
<g>
<path class="cls-3-43E9ACF5-9B00-4BB8-9004-B4E43CE4C9CF" d="M400.67,461.76l83.62-145.43L309.23,141.27l-118.45,18.4L154,286.23l70.55,70.54-21.74,14L318,486h43.19C378.07,486,392.8,475.37,400.67,461.76Z"/>
</g>
<g>
<path class="cls-4-510A74E4-544E-4501-A459-CFE0F6993DA2" d="M190.78,350l12,20.74H322.24L382,267.25l-24-41.48L298.29,329.25H202.76Z"/>
<path class="cls-4-510A74E4-544E-4501-A459-CFE0F6993DA2" d="M321.21,162l-12-20.74H189.75L130,244.75,154,286.23,213.7,182.75h95.53Z"/>
<polygon class="cls-4-510A74E4-544E-4501-A459-CFE0F6993DA2" points="276.23 272.6 294.29 284.15 294.29 230.65 251.55 205.32 251.55 230 276.23 244.62 276.23 272.6"/>
<path class="cls-4-510A74E4-544E-4501-A459-CFE0F6993DA2" d="M264.61,306.67V253.18l-42.75-25.33v51.5Z"/>
</g>
</svg>