<svg xmlns="http://www.w3.org/2000/svg" x="0" y="0" width="20px" height="20px" viewBox="0 0 512 512">
<defs>
<style>
.cls-1-56E989D9-F2EF-4387-B60F-A5BF7E05E1DE{fill:#4285f4;}
.cls-2-9E253CA8-8CE7-49B3-ADE7-8CFCDA84B45F{fill:none;}
.cls-3-BF0F6D82-3D41-4740-A756-AA4669369543{opacity:0.07;}
.cls-4-357ED4E2-9F87-42CF-8AD9-98A458783133{fill:#fff;}
</style>
</defs>
<g>
<path class="cls-1-56E989D9-F2EF-4387-B60F-A5BF7E05E1DE" d="M505.9,232.48l-105.22-183C392.24,34.91,377,26,361.22,26H150.79c-16.86,0-31.59,9.88-39.46,23.5L6.11,232.1a45.9,45.9,0,0,0,0,45.75l105.22,183.8C119.75,476.26,135,486,150.78,486H361.21c16.86,0,31.59-10.63,39.46-24.24l105.22-183A46.94,46.94,0,0,0,505.9,232.48Z"/>
<line class="cls-2-9E253CA8-8CE7-49B3-ADE7-8CFCDA84B45F" x1="353.47" y1="233.68" x2="357.47" y2="226.74"/>
</g>
<g>
<path class="cls-3-BF0F6D82-3D41-4740-A756-AA4669369543" d="M400.67,461.76l83.62-145.43L309.23,141.27l-118.45,18.4L154,286.23l70.55,70.54-21.74,14L318,486h43.19C378.07,486,392.8,475.37,400.67,461.76Z"/>
</g>
<g>
<path class="cls-4-357ED4E2-9F87-42CF-8AD9-98A458783133" d="M190.79,350l12,20.74H322.25L382,267.25,358,225.77,298.3,329.25H202.76Z"/>
<path class="cls-4-357ED4E2-9F87-42CF-8AD9-98A458783133" d="M321.21,162l-12-20.74H189.75L130,244.75l24,41.48L213.7,182.75h95.54Z"/>
<rect class="cls-4-357ED4E2-9F87-42CF-8AD9-98A458783133" x="223.9" y="215.39" width="64.2" height="17.26"/>
<rect class="cls-4-357ED4E2-9F87-42CF-8AD9-98A458783133" x="223.9" y="247.27" width="64.2" height="17.26"/>
<rect class="cls-4-357ED4E2-9F87-42CF-8AD9-98A458783133" x="223.9" y="279.35" width="64.2" height="17.26"/>
</g>
</svg>