<svg xmlns="http://www.w3.org/2000/svg" x="0" y="0" width="20px" height="20px" viewBox="0 0 512 512">
<defs>
<style>
.cls-1-3EC12F13-5277-455D-9B90-851F3FFDA4FD{fill:#4285f4;}
.cls-2-C65AFFD0-0D4A-4494-BF9C-0242A62541AC{fill:none;}
.cls-3-41AC839C-1F18-433E-B656-5B0D304CF767{opacity:0.07;}
.cls-4-9B39DC82-332C-4962-AF6D-2E0C962AD3D2{fill:#fff;}</style>
</defs>
<title>AutoML_Vision_Hex 512px</title>
<g>
<path class="cls-1-3EC12F13-5277-455D-9B90-851F3FFDA4FD" d="M505.9,232.48l-105.22-183C392.24,34.91,377,26,361.22,26H150.79c-16.86,0-31.59,9.88-39.46,23.5L6.11,232.1a45.9,45.9,0,0,0,0,45.75l105.22,183.8C119.75,476.26,135,486,150.78,486H361.21c16.86,0,31.59-10.63,39.46-24.24l105.22-183A46.94,46.94,0,0,0,505.9,232.48Z"/>
<line class="cls-2-C65AFFD0-0D4A-4494-BF9C-0242A62541AC" x1="353.47" y1="233.68" x2="357.47" y2="226.74"/>
</g>
<g>
<path class="cls-3-41AC839C-1F18-433E-B656-5B0D304CF767" d="M400.67,461.76l83.62-145.43L309.23,141.27l-118.45,18.4L154,286.23l70.55,70.54-21.74,14L318,486h43.19C378.07,486,392.8,475.37,400.67,461.76Z"/>
</g>
<g>
<polygon class="cls-4-9B39DC82-332C-4962-AF6D-2E0C962AD3D2" points="274.16 278.02 213.47 278.46 238.53 233.86 298.99 233.54 274.16 278.02"/>
<path class="cls-4-9B39DC82-332C-4962-AF6D-2E0C962AD3D2" d="M190.78,350l12,20.74H322.24L382,267.25l-24-41.48L298.29,329.25H202.76Z"/>
<path class="cls-4-9B39DC82-332C-4962-AF6D-2E0C962AD3D2" d="M321.21,162l-12-20.74H189.75L130,244.75,154,286.23,213.7,182.75h95.53Z"/>
</g>
</svg>