<svg xmlns="http://www.w3.org/2000/svg" x="0" y="0" width="20px" height="20px" viewBox="0 0 72 65">
<title>Group</title>
<desc>Created with Sketch.</desc>
<defs>
<path d="M0.427,16.414 L16.482,16.414 L16.482,0.359 L0.427,0.359 L0.427,16.414 Z M12.003,3.798 L13.931,5.732 L7.07,12.595 L2.808,8.333 L4.736,6.406 L7.07,8.733 L12.003,3.798 Z" id="path-1-D430A309-1B16-4752-A457-68DE378F7AEF"></path>
<path d="M0.518,13.414 L13.133,13.414 L13.133,0.799 L0.518,0.799 L0.518,13.414 Z M2.811,11.12 L10.839,11.12 L10.839,3.092 L2.811,3.092 L2.811,11.12 Z" id="path-3-B8E63FFC-E830-4E4D-A925-D1EF7039B101"></path>
<path d="M0.518,13.321 L13.133,13.321 L13.133,0.708 L0.518,0.708 L0.518,13.321 Z M2.811,11.028 L10.839,11.028 L10.839,3 L2.811,3 L2.811,11.028 Z" id="path-5-FAE26090-1D79-4608-9D25-EDDA9D62F5B9"></path>
<path d="M0.427,13.321 L13.041,13.321 L13.041,0.708 L0.427,0.708 L0.427,13.321 Z M2.72,11.028 L10.747,11.028 L10.747,3 L2.72,3 L2.72,11.028 Z" id="path-7-A1A61C8A-EA56-40FA-B6AB-EDC86045D6BF"></path>
</defs>
<g stroke="none" stroke-width="1" fill="none" fill-rule="evenodd">
<g>
<g>
<path d="M71.141875,28.871 L56.344875,3.288 C55.212875,1.291 53.101875,0.04 50.796875,-2.84217094e-14 L21.203875,-2.84217094e-14 C18.898875,0.038 16.787875,1.289 15.655875,3.286 L0.858875041,28.819 C-0.286124959,30.799 -0.286124959,33.234 0.857875041,35.215 L15.653875,60.916 C16.774875,62.939 18.880875,64.231 21.202875,64.32 L50.794875,64.32 C53.115875,64.24 55.223875,62.953 56.343875,60.931 L71.139875,35.346 C72.286875,33.338 72.286875,30.879 71.141875,28.871" fill="#4285F4"></path>
<path d="M20.4998,47.7178 L37.5498,64.2808 L50.5918,64.2808 C52.9308,64.2008 55.0558,62.9338 56.1848,60.9408 L70.9868,35.6158 L51.4718,16.6278 L36.1598,23.0998 L33.0948,20.1198 L20.5828,20.0918 L20.5068,32.7728 L23.8488,35.9908 L21.0798,39.1778 L20.4998,47.7178 Z" fill-opacity="0.07" fill="#000000"></path>
<path d="M35.427,32.733 L51.482,32.733 L51.482,16.678 L35.427,16.678 L35.427,32.733 Z M42.07,28.915 L48.931,22.053 L47.003,20.119 L42.07,25.053 L39.736,22.726 L37.808,24.653 L42.07,28.915 Z" fill="#FFFFFF"></path>
<g transform="translate(35.000000, 16.320000)">
<mask id="mask-2-F79F0226-4EFC-4127-B34C-27C5A30BA4DC" fill="white">
<use xlink:href="#path-1-D430A309-1B16-4752-A457-68DE378F7AEF"></use>
</mask>
<g></g>
<polygon fill="#FFFFFF" mask="url(#mask-2-F79F0226-4EFC-4127-B34C-27C5A30BA4DC)" points="-17.922 34.762 18.775 34.762 18.775 -1.935 -17.922 -1.935"></polygon>
<polygon fill="#FFFFFF" mask="url(#mask-2-F79F0226-4EFC-4127-B34C-27C5A30BA4DC)" points="-7.218 24.059 24.128 24.059 24.128 -7.287 -7.218 -7.287"></polygon>
</g>
<path d="M20.518,32.733 L33.133,32.733 L33.133,20.118 L20.518,20.118 L20.518,32.733 Z M22.812,30.44 L30.84,30.44 L30.84,22.412 L22.812,22.412 L22.812,30.44 Z" fill="#FFFFFF"></path>
<g transform="translate(20.000000, 19.320000)">
<mask id="mask-4-14C0D34A-08C9-488A-8FA5-F1845394A1F3" fill="white">
<use xlink:href="#path-3-B8E63FFC-E830-4E4D-A925-D1EF7039B101"></use>
</mask>
<g></g>
<polygon fill="#FFFFFF" mask="url(#mask-4-14C0D34A-08C9-488A-8FA5-F1845394A1F3)" points="-2.922 31.762 33.775 31.762 33.775 -4.935 -2.922 -4.935"></polygon>
<polygon fill="#FFFFFF" mask="url(#mask-4-14C0D34A-08C9-488A-8FA5-F1845394A1F3)" points="-7.127 21.059 20.778 21.059 20.778 -6.846 -7.127 -6.846"></polygon>
</g>
<path d="M20.518,47.642 L33.133,47.642 L33.133,35.028 L20.518,35.028 L20.518,47.642 Z M22.812,45.348 L30.84,45.348 L30.84,37.321 L22.812,37.321 L22.812,45.348 Z" fill="#FFFFFF"></path>
<g transform="translate(20.000000, 34.320000)">
<mask id="mask-6-7B1DD93D-36F5-4988-A0C5-6E2B33FC252E" fill="white">
<use xlink:href="#path-5-FAE26090-1D79-4608-9D25-EDDA9D62F5B9"></use>
</mask>
<g></g>
<polygon fill="#FFFFFF" mask="url(#mask-6-7B1DD93D-36F5-4988-A0C5-6E2B33FC252E)" points="-2.922 16.762 33.775 16.762 33.775 -19.935 -2.922 -19.935"></polygon>
<polygon fill="#FFFFFF" mask="url(#mask-6-7B1DD93D-36F5-4988-A0C5-6E2B33FC252E)" points="-7.127 20.967 20.778 20.967 20.778 -6.938 -7.127 -6.938"></polygon>
</g>
<path d="M35.427,47.642 L48.042,47.642 L48.042,35.028 L35.427,35.028 L35.427,47.642 Z M37.72,45.348 L45.747,45.348 L45.747,37.321 L37.72,37.321 L37.72,45.348 Z" fill="#FFFFFF"></path>
<g transform="translate(35.000000, 34.320000)">
<mask id="mask-8-E3B8111A-DF9A-4E7D-A402-E85C3BCAABFE" fill="white">
<use xlink:href="#path-7-A1A61C8A-EA56-40FA-B6AB-EDC86045D6BF"></use>
</mask>
<g></g>
<polygon fill="#FFFFFF" mask="url(#mask-8-E3B8111A-DF9A-4E7D-A402-E85C3BCAABFE)" points="-17.922 16.762 18.775 16.762 18.775 -19.935 -17.922 -19.935"></polygon>
<polygon fill="#FFFFFF" mask="url(#mask-8-E3B8111A-DF9A-4E7D-A402-E85C3BCAABFE)" points="-7.218 20.967 20.687 20.967 20.687 -6.938 -7.218 -6.938"></polygon>
</g>
<rect x="0" y="0" width="72" height="64"></rect>
</g>
</g>
</g>
</svg>