<svg width="20px" height="20px" viewBox="0 0 41 41" xmlns="http://www.w3.org/2000/svg" xmlns:xlink="http://www.w3.org/1999/xlink">
    <g stroke="none" stroke-width="1" fill="none" fill-rule="evenodd">
        <g transform="translate(1.000000, 1.000000)">
            <g stroke="#00C1DE" stroke-width="1.6">
                <rect fill="#FFFFFF" fill-rule="nonzero" x="0.6" y="0.6" width="38.4" height="38.4" rx="8"></rect>
                <rect x="0.6" y="0.6" width="38.4" height="38.4" rx="8"></rect>
            </g>
            <g transform="translate(6.500000, 7.500000)" fill="#00C1DE" fill-rule="nonzero">
                <path d="M14.74,0.3 L14.74,0.3 C14.24,0.3 13.7,0.34 13.09,0.44 C12.49,0.55 11.9,0.67 11.3,0.84 C10.72,1.01 10.13,1.21 9.57,1.44 C9.01,1.67 8.53,1.92 8.11,2.17 L9.26,4 C9.95,3.59 10.82,3.21 11.86,2.92 C12.9,2.63 13.84,2.46 14.65,2.46 C16.51,2.46 18.24,2.92 19.82,3.84 C21.41,4.75 22.66,6 23.57,7.58 C24.49,9.17 24.95,10.89 24.95,12.75 C24.95,14.6 24.49,16.33 23.57,17.91 C22.66,19.49 21.41,20.74 19.82,21.66 C18.24,22.57 16.51,23.03 14.65,23.03 C13.26,23.03 11.92,22.76 10.65,22.22 C9.38,21.68 8.28,20.95 7.36,20.03 C6.44,19.12 5.72,18.02 5.17,16.75 C4.63,15.48 4.36,14.14 4.36,12.75 C4.36,12.21 4.42,11.58 4.57,10.85 C4.71,10.12 4.86,9.52 5.07,9.02 L8.15,10.17 L6.11,3.73 L0.36,7.29 L3.09,8.31 C2.94,8.71 2.8,9.17 2.67,9.71 C2.55,10.25 2.44,10.79 2.36,11.35 C2.28,11.89 2.26,12.39 2.26,12.81 C2.26,14.5 2.59,16.12 3.26,17.66 C3.92,19.2 4.8,20.53 5.92,21.64 C7.05,22.76 8.36,23.64 9.9,24.3 C11.45,24.97 13.07,25.3 14.76,25.3 C16.11,25.3 17.43,25.09 18.7,24.68 C19.97,24.26 21.11,23.66 22.13,22.89 C23.16,22.12 24.05,21.22 24.82,20.2 C25.59,19.18 26.2,18.04 26.61,16.77 C27.03,15.5 27.24,14.18 27.24,12.83 C27.24,11.48 27.03,10.17 26.61,8.9 C26.2,7.63 25.59,6.48 24.82,5.46 C24.05,4.44 23.16,3.55 22.13,2.78 C21.11,2 19.97,1.4 18.7,0.98 C17.43,0.51 16.11,0.3 14.74,0.3 L14.74,0.3 Z M18.61,7.48 C18.38,7.38 18.11,7.29 17.8,7.19 C17.49,7.11 17.18,7.02 16.86,6.96 C16.55,6.9 16.22,6.84 15.9,6.81 C15.59,6.79 15.3,6.75 15.05,6.75 C15.03,6.75 14.99,6.75 14.95,6.75 C14.9,6.75 14.88,6.75 14.84,6.75 C13.42,6.75 12.22,6.98 11.22,7.42 C10.22,7.86 9.7,8.35 9.7,8.88 C9.7,9.13 9.82,9.38 10.09,9.62 C10.36,9.87 10.72,10.1 11.15,10.31 C11.59,10.52 12.15,10.69 12.8,10.81 C13.45,10.94 14.13,11 14.84,11 L15.03,11 C15.55,11 16.15,10.94 16.86,10.79 C17.57,10.65 18.15,10.48 18.63,10.27 C19.55,9.83 20.01,9.38 20.01,8.88 C20.01,8.63 19.88,8.4 19.63,8.15 C19.36,7.88 19.03,7.67 18.61,7.48 L18.61,7.48 Z M20.03,16.52 L20.03,14.29 C19.88,14.41 19.72,14.54 19.51,14.68 C19.3,14.83 19.11,14.93 18.95,15 C18.74,15.08 18.51,15.18 18.24,15.27 C17.97,15.35 17.7,15.43 17.4,15.5 C17.11,15.56 16.84,15.62 16.55,15.68 C16.26,15.73 15.99,15.77 15.7,15.81 C15.43,15.83 15.18,15.85 14.95,15.85 C14.9,15.85 14.88,15.85 14.84,15.85 C14.78,15.85 14.7,15.85 14.61,15.85 C14.53,15.85 14.45,15.85 14.38,15.85 C13.93,15.85 13.4,15.79 12.82,15.66 C12.24,15.54 11.67,15.35 11.13,15.14 C10.59,14.91 10.11,14.68 9.74,14.41 L9.74,16.66 C9.8,17.18 10.32,17.64 11.32,18.08 C12.32,18.52 13.51,18.72 14.9,18.72 C16.28,18.72 17.49,18.52 18.47,18.08 C19.47,17.64 19.99,17.18 20.05,16.64 L20.03,16.52 L20.03,16.52 Z M20.03,12.64 L20.03,10.37 C19.97,10.44 19.88,10.5 19.78,10.56 C19.7,10.62 19.59,10.69 19.49,10.75 C19.38,10.81 19.3,10.87 19.2,10.94 C19.09,11 19.01,11.04 18.93,11.08 C18.41,11.31 17.74,11.52 16.97,11.69 C16.2,11.85 15.51,11.94 14.93,11.94 C14.9,11.94 14.9,11.94 14.88,11.94 C14.86,11.94 14.84,11.94 14.84,11.94 C14.78,11.94 14.7,11.94 14.61,11.94 C14.53,11.94 14.45,11.94 14.38,11.94 C13.67,11.94 12.86,11.79 11.97,11.5 C11.05,11.21 10.32,10.87 9.74,10.48 L9.74,12.73 C9.8,13.25 10.32,13.71 11.32,14.14 C12.32,14.58 13.51,14.79 14.9,14.79 C16.28,14.79 17.49,14.58 18.47,14.14 C19.45,13.71 19.99,13.25 20.05,12.71 L20.05,12.6 L20.03,12.64 L20.03,12.64 Z" id="Shape"></path>
            </g>
        </g>
    </g>
</svg>