<svg width="20px" height="20px" viewBox="0 0 41 41" xmlns="http://www.w3.org/2000/svg" xmlns:xlink="http://www.w3.org/1999/xlink">
    <g stroke="none" stroke-width="1" fill="none" fill-rule="evenodd">
        <g transform="translate(1.000000, 1.000000)">
            <g stroke="#00C1DE" stroke-width="1.6">
                <rect fill="#FFFFFF" fill-rule="nonzero" x="0.6" y="0.6" width="38.4" height="38.4" rx="8"></rect>
                <rect x="0.6" y="0.6" width="38.4" height="38.4" rx="8"></rect>
            </g>
            <g transform="translate(6.500000, 6.500000)" fill="#00C1DE" fill-rule="nonzero">
                <path d="M22.71,7.17 C22.48,5.92 21.99,4.77 21.22,3.74 C20.46,2.72 19.5,1.93 18.34,1.34 C17.19,0.76 15.95,0.47 14.63,0.47 L14.63,0.47 C13.2,0.47 11.75,0.92 10.31,1.84 C8.86,2.76 7.83,3.87 7.22,5.16 C7.18,5.16 7.16,5.16 7.1,5.16 C7.05,5.16 7.01,5.16 6.97,5.16 C5.14,5.16 3.59,5.81 2.29,7.09 C1.01,8.36 0.36,9.9 0.36,11.72 C0.36,13.54 1.01,15.08 2.29,16.38 C3.57,17.67 5.14,18.3 6.97,18.3 C7.03,18.3 7.1,18.3 7.18,18.3 L7.18,18.3 L7.94,18.3 L8.9,14.85 L6.57,12.72 L16.39,5.96 L10.1,27.13 L20.21,20.58 L17.69,18.32 L21.55,18.34 L21.78,18.34 L21.78,18.34 C23.3,18.28 24.58,17.72 25.65,16.61 C26.72,15.5 27.24,14.21 27.24,12.7 C27.24,11.87 27.03,11.07 26.63,10.28 C26.23,9.49 25.69,8.82 24.99,8.28 C24.28,7.69 23.53,7.34 22.71,7.17 L22.71,7.17 Z"></path>
            </g>
        </g>
    </g>
</svg>