<svg width="20px" height="20px" viewBox="0 0 41 41" xmlns="http://www.w3.org/2000/svg" xmlns:xlink="http://www.w3.org/1999/xlink">
    <g stroke="none" stroke-width="1" fill="none" fill-rule="evenodd">
        <g transform="translate(1.000000, 1.000000)">
            <g stroke="#00C1DE" stroke-width="1.6">
                <rect fill="#FFFFFF" fill-rule="nonzero" x="0.6" y="0.6" width="38.4" height="38.4" rx="8"></rect>
                <rect x="0.6" y="0.6" width="38.4" height="38.4" rx="8"></rect>
            </g>
            <g transform="translate(6.500000, 6.500000)" fill="#00C1DE" fill-rule="nonzero">
                <path d="M13.92,20.9 C12.03,20.9 10.41,20.21 9.06,18.86 C7.71,17.51 7.02,15.88 7.02,13.99 L7.02,13.78 C7.02,11.94 7.66,10.37 8.97,9.08 C10.26,7.8 11.82,7.16 13.64,7.16 L22.04,7.16 C22.81,7.16 23.34,6.81 23.62,6.1 C23.9,5.4 23.77,4.78 23.23,4.24 C22.01,2.98 20.58,2.01 18.95,1.35 C17.32,0.68 15.59,0.36 13.77,0.4 C11.54,0.42 9.42,1.02 7.43,2.18 C5.44,3.34 3.81,4.9 2.59,6.85 C1.35,8.81 0.68,10.91 0.55,13.14 C0.47,15.02 0.77,16.82 1.43,18.58 C2.1,20.32 3.04,21.82 4.24,23.08 C5.44,24.35 6.89,25.35 8.58,26.1 C10.28,26.85 12.05,27.24 13.92,27.24 C17.3,27.24 20.28,26.13 22.81,23.9 C23.19,23.55 23.41,23.15 23.43,22.65 C23.45,22.16 23.3,21.73 22.96,21.39 C22.63,21.02 22.21,20.85 21.67,20.85 L13.92,20.9 Z M23.73,17.25 L13.92,17.25 C13.32,17.25 12.74,17.1 12.23,16.8 C11.71,16.5 11.28,16.09 10.98,15.56 C10.68,15.02 10.51,14.46 10.51,13.82 L10.51,13.76 C10.51,12.81 10.83,12.02 11.5,11.36 C12.16,10.69 12.98,10.35 13.92,10.35 L23.73,10.35 C24.18,10.35 24.63,10.43 25.03,10.61 C25.46,10.78 25.83,11.01 26.13,11.33 C26.43,11.64 26.68,12 26.85,12.43 C27.05,12.86 27.13,13.31 27.13,13.78 L27.13,13.84 C27.09,14.79 26.75,15.58 26.08,16.24 C25.44,16.91 24.65,17.25 23.73,17.25 L23.73,17.25 Z" id="Shape"></path>
            </g>
        </g>
    </g>
</svg>