<svg width="20px" height="20px" viewBox="0 0 41 41" xmlns="http://www.w3.org/2000/svg" xmlns:xlink="http://www.w3.org/1999/xlink">
    <g stroke="none" stroke-width="1" fill="none" fill-rule="evenodd">
        <g transform="translate(1.000000, 1.000000)">
            <g stroke="#00C1DE" stroke-width="1.6">
                <rect fill="#FFFFFF" fill-rule="nonzero" x="0.6" y="0.6" width="38.4" height="38.4" rx="8"></rect>
                <rect x="0.6" y="0.6" width="38.4" height="38.4" rx="8"></rect>
            </g>
            <g transform="translate(8.500000, 6.500000)" fill="#00C1DE" fill-rule="nonzero">
                <path d="M4.35,14.4 C4.25,14.4 4.13,14.38 4.05,14.32 C3.95,14.26 3.88,14.2 3.82,14.1 C3.76,14 3.74,13.9 3.74,13.8 C3.74,13.7 3.76,13.58 3.82,13.5 C3.88,13.4 3.95,13.34 4.05,13.28 C4.15,13.22 4.25,13.2 4.35,13.2 C4.45,13.2 4.57,13.22 4.65,13.28 C4.75,13.34 4.81,13.4 4.87,13.5 C4.93,13.6 4.95,13.7 4.95,13.8 C4.95,13.98 4.89,14.12 4.79,14.24 C4.69,14.36 4.53,14.4 4.35,14.4 L4.35,14.4 Z M1.59,19.7 L1.59,8.68 L7.57,12.19 L7.57,18.84 C7.57,19.24 7.43,19.58 7.17,19.84 C6.91,20.11 6.56,20.25 6.16,20.25 C5.9,20.25 5.66,20.19 5.44,20.07 C5.21,19.95 5.05,19.78 4.93,19.56 C4.81,19.34 4.75,19.1 4.75,18.84 L4.75,15.35 C5.09,15.25 5.36,15.07 5.58,14.79 C5.8,14.51 5.9,14.2 5.9,13.88 C5.9,13.44 5.74,13.07 5.42,12.75 C5.09,12.43 4.71,12.27 4.29,12.27 C3.86,12.27 3.5,12.43 3.22,12.73 C2.94,13.05 2.8,13.42 2.8,13.88 C2.8,14.24 2.9,14.55 3.12,14.81 C3.32,15.07 3.6,15.25 3.95,15.35 L3.95,18.84 C3.95,19.48 4.19,20.03 4.65,20.49 C5.11,20.95 5.66,21.2 6.3,21.2 C6.95,21.2 7.49,20.95 7.95,20.49 C8.42,20.03 8.66,19.48 8.66,18.84 L8.66,8.76 C8.66,8.36 8.8,8.02 9.06,7.76 C9.32,7.49 9.67,7.35 10.07,7.35 C10.47,7.35 10.81,7.49 11.07,7.76 C11.34,8.02 11.48,8.36 11.48,8.76 L11.48,18.84 C11.48,19.48 11.72,20.03 12.18,20.49 C12.65,20.95 13.19,21.2 13.83,21.2 C14.48,21.2 15.02,20.95 15.49,20.49 C15.95,20.03 16.19,19.48 16.19,18.84 L16.19,17.02 L21.49,20.11 L11.94,25.61 L1.59,19.7 L1.59,19.7 Z M19.25,13.2 C19.33,13.2 19.41,13.22 19.49,13.24 C19.57,13.28 19.63,13.32 19.7,13.36 C19.76,13.42 19.8,13.48 19.82,13.56 C19.86,13.64 19.86,13.72 19.86,13.8 C19.86,13.96 19.8,14.1 19.67,14.22 C19.55,14.34 19.41,14.4 19.25,14.4 C19.17,14.4 19.09,14.38 19.01,14.36 C18.93,14.32 18.87,14.28 18.81,14.24 C18.75,14.18 18.71,14.12 18.69,14.04 C18.65,13.96 18.65,13.88 18.65,13.8 C18.65,13.7 18.67,13.58 18.73,13.5 C18.79,13.4 18.85,13.34 18.95,13.28 C19.05,13.22 19.15,13.2 19.25,13.2 L19.25,13.2 Z M22.07,7.82 L22.07,18.84 L16.09,15.35 L16.09,8.7 C16.09,8.3 16.23,7.96 16.49,7.69 C16.75,7.43 17.1,7.29 17.5,7.29 C17.7,7.29 17.88,7.33 18.06,7.39 C18.24,7.47 18.39,7.55 18.51,7.69 C18.63,7.82 18.73,7.98 18.81,8.14 C18.89,8.3 18.91,8.5 18.91,8.7 L18.91,12.19 C18.69,12.25 18.49,12.37 18.33,12.51 C18.16,12.65 18.02,12.83 17.92,13.03 C17.82,13.24 17.78,13.44 17.78,13.66 C17.78,13.88 17.82,14.08 17.9,14.28 C17.98,14.49 18.1,14.65 18.24,14.81 C18.39,14.95 18.57,15.07 18.77,15.15 C18.97,15.23 19.17,15.27 19.39,15.27 C19.84,15.27 20.2,15.11 20.52,14.79 C20.84,14.46 21,14.08 21,13.66 C21,13.42 20.96,13.2 20.86,12.99 C20.76,12.79 20.64,12.63 20.46,12.49 C20.3,12.35 20.1,12.25 19.88,12.19 L19.88,8.7 C19.88,8.28 19.78,7.9 19.55,7.53 C19.33,7.17 19.05,6.89 18.69,6.67 C18.33,6.45 17.94,6.34 17.52,6.34 C17.1,6.34 16.71,6.45 16.35,6.67 C15.99,6.89 15.71,7.17 15.49,7.53 C15.26,7.9 15.16,8.28 15.16,8.7 L15.16,18.78 C15.16,19.04 15.1,19.28 14.98,19.5 C14.86,19.72 14.7,19.89 14.48,20.01 C14.26,20.13 14.02,20.19 13.75,20.19 C13.59,20.19 13.45,20.17 13.29,20.13 C13.15,20.09 13.01,20.01 12.91,19.93 C12.79,19.84 12.69,19.74 12.61,19.62 C12.53,19.5 12.46,19.38 12.4,19.24 C12.36,19.1 12.34,18.94 12.34,18.78 L12.34,8.7 C12.34,8.38 12.28,8.08 12.16,7.8 C12.04,7.51 11.86,7.25 11.66,7.05 C11.46,6.85 11.2,6.67 10.91,6.55 C10.63,6.43 10.33,6.36 10.01,6.36 C9.36,6.36 8.82,6.61 8.36,7.07 C7.89,7.53 7.65,8.08 7.65,8.72 L7.65,10.54 L2.27,7.45 L11.8,1.91 L22.07,7.82 L22.07,7.82 Z M11.8,0.36 L0.18,7.07 L0.18,20.51 L11.8,27.24 L23.42,20.53 L23.42,7.09 L11.8,0.36 Z" id="Shape"></path>
            </g>
        </g>
    </g>
</svg>