<svg width="20px" height="20px" viewBox="0 0 41 41" xmlns="http://www.w3.org/2000/svg" xmlns:xlink="http://www.w3.org/1999/xlink">
    <g stroke="none" stroke-width="1" fill="none" fill-rule="evenodd">
        <g transform="translate(1.000000, 1.000000)">
            <g stroke="#00C1DE" stroke-width="1.6">
                <rect fill="#FFFFFF" fill-rule="nonzero" x="0.6" y="0.6" width="38.4" height="38.4" rx="8"></rect>
                <rect x="0.6" y="0.6" width="38.4" height="38.4" rx="8"></rect>
            </g>
            <g transform="translate(6.500000, 7.500000)" fill="#00C1DE" fill-rule="nonzero">
                <path d="M10.37,19.66 L10.43,19.66 L13.35,24.74 L7.85,24.74 C7.73,24.74 7.59,24.72 7.45,24.68 C7.31,24.64 7.19,24.58 7.08,24.51 C6.96,24.43 6.84,24.35 6.74,24.25 C6.64,24.15 6.56,24.05 6.48,23.95 L0.54,13.6 C0.48,13.5 0.42,13.36 0.4,13.22 C0.36,13.08 0.36,12.94 0.36,12.8 C0.36,12.66 0.38,12.52 0.4,12.38 C0.44,12.24 0.48,12.12 0.54,12 L6.48,1.67 C6.6,1.45 6.8,1.27 7.08,1.11 C7.33,0.94 7.59,0.86 7.85,0.86 L13.27,0.86 L10.37,5.9 C10.11,5.9 9.89,5.98 9.73,6.16 C9.55,6.34 9.47,6.56 9.47,6.8 C9.47,6.88 9.49,6.96 9.51,7.04 C9.53,7.12 9.57,7.2 9.61,7.26 L6.98,11.86 C6.72,11.86 6.52,11.94 6.34,12.12 C6.16,12.3 6.08,12.52 6.08,12.76 C6.08,13.02 6.16,13.22 6.34,13.4 C6.52,13.58 6.74,13.66 6.98,13.66 L7.06,13.66 L9.65,18.18 C9.55,18.34 9.51,18.52 9.49,18.7 C9.49,18.8 9.51,18.9 9.53,18.98 C9.57,19.08 9.61,19.16 9.67,19.24 C9.73,19.32 9.79,19.38 9.87,19.44 C9.95,19.5 10.03,19.54 10.13,19.58 C10.17,19.64 10.27,19.66 10.37,19.66 L10.37,19.66 Z M17.09,17.86 L17.09,17.86 L14.49,13.38 C14.57,13.28 14.63,13.16 14.67,13.02 L19.79,13.02 L19.83,13.14 L19.37,13.94 L17.15,17.86 C17.13,17.88 17.11,17.88 17.09,17.86 L17.09,17.86 L17.09,17.86 Z M27.04,12 C27.16,12.22 27.24,12.48 27.24,12.8 C27.24,13.12 27.18,13.38 27.04,13.6 L21.1,23.93 C21.02,24.07 20.9,24.21 20.74,24.33 C20.58,24.45 20.43,24.55 20.25,24.62 C20.07,24.68 19.89,24.72 19.73,24.72 L14.39,24.72 L11.33,19.38 L16.55,19.38 C16.73,19.58 16.95,19.68 17.23,19.68 C17.39,19.68 17.55,19.64 17.69,19.56 C17.83,19.48 17.95,19.36 18.03,19.22 C18.11,19.08 18.15,18.92 18.15,18.76 C18.15,18.64 18.13,18.5 18.07,18.38 L20.74,13.7 C20.98,13.68 21.18,13.58 21.34,13.4 C21.5,13.22 21.58,13.02 21.58,12.78 L21.58,12.78 C21.58,12.54 21.5,12.34 21.34,12.16 C21.18,11.98 20.98,11.88 20.76,11.86 L18.07,7.18 C18.11,7.08 18.13,6.96 18.13,6.84 C18.13,6.58 18.05,6.38 17.87,6.2 C17.69,6.02 17.47,5.94 17.23,5.94 L17.23,5.94 C16.77,5.94 16.47,6.16 16.35,6.6 L11.25,6.6 C11.23,6.52 11.19,6.44 11.15,6.38 L14.33,0.88 L19.75,0.88 C20.01,0.88 20.27,0.96 20.52,1.13 C20.78,1.29 20.98,1.47 21.12,1.69 L27.04,12 Z M10.33,17.83 L7.71,13.28 L7.75,13.18 C7.75,13.16 7.77,13.16 7.77,13.14 C7.77,13.12 7.79,13.1 7.79,13.1 L7.79,13.08 C7.79,13.06 7.81,13.02 7.81,13 L7.81,12.98 C7.81,12.98 7.81,12.94 7.83,12.88 L7.83,12.86 C7.83,12.82 7.83,12.8 7.83,12.76 C7.83,12.66 7.81,12.56 7.79,12.46 C7.77,12.4 7.75,12.36 7.71,12.3 L7.71,12.28 L10.35,7.68 C10.39,7.68 10.43,7.68 10.47,7.68 C10.51,7.68 10.55,7.66 10.57,7.66 C10.61,7.66 10.63,7.64 10.67,7.62 L13.21,12.02 L13.21,12.02 L13.21,12.02 C12.99,12.2 12.87,12.44 12.87,12.74 C12.87,12.96 12.95,13.16 13.09,13.32 L13.09,13.34 L10.53,17.79 C10.43,17.83 10.37,17.83 10.33,17.83 L10.33,17.83 L10.33,17.83 Z M11.11,18.24 C11.07,18.16 11.01,18.1 10.95,18.04 L10.93,18.02 L13.45,13.64 L13.45,13.64 C13.47,13.66 13.49,13.66 13.53,13.66 C13.55,13.66 13.59,13.68 13.61,13.68 C13.63,13.68 13.67,13.68 13.69,13.7 C13.71,13.7 13.75,13.7 13.77,13.7 C13.81,13.7 13.85,13.7 13.87,13.7 C13.95,13.68 14.03,13.68 14.11,13.64 C14.11,13.64 14.13,13.64 14.15,13.62 C14.17,13.62 14.17,13.6 14.19,13.6 L16.73,17.98 C16.55,18.12 16.41,18.28 16.35,18.44 L11.21,18.44 C11.19,18.38 11.15,18.3 11.11,18.24 L11.11,18.24 Z M19.41,11.32 L19.95,12.28 C19.93,12.32 19.89,12.36 19.87,12.42 C19.85,12.48 19.83,12.54 19.81,12.58 L14.69,12.56 L14.69,12.56 C14.63,12.36 14.53,12.2 14.37,12.06 L14.37,12.06 C14.37,12.06 14.37,12.06 14.35,12.04 C14.35,12.04 14.33,12.04 14.33,12.02 C14.17,11.92 14.01,11.86 13.83,11.86 C13.77,11.86 13.71,11.86 13.65,11.88 L11.07,7.4 C11.07,7.4 11.07,7.4 11.07,7.4 C11.07,7.4 11.07,7.4 11.07,7.4 C11.07,7.4 11.07,7.38 11.09,7.38 C11.11,7.36 11.11,7.34 11.13,7.34 C11.19,7.24 11.23,7.16 11.25,7.06 L11.25,7.06 L11.25,7.04 L16.33,7.04 C16.37,7.24 16.49,7.4 16.67,7.54 C16.85,7.68 17.03,7.77 17.23,7.77 C17.29,7.77 17.33,7.77 17.35,7.77 L19.41,11.32 Z" id="Shape"></path>
            </g>
        </g>
    </g>
</svg>