<svg width="20px" height="20px" viewBox="0 0 41 41" xmlns="http://www.w3.org/2000/svg" xmlns:xlink="http://www.w3.org/1999/xlink">
    <g stroke="none" stroke-width="1" fill="none" fill-rule="evenodd">
        <g transform="translate(1.000000, 1.000000)">
            <g stroke="#00C1DE" stroke-width="1.6">
                <rect fill="#FFFFFF" fill-rule="nonzero" x="0.6" y="0.6" width="38.4" height="38.4" rx="8"></rect>
                <rect x="0.6" y="0.6" width="38.4" height="38.4" rx="8"></rect>
            </g>
            <g transform="translate(6.500000, 9.500000)" fill="#00C1DE" fill-rule="nonzero">
                <path d="M13.84,0.11 C15.22,0.11 16.42,0.58 17.4,1.49 C18.37,2.4 18.86,3.51 18.86,4.81 C18.86,5.58 18.68,6.31 18.29,6.98 L22.36,9.94 C22.58,9.8 22.87,9.68 23.21,9.57 C23.56,9.47 23.86,9.41 24.13,9.41 L24.13,9.41 C24.98,9.41 25.72,9.7 26.33,10.26 C26.94,10.83 27.24,11.52 27.24,12.31 C27.24,13.12 26.94,13.79 26.33,14.36 C25.72,14.92 24.98,15.21 24.13,15.21 C23.28,15.21 22.54,14.92 21.93,14.36 C21.32,13.79 21.02,13.1 21.02,12.31 C21.02,11.97 21.08,11.62 21.22,11.28 L17.15,8.32 C16.87,8.56 16.48,8.78 16,9.01 C15.51,9.23 15.1,9.37 14.71,9.43 L14.71,13.95 C15.08,14.03 15.41,14.15 15.73,14.32 C16.06,14.48 16.34,14.68 16.61,14.9 C16.87,15.15 17.09,15.39 17.28,15.69 C17.46,15.98 17.62,16.3 17.72,16.63 C17.83,16.95 17.89,17.32 17.89,17.68 C17.89,18.73 17.48,19.63 16.69,20.38 C15.89,21.13 14.94,21.49 13.8,21.49 C13.07,21.49 12.38,21.33 11.75,20.98 C11.12,20.64 10.63,20.17 10.26,19.59 C9.9,19 9.71,18.37 9.71,17.68 C9.71,16.79 10.02,15.98 10.61,15.29 C11.2,14.6 11.95,14.15 12.86,13.95 L12.86,9.43 C12.62,9.39 12.34,9.31 12.03,9.19 C11.73,9.07 11.42,8.95 11.14,8.78 C10.85,8.62 10.61,8.46 10.42,8.32 L6.36,11.28 C6.5,11.6 6.56,11.95 6.56,12.31 C6.56,12.69 6.48,13.08 6.32,13.44 C6.15,13.81 5.93,14.11 5.67,14.38 C5.38,14.64 5.06,14.84 4.67,15.01 C4.28,15.17 3.88,15.23 3.47,15.23 C2.62,15.23 1.88,14.94 1.27,14.38 C0.66,13.81 0.36,13.12 0.36,12.33 C0.36,11.52 0.66,10.85 1.27,10.28 C1.88,9.72 2.62,9.43 3.47,9.43 C3.8,9.43 4.1,9.47 4.41,9.57 C4.71,9.68 5,9.8 5.24,9.96 L9.31,7 C9.14,6.72 9.02,6.37 8.9,5.95 C8.78,5.52 8.74,5.16 8.74,4.83 C8.74,3.53 9.23,2.42 10.2,1.51 C11.26,0.58 12.46,0.11 13.84,0.11 L13.84,0.11 Z"></path>
            </g>
        </g>
    </g>
</svg>