<svg xmlns="http://www.w3.org/2000/svg" xmlns:xlink="http://www.w3.org/1999/xlink" x="0" y="0" width="20px" height="20px" viewBox="0 0 161.9 162" xml:space="preserve">
<path fill="#312D2A" d="M147.1,71.7c-0.9-1.8-3-2.9-5-2.6l-24.3,3.5l-8.7-20.8c-0.7-1.8-2.6-3-4.6-3c-2.1,0.1-4,1.5-4.7,3.4L91,77.6 l-25.3,6.1c-2,0.5-3.5,2.1-3.8,4.2c-0.3,1.9,0.6,3.8,2.2,4.9c0,0,9.9,6,14.1,8.6c1.3,0.8,3.1,2.3,4.4,3.2c0.5,0.3,0.5,0.7,0.3,1.3 c-0.2,0.4-1.5,5.4-2.9,10.6H23.6V76.1h8.7l-1.1,4.2c-0.4,1.6,0.2,3.3,1.7,4.2c0.6,0.4,1.4,0.6,2,0.6c0.9,0,1.8-0.3,2.5-1l13.8-11.7 l13.5,6.2c1.4,0.6,3,0.4,4.1-0.6c1.2-1,1.7-2.6,1.3-4.1l-4.4-15L78.8,46c1.2-1.2,1.5-3,0.8-4.5c-0.7-1.4-2.3-2.3-3.9-2.1l-15.8,2.3 l-5.7-13.5c-0.6-1.4-2-2.4-3.6-2.3c-1.7,0.1-3.1,1.1-3.7,2.7L41,45.4l-16.6,4.1c-1.6,0.4-2.8,1.7-3,3.3c-0.2,1.5,0.5,3,1.8,3.8 l10.8,7c1.2,0.8,1.1,1.3,0.7,3.6h-20v58.5h63.1c-0.6,2.3-1,3.8-1,3.8c-0.5,2.1,0.3,4.2,2.1,5.3c0.8,0.5,1.7,0.7,2.5,0.7 c1.2,0,2.3-0.4,3.3-1.2l20.9-17.7l20.7,9.5c1.8,0.8,3.8,0.5,5.3-0.8c1.5-1.3,2.1-3.3,1.6-5.2l-6.7-22.8L146,77.5 C147.7,75.9,148.1,73.5,147.1,71.7z M32.6,54.4l11.5-2.9c1.3-0.3,2.4-1.3,2.9-2.5l3.9-11.2l3.7,8.8c0.6,1.6,2.3,2.5,4.1,2.3l9.5-1.4 l-8,8c-1,1-1.4,2.5-1,3.9L62.1,70l-9.6-4.5c-1.4-0.6-2.9-0.4-4.1,0.6l-8.2,7l2.4-9.6c0.4-1.7-0.2-3.3-1.7-4.2L32.6,54.4z M119.3,92.5c-1.3,1.3-1.8,3.3-1.3,5l5.2,17.7l-16.1-7.4c-1.7-0.8-3.8-0.5-5.2,0.7l-14.3,12.1l4.2-16.8c0.5-2.1-0.4-4.2-2.1-5.3 L75.4,90l19.1-4.7c1.7-0.4,3-1.7,3.6-3.3l6.6-18.8l6.3,15.1c0.8,2,3,3.2,5.1,2.9l16.6-2.4L119.3,92.5z"></path>
</svg>