<svg xmlns="http://www.w3.org/2000/svg" xmlns:xlink="http://www.w3.org/1999/xlink" x="0" y="0" width="20px" height="20px" viewBox="0 0 161.9 162" xml:space="preserve">
<path fill="#312D2A" d="M109,79.3H97V67.4H109V79.3z M124.7,67.4h-11.9v11.9h11.9V67.4z M109,82.7H97v11.9H109V82.7z M124.7,82.7 h-11.9v11.9h11.9V82.7z M56.5,68.7c-3.9-0.3-7.4,2.6-7.7,6.6c-0.3,3.9,2.6,7.4,6.6,7.7c3.9,0.3,7.4-2.6,7.7-6.6 C63.3,72.5,60.4,69,56.5,68.7z M42.1,66.6c-2.3,0-4.2,1.9-4.2,4.2c0,2.3,1.9,4.2,4.2,4.2c2.3,0,4.2-1.9,4.2-4.2 C46.3,68.5,44.4,66.6,42.1,66.6z M41.1,78.5c-2.9,0.5-4.9,3.3-4.4,6.3c0.5,2.9,3.3,4.9,6.3,4.4c2.9-0.5,4.9-3.3,4.4-6.3 C46.9,80,44.1,78,41.1,78.5z M54.3,86.3c-2.7,0-4.9,2.2-4.9,4.9s2.2,4.9,4.9,4.9c2.7,0,4.9-2.2,4.9-4.9S57.1,86.3,54.3,86.3z M92,81.5l-9.2-13.1l-16.3,0l8.9,13.1l0,0l-8.9,13.1l16.3,0L92,81.5 M66.2,139.8c9.7,2.5,20,2.6,29.7,0.2l6.8,11.2l28.8-16.6 l-6.7-11.1c7.1-7.3,12.2-16,15-25.8h13V64.4h-13c-2.8-9.7-7.9-18.5-15-25.8l6.5-10.9l-28.8-16.6l-6.5,11c-9.7-2.4-19.9-2.3-29.6,0.2 l-6.6-11L30.7,27.9l6.8,11.3C30.7,46.3,25.7,54.9,23,64.4H8.9v33.3H23c2.7,9.4,7.6,18.1,14.5,25.2L30,135.3l28.8,16.6L66.2,139.8z M48.9,121.4l-2.7-2.5c-7.8-7.2-13.1-16.4-15.3-26.7l-0.8-3.5H17.9V73.4h12.2l0.8-3.5c2.3-10.2,7.6-19.5,15.3-26.7l2.7-2.5l-5.8-9.6 l13.2-7.6l5.7,9.5l3.4-1.1c10.1-3.3,21.1-3.3,31.1-0.2l3.4,1l5.5-9.4l13.2,7.6l-5.5,9.3l2.7,2.5c8,7.3,13.5,16.7,15.8,27.1l0.8,3.5 h11.2v15.3h-11.2l-0.8,3.5c-2.3,10.5-7.8,19.9-15.8,27.1l-2.8,2.5l5.7,9.5l-13.2,7.6l-5.8-9.5l-3.4,1c-10.1,3.1-21,3.1-31.1-0.2 l-3.4-1.1l-6.4,10.6l-13.2-7.6L48.9,121.4z"></path>
</svg>