<svg xmlns="http://www.w3.org/2000/svg" xmlns:xlink="http://www.w3.org/1999/xlink" x="0" y="0" width="20px" height="20px" viewBox="0 0 161.9 162" xml:space="preserve">
<path fill="#312D2A" d="M99.5,24.7h35v4.2h-35V24.7z M99.5,41.1h21.4v-4.2H99.5V41.1z M120.4,66l-6.7,0l-3.4,5.8l3.3,5.8l6.7,0  l3.4-5.8L120.4,66z M124.8,49.5c-3.4,0-6.2,2.8-6.2,6.2s2.8,6.2,6.2,6.2c3.4,0,6.2-2.8,6.2-6.2S128.3,49.5,124.8,49.5z M107.7,49.7  L101,61.8h13.3L107.7,49.7z M152.4,9.4H82.2v36h7v-29h56.2v69h-44.9v7h51.9V9.4z M62.1,102.6c-1.1,0-2,0.9-2,2c0,1.1,0.9,2,2,2  s2-0.9,2-2C64,103.5,63.1,102.6,62.1,102.6z M62.1,118.7c-1.1,0-2,0.9-2,2c0,1.1,0.9,2,2,2s2-0.9,2-2  C64,119.6,63.1,118.7,62.1,118.7z M32,93.6h41v16.1v5.9v16.1H32v-16.1v-5.9V93.6z M38,109.6h29v-10H38V109.6z M38,125.7h29v-10H38  V125.7z M95.5,49.9v103.3H9.1V49.9H95.5z M86.5,58.9H18.1v85.3h68.4V58.9z M29.6,104.6v-8.1c-1.2-2.3-1-4.8-1-5.2  c1.3-7.4,7.6-8.1,8.3-8.2L39,83l0.6-2c1.4-4.9,4.7-5.7,4.8-5.7l0.3-0.1c5.7-1.7,9,2.5,9.3,3l1.2,1.7l2-0.5c6.5-1.7,8.5,3.3,8.8,4.3  l0.6,1.9l2,0.2c7.8,0.7,7.9,6.4,7.9,7.5l0,0.1c0,1.9-0.4,3.4-1.1,4.5v7.6c1-0.4,1.9-1,2.8-1.7c2.7-2.3,4.1-5.7,4.2-10.2  C82.8,89.4,80.6,81.6,71,80c-1.9-3.6-6.1-7.9-13.4-6.8c-2.7-2.7-7.9-5.7-14.6-3.8c-1.1,0.3-6,1.8-8.6,8.1c-4.3,1-10.3,4.5-11.8,12.9  l0,0.1c0,0.3-0.7,6.3,3.1,11C26.7,102.8,28.1,103.8,29.6,104.6z"></path>
</svg>