<svg xmlns="http://www.w3.org/2000/svg" xmlns:xlink="http://www.w3.org/1999/xlink" x="0" y="0" width="20px" height="20px" viewBox="0 0 161.9 162" xml:space="preserve">
<path fill="#312D2A" d="M80.7,56.9c-18.2,0-33.1,14.8-33.1,33.1S62.5,123,80.7,123s33.1-14.8,33.1-33.1S98.9,56.9,80.7,56.9z M83.7,113.8v-6.3h-6v6.3c-10.8-1.4-19.4-9.9-20.8-20.7l5.4,0l0-6l-5.4,0c1.3-11,10-19.7,21-21.1v5.6h6v-5.6 c10.9,1.4,19.6,10.2,20.8,21.1l-6,0l0,6l5.9,0C103.1,104,94.5,112.5,83.7,113.8z M96.6,76.3L83.5,89.8l6.9,6.4l-4.1,4.4L74.9,90 l17.4-17.8L96.6,76.3z M76.7,54l0-3.3c-32.9,2.5-35,33.8-35,35.2l-8-0.1c0-0.4,2.1-40.4,42.9-43.1l0-3.7l13.7,7.3L76.7,54z M83.3,137.2l0,3.7l-13.7-7.3l13.5-7.6l0,3.3c33.3-2.5,36.9-34.1,37-35.5l8,0.8C128.2,94.8,124,134.5,83.3,137.2z M152.8,152.5H9.1 V26.8h143.8V152.5z M18.1,143.5h125.8V35.8H18.1V143.5z M152.6,9.1H8.9v9h143.8V9.1z"></path>
</svg>