<svg xmlns="http://www.w3.org/2000/svg" xmlns:xlink="http://www.w3.org/1999/xlink" x="0" y="0" width="20px" height="20px" viewBox="0 0 161.9 162" xml:space="preserve">
<path fill="#312D2A" d="M122.2,92.4h-21.4v-5h16.4V54.6H78.5v15.1h-5V49.6h48.7V92.4z M73.9,46.3 M122.3,41.4H73.6v5h48.7V41.4z   M97.4,59.2H85.9v11.4h11.4V59.2z M88.7,61.9h6v6h-6V61.9z M110.7,59.2H99.3v11.4h11.4V59.2z M102,61.9h6v6h-6V61.9z M110.9,72.3  H99.4v11.4h11.4V72.3z M102.2,75h6v6h-6V75z M97.1,84.6H37.7v52.2h59.4V84.6z M43.7,90.6h47.4v40.2H43.7V90.6z M96.6,80.5   M38.2,80.5 M97,73.8H37.9v6H97V73.8z M66.9,96.2H52.9v13.9h13.9V96.2z M56.2,99.5h7.3v7.3h-7.3V99.5z M83.1,96.2H69.2v13.9h13.9  V96.2z M72.5,99.5h7.3v7.3h-7.3V99.5z M67.1,112.3H53.1v13.9h13.9V112.3z M56.4,115.6h7.3v7.3h-7.3V115.6z M83.3,112.3H69.4v13.9  h13.9V112.3z M72.7,115.6H80v7.3h-7.3V115.6z M120,111.3L111.6,96l-8.3,15.2h5.1h0.3v13.9h-7.9v6h13.9v-19.9h0.3H120z M153.1,26.8  H9.4v125.7h143.8V26.8z M18.4,35.8h125.8v107.7H18.4V35.8z M152.6,9.1H8.9v9h143.8V9.1z"></path>
</svg>