<svg xmlns="http://www.w3.org/2000/svg" xmlns:xlink="http://www.w3.org/1999/xlink" x="0" y="0" width="20px" height="20px" viewBox="0 0 161.9 162" xml:space="preserve">
<path fill="#312D2A" d="M152.8,152.7H9.1V27h143.8V152.7z M18.1,143.7h125.8V36H18.1V143.7z M152.9,9.4H9.2v9h143.8V9.4z M98,101.4 l-11.9,0l-5.9-10.3l6-10.3l11.9,0l5.9,10.3L98,101.4z M88.4,97.4l7.3,0l3.6-6.3l-3.6-6.3l-7.3,0l-3.6,6.3L88.4,97.4z M80.7,124.9 c-5.6,0-10.2-4.6-10.2-10.2c0-5.6,4.6-10.2,10.2-10.2c5.6,0,10.2,4.6,10.2,10.2C91,120.3,86.4,124.9,80.7,124.9z M80.7,108.4 c-3.4,0-6.2,2.8-6.2,6.2s2.8,6.2,6.2,6.2s6.2-2.8,6.2-6.2S84.2,108.4,80.7,108.4z M80.9,101.4H57.7l11.6-21.1L80.9,101.4z M64.4,97.4h9.7l-4.9-8.8L64.4,97.4z M118.7,69.4V49.5h-20v-5.1H63.4v5.1H43.1v19.9h-4.3l10.7,66.7h62.9l10-66.7H118.7z M68.4,49.4 h25.3v5.5H68.4V49.4z M49.1,55.5h14.3v4.4h35.3v-4.4h14v13.9H49.1V55.5z M105.6,128.1H56.4l-8.1-50.7h65L105.6,128.1z"></path>
</svg>