<svg xmlns="http://www.w3.org/2000/svg" xmlns:xlink="http://www.w3.org/1999/xlink" x="0" y="0" width="20px" height="20px" viewBox="0 0 161.9 162" xml:space="preserve">
<path fill="#312D2A" d="M124.1,63.5c-3.7-8.1-13.5-19.2-30.9-16.6L92.8,47c-0.3,0.1-0.7,0.2-1,0.2L91.6,47  c-1.3-1.6-12.3-14.4-33.8-9.5c-1.5,0.3-14.2,3.5-20,19.8c-2.6,0.5-6.6,1.7-10.8,4c-6.6,3.7-15,11.2-17.6,25.8l0,0.2  c-0.1,0.6-1.7,14.4,6.9,24.9c5.4,6.6,13.5,10.4,24,11.2l81.3,0c0.1,0,0.3,0,0.6,0c2.8,0,12.9-0.5,20.6-7.6c5.6-5.1,8.6-12.4,9-21.7  h0C151.6,92.2,151.9,67.4,124.1,63.5z M142.6,93.7l0,0.1c-0.2,6.7-2.3,11.9-6,15.3c-6,5.6-14.8,5.3-14.8,5.3l-62.6,0V89.3l12.6,12.6  l6.4-6.4L54.6,71.9L31.1,95.3l6.4,6.4l12.6-12.6v25.4l-9.5,0c-7.8-0.6-13.7-3.2-17.5-7.8c-5.9-7.1-5.1-17.1-5-18.1  c3.8-20.9,22.5-22.7,23.3-22.7l3.1-0.2l0.9-3c4-13.9,13.8-16.2,14.1-16.3l0.1,0c16.6-3.8,24.5,5.9,24.8,6.3l2.4,2.8l1.1,2v18  l-7.7-7.7l-5.7,5.7l17.4,17.4l17.2-17.2l-5.7-5.7L96,75.4V55.6c15.2-1.4,20,11.9,20.5,13.4l0.9,2.9l3,0.3  C143,74.1,142.7,91.8,142.6,93.7z"></path>
</svg>