<svg xmlns="http://www.w3.org/2000/svg" xmlns:xlink="http://www.w3.org/1999/xlink" x="0" y="0" width="20px" height="20px" viewBox="0 0 161.9 162" xml:space="preserve">
<path fill="#312D2A" d="M31.3,86.9l6.7,3.9c-1.1,3.9-1.6,7.9-1.6,12.2c0,7.1,1.6,13.8,4.5,19.8h-8.3c-2.5-6.1-3.9-12.8-3.9-19.8 C28.8,97.4,29.7,91.9,31.3,86.9z M119.8,81.5l6.4-3.7c-3.3-5.9-7.7-11.2-13-15.4l0.1,10.1C115.9,75.2,118.1,78.2,119.8,81.5z M80.8,51c-19.3,0-36.2,10.6-45.2,26.3L42,81c7.5-13.5,21.8-22.4,38.8-22.4c3.2,0,6.3,0.3,9.2,0.9l9.6-5C93.7,52.2,87.4,51,80.8,51z M123.7,91.3c1,3.7,1.5,7.6,1.5,11.6c0,7.1-1.6,13.8-4.5,19.8h8.3c2.5-6.1,3.9-12.8,3.9-19.8c0-5.4-0.8-10.6-2.4-15.5L123.7,91.3z M108.7,102.9c0-0.9,0.1-40.9,0.1-41.3l0-7L70.9,76.8c-11.5,5.8-18.1,15.3-18.1,26.1c0,15.4,12.5,27.9,27.9,27.9 S108.7,118.3,108.7,102.9z M100.7,102.9c0,11-8.9,19.9-19.9,19.9s-19.9-8.9-19.9-19.9c0-10.6,8.6-16.4,13.8-19l26.2-15.3 C100.8,80.2,100.7,102.2,100.7,102.9z M94.5,103c0-7.4-6-13.4-13.4-13.4c-7.4,0-13.4,6-13.4,13.4s6,13.4,13.4,13.4 C88.5,116.4,94.5,110.4,94.5,103z M88.5,103c0,4.1-3.3,7.4-7.4,7.4s-7.4-3.3-7.4-7.4c0-4.1,3.3-7.4,7.4-7.4S88.5,98.9,88.5,103z M153.1,26.8H9.4v125.7h143.8V26.8z M18.4,35.8h125.8v107.7H18.4V35.8z M152.6,9.1H8.9v9h143.8V9.1z"></path>
</svg>