<svg xmlns="http://www.w3.org/2000/svg" xmlns:xlink="http://www.w3.org/1999/xlink" x="0" y="0" width="20px" height="20px" viewBox="0 0 161.9 162" xml:space="preserve">
<g>
<ellipse fill="#312D2A" cx="128.1" cy="120" rx="6.9" ry="7"></ellipse>
<path fill="#312D2A" d="M123.8,21.2H40.9L8.9,101v40.6h144.3V101L123.8,21.2z M47,30.2h70.5l25,67.9H19.8L47,30.2z M17.9,132.6 v-25.4h126.3v25.4H17.9z"></path>
<path fill="#312D2A" d="M43.3,80.8c3.4,4.1,8.5,6.5,15.2,6.9l45.2,0c0.1,0,0.1,0,0.2,0c5.5,0,16-3.3,18.4-16.1l0.1-0.5 c0.4-5.4-2.6-15.5-16.1-17.7c-2.7-4.5-8.6-9.8-18.5-8.4c-3.2-2.8-10-7.2-19.9-4.7c-3.3,0.6-8.9,3.4-12,10.1 c-5.9,1.3-14.3,5.8-16.4,16.5l0,0.2C39.3,67.9,38.5,74.9,43.3,80.8z M48.3,68.4c1.8-8.5,10.1-9.4,11-9.5l3.1-0.2l0.9-2.9 c1.7-5.5,5.9-6.6,6.2-6.6l0.4-0.1c8-2.1,12.5,3.3,12.6,3.5l1.8,2.3l2.8-0.7c8.7-2,11.4,3.8,11.8,4.9l1,2.8l2.9,0.2 c4.6,0.4,7.7,1.8,9.3,4.4c1,1.6,1.1,3.3,1.1,3.8c-0.7,3.5-2.4,5.9-5.1,7.3c-2.2,1.1-4.3,1.2-4.5,1.2H58.9c-4-0.3-6.9-1.5-8.6-3.5 C48.1,72.5,48.3,69,48.3,68.4z"></path>
</g>
</svg>