<svg xmlns="http://www.w3.org/2000/svg" x="0" y="0" width="20px" height="20px" viewBox="0 0 64.5 65">
<path d="M8.6 47L0 30.7l9.8-15.6 18.3.7 8.6 16.3-9.8 15.6z" fill="#5f707b"></path>
<path d="M36.8 32.2l-8.9-16.3L37.3 0l18.3.3 8.9 16.3-9.4 15.9z" fill="#2ec3b5"></path>
<path d="M35.4 64.2l-8.5-16.5L36.7 32l18.3.5 8.5 16.8L53.7 65l-18.3-.8z" fill="#37c3e2"></path>
<g fill="none" stroke="#fff" stroke-width=".5">
<path d="M27.6 16.2l9.1 15.7m0 0l17.6-.3" stroke-miterlimit="10"></path>
<circle transform="matrix(.02164 -.9998 .9998 .02164 4.5065 67.4099)" cx="36.7" cy="31.4" r="18.7"></circle>
<g stroke-miterlimit="10">
<path d="M41 23.6l13.3 8-27.2 15.2.2-15.6.3-15.6z"></path>
<path d="M36.7 31.9l-9.6 14.9"></path>
</g>
</g>
</svg>