<svg xmlns="http://www.w3.org/2000/svg" x="0" y="0" width="20px" height="20px" viewBox="0 0 60 60">
<circle cx="30" cy="30" r="30" fill="#5f92cd"></circle>
<path d="M12.3 19.4h38v2.7h-38v-2.7zm0 9.1h28.9v2.7H12.3v-2.7zm.4 9.5h33.5v2.7H12.7V38z" fill="#325c80"></path>
<circle cx="18.9" cy="25" r="12.1" fill="#4278bb"></circle>
<path d="M13.1 18.6h15.8v4.6H13.1v-4.6zm0 9h16.4v4.6H13.1v-4.6z" fill="#fff"></path>
<g fill="#274b60">
<path d="M27.9 37.1L31 34l9.6 9.6-3.1 3.1-9.6-9.6z"></path>
<circle cx="28.4" cy="34.2" r="3.1"></circle>
<path d="M18.2 37.7c-7.2 0-13-5.8-13-13s5.8-13 13-13 13 5.8 13 13-5.8 13-13 13zm0-22.7c-5.3 0-9.6 4.3-9.6 9.6s4.3 9.6 9.6 9.6 9.6-4.3 9.6-9.6-4.3-9.6-9.6-9.6z"></path>
</g>
</svg>