<svg width="20px" height="20px" viewBox="0 0 41 41" xmlns="http://www.w3.org/2000/svg" xmlns:xlink="http://www.w3.org/1999/xlink">
    <g stroke="none" stroke-width="1" fill="none" fill-rule="evenodd">
        <g transform="translate(1.000000, 1.000000)">
            <g stroke="#00C1DE" stroke-width="1.6">
                <rect fill="#FFFFFF" fill-rule="nonzero" x="0.6" y="0.6" width="38.4" height="38.4" rx="8"></rect>
                <rect x="0.6" y="0.6" width="38.4" height="38.4" rx="8"></rect>
            </g>
            <g transform="translate(9.500000, 6.500000)" fill="#00C1DE" fill-rule="nonzero">
                <path d="M10.79,27.24 C10.31,27.24 9.86,27.22 9.4,27.16 C8.95,27.09 8.51,27.01 8.08,26.89 C7.65,26.76 7.21,26.59 6.8,26.41 C5.62,25.91 4.54,25.16 3.55,24.16 C1.62,22.16 0.69,19.79 0.76,17.06 C0.82,14.91 1.48,12.89 2.72,10.98 L8.89,1.38 C9.36,0.69 10,0.36 10.79,0.36 C11.6,0.36 12.22,0.69 12.69,1.38 L19.38,11.87 C19.83,12.73 20.18,13.56 20.45,14.37 C20.74,15.21 20.91,16.1 20.91,17.06 C20.91,18.39 20.66,19.68 20.14,20.91 C19.62,22.14 18.92,23.24 17.99,24.22 C15.96,26.24 13.58,27.24 10.79,27.24 L10.79,27.24 Z M10.71,2.48 C10.62,2.48 10.58,2.5 10.58,2.55 L4.42,12.21 C3.38,13.87 2.82,15.54 2.76,17.2 C2.7,19.35 3.45,21.2 5,22.76 C5.76,23.53 6.63,24.12 7.6,24.55 C8.58,24.97 9.63,25.2 10.79,25.2 C11.84,25.2 12.86,24.99 13.83,24.6 C14.8,24.18 15.65,23.6 16.38,22.85 C17.95,21.26 18.73,19.37 18.73,17.16 C18.73,16.04 18.32,14.64 17.47,13 L10.93,2.57 C10.91,2.55 10.87,2.53 10.85,2.5 C10.79,2.48 10.77,2.48 10.71,2.48 L10.71,2.48 Z M12.18,14.77 C11.62,14.87 11.12,15.06 10.71,15.29 C10.27,15.52 9.96,15.75 9.76,15.95 C9.55,16.16 9.26,16.35 8.91,16.52 C8.56,16.68 8.14,16.77 7.67,16.77 C7.38,16.77 7.09,16.73 6.82,16.66 C6.55,16.6 6.3,16.5 6.07,16.37 C6.01,16.39 5.97,16.41 5.95,16.43 C5.91,16.64 5.89,16.98 5.89,17.39 C5.89,18.75 6.36,19.89 7.29,20.87 C8.25,21.85 9.38,22.35 10.71,22.39 C12.07,22.43 13.25,21.95 14.24,20.95 C15.24,19.95 15.73,18.79 15.73,17.39 C15.73,16.77 15.59,16.1 15.28,15.35 C15.24,15.33 15.22,15.31 15.22,15.29 C14.68,15.06 14.14,14.89 13.6,14.79 C13.09,14.68 12.61,14.68 12.18,14.77 L12.18,14.77 Z" id="Shape"></path>
            </g>
        </g>
    </g>
</svg>