<svg width="20px" height="20px" viewBox="0 0 41 41" xmlns="http://www.w3.org/2000/svg" xmlns:xlink="http://www.w3.org/1999/xlink">
    <g stroke="none" stroke-width="1" fill="none" fill-rule="evenodd">
        <g transform="translate(1.000000, 1.000000)">
            <g stroke="#00C1DE" stroke-width="1.6">
                <rect fill="#FFFFFF" fill-rule="nonzero" x="0.6" y="0.6" width="38.4" height="38.4" rx="8"></rect>
                <rect x="0.6" y="0.6" width="38.4" height="38.4" rx="8"></rect>
            </g>
            <g transform="translate(6.500000, 6.500000)" fill="#00C1DE" fill-rule="nonzero">
                <path d="M2.05,13.79 C1.83,13.79 1.61,13.74 1.39,13.67 C1.19,13.57 1,13.44 0.85,13.3 C0.7,13.15 0.58,12.98 0.48,12.76 C0.38,12.56 0.36,12.34 0.36,12.1 L0.36,12.1 L0.36,2.03 C0.36,1.56 0.53,1.17 0.85,0.85 C1.17,0.53 1.58,0.36 2.02,0.36 L25.55,0.36 C25.72,0.36 25.92,0.38 26.09,0.43 C26.26,0.48 26.41,0.58 26.55,0.68 C26.7,0.78 26.82,0.9 26.92,1.05 C27.02,1.19 27.09,1.34 27.17,1.51 C27.22,1.68 27.24,1.85 27.24,2.05 L27.24,2.05 C27.24,2.52 27.07,2.91 26.75,3.23 C26.43,3.55 26.02,3.72 25.58,3.72 L3.74,3.72 L3.74,12.12 L3.74,12.12 C3.74,12.34 3.69,12.56 3.62,12.78 C3.52,12.98 3.42,13.18 3.25,13.32 C3.08,13.47 2.93,13.59 2.71,13.69 C2.49,13.74 2.29,13.79 2.05,13.79 L2.05,13.79 Z M12.06,12.1 C12.06,11.63 12.23,11.24 12.55,10.9 C12.87,10.58 13.29,10.41 13.73,10.41 C14.02,10.41 14.31,10.48 14.56,10.63 C14.83,10.77 15.02,10.97 15.17,11.24 C15.32,11.51 15.39,11.78 15.39,12.07 L15.39,12.07 C15.39,12.22 15.37,12.37 15.34,12.51 C15.29,12.66 15.24,12.78 15.17,12.91 C15.1,13.03 15,13.15 14.9,13.25 C14.8,13.35 14.68,13.44 14.56,13.52 C14.44,13.59 14.31,13.64 14.17,13.69 C14.02,13.74 13.87,13.74 13.73,13.74 C13.43,13.74 13.14,13.67 12.89,13.52 C12.62,13.37 12.43,13.18 12.28,12.91 C12.14,12.69 12.06,12.42 12.06,12.1 L12.06,12.1 Z M16.93,12.1 C16.93,11.95 16.96,11.8 16.98,11.66 C17.01,11.51 17.08,11.39 17.15,11.26 C17.23,11.14 17.33,11.02 17.42,10.92 C17.52,10.82 17.64,10.72 17.77,10.65 C17.89,10.58 18.01,10.53 18.16,10.48 C18.3,10.43 18.45,10.43 18.6,10.43 C18.82,10.43 19.04,10.48 19.26,10.55 C19.46,10.65 19.65,10.77 19.8,10.92 C19.94,11.07 20.07,11.24 20.17,11.46 C20.26,11.68 20.29,11.88 20.29,12.12 L20.29,12.12 C20.29,12.59 20.12,12.98 19.8,13.3 C19.48,13.62 19.06,13.79 18.62,13.79 C18.16,13.79 17.77,13.62 17.45,13.3 C17.08,12.95 16.93,12.56 16.93,12.1 L16.93,12.1 Z M25.55,10.43 C25.72,10.43 25.92,10.46 26.09,10.5 C26.26,10.55 26.41,10.65 26.55,10.75 C26.7,10.85 26.8,10.97 26.92,11.12 C27.02,11.26 27.09,11.41 27.17,11.58 C27.22,11.75 27.24,11.93 27.24,12.12 L27.24,22.22 L27.24,22.22 C27.24,22.68 27.07,23.07 26.75,23.39 C26.43,23.71 26.02,23.88 25.58,23.88 L3.74,23.88 L0.38,27.24 L0.38,22.19 C0.38,21.9 0.46,21.6 0.6,21.36 C0.75,21.09 0.95,20.89 1.22,20.75 C1.49,20.6 1.76,20.53 2.05,20.53 L23.86,20.53 L23.86,12.12 C23.86,11.95 23.89,11.75 23.94,11.58 C23.98,11.41 24.08,11.26 24.18,11.12 C24.28,10.97 24.4,10.85 24.55,10.75 C24.69,10.65 24.84,10.58 25.01,10.5 C25.18,10.46 25.35,10.43 25.55,10.43 L25.55,10.43 Z M7.24,12.1 C7.24,11.63 7.41,11.24 7.73,10.9 C8.05,10.58 8.46,10.41 8.9,10.41 C9.12,10.41 9.34,10.46 9.56,10.53 C9.76,10.63 9.96,10.75 10.1,10.9 C10.25,11.04 10.37,11.21 10.47,11.44 C10.57,11.63 10.59,11.85 10.59,12.1 L10.59,12.1 C10.59,12.39 10.52,12.69 10.37,12.93 C10.23,13.2 10.03,13.4 9.76,13.54 C9.49,13.69 9.22,13.76 8.93,13.76 L8.93,13.76 C8.46,13.76 8.07,13.59 7.75,13.27 C7.41,12.95 7.24,12.56 7.24,12.1 L7.24,12.1 Z" id="Shape"></path>
            </g>
        </g>
    </g>
</svg>