<svg width="20px" height="20px" viewBox="0 0 41 41" xmlns="http://www.w3.org/2000/svg" xmlns:xlink="http://www.w3.org/1999/xlink">
    <g stroke="none" stroke-width="1" fill="none" fill-rule="evenodd">
        <g transform="translate(1.000000, 1.000000)">
            <g stroke="#00C1DE" stroke-width="1.6">
                <rect fill="#FFFFFF" fill-rule="nonzero" x="0.6" y="0.6" width="38.4" height="38.4" rx="8"></rect>
                <rect x="0.6" y="0.6" width="38.4" height="38.4" rx="8"></rect>
            </g>
            <g transform="translate(6.500000, 6.500000)" fill="#00C1DE" fill-rule="nonzero">
                <path d="M22.32,8.19 C23.75,8.58 24.94,9.38 25.85,10.56 C26.79,11.75 27.24,13.11 27.24,14.62 C27.24,16.45 26.59,18.03 25.27,19.32 C23.97,20.62 22.39,21.28 20.53,21.28 C19.38,21.28 18.34,21.46 17.38,21.76 C16.43,22.08 15.5,22.58 14.59,23.29 C13.68,24 12.75,24.93 11.8,26.12 C11.41,26.61 11.1,26.81 10.91,26.72 C10.65,26.59 10.97,25.79 11.88,24.35 C13.64,21.57 15.8,19.88 18.38,19.28 C18.99,19.15 19.7,19.04 20.5,18.96 C21.24,18.89 21.91,18.65 22.54,18.24 C23.17,17.83 23.67,17.32 24.01,16.67 C24.38,16.02 24.55,15.33 24.55,14.6 L24.55,14.6 C24.55,14.06 24.45,13.52 24.23,13.02 C24.01,12.53 23.73,12.1 23.36,11.73 C22.99,11.36 22.56,11.08 22.06,10.87 C21.57,10.65 21.05,10.54 20.48,10.54 C19.98,10.54 19.51,10.63 19.03,10.8 C19.23,10.24 19.31,9.66 19.31,9.05 C19.31,8.71 19.27,8.36 19.2,8.02 C18.97,6.79 18.32,5.75 17.25,4.87 C16.19,4.01 15.05,3.58 13.79,3.58 C12.27,3.58 10.97,4.12 9.89,5.17 C8.81,6.25 8.29,7.54 8.29,9.05 C8.29,9.66 8.4,10.24 8.59,10.82 C8.11,10.63 7.59,10.52 7.07,10.52 C6.64,10.52 6.23,10.59 5.82,10.72 C5.04,10.97 4.37,11.47 3.83,12.23 C3.28,12.98 3,13.76 3,14.58 C3,15.68 3.41,16.71 4.22,17.68 C5.02,18.65 5.97,19.26 7.07,19.52 C9.02,19.97 10.56,20.14 11.71,20.03 C12.29,19.99 12.6,20.03 12.62,20.16 C12.64,20.29 12.36,20.42 11.8,20.53 C10.87,20.68 10.17,20.79 9.65,20.83 C9.15,20.87 8.29,20.87 7.07,20.83 C4.82,20.77 3.05,19.97 1.77,18.48 C0.84,17.38 0.38,16.09 0.36,14.6 C0.36,13 0.86,11.6 1.88,10.37 C2.89,9.14 4.17,8.39 5.71,8.06 C5.88,6.7 6.34,5.47 7.12,4.37 C7.88,3.27 8.87,2.39 10.09,1.74 C11.3,1.1 12.6,0.79 13.98,0.79 C15.39,0.79 16.69,1.12 17.9,1.76 C19.12,2.41 20.11,3.3 20.87,4.42 C21.63,5.54 22.17,6.83 22.32,8.19 L22.32,8.19 Z M11.69,13.45 C11.51,13.45 11.36,13.39 11.23,13.26 C11.1,13.13 11.04,12.96 11.04,12.76 L11.04,12.07 C11.04,11.88 11.1,11.73 11.23,11.58 C11.36,11.45 11.51,11.38 11.69,11.38 L15.96,11.38 C16.13,11.38 16.28,11.45 16.41,11.58 C16.54,11.71 16.6,11.88 16.6,12.07 L16.6,12.76 C16.6,12.89 16.58,13 16.52,13.11 C16.45,13.22 16.39,13.3 16.28,13.37 C16.19,13.43 16.09,13.45 15.96,13.45 L11.69,13.45 L11.69,13.45 L11.69,13.45 Z M11.06,16.6 L11.06,15.91 C11.06,15.83 11.08,15.72 11.1,15.63 C11.15,15.55 11.19,15.48 11.23,15.42 C11.28,15.35 11.36,15.31 11.43,15.27 C11.49,15.22 11.58,15.2 11.67,15.2 L15.93,15.2 C16.11,15.2 16.26,15.27 16.39,15.4 C16.52,15.53 16.58,15.7 16.58,15.89 L16.58,16.6 C16.58,16.8 16.52,16.95 16.39,17.1 C16.26,17.23 16.11,17.29 15.93,17.29 L11.69,17.29 C11.58,17.29 11.47,17.27 11.36,17.21 C11.28,17.14 11.19,17.06 11.12,16.95 C11.06,16.84 11.06,16.73 11.06,16.6 L11.06,16.6 Z" id="Shape"></path>
            </g>
        </g>
    </g>
</svg>