<svg width="20px" height="20px" viewBox="0 0 41 41" xmlns="http://www.w3.org/2000/svg" xmlns:xlink="http://www.w3.org/1999/xlink">
    <g stroke="none" stroke-width="1" fill="none" fill-rule="evenodd">
        <g transform="translate(1.000000, 1.000000)">
            <g stroke="#00C1DE" stroke-width="1.6">
                <rect fill="#FFFFFF" fill-rule="nonzero" x="0.6" y="0.6" width="38.4" height="38.4" rx="8"></rect>
                <rect x="0.6" y="0.6" width="38.4" height="38.4" rx="8"></rect>
            </g>
            <g transform="translate(6.500000, 6.500000)" fill="#00C1DE" fill-rule="nonzero">
                <path d="M13.8,0.36 C11.98,0.36 10.25,0.72 8.58,1.43 C6.91,2.14 5.49,3.09 4.29,4.29 C3.09,5.49 2.14,6.91 1.43,8.58 C0.72,10.25 0.36,11.98 0.36,13.8 C0.36,15.62 0.72,17.35 1.43,19.02 C2.14,20.69 3.09,22.11 4.29,23.31 C5.49,24.51 6.91,25.46 8.58,26.17 C10.25,26.88 11.98,27.24 13.8,27.24 C15.62,27.24 17.35,26.88 19.02,26.17 C20.69,25.46 22.11,24.51 23.31,23.31 C24.51,22.11 25.46,20.69 26.17,19.02 C26.88,17.35 27.24,15.62 27.24,13.8 C27.24,11.98 26.88,10.25 26.17,8.58 C25.46,6.91 24.51,5.49 23.31,4.29 C22.11,3.09 20.69,2.14 19.02,1.43 C17.35,0.72 15.62,0.36 13.8,0.36 L13.8,0.36 Z M13.8,3.47 C15.55,3.47 17.22,3.91 18.75,4.78 C20.29,5.67 21.53,6.82 22.46,8.27 C23.4,9.71 23.95,11.27 24.11,12.93 L22.82,12.93 C22.57,10.71 21.58,8.8 19.84,7.18 C18.11,5.56 16.09,4.76 13.78,4.76 C13.2,4.76 12.62,4.83 12.07,4.94 C11.51,5.05 10.96,5.23 10.47,5.42 C9.96,5.65 9.47,5.89 9,6.2 C8.54,6.51 8.09,6.85 7.69,7.22 C7.29,7.6 6.94,8 6.6,8.45 C6.27,8.89 5.98,9.36 5.74,9.82 C5.49,10.31 5.29,10.8 5.14,11.33 C4.98,11.87 4.87,12.4 4.83,12.93 L3.47,12.93 C3.6,11.27 4.16,9.71 5.09,8.27 C6.02,6.82 7.27,5.67 8.82,4.78 C10.38,3.91 12.05,3.47 13.8,3.47 L13.8,3.47 Z M14.78,16.6 L12.58,16.6 L12.96,14.27 C12.69,14.13 12.44,13.93 12.27,13.62 C12.09,13.31 11.98,13 11.98,12.67 C11.98,12.2 12.13,11.8 12.47,11.47 C12.8,11.13 13.2,10.96 13.69,10.96 C13.91,10.96 14.13,11 14.33,11.09 C14.53,11.18 14.73,11.29 14.89,11.45 C15.04,11.6 15.18,11.78 15.27,12 C15.36,12.22 15.4,12.44 15.4,12.69 C15.4,12.91 15.36,13.11 15.27,13.33 C15.18,13.56 15.07,13.73 14.91,13.89 C14.76,14.04 14.6,14.18 14.42,14.29 L14.78,16.6 Z M13.8,20.71 C14.93,20.71 16,20.44 17,19.89 C18,19.33 18.8,18.62 19.44,17.69 C20.06,16.78 20.46,15.78 20.6,14.71 L21.58,14.71 C21.35,16.67 20.51,18.33 19.02,19.69 C17.53,21.04 15.78,21.73 13.76,21.73 C11.76,21.73 10,21.04 8.51,19.69 C7,18.31 6.16,16.67 5.94,14.71 L6.91,14.71 C7.2,16.35 7.98,17.78 9.29,18.95 C10.6,20.13 12.09,20.71 13.8,20.71 L13.8,20.71 Z M20.58,12.93 C20.35,11.38 19.6,9.98 18.29,8.78 C16.98,7.56 15.49,6.96 13.8,6.96 C13.11,6.96 12.47,7.07 11.8,7.29 C11.16,7.51 10.56,7.82 10.02,8.2 C9.49,8.58 9.02,9.05 8.58,9.53 C8.14,10.02 7.8,10.58 7.54,11.18 C7.27,11.76 7.09,12.36 7,12.96 L6.02,12.96 C6.16,11.73 6.6,10.58 7.31,9.51 C8.02,8.45 8.96,7.58 10.11,6.91 C11.27,6.25 12.51,5.91 13.84,5.91 C15.82,5.91 17.55,6.62 19.06,8.02 C20.58,9.42 21.44,11.07 21.66,12.96 L20.58,12.93 Z M13.8,24.2 C11.07,24.2 8.71,23.31 6.74,21.53 C4.76,19.75 3.69,17.49 3.47,14.73 L4.76,14.73 C4.98,17.09 5.94,19.04 7.65,20.6 C9.36,22.15 11.38,22.93 13.73,22.93 C16.09,22.93 18.13,22.15 19.82,20.6 C21.53,19.04 22.49,17.09 22.71,14.73 L24,14.73 C23.84,17.58 22.71,19.91 20.62,21.73 C18.71,23.35 16.44,24.17 13.8,24.2 L13.8,24.2 Z" id="Shape"></path>
            </g>
        </g>
    </g>
</svg>