<svg width="20px" height="20px" viewBox="0 0 41 41" xmlns="http://www.w3.org/2000/svg" xmlns:xlink="http://www.w3.org/1999/xlink">
    <g stroke="none" stroke-width="1" fill="none" fill-rule="evenodd">
        <g transform="translate(1.000000, 1.000000)">
            <g stroke="#00C1DE" stroke-width="1.6">
                <rect fill="#FFFFFF" fill-rule="nonzero" x="0.6" y="0.6" width="38.4" height="38.4" rx="8"></rect>
                <rect x="0.6" y="0.6" width="38.4" height="38.4" rx="8"></rect>
            </g>
            <g transform="translate(6.500000, 7.500000)" fill="#00C1DE" fill-rule="nonzero">
                <path d="M7.37,25 C7.14,25 6.91,24.98 6.69,24.92 C6.46,24.86 6.21,24.77 5.96,24.67 C4.93,24.07 4.41,23.21 4.41,22.06 L4.41,20.66 C3.25,20.52 2.3,20.05 1.52,19.18 C0.75,18.34 0.36,17.33 0.36,16.16 L0.36,5.1 C0.36,4.49 0.48,3.91 0.71,3.35 C0.94,2.8 1.27,2.33 1.68,1.92 C2.08,1.53 2.57,1.2 3.13,0.95 C3.69,0.7 4.27,0.6 4.89,0.6 L22.73,0.6 C23.97,0.6 25.05,1.03 25.92,1.92 C26.81,2.8 27.24,3.85 27.24,5.08 L27.24,16.1 C27.24,16.72 27.12,17.29 26.89,17.85 C26.64,18.4 26.33,18.87 25.92,19.29 C25.52,19.68 25.03,20 24.47,20.25 C23.91,20.5 23.33,20.6 22.71,20.6 L14.83,20.6 L9.04,24.42 C8.51,24.79 7.93,25 7.37,25 L7.37,25 Z M4.95,2.84 C4.31,2.84 3.77,3.07 3.32,3.5 C2.88,3.93 2.66,4.49 2.66,5.12 L2.66,16.1 C2.66,16.74 2.88,17.27 3.32,17.72 C3.75,18.15 4.31,18.38 4.95,18.38 L6.71,18.38 L6.71,22 C6.71,22.06 6.71,22.12 6.73,22.18 C6.75,22.25 6.75,22.29 6.77,22.33 C6.79,22.37 6.81,22.41 6.83,22.43 C6.85,22.47 6.89,22.49 6.91,22.51 C6.94,22.53 6.96,22.55 6.98,22.57 C7,22.59 7.02,22.62 7.02,22.62 C7.29,22.76 7.53,22.76 7.76,22.62 L14.17,18.36 L22.79,18.36 C23.21,18.36 23.6,18.26 23.95,18.05 C24.3,17.85 24.57,17.58 24.78,17.23 C24.99,16.88 25.09,16.49 25.09,16.08 L25.09,5.1 C25.09,4.69 24.99,4.3 24.78,3.95 C24.57,3.6 24.3,3.33 23.95,3.13 C23.6,2.92 23.21,2.82 22.79,2.82 L4.95,2.82 L4.95,2.84 Z M6.96,10.73 L6.96,10.73 C6.96,11.19 7.12,11.56 7.43,11.86 C7.74,12.17 8.13,12.34 8.57,12.34 C9.02,12.34 9.4,12.17 9.71,11.86 C10.02,11.56 10.18,11.17 10.18,10.73 L10.18,10.73 L10.18,10.73 C10.18,10.28 10.02,9.91 9.71,9.6 C9.4,9.3 9,9.13 8.57,9.13 C8.11,9.13 7.74,9.3 7.43,9.6 C7.12,9.91 6.96,10.28 6.96,10.73 L6.96,10.73 Z M12.35,10.73 L12.35,10.73 C12.35,11.02 12.41,11.29 12.56,11.54 C12.7,11.78 12.89,11.97 13.14,12.11 C13.39,12.26 13.66,12.32 13.94,12.32 C14.09,12.32 14.23,12.3 14.38,12.26 C14.52,12.21 14.65,12.17 14.77,12.09 C14.9,12.01 15,11.95 15.1,11.84 C15.21,11.74 15.29,11.64 15.35,11.52 C15.41,11.39 15.47,11.27 15.52,11.12 C15.56,10.98 15.58,10.84 15.58,10.69 L15.58,10.69 L15.58,10.69 C15.58,10.24 15.41,9.87 15.1,9.56 C14.79,9.25 14.4,9.09 13.97,9.09 C13.53,9.09 13.14,9.25 12.83,9.56 C12.52,9.91 12.35,10.28 12.35,10.73 L12.35,10.73 L12.35,10.73 Z M17.48,10.73 L17.48,10.73 C17.48,11.19 17.65,11.56 17.96,11.86 C18.27,12.17 18.66,12.34 19.09,12.34 C19.55,12.34 19.92,12.17 20.23,11.86 C20.54,11.56 20.71,11.17 20.71,10.73 L20.71,10.73 L20.71,10.73 C20.71,10.28 20.54,9.91 20.23,9.6 C19.92,9.3 19.53,9.13 19.09,9.13 C18.64,9.13 18.27,9.3 17.96,9.6 C17.63,9.91 17.48,10.28 17.48,10.73 L17.48,10.73 Z" id="Shape"></path>
            </g>
        </g>
    </g>
</svg>