<svg width="20px" height="20px" viewBox="0 0 41 41" xmlns="http://www.w3.org/2000/svg" xmlns:xlink="http://www.w3.org/1999/xlink">
    <g stroke="none" stroke-width="1" fill="none" fill-rule="evenodd">
        <g transform="translate(1.000000, 1.000000)">
            <g stroke="#00C1DE" stroke-width="1.6">
                <rect fill="#FFFFFF" fill-rule="nonzero" x="0.6" y="0.6" width="38.4" height="38.4" rx="8"></rect>
                <rect x="0.6" y="0.6" width="38.4" height="38.4" rx="8"></rect>
            </g>
            <g transform="translate(6.500000, 6.500000)" fill="#00C1DE" fill-rule="nonzero">
                <path d="M23.26,23.13 L23.26,23.13 C22.93,23.13 22.63,23.04 22.34,22.89 C22.06,22.73 21.84,22.52 21.69,22.23 C21.54,21.95 21.45,21.65 21.45,21.32 C21.45,21.15 21.47,20.99 21.51,20.84 C21.56,20.69 21.62,20.54 21.69,20.41 C21.78,20.28 21.86,20.14 21.97,20.04 C22.08,19.93 22.21,19.84 22.34,19.75 C22.48,19.67 22.63,19.62 22.78,19.58 C22.93,19.54 23.11,19.51 23.26,19.51 L23.26,19.51 L23.26,19.51 C23.77,19.51 24.18,19.69 24.55,20.04 C24.9,20.38 25.08,20.82 25.08,21.32 C25.08,21.65 25.01,21.95 24.84,22.21 C24.68,22.5 24.46,22.71 24.18,22.87 C23.9,23.04 23.59,23.13 23.26,23.13 L23.26,23.13 Z M7.33,23.34 C7.42,23.24 7.48,23.1 7.55,22.97 C7.62,22.84 7.68,22.71 7.72,22.58 C7.77,22.45 7.81,22.32 7.86,22.17 C7.9,22.04 7.92,21.89 7.94,21.73 C7.97,21.58 7.97,21.43 7.97,21.28 L7.97,21.28 L7.94,21.65 L19.63,21.67 C19.7,22.32 19.94,22.89 20.33,23.41 C18.43,24.74 16.29,25.39 13.91,25.39 C13.89,25.39 13.87,25.39 13.84,25.39 C13.82,25.39 13.8,25.39 13.78,25.39 C12.79,25.39 11.68,25.19 10.41,24.78 C9.15,24.37 8.14,23.91 7.33,23.34 L7.33,23.34 Z M4.34,23.13 L4.34,23.13 C3.83,23.13 3.4,22.95 3.05,22.6 C2.7,22.26 2.52,21.82 2.52,21.32 C2.52,20.82 2.7,20.41 3.05,20.04 C3.4,19.69 3.83,19.51 4.34,19.51 L4.34,19.51 C4.67,19.51 4.97,19.6 5.26,19.75 C5.54,19.91 5.76,20.12 5.91,20.41 C6.06,20.69 6.15,20.99 6.15,21.32 C6.15,21.65 6.06,21.95 5.91,22.23 C5.76,22.52 5.52,22.73 5.26,22.89 C4.97,23.04 4.67,23.13 4.34,23.13 L4.34,23.13 Z M10.35,5.13 C10.46,5.43 10.63,5.76 10.89,6.11 C11.16,6.45 11.42,6.72 11.68,6.91 L5.71,17.97 C5.28,17.79 4.82,17.71 4.36,17.71 L4.34,17.71 C4.25,17.71 4.16,17.71 4.1,17.71 C4.01,17.71 3.92,17.73 3.86,17.73 C3.79,17.73 3.7,17.75 3.62,17.77 C3.55,17.79 3.46,17.82 3.38,17.84 C3.27,17.47 3.16,17.01 3.09,16.44 C3,15.9 2.98,15.42 2.98,15.03 C2.98,15.01 2.98,15.01 2.98,14.99 C2.98,12.72 3.68,10.7 5.06,8.89 C6.39,7.09 8.18,5.82 10.35,5.13 L10.35,5.13 Z M10.26,4.58 C10.24,4.56 10.24,4.54 10.22,4.52 C10.19,4.5 10.19,4.45 10.17,4.45 C10.19,4.47 10.19,4.5 10.22,4.52 C10.24,4.54 10.26,4.56 10.26,4.58 Z M10.22,3.6 C10.19,3.67 10.17,3.8 10.17,3.95 C10.17,3.99 10.17,4.04 10.19,4.13 C10.22,4.19 10.22,4.26 10.22,4.3 C10.19,4.23 10.17,4.1 10.17,3.95 C10.15,3.86 10.15,3.82 10.17,3.78 C10.17,3.73 10.19,3.67 10.22,3.6 L10.22,3.6 Z M13.8,2.12 L13.8,2.12 C14.3,2.12 14.74,2.3 15.09,2.65 C15.44,2.99 15.61,3.43 15.61,3.93 C15.61,4.26 15.53,4.56 15.37,4.84 C15.22,5.13 15,5.34 14.72,5.52 C14.43,5.69 14.13,5.76 13.8,5.76 L13.8,5.76 C13.3,5.76 12.88,5.58 12.51,5.24 C12.16,4.89 11.99,4.45 11.99,3.95 C11.99,3.45 12.16,3.02 12.51,2.67 C12.86,2.32 13.3,2.12 13.8,2.12 L13.8,2.12 Z M7.66,19.86 C7.53,19.58 7.38,19.32 7.18,19.06 L13.43,7.54 C13.47,7.54 13.54,7.54 13.58,7.54 C13.63,7.54 13.69,7.54 13.73,7.54 C13.97,7.54 14.22,7.52 14.46,7.48 L20.57,18.84 C20.29,19.17 20.05,19.49 19.9,19.86 L7.66,19.86 Z M17.25,5.06 C19.48,5.76 21.32,7 22.74,8.83 C24.16,10.65 24.88,12.7 24.88,15.01 C24.88,16.01 24.73,16.97 24.44,17.9 C24.29,17.86 24.09,17.79 23.85,17.77 C23.61,17.73 23.42,17.71 23.26,17.71 C23.15,17.71 23.02,17.71 22.89,17.73 C22.76,17.75 22.61,17.77 22.48,17.79 C22.34,17.82 22.21,17.86 22.13,17.88 L16.14,6.74 C16.66,6.28 17.03,5.71 17.25,5.06 L17.25,5.06 Z M17.38,4.73 C17.38,4.76 17.36,4.78 17.34,4.82 C17.32,4.87 17.3,4.91 17.3,4.91 C17.34,4.84 17.36,4.78 17.38,4.73 L17.38,4.73 Z M17.45,4.41 C17.43,4.43 17.43,4.47 17.41,4.52 C17.38,4.56 17.38,4.6 17.36,4.63 C17.41,4.5 17.45,4.43 17.45,4.41 L17.45,4.41 L17.45,4.41 Z M17.47,3.95 L17.47,3.95 L17.43,4.28 C17.43,4.26 17.43,4.21 17.43,4.17 C17.43,4.13 17.45,4.08 17.45,4.06 C17.47,4.02 17.47,3.97 17.47,3.95 L17.47,3.95 Z M26.02,18.97 C26.48,17.71 26.69,16.38 26.69,15.01 C26.69,12.22 25.82,9.74 24.07,7.56 C22.32,5.39 20.07,3.93 17.34,3.21 C17.25,2.82 17.1,2.45 16.88,2.1 C16.64,1.75 16.38,1.45 16.07,1.19 C15.77,0.93 15.4,0.73 15,0.58 C14.61,0.43 14.22,0.36 13.82,0.36 L13.82,0.36 C12.99,0.36 12.23,0.64 11.53,1.21 C10.83,1.77 10.39,2.47 10.24,3.28 C7.57,4.06 5.39,5.52 3.7,7.67 C1.98,9.83 1.12,12.27 1.12,14.99 C1.12,16.27 1.32,17.53 1.74,18.75 C1.45,19.03 1.19,19.45 0.99,19.93 C0.8,20.41 0.69,20.88 0.69,21.3 C0.69,22.3 1.04,23.15 1.76,23.87 C2.48,24.58 3.33,24.93 4.34,24.93 L4.34,24.93 C4.91,24.93 5.43,24.8 5.93,24.56 C8.25,26.35 10.92,27.24 13.91,27.24 C16.86,27.24 19.48,26.37 21.8,24.63 C22.26,24.82 22.76,24.93 23.26,24.93 L23.26,24.93 C24.27,24.93 25.12,24.58 25.84,23.87 C26.56,23.15 26.91,22.3 26.91,21.3 C26.91,20.93 26.82,20.51 26.65,20.06 C26.45,19.6 26.26,19.23 26.02,18.97 L26.02,18.97 L26.02,18.97 Z" id="Shape"></path>
            </g>
        </g>
    </g>
</svg>