<svg width="20px" height="20px" viewBox="0 0 41 41" xmlns="http://www.w3.org/2000/svg" xmlns:xlink="http://www.w3.org/1999/xlink">
    <g stroke="none" stroke-width="1" fill="none" fill-rule="evenodd">
        <g transform="translate(1.000000, 1.000000)">
            <g stroke="#00C1DE" stroke-width="1.6">
                <rect fill="#FFFFFF" fill-rule="nonzero" x="0.6" y="0.6" width="38.4" height="38.4" rx="8"></rect>
                <rect x="0.6" y="0.6" width="38.4" height="38.4" rx="8"></rect>
            </g>
            <g transform="translate(6.500000, 6.500000)" fill="#00C1DE" fill-rule="nonzero">
                <path d="M13.96,0.68 C13.68,0.68 13.41,0.72 13.14,0.78 C12.87,0.84 12.64,0.95 12.41,1.05 C12.18,1.18 11.99,1.32 11.8,1.49 C11.61,1.66 11.45,1.85 11.32,2.06 C11.2,2.27 11.09,2.48 11.01,2.73 C10.94,2.98 10.9,3.21 10.9,3.46 C10.9,4.63 11.15,6.04 11.66,7.65 C12.16,9.26 12.68,10.58 13.18,11.61 L13.94,13.16 C14.02,13.01 14.12,12.78 14.27,12.51 C14.42,12.24 14.65,11.69 15,10.9 C15.36,10.1 15.67,9.33 15.92,8.57 C16.2,7.82 16.43,6.96 16.66,6.02 C16.89,5.07 16.99,4.22 16.99,3.48 C16.99,2.71 16.68,2.06 16.09,1.51 C15.5,0.95 14.79,0.68 13.96,0.68 L13.96,0.68 Z M3.54,9.83 C4.44,10.56 5.67,11.23 7.24,11.84 C8.81,12.45 10.13,12.89 11.24,13.12 L12.89,13.5 C12.83,13.33 12.72,13.12 12.6,12.85 C12.47,12.57 12.2,12.05 11.8,11.3 C11.4,10.54 10.99,9.81 10.57,9.14 C10.15,8.47 9.65,7.76 9.04,7 C8.43,6.25 7.85,5.64 7.28,5.18 C6.99,4.95 6.66,4.78 6.3,4.7 C5.95,4.61 5.57,4.59 5.21,4.63 C4.86,4.7 4.5,4.82 4.15,5.01 C3.79,5.2 3.5,5.45 3.25,5.77 C2.72,6.39 2.49,7.13 2.56,7.9 C2.62,8.7 2.95,9.35 3.54,9.83 L3.54,9.83 Z M21.72,6.52 C21.93,6.37 22.16,6.29 22.41,6.29 L22.41,6.29 C22.91,6.31 23.33,6.54 23.66,6.96 C23.83,7.17 23.93,7.42 24,7.67 C24.04,7.92 24.04,8.18 23.96,8.41 C23.87,8.64 23.75,8.82 23.56,8.97 C22.35,9.89 20.44,10.71 17.81,11.42 C18.43,10.37 19.08,9.43 19.73,8.57 C20.4,7.69 21.07,7.02 21.72,6.52 L21.72,6.52 Z M24.46,10.12 C24.75,9.89 25,9.62 25.17,9.29 C25.34,8.95 25.44,8.61 25.48,8.24 C25.52,7.88 25.48,7.5 25.38,7.13 C25.27,6.75 25.09,6.39 24.86,6.06 C24.65,5.79 24.42,5.58 24.14,5.39 C23.87,5.2 23.6,5.05 23.31,4.97 C23.01,4.89 22.72,4.82 22.41,4.82 C22.22,4.82 22.03,4.84 21.84,4.89 C21.65,4.93 21.49,4.99 21.3,5.05 C21.13,5.14 20.96,5.24 20.8,5.35 C19.86,6.06 18.91,7.09 17.93,8.45 C16.95,9.81 16.22,11 15.69,12.01 L14.92,13.54 C14.92,13.54 15.92,13.31 17.91,12.87 C20.88,12.09 23.06,11.17 24.46,10.12 L24.46,10.12 Z M25.15,13.92 C23.79,13.66 22.37,13.6 20.88,13.71 C19.42,13.81 18.1,14 16.95,14.25 L15.21,14.63 C15.34,14.73 15.53,14.9 15.76,15.09 C15.99,15.28 16.45,15.63 17.14,16.14 C17.83,16.64 18.5,17.1 19.17,17.52 C19.83,17.94 20.59,18.36 21.45,18.78 C22.3,19.19 23.1,19.49 23.79,19.66 C24.52,19.82 25.21,19.7 25.86,19.26 C26.51,18.82 26.93,18.19 27.11,17.39 C27.24,16.87 27.22,16.37 27.09,15.86 C26.97,15.36 26.72,14.94 26.36,14.59 C26.05,14.25 25.63,14.02 25.15,13.92 L25.15,13.92 Z M14.38,15.28 C14.4,15.34 14.4,15.59 14.38,15.99 C14.35,16.39 14.38,16.99 14.42,17.81 C14.48,18.63 14.54,19.45 14.63,20.28 C14.71,21.12 14.88,22.02 15.11,22.97 C15.34,23.91 15.61,24.73 15.94,25.37 C16.17,25.84 16.51,26.19 16.95,26.46 C17.39,26.74 17.87,26.88 18.39,26.88 C18.89,26.9 19.42,26.78 19.96,26.55 C20.71,26.17 21.26,25.61 21.55,24.85 C21.84,24.1 21.82,23.36 21.49,22.67 C21.15,22 20.67,21.29 20.04,20.51 C19.42,19.74 18.81,19.09 18.25,18.52 C17.68,17.96 17.03,17.39 16.36,16.83 C15.69,16.26 15.23,15.88 14.98,15.7 C14.73,15.51 14.52,15.38 14.38,15.28 L14.38,15.28 Z M6.45,22.67 C6.24,23.15 6.15,23.64 6.22,24.12 C6.26,24.6 6.45,25.06 6.76,25.5 C7.07,25.94 7.49,26.28 8,26.51 C8.75,26.86 9.52,26.93 10.3,26.69 C11.07,26.46 11.63,25.98 11.97,25.29 C12.95,23.24 13.45,19.86 13.45,15.17 C13.31,15.28 13.12,15.42 12.87,15.61 C12.62,15.8 12.18,16.18 11.51,16.76 C10.84,17.35 10.21,17.92 9.65,18.48 C9.08,19.05 8.48,19.72 7.87,20.49 C7.26,21.27 6.76,22.02 6.45,22.67 L6.45,22.67 Z M2.66,13.75 C1.89,13.92 1.3,14.36 0.88,15.07 C0.46,15.78 0.36,16.55 0.55,17.37 C0.74,18.21 1.18,18.86 1.87,19.32 C2.54,19.78 3.27,19.93 4.04,19.76 C6.41,19.22 9.25,17.62 12.58,14.94 C12.87,14.71 13.02,14.59 13.04,14.56 L13.04,14.56 C12.87,14.52 12.62,14.46 12.33,14.38 C12.03,14.29 11.43,14.19 10.55,14.02 C9.67,13.85 8.81,13.73 8,13.64 C7.18,13.56 6.28,13.5 5.25,13.5 C4.27,13.5 3.39,13.58 2.66,13.75 L2.66,13.75 Z" id="Shape"></path>
            </g>
        </g>
    </g>
</svg>