<svg width="20px" height="20px" viewBox="0 0 41 41" xmlns="http://www.w3.org/2000/svg" xmlns:xlink="http://www.w3.org/1999/xlink">
    <g stroke="none" stroke-width="1" fill="none" fill-rule="evenodd">
        <g transform="translate(1.000000, 1.000000)">
            <g stroke="#00C1DE" stroke-width="1.6">
                <rect fill="#FFFFFF" fill-rule="nonzero" x="0.6" y="0.6" width="38.4" height="38.4" rx="8"></rect>
                <rect x="0.6" y="0.6" width="38.4" height="38.4" rx="8"></rect>
            </g>
            <g transform="translate(6.500000, 6.500000)" fill="#00C1DE" fill-rule="nonzero">
                <path d="M12.68,19.03 L12.68,14.79 C12.68,14.29 12.48,13.96 12.07,13.81 C11.98,13.79 11.9,13.77 11.83,13.77 L7.91,13.77 C7.78,13.77 7.65,13.75 7.54,13.7 C7.43,13.66 7.32,13.61 7.24,13.53 L6.91,13.2 C6.82,13.11 6.78,13.01 6.74,12.92 C6.69,12.83 6.67,12.7 6.67,12.57 L6.67,8.67 C6.67,8.59 6.65,8.52 6.63,8.43 C6.61,8.35 6.56,8.28 6.52,8.22 C6.48,8.15 6.41,8.09 6.37,8.04 C6.32,8 6.24,7.96 6.17,7.91 C6.11,7.87 6.02,7.85 5.93,7.83 C5.84,7.8 5.76,7.8 5.69,7.8 L1.47,7.8 C1.21,7.8 0.95,7.89 0.71,8.04 C0.47,8.22 0.36,8.41 0.36,8.67 L0.36,12.92 C0.36,13.16 0.47,13.35 0.71,13.53 C0.95,13.7 1.19,13.77 1.47,13.77 L5.69,13.77 C5.76,13.77 5.82,13.77 5.87,13.79 C5.91,13.81 6,13.83 6.04,13.85 C6.11,13.88 6.15,13.92 6.19,13.94 C6.24,13.99 6.3,14.01 6.35,14.05 L6.39,14.07 C6.58,14.29 6.69,14.53 6.69,14.77 L6.69,19.01 C6.69,19.27 6.78,19.54 6.95,19.75 C7.13,19.97 7.32,20.1 7.56,20.1 L11.83,20.1 C12.07,20.1 12.27,20.01 12.44,19.77 C12.59,19.56 12.68,19.32 12.68,19.03 L12.68,19.03 Z M26.48,13.77 L22.58,13.77 L22.58,13.77 C22.32,13.77 22.1,13.68 21.93,13.48 L21.56,13.14 C21.36,12.94 21.25,12.72 21.25,12.46 L21.25,8.57 C21.25,8.33 21.17,8.13 21.02,7.98 C20.84,7.83 20.62,7.76 20.36,7.76 L16.12,7.76 C15.86,7.76 15.66,7.83 15.51,7.98 C15.36,8.13 15.29,8.33 15.29,8.57 L15.29,12.81 C15.29,13.07 15.38,13.29 15.53,13.46 C15.68,13.64 15.88,13.72 16.14,13.72 L20.38,13.72 C20.62,13.72 20.84,13.81 21.06,14.01 L21.04,14.01 C21.21,14.18 21.3,14.4 21.3,14.68 L21.3,18.93 C21.3,19.08 21.34,19.23 21.43,19.36 C21.52,19.49 21.65,19.58 21.78,19.62 C21.93,19.69 22.08,19.71 22.26,19.71 L26.5,19.71 C26.76,19.71 26.94,19.64 27.07,19.51 C27.17,19.38 27.24,19.19 27.24,18.93 L27.24,14.7 C27.24,14.59 27.24,14.51 27.22,14.42 C27.2,14.33 27.17,14.25 27.13,14.16 C27.09,14.07 27.04,14.01 26.98,13.96 C26.91,13.9 26.85,13.85 26.76,13.83 C26.67,13.79 26.59,13.77 26.48,13.77 L26.48,13.77 L26.48,13.77 Z M8.65,12.66 L12.9,12.66 C13.05,12.66 13.2,12.61 13.35,12.5 C13.48,12.4 13.59,12.29 13.66,12.13 C13.72,11.98 13.77,11.81 13.77,11.66 L13.77,7.39 C13.77,7.15 13.88,6.93 14.07,6.72 L14.09,6.65 C14.2,6.54 14.31,6.45 14.42,6.39 C14.53,6.32 14.64,6.3 14.77,6.3 L19.01,6.3 C19.14,6.3 19.27,6.28 19.4,6.26 C19.54,6.21 19.64,6.17 19.75,6.11 C19.86,6.04 19.95,5.95 20.01,5.87 C20.08,5.76 20.12,5.65 20.12,5.54 L20.12,1.3 C20.12,1.06 20.01,0.84 19.77,0.64 C19.54,0.45 19.3,0.36 19.03,0.36 L14.77,0.36 C14.51,0.36 14.29,0.45 14.07,0.64 C13.88,0.82 13.77,1.06 13.77,1.32 L13.77,5.21 C13.77,5.5 13.68,5.71 13.51,5.89 L13.18,6.17 C13.05,6.3 12.83,6.37 12.53,6.37 L8.65,6.37 C8.41,6.37 8.22,6.48 8.04,6.69 C7.89,6.91 7.8,7.17 7.8,7.43 L7.8,11.68 C7.8,11.94 7.89,12.18 8.04,12.37 C8.2,12.57 8.39,12.66 8.65,12.66 L8.65,12.66 Z M19.12,14.9 L14.88,14.9 C14.62,14.9 14.38,15.01 14.14,15.23 C13.9,15.44 13.79,15.66 13.79,15.92 L13.79,19.82 C13.79,19.97 13.77,20.1 13.75,20.21 C13.72,20.32 13.68,20.41 13.59,20.49 L13.29,20.91 C13.18,21.02 13.07,21.1 12.98,21.17 C12.9,21.23 12.79,21.25 12.68,21.25 L8.76,21.25 C8.59,21.25 8.43,21.28 8.28,21.34 C8.13,21.41 8.02,21.49 7.93,21.6 C7.85,21.73 7.8,21.86 7.8,22.04 L7.8,26.28 C7.8,26.41 7.83,26.52 7.89,26.65 C7.93,26.76 8.02,26.87 8.09,26.96 C8.17,27.04 8.28,27.11 8.39,27.15 C8.5,27.2 8.63,27.24 8.76,27.24 L13.01,27.24 C13.48,27.2 13.75,26.89 13.77,26.3 L13.77,22.04 C13.77,21.86 13.88,21.62 14.12,21.36 L14.16,21.43 C14.29,21.3 14.53,21.23 14.86,21.23 L19.1,21.23 C19.23,21.23 19.34,21.19 19.47,21.12 C19.6,21.06 19.69,20.97 19.8,20.86 C19.88,20.75 19.95,20.65 20.01,20.51 C20.08,20.38 20.1,20.25 20.1,20.12 L20.1,15.88 C20.14,15.47 19.95,15.16 19.54,14.96 C19.38,14.92 19.25,14.9 19.12,14.9 L19.12,14.9 Z" id="Shape"></path>
            </g>
        </g>
    </g>
</svg>