<svg width="20px" height="20px" viewBox="0 0 41 41" xmlns="http://www.w3.org/2000/svg" xmlns:xlink="http://www.w3.org/1999/xlink">
    <g stroke="none" stroke-width="1" fill="none" fill-rule="evenodd">
        <g transform="translate(1.000000, 1.000000)">
            <g stroke="#00C1DE" stroke-width="1.6">
                <rect fill="#FFFFFF" fill-rule="nonzero" x="0.6" y="0.6" width="38.4" height="38.4" rx="8"></rect>
                <rect x="0.6" y="0.6" width="38.4" height="38.4" rx="8"></rect>
            </g>
            <g transform="translate(6.500000, 6.500000)" fill="#00C1DE" fill-rule="nonzero">
                <path d="M13.8,0.36 C11.97,0.36 10.23,0.72 8.58,1.42 C6.92,2.12 5.5,3.08 4.29,4.29 C3.1,5.48 2.14,6.92 1.42,8.58 C0.72,10.23 0.36,11.97 0.36,13.8 C0.36,15.63 0.72,17.37 1.42,19.02 C2.12,20.68 3.08,22.1 4.29,23.31 C5.48,24.5 6.92,25.46 8.58,26.18 C10.23,26.88 11.97,27.24 13.8,27.24 C15.63,27.24 17.37,26.88 19.02,26.18 C20.68,25.48 22.1,24.52 23.31,23.31 C24.5,22.12 25.46,20.68 26.18,19.02 C26.88,17.37 27.24,15.63 27.24,13.8 C27.24,11.97 26.88,10.23 26.18,8.58 C25.48,6.92 24.52,5.5 23.31,4.29 C22.1,3.08 20.68,2.14 19.02,1.42 C17.37,0.72 15.63,0.36 13.8,0.36 L13.8,0.36 Z M14.33,13.25 L14.33,7.62 C15.05,7.69 15.84,7.94 16.67,8.39 C17.49,8.83 18.15,9.34 18.6,9.91 L14.33,13.25 L14.33,13.25 L14.33,13.25 Z M13.27,13.25 L7.64,13.25 C7.77,11.83 8.39,10.55 9.47,9.45 C10.57,8.34 11.83,7.73 13.27,7.62 L13.27,13.25 L13.27,13.25 Z M13.27,14.31 L13.27,19.94 C11.85,19.81 10.57,19.19 9.47,18.11 C8.36,17.01 7.75,15.75 7.64,14.31 L13.27,14.31 L13.27,14.31 L13.27,14.31 Z M14.33,14.31 L19.96,14.31 C19.87,15.24 19.58,16.14 19.04,16.96 C18.51,17.79 17.83,18.49 16.98,19.02 C16.16,19.55 15.27,19.85 14.33,19.94 L14.33,14.31 L14.33,14.31 L14.33,14.31 Z M19.53,9.17 C19.17,8.73 18.68,8.3 18.11,7.88 C17.52,7.47 16.88,7.13 16.22,6.88 C15.54,6.62 14.93,6.47 14.35,6.43 L14.35,4.37 C14.9,4.39 15.43,4.48 15.97,4.61 C16.5,4.73 17.01,4.9 17.47,5.09 C17.94,5.29 18.41,5.54 18.85,5.82 C19.3,6.09 19.7,6.41 20.11,6.75 C20.49,7.09 20.85,7.47 21.17,7.88 L19.53,9.17 L19.53,9.17 L19.53,9.17 Z M13.27,6.45 C12.82,6.47 12.38,6.56 11.95,6.67 C11.53,6.77 11.1,6.92 10.72,7.11 C10.34,7.3 9.96,7.52 9.6,7.75 C9.24,8 8.92,8.28 8.62,8.58 C8.32,8.87 8.05,9.21 7.79,9.55 C7.54,9.91 7.32,10.28 7.15,10.68 C6.96,11.06 6.84,11.49 6.71,11.91 C6.6,12.33 6.52,12.78 6.5,13.23 L4.44,13.23 C4.52,11.66 4.97,10.21 5.77,8.9 C6.58,7.58 7.64,6.52 8.96,5.71 C10.28,4.9 11.72,4.46 13.29,4.37 L13.27,6.45 L13.27,6.45 Z M6.47,14.31 C6.6,16.14 7.32,17.69 8.6,18.98 C9.87,20.28 11.44,20.98 13.27,21.1 L13.27,23.16 C10.89,23.04 8.83,22.12 7.15,20.42 C5.48,18.73 4.54,16.69 4.42,14.31 L6.47,14.31 L6.47,14.31 Z M14.33,21.1 C15.52,21.02 16.62,20.66 17.64,20.04 C18.64,19.43 19.47,18.62 20.08,17.6 C20.7,16.6 21.06,15.5 21.15,14.29 L23.21,14.29 C23.08,16.67 22.17,18.73 20.47,20.4 C18.77,22.08 16.73,23.01 14.35,23.14 L14.33,21.1 L14.33,21.1 Z M23.4,6.16 L22.06,7.2 C21.23,6.16 20.06,5.26 18.56,4.48 C17.05,3.69 15.63,3.29 14.31,3.23 L14.31,1.53 C15.86,1.59 17.52,2.08 19.28,2.97 C21.06,3.88 22.44,4.95 23.4,6.16 L23.4,6.16 Z M13.27,1.53 L13.27,3.23 C10.55,3.35 8.24,4.39 6.33,6.31 C4.39,8.24 3.37,10.55 3.25,13.25 L1.55,13.25 C1.61,12 1.85,10.79 2.25,9.62 C2.67,8.45 3.25,7.39 3.97,6.45 C4.69,5.52 5.52,4.67 6.47,3.95 C7.43,3.23 8.47,2.65 9.64,2.23 C10.81,1.83 12.02,1.59 13.27,1.53 L13.27,1.53 Z M1.55,14.31 L3.25,14.31 C3.33,16.09 3.84,17.73 4.73,19.24 C5.65,20.74 6.84,21.95 8.34,22.84 C9.85,23.76 11.49,24.25 13.27,24.33 L13.27,26.03 C11.19,25.94 9.26,25.37 7.49,24.31 C5.73,23.25 4.33,21.85 3.27,20.08 C2.21,18.32 1.63,16.39 1.55,14.31 L1.55,14.31 L1.55,14.31 Z M14.33,26.03 L14.33,24.33 C17.05,24.2 19.36,23.16 21.27,21.25 C23.18,19.34 24.23,17.01 24.35,14.31 L26.05,14.31 C25.99,15.56 25.75,16.77 25.35,17.94 C24.93,19.11 24.35,20.17 23.63,21.1 C22.91,22.06 22.08,22.89 21.13,23.61 C20.17,24.33 19.13,24.9 17.96,25.33 C16.79,25.75 15.58,25.97 14.33,26.03 L14.33,26.03 Z" id="Shape"></path>
            </g>
        </g>
    </g>
</svg>