<svg width="20px" height="20px" viewBox="0 0 41 41" xmlns="http://www.w3.org/2000/svg" xmlns:xlink="http://www.w3.org/1999/xlink">
    <g stroke="none" stroke-width="1" fill="none" fill-rule="evenodd">
        <g transform="translate(1.000000, 1.000000)">
            <g stroke="#00C1DE" stroke-width="1.6">
                <rect fill="#FFFFFF" fill-rule="nonzero" x="0.6" y="0.6" width="38.4" height="38.4" rx="8"></rect>
                <rect x="0.6" y="0.6" width="38.4" height="38.4" rx="8"></rect>
            </g>
            <g transform="translate(6.500000, 7.500000)" fill="#00C1DE" fill-rule="nonzero">
                <path d="M22.52,18.56 C22,18.56 21.57,18.75 21.2,19.1 C20.83,19.47 20.64,19.9 20.64,20.44 C20.64,20.96 20.83,21.39 21.18,21.76 C21.55,22.14 21.98,22.32 22.52,22.32 C22.69,22.32 22.85,22.3 23.02,22.26 C23.18,22.22 23.33,22.16 23.47,22.07 C23.62,21.99 23.74,21.89 23.87,21.79 C23.99,21.66 24.09,21.54 24.18,21.41 C24.26,21.27 24.32,21.12 24.36,20.96 C24.41,20.79 24.43,20.63 24.43,20.44 C24.43,20.17 24.38,19.92 24.28,19.7 C24.18,19.47 24.05,19.26 23.89,19.1 C23.72,18.93 23.52,18.81 23.29,18.7 C23.04,18.62 22.79,18.56 22.52,18.56 L22.52,18.56 Z M22.52,25.09 C22.29,25.09 21.92,25.05 21.38,24.95 L21.32,24.95 C21.2,24.91 20.99,24.8 20.72,24.68 C20.45,24.56 20.25,24.47 20.12,24.41 C20.02,24.37 19.87,24.31 19.69,24.23 C19.17,24 18.76,23.81 18.47,23.71 C18.18,23.58 17.78,23.42 17.29,23.23 C16.79,23.05 16.36,22.88 16.02,22.8 C15.67,22.7 15.3,22.61 14.89,22.53 C14.47,22.45 14.1,22.41 13.79,22.41 C12.84,22.41 11.58,22.72 10,23.36 C10,23.34 10.02,23.32 10.04,23.29 L10.09,23.23 C10.35,22.7 10.54,22.26 10.62,21.95 C10.62,21.93 10.64,21.91 10.67,21.89 C10.69,21.87 10.71,21.85 10.71,21.83 C10.79,21.29 10.85,20.81 10.85,20.42 C10.87,20.17 10.89,19.88 10.93,19.55 C10.98,19.22 11.02,18.97 11.04,18.75 C11.08,18.54 11.12,18.23 11.18,17.84 C12.2,18.19 13.07,18.37 13.81,18.37 C14.37,18.37 15.05,18.27 15.86,18.04 C16.67,17.81 17.35,17.59 17.93,17.36 C18.51,17.13 19.23,16.82 20.08,16.43 C20.43,16.24 20.85,16.08 21.3,15.89 C21.57,15.81 21.98,15.75 22.52,15.75 C24.12,15.75 25.36,16.37 26.31,17.63 C26.93,18.48 27.24,19.43 27.24,20.48 C27.24,21.81 26.78,22.9 25.89,23.79 C24.94,24.66 23.85,25.09 22.52,25.09 L22.52,25.09 Z M6.71,21.21 C6.98,20.77 7.04,20.3 6.9,19.8 C6.75,19.3 6.46,18.91 6.03,18.64 C5.6,18.37 5.12,18.31 4.62,18.46 C4.13,18.6 3.73,18.89 3.46,19.32 C3.19,19.76 3.13,20.23 3.28,20.73 C3.42,21.23 3.71,21.62 4.15,21.89 C4.29,21.97 4.44,22.05 4.6,22.1 C4.77,22.14 4.91,22.16 5.08,22.18 C5.24,22.18 5.39,22.16 5.55,22.12 C5.72,22.07 5.86,22.01 6.01,21.93 C6.15,21.85 6.28,21.74 6.4,21.62 C6.51,21.5 6.61,21.35 6.71,21.21 L6.71,21.21 Z M0.98,17.9 C1.25,17.44 1.48,17.13 1.66,16.95 L1.66,16.88 C1.89,16.74 2.22,16.51 2.68,16.14 C2.99,15.91 3.22,15.75 3.36,15.64 C3.51,15.54 3.73,15.35 4.04,15.13 C4.35,14.9 4.58,14.71 4.77,14.57 C4.95,14.42 5.16,14.24 5.43,14.01 C5.7,13.78 5.91,13.6 6.09,13.41 C6.26,13.22 6.44,13.04 6.65,12.83 C6.84,12.62 7.02,12.42 7.17,12.21 C7.31,12 7.44,11.82 7.54,11.61 C8.02,10.76 8.39,9.52 8.62,7.83 C8.62,7.85 8.64,7.87 8.66,7.89 C8.68,7.91 8.7,7.93 8.7,7.95 C8.82,8.2 9.09,8.57 9.51,9.09 L9.65,9.23 C9.73,9.29 9.92,9.44 10.17,9.63 C10.44,9.81 10.64,9.98 10.79,10.1 C11.2,10.41 11.89,10.93 12.88,11.65 C12.49,12 12.15,12.33 11.87,12.69 C11.58,13.02 11.33,13.35 11.12,13.68 C10.85,14.15 10.6,14.8 10.42,15.58 C10.21,16.37 10.06,17.09 9.98,17.77 C9.9,18.44 9.8,19.2 9.71,20.09 C9.69,20.23 9.67,20.46 9.65,20.75 C9.63,21.04 9.61,21.25 9.59,21.37 C9.44,21.81 9.28,22.18 9.11,22.45 C8.47,23.56 7.52,24.29 6.26,24.64 C5,24.99 3.82,24.85 2.7,24.2 C2.16,23.92 1.73,23.54 1.35,23.05 C0.98,22.55 0.71,22.03 0.57,21.45 C0.42,20.88 0.36,20.28 0.44,19.66 C0.46,19.06 0.65,18.46 0.98,17.9 L0.98,17.9 Z M12.13,6.34 C12.4,6.77 12.8,7.06 13.29,7.21 C13.79,7.35 14.27,7.27 14.7,7.02 C15.13,6.75 15.42,6.36 15.57,5.86 C15.71,5.37 15.63,4.89 15.38,4.46 C15.2,4.17 14.97,3.94 14.68,3.77 C14.39,3.61 14.08,3.53 13.77,3.53 C13.46,3.53 13.15,3.61 12.84,3.79 C12.4,4.04 12.11,4.39 11.97,4.89 C11.82,5.39 11.87,5.86 12.13,6.34 L12.13,6.34 Z M17.87,3.03 C17.91,3.11 17.97,3.19 18.01,3.28 C18.05,3.36 18.09,3.44 18.14,3.55 C18.18,3.63 18.22,3.73 18.24,3.81 C18.28,3.9 18.3,4 18.34,4.1 L18.34,4.17 C18.36,4.31 18.38,4.52 18.4,4.81 C18.42,5.1 18.45,5.3 18.47,5.45 C18.49,5.55 18.51,5.8 18.55,6.17 C18.59,6.54 18.63,6.81 18.65,6.96 C18.67,7.1 18.71,7.37 18.76,7.72 C18.8,8.07 18.84,8.34 18.88,8.53 C18.92,8.72 18.96,8.96 19.02,9.27 C19.09,9.58 19.13,9.83 19.19,10.04 C19.25,10.25 19.31,10.47 19.38,10.7 C19.44,10.93 19.52,11.16 19.6,11.36 C19.69,11.55 19.77,11.74 19.87,11.9 C20.14,12.36 20.49,12.83 20.97,13.33 C21.45,13.82 21.98,14.28 22.56,14.73 L22.46,14.73 C21.98,14.73 21.51,14.8 21.05,14.94 C21.01,14.94 20.97,14.96 20.91,15 C20.78,15.04 20.66,15.09 20.54,15.15 C20.41,15.21 20.25,15.27 20.06,15.35 C19.87,15.44 19.73,15.5 19.63,15.54 C18.88,15.87 18.07,16.22 17.2,16.55 C17.1,16.02 16.96,15.54 16.83,15.11 C16.69,14.67 16.52,14.3 16.33,13.99 C16.07,13.51 15.61,12.98 15.01,12.38 C14.39,11.78 13.85,11.3 13.4,10.97 C12.94,10.62 12.3,10.14 11.47,9.54 C11.2,9.36 10.85,9.09 10.4,8.74 C10.25,8.59 10.13,8.45 10,8.28 C9.88,8.12 9.75,7.95 9.65,7.79 C9.24,7 9.03,6.21 9.03,5.43 C9.03,4.62 9.22,3.86 9.65,3.13 C10.06,2.39 10.67,1.81 11.41,1.4 C12.55,0.69 13.77,0.51 15.03,0.82 C16.27,1.15 17.22,1.89 17.87,3.03 L17.87,3.03 Z" id="Shape"></path>
            </g>
        </g>
    </g>
</svg>