<svg width="20px" height="20px" viewBox="0 0 41 41" xmlns="http://www.w3.org/2000/svg" xmlns:xlink="http://www.w3.org/1999/xlink">
    <g stroke="none" stroke-width="1" fill="none" fill-rule="evenodd">
        <g transform="translate(1.000000, 1.000000)">
            <g stroke="#00C1DE" stroke-width="1.6">
                <rect fill="#FFFFFF" fill-rule="nonzero" x="0.6" y="0.6" width="38.4" height="38.4" rx="8"></rect>
                <rect x="0.6" y="0.6" width="38.4" height="38.4" rx="8"></rect>
            </g>
            <g transform="translate(6.500000, 8.500000)" fill="#00C1DE" fill-rule="nonzero">
                <path d="M16.74,5.96 C15.77,5.84 14.78,5.76 13.81,5.76 C12.98,5.76 12.15,5.8 11.31,5.9 C10.46,5.98 9.63,6.12 8.78,6.28 C8.26,6.38 7.71,6.53 7.17,6.67 C6.62,6.83 6.1,6.99 5.61,7.15 C5.13,7.31 4.62,7.52 4.08,7.72 C3.63,7.92 3.17,8.14 2.66,8.4 C2.16,8.67 1.77,8.87 1.49,9.05 L1.07,9.29 C0.74,9.5 0.54,9.78 0.44,10.18 C0.36,10.57 0.4,10.93 0.6,11.25 L4.58,17.14 C4.8,17.46 5.13,17.66 5.51,17.76 C5.89,17.86 6.28,17.8 6.6,17.6 C6.62,17.58 6.68,17.56 6.74,17.52 C6.8,17.48 6.94,17.42 7.17,17.3 C7.39,17.18 7.63,17.07 7.91,16.95 C8.74,16.59 9.69,16.31 10.72,16.1 C11.81,15.88 12.8,15.78 13.73,15.78 L16.6,6.04 L16.74,5.96 Z M20.39,6.67 L19.87,0.99 L16.74,5.96 C17.12,6 17.83,6.1 18.82,6.28 L20.39,6.67 Z M13.93,15.82 L12.56,20.53 L14.84,22.61 L17.97,21.89 L18.88,16.59 C18.01,16.33 17.36,16.15 16.92,16.06 C16.74,16.04 16.6,16.02 16.5,16 C16.4,15.98 16.25,15.98 16.09,15.94 C15.91,15.92 15.77,15.9 15.67,15.9 C15.55,15.88 15.43,15.88 15.24,15.86 C15.08,15.84 14.94,15.84 14.8,15.82 C14.68,15.82 14.54,15.8 14.38,15.8 C14.21,15.82 14.07,15.82 13.93,15.82 L13.93,15.82 Z M26.53,9.29 C25.52,8.69 24.53,8.16 23.52,7.72 C22.29,7.23 21.26,6.87 20.45,6.67 L20.45,6.93 L18.76,16.59 C18.84,16.63 18.98,16.69 19.18,16.75 C19.38,16.81 19.53,16.87 19.61,16.91 C19.87,17.03 20.11,17.14 20.33,17.26 C20.56,17.36 20.7,17.44 20.78,17.5 C20.86,17.56 20.9,17.58 20.9,17.58 C21.22,17.78 21.59,17.84 22.01,17.74 C22.43,17.66 22.74,17.44 22.92,17.12 L26.9,11.23 C27.16,10.87 27.24,10.51 27.16,10.12 C27.12,9.76 26.9,9.48 26.53,9.29 L26.53,9.29 Z" id="Shape"></path>
            </g>
        </g>
    </g>
</svg>