<svg width="20px" height="20px" viewBox="0 0 41 41" xmlns="http://www.w3.org/2000/svg" xmlns:xlink="http://www.w3.org/1999/xlink">
    <g stroke="none" stroke-width="1" fill="none" fill-rule="evenodd">
        <g transform="translate(1.000000, 1.000000)">
            <g stroke="#00C1DE" stroke-width="1.6">
                <rect fill="#FFFFFF" fill-rule="nonzero" x="0.6" y="0.6" width="38.4" height="38.4" rx="8"></rect>
                <rect x="0.6" y="0.6" width="38.4" height="38.4" rx="8"></rect>
            </g>
            <g transform="translate(6.500000, 7.500000)" fill="#29B8D4" fill-rule="nonzero">
                <path d="M1.4,4 C1.66,4 1.85,4.12 2.05,4.23 C5.76,6.4 9.46,8.57 13.15,10.75 C14.1,11.31 14.08,12.06 13.13,12.6 C12.57,12.92 12.01,13.22 11.44,13.54 C10.69,13.97 10.58,14.23 10.8,15.07 C11.49,17.73 12.2,20.38 12.89,23.05 C12.94,23.17 12.96,23.3 12.98,23.43 C13.11,23.95 12.91,24.31 12.42,24.53 C11.94,24.72 11.55,24.53 11.32,24.12 C10.77,23.22 10.26,22.29 9.74,21.39 C6.73,16.12 3.71,10.85 0.71,5.59 C0.47,5.16 0.36,4.75 0.66,4.32 C0.84,4.1 1.09,3.97 1.4,4 Z"></path>
                <path d="M16.46,21.22 C16.8,19.95 17.17,18.57 17.54,17.18 C17.75,16.34 17.95,15.5 18.19,14.68 C18.36,14.1 18.16,13.71 17.67,13.43 C17.15,13.13 16.61,12.83 16.11,12.51 C15.4,12.04 15.38,11.28 16.11,10.85 C19.27,8.98 22.44,7.16 25.6,5.31 C26.03,5.05 26.46,5.01 26.85,5.37 C27.24,5.76 27.15,6.19 26.92,6.62 C24,11.69 21.08,16.77 18.19,21.84 C17.93,22.31 17.52,22.44 17.04,22.31 C16.59,22.16 16.41,21.82 16.46,21.22 Z"></path>
                <path d="M18.29,4.32 C18.29,6.3 16.8,7.78 14.82,7.78 C12.87,7.78 11.38,6.3 11.36,4.36 C11.36,2.4 12.87,0.88 14.84,0.9 C16.78,0.88 18.29,2.38 18.29,4.32 Z"></path>
            </g>
        </g>
    </g>
</svg>