<svg width="20px" height="20px" viewBox="0 0 41 41" xmlns="http://www.w3.org/2000/svg" xmlns:xlink="http://www.w3.org/1999/xlink">
    <g stroke="none" stroke-width="1" fill="none" fill-rule="evenodd">
        <g transform="translate(1.000000, 1.000000)">
            <g stroke="#00C1DE" stroke-width="1.6">
                <rect fill="#FFFFFF" fill-rule="nonzero" x="0.6" y="0.6" width="38.4" height="38.4" rx="8"></rect>
                <rect x="0.6" y="0.6" width="38.4" height="38.4" rx="8"></rect>
            </g>
            <g transform="translate(6.500000, 11.500000)" fill="#00C1DE" fill-rule="nonzero">
                <path d="M11.35,11.07 C11.33,10.95 11.31,10.76 11.27,10.54 C11.23,10.31 11.08,9.93 10.85,9.36 C10.62,8.79 10.32,8.28 9.96,7.86 C9.61,7.42 9.08,7.03 8.39,6.68 C7.69,6.32 6.9,6.15 5.99,6.15 C3.53,6.15 1.83,7.27 0.89,9.51 C0.53,10.35 0.36,11.09 0.36,11.77 C0.36,11.96 0.36,12.13 0.36,12.24 C0.36,12.36 0.38,12.57 0.42,12.89 C0.47,13.21 0.51,13.48 0.57,13.72 C0.63,13.95 0.72,14.24 0.86,14.58 C1.01,14.92 1.16,15.24 1.33,15.49 C1.52,15.74 1.75,16 2.04,16.29 C2.34,16.57 2.67,16.8 3.03,16.97 C3.41,17.14 3.85,17.29 4.37,17.41 C4.9,17.54 5.47,17.58 6.1,17.58 L21.29,17.58 C21.38,17.58 21.48,17.58 21.63,17.56 C21.78,17.54 22.05,17.5 22.47,17.41 C22.89,17.33 23.27,17.2 23.65,17.06 C24.02,16.91 24.44,16.67 24.89,16.36 C25.35,16.04 25.73,15.68 26.06,15.26 C26.4,14.84 26.67,14.31 26.9,13.63 C27.13,12.95 27.24,12.21 27.24,11.41 C27.24,10.59 27.11,9.85 26.86,9.17 C26.61,8.49 26.29,7.92 25.92,7.5 C25.54,7.08 25.1,6.68 24.59,6.34 C24.09,6 23.63,5.75 23.16,5.58 C22.7,5.41 22.26,5.26 21.8,5.15 C21.36,5.05 21,4.98 20.77,4.94 C20.54,4.9 20.37,4.9 20.28,4.9 C20.26,4.84 20.24,4.73 20.22,4.62 C20.2,4.52 20.12,4.29 19.99,3.95 C19.86,3.61 19.72,3.29 19.53,2.98 C19.36,2.66 19.09,2.32 18.77,1.94 C18.43,1.56 18.06,1.24 17.66,0.97 C17.24,0.69 16.73,0.46 16.1,0.29 C15.47,0.1 14.8,0.02 14.06,0.02 C13.33,0.02 12.65,0.12 12.02,0.31 C11.39,0.5 10.89,0.76 10.49,1.05 C10.09,1.35 9.71,1.69 9.4,2.07 C9.08,2.43 8.83,2.81 8.64,3.17 C8.47,3.53 8.33,3.86 8.2,4.18 C8.09,4.48 8.01,4.73 7.97,4.92 L7.9,5.22 C7.9,5.22 8.37,5.47 9.27,5.98 C9.38,6.06 9.44,6.13 9.46,6.17 C9.48,6.06 9.54,5.91 9.61,5.72 C9.67,5.53 9.84,5.2 10.07,4.73 C10.32,4.24 10.59,3.82 10.91,3.46 C11.23,3.1 11.65,2.76 12.19,2.47 C12.74,2.17 13.33,2.02 13.94,2.02 C14.74,2.02 15.45,2.19 16.1,2.51 C16.75,2.83 17.28,3.25 17.66,3.76 C18.03,4.27 18.33,4.79 18.54,5.36 C18.75,5.94 18.85,6.49 18.85,7.01 C18.85,7.03 18.94,7.03 19.06,7.01 C19.21,6.99 19.4,7.01 19.63,7.03 C19.86,7.06 20.16,7.1 20.47,7.12 C20.79,7.14 21.1,7.2 21.46,7.33 C21.82,7.44 22.15,7.56 22.51,7.69 C22.87,7.82 23.18,8.01 23.5,8.24 C23.81,8.47 24.09,8.75 24.34,9.02 C24.57,9.32 24.78,9.66 24.91,10.1 C25.05,10.52 25.12,10.99 25.12,11.5 C25.12,11.94 25.08,12.34 24.99,12.7 C24.91,13.08 24.78,13.38 24.63,13.65 C24.49,13.91 24.32,14.14 24.13,14.35 C23.94,14.56 23.73,14.73 23.52,14.86 C23.31,14.98 23.1,15.09 22.87,15.19 C22.66,15.28 22.45,15.36 22.26,15.41 C22.07,15.45 21.9,15.49 21.75,15.51 C21.61,15.53 21.48,15.55 21.4,15.55 C21.31,15.55 21.27,15.55 21.27,15.55 L6.2,15.55 C6.14,15.55 6.08,15.55 5.97,15.58 C5.87,15.6 5.7,15.58 5.42,15.53 C5.15,15.51 4.9,15.45 4.65,15.39 C4.4,15.32 4.12,15.19 3.83,15.03 C3.53,14.86 3.26,14.65 3.05,14.41 C2.84,14.16 2.65,13.84 2.5,13.42 C2.36,13 2.27,12.53 2.27,12 C2.27,11.96 2.27,11.92 2.27,11.88 C2.27,11.83 2.29,11.71 2.31,11.54 C2.34,11.37 2.38,11.2 2.42,11.03 C2.46,10.86 2.52,10.67 2.63,10.44 C2.73,10.21 2.84,9.99 2.95,9.8 C3.07,9.61 3.22,9.4 3.41,9.21 C3.6,9.02 3.81,8.83 4.06,8.7 C4.29,8.56 4.58,8.45 4.9,8.37 C5.24,8.28 5.59,8.24 5.97,8.24 C6.06,8.24 6.18,8.24 6.35,8.26 C6.5,8.28 6.77,8.35 7.17,8.47 C7.57,8.6 7.93,8.77 8.24,9 C8.56,9.23 8.85,9.59 9.12,10.08 C9.4,10.59 9.57,11.16 9.61,11.85 L9.71,13.27 L20.37,13.29 L20.37,11.33 L18.71,11.33 L18.71,9.85 L16.82,9.85 L16.82,11.31 L16.1,11.31 L16.1,9.85 L14.13,9.85 L14.13,11.26 L11.35,11.07 L11.35,11.07 L11.35,11.07 L11.35,11.07 Z"></path>
            </g>
        </g>
    </g>
</svg>