<svg width="20px" height="20px" viewBox="0 0 41 41" xmlns="http://www.w3.org/2000/svg" xmlns:xlink="http://www.w3.org/1999/xlink">
    <g stroke="none" stroke-width="1" fill="none" fill-rule="evenodd">
        <g transform="translate(1.000000, 1.000000)">
            <g stroke="#00C1DE" stroke-width="1.6">
                <rect fill="#FFFFFF" fill-rule="nonzero" x="0.6" y="0.6" width="38.4" height="38.4" rx="8"></rect>
                <rect x="0.6" y="0.6" width="38.4" height="38.4" rx="8"></rect>
            </g>
            <g transform="translate(6.500000, 8.500000)" fill="#00C1DE" fill-rule="nonzero">
                <path d="M6.58,14.31 L10.83,14.88 L10.27,10.92 L9.04,12.05 C7.97,10.92 7.43,9.42 7.43,7.55 C7.43,5.94 8.02,4.61 9.22,3.52 C10.42,2.44 11.79,1.91 13.39,1.91 C14.85,1.91 16.2,2.46 17.44,3.55 C18.69,4.63 19.32,5.7 19.32,6.7 L19.32,6.7 C19.32,6.7 19.34,6.7 19.41,6.7 L19.32,7.18 C19.36,7.18 19.41,7.16 19.49,7.16 C19.58,7.16 19.76,7.16 20.06,7.18 C20.37,7.2 20.69,7.24 21.09,7.31 C21.04,7.13 21.02,6.94 21.02,6.7 C21.02,6.39 20.96,6 20.83,5.52 C20.69,5.05 20.43,4.5 20.06,3.87 C19.69,3.24 19.23,2.65 18.69,2.13 C18.14,1.61 17.4,1.15 16.48,0.78 C15.55,0.41 14.52,0.22 13.39,0.22 C12.43,0.22 11.51,0.37 10.68,0.65 C9.85,0.94 9.13,1.33 8.52,1.83 C7.91,2.33 7.43,2.87 6.99,3.52 C6.56,4.15 6.25,4.83 6.05,5.5 C5.86,6.2 5.75,6.87 5.75,7.55 C5.75,9.85 6.43,11.75 7.78,13.22 L6.58,14.31 Z M17.07,18.66 L16.24,14.36 L12.4,16.36 L13.87,17.07 C13.73,17.36 13.6,17.64 13.43,17.92 C13.25,18.23 12.99,18.6 12.62,19.08 C12.25,19.55 11.86,19.97 11.47,20.32 C11.07,20.66 10.55,20.97 9.94,21.25 C9.33,21.51 8.69,21.64 8.02,21.64 C7.06,21.64 6.19,21.45 5.4,21.06 C4.61,20.66 3.98,20.16 3.52,19.53 C3.07,18.9 2.69,18.25 2.45,17.53 C2.21,16.81 2.08,16.12 2.08,15.42 C2.08,14.18 2.39,13.12 3,12.25 C3.61,11.38 4.35,10.75 5.18,10.42 L4.9,9.53 L4.75,8.55 C4.64,8.59 4.46,8.68 4.27,8.79 C4.07,8.9 3.72,9.14 3.22,9.53 C2.72,9.92 2.28,10.35 1.89,10.83 C1.49,11.31 1.15,11.96 0.84,12.79 C0.53,13.62 0.36,14.51 0.36,15.44 C0.36,17.88 1.1,19.79 2.56,21.21 C4.03,22.62 5.84,23.34 8,23.34 C9.79,23.34 11.38,22.77 12.73,21.64 C14.08,20.51 15,19.27 15.48,17.88 L17.07,18.66 L17.07,18.66 L17.07,18.66 Z M19.6,8.09 C18.32,8.09 17.23,8.29 16.31,8.68 L15.59,7.24 L13.63,11.11 L17.95,12.01 L17.05,10.24 C17.77,9.96 18.62,9.81 19.58,9.81 C20.72,9.81 21.72,10.07 22.64,10.61 C23.55,11.16 24.25,11.88 24.75,12.77 C25.25,13.66 25.52,14.66 25.52,15.73 C25.52,17.38 24.91,18.79 23.66,19.95 C22.42,21.1 21.07,21.66 19.58,21.66 C19.19,21.66 18.82,21.64 18.47,21.58 C18.12,21.51 17.81,21.42 17.55,21.34 C17.29,21.23 17.05,21.12 16.83,21.01 C16.61,20.88 16.42,20.77 16.29,20.64 C16.13,20.53 16.03,20.4 15.92,20.32 C15.81,20.21 15.74,20.14 15.7,20.08 C15.65,20.01 15.63,19.99 15.63,19.99 L14.5,21.4 C15.83,22.64 17.53,23.3 19.6,23.38 C22.18,23.38 24.19,22.4 25.67,20.45 C26.72,19.05 27.24,17.49 27.24,15.75 C27.24,14.79 27.07,13.88 26.72,12.96 C26.37,12.07 25.89,11.25 25.25,10.53 C24.62,9.81 23.81,9.22 22.83,8.79 C21.87,8.31 20.78,8.09 19.6,8.09 L19.6,8.09 Z" id="Shape"></path>
            </g>
        </g>
    </g>
</svg>