<svg xmlns="http://www.w3.org/2000/svg" xmlns:xlink="http://www.w3.org/1999/xlink" x="0" y="0" height="20px" width="20px" viewBox="0 0 75 75">
<defs>
<linearGradient id="PurpleGradient-5a530f4b-6e8f-42da-a692-4ab74c3c54c9" x1="13.3" y1="28.09" x2="13.3" y2="-121.91" gradientTransform="translate(-5.07 61.27) rotate(45)" gradientUnits="userSpaceOnUse">
<stop offset="0" stop-color="#4d27a8"></stop>
<stop offset="1" stop-color="#a166ff"></stop>
</linearGradient>
</defs>
<g>
<rect data-name="Purple Gradient" style="fill:url(#PurpleGradient-5a530f4b-6e8f-42da-a692-4ab74c3c54c9);" width="75" height="75"></rect>
<g data-name="Icon Test">
<path fill="#fff" d="M21.23,26.23l-1-1.76,5.87-3.19,1,1.76Zm9.38-5.11-1-1.76,5.26-2.88,1,1.76Z"></path>
<path fill="#fff" d="M36,35.59,30.7,32.82l.92-1.77,5.32,2.77ZM27.15,31,21.83,28.2l.92-1.77,5.32,2.77Z"></path>
<path fill="#fff" d="M39.92,35.47,39,33.67,44.43,31l.88,1.79Zm9-4.41L48,29.27l5.38-2.65.88,1.8Z"></path>
<path fill="#fff" d="M35.41,59.16l-6-3.17.93-1.77,6,3.17Zm-9-4.66-5.28-2.84.95-1.76,5.28,2.84Z"></path>
<rect fill="#fff" x="19.04" y="28.84" width="2" height="7.7"></rect>
<rect fill="#fff" x="36.6" y="48.79" width="2" height="7.88"></rect>
<path fill="#fff" d="M20,29.64a2.71,2.71,0,0,1-2.7-2.71A2.69,2.69,0,0,1,18.13,25,2.77,2.77,0,0,1,22,25h0a2.68,2.68,0,0,1,0,3.82A2.65,2.65,0,0,1,20,29.64Zm0-3.41a.68.68,0,0,0-.7.7.7.7,0,0,0,.2.5.71.71,0,0,0,1.21-.5.75.75,0,0,0-.21-.5A.74.74,0,0,0,20,26.23Z"></path>
<path fill="#fff" d="M20,52a2.71,2.71,0,0,1-1.91-4.62,2.77,2.77,0,0,1,3.82,0h0a2.69,2.69,0,0,1,0,3.83A2.67,2.67,0,0,1,20,52Zm0-3.41a.7.7,0,0,0-.7.71.7.7,0,0,0,1.2.49.69.69,0,0,0,0-1h0A.7.7,0,0,0,20,48.63Z"></path>
<path fill="#fff" d="M37.6,61a2.7,2.7,0,1,1,1.91-4.61A2.7,2.7,0,0,1,37.6,61Zm0-3.4a.74.74,0,0,0-.5.2.71.71,0,1,0,1,0A.74.74,0,0,0,37.6,57.59Z"></path>
<path fill="#fff" d="M37.6,38.57a2.71,2.71,0,1,1,1.91-.79A2.71,2.71,0,0,1,37.6,38.57Zm0-3.41a.71.71,0,0,0-.5,1.2.72.72,0,0,0,1,0,.71.71,0,0,0-.5-1.2Z"></path>
<path fill="#fff" d="M55,52a2.65,2.65,0,0,1-1.91-.79,2.7,2.7,0,0,1,0-3.83,2.77,2.77,0,0,1,3.82,0A2.71,2.71,0,0,1,55,52Zm0-3.41a.71.71,0,1,0,.5.21A.7.7,0,0,0,55,48.63Z"></path>
<path fill="#fff" d="M55,29.64a2.65,2.65,0,0,1-1.91-.8,2.69,2.69,0,0,1,0-3.82,2.77,2.77,0,0,1,3.82,0h0a2.71,2.71,0,0,1,0,3.82A2.65,2.65,0,0,1,55,29.64Zm0-3.41a.74.74,0,0,0-.5.2.72.72,0,0,0,0,1,.71.71,0,0,0,1,0,.72.72,0,0,0,0-1A.74.74,0,0,0,55,26.23Z"></path>
<path fill="#fff" d="M37.6,19.41a2.7,2.7,0,1,1,1.91-4.61,2.7,2.7,0,0,1-1.91,4.61Zm0-3.4a.74.74,0,0,0-.5.2.71.71,0,1,0,1,0A.74.74,0,0,0,37.6,16Z"></path>
<rect fill="#fff" x="19.04" y="38.54" width="2" height="8.65"></rect>
<rect fill="#fff" x="53.85" y="28.84" width="2" height="7.7"></rect>
<rect fill="#fff" x="53.85" y="38.54" width="2" height="8.65"></rect>
<path fill="#fff" d="M48.15,23l1-1.75,5.74,3.06-1,1.76Zm-9.59-5.19,1-1.75,6.08,3.27-1,1.75Z"></path>
<rect fill="#fff" x="36.6" y="37.75" width="2" height="7.91"></rect>
<path fill="#fff" d="M38.91,57.4l5.78-3,.93,1.78-5.78,3Zm8.74-4.49,5.72-3,1,1.76-5.72,3Z"></path>
</g>
</g>
</svg>