<svg width="20px" height="20px" viewBox="0 0 41 41" xmlns="http://www.w3.org/2000/svg" xmlns:xlink="http://www.w3.org/1999/xlink">
    <g stroke="none" stroke-width="1" fill="none" fill-rule="evenodd">
        <g transform="translate(1.000000, 1.000000)">
            <g stroke="#00C1DE" stroke-width="1.6">
                <rect fill="#FFFFFF" fill-rule="nonzero" x="0.6" y="0.6" width="38.4" height="38.4" rx="8"></rect>
                <rect x="0.6" y="0.6" width="38.4" height="38.4" rx="8"></rect>
            </g>
            <g transform="translate(6.500000, 6.500000)" fill="#00C1DE" fill-rule="nonzero">
                <path d="M25.46,13.8 L26.7,11.2 C27.02,10.48 27.04,9.76 26.8,9.02 C26.54,8.28 26.06,7.73 25.37,7.36 L21.8,5.66 L20.1,2.08 C19.8,1.36 19.25,0.88 18.49,0.62 C17.73,0.36 16.99,0.4 16.27,0.75 L13.72,2.02 L11.13,0.77 C10.63,0.58 10.15,0.49 9.68,0.53 C9.2,0.56 8.74,0.71 8.3,0.99 C7.87,1.28 7.54,1.65 7.3,2.11 L5.69,5.77 L2.12,7.39 C1.4,7.73 0.93,8.3 0.64,9.04 C0.36,9.79 0.38,10.51 0.71,11.23 L1.95,13.82 L0.73,16.4 C0.43,17.12 0.4,17.84 0.66,18.58 C0.95,19.32 1.43,19.87 2.14,20.24 L5.71,21.94 L7.41,25.52 C7.72,26.24 8.26,26.72 9.02,26.98 C9.78,27.24 10.52,27.2 11.24,26.85 L13.83,25.6 L16.42,26.85 C17.14,27.17 17.86,27.2 18.6,26.96 C19.34,26.69 19.88,26.21 20.25,25.52 L21.95,21.94 L25.52,20.24 C26.24,19.93 26.72,19.39 26.98,18.62 C27.24,17.86 27.2,17.12 26.85,16.4 L25.46,13.8 Z M13.72,25.21 L2.32,13.8 L13.7,2.39 L25.11,13.8 L13.72,25.21 Z" id="Shape"></path>
            </g>
        </g>
    </g>
</svg>