<svg width="20px" height="20px" viewBox="0 0 41 41" xmlns="http://www.w3.org/2000/svg" xmlns:xlink="http://www.w3.org/1999/xlink">
    <g stroke="none" stroke-width="1" fill="none" fill-rule="evenodd">
        <g transform="translate(1.000000, 1.000000)">
            <g stroke="#00C1DE" stroke-width="1.6">
                <rect fill="#FFFFFF" fill-rule="nonzero" x="0.6" y="0.6" width="38.4" height="38.4" rx="8"></rect>
                <rect x="0.6" y="0.6" width="38.4" height="38.4" rx="8"></rect>
            </g>
            <g transform="translate(6.500000, 6.500000)" fill="#00C1DE" fill-rule="nonzero">
                <path d="M10.88,0.78 L11.79,7.17 C13.31,6.97 14.48,6.97 15.32,7.17 L16.23,0.78 C16.17,0.76 16.07,0.72 15.97,0.68 C15.87,0.64 15.61,0.58 15.24,0.52 C14.86,0.44 14.48,0.4 14.09,0.38 C13.71,0.36 13.2,0.38 12.64,0.44 C12.03,0.5 11.45,0.6 10.88,0.78 L10.88,0.78 Z M11.79,20.47 L10.88,26.86 C11.77,27.12 12.7,27.24 13.63,27.24 C14.56,27.22 15.18,27.18 15.51,27.1 C15.83,27.02 16.07,26.94 16.23,26.88 L16.23,26.88 L15.32,20.47 L11.79,20.47 L11.79,20.47 Z M20.45,12.2 C20.66,13.72 20.66,14.89 20.45,15.72 L26.86,16.63 C26.92,16.45 27,16.21 27.08,15.9 C27.16,15.6 27.22,14.97 27.22,14.04 C27.24,13.11 27.12,12.2 26.84,11.29 L20.45,12.2 Z M7.17,12.2 L0.76,11.29 C0.5,12.18 0.36,13.09 0.38,14.04 C0.4,14.97 0.44,15.6 0.52,15.9 C0.6,16.21 0.68,16.45 0.74,16.63 L0.74,16.63 L7.15,15.72 C7.09,15.48 7.04,15.19 7.02,14.87 C7,14.55 7,14.22 7,13.92 C7.02,13.62 7.02,13.34 7.04,13.07 C7.06,12.81 7.09,12.59 7.11,12.43 L7.17,12.2 Z M19.42,10.38 L23.16,8.12 C23.1,7.92 23,7.66 22.86,7.35 C22.72,7.05 22.35,6.56 21.79,5.9 C21.2,5.25 20.56,4.77 19.81,4.48 L17.24,8.12 C17.26,8.14 17.3,8.16 17.34,8.18 C17.38,8.2 17.47,8.26 17.59,8.36 C17.71,8.46 17.83,8.55 17.95,8.65 C18.07,8.75 18.21,8.87 18.35,9.01 C18.52,9.15 18.66,9.29 18.78,9.43 C18.9,9.58 19.02,9.74 19.14,9.9 C19.26,10.06 19.34,10.22 19.42,10.38 L19.42,10.38 L19.42,10.38 Z M4.3,8.12 L8.03,10.38 C8.18,10.04 8.42,9.68 8.78,9.31 C9.14,8.93 9.47,8.65 9.75,8.44 C10.03,8.24 10.17,8.14 10.2,8.14 L7.67,4.52 C7.21,4.71 6.76,4.95 6.36,5.27 C5.95,5.59 5.63,5.9 5.39,6.2 C5.15,6.5 4.94,6.81 4.76,7.15 C4.58,7.49 4.46,7.72 4.4,7.86 C4.36,7.94 4.34,8.04 4.3,8.12 L4.3,8.12 Z M17.08,19.88 L19.61,23.5 C20.07,23.32 20.51,23.08 20.92,22.75 C21.32,22.43 21.65,22.13 21.89,21.82 C22.13,21.52 22.33,21.22 22.51,20.87 C22.7,20.53 22.82,20.31 22.88,20.17 C22.94,20.02 22.96,19.94 22.98,19.86 L22.98,19.86 L19.24,17.6 C19.1,17.94 18.86,18.31 18.5,18.67 C18.13,19.05 17.81,19.34 17.51,19.54 L17.08,19.88 L17.08,19.88 L17.08,19.88 Z M7.91,17.62 L4.18,19.88 C4.2,19.92 4.2,19.96 4.24,20.05 C4.26,20.11 4.32,20.25 4.42,20.43 C4.52,20.63 4.62,20.81 4.72,21.02 C4.84,21.2 4.98,21.42 5.19,21.68 C5.39,21.94 5.59,22.17 5.79,22.39 C6.01,22.59 6.28,22.81 6.58,23.02 C6.88,23.22 7.23,23.4 7.55,23.52 L10.07,19.9 C10.05,19.88 10.01,19.86 9.97,19.84 C9.93,19.82 9.85,19.76 9.73,19.66 C9.61,19.56 9.49,19.48 9.37,19.38 C9.25,19.28 9.1,19.16 8.96,19.01 C8.8,18.87 8.66,18.73 8.54,18.59 C8.42,18.45 8.3,18.29 8.18,18.13 C8.07,17.94 7.97,17.78 7.91,17.62 L7.91,17.62 Z" id="Shape"></path>
            </g>
        </g>
    </g>
</svg>