<svg width="20px" height="20px" viewBox="0 0 41 41" xmlns="http://www.w3.org/2000/svg" xmlns:xlink="http://www.w3.org/1999/xlink">
    <g stroke="none" stroke-width="1" fill="none" fill-rule="evenodd">
        <g transform="translate(1.000000, 1.000000)">
            <g stroke="#00C1DE" stroke-width="1.6">
                <rect fill="#FFFFFF" fill-rule="nonzero" x="0.6" y="0.6" width="38.4" height="38.4" rx="8"></rect>
                <rect x="0.6" y="0.6" width="38.4" height="38.4" rx="8"></rect>
            </g>
            <g transform="translate(6.500000, 6.500000)" fill="#00C1DE" fill-rule="nonzero">
                <path d="M26.5,21.95 L26.5,21.95 L26.41,21.86 C26.33,21.77 26.26,21.68 26.17,21.61 L24.5,19.84 C24.65,19.57 24.81,19.26 24.96,18.9 C25.12,18.57 25.25,18.19 25.39,17.84 C25.52,17.46 25.63,17.08 25.75,16.68 C25.86,16.28 25.95,15.88 26.04,15.5 C26.1,15.12 26.17,14.74 26.21,14.37 C26.26,13.99 26.28,13.66 26.28,13.32 C26.28,11.59 25.95,9.92 25.25,8.32 C24.56,6.74 23.65,5.36 22.49,4.23 C21.33,3.1 19.95,2.16 18.36,1.49 C16.76,0.81 15.08,0.47 13.32,0.47 C12.32,0.47 11.31,0.58 10.35,0.81 C9.37,1.03 8.48,1.36 7.61,1.78 C6.76,2.21 5.96,2.72 5.2,3.3 C4.44,3.87 3.77,4.54 3.19,5.3 C2.61,6.03 2.1,6.83 1.68,7.68 C1.25,8.52 0.92,9.43 0.69,10.39 C0.47,11.34 0.36,12.32 0.36,13.32 C0.36,15.66 0.94,17.79 2.1,19.77 C3.26,21.75 4.82,23.3 6.83,24.46 C8.84,25.62 11,26.17 13.34,26.17 C15.68,26.17 17.87,25.57 19.92,24.37 L21.71,26.11 C21.77,26.19 21.86,26.26 21.95,26.35 L22.06,26.46 L22.09,26.46 C22.67,26.91 23.31,27.13 24.05,27.13 C24.63,27.13 25.17,26.99 25.66,26.71 C26.15,26.42 26.53,26.04 26.82,25.55 C27.11,25.06 27.24,24.53 27.24,23.95 C27.24,23.64 27.17,23.28 27.04,22.9 C26.86,22.5 26.7,22.19 26.5,21.95 L26.5,21.95 Z M13.34,22.95 C10.67,22.95 8.37,22.01 6.47,20.12 C4.58,18.24 3.62,15.97 3.62,13.3 C3.62,11.54 4.04,9.94 4.91,8.45 C5.78,6.96 6.96,5.81 8.46,4.94 C9.95,4.07 11.58,3.65 13.34,3.65 C14.1,3.65 14.84,3.74 15.57,3.9 C16.31,4.05 16.98,4.32 17.63,4.63 C18.27,4.94 18.87,5.32 19.43,5.76 C19.99,6.21 20.5,6.7 20.95,7.25 C21.4,7.81 21.77,8.41 22.09,9.03 C22.4,9.65 22.64,10.34 22.82,11.05 C23,11.77 23.07,12.52 23.07,13.26 C23.07,15.92 22.11,18.19 20.21,20.08 C18.32,22.01 16.02,22.95 13.34,22.95 L13.34,22.95 L13.34,22.95 Z M17.22,9.28 L9.66,9.28 C9.39,9.28 9.15,9.36 8.93,9.54 C8.7,9.72 8.59,9.92 8.59,10.12 C8.59,10.25 8.64,10.39 8.73,10.52 C8.81,10.65 8.93,10.74 9.08,10.81 C9.24,10.88 9.39,10.92 9.57,10.92 L17.2,10.9 C17.47,10.9 17.71,10.83 17.89,10.7 C18.07,10.57 18.18,10.39 18.18,10.19 C18.18,10.12 18.18,10.05 18.14,9.97 C18.09,9.88 18.07,9.83 18.05,9.76 C18.03,9.7 17.96,9.63 17.89,9.59 C17.83,9.54 17.76,9.48 17.69,9.43 C17.63,9.39 17.54,9.36 17.45,9.32 C17.4,9.3 17.31,9.28 17.22,9.28 L17.22,9.28 Z M17.22,16.01 L9.39,16.01 C9.17,16.01 8.99,16.1 8.81,16.28 C8.64,16.46 8.57,16.66 8.57,16.83 C8.57,17.01 8.66,17.19 8.81,17.37 C8.99,17.52 9.17,17.61 9.39,17.61 L17.22,17.61 C17.45,17.61 17.67,17.55 17.87,17.39 C18.07,17.23 18.16,17.08 18.16,16.9 C18.16,16.72 18.05,16.52 17.85,16.32 C17.65,16.1 17.45,16.01 17.22,16.01 L17.22,16.01 Z M17.22,12.77 L9.57,12.74 C9.31,12.74 9.06,12.81 8.88,12.97 C8.68,13.12 8.59,13.3 8.59,13.52 C8.59,13.63 8.61,13.74 8.68,13.83 C8.75,13.94 8.81,14.03 8.93,14.1 C9.02,14.17 9.15,14.23 9.28,14.28 C9.42,14.32 9.55,14.34 9.68,14.34 L17.2,14.34 C17.38,14.34 17.54,14.3 17.69,14.23 C17.85,14.17 17.96,14.08 18.05,13.94 C18.14,13.81 18.18,13.7 18.18,13.54 C18.18,13.32 18.09,13.12 17.92,12.97 C17.71,12.86 17.49,12.77 17.22,12.77 L17.22,12.77 Z" id="Shape"></path>
            </g>
        </g>
    </g>
</svg>