<svg width="20px" height="20px" viewBox="0 0 41 41" xmlns="http://www.w3.org/2000/svg" xmlns:xlink="http://www.w3.org/1999/xlink">
    <g stroke="none" stroke-width="1" fill="none" fill-rule="evenodd">
        <g transform="translate(1.000000, 1.000000)">
            <g stroke="#00C1DE" stroke-width="1.6">
                <rect fill="#FFFFFF" fill-rule="nonzero" x="0.6" y="0.6" width="38.4" height="38.4" rx="8"></rect>
                <rect x="0.6" y="0.6" width="38.4" height="38.4" rx="8"></rect>
            </g>
            <g transform="translate(7.500000, 6.500000)" fill="#00C1DE" fill-rule="nonzero">
                <path d="M21.93,20.01 L21.93,20.01 C21.49,20.01 21.04,20.11 20.58,20.32 C20.13,20.53 19.71,20.8 19.36,21.16 C19.01,21.51 18.74,21.88 18.6,22.3 L7.17,19.63 C7.21,19.41 7.23,19.16 7.23,18.93 L7.23,18.93 C7.23,18.24 7,17.57 6.57,16.93 C6.13,16.28 5.6,15.82 4.95,15.57 L6.65,6.44 C7.5,6.28 8.1,5.82 8.51,5.07 L19.24,4.42 C19.47,4.8 19.73,5.09 20.07,5.32 L18.72,11.2 C18.6,11.22 18.45,11.24 18.33,11.28 C18.2,11.32 18.06,11.38 17.93,11.45 C17.81,11.51 17.69,11.59 17.56,11.67 C17.44,11.76 17.33,11.84 17.21,11.95 C17.11,12.05 17,12.15 16.92,12.26 C16.84,12.36 16.75,12.49 16.67,12.61 C16.61,12.74 16.55,12.86 16.51,12.99 L13.05,12.97 L12.97,12.84 L13.77,10.24 C13.96,10.2 14.12,10.11 14.29,9.99 C14.46,9.86 14.6,9.74 14.7,9.57 C14.83,9.42 14.91,9.24 14.99,9.05 C15.06,8.86 15.1,8.67 15.1,8.49 L15.1,8.49 C15.1,8.15 15.02,7.86 14.85,7.59 C14.68,7.32 14.48,7.09 14.21,6.94 C13.94,6.78 13.63,6.69 13.32,6.69 L13.32,6.69 C12.82,6.69 12.41,6.88 12.05,7.22 C11.7,7.57 11.54,7.99 11.54,8.49 C11.54,8.74 11.58,8.97 11.68,9.17 C11.79,9.38 11.91,9.59 12.08,9.76 L11.33,12.11 C10.87,12.17 10.5,12.36 10.19,12.7 C9.88,13.03 9.74,13.42 9.74,13.9 L9.74,13.9 C9.74,14.07 9.76,14.22 9.8,14.38 C9.84,14.53 9.9,14.68 9.98,14.82 C10.07,14.95 10.15,15.07 10.27,15.18 C10.38,15.28 10.5,15.38 10.63,15.47 C10.75,15.55 10.9,15.61 11.06,15.65 C11.21,15.7 11.37,15.72 11.54,15.72 L11.54,15.72 C12.18,15.72 12.7,15.45 13.05,14.88 L16.59,14.95 C16.88,15.68 17.46,16.18 18.29,16.47 C18.56,16.55 18.82,16.61 19.07,16.61 L19.07,16.61 C19.82,16.61 20.44,16.34 20.98,15.82 C21.49,15.3 21.76,14.65 21.76,13.9 L21.76,13.9 C21.76,13.49 21.64,13.07 21.41,12.63 C21.18,12.2 20.87,11.86 20.54,11.63 L21.87,5.78 C22.3,5.74 22.72,5.59 23.09,5.32 C23.46,5.05 23.75,4.74 23.98,4.34 C24.19,3.94 24.31,3.53 24.31,3.07 L24.31,3.07 C24.31,2.32 24.04,1.69 23.52,1.15 C23.01,0.63 22.36,0.36 21.62,0.36 L21.62,0.36 C21.2,0.36 20.81,0.46 20.42,0.67 C20.02,0.88 19.71,1.15 19.45,1.51 C19.2,1.86 19.03,2.24 18.97,2.65 L8.85,3.26 C8.72,2.65 8.41,2.15 7.89,1.74 C7.38,1.32 6.82,1.11 6.22,1.11 L6.22,1.11 C5.93,1.11 5.64,1.15 5.37,1.26 C5.1,1.34 4.85,1.49 4.62,1.65 C4.4,1.82 4.21,2.01 4.04,2.24 C3.88,2.46 3.75,2.71 3.65,2.99 C3.57,3.26 3.51,3.55 3.51,3.84 C3.51,4.28 3.65,4.74 3.92,5.22 C4.19,5.69 4.54,6.03 4.93,6.24 L3.22,15.43 C2.66,15.51 2.12,15.72 1.64,16.05 C1.17,16.38 0.77,16.82 0.5,17.36 C0.23,17.88 0.09,18.43 0.09,19.01 C0.09,19.49 0.19,19.97 0.38,20.41 C0.57,20.84 0.81,21.24 1.15,21.55 C1.46,21.86 1.85,22.13 2.28,22.32 C2.72,22.51 3.19,22.61 3.67,22.61 L3.69,22.61 L3.69,22.61 C4.15,22.61 4.62,22.49 5.14,22.26 C5.66,22.01 6.07,21.74 6.36,21.38 L18.37,24.11 C18.45,24.7 18.66,25.22 18.99,25.7 C19.32,26.18 19.73,26.55 20.25,26.82 C20.77,27.09 21.33,27.24 21.91,27.24 L21.91,27.24 C22.9,27.24 23.75,26.89 24.45,26.18 C25.16,25.47 25.51,24.61 25.51,23.61 L25.51,23.61 L25.51,23.61 C25.51,22.97 25.35,22.36 25.03,21.8 C24.72,21.24 24.27,20.8 23.73,20.49 C23.17,20.18 22.57,20.01 21.93,20.01 L21.93,20.01 L21.93,20.01 Z"></path>
            </g>
        </g>
    </g>
</svg>