<svg width="20px" height="20px" viewBox="0 0 41 41" xmlns="http://www.w3.org/2000/svg" xmlns:xlink="http://www.w3.org/1999/xlink">
    <g stroke="none" stroke-width="1" fill="none" fill-rule="evenodd">
        <g transform="translate(1.000000, 1.000000)">
            <g stroke="#00C1DE" stroke-width="1.6">
                <rect fill="#FFFFFF" fill-rule="nonzero" x="0.6" y="0.6" width="38.4" height="38.4" rx="8"></rect>
                <rect x="0.6" y="0.6" width="38.4" height="38.4" rx="8"></rect>
            </g>
            <g transform="translate(6.500000, 7.500000)" fill="#00C1DE" fill-rule="nonzero">
                <path d="M6.31,8.12 C6.07,8.12 5.88,8.21 5.71,8.38 C5.55,8.55 5.46,8.74 5.46,8.97 L5.46,11.33 C5.46,11.42 5.48,11.52 5.5,11.61 C5.52,11.69 5.57,11.78 5.63,11.84 C5.67,11.9 5.74,11.97 5.82,12.03 C5.91,12.09 5.97,12.11 6.05,12.16 C6.14,12.2 6.22,12.2 6.31,12.2 C6.54,12.2 6.73,12.11 6.9,11.95 C7.07,11.78 7.15,11.59 7.15,11.35 L7.15,8.97 C7.15,8.74 7.07,8.53 6.9,8.38 C6.75,8.21 6.54,8.12 6.31,8.12 L6.31,8.12 Z M9.04,6.77 C8.8,6.77 8.61,6.86 8.45,7.03 C8.28,7.2 8.19,7.39 8.19,7.62 L8.19,12.35 C8.19,12.49 8.23,12.64 8.3,12.77 C8.38,12.89 8.49,13 8.61,13.08 C8.74,13.17 8.89,13.19 9.04,13.19 C9.27,13.19 9.46,13.11 9.63,12.94 C9.8,12.77 9.88,12.58 9.88,12.35 L9.88,7.6 C9.88,7.36 9.8,7.17 9.65,7.01 C9.46,6.84 9.27,6.77 9.04,6.77 L9.04,6.77 Z M11.77,5.4 C11.54,5.4 11.34,5.49 11.18,5.65 C11.01,5.82 10.92,6.01 10.92,6.25 L10.92,13.72 C10.92,13.82 10.94,13.95 10.99,14.06 C11.03,14.16 11.09,14.25 11.18,14.33 C11.26,14.41 11.34,14.46 11.45,14.5 C11.56,14.54 11.66,14.56 11.77,14.56 C12,14.56 12.19,14.48 12.36,14.31 C12.53,14.14 12.61,13.95 12.61,13.72 L12.61,6.25 C12.61,6.01 12.53,5.82 12.36,5.65 C12.19,5.49 12,5.4 11.77,5.4 L11.77,5.4 Z M14.48,6.77 C14.33,6.77 14.18,6.82 14.05,6.88 C13.93,6.96 13.82,7.07 13.74,7.2 C13.65,7.32 13.63,7.47 13.63,7.62 L13.63,12.35 C13.63,12.58 13.72,12.77 13.88,12.94 C14.05,13.11 14.24,13.19 14.48,13.19 C14.71,13.19 14.9,13.11 15.07,12.94 C15.24,12.77 15.32,12.58 15.32,12.35 L15.32,7.6 C15.32,7.49 15.3,7.36 15.26,7.26 C15.22,7.15 15.15,7.07 15.09,6.98 C15.03,6.9 14.92,6.86 14.82,6.82 C14.71,6.77 14.58,6.77 14.48,6.77 Z M17.19,8.12 C16.95,8.12 16.76,8.21 16.59,8.38 C16.42,8.55 16.34,8.74 16.34,8.97 L16.34,11.33 C16.34,11.57 16.42,11.76 16.59,11.92 C16.76,12.09 16.95,12.18 17.19,12.18 C17.29,12.18 17.4,12.16 17.5,12.11 C17.61,12.07 17.69,12.01 17.78,11.92 C17.86,11.84 17.91,11.76 17.97,11.65 C18.01,11.54 18.03,11.44 18.03,11.33 L18.03,8.97 C18.03,8.91 18.03,8.84 18.01,8.78 C17.99,8.72 17.97,8.65 17.95,8.61 C17.93,8.55 17.88,8.5 17.84,8.46 C17.8,8.42 17.76,8.38 17.72,8.34 C17.67,8.29 17.61,8.27 17.57,8.23 C17.5,8.21 17.46,8.19 17.38,8.17 C17.33,8.12 17.25,8.12 17.19,8.12 L17.19,8.12 Z M9.78,16.1 L7.09,18.81 L7.09,16.06 L2.71,16.06 L2.71,16.06 C2.54,16.06 2.37,16 2.24,15.87 C2.12,15.74 2.05,15.6 2.05,15.41 L2.05,15.41 L2.05,3.16 L2.05,3.16 C2.05,2.97 2.12,2.83 2.24,2.7 C2.37,2.57 2.52,2.51 2.71,2.51 L20.26,2.51 C20.49,2.51 20.7,2.59 20.87,2.76 C21.04,2.93 21.12,3.12 21.12,3.37 L21.12,15.41 C21.12,15.6 21.06,15.77 20.91,15.89 C20.78,16.02 20.62,16.08 20.42,16.08 L9.78,16.1 L9.78,16.1 Z M22.82,15.41 L22.82,3.4 C22.82,2.93 22.71,2.51 22.48,2.11 C22.24,1.71 21.95,1.41 21.55,1.18 C21.14,0.95 20.72,0.84 20.26,0.84 L2.71,0.84 C2.29,0.84 1.88,0.95 1.52,1.16 C1.16,1.37 0.89,1.64 0.68,2 C0.47,2.36 0.36,2.76 0.36,3.18 L0.36,15.41 C0.36,16.06 0.59,16.61 1.06,17.07 C1.52,17.54 2.07,17.77 2.73,17.77 L5.42,17.77 L5.42,20.79 C5.42,20.94 5.46,21.09 5.55,21.23 C5.63,21.38 5.74,21.47 5.86,21.55 C5.99,21.63 6.14,21.68 6.31,21.68 L6.69,21.66 L10.52,17.79 L20.45,17.79 C20.45,17.79 20.47,17.79 20.47,17.79 C21.12,17.79 21.67,17.56 22.14,17.1 C22.58,16.61 22.82,16.06 22.82,15.41 L22.82,15.41 Z M23.83,10.24 L23.83,15.87 C23.83,16.69 23.56,17.39 23.03,17.96 C22.5,18.53 21.82,18.81 21.02,18.81 L13,18.81 C13,19.31 13.08,19.78 13.23,20.2 C13.4,20.62 13.63,20.98 13.93,21.28 C14.22,21.57 14.63,21.8 15.09,21.97 C15.56,22.14 16.09,22.23 16.66,22.23 L18.69,22.23 L21.02,24.59 C21.17,24.74 21.31,24.76 21.5,24.7 C21.69,24.63 21.78,24.51 21.78,24.32 L21.78,22.2 L21.99,22.2 C23.07,22.2 23.98,21.99 24.78,21.59 C25.57,21.19 26.18,20.6 26.61,19.84 C27.03,19.08 27.24,18.17 27.24,17.14 L27.24,13.25 C27.24,12.66 27.11,12.14 26.88,11.71 C26.65,11.27 26.27,10.93 25.76,10.66 C25.25,10.38 24.62,10.24 23.83,10.24 L23.83,10.24 Z" id="Shape"></path>
            </g>
        </g>
    </g>
</svg>