<svg width="20px" height="20px" viewBox="0 0 41 41" xmlns="http://www.w3.org/2000/svg" xmlns:xlink="http://www.w3.org/1999/xlink">
    <g stroke="none" stroke-width="1" fill="none" fill-rule="evenodd">
        <g transform="translate(1.000000, 1.000000)">
            <g stroke="#00C1DE" stroke-width="1.6">
                <rect fill="#FFFFFF" fill-rule="nonzero" x="0.6" y="0.6" width="38.4" height="38.4" rx="8"></rect>
                <rect x="0.6" y="0.6" width="38.4" height="38.4" rx="8"></rect>
            </g>
            <g transform="translate(6.500000, 6.500000)" fill="#00C1DE" fill-rule="nonzero">
                <path d="M24.69,2.38 L23.52,1.95 C23.43,1.57 23.22,1.26 22.88,0.99 C22.55,0.72 22.18,0.59 21.8,0.59 C21.33,0.59 20.92,0.77 20.58,1.1 C20.24,1.44 20.06,1.84 20.06,2.31 L20.06,2.34 L20.06,2.34 C20.06,2.81 20.24,3.23 20.58,3.57 C20.92,3.91 21.33,4.09 21.82,4.09 L21.82,4.09 C22.27,4.09 22.66,3.93 23,3.61 L24.1,4.02 C24.46,4.15 24.8,4.42 25.07,4.87 C25.34,5.3 25.5,5.75 25.5,6.17 L25.5,21.58 C25.5,22.01 25.37,22.46 25.07,22.89 C24.8,23.31 24.46,23.6 24.1,23.72 L23.11,24.05 C23.06,23.99 23,23.94 22.91,23.87 C22.84,23.81 22.75,23.76 22.66,23.72 C22.57,23.67 22.48,23.63 22.39,23.6 C22.3,23.58 22.21,23.54 22.09,23.51 C22,23.49 21.91,23.49 21.82,23.49 C21.35,23.49 20.94,23.67 20.6,24.01 C20.27,24.34 20.09,24.75 20.09,25.22 L20.09,25.24 L20.09,25.24 C20.09,25.71 20.27,26.14 20.6,26.48 C20.94,26.81 21.35,26.99 21.85,26.99 L21.85,26.99 C22.18,26.99 22.52,26.88 22.84,26.63 C23.15,26.41 23.38,26.12 23.47,25.8 L24.67,25.38 C25.39,25.13 26,24.64 26.5,23.92 C26.99,23.2 27.24,22.41 27.24,21.61 L27.24,6.19 C27.24,5.66 27.1,5.14 26.88,4.62 C26.65,4.11 26.34,3.64 25.95,3.26 C25.59,2.83 25.16,2.54 24.69,2.38 L24.69,2.38 Z M6.14,23.47 C5.87,23.47 5.62,23.54 5.39,23.65 C5.17,23.76 4.96,23.92 4.81,24.12 L3.54,23.69 C3.29,23.6 3.07,23.47 2.84,23.27 C2.62,23.07 2.46,22.82 2.32,22.55 C2.19,22.28 2.12,22.01 2.12,21.76 L2.12,5.99 C2.12,5.61 2.26,5.21 2.55,4.83 C2.84,4.42 3.16,4.18 3.52,4.04 L4.85,3.57 C4.92,3.64 5.01,3.7 5.1,3.77 C5.19,3.84 5.3,3.88 5.42,3.93 C5.53,3.97 5.64,4.02 5.75,4.04 C5.87,4.06 5.98,4.09 6.07,4.09 L6.07,4.09 L6.07,4.09 C6.39,4.09 6.68,4.02 6.95,3.86 C7.22,3.7 7.42,3.5 7.58,3.23 C7.74,2.96 7.81,2.67 7.81,2.36 L7.81,2.36 L7.81,2.36 C7.81,1.89 7.65,1.48 7.31,1.15 C6.97,0.81 6.57,0.65 6.09,0.65 L6.09,0.65 C5.71,0.65 5.35,0.77 5.05,0.99 C4.76,1.21 4.54,1.53 4.45,1.89 L2.91,2.43 C2.19,2.67 1.6,3.17 1.1,3.86 C0.61,4.56 0.36,5.27 0.36,6.04 L0.36,21.81 C0.36,22.3 0.47,22.8 0.7,23.29 C0.92,23.78 1.24,24.21 1.62,24.59 C2.01,24.97 2.46,25.22 2.91,25.4 L4.47,25.94 C4.58,26.23 4.81,26.48 5.12,26.7 C5.44,26.9 5.75,27.01 6.07,27.01 L6.07,27.01 L6.07,27.01 C6.54,27.01 6.97,26.83 7.31,26.5 C7.65,26.16 7.83,25.76 7.83,25.26 L7.83,25.26 C7.83,24.79 7.65,24.39 7.31,24.05 C6.97,23.72 6.61,23.47 6.14,23.47 L6.14,23.47 Z M11.42,15.33 L13.68,10.05 L16.07,15.33 L11.42,15.33 L11.42,15.33 Z M18.71,21.27 L21.8,21.29 L14.89,6.04 L12.34,6.06 L5.84,21.29 L8.91,21.25 L10.25,18.11 L17.31,18.11 L18.71,21.27 L18.71,21.27 L18.71,21.27 Z" id="Shape"></path>
            </g>
        </g>
    </g>
</svg>