<svg width="20px" height="20px" viewBox="0 0 41 41" xmlns="http://www.w3.org/2000/svg" xmlns:xlink="http://www.w3.org/1999/xlink">
    <g stroke="none" stroke-width="1" fill="none" fill-rule="evenodd">
        <g transform="translate(1.000000, 1.000000)">
            <g stroke="#00C1DE" stroke-width="1.6">
                <rect fill="#FFFFFF" fill-rule="nonzero" x="0.6" y="0.6" width="38.4" height="38.4" rx="8"></rect>
                <rect x="0.6" y="0.6" width="38.4" height="38.4" rx="8"></rect>
            </g>
            <g transform="translate(6.500000, 7.500000)" fill="#00C1DE" fill-rule="nonzero">
                <path d="M13.84,10.02 L9.15,12.74 L13.86,15.46 L18.55,12.74 L13.84,10.02 Z M8.74,13.36 L8.77,18.79 L13.5,21.47 L13.48,16.04 L8.74,13.36 Z M18.88,13.36 L14.16,16.04 L14.14,21.47 L18.88,18.79 L18.88,13.36 Z M22.93,19.67 L20.82,18.41 L22.04,18.15 L21.86,17.35 L19.8,17.81 L19.8,17.81 L19.38,18.51 L22.51,20.37 L22.93,19.67 Z M18.53,19.91 L20.62,21.17 L19.4,21.45 L19.58,22.25 L21.64,21.79 L21.64,21.79 L22.06,21.09 L18.96,19.21 L18.53,19.91 L18.53,19.91 L18.53,19.91 Z M12.54,9.86 L13.36,9.86 L13.36,6.21 L12.54,6.21 L12.54,8.65 L11.67,7.75 L11.07,8.31 L12.54,9.86 Z M14.18,6.21 L14.18,9.86 L15,9.86 L15,7.41 L15.87,8.31 L16.47,7.75 L15,6.21 L15,6.21 L14.18,6.21 Z M8.32,18.55 L7.9,17.85 L5.8,19.09 L6.14,17.89 L5.35,17.67 L4.77,19.67 L4.77,19.67 L5.19,20.37 L8.32,18.55 Z M5.6,21.09 L6.02,21.79 L8.12,20.55 L7.78,21.75 L8.56,21.97 L9.17,19.95 L9.17,19.95 L8.74,19.25 L5.6,21.09 Z M24.71,19.69 C24.01,19.69 23.41,19.93 22.93,20.43 C22.43,20.93 22.18,21.51 22.18,22.21 C22.18,22.91 22.43,23.51 22.93,23.99 C23.43,24.5 24.01,24.74 24.71,24.74 C24.99,24.74 25.25,24.7 25.51,24.62 C25.78,24.54 26,24.42 26.22,24.26 C26.42,24.09 26.6,23.91 26.76,23.71 C26.92,23.51 27.04,23.27 27.12,23.01 C27.2,22.75 27.24,22.49 27.24,22.21 L27.24,22.21 C27.24,21.51 27,20.91 26.5,20.43 C26,19.95 25.41,19.69 24.71,19.69 L24.71,19.69 Z M24.71,23.47 C24.49,23.47 24.27,23.41 24.09,23.31 C23.89,23.19 23.75,23.05 23.63,22.85 C23.51,22.65 23.47,22.45 23.47,22.23 C23.47,21.89 23.59,21.59 23.83,21.35 C24.07,21.11 24.37,20.99 24.71,20.99 C24.93,20.99 25.15,21.05 25.33,21.15 C25.53,21.27 25.68,21.41 25.8,21.61 C25.92,21.81 25.96,22.01 25.96,22.23 C25.96,22.39 25.92,22.55 25.86,22.71 C25.8,22.87 25.7,22.99 25.6,23.11 C25.47,23.23 25.35,23.31 25.19,23.37 C25.03,23.43 24.87,23.47 24.71,23.47 L24.71,23.47 Z M13.78,5.81 C14.48,5.81 15.08,5.57 15.57,5.07 C16.07,4.57 16.31,3.99 16.31,3.29 C16.31,2.59 16.07,1.99 15.57,1.51 C15.06,1 14.48,0.76 13.78,0.76 L13.78,0.76 C13.08,0.76 12.48,1 11.99,1.51 C11.49,2.01 11.25,2.59 11.25,3.29 L11.25,3.29 L11.25,3.29 C11.25,3.99 11.49,4.59 11.99,5.07 C12.48,5.55 13.08,5.81 13.78,5.81 L13.78,5.81 Z M13.78,2.03 C14,2.03 14.22,2.09 14.4,2.19 C14.6,2.31 14.74,2.45 14.86,2.65 C14.98,2.85 15.02,3.05 15.02,3.27 C15.02,3.61 14.9,3.91 14.66,4.15 C14.42,4.39 14.12,4.51 13.78,4.51 C13.62,4.51 13.46,4.47 13.3,4.41 C13.14,4.35 13.02,4.25 12.9,4.15 C12.78,4.03 12.7,3.91 12.64,3.75 C12.58,3.59 12.54,3.43 12.54,3.27 C12.54,2.93 12.66,2.63 12.9,2.39 C13.14,2.15 13.44,2.03 13.78,2.03 L13.78,2.03 Z M2.89,19.79 C2.43,19.79 2,19.91 1.62,20.13 C1.24,20.35 0.92,20.67 0.7,21.05 C0.48,21.43 0.36,21.87 0.36,22.31 C0.36,22.77 0.48,23.19 0.7,23.57 C0.92,23.95 1.24,24.28 1.62,24.5 C2,24.72 2.45,24.84 2.89,24.84 C3.59,24.84 4.19,24.6 4.67,24.09 C5.17,23.59 5.42,23.01 5.42,22.31 L5.42,22.31 C5.42,22.13 5.39,21.97 5.35,21.81 C5.31,21.65 5.27,21.49 5.21,21.33 C5.15,21.19 5.07,21.03 4.97,20.91 C4.87,20.77 4.77,20.65 4.67,20.53 C4.55,20.41 4.43,20.31 4.29,20.23 C4.15,20.13 4.01,20.07 3.87,19.99 C3.73,19.93 3.57,19.87 3.39,19.85 C3.25,19.81 3.07,19.79 2.89,19.79 L2.89,19.79 Z M2.89,23.57 C2.55,23.57 2.25,23.45 2,23.21 C1.76,22.97 1.64,22.67 1.64,22.33 C1.64,21.99 1.76,21.69 2,21.45 C2.25,21.21 2.55,21.09 2.89,21.09 C3.23,21.09 3.53,21.21 3.77,21.45 C4.01,21.69 4.13,21.99 4.13,22.33 C4.13,22.67 4.01,22.97 3.77,23.21 C3.53,23.45 3.23,23.57 2.89,23.57 L2.89,23.57 L2.89,23.57 Z" id="Shape"></path>
            </g>
        </g>
    </g>
</svg>