<svg width="20px" height="20px" viewBox="0 0 41 41" xmlns="http://www.w3.org/2000/svg" xmlns:xlink="http://www.w3.org/1999/xlink">
    <g stroke="none" stroke-width="1" fill="none" fill-rule="evenodd">
        <g transform="translate(1.000000, 1.000000)">
            <g stroke="#00C1DE" stroke-width="1.6">
                <rect fill="#FFFFFF" fill-rule="nonzero" x="0.6" y="0.6" width="38.4" height="38.4" rx="8"></rect>
                <rect x="0.6" y="0.6" width="38.4" height="38.4" rx="8"></rect>
            </g>
            <g transform="translate(6.500000, 9.500000)" fill="#00C1DE" fill-rule="nonzero">
                <path d="M8.93,10.59 L8.93,10.59 C8.72,10.59 8.51,10.63 8.32,10.72 C8.13,10.8 7.96,10.91 7.81,11.05 C7.67,11.2 7.56,11.37 7.48,11.56 C7.39,11.75 7.35,11.96 7.35,12.18 C7.35,12.62 7.5,13 7.81,13.3 C8.13,13.61 8.49,13.76 8.93,13.76 L8.93,13.76 L8.93,13.76 C9.38,13.76 9.76,13.61 10.05,13.3 C10.37,12.98 10.52,12.62 10.52,12.18 C10.52,11.88 10.45,11.63 10.31,11.37 C10.16,11.12 9.97,10.93 9.74,10.8 C9.48,10.65 9.21,10.59 8.93,10.59 L8.93,10.59 L8.93,10.59 Z M13.77,10.59 L13.77,10.59 C13.32,10.59 12.94,10.74 12.65,11.05 C12.33,11.37 12.18,11.73 12.18,12.18 C12.18,12.47 12.25,12.73 12.4,12.98 C12.54,13.23 12.73,13.42 12.97,13.55 C13.22,13.7 13.47,13.76 13.77,13.76 L13.77,13.76 L13.77,13.76 C14.21,13.76 14.59,13.61 14.89,13.3 C15.2,12.98 15.35,12.62 15.35,12.18 C15.35,11.73 15.2,11.37 14.89,11.05 C14.57,10.74 14.19,10.59 13.77,10.59 L13.77,10.59 L13.77,10.59 Z M20.15,12.18 C20.15,11.73 20,11.37 19.68,11.05 C19.36,10.74 19,10.59 18.56,10.59 L18.56,10.59 L18.56,10.59 C18.12,10.59 17.74,10.74 17.44,11.05 C17.13,11.37 16.98,11.73 16.98,12.18 C16.98,12.47 17.04,12.73 17.19,12.98 C17.34,13.23 17.53,13.42 17.76,13.55 C18.01,13.7 18.27,13.76 18.56,13.76 L18.56,13.76 L18.56,13.76 C19,13.76 19.39,13.61 19.68,13.3 C20,12.98 20.15,12.6 20.15,12.18 L20.15,12.18 Z M22.47,19.63 L22.55,19.63 C22.57,19.6 22.62,19.6 22.64,19.6 C25.4,18.5 26.9,16.73 27.13,14.25 L27.13,14.17 C27.24,13.15 27.11,12.2 26.75,11.29 C26.4,10.38 25.83,9.57 25.04,8.83 C24.37,8.22 23.59,7.69 22.7,7.27 L22.62,7.22 L22.59,7.14 C22.26,6.12 21.83,5.21 21.33,4.41 C20.82,3.6 20.27,2.97 19.68,2.5 C19.09,2.04 18.52,1.64 17.95,1.32 C17.38,1 16.81,0.79 16.22,0.64 C15.63,0.51 15.14,0.43 14.78,0.39 C14.4,0.34 14.06,0.32 13.73,0.34 C12.99,0.34 12.29,0.41 11.64,0.53 C10.98,0.66 10.39,0.85 9.86,1.11 C9.36,1.36 8.87,1.61 8.45,1.87 C8.02,2.14 7.64,2.46 7.29,2.84 C6.95,3.22 6.65,3.56 6.42,3.86 C6.19,4.15 5.96,4.49 5.74,4.92 C5.53,5.34 5.36,5.64 5.28,5.83 C5.2,6.02 5.07,6.29 4.94,6.59 L4.94,6.61 C4.88,6.78 4.79,6.93 4.69,7.07 L4.84,6.88 C4.84,6.88 4.84,6.91 4.84,6.97 L4.84,6.99 L4.86,6.84 L4.77,6.88 C2.34,7.86 0.93,9.61 0.47,12.18 C0.38,12.62 0.36,13.06 0.36,13.47 L0.36,13.55 C0.44,14.57 0.7,15.5 1.14,16.32 C1.58,17.17 2.11,17.85 2.72,18.36 C3.34,18.86 3.95,19.27 4.52,19.58 C5.09,19.9 5.66,20.09 6.19,20.22 C6.23,20.22 6.27,20.24 6.31,20.24 C6.34,20.24 6.34,20.24 6.36,20.24 C6.55,20.24 6.72,20.18 6.86,20.05 C7.01,19.92 7.12,19.75 7.16,19.54 C7.2,19.31 7.16,19.08 7.03,18.89 C6.91,18.67 6.74,18.55 6.5,18.5 C6.38,18.48 6.21,18.42 6,18.36 C5.79,18.29 5.45,18.12 4.96,17.87 C4.48,17.62 4.06,17.32 3.68,16.98 C3.3,16.64 2.94,16.15 2.6,15.54 C2.26,14.93 2.07,14.23 1.99,13.47 L1.99,13.45 L1.99,13.42 C1.99,13 2.05,12.6 2.13,12.18 C2.24,11.77 2.39,11.31 2.64,10.82 C2.87,10.33 3.25,9.87 3.78,9.45 C4.29,9.02 4.92,8.68 5.66,8.45 L5.96,8.34 L6.12,8.03 C6.15,7.99 6.17,7.92 6.21,7.86 C6.23,7.79 6.27,7.73 6.29,7.69 C6.31,7.65 6.34,7.56 6.38,7.48 L6.42,7.37 C6.63,6.86 6.82,6.46 6.97,6.14 C7.12,5.83 7.41,5.38 7.83,4.81 C8.26,4.24 8.7,3.77 9.17,3.43 C9.63,3.1 10.28,2.78 11.09,2.5 C11.89,2.23 12.78,2.1 13.75,2.1 L13.77,2.1 C14.25,2.08 14.74,2.12 15.2,2.19 C15.67,2.25 16.22,2.42 16.83,2.65 C17.44,2.88 18.01,3.24 18.52,3.65 C19.03,4.07 19.53,4.66 20.02,5.42 C20.5,6.19 20.91,7.1 21.18,8.11 L21.31,8.54 L21.69,8.7 C22.62,9.09 23.4,9.61 24.07,10.25 C25.17,11.33 25.66,12.56 25.53,13.93 L25.53,13.95 L25.51,14.06 C25.34,15.71 24.26,16.96 22.26,17.81 L22.13,17.87 L22.02,17.76 C21.39,17.06 20.46,16.71 19.24,16.71 C18.33,16.71 17.55,16.94 16.89,17.38 C16.24,17.83 15.92,18.38 15.92,18.99 C15.92,19.63 16.24,20.16 16.89,20.6 C17.55,21.04 18.33,21.28 19.24,21.28 C19.96,21.28 20.59,21.13 21.18,20.83 C21.75,20.54 22.15,20.16 22.38,19.69 L22.47,19.63 L22.47,19.63 Z" id="Shape"></path>
            </g>
        </g>
    </g>
</svg>