<svg width="20px" height="20px" viewBox="0 0 41 41" xmlns="http://www.w3.org/2000/svg" xmlns:xlink="http://www.w3.org/1999/xlink">
    <g stroke="none" stroke-width="1" fill="none" fill-rule="evenodd">
        <g transform="translate(1.000000, 1.000000)">
            <g stroke="#00C1DE" stroke-width="1.6">
                <rect fill="#FFFFFF" fill-rule="nonzero" x="0.6" y="0.6" width="38.4" height="38.4" rx="8"></rect>
                <rect x="0.6" y="0.6" width="38.4" height="38.4" rx="8"></rect>
            </g>
            <g transform="translate(6.500000, 9.500000)" fill="#00C1DE" fill-rule="nonzero">
                <path d="M6.73,17.82 L6.73,11.15 C6.73,10.63 6.91,10.19 7.25,9.85 C7.61,9.49 8.03,9.33 8.55,9.33 L19.03,9.33 C19.55,9.33 19.99,9.51 20.33,9.85 C20.69,10.21 20.85,10.63 20.85,11.15 L20.85,19.55 C20.85,20.07 20.67,20.51 20.33,20.85 C19.97,21.21 19.55,21.37 19.03,21.37 L4.59,21.37 C3.42,21.37 2.42,20.95 1.6,20.13 C0.78,19.31 0.36,18.31 0.36,17.14 L0.36,4.4 C0.36,3.23 0.78,2.23 1.6,1.41 C2.42,0.59 3.42,0.17 4.59,0.17 L23.01,0.17 C24.18,0.17 25.18,0.59 26,1.41 C26.82,2.23 27.24,3.23 27.24,4.4 L27.24,19.53 L23.69,21.43 L23.69,5.14 C23.69,4.74 23.55,4.4 23.29,4.14 C23.03,3.88 22.69,3.74 22.29,3.74 L5.33,3.74 C4.93,3.74 4.59,3.88 4.33,4.14 C4.07,4.4 3.93,4.74 3.93,5.14 L3.93,16.48 C3.93,16.74 3.99,16.98 4.11,17.2 C4.23,17.42 4.41,17.58 4.61,17.7 C4.83,17.82 5.07,17.88 5.33,17.88 L6.73,17.88 L6.73,17.82 Z M10.84,12.85 C10.74,12.85 10.64,12.87 10.56,12.93 C10.48,12.97 10.39,13.05 10.35,13.13 C10.31,13.21 10.27,13.32 10.27,13.42 L10.27,17.28 C10.27,17.44 10.33,17.56 10.43,17.66 C10.54,17.76 10.68,17.82 10.82,17.82 L16.76,17.82 C16.92,17.82 17.04,17.76 17.14,17.66 C17.25,17.56 17.31,17.42 17.31,17.28 L17.31,13.42 C17.31,13.32 17.29,13.21 17.23,13.13 C17.17,13.05 17.1,12.97 17.02,12.93 C16.94,12.89 16.84,12.85 16.74,12.85 L10.84,12.85 L10.84,12.85 Z" id="Shape"></path>
            </g>
        </g>
    </g>
</svg>