<svg width="20px" height="20px" viewBox="0 0 41 41" xmlns="http://www.w3.org/2000/svg" xmlns:xlink="http://www.w3.org/1999/xlink">
    <g stroke="none" stroke-width="1" fill="none" fill-rule="evenodd">
        <g transform="translate(1.000000, 1.000000)">
            <g stroke="#00C1DE" stroke-width="1.6">
                <rect fill="#FFFFFF" fill-rule="nonzero" x="0.6" y="0.6" width="38.4" height="38.4" rx="8"></rect>
                <rect x="0.6" y="0.6" width="38.4" height="38.4" rx="8"></rect>
            </g>
            <g transform="translate(9.500000, 6.500000)" fill="#00C1DE" fill-rule="nonzero">
                <path d="M10.8,0.36 L0.22,5.7 L0.22,16.58 L10.8,21.9 L21.38,16.56 L21.38,5.7 L10.8,0.36 Z M19.38,15.35 L10.73,19.73 L7.97,18.31 L12.73,15.62 C12.99,15.75 13.26,15.81 13.5,15.81 C13.74,15.81 13.96,15.77 14.18,15.68 C14.4,15.59 14.57,15.46 14.73,15.31 C14.88,15.16 15.01,14.98 15.1,14.76 C15.19,14.54 15.23,14.33 15.23,14.08 C15.23,13.6 15.06,13.19 14.73,12.86 C14.4,12.53 13.98,12.36 13.5,12.36 C13.06,12.36 12.67,12.49 12.36,12.77 C12.05,13.06 11.88,13.41 11.83,13.82 L5.84,17.17 L2.11,15.31 L2.11,6.88 L10.76,2.51 L13.85,4.06 L8.87,6.8 C8.61,6.66 8.34,6.6 8.1,6.6 C7.79,6.6 7.49,6.69 7.22,6.84 C6.96,6.99 6.74,7.21 6.59,7.47 C6.43,7.74 6.35,8.02 6.35,8.35 C6.35,8.83 6.52,9.25 6.85,9.58 C7.18,9.9 7.6,10.08 8.08,10.08 C8.52,10.08 8.91,9.95 9.22,9.66 C9.53,9.38 9.7,9.03 9.75,8.61 L15.87,5.2 L19.29,6.93 L19.29,15.35 L19.38,15.35 Z M10.87,25.05 L0.22,19.84 L0.22,21.96 L10.87,27.24 L21.38,21.96 L21.38,19.84 L10.87,25.05 Z" id="Shape"></path>
            </g>
        </g>
    </g>
</svg>