<svg width="20px" height="20px" viewBox="0 0 41 41" xmlns="http://www.w3.org/2000/svg" xmlns:xlink="http://www.w3.org/1999/xlink">
    <g stroke="none" stroke-width="1" fill="none" fill-rule="evenodd">
        <g transform="translate(1.000000, 1.000000)">
            <g stroke="#00C1DE" stroke-width="1.6">
                <rect fill="#FFFFFF" fill-rule="nonzero" x="0.6" y="0.6" width="38.4" height="38.4" rx="8"></rect>
                <rect x="0.6" y="0.6" width="38.4" height="38.4" rx="8"></rect>
            </g>
            <g transform="translate(7.500000, 6.500000)" fill="#00C1DE" fill-rule="nonzero">
                <path d="M14.15,10.28 C14.89,10.45 15.64,11.05 16.34,12.05 C14.85,12.05 14.11,11.6 14.09,10.69 L14.15,10.28 Z M0.68,18.54 C0.68,19.18 0.87,19.84 1.26,20.52 C1.64,21.2 2.13,21.69 2.7,22.03 L10.81,26.75 C11.41,27.07 12.07,27.24 12.83,27.24 C13.19,27.24 13.55,27.2 13.89,27.11 C14.25,27.03 14.55,26.9 14.83,26.75 L22.94,22.03 C23.49,21.69 23.96,21.18 24.37,20.52 C24.77,19.84 24.96,19.2 24.96,18.56 L24.96,9.11 C24.96,8.68 24.88,8.25 24.71,7.78 C24.54,7.31 24.3,6.91 23.98,6.53 C23.66,6.14 23.32,5.84 22.94,5.61 L20.69,4.26 L20.01,5.54 L22.2,6.82 C22.54,7.02 22.84,7.31 23.09,7.76 C23.35,8.21 23.47,8.64 23.47,9.02 L23.47,18.51 C23.47,18.88 23.32,19.35 23.05,19.92 C22.14,20.63 21.26,21.22 20.48,21.69 C19.69,22.16 19.06,22.48 18.57,22.65 C18.1,22.82 17.67,22.95 17.33,23.02 C16.99,23.08 16.74,23.1 16.61,23.08 L16.4,23.04 C13.24,22.21 11.66,20.41 11.71,17.68 C11.73,16.57 11.94,15.57 12.39,14.65 C12.51,14.89 12.73,15.08 13,15.21 C13.28,15.36 13.58,15.44 13.87,15.51 C14.17,15.57 14.47,15.59 14.74,15.59 C15.02,15.61 15.25,15.61 15.44,15.59 L15.72,15.57 L19.8,17.28 L21.33,16.66 L21.33,15.12 C21.09,14.35 19.54,12.67 16.68,10.07 L16.57,9.98 L22.24,1.04 L13.66,8.08 C13.28,7.81 12.92,7.55 12.56,7.29 C12.19,7.04 11.85,6.82 11.56,6.65 C11.26,6.48 10.98,6.31 10.71,6.16 C10.43,6.01 10.22,5.89 10.03,5.8 C9.84,5.71 9.67,5.63 9.52,5.57 C9.37,5.5 9.26,5.46 9.2,5.42 L9.09,5.37 C9.07,5.59 9.07,5.8 9.11,5.99 C9.16,6.18 9.2,6.35 9.28,6.5 C9.35,6.63 9.43,6.76 9.5,6.87 C9.56,6.97 9.62,7.04 9.69,7.08 L9.77,7.14 C8.84,7.51 7.97,7.98 7.18,8.57 C6.4,9.17 5.74,9.77 5.25,10.39 C4.74,11.01 4.29,11.69 3.89,12.41 C3.49,13.14 3.19,13.8 2.98,14.35 C2.76,14.91 2.59,15.49 2.47,16.06 C2.32,16.64 2.23,17.02 2.21,17.23 C2.19,17.45 2.17,17.58 2.15,17.68 L2.15,17.68 L2.15,9.11 C2.15,8.7 2.28,8.3 2.53,7.85 C2.79,7.4 3.08,7.08 3.42,6.91 L11.54,2.19 C11.88,1.98 12.3,1.9 12.81,1.9 C13.32,1.9 13.75,2 14.09,2.19 L17.61,4.29 L18.82,3.3 L14.81,0.91 C14.19,0.55 13.49,0.36 12.73,0.36 C11.96,0.36 11.3,0.53 10.71,0.85 L2.66,5.57 C2.47,5.67 2.3,5.82 2.13,5.97 C1.96,6.12 1.79,6.29 1.64,6.48 C1.49,6.67 1.36,6.87 1.23,7.08 C1.11,7.29 1,7.51 0.92,7.72 C0.83,7.93 0.77,8.17 0.7,8.38 C0.64,8.59 0.64,8.83 0.64,9.04 L0.68,18.54 L0.68,18.54 Z" id="Shape"></path>
            </g>
        </g>
    </g>
</svg>