<svg width="20px" height="20px" viewBox="0 0 41 41" xmlns="http://www.w3.org/2000/svg" xmlns:xlink="http://www.w3.org/1999/xlink">
    <g stroke="none" stroke-width="1" fill="none" fill-rule="evenodd">
        <g transform="translate(1.000000, 1.000000)">
            <g stroke="#00C1DE" stroke-width="1.6">
                <rect fill="#FFFFFF" fill-rule="nonzero" x="0.6" y="0.6" width="38.4" height="38.4" rx="8"></rect>
                <rect x="0.6" y="0.6" width="38.4" height="38.4" rx="8"></rect>
            </g>
            <g transform="translate(6.500000, 6.500000)" fill="#1ABFDE" fill-rule="nonzero">
                <path d="M23.87,15.37 L12.96,4.44 C10.68,2.15 6.97,2.15 4.69,4.44 L4.69,4.44 C2.4,6.72 2.4,10.43 4.69,12.72 L15.59,23.63 C17.88,25.91 21.59,25.91 23.87,23.63 C26.16,21.34 26.16,17.63 23.87,15.37 Z M20.11,19.87 C19.08,20.9 17.39,20.9 16.36,19.87 L8.44,11.98 C7.41,10.95 7.41,9.25 8.44,8.22 C9.48,7.19 11.17,7.19 12.2,8.22 L20.11,16.13 C21.15,17.14 21.15,18.84 20.11,19.87 Z" id="Shape"></path>
                <ellipse cx="4.14" cy="3.9" rx="3.5378935" ry="3.53813528"></ellipse>
                <ellipse cx="23.46" cy="23.24" rx="3.5378935" ry="3.53813528"></ellipse>
                <path d="M15.59,3.97 L4.69,14.88 C2.4,17.17 2.4,20.88 4.69,23.16 L4.69,23.16 C6.97,25.45 10.68,25.45 12.96,23.16 L23.87,12.23 C26.16,9.94 26.16,6.23 23.87,3.95 C21.59,1.66 17.88,1.69 15.59,3.97 Z M20.11,7.73 C21.15,8.76 21.15,10.46 20.11,11.49 L12.23,19.38 C11.2,20.41 9.5,20.41 8.47,19.38 C7.44,18.35 7.44,16.65 8.47,15.62 L16.38,7.71 C17.39,6.7 19.08,6.7 20.11,7.73 Z" id="Shape"></path>
                <ellipse cx="4.14" cy="23.7" rx="3.5378935" ry="3.53813528"></ellipse>
                <ellipse cx="23.46" cy="4.36" rx="3.5378935" ry="3.53813528"></ellipse>
            </g>
        </g>
    </g>
</svg>