<svg x="0" y="0" width="20px" height="20px" viewBox="0 0 80 70" version="1.1" xmlns="http://www.w3.org/2000/svg">
<defs>
<linearGradient x1="50.0019532%" y1="0.00219423355%" x2="50.0019532%" y2="100%">
<stop stop-color="#4387FD" offset="0%"></stop>
<stop stop-color="#4683EA" offset="100%"></stop>
</linearGradient>
<linearGradient x1="50.0019532%" y1="0.00219423355%" x2="50.0019532%" y2="100%" id="linearGradient-2-CCE0716D-E9EA-437F-BC1C-DED545626B4E">
<stop stop-color="#4387FD" offset="0%"></stop>
<stop stop-color="#4683EA" offset="100%"></stop>
</linearGradient>
<path d="M17.3744945,66.4375984 L1.04362061,38.5200225 C-0.234403809,36.3352999 -0.234403809,33.6436107 1.04362061,31.4588882 L17.3744945,3.54131234 C18.6523197,1.35693022 21.0136888,0.0111382945 23.5693393,0.0107452041 L56.231087,0.0107452041 C58.7867375,0.0111382945 61.1481066,1.35693022 62.4259321,3.54131234 L78.7568057,31.4588882 C80.0348303,33.6436107 80.0348303,36.3352999 78.7568057,38.5200225 L62.4259321,66.4375984 C61.1481066,68.6219804 58.7867375,69.9677721 56.231087,69.9681652 L23.5693393,69.9681652 C21.0136888,69.9677721 18.6523197,68.6219804 17.3744945,66.4375984 L17.3744945,66.4375984 Z" id="path-3-80B17E1E-B439-46EE-91E4-BB46BC67C507"></path>
<path d="M17.3744945,66.4375984 L1.04362061,38.5200225 C-0.234403809,36.3352999 -0.234403809,33.6436107 1.04362061,31.4588882 L17.3744945,3.54131234 C18.6523197,1.35693022 21.0136888,0.0111382945 23.5693393,0.0107452041 L56.231087,0.0107452041 C58.7867375,0.0111382945 61.1481066,1.35693022 62.4259321,3.54131234 L78.7568057,31.4588882 C80.0348303,33.6436107 80.0348303,36.3352999 78.7568057,38.5200225 L62.4259321,66.4375984 C61.1481066,68.6219804 58.7867375,69.9677721 56.231087,69.9681652 L23.5693393,69.9681652 C21.0136888,69.9677721 18.6523197,68.6219804 17.3744945,66.4375984 L17.3744945,66.4375984 Z" id="path-5-4AFE82FD-3FD5-4342-B5ED-D6B09BCD6500"></path>
<path d="M17.3744945,66.4375984 L1.04362061,38.5200225 C-0.234403809,36.3352999 -0.234403809,33.6436107 1.04362061,31.4588882 L17.3744945,3.54131234 C18.6523197,1.35693022 21.0136888,0.0111382945 23.5693393,0.0107452041 L56.231087,0.0107452041 C58.7867375,0.0111382945 61.1481066,1.35693022 62.4259321,3.54131234 L78.7568057,31.4588882 C80.0348303,33.6436107 80.0348303,36.3352999 78.7568057,38.5200225 L62.4259321,66.4375984 C61.1481066,68.6219804 58.7867375,69.9677721 56.231087,69.9681652 L23.5693393,69.9681652 C21.0136888,69.9677721 18.6523197,68.6219804 17.3744945,66.4375984 L17.3744945,66.4375984 Z" id="path-7-C2F6E7DA-C973-47B2-9B76-07501A771B11"></path>
<path d="M17.3744945,66.4375984 L1.04362061,38.5200225 C-0.234403809,36.3352999 -0.234403809,33.6436107 1.04362061,31.4588882 L17.3744945,3.54131234 C18.6523197,1.35693022 21.0136888,0.0111382945 23.5693393,0.0107452041 L56.231087,0.0107452041 C58.7867375,0.0111382945 61.1481066,1.35693022 62.4259321,3.54131234 L78.7568057,31.4588882 C80.0348303,33.6436107 80.0348303,36.3352999 78.7568057,38.5200225 L62.4259321,66.4375984 C61.1481066,68.6219804 58.7867375,69.9677721 56.231087,69.9681652 L23.5693393,69.9681652 C21.0136888,69.9677721 18.6523197,68.6219804 17.3744945,66.4375984 L17.3744945,66.4375984 Z" id="path-9-1221D1CF-7062-41B8-A2C2-FC4480DB80BC"></path>
<path d="M17.3744945,66.4375984 L1.04362061,38.5200225 C-0.234403809,36.3352999 -0.234403809,33.6436107 1.04362061,31.4588882 L17.3744945,3.54131234 C18.6523197,1.35693022 21.0136888,0.0111382945 23.5693393,0.0107452041 L56.231087,0.0107452041 C58.7867375,0.0111382945 61.1481066,1.35693022 62.4259321,3.54131234 L78.7568057,31.4588882 C80.0348303,33.6436107 80.0348303,36.3352999 78.7568057,38.5200225 L62.4259321,66.4375984 C61.1481066,68.6219804 58.7867375,69.9677721 56.231087,69.9681652 L23.5693393,69.9681652 C21.0136888,69.9677721 18.6523197,68.6219804 17.3744945,66.4375984 L17.3744945,66.4375984 Z" id="path-11-1CE5EE2A-C17E-4E3D-90AD-B0482A0B0135"></path>
<path d="M1.04362061,38.5200225 C-0.234403809,36.3352999 -0.234403809,33.6436107 1.04362061,31.4588882 L17.3744945,3.54131234 C18.6523197,1.35693022 21.0136888,0.0111382945 23.5693393,0.0107452041 L56.231087,0.0107452041 C58.7867375,0.0111382945 61.1481066,1.35693022 62.4259321,3.54131234 L78.7568057,31.4588882 C80.0348303,33.6436107 80.0348303,36.3352999 78.7568057,38.5200225 L62.4259321,66.4375984 C61.1481066,68.6219804 58.7867375,69.9677721 56.231087,69.9681652 L23.5693393,69.9681652 C21.0136888,69.9677721 18.6523197,68.6219804 17.3744945,66.4375984 L1.04362061,38.5200225 Z" id="path-13-CDA38B97-69EA-46FC-A910-BB293F8CC59F"></path>
</defs>
<g stroke="none" stroke-width="1" fill="none" fill-rule="evenodd">
<g>
<g fill="url(#linearGradient-2-CCE0716D-E9EA-437F-BC1C-DED545626B4E)" fill-rule="nonzero">
<path d="M17.3744945,66.4375984 L1.04362061,38.5200225 C-0.234403809,36.3352999 -0.234403809,33.6436107 1.04362061,31.4588882 L17.3744945,3.54131234 C18.6523197,1.35693022 21.0136888,0.0111382945 23.5693393,0.0107452041 L56.231087,0.0107452041 C58.7867375,0.0111382945 61.1481066,1.35693022 62.4259321,3.54131234 L78.7568057,31.4588882 C80.0348303,33.6436107 80.0348303,36.3352999 78.7568057,38.5200225 L62.4259321,66.4375984 C61.1481066,68.6219804 58.7867375,69.9677721 56.231087,69.9681652 L23.5693393,69.9681652 C21.0136888,69.9677721 18.6523197,68.6219804 17.3744945,66.4375984 L17.3744945,66.4375984 Z"></path>
</g>
<g>
<g>
<mask id="mask-4-E030F094-F350-4D0F-9479-A19F97E79098" fill="white">
<use xlink:href="#path-3-80B17E1E-B439-46EE-91E4-BB46BC67C507"></use>
</mask>
<g></g>
<polygon fill="#000000" fill-rule="nonzero" opacity="0.07" mask="url(#mask-4-E030F094-F350-4D0F-9479-A19F97E79098)" points="56.52857 22.2663138 79.0154054 44.1665753 63.3326839 71.0012403 50.3725557 74.8792445 23.1715412 47.8704058 26.8801543 22.2738374 33.5491318 28.6167296 34.2968801 22.2663138 41.0174235 28.6167296 41.7111609 22.2663138 48.8951901 29.111009 49.1160048 22.2663138 56.261151 29.1724101 54.921291 22.8028586"></polygon>
</g>
</g>
<g>
<g>
<mask id="mask-6-64B23C16-3C8C-4F87-BCB6-8812043C371F" fill="white">
<use xlink:href="#path-5-4AFE82FD-3FD5-4342-B5ED-D6B09BCD6500"></use>
</mask>
<g></g>
<rect fill="#FFFFFF" fill-rule="nonzero" mask="url(#mask-6-64B23C16-3C8C-4F87-BCB6-8812043C371F)" x="23.1742877" y="22.2579232" width="3.70724884" height="25.612165"></rect>
</g>
</g>
<g>
<g>
<mask id="mask-8-3699484F-6974-462C-8AEF-1B9E4C630BBB" fill="white">
<use xlink:href="#path-7-C2F6E7DA-C973-47B2-9B76-07501A771B11"></use>
</mask>
<g></g>
<rect fill="#FFFFFF" fill-rule="nonzero" mask="url(#mask-8-3699484F-6974-462C-8AEF-1B9E4C630BBB)" x="52.8322784" y="22.2579232" width="3.70724884" height="25.612165"></rect>
</g>
</g>
<g>
<g>
<mask id="mask-10-BF359F46-82D7-4AC9-BE63-AC2E407734F1" fill="white">
<use xlink:href="#path-9-1221D1CF-7062-41B8-A2C2-FC4480DB80BC"></use>
</mask>
<g></g>
<rect fill="#FFFFFF" fill-rule="nonzero" mask="url(#mask-10-BF359F46-82D7-4AC9-BE63-AC2E407734F1)" x="38.003283" y="22.2579232" width="3.70724884" height="25.612165"></rect>
</g>
</g>
<g>
<g>
<mask id="mask-12-5B4F213F-7D7E-46D0-A7CB-E4D332D530D0" fill="white">
<use xlink:href="#path-11-1CE5EE2A-C17E-4E3D-90AD-B0482A0B0135"></use>
</mask>
<g></g>
<rect fill="#FFFFFF" fill-rule="nonzero" mask="url(#mask-12-5B4F213F-7D7E-46D0-A7CB-E4D332D530D0)" x="30.5887853" y="22.2579232" width="3.70724884" height="25.612165"></rect>
</g>
</g>
<g>
<g>
<mask id="mask-14-3C7908CC-842C-4B5D-9411-8BDA7339836B" fill="white">
<use xlink:href="#path-13-CDA38B97-69EA-46FC-A910-BB293F8CC59F"></use>
</mask>
<g></g>
<rect fill="#FFFFFF" fill-rule="nonzero" mask="url(#mask-14-3C7908CC-842C-4B5D-9411-8BDA7339836B)" x="45.4177807" y="22.2579232" width="3.70724884" height="25.612165"></rect>
</g>
</g>
</g>
</g>
</svg>