<svg xmlns="http://www.w3.org/2000/svg" xmlns:xlink="http://www.w3.org/1999/xlink" x="0" y="0" width="20px" height="20px" viewBox="-190 225 180 180" style="enable-background:new -251 163 288 288;" xml:space="preserve">
<switch>
<g>
<path fill="#F80000" d="M-57.6,353.8c-3.8,3.8-8,7.2-12.6,10v14.8c0,4-3.2,7.4-7.4,7.4h-56.9c-4,0-7.4-3.2-7.4-7.4v-24.2l0,0    c0-1.6,2-2.6,3.4-1.6c19.6,13.4,45.3,13.4,65,0c1.4-1,3.4-0.2,3.4,1.6l0,0v0.6c2.6-1.8,5-4,7.4-6.4c11.6-11.6,18-27,18-43.2    c0-14.8-5.2-28.8-14.8-40c-2.4,0.6-5,0-6.8-1.8l-8-8.2c-2.6-2.8-2.6-7,0.2-9.6l1.2-1.2c2.8-2.6,7-2.6,9.6,0.2l8,8.2    c2,2.2,2.4,5.2,1.2,7.6c10.8,12.4,16.8,28.2,16.8,44.8C-37.4,323.6-44.6,341-57.6,353.8z M-144.3,343.4c-21-21-21-55.2,0-76.2    s55.2-21,76.2,0s21,55.2,0,76.2S-123.1,364.4-144.3,343.4z M-111.7,311c3,3,8,3,11.2,0c3-3,3-8,0-11.2c-3-3-8-3-11.2,0    C-114.7,302.8-114.7,307.8-111.7,311z M-129.9,246.9c1.6-0.6,2.4-2.6,1.8-4.2c-0.6-1.6-2.6-2.4-4.2-1.8c-8.6,3.6-16.4,8.6-23,15.2    c-5.8,5.8-10.6,12.6-14,20.2c-0.8,1.6,0,3.6,1.6,4.4c0.4,0.2,1,0.2,1.4,0.2c1.2,0,2.4-0.8,3-1.8c3.2-6.8,7.4-13,12.8-18.2    C-144.7,254.8-137.7,249.9-129.9,246.9z M-136.9,235.5c1.6-0.6,2.6-2.6,1.8-4.2c-0.6-1.6-2.6-2.6-4.2-1.8    c-10,4-19.2,9.8-26.8,17.6c-6.6,6.6-11.8,14-15.6,22.4c-0.8,1.6,0,3.6,1.6,4.4c0.4,0.2,1,0.4,1.4,0.4c1.2,0,2.4-0.8,3-1.8    c3.6-7.6,8.4-14.6,14.4-20.6C-154.5,244.5-146.1,238.9-136.9,235.5z"></path>
</g>
</switch>
</svg>