<svg xmlns="http://www.w3.org/2000/svg" xmlns:xlink="http://www.w3.org/1999/xlink" x="0" y="0" width="20px" height="20px" viewBox="-210 205 225 225" style="enable-background:new -251 163 288 288;" xml:space="preserve">
<switch>
<g>
<path fill="#F80000" d="M-47.2,347.2h-25v-36.8h13.6l4.5,7.7h11.9l6-10.3l-6-10.3h-11.9l-4.5,7.8h-13.5v-36.7h35.8l-5,8.9H-16    L-28.7,255l-4.8,8.5h-43.8v41.8h-11.1c-1.2-9.2-9.1-16.3-18.7-16.3c-9.6,0-17.4,7.1-18.7,16.3h-11.4v-42.3h-23.4v-8.4h-21.9v21.9    h21.9v-8.4h18.3v37.1h-38.1l-5.6-9.9l-12.7,22.5h25.4l-4.2-7.5h35.2v37.1h-16.6l-4.5-7.8h-11.9l-6,10.3l6,10.3h11.9l4.5-7.8h21.7    v-42.2h11.4c1.2,9.2,9.1,16.3,18.7,16.3c9.6,0,17.4-7.1,18.7-16.3h11.1v41.9h30.1v8.6h21.9v-21.9h-21.9V347.2z M-165.6,271.4    h-11.6v-11.6h11.6V271.4z M-42.1,344.2h11.6v11.6h-11.6V344.2z"></path>
</g>
</switch>
</svg>