<svg xmlns="http://www.w3.org/2000/svg" xmlns:xlink="http://www.w3.org/1999/xlink" x="0" y="0" width="20px" height="20px" viewBox="-210 205 225 225" style="enable-background:new -251 163 288 288;" xml:space="preserve">
<switch>
<g>
<g>
<path fill="#F80000" d="M-147.5,354.3c-1.6,0-2.8-0.6-3.4-1.8c-0.6-1.1-0.9-2.6-0.9-4.5c0-1.9,0.3-3.4,0.9-4.5     c0.7-1.2,1.8-1.8,3.4-1.8c1.6,0,2.8,0.6,3.4,1.8c0.6,1.1,0.9,2.6,0.9,4.5c0,1.9-0.3,3.4-0.9,4.5     C-144.7,353.7-145.9,354.3-147.5,354.3z M-147.5,344.7c-0.4,0-0.6,0.2-0.7,0.5c-0.2,0.6-0.3,1.5-0.3,2.7c0,1.2,0.1,2.1,0.3,2.7     c0.1,0.4,0.3,0.6,0.7,0.6c0.3,0,0.5-0.1,0.7-0.6c0.2-0.6,0.3-1.5,0.3-2.7c0-1.3-0.1-2.2-0.3-2.8     C-146.9,344.9-147.1,344.7-147.5,344.7z"></path>
</g>
<path fill="#F80000" d="M-113.7,329.1h-4.2l-1.8-3.2l-1.9,3.2h-4.1l3.9-6.3l-3.8-6.1h4.2l1.6,3l1.7-3h4.1l-3.8,6L-113.7,329.1z"></path>
<path fill="#F80000" d="M-127.8,329.2h-3.5v-3.5h3.5V329.2z"></path>
<path fill="#F80000" d="M-127.8,323.2h-3.5v-3.5h3.5V323.2z"></path>
<path fill="#F80000" d="M-133,329.1h-8.7l0-0.6c0-0.9,0.2-1.7,0.6-2.4c0.3-0.8,1.1-1.7,2.4-2.6c1-0.7,1.6-1.2,1.8-1.5    c0.3-0.4,0.5-0.7,0.5-1.2c0-0.3-0.1-0.6-0.2-0.8c-0.1-0.2-0.3-0.2-0.6-0.2c-0.5,0-0.7,0.2-0.8,0.4c-0.1,0.1-0.2,0.4-0.2,1.1l0,0.6    h-3.3l0-0.6c0-1,0.2-1.9,0.6-2.5c0.7-1.3,1.9-2,3.6-2c1.3,0,2.4,0.4,3.2,1.1c0.8,0.8,1.2,1.8,1.2,3c0,0.9-0.3,1.8-0.8,2.5    c-0.3,0.5-0.9,1-1.7,1.5l-0.9,0.6c-0.2,0.1-0.3,0.2-0.5,0.3h3.9V329.1z"></path>
<g>
<path fill="#F80000" d="M-146.9,329.4c-1.6,0-2.8-0.6-3.4-1.8c-0.6-1.1-0.9-2.6-0.9-4.5s0.3-3.4,0.9-4.5c0.7-1.2,1.8-1.8,3.4-1.8     c1.6,0,2.8,0.6,3.4,1.8l0,0c0.6,1.1,0.9,2.6,0.9,4.5s-0.3,3.4-0.9,4.5C-144.2,328.8-145.3,329.4-146.9,329.4z M-146.9,319.8     c-0.4,0-0.6,0.2-0.7,0.5c-0.2,0.6-0.3,1.5-0.3,2.7c0,1.2,0.1,2.1,0.3,2.7c0.1,0.4,0.3,0.6,0.7,0.6c0.3,0,0.5-0.1,0.7-0.6l0,0     c0.2-0.6,0.3-1.5,0.3-2.7c0-1.3-0.1-2.2-0.3-2.8C-146.4,320-146.6,319.8-146.9,319.8z"></path>
</g>
<g>
<path fill="#F80000" d="M-146.9,304.5c-1.6,0-2.8-0.6-3.4-1.8c-0.6-1.1-0.9-2.6-0.9-4.5c0-1.9,0.3-3.4,0.9-4.5     c0.7-1.2,1.8-1.8,3.4-1.8s2.8,0.6,3.4,1.8l0,0c0.6,1.1,0.9,2.6,0.9,4.5c0,1.9-0.3,3.4-0.9,4.5     C-144.2,303.9-145.3,304.5-146.9,304.5z M-146.9,295c-0.4,0-0.6,0.2-0.7,0.5c-0.2,0.6-0.3,1.5-0.3,2.7c0,1.2,0.1,2.1,0.3,2.7     c0.1,0.4,0.3,0.6,0.7,0.6c0.3,0,0.5-0.1,0.7-0.6l0,0c0.2-0.6,0.3-1.5,0.3-2.7c0-1.3-0.1-2.2-0.3-2.8     C-146.4,295.1-146.6,295-146.9,295z"></path>
</g>
<path fill="#F80000" d="M-135.1,304.2h-3.4v-7.6h-2.6V294l0.6,0c0.8,0,1.2-0.1,1.3-0.1c0.3-0.1,0.6-0.2,0.7-0.4    c0.1-0.1,0.2-0.3,0.3-0.5c0.1-0.2,0.1-0.3,0.1-0.3v-0.6h3V304.2z"></path>
<path fill="#F80000" d="M-135.1,304.2h-3.4v-7.6h-2.6V294l0.6,0c0.8,0,1.2-0.1,1.3-0.1c0.3-0.1,0.6-0.2,0.7-0.4    c0.1-0.1,0.2-0.3,0.3-0.5c0.1-0.2,0.1-0.3,0.1-0.3v-0.6h3V304.2z"></path>
<g>
<polygon fill="#F80000" points="-159,277 -142,277 -142,261 -55,261 -55,362 -47,362 -47,253 -148,253 -153.7,258.9 -161.2,266.4      -167,272 -167,279.9 -167,362 -159,362"></polygon>
</g>
<g>
<polygon fill="#F80000" points="-114.4,292.1 -117.8,292.1 -119.7,295.4 -121.5,292.1 -125,292.1 -121.4,297.9 -125.2,304      -121.7,304 -119.7,300.5 -117.8,304 -114.2,304 -118,297.9"></polygon>
<path fill="#F80000" d="M-113.7,304.2h-4.2l-1.8-3.2l-1.9,3.2h-4.1l3.9-6.3l-3.8-6.1h4.2l1.6,3l1.7-3h4.1l-3.8,6L-113.7,304.2z"></path>
</g>
<g>
<path fill="#F80000" d="M-101.6,304.2h-4.2l-1.8-3.2l-1.9,3.2h-4.1l3.9-6.3l-3.8-6.1h4.2l1.6,3l1.7-3h4.1l-3.8,6L-101.6,304.2z"></path>
</g>
<g>
<path fill="#F80000" d="M-97.5,304.5c-1.6,0-2.8-0.6-3.4-1.8c-0.6-1.1-0.9-2.6-0.9-4.5c0-1.9,0.3-3.4,0.9-4.5     c0.7-1.2,1.8-1.8,3.4-1.8s2.8,0.6,3.4,1.8c0.6,1.1,0.9,2.6,0.9,4.5c0,1.9-0.3,3.4-0.9,4.5C-94.7,303.9-95.9,304.5-97.5,304.5z      M-97.5,295c-0.4,0-0.6,0.2-0.7,0.5c-0.2,0.6-0.3,1.5-0.3,2.7c0,1.2,0.1,2.1,0.3,2.7c0.1,0.4,0.3,0.6,0.7,0.6     c0.3,0,0.5-0.1,0.7-0.6l0,0c0.2-0.6,0.3-1.5,0.3-2.7c0-1.2-0.1-2.2-0.3-2.8C-96.9,295.1-97.1,295-97.5,295z"></path>
</g>
<g>
<polygon fill="#F80000" points="-89.3,304 -87.3,300.5 -85.3,304 -81.8,304 -85.6,297.9 -82,292.1 -85.4,292.1 -87.2,295.4      -89,292.1 -92.6,292.1 -89,297.9 -92.7,304"></polygon>
<path fill="#F80000" d="M-81.3,304.2h-4.2l-1.8-3.2l-1.9,3.2h-4.1l3.9-6.3l-3.8-6.1h4.2l1.6,3l1.7-3h4.1l-3.8,6L-81.3,304.2z"></path>
</g>
<g>
<path fill="#F80000" d="M-77.2,304.5c-1.6,0-2.8-0.6-3.4-1.8c-0.6-1.1-0.9-2.6-0.9-4.5s0.3-3.4,0.9-4.5c0.7-1.2,1.8-1.8,3.4-1.8     s2.8,0.6,3.4,1.8c0.6,1.1,0.9,2.6,0.9,4.5s-0.3,3.4-0.9,4.5C-74.4,303.9-75.5,304.5-77.2,304.5z M-77.2,295     c-0.4,0-0.6,0.2-0.7,0.5c-0.2,0.6-0.3,1.5-0.3,2.7c0,1.2,0.1,2.1,0.3,2.7c0.1,0.4,0.3,0.6,0.7,0.6c0.3,0,0.5-0.1,0.7-0.6v0     c0.2-0.6,0.3-1.5,0.3-2.7c0-1.3-0.1-2.2-0.3-2.8C-76.6,295.1-76.8,295-77.2,295z"></path>
</g>
<g>
<path fill="#F80000" d="M-101.6,329.1h-4.2l-1.8-3.2l-1.9,3.2h-4.1l3.9-6.3l-3.8-6.1h4.2l1.6,3l1.7-3h4.1l-3.8,6L-101.6,329.1z"></path>
</g>
<g>
<path fill="#F80000" d="M-134.6,347.7L-134.6,347.7c-0.1-0.1-0.1-0.1-0.2-0.1c0,0,0.1-0.1,0.1-0.1c0.5-0.5,0.7-1.2,0.7-2     c0-1.1-0.4-2-1.2-2.6c-0.7-0.6-1.7-1-2.9-1c-0.6,0-1.2,0.1-1.6,0.2c-0.5,0.2-0.9,0.4-1.2,0.7c-0.8,0.7-1.2,1.8-1.3,2.7l0,0.6h3.2     l0-0.3c0-0.5,0-0.7,0.3-0.9c0.3-0.3,0.9-0.3,1.2,0c0.1,0.2,0.2,0.4,0.2,0.6c0,0.5-0.2,0.7-0.4,0.8c-0.1,0-0.4,0.1-1.2,0.2l-0.3,0     v2.7h0.3c0.8,0,1.2,0.1,1.3,0.2c0.4,0.2,0.5,0.4,0.5,0.9c0,0.4-0.1,0.6-0.3,0.8c-0.2,0.2-0.4,0.3-0.7,0.3c-0.5,0-0.7-0.1-0.9-0.5     c-0.1-0.2-0.2-0.5-0.2-0.8v-0.6h-3.3l0,0.6c0,1,0.2,1.8,0.6,2.4c0.7,1.2,2,1.8,3.7,1.8c1.4,0,2.5-0.4,3.3-1.2     c0.7-0.8,1.1-1.8,1.1-2.8C-133.6,349.1-134,348.3-134.6,347.7z"></path>
<rect x="-131.2" y="343.7" fill="#F80000" width="3.5" height="3.5"></rect>
<rect x="-131.3" y="349.7" fill="#F80000" width="3.5" height="3.5"></rect>
<g>
<polygon fill="#F80000" points="-114.5,341.6 -118.6,341.6 -120.3,344.6 -121.9,341.6 -126.1,341.6 -122.3,347.7 -126.2,354       -122.1,354 -120.3,350.8 -118.5,354 -114.3,354 -118.2,347.6"></polygon>
<path fill="#F80000" d="M-106.7,343.5c-0.7-1.2-1.8-1.8-3.4-1.8c-1.6,0-2.8,0.6-3.4,1.8c-0.6,1.1-0.9,2.6-0.9,4.5      c0,1.9,0.3,3.4,0.9,4.5c0.7,1.2,1.8,1.8,3.4,1.8c1.6,0,2.8-0.6,3.4-1.8c0.6-1.1,0.9-2.6,0.9-4.5      C-105.8,346.1-106.1,344.6-106.7,343.5z M-110.9,345.3c0.1-0.4,0.3-0.5,0.7-0.5c0.4,0,0.6,0.2,0.7,0.5c0.2,0.6,0.3,1.5,0.3,2.8      c0,1.2-0.1,2.1-0.3,2.7c-0.1,0.5-0.4,0.6-0.7,0.6c-0.4,0-0.6-0.2-0.7-0.6c-0.2-0.6-0.3-1.5-0.3-2.7      C-111.1,346.8-111,345.8-110.9,345.3z"></path>
</g>
<polygon fill="#F80000" points="-97.9,347.6 -94.1,341.6 -98.2,341.6 -99.9,344.6 -101.5,341.6 -105.7,341.6 -102,347.7 -105.9,354      -101.8,354 -99.9,350.8 -98.2,354 -93.9,354"></polygon>
<g>
<path fill="#F80000" d="M-86.4,343.5c-0.7-1.2-1.8-1.8-3.4-1.8s-2.8,0.6-3.4,1.8c-0.6,1.1-0.9,2.6-0.9,4.5s0.3,3.4,0.9,4.5      c0.7,1.2,1.8,1.8,3.4,1.8s2.8-0.6,3.4-1.8c0.6-1.1,0.9-2.6,0.9-4.5C-85.5,346.1-85.8,344.6-86.4,343.5z M-89.1,350.7      c-0.1,0.5-0.4,0.6-0.7,0.6c-0.4,0-0.6-0.2-0.7-0.6c-0.2-0.6-0.3-1.5-0.3-2.7c0-1.2,0.1-2.2,0.3-2.7c0.1-0.4,0.3-0.5,0.7-0.5      c0.4,0,0.6,0.2,0.7,0.5c0.2,0.6,0.3,1.5,0.3,2.8C-88.9,349.2-89,350.1-89.1,350.7z"></path>
<polygon fill="#F80000" points="-77.6,347.6 -73.8,341.6 -77.9,341.6 -79.6,344.6 -81.2,341.6 -85.4,341.6 -81.6,347.7 -85.6,354       -81.5,354 -79.6,350.8 -77.8,354 -73.6,354"></polygon>
</g>
<polygon fill="#F80000" points="-65.5,347.6 -61.7,341.6 -65.8,341.6 -67.5,344.6 -69.1,341.6 -73.3,341.6 -69.5,347.7 -73.5,354      -69.4,354 -67.5,350.8 -65.7,354 -61.5,354"></polygon>
</g>
<path fill="#F80000" d="M-128.8,304.3h-3.5v-3.5h3.5V304.3z"></path>
<path fill="#F80000" d="M-128.8,298.3h-3.5v-3.5h3.5V298.3z"></path>
</g>
</switch>
</svg>