<svg xmlns="http://www.w3.org/2000/svg" xmlns:xlink="http://www.w3.org/1999/xlink" x="0" y="0" width="20px" height="20px" viewBox="-251 163 288 288" style="enable-background:new -251 163 288 288;" xml:space="preserve">
<switch>
<g>
<g>
<g>
<line fill="none" stroke="#F80000" stroke-width="4.7473" stroke-linecap="square" stroke-linejoin="round" x1="-74.9" y1="291" x2="-78.2" y2="289.7"></line>
<line fill="none" stroke="#F80000" stroke-width="4.7473" stroke-linecap="square" stroke-linejoin="round" stroke-dasharray="6.2138,11.392" x1="-88.9" y1="285.6" x2="-116.4" y2="275"></line>
<polyline fill="none" stroke="#F80000" stroke-width="4.7473" stroke-linecap="square" stroke-linejoin="round" points="-121.7,273 -125.1,271.7 -123.2,274.8"></polyline>
<line fill="none" stroke="#F80000" stroke-width="4.7473" stroke-linecap="square" stroke-linejoin="round" stroke-dasharray="3.8352,7.0311" x1="-119.6" y1="280.8" x2="-115.7" y2="287"></line>
<line fill="none" stroke="#F80000" stroke-width="4.7473" stroke-linecap="square" stroke-linejoin="round" x1="-113.9" y1="290" x2="-112.1" y2="293.1"></line>
</g>
</g>
<g>
<path fill="#F80000" d="M-131,263.5c0,13.5-11,24.5-24.5,24.5c-13.5,0-24.5-11-24.5-24.5c0-13.5,11-24.5,24.5-24.5     C-142,239-131,250-131,263.5z M-155.8,282.4c2.8,0,4.5-2,4.5-4.7c-0.1-2.8-1.8-4.7-4.5-4.7c-2.7,0-4.6,1.9-4.6,4.7     C-160.4,280.3-158.5,282.4-155.8,282.4L-155.8,282.4z M-151.5,247.3h-8.6l0.6,21h7.4L-151.5,247.3z"></path>
<g>
<path fill="#F80000" d="M-40.8,300.3c0,4.3-3.5,7.7-7.7,7.7s-7.7-3.5-7.7-7.7c0-4.3,3.5-7.7,7.7-7.7S-40.8,296.1-40.8,300.3z       M-48.6,306.3c0.9,0,1.4-0.6,1.4-1.5c0-0.9-0.6-1.5-1.4-1.5c-0.9,0-1.4,0.6-1.4,1.5C-50.1,305.6-49.5,306.3-48.6,306.3      L-48.6,306.3z M-47.3,295.2H-50l0.2,6.6h2.3L-47.3,295.2z"></path>
<path fill="#F80000" d="M-38.1,330.9H-59c-2.8,0-5.2-2.3-5.2-5.2v-50c0-2.8,2.3-5.2,5.2-5.2h20.8c2.8,0,5.2,2.3,5.2,5.2v50      C-33,328.6-35.3,330.9-38.1,330.9z M-35.9,322.9v-45.8c0-1.1-0.9-2.1-2.1-2.1h-21c-1.1,0-2.1,0.9-2.1,2.1v45.8      c0,1.1,0.9,2.1,2.1,2.1h21C-36.8,324.9-35.9,324-35.9,322.9z M-48.5,326.2c-1,0-1.8,0.8-1.8,1.8s0.8,1.8,1.8,1.8      s1.8-0.8,1.8-1.8S-47.6,326.2-48.5,326.2z M-48.5,272c-0.4,0-0.8,0.4-0.8,0.8c0,0.4,0.4,0.8,0.8,0.8s0.8-0.4,0.8-0.8      C-47.7,272.3-48.1,272-48.5,272z"></path>
</g>
<g>
<path fill="#F80000" d="M-89.6,332c0,7.9-6.4,14.3-14.3,14.3s-14.3-6.4-14.3-14.3c0-7.9,6.4-14.3,14.3-14.3S-89.6,324.1-89.6,332z       M-104.1,343c1.6,0,2.7-1.2,2.7-2.7c0-1.6-1.1-2.7-2.7-2.7c-1.6,0-2.7,1.1-2.7,2.7C-106.8,341.8-105.7,343-104.1,343L-104.1,343      z M-101.6,322.5h-5l0.4,12.3h4.3L-101.6,322.5z"></path>
<g>
<path fill="#F80000" d="M-161.7,364.6h110.2c1.4,0,2.5-1.1,2.5-2.5v-27.6h-6.3v19.3c0,2.1-1.7,3.8-3.8,3.8h-94.8       c-2.1,0-3.8-1.7-3.8-3.8v-43.8c0-2.1,1.7-3.8,3.8-3.8L-67,306v-7h-95c-1.4,0-2.2,1.6-2.2,3V362       C-164.2,363.4-163.1,364.6-161.7,364.6z"></path>
<path fill="#F80000" d="M-38.1,368l-47.3,0.1v2.4c0,0.7-0.6,1.3-1.3,1.3h-39.7c-0.7,0-1.3-0.6-1.3-1.3v-2.4L-175,368       c-1.2,0-2,0.8-2,2v6c0,1.2,0.8,2,2,2l137-0.1c1.2,0,2.1-1,2.1-2.1v-5.7C-35.9,369-36.9,368-38.1,368z"></path>
</g>
</g>
</g>
</g>
</switch>
</svg>