<svg xmlns="http://www.w3.org/2000/svg" xmlns:xlink="http://www.w3.org/1999/xlink" x="0" y="0" width="20px" height="20px" viewBox="-210 205 225 225" xml:space="preserve">
<g>
<g>
<g>
<polygon fill="#F80000" points="-44,298 -44,315 -29,306.5"></polygon>
</g>
</g>
<g>
<g>
<polygon fill="#F80000" points="-44,333 -44,350 -29,341.5"></polygon>
</g>
</g>
<g>
<g>
<polygon fill="#F80000" points="-44,263 -44,280 -29,271.5"></polygon>
</g>
</g>
<polyline fill="none" stroke="#F80000" stroke-width="6" stroke-miterlimit="10" points="-164,249 -55,249 -55,365 -165,365"></polyline>
<g>
<g>
<rect x="-137" y="299" fill="#F80000" width="15" height="15"></rect>
<rect x="-110" y="299" fill="#F80000" width="15" height="15"></rect>
<rect x="-83" y="299" fill="#F80000" width="15" height="15"></rect>
</g>
<g>
<rect x="-164" y="264" fill="#F80000" width="15" height="15"></rect>
<rect x="-137" y="264" fill="#F80000" width="15" height="15"></rect>
<rect x="-110" y="264" fill="#F80000" width="15" height="15"></rect>
<rect x="-83" y="264" fill="#F80000" width="15" height="15"></rect>
</g>
<g>
<rect x="-164" y="334" fill="#F80000" width="15" height="15"></rect>
<rect x="-137" y="334" fill="#F80000" width="15" height="15"></rect>
<rect x="-110" y="334" fill="#F80000" width="15" height="15"></rect>
<rect x="-83" y="334" fill="#F80000" width="15" height="15"></rect>
</g>
</g>
</g>
</svg>