<svg xmlns="http://www.w3.org/2000/svg" xmlns:xlink="http://www.w3.org/1999/xlink" x="0" y="0" width="20px" height="20px" viewBox="-210 205 225 225" style="enable-background:new -251 163 288 288;" xml:space="preserve">
<switch>
<g>
<g>
<path fill="#F80000" d="M-106,307.6c-2,0-4.1,1-5.3,2.4l-12.8-7.6c0.3-0.7,0.4-1.5,0.4-2.4c0-0.9-0.2-1.7-0.4-2.4l15-8.8     c0.8,0.8,1.8,1.2,3.1,1.2c2.6,0,4.9-2.2,4.9-4.9c0-2.6-2.2-4.9-4.9-4.9c-2.6,0-4.9,2.2-4.9,4.9c0,0.4,0,0.6,0,1l-14.9,8.8     c-1-1-2.2-1.7-3.6-1.9v-15.2c3.3-0.8,5.7-3.7,5.7-7.1c0-4.1-3.3-7.3-7.3-7.3c-4.1,0-7.3,3.3-7.3,7.3c0,3.5,2.4,6.5,5.7,7.1v15.3     c-1.4,0.4-2.7,1.2-3.6,2.3l-15.3-9c0-0.2,0-0.6,0-1c0-2.6-2.2-4.9-4.9-4.9c-2.6,0-4.5,2.2-4.5,4.9c0,2.6,2.2,4.9,4.9,4.9     c1.2,0,2.2-0.4,3.1-1.2l15.3,9c-0.2,0.7-0.3,1.3-0.3,2.1c0,0.7,0.1,1.4,0.3,2.1l-13.1,7.8c-1.4-1.4-3.3-2.4-5.3-2.4     c-4.1,0-7.3,3.3-7.3,7.3c0,4.1,3.3,7.3,7.3,7.3c4.1,0,7.3-3.3,7.3-7.3c0-0.8-0.2-1.4-0.4-2.2l13-7.7c1,1.1,2.2,1.8,3.7,2.2v18     c-1.8,0.6-3.3,2.4-3.3,4.7c0,2.6,2.2,4.9,4.9,4.9c2.6,0,4.9-2.2,4.9-4.9c0-2-1.4-3.9-3.3-4.7v-18c1.4-0.3,2.7-1.1,3.7-2.2l13,7.7     c-0.2,0.6-0.4,1.4-0.4,2.2c0,4.1,3.3,7.3,7.3,7.3c4.1,0,7.3-3.3,7.3-7.3C-98.7,310.9-102,307.6-106,307.6z"></path>
<path fill="#F80000" d="M-42.7,373L-71,344.3c-1.8-1.8-4.7-1.8-6.3,0l-1.2,1.2l-14.9-15.2c10.5-13.2,13.2-30.8,8.1-46.4h35.8     c1.8,0,3.3-1.4,3.3-3.3c0-1.8-1.4-3.3-3.3-3.3h-38.4c-1-2-2.1-4-3.4-5.9h41.9c1.8,0,3.3-1.4,3.3-3.3s-1.4-3.3-3.3-3.3h-47.1     c-0.1-0.1-0.2-0.3-0.4-0.4c-2-2-4.1-3.9-6.4-5.5h53.9c1.8,0,3.3-1.4,3.3-3.3c0-1.8-1.4-3.3-3.3-3.3h-66.7     c-4.8-1.6-10-2.4-15.2-2.4c-5.2,0-10.4,0.8-15.2,2.4h-18.1c-1.8,0-3.3,1.4-3.3,3.3c0,1.8,1.4,3.3,3.3,3.3h5.3     c-2.3,1.6-4.4,3.5-6.4,5.5c-18.9,19.1-18.9,50.5,0,69.8c9.2,9.4,21.4,14.4,34.4,14.4c11.2,0,21.7-3.9,30.3-10.8l15,15.2l-1.2,1.3     c-1.6,1.6-1.6,4.5,0,6.3l28.3,28.7c1.8,1.8,4.7,1.8,6.3,0l10-10.2C-41.1,377.7-41.1,374.8-42.7,373z M-101.6,329.5     c-7.9,7.9-18.5,12.4-29.7,12.4c-11.2,0-21.8-4.3-29.7-12.4c-16.5-16.7-16.5-43.7,0-60.4c7.9-7.9,18.5-12.4,29.7-12.4     c11.2,0,21.6,4.3,29.7,12.4C-85.1,285.8-85.1,312.8-101.6,329.5z"></path>
<path fill="#F80000" d="M-164.5,234.5h115.1c1.8,0,3.3-1.4,3.3-3.3c0-1.8-1.4-3.3-3.3-3.3h-115.1c-1.8,0-3.3,1.4-3.3,3.3     C-167.8,233.1-166.2,234.5-164.5,234.5z"></path>
<path fill="#F80000" d="M-164.5,246.9h115.1c1.8,0,3.3-1.4,3.3-3.3c0-1.8-1.4-3.3-3.3-3.3h-115.1c-1.8,0-3.3,1.4-3.3,3.3     C-167.8,245.5-166.4,246.9-164.5,246.9z"></path>
</g>
</g>
</switch>
</svg>