<svg xmlns="http://www.w3.org/2000/svg" xmlns:xlink="http://www.w3.org/1999/xlink" x="0" y="0" width="20px" height="20px" viewBox="85 80 140 140" xml:space="preserve">
<g>
<g>
<path fill="#F80000" d="M84.8,159.2v-9.6v-38.7h118.4v54.4h4.7V96.6c0-1.3-1.1-2.4-2.4-2.4H82.5c-1.3,0-2.4,1.1-2.4,2.4v53.2v9.1     M80.1,159v34.7h4.7v-34.6 M91.9,106.1h-7.1V99h7.1V106.1z"></path>
<rect x="129.4" y="158.1" fill="#F80000" width="11.4" height="28.6"></rect>
<rect x="182.8" y="149" fill="#F80000" width="11.4" height="37.8"></rect>
<rect x="147.2" y="149.1" fill="#F80000" width="11.4" height="37.6"></rect>
<rect x="111.6" y="172.1" fill="#F80000" width="11.4" height="14.7"></rect>
<rect x="165" y="163.5" fill="#F80000" width="11.4" height="23.2"></rect>
<rect x="93.8" y="164.7" fill="#F80000" width="11.4" height="22"></rect>
<path fill="#F80000" d="M115,158.6c-0.5,0-1-0.2-1.4-0.5l-22.3-18.3l2.9-3.5l20.9,17.1l35.9-30.3c0.5-0.4,1-0.6,1.7-0.5    c0.6,0.1,1.2,0.4,1.5,0.8l16.5,20.2l22.2-20.2l3,3.3l-24,21.8c-0.5,0.4-1.1,0.6-1.7,0.6c-0.6,0-1.2-0.3-1.6-0.8L152,128l-35.6,30    C116,158.4,115.5,158.6,115,158.6z"></path>
</g>
</g>
</svg>