<svg xmlns="http://www.w3.org/2000/svg" xmlns:xlink="http://www.w3.org/1999/xlink" x="0" y="0" width="20px" height="20px" viewBox="-180 235 160 160" xml:space="preserve">
<switch>
<g>
<g>
<path fill="none" stroke="#F80000" stroke-width="6" stroke-miterlimit="10" d="M-161,340c0,0.5,0-60.7,0-76.7c0-9.2,3.8-19.1,18.4-19.1c14.6,0,17.7,9.7,17.9,18.6c0.1,11.3,0,31.5,0,46.8     c0,12.9-1,23.1,9.3,26.7c2.5,0.9,4.3,1.9,7.9,1.9c20.9,0,19.4-18.4,19.5-29c0-11.1,0-18.7,0-29.1c0-15.5,9.1-13.6,17-13.6     c14.3,0,19.6,0,19.6,0"></path>
<path fill="none" stroke="#F80000" stroke-width="6" stroke-miterlimit="10" d="M-81,363c0,0-3.7,0-11,0c-7.2,0-15,0.8-15-12c0-11.9,0-12,0-12"></path>
</g>
<rect x="-82.8" y="354" fill="#F80000" width="28.8" height="18"></rect>
<rect x="-102.8" y="306" fill="#F80000" width="28.8" height="18"></rect>
<rect x="-139" y="264" fill="#F80000" width="28.8" height="18"></rect>
<rect x="-175.8" y="295" fill="#F80000" width="28.8" height="18"></rect>
<rect x="-175.8" y="331" fill="#F80000" width="28.8" height="18"></rect>
<rect x="-67.8" y="257" fill="#F80000" width="28.8" height="18"></rect>
</g>
</switch>
</svg>