<svg xmlns="http://www.w3.org/2000/svg" x="0" y="0" width="20px" height="20px" viewBox="0 0 128 128">
<g>
<path d="M126.47,58.12l-26.3-45.74A11.56,11.56,0,0,0,90.31,6.5H37.7a11.55,11.55,0,0,0-9.86,5.88L1.53,58a11.48,11.48,0,0,0,0,11.44l26.3,46a11.77,11.77,0,0,0,9.86,6.09H90.3a11.73,11.73,0,0,0,9.87-6.06l26.3-45.74A11.73,11.73,0,0,0,126.47,58.12Z" style="fill: #4285f4"/>
<path d="M94,38,76.4,46H60L49,35,42.23,46H42l-8,4,7.65,7.65L40,89l32.5,32.5H90.3a11.73,11.73,0,0,0,9.87-6.06l26-45.25Z" style="opacity: 0.070000000298023;isolation: isolate"/>
<rect x="57" y="38" width="37" height="11" style="fill: #fff"/>
<rect data-name="Rectangle-path" x="42" y="64" width="16" height="3" style="fill: #fff"/>
<rect data-name="Rectangle-path" x="57" y="60" width="37" height="11" style="fill: #fff"/>
<rect data-name="Rectangle-path" x="42" y="86" width="16" height="3" style="fill: #fff"/>
<rect data-name="Rectangle-path" x="40" y="50" width="3" height="39" style="fill: #fff"/>
<g>
<rect data-name="Rectangle-path" x="34" y="35" width="15" height="15" style="fill: #fff"/>
<rect data-name="Rectangle-path" x="57" y="82" width="37" height="11" style="fill: #fff"/>
</g>
</g>
</svg>