<svg xmlns="http://www.w3.org/2000/svg" xmlns:xlink="http://www.w3.org/1999/xlink" x="0" y="0" width="20px" height="20px" viewBox="-251 163 288 288" style="enable-background:new -251 163 288 288;" xml:space="preserve">
<switch>
<g>
<path fill="#F80000" d="M-180,338.2c0-0.5,0-1.1,0-1.6l11.2-95.6c0.4-4,3.8-6.9,7.8-6.9h105.1c3.9,0,7.2,2.9,7.7,6.7l13.9,95.6    c0.1,0.6,0.1,1.2,0,1.8c-1.3-2-3.6-3.3-6.2-3.3h-133.5C-176.4,334.8-178.7,336.2-180,338.2z M-31.4,356v-4.7    c0-4.7-4.3-9.4-8.6-9.4h-136.2c-4.2,0-6.8,4.7-6.8,9.4v4.7c0.1,0.3,1.2-4.2,9.4-3.6h132.8C-32.5,352.4-31.4,356.3-31.4,356z     M-29.7,373.6v-6.2c0-4.6-3.7-8.3-8.3-8.3h-138c-4.6,0-8.3,3.7-8.3,8.3v6.2c0,4.6,3.7,8.3,8.3,8.3h138    C-33.4,381.9-29.7,378.2-29.7,373.6z M-37,370.4c0,2.3-1.9,4.2-4.2,4.2c-2.3,0-4.2-1.9-4.2-4.2c0-2.3,1.9-4.2,4.2-4.2    C-38.9,366.2-37,368.1-37,370.4z M-67,298.9c0-8.5-6.3-15.5-14.5-16.6c0-0.1,0-0.1,0-0.2c0-11.9-9.6-21.5-21.5-21.5    c-7.8,0-14.6,4.1-18.4,10.3c-1.2-0.4-2.5-0.6-3.8-0.6c-7,0-12.6,5.6-12.8,12.5c-6.8,2.1-11.8,8.5-11.8,16.1    c0,9.2,7.4,16.7,16.6,16.8c0.9,0.2,1.8,0.3,2.7,0.3h46.1c1.3,0,2.6-0.2,3.7-0.7C-72.8,313.9-67,307.1-67,298.9z"></path>
</g>
</switch>
</svg>