<svg xmlns="http://www.w3.org/2000/svg" xmlns:xlink="http://www.w3.org/1999/xlink" x="0" y="0" width="20px" height="20px" viewBox="-180 240 150 150" style="enable-background:new -251 163 288 288;" xml:space="preserve">
<switch>
<g>
<g>
<g>
<path fill="#F80000" d="M-63,265v22.6h-89.6V265c0-1.6,1.4-3,3-3H-66C-64.4,262-63,263.4-63,265z M-74.4,270.1      c-2.4,0-4.4,2-4.4,4.4c0,2.4,2,4.4,4.4,4.4c2.4,0,4.4-2,4.4-4.4C-70,272-72,270.1-74.4,270.1z"></path>
<path fill="#F80000" d="M-63,293.4v27h-89.6v-27H-63z M-74.4,302.9c-2.4,0-4.4,2-4.4,4.4c0,2.4,2,4.4,4.4,4.4c2.4,0,4.4-2,4.4-4.4      C-70,304.9-72,302.9-74.4,302.9z"></path>
<path fill="#F80000" d="M-63,325.6v24.1c0,1.6-1.4,3-3,3h-83.6c-1.6,0-3-1.4-3-3v-24.1H-63z M-74.4,334.4c-2.4,0-4.4,2-4.4,4.4      c0,2.4,2,4.4,4.4,4.4c2.4,0,4.4-2,4.4-4.4C-70,336.3-72,334.4-74.4,334.4z"></path>
</g>
<path fill="#F80000" d="M-167.8,365.2c-2.1-3.1-3.2-7.3-3.2-12.5v-20.1c0-2.7-0.1-5.4-0.4-8.1c-0.3-2.6-0.8-5-1.5-7.1     c-0.7-2.1-1.7-3.7-3-4.9c-1.3-1.2-2.9-1.8-4.9-1.8v-7.3c2,0,3.7-0.6,4.9-1.8c1.3-1.2,2.3-2.9,3-4.9c0.7-2.1,1.2-4.4,1.5-7.1     c0.3-2.6,0.4-5.3,0.4-8.1v-20.4c0-5.2,1-9.4,3.2-12.5c2.1-3.1,5.1-4.7,8.9-4.7h6.8v7.3h-2.7c-1.4,0-2.5,0.4-3.5,1.2     c-1,0.8-1.7,1.8-2.3,3.2c-0.6,1.3-1,2.8-1.3,4.5c-0.3,1.7-0.4,3.4-0.4,5.3v19.3c0,3.7-0.4,7-1.2,9.7c-0.8,2.7-1.8,4.9-2.9,6.7     c-1.1,1.8-2.2,3.1-3.2,4c-1.1,0.9-1.8,1.5-2.3,1.8v0.3c0.5,0.3,1.2,0.9,2.3,1.8c1,0.9,2.1,2.3,3.2,4c1.1,1.8,2.1,4,2.9,6.7     c0.8,2.7,1.2,5.9,1.2,9.7v19.2c0,1.8,0.1,3.6,0.4,5.3c0.3,1.7,0.7,3.2,1.3,4.5c0.6,1.3,1.4,2.3,2.3,3.1c1,0.8,2.1,1.2,3.5,1.2     h2.7v7.3h-6.8C-162.7,369.9-165.7,368.3-167.8,365.2z"></path>
<path fill="#F80000" d="M-47,248.7c2.1,3.1,3.2,7.3,3.2,12.5v20.3c0,2.7,0.1,5.4,0.4,8.1c0.3,2.6,0.8,5,1.5,7.1     c0.7,2.1,1.7,3.7,3,4.9c1.3,1.2,2.9,1.8,4.9,1.8v7.3c-2,0-3.7,0.6-4.9,1.8c-1.3,1.2-2.3,2.9-3,4.9c-0.7,2.1-1.2,4.4-1.5,7.1     c-0.3,2.7-0.4,5.3-0.4,8.1v20.3c0,5.2-1.1,9.4-3.2,12.5c-2.1,3.1-5.1,4.7-8.9,4.7h-6.8v-7.3h2.7c1.4,0,2.5-0.4,3.5-1.2     c1-0.8,1.7-1.8,2.3-3.1c0.6-1.3,1-2.8,1.3-4.5c0.3-1.7,0.4-3.5,0.4-5.3v-19.2c0-3.7,0.4-7,1.2-9.7c0.8-2.7,1.8-4.9,2.9-6.7     c1.1-1.8,2.2-3.1,3.2-4c1-0.9,1.8-1.5,2.3-1.8v-0.3c-0.5-0.3-1.2-0.9-2.3-1.8c-1.1-0.9-2.1-2.3-3.2-4c-1.1-1.8-2.1-4-2.9-6.7     c-0.8-2.7-1.2-5.9-1.2-9.7v-19.3c0-1.8-0.1-3.6-0.4-5.3c-0.3-1.7-0.7-3.2-1.3-4.5c-0.6-1.3-1.4-2.4-2.3-3.2     c-1-0.8-2.1-1.2-3.5-1.2h-2.7V244h6.8C-52.1,244-49.1,245.6-47,248.7z"></path>
</g>
</g>
</switch>
</svg>