<svg width="20px" height="20px" viewBox="0 0 41 41" xmlns="http://www.w3.org/2000/svg" xmlns:xlink="http://www.w3.org/1999/xlink">
    <g stroke="none" stroke-width="1" fill="none" fill-rule="evenodd">
        <g transform="translate(1.000000, 1.000000)">
            <g stroke="#00C1DE" stroke-width="1.6">
                <rect fill="#FFFFFF" fill-rule="nonzero" x="0.6" y="0.6" width="38.4" height="38.4" rx="8"></rect>
                <rect x="0.6" y="0.6" width="38.4" height="38.4" rx="8"></rect>
            </g>
            <g transform="translate(6.500000, 6.500000)" fill="#00C1DE" fill-rule="nonzero">
                <path d="M6.72,10.6 L6.77,10.6 L6.77,10.57 L6.79,10.57 L6.77,10.55 L6.77,4.21 L4.21,4.21 L4.21,8.69 L0.38,10.62 L1.65,13.15 L6.72,10.6 L6.72,10.6 Z M20.83,10.6 L20.88,10.6 L25.97,13.13 L27.24,10.6 L23.41,8.67 L23.41,4.19 L20.85,4.19 L20.85,10.53 L20.83,10.55 L20.83,10.6 L20.83,10.6 L20.83,10.6 Z M13.72,6 L13.72,6 L13.75,6 L13.77,5.98 L19.26,2.81 L17.99,0.6 L14.12,2.83 L10.53,0.47 L8.96,2.83 L13.7,5.98 L13.72,6 L13.72,6 L13.72,6 Z M6.75,16.98 L6.7,16.98 L1.63,14.45 L0.36,16.98 L4.19,18.91 L4.19,23.39 L6.75,23.39 L6.75,17.05 L6.77,17.03 L6.75,16.98 L6.75,16.98 L6.75,16.98 L6.75,16.98 Z M20.83,13.79 C20.83,11.84 20.15,10.18 18.78,8.82 C17.4,7.45 15.74,6.77 13.81,6.77 C11.86,6.77 10.2,7.45 8.85,8.82 C7.47,10.2 6.79,11.86 6.79,13.79 C6.79,14.75 6.97,15.65 7.34,16.52 C7.71,17.4 8.21,18.14 8.85,18.78 C9.48,19.41 10.22,19.91 11.1,20.28 C11.97,20.66 12.87,20.83 13.83,20.83 C15.78,20.83 17.44,20.15 18.8,18.78 C20.13,17.38 20.83,15.74 20.83,13.79 L20.83,13.79 Z M9.94,13.79 C9.94,12.74 10.31,11.82 11.06,11.08 C11.8,10.33 12.72,9.96 13.77,9.96 C14.82,9.96 15.74,10.33 16.48,11.08 C17.22,11.82 17.59,12.74 17.59,13.79 C17.59,14.84 17.22,15.76 16.48,16.5 C15.74,17.24 14.82,17.62 13.77,17.62 C13.07,17.62 12.43,17.44 11.84,17.09 C11.25,16.74 10.79,16.28 10.44,15.69 C10.11,15.12 9.94,14.49 9.94,13.79 L9.94,13.79 L9.94,13.79 Z M20.85,16.98 L20.81,16.98 L20.81,17 L20.79,17 L20.81,17.03 L20.81,23.37 L23.37,23.37 L23.37,18.88 L27.2,16.96 L25.93,14.42 L20.85,16.98 L20.85,16.98 Z M13.75,21.57 L13.75,21.57 L13.72,21.57 L13.7,21.62 L8.96,24.77 L10.53,27.13 L14.12,24.77 L17.99,27 L19.26,24.79 L13.77,21.62 L13.75,21.57 L13.75,21.57 Z" id="Shape"></path>
            </g>
        </g>
    </g>
</svg>