<svg width="20px" height="20px" viewBox="0 0 41 41" xmlns="http://www.w3.org/2000/svg" xmlns:xlink="http://www.w3.org/1999/xlink">
    <g stroke="none" stroke-width="1" fill="none" fill-rule="evenodd">
        <g transform="translate(1.000000, 1.000000)">
            <g stroke="#00C1DE" stroke-width="1.6">
                <rect fill="#FFFFFF" fill-rule="nonzero" x="0.6" y="0.6" width="38.4" height="38.4" rx="8"></rect>
                <rect x="0.6" y="0.6" width="38.4" height="38.4" rx="8"></rect>
            </g>
            <g transform="translate(6.500000, 7.500000)" fill="#00C1DE" fill-rule="nonzero">
                <path d="M25.16,15.67 C24.99,15.56 24.83,15.56 24.63,15.65 C24.44,15.73 24.36,15.88 24.36,16.07 L24.36,17.21 C24.36,17.34 24.42,17.49 24.57,17.61 C25.06,18.04 25.31,18.44 25.31,18.82 C25.31,19.07 25.16,19.35 24.89,19.65 C24.61,19.94 24.27,20.22 23.87,20.47 C23.47,20.73 23.02,20.96 22.56,21.17 C20.23,22.21 17.31,22.71 13.81,22.71 C10.49,22.71 7.56,22.21 5.06,21.17 C4.19,20.79 3.52,20.39 3.03,19.94 C2.54,19.5 2.31,19.12 2.31,18.82 C2.31,18.63 2.37,18.44 2.5,18.25 C2.63,18.06 2.82,17.85 3.05,17.61 C3.18,17.55 3.26,17.4 3.26,17.21 L3.26,16.07 C3.26,15.86 3.18,15.71 2.99,15.63 C2.8,15.52 2.63,15.54 2.46,15.67 C1.06,16.64 0.36,17.7 0.36,18.82 C0.36,19.9 0.95,20.89 2.16,21.8 C3.37,22.71 4.98,23.43 7.03,23.96 C9.09,24.49 11.33,24.75 13.77,24.75 C15.59,24.75 17.33,24.6 18.98,24.28 C20.63,23.96 22.07,23.54 23.26,23.01 C24.44,22.48 25.4,21.85 26.12,21.13 C26.82,20.41 27.18,19.65 27.18,18.84 C27.24,17.72 26.58,16.66 25.16,15.67 L25.16,15.67 Z M21.33,4.37 C21.33,4.26 21.31,4.13 21.29,4.03 C21.27,3.92 21.22,3.82 21.18,3.73 C21.14,3.65 21.08,3.56 21.03,3.48 C20.97,3.39 20.91,3.33 20.82,3.27 C20.74,3.2 20.67,3.14 20.59,3.1 C20.5,3.05 20.42,3.01 20.31,2.99 C20.21,2.97 20.12,2.95 20.04,2.95 C19.83,2.95 19.61,3.01 19.4,3.14 C19.21,3.27 19.04,3.44 18.94,3.67 C18.81,3.88 18.77,4.11 18.77,4.37 L18.77,19.1 L21.33,19.1 L21.33,4.37 L21.33,4.37 Z M17.09,5.97 C17.09,5.57 16.97,5.23 16.71,4.98 C16.46,4.71 16.16,4.58 15.82,4.58 C15.48,4.58 15.17,4.71 14.89,4.98 C14.62,5.26 14.49,5.59 14.49,5.97 L14.49,19.1 L17.05,19.1 L17.05,5.97 L17.09,5.97 L17.09,5.97 Z M12.77,2.27 C12.77,1.85 12.67,1.51 12.43,1.26 C12.2,1 11.88,0.85 11.5,0.85 C11.31,0.85 11.12,0.9 10.97,0.96 C10.8,1.02 10.68,1.13 10.57,1.26 C10.46,1.38 10.38,1.53 10.32,1.7 C10.25,1.87 10.23,2.06 10.23,2.27 L10.23,19.03 L12.79,19.03 L12.77,2.27 L12.77,2.27 Z M8.47,8.54 C8.47,8.35 8.43,8.15 8.37,7.99 C8.3,7.82 8.2,7.67 8.09,7.54 C7.99,7.41 7.84,7.33 7.69,7.24 C7.54,7.18 7.37,7.14 7.2,7.14 C6.99,7.14 6.78,7.2 6.57,7.33 C6.38,7.46 6.21,7.63 6.1,7.86 C5.97,8.07 5.93,8.3 5.93,8.56 L5.93,19.12 L8.49,19.12 L8.47,8.54 L8.47,8.54 Z" id="Shape"></path>
            </g>
        </g>
    </g>
</svg>