<svg width="20px" height="20px" viewBox="0 0 41 41" xmlns="http://www.w3.org/2000/svg" xmlns:xlink="http://www.w3.org/1999/xlink">
    <g stroke="none" stroke-width="1" fill="none" fill-rule="evenodd">
        <g transform="translate(1.000000, 1.000000)">
            <g stroke="#00C1DE" stroke-width="1.6">
                <rect fill="#FFFFFF" fill-rule="nonzero" x="0.6" y="0.6" width="38.4" height="38.4" rx="8"></rect>
                <rect x="0.6" y="0.6" width="38.4" height="38.4" rx="8"></rect>
            </g>
            <g transform="translate(6.500000, 7.500000)" fill="#00C1DE" fill-rule="nonzero">
                <path d="M27.24,12.8 C27.24,11.78 26.85,10.83 26.06,9.94 C25.28,9.06 24.16,8.28 22.7,7.63 C22.79,6.59 22.76,5.64 22.63,4.77 C22.51,3.91 22.25,3.17 21.88,2.54 C21.52,1.92 21.06,1.44 20.5,1.11 C20.16,0.94 19.84,0.79 19.51,0.7 C19.19,0.62 18.85,0.55 18.48,0.55 C17.02,0.62 15.47,1.24 13.79,2.46 C13.23,2.05 12.69,1.7 12.13,1.42 C11.59,1.14 11.06,0.94 10.56,0.79 C10.04,0.66 9.57,0.6 9.1,0.6 C8.37,0.6 7.7,0.77 7.07,1.09 C6.67,1.35 6.3,1.68 5.98,2.09 C5.68,2.5 5.42,2.98 5.25,3.54 C5.05,4.08 4.94,4.71 4.88,5.4 C4.81,6.09 4.81,6.83 4.9,7.63 C3.44,8.28 2.34,9.03 1.54,9.94 C0.77,10.83 0.36,11.78 0.36,12.8 C0.36,13.82 0.75,14.77 1.54,15.66 C2.34,16.54 3.44,17.32 4.9,17.97 C4.81,19.01 4.84,19.96 4.97,20.83 C5.09,21.69 5.35,22.43 5.72,23.06 C6.08,23.68 6.54,24.16 7.1,24.49 C7.78,24.85 8.45,25.05 9.12,25.05 C10.58,25.05 12.13,24.42 13.81,23.19 C15.49,24.42 17.06,25.05 18.5,25.05 C19.23,25.05 19.9,24.87 20.53,24.55 C21.36,24.05 21.97,23.23 22.35,22.08 C22.74,20.94 22.85,19.59 22.72,18.02 C23.69,17.56 24.51,17.06 25.17,16.52 C25.84,15.96 26.36,15.38 26.72,14.75 C27.07,14.12 27.24,13.47 27.24,12.8 L27.24,12.8 Z M25.63,12.8 C25.63,13.38 25.37,13.99 24.83,14.57 C24.29,15.16 23.54,15.72 22.55,16.22 L22.48,16.22 C22.29,15.27 21.95,14.1 21.43,12.74 C21.95,11.46 22.29,10.29 22.48,9.25 L22.55,9.25 C23.52,9.79 24.29,10.35 24.81,10.98 C25.37,11.61 25.63,12.22 25.63,12.8 L25.63,12.8 Z M14.95,14.99 C15.15,14.83 15.34,14.64 15.49,14.4 C15.64,14.16 15.77,13.88 15.86,13.58 C16.11,13.38 16.24,13.17 16.24,12.91 L16.24,12.28 C16.24,12.15 16.22,12.04 16.2,11.96 C16.16,11.85 16.11,11.78 16.03,11.72 C16.01,11.48 15.96,11.26 15.92,11.07 C15.86,10.85 15.77,10.61 15.62,10.33 C15.47,10.05 15.25,9.84 14.95,9.66 C14.65,9.49 14.28,9.4 13.85,9.4 C13.42,9.4 13.06,9.49 12.76,9.64 C12.45,9.79 12.24,10.01 12.09,10.29 C11.94,10.55 11.85,10.79 11.79,11 C11.72,11.22 11.7,11.44 11.68,11.65 C11.64,11.67 11.59,11.72 11.57,11.76 C11.55,11.8 11.53,11.85 11.51,11.89 C11.49,11.93 11.49,12 11.46,12.04 C11.46,12.09 11.44,12.15 11.44,12.22 L11.44,12.84 C11.44,12.99 11.49,13.15 11.55,13.3 C11.62,13.45 11.72,13.56 11.85,13.64 C12.02,14.21 12.33,14.68 12.76,15.05 L12.76,15.16 C12.76,15.18 12.76,15.2 12.76,15.22 C12.76,15.25 12.76,15.27 12.73,15.31 C12.73,15.33 12.71,15.38 12.69,15.38 C12.26,15.46 11.79,15.63 11.29,15.87 C10.8,16.11 10.39,16.39 10.07,16.72 C10,16.61 9.72,16.2 9.29,15.48 C9.21,15.35 9.14,15.22 9.08,15.09 C9.01,14.99 8.95,14.86 8.88,14.73 C8.82,14.6 8.75,14.47 8.69,14.36 C8.62,14.25 8.56,14.12 8.5,13.99 C8.43,13.86 8.37,13.75 8.32,13.62 C8.28,13.49 8.22,13.38 8.15,13.25 C8.11,13.12 8.04,13.02 8,12.89 C8.45,11.85 8.88,10.98 9.29,10.25 C9.55,9.79 9.98,9.12 10.58,8.21 L10.86,7.76 C11.81,7.65 12.76,7.58 13.7,7.58 C14.76,7.58 15.73,7.65 16.54,7.76 C17.06,8.36 17.6,9.19 18.16,10.22 C18.76,11.29 19.17,12.15 19.45,12.8 C19,13.86 18.57,14.73 18.16,15.38 L18.09,15.44 C18.05,15.63 17.88,16.02 17.53,16.57 C17.23,16.28 16.82,16.02 16.33,15.76 C15.83,15.53 15.36,15.33 14.91,15.2 C14.91,15.18 14.91,15.16 14.89,15.14 C14.87,15.07 14.84,15.03 14.84,14.99 L14.84,14.92 L14.95,14.99 Z M20.27,10.27 C20.2,10.16 20.14,9.99 20.01,9.79 C19.88,9.6 19.82,9.42 19.75,9.32 C19.45,8.8 19.21,8.41 19.02,8.13 C19.69,8.3 20.31,8.47 20.87,8.62 C20.78,9.19 20.63,9.84 20.42,10.59 C20.37,10.55 20.31,10.44 20.27,10.27 L20.27,10.27 Z M8.62,8.13 C8.54,8.23 8.45,8.36 8.39,8.49 C8.3,8.62 8.22,8.8 8.11,8.99 C8,9.19 7.94,9.32 7.89,9.36 C7.78,9.55 7.61,9.86 7.4,10.31 L7.23,10.66 C7.01,9.9 6.86,9.23 6.77,8.69 C6.99,8.62 7.14,8.56 7.25,8.52 C7.35,8.47 7.51,8.43 7.68,8.36 C7.85,8.3 8.02,8.26 8.17,8.21 C8.34,8.19 8.5,8.17 8.62,8.13 L8.62,8.13 Z M7.4,15.27 C7.46,15.38 7.53,15.55 7.66,15.74 C7.78,15.94 7.85,16.11 7.91,16.22 C8.22,16.74 8.45,17.13 8.65,17.41 C7.98,17.24 7.35,17.06 6.79,16.91 C6.88,16.37 7.03,15.7 7.25,14.94 L7.4,15.27 Z M19.04,17.47 L19.38,16.98 C19.43,16.87 19.49,16.78 19.56,16.67 C19.62,16.57 19.71,16.46 19.84,16.31 C19.94,16.11 20.12,15.81 20.33,15.35 C20.35,15.31 20.37,15.29 20.37,15.27 C20.37,15.25 20.4,15.22 20.42,15.18 C20.44,15.14 20.44,15.12 20.46,15.07 C20.48,15.03 20.48,15.01 20.5,14.96 C20.63,15.33 20.72,15.68 20.81,16 C20.87,16.31 20.93,16.63 20.96,16.93 C20.89,16.95 20.81,16.98 20.68,17.02 C20.55,17.06 20.46,17.08 20.4,17.11 C20.33,17.13 20.25,17.15 20.14,17.19 C20.03,17.24 19.94,17.26 19.86,17.28 C19.77,17.3 19.69,17.32 19.6,17.34 C19.51,17.37 19.41,17.39 19.32,17.41 C19.21,17.43 19.13,17.45 19.04,17.47 L19.04,17.47 Z M21.11,7 C20.98,6.96 20.83,6.91 20.7,6.87 C20.55,6.83 20.4,6.78 20.27,6.74 C20.12,6.7 19.97,6.65 19.79,6.63 C19.62,6.61 19.47,6.57 19.3,6.52 C19.13,6.48 18.95,6.46 18.76,6.42 C18.57,6.37 18.39,6.35 18.2,6.31 C18.01,6.29 17.81,6.24 17.6,6.22 C17.4,5.98 17.21,5.75 17,5.51 C16.8,5.27 16.59,5.05 16.39,4.84 C16.18,4.62 15.98,4.4 15.77,4.19 C15.55,3.97 15.36,3.78 15.15,3.58 C16.35,2.72 17.49,2.28 18.55,2.28 C18.63,2.28 18.72,2.28 18.8,2.31 C18.89,2.33 18.98,2.33 19.06,2.35 C19.15,2.37 19.21,2.39 19.3,2.41 C19.38,2.43 19.45,2.46 19.51,2.5 C19.58,2.52 19.64,2.56 19.73,2.59 C20.81,3.21 21.28,4.69 21.11,7 L21.11,7 Z M14.89,5.94 C14.78,5.94 14.61,5.94 14.37,5.92 C14.13,5.9 13.96,5.9 13.81,5.9 C13.32,5.9 12.97,5.92 12.76,5.96 L12.41,5.96 L13.81,4.56 C14.31,4.99 14.78,5.46 15.21,5.96 L14.89,5.96 L14.89,5.94 Z M10.09,6.16 C8.86,6.33 7.68,6.61 6.56,7 L6.56,6.94 C6.52,6.39 6.52,5.88 6.56,5.4 C6.6,4.92 6.69,4.49 6.79,4.12 C6.9,3.75 7.07,3.41 7.27,3.15 C7.46,2.87 7.7,2.65 7.96,2.5 C8.13,2.41 8.32,2.35 8.52,2.28 C8.71,2.24 8.93,2.22 9.14,2.22 C10.11,2.22 11.23,2.65 12.54,3.52 C12.39,3.65 12.24,3.78 12.11,3.91 C11.96,4.04 11.83,4.19 11.68,4.32 C11.55,4.45 11.4,4.6 11.27,4.75 C11.14,4.9 11.01,5.05 10.86,5.2 C10.73,5.36 10.6,5.51 10.47,5.68 C10.35,5.83 10.22,6.01 10.09,6.16 L10.09,6.16 Z M6.56,18.6 C7.35,18.88 8.54,19.14 10.09,19.38 C10.88,20.33 11.7,21.22 12.54,22.02 C11.34,22.88 10.2,23.29 9.14,23.32 C8.93,23.32 8.73,23.29 8.52,23.25 C8.32,23.21 8.13,23.14 7.96,23.04 C6.86,22.39 6.39,20.91 6.56,18.6 L6.56,18.6 Z M14.84,19.66 L15.23,19.66 L13.83,21.07 C13.7,20.94 13.53,20.81 13.36,20.63 C13.19,20.46 13.04,20.31 12.91,20.2 C12.8,20.09 12.63,19.92 12.43,19.72 C13.51,19.72 14.33,19.7 14.84,19.66 L14.84,19.66 Z M17.58,19.44 C18.8,19.27 19.99,18.99 21.11,18.6 L21.11,18.64 C21.19,19.75 21.11,20.68 20.87,21.46 C20.63,22.23 20.25,22.78 19.71,23.08 C19.34,23.27 18.93,23.36 18.52,23.36 C17.56,23.36 16.44,22.93 15.12,22.06 C15.58,21.67 15.98,21.26 16.39,20.83 C16.78,20.42 17.19,19.94 17.58,19.44 L17.58,19.44 Z M6.24,12.8 C5.72,14.08 5.37,15.25 5.18,16.28 L5.12,16.28 C4.13,15.79 3.37,15.22 2.83,14.64 C2.3,14.06 2.04,13.45 2.04,12.86 C2.04,12.28 2.3,11.67 2.83,11.09 C3.37,10.51 4.13,9.94 5.12,9.45 L5.18,9.45 C5.29,9.86 5.4,10.22 5.48,10.55 C5.57,10.87 5.7,11.26 5.83,11.67 C5.96,12.09 6.08,12.45 6.24,12.8 L6.24,12.8 Z" id="Shape"></path>
            </g>
        </g>
    </g>
</svg>