<svg width="20px" height="20px" viewBox="0 0 41 41" xmlns="http://www.w3.org/2000/svg" xmlns:xlink="http://www.w3.org/1999/xlink">
    <g stroke="none" stroke-width="1" fill="none" fill-rule="evenodd">
        <g transform="translate(1.000000, 1.000000)">
            <g stroke="#00C1DE" stroke-width="1.6">
                <rect fill="#FFFFFF" fill-rule="nonzero" x="0.6" y="0.6" width="38.4" height="38.4" rx="8"></rect>
                <rect x="0.6" y="0.6" width="38.4" height="38.4" rx="8"></rect>
            </g>
            <g transform="translate(7.500000, 6.500000)" fill="#00C1DE" fill-rule="nonzero">
                <path d="M6.84,3 C8.27,2.23 9.65,1.37 10.95,0.43 L10.95,11.75 L0.51,11.75 C0.44,10.94 0.4,10.1 0.37,9.25 C0.35,8.37 0.35,7.62 0.35,6.94 C0.37,6.28 0.4,5.66 0.42,5.11 C0.44,4.56 0.46,4.14 0.48,3.86 L0.53,3.42 C0.59,3.46 0.68,3.53 0.81,3.59 C0.94,3.66 1.21,3.75 1.65,3.86 C2.06,3.97 2.5,4.03 2.96,4.06 C3.42,4.08 3.99,3.99 4.72,3.84 C5.42,3.66 6.12,3.37 6.84,3 L6.84,3 Z M24.02,3.42 C23.98,3.44 23.93,3.46 23.87,3.51 C23.8,3.55 23.67,3.59 23.43,3.68 C23.19,3.77 22.97,3.84 22.73,3.9 C22.48,3.97 22.18,3.99 21.78,4.01 C21.41,4.03 21.01,4.01 20.62,3.97 C20.23,3.92 19.76,3.81 19.26,3.64 C18.76,3.46 18.23,3.24 17.7,2.96 C16.28,2.19 14.89,1.31 13.58,0.36 L13.58,11.71 L24.02,11.71 C24.28,8.87 24.26,6.08 24.02,3.42 L24.02,3.42 Z M2.46,19.65 C3.07,20.73 3.77,21.74 4.56,22.62 C5.35,23.52 6.14,24.27 6.95,24.86 C7.77,25.46 8.47,25.92 9.1,26.27 C9.72,26.62 10.35,26.93 10.97,27.17 L10.97,14.39 L0.83,14.39 C1.19,16.59 1.73,18.35 2.46,19.65 L2.46,19.65 Z M16.21,20.53 C16.21,20.31 16.25,20.11 16.36,19.94 C16.47,19.76 16.61,19.61 16.8,19.5 C16.98,19.39 17.18,19.34 17.4,19.34 L17.42,19.34 L17.42,18.77 L17.42,18.77 C17.42,17.74 17.79,16.86 18.51,16.11 C19.24,15.38 20.12,15.01 21.17,15.01 C21.52,15.01 21.94,15.1 22.37,15.25 C22.84,15.41 23.19,15.6 23.47,15.82 C23.56,15.41 23.65,14.94 23.73,14.46 L13.6,14.46 L13.6,27.24 C14.5,26.87 15.38,26.43 16.19,25.9 L16.21,20.53 L16.21,20.53 L16.21,20.53 Z M24.39,20.2 L18.01,20.2 C17.9,20.2 17.77,20.22 17.66,20.27 C17.55,20.31 17.46,20.38 17.37,20.44 C17.29,20.53 17.24,20.62 17.18,20.73 C17.11,20.84 17.11,20.95 17.11,21.06 L17.11,26.16 C17.11,26.4 17.2,26.6 17.37,26.78 C17.55,26.95 17.75,27.04 17.99,27.04 L24.37,27.04 C24.52,27.04 24.68,27 24.81,26.93 C24.94,26.84 25.05,26.76 25.14,26.62 C25.23,26.49 25.25,26.34 25.25,26.18 L25.25,21.08 C25.25,21.04 25.25,20.97 25.23,20.93 C25.23,20.88 25.2,20.82 25.18,20.77 C25.16,20.73 25.14,20.68 25.12,20.64 C25.09,20.6 25.07,20.55 25.03,20.51 C25.01,20.47 24.96,20.44 24.92,20.4 C24.88,20.38 24.83,20.33 24.79,20.31 C24.74,20.29 24.7,20.27 24.66,20.25 C24.61,20.22 24.57,20.22 24.5,20.2 C24.5,20.2 24.44,20.2 24.39,20.2 L24.39,20.2 Z M21.76,23.76 L21.76,25.04 C21.76,25.17 21.72,25.3 21.61,25.39 C21.52,25.48 21.39,25.55 21.26,25.55 L21.15,25.55 C21.01,25.55 20.88,25.5 20.8,25.39 C20.71,25.3 20.64,25.17 20.64,25.04 L20.64,23.76 C20.27,23.54 20.09,23.24 20.09,22.82 C20.09,22.51 20.2,22.27 20.42,22.05 C20.64,21.83 20.88,21.72 21.19,21.72 C21.34,21.72 21.48,21.74 21.61,21.81 C21.74,21.87 21.85,21.94 21.96,22.05 C22.05,22.14 22.13,22.27 22.2,22.4 C22.27,22.53 22.29,22.69 22.29,22.82 C22.29,22.91 22.29,22.97 22.27,23.06 C22.24,23.15 22.22,23.21 22.2,23.28 C22.18,23.35 22.13,23.41 22.09,23.48 C22.05,23.54 22,23.59 21.94,23.65 C21.87,23.68 21.8,23.72 21.76,23.76 L21.76,23.76 Z M19.72,19.34 L19.72,18.82 C19.72,18.4 19.87,18.05 20.16,17.76 C20.44,17.47 20.8,17.32 21.21,17.32 C21.63,17.32 21.98,17.47 22.27,17.76 C22.55,18.05 22.7,18.4 22.7,18.82 L22.7,19.34 L23.8,19.34 C23.82,19.28 23.82,19.19 23.82,19.1 C23.82,19.01 23.84,18.93 23.84,18.86 L23.84,18.86 C23.84,18.13 23.58,17.52 23.08,17.01 C22.57,16.51 21.96,16.24 21.23,16.24 L21.23,16.24 L21.23,16.24 C20.51,16.24 19.9,16.51 19.39,17.01 C18.89,17.52 18.62,18.13 18.62,18.86 L18.62,18.86 C18.62,18.95 18.62,19.01 18.62,19.1 C18.62,19.19 18.65,19.26 18.65,19.34 L19.72,19.34 Z" id="Shape"></path>
            </g>
        </g>
    </g>
</svg>