<svg width="20px" height="20px" viewBox="0 0 41 41" xmlns="http://www.w3.org/2000/svg" xmlns:xlink="http://www.w3.org/1999/xlink">
    <g stroke="none" stroke-width="1" fill="none" fill-rule="evenodd">
        <g transform="translate(1.000000, 1.000000)">
            <g stroke="#00C1DE" stroke-width="1.6">
                <rect fill="#FFFFFF" fill-rule="nonzero" x="0.6" y="0.6" width="38.4" height="38.4" rx="8"></rect>
                <rect x="0.6" y="0.6" width="38.4" height="38.4" rx="8"></rect>
            </g>
            <g transform="translate(6.500000, 8.500000)" fill="#00C1DE" fill-rule="nonzero">
                <path d="M25.35,8.19 L25.22,8.11 L25.22,10.44 C25.39,10.67 25.48,10.9 25.48,11.09 C25.48,11.22 25.43,11.35 25.37,11.49 C25.31,11.64 25.2,11.77 25.09,11.92 L25.09,11.92 L25.09,11.92 C24.84,12.19 24.5,12.49 24.05,12.76 C23.61,13.04 23.1,13.31 22.5,13.55 C20.16,14.48 17.25,14.94 13.81,14.94 C10.37,14.94 7.48,14.48 5.12,13.55 C4.21,13.19 3.48,12.78 2.95,12.34 C2.42,11.9 2.14,11.47 2.14,11.09 C2.14,10.9 2.23,10.69 2.38,10.46 L2.38,8.11 L2.08,8.34 C1.51,8.76 1.08,9.21 0.81,9.67 C0.51,10.14 0.36,10.6 0.36,11.09 C0.36,12.11 0.98,13.06 2.19,13.93 C3.4,14.82 5.06,15.51 7.12,16.02 C9.2,16.53 11.41,16.8 13.81,16.8 C15.6,16.8 17.32,16.66 18.97,16.34 C20.63,16.02 22.08,15.62 23.27,15.11 C24.48,14.6 25.43,13.99 26.16,13.29 C26.88,12.59 27.24,11.85 27.24,11.09 C27.24,10.03 26.6,9.08 25.35,8.19 L25.35,8.19 Z M13.79,19.83 L13.79,19.83 L13.83,19.83 C14.3,19.83 14.7,19.72 15.04,19.51 L17.64,17.93 C17,18.01 16.38,18.07 15.72,18.12 C15.09,18.16 14.45,18.18 13.81,18.18 C12.54,18.18 11.26,18.1 9.99,17.95 L12.58,19.53 C12.92,19.72 13.32,19.83 13.79,19.83 L13.79,19.83 Z M20.38,7.81 C20.31,7.68 20.23,7.56 20.12,7.43 C20.04,7.3 19.93,7.2 19.82,7.11 C19.72,7.03 19.61,6.92 19.51,6.86 L15.02,4.13 C14.85,4.02 14.66,3.96 14.47,3.9 C14.26,3.83 14.04,3.81 13.83,3.81 L13.81,3.79 L13.79,3.81 C13.58,3.81 13.34,3.83 13.15,3.9 C12.94,3.96 12.75,4.02 12.6,4.13 L8.12,6.86 C7.95,6.96 7.8,7.09 7.65,7.26 C7.5,7.43 7.37,7.6 7.27,7.81 L7.24,7.81 L7.24,7.83 C7.18,7.96 7.12,8.11 7.05,8.23 C7.01,8.38 6.97,8.51 6.93,8.66 C6.9,8.81 6.88,8.93 6.88,9.08 L6.88,12.68 C8.88,13.27 11.2,13.55 13.81,13.55 C15.11,13.55 16.34,13.46 17.51,13.31 C18.68,13.16 19.76,12.95 20.74,12.66 L20.74,9.08 C20.74,8.68 20.63,8.26 20.4,7.81 L20.38,7.81 L20.38,7.81 L20.38,7.81 L20.38,7.81 Z M20.99,17.76 L15.09,21.35 C14.85,21.48 14.6,21.59 14.28,21.63 C13.96,21.67 13.64,21.67 13.32,21.63 C13,21.59 12.73,21.48 12.51,21.35 L6.63,17.76 C6.52,17.69 6.39,17.61 6.29,17.48 C6.18,17.38 6.08,17.25 5.97,17.12 C5.2,16.89 4.44,16.64 3.7,16.32 C3.74,16.55 3.78,16.76 3.87,16.99 C3.95,17.23 4.04,17.44 4.16,17.65 L4.16,17.67 L4.18,17.69 C4.52,18.31 4.95,18.77 5.44,19.07 L11.98,23.05 C12.47,23.34 13.07,23.49 13.75,23.51 L13.77,23.53 L13.79,23.51 C14.47,23.51 15.06,23.36 15.55,23.05 L22.1,19.07 C22.33,18.92 22.57,18.73 22.78,18.5 C22.99,18.26 23.18,17.99 23.35,17.69 L23.37,17.67 L23.37,17.65 C23.44,17.54 23.48,17.44 23.52,17.33 C23.56,17.23 23.61,17.12 23.65,16.99 C23.69,16.89 23.71,16.76 23.76,16.66 C23.78,16.55 23.8,16.42 23.82,16.32 C23.12,16.61 22.37,16.89 21.55,17.12 C21.42,17.42 21.21,17.63 20.99,17.76 L20.99,17.76 Z M5.35,8.26 C5.35,7.98 5.42,7.68 5.52,7.37 C5.65,7.05 5.8,6.77 5.99,6.5 C6.18,6.22 6.39,6.03 6.63,5.91 L12.54,2.31 C12.88,2.1 13.3,1.99 13.81,1.99 C14.32,1.99 14.75,2.1 15.09,2.31 L20.97,5.89 C21.21,6.01 21.4,6.22 21.61,6.48 C21.8,6.73 21.97,7.03 22.08,7.35 C22.2,7.66 22.25,7.96 22.25,8.23 L22.25,12.11 C23.01,11.79 23.56,11.45 23.93,11.09 L23.93,7.81 C23.93,7.22 23.76,6.58 23.42,5.97 L23.42,5.95 L23.39,5.93 C23.22,5.63 23.03,5.36 22.82,5.12 C22.61,4.89 22.37,4.7 22.14,4.53 L15.6,0.55 C15.11,0.26 14.51,0.11 13.83,0.09 L13.81,0.07 L13.79,0.09 C13.11,0.09 12.51,0.24 12.03,0.55 L5.48,4.53 C5.25,4.68 5.01,4.87 4.8,5.1 C4.59,5.34 4.4,5.61 4.23,5.91 L4.21,5.93 L4.21,5.95 C4.12,6.1 4.06,6.25 3.99,6.39 C3.93,6.54 3.89,6.71 3.82,6.86 C3.78,7.01 3.74,7.18 3.72,7.32 C3.7,7.47 3.67,7.64 3.67,7.79 L3.67,11.07 C4.04,11.41 4.61,11.75 5.35,12.06 L5.35,8.26 L5.35,8.26 Z" id="Shape"></path>
            </g>
        </g>
    </g>
</svg>