<svg width="20px" height="20px" viewBox="0 0 41 41" xmlns="http://www.w3.org/2000/svg" xmlns:xlink="http://www.w3.org/1999/xlink">
    <g stroke="none" stroke-width="1" fill="none" fill-rule="evenodd">
        <g transform="translate(1.000000, 1.000000)">
            <g stroke="#00C1DE" stroke-width="1.6">
                <rect fill="#FFFFFF" fill-rule="nonzero" x="0.6" y="0.6" width="38.4" height="38.4" rx="8"></rect>
                <rect x="0.6" y="0.6" width="38.4" height="38.4" rx="8"></rect>
            </g>
            <g transform="translate(7.500000, 6.500000)" fill="#00C1DE" fill-rule="nonzero">
                <path d="M20.13,14.83 C19.8,15.49 19.32,16.01 18.72,16.38 C18.13,16.75 17.61,16.96 17.18,17 L16.52,17.06 L8.96,17.06 C8.65,17.06 8.28,16.98 7.87,16.83 C7.45,16.69 7.02,16.46 6.59,16.17 C6.15,15.89 5.82,15.45 5.58,14.91 C5.35,14.38 5.29,13.76 5.41,13.08 C5.72,11.43 6.92,10.62 9.02,10.62 C9.02,10.62 9.02,10.56 9,10.43 C8.98,10.31 9,10.17 9.02,9.96 C9.04,9.77 9.06,9.55 9.13,9.32 C9.17,9.07 9.27,8.85 9.41,8.58 C9.56,8.31 9.72,8.08 9.95,7.87 C10.16,7.65 10.45,7.46 10.82,7.3 C11.19,7.13 11.62,7.01 12.1,6.95 C12.76,6.86 13.36,6.9 13.89,7.05 C14.43,7.21 14.86,7.44 15.17,7.73 C15.48,8.02 15.73,8.33 15.96,8.64 C16.16,8.95 16.31,9.22 16.39,9.44 L16.5,9.77 C17.28,9.69 18,9.82 18.62,10.13 C19.24,10.43 19.69,10.85 19.98,11.34 C20.27,11.86 20.44,12.42 20.5,13.06 C20.56,13.7 20.44,14.27 20.13,14.83 L20.13,14.83 L20.13,14.83 Z M12.82,0.36 L12.72,0.36 L0.29,4.49 L2.42,16.75 C2.42,16.79 2.42,16.86 2.42,16.94 C2.42,17.02 2.44,17.17 2.44,17.39 C2.44,17.62 2.48,17.83 2.5,18.03 C2.52,18.24 2.58,18.47 2.64,18.71 C2.71,18.96 2.79,19.17 2.87,19.35 C3.1,19.81 3.37,20.26 3.68,20.7 C3.99,21.13 4.3,21.52 4.6,21.89 C4.91,22.24 5.27,22.59 5.68,22.97 C6.09,23.32 6.44,23.63 6.77,23.9 C7.1,24.16 7.49,24.43 7.93,24.72 C8.38,25.01 8.75,25.24 9.04,25.4 C9.33,25.57 9.68,25.77 10.14,26 C10.57,26.23 10.9,26.39 11.09,26.48 C11.27,26.56 11.56,26.7 11.93,26.87 C12.3,27.03 12.51,27.14 12.57,27.16 L12.76,27.22 C12.78,27.24 12.84,27.2 12.94,27.16 L12.94,27.16 C12.97,27.16 13.19,27.03 13.65,26.83 C14.1,26.62 14.43,26.46 14.64,26.35 C14.84,26.25 15.19,26.06 15.71,25.79 C16.23,25.53 16.64,25.28 16.97,25.07 C17.3,24.87 17.69,24.58 18.21,24.25 C18.7,23.92 19.14,23.59 19.51,23.23 C19.88,22.88 20.25,22.53 20.66,22.12 C21.08,21.71 21.45,21.27 21.78,20.8 C22.11,20.32 22.4,19.83 22.65,19.33 C23,18.65 23.16,17.78 23.16,16.77 L25.31,4.51 L12.82,0.36 L12.82,0.36 L12.82,0.36 Z" id="Shape"></path>
            </g>
        </g>
    </g>
</svg>