<svg width="20px" height="20px" viewBox="0 0 41 41" xmlns="http://www.w3.org/2000/svg" xmlns:xlink="http://www.w3.org/1999/xlink">
    <g stroke="none" stroke-width="1" fill="none" fill-rule="evenodd">
        <g transform="translate(1.000000, 1.000000)">
            <g stroke="#00C1DE" stroke-width="1.6">
                <rect fill="#FFFFFF" fill-rule="nonzero" x="0.6" y="0.6" width="38.4" height="38.4" rx="8"></rect>
                <rect x="0.6" y="0.6" width="38.4" height="38.4" rx="8"></rect>
            </g>
            <g transform="translate(6.500000, 7.500000)" fill="#00C1DE" fill-rule="nonzero">
                <path d="M20.18,5.49 L20.23,6.92 C20.29,6.92 20.35,6.92 20.41,6.92 C20.47,6.92 20.54,6.92 20.6,6.94 C20.66,6.96 20.72,6.96 20.78,6.96 C20.85,6.96 20.91,6.98 20.95,6.98 C21.01,7 21.05,7 21.11,7.02 C21.18,7.04 21.24,7.04 21.28,7.06 C21.34,7.08 21.4,7.08 21.47,7.11 C21.9,7.83 22.25,8.83 22.48,10.07 L20.27,10.07 L20.27,10.4 L22.56,10.4 C22.67,11.09 22.73,11.84 22.75,12.64 L20.27,12.64 L20.27,12.98 L22.75,12.98 C22.75,13.72 22.69,14.47 22.56,15.22 L20.27,15.22 L20.27,15.55 L22.48,15.55 C22.23,16.81 21.88,17.79 21.45,18.52 C20.97,18.64 20.56,18.7 20.2,18.72 L20.16,20.15 C22.13,20.09 23.8,19.37 25.19,17.93 C26.56,16.5 27.24,14.8 27.24,12.81 C27.24,10.82 26.56,9.12 25.19,7.69 C23.83,6.28 22.17,5.55 20.18,5.49 L20.18,5.49 Z M25.83,12.64 L23.18,12.64 C23.18,12.44 23.16,12.21 23.16,11.94 C23.14,11.67 23.12,11.4 23.1,11.13 C23.08,10.86 23.04,10.61 23.02,10.42 L25.34,10.42 C25.63,11.09 25.79,11.84 25.83,12.64 L25.83,12.64 Z M22,7.29 C23.31,7.79 24.34,8.7 25.11,10.07 L22.94,10.07 C22.71,8.93 22.42,8.02 22,7.29 L22,7.29 Z M22,18.35 C22.4,17.64 22.71,16.71 22.94,15.57 L25.11,15.57 C24.34,16.92 23.31,17.85 22,18.35 L22,18.35 L22,18.35 Z M23,15.22 C23.06,14.88 23.1,14.51 23.12,14.14 C23.16,13.76 23.16,13.37 23.18,12.98 L25.83,12.98 C25.81,13.76 25.63,14.51 25.32,15.22 L23,15.22 L23,15.22 Z M18.36,18.49 C18.74,18.6 19.25,18.66 19.91,18.7 L19.91,15.55 L17.35,15.55 C17.47,16.19 17.62,16.75 17.8,17.27 C17.99,17.79 18.18,18.2 18.36,18.49 L18.36,18.49 Z M17.27,15.22 L19.91,15.22 L19.91,12.98 L17.08,12.98 C17.08,13.29 17.1,13.66 17.14,14.1 C17.18,14.53 17.22,14.91 17.27,15.22 L17.27,15.22 Z M17.08,12.64 L19.91,12.64 L19.91,10.4 L17.27,10.4 C17.22,10.61 17.2,10.84 17.18,11.11 C17.16,11.38 17.14,11.65 17.12,11.92 C17.1,12.19 17.08,12.44 17.08,12.64 L17.08,12.64 Z M12.63,12.81 C12.63,10.8 13.36,9.06 14.8,7.62 C16.25,6.19 17.97,5.47 20,5.47 C20.02,5.47 20.06,5.47 20.1,5.47 C20.14,5.47 20.18,5.47 20.2,5.47 L20.2,0.92 L10.89,2.38 L10.89,23.22 L20.2,24.68 L20.2,20.13 C20.18,20.13 20.14,20.13 20.1,20.13 L20,20.13 C17.97,20.13 16.25,19.41 14.8,17.98 C13.36,16.57 12.63,14.82 12.63,12.81 L12.63,12.81 Z M16.65,12.98 L14.06,12.98 C14.08,13.31 14.12,13.68 14.22,14.12 C14.33,14.55 14.45,14.93 14.58,15.22 L16.83,15.22 C16.71,14.47 16.65,13.72 16.65,12.98 L16.65,12.98 Z M17.33,10.05 L19.91,10.05 L19.91,6.92 C19.29,6.94 18.78,7.02 18.36,7.13 C17.91,7.87 17.58,8.85 17.33,10.05 L17.33,10.05 Z M16.83,10.4 L14.58,10.4 C14.27,11.11 14.1,11.88 14.06,12.64 L16.65,12.64 C16.65,11.84 16.71,11.09 16.83,10.4 Z M14.78,15.55 C15.53,16.9 16.54,17.83 17.8,18.31 C17.7,18.12 17.6,17.89 17.47,17.62 C17.37,17.35 17.27,17.04 17.16,16.69 C17.06,16.32 16.96,15.94 16.89,15.55 L14.78,15.55 L14.78,15.55 Z M17.8,7.31 C17.18,7.56 16.6,7.91 16.09,8.41 C15.57,8.89 15.13,9.45 14.78,10.07 L16.89,10.07 C17.12,8.93 17.41,8.02 17.8,7.31 L17.8,7.31 L17.8,7.31 Z M3.82,19.59 L5,19.59 L5,18.43 L3.82,18.43 L3.82,19.59 L3.82,19.59 Z M1.52,19.59 L2.64,19.59 L2.64,18.43 L1.52,18.43 L1.52,19.59 L1.52,19.59 L1.52,19.59 Z M6.55,17.79 L7.21,18.45 L6.15,18.45 L6.15,19.62 L7.21,19.62 L6.63,20.47 L7.31,20.96 L9.07,18.95 L7.25,17.13 L6.55,17.79 L6.55,17.79 L6.55,17.79 Z M3.86,12.6 L2.7,12.6 L2.7,13.7 L3.86,13.7 L3.86,12.6 L3.86,12.6 Z M0.36,13.7 L1.48,13.7 L1.48,12.6 L0.36,12.6 L0.36,13.7 L0.36,13.7 L0.36,13.7 Z M6.05,11.13 L7.6,12.6 L4.95,12.6 L4.95,13.7 L7.58,13.7 L6.03,15.18 L6.71,15.86 L9.4,13.16 L6.71,10.47 L6.05,11.13 Z M3.86,6.77 L1.54,6.77 L1.54,7.96 L3.84,7.96 L3.84,6.77 L3.86,6.77 Z M6.63,8.56 L7.31,9.24 L9.18,7.37 L7.31,5.51 L6.63,6.19 L7.35,6.79 L5.02,6.79 L5.02,7.98 L7.33,7.98 L6.63,8.56 Z" id="Shape"></path>
            </g>
        </g>
    </g>
</svg>