<svg xmlns="http://www.w3.org/2000/svg" x="0" y="0" height="20px" width="20px" viewBox="0 0 96 96">
<rect x="45" y="67" width="6" height="8" fill="#2E75B6"></rect>
<rect x="45" y="79" width="6" height="6" fill="#2E75B6"></rect>
<rect x="55" y="79" width="29" height="6" fill="#2E75B6"></rect>
<rect x="12" y="79" width="29" height="6" fill="#2E75B6"></rect>
<path d="M76.42 51 19.58 51C17.6028 51 16 52.6028 16 54.58L16 63.42C16 65.3972 17.6028 67 19.58 67L76.42 67C78.3972 67 80 65.3972 80 63.42L80 54.58C80 52.6028 78.3972 51 76.42 51ZM26 61C24.8954 61 24 60.1046 24 59 24 57.8954 24.8954 57 26 57 27.1046 57 28 57.8954 28 59 28 60.1046 27.1046 61 26 61ZM36 61C34.8954 61 34 60.1046 34 59 34 57.8954 34.8954 57 36 57 37.1046 57 38 57.8954 38 59 38 60.1046 37.1046 61 36 61ZM46 61C44.8954 61 44 60.1046 44 59 44 57.8954 44.8954 57 46 57 47.1046 57 48 57.8954 48 59 48 60.1046 47.1046 61 46 61Z" fill="#2E75B6"></path>
<path d="M76.42 31 19.58 31C17.6028 31 16 32.6028 16 34.58L16 43.42C16 45.3972 17.6028 47 19.58 47L76.42 47C78.3972 47 80 45.3972 80 43.42L80 34.58C80 32.6028 78.3972 31 76.42 31ZM26 41C24.8954 41 24 40.1046 24 39 24 37.8954 24.8954 37 26 37 27.1046 37 28 37.8954 28 39 28 40.1046 27.1046 41 26 41ZM36 41C34.8954 41 34 40.1046 34 39 34 37.8954 34.8954 37 36 37 37.1046 37 38 37.8954 38 39 38 40.1046 37.1046 41 36 41ZM46 41C44.8954 41 44 40.1046 44 39 44 37.8954 44.8954 37 46 37 47.1046 37 48 37.8954 48 39 48 40.1046 47.1046 41 46 41Z" fill="#2E75B6"></path>
<path d="M76.42 11 19.58 11C17.6028 11 16 12.6028 16 14.58L16 23.42C16 25.3972 17.6028 27 19.58 27L76.42 27C78.3972 27 80 25.3972 80 23.42L80 14.58C80 12.6028 78.3972 11 76.42 11ZM26 21C24.8954 21 24 20.1046 24 19 24 17.8954 24.8954 17 26 17 27.1046 17 28 17.8954 28 19 28 20.1046 27.1046 21 26 21ZM36 21C34.8954 21 34 20.1046 34 19 34 17.8954 34.8954 17 36 17 37.1046 17 38 17.8954 38 19 38 20.1046 37.1046 21 36 21ZM46 21C44.8954 21 44 20.1046 44 19 44 17.8954 44.8954 17 46 17 47.1046 17 48 17.8954 48 19 48 20.1046 47.1046 21 46 21Z" fill="#2E75B6"></path>
</svg>