<svg xmlns="http://www.w3.org/2000/svg" xmlns:xlink="http://www.w3.org/1999/xlink" x="0" y="0" width="20px" height="20px" viewBox="0 0 161.9 162" xml:space="preserve">
<path fill="#312D2A" d="M76.6,128H39.2v-25.4h37.4V128z M46.7,120.5h22.4v-10.4H46.7V120.5z M119.4,128H84.3v-25.4h35.1V128z   M91.8,120.5h20.1v-10.4H91.8V120.5z M76.6,64.8H41.4V39.5h35.2V64.8z M48.9,57.3h20.2V47H48.9V57.3z M116.7,64.8H84.2V39.5h32.4  V64.8z M91.7,57.3h17.4V47H91.7V57.3z M91,96.6H25.7V71.2H91V96.6z M33.2,89.1h50.3V78.7H33.2V89.1z M135.3,96.6H98.1V71.2h37.2  V96.6z M105.6,89.1h22.2V78.7h-22.2V89.1z M84.8,127.3h-9v18.4h9V127.3z M92.6,30L80.4,11.5L68.3,30h7.5v9.1h9V30H92.6z"></path>
</svg>