<svg width="20px" height="20px" viewBox="0 0 41 41" xmlns="http://www.w3.org/2000/svg" xmlns:xlink="http://www.w3.org/1999/xlink">
    <g stroke="none" stroke-width="1" fill="none" fill-rule="evenodd">
        <g transform="translate(1.000000, 1.000000)">
            <g stroke="#00C1DE" stroke-width="1.6">
                <rect fill="#FFFFFF" fill-rule="nonzero" x="0.6" y="0.6" width="38.4" height="38.4" rx="8"></rect>
                <rect x="0.6" y="0.6" width="38.4" height="38.4" rx="8"></rect>
            </g>
            <g transform="translate(7.500000, 6.500000)" fill="#00C1DE" fill-rule="nonzero">
                <path d="M6.76,13.34 C6.76,12.29 7.17,11.37 7.97,10.61 C8.78,9.85 9.76,9.45 10.89,9.4 L10.91,9.4 C11.95,9.45 12.82,9.83 13.54,10.59 C14.27,11.35 14.61,12.26 14.61,13.32 L14.61,17.71 C14.61,18.07 14.71,18.41 14.93,18.72 C15.14,19.04 15.41,19.28 15.78,19.45 C16.12,19.61 16.48,19.7 16.86,19.7 L16.92,19.7 C17.48,19.7 17.92,19.51 18.24,19.15 C18.56,18.79 18.73,18.3 18.73,17.73 L18.73,5.02 C16.78,3.79 14.78,3.13 12.74,3.07 C10.57,2.99 8.55,3.49 6.7,4.55 C4.85,5.61 3.4,7.07 2.34,8.94 C1.28,10.8 0.75,12.82 0.75,15.02 C0.75,18.41 2.09,21.35 4.79,23.85 L5.08,23.85 C6.21,23.85 6.76,23.26 6.76,22.07 L6.76,13.34 L6.76,13.34 L6.76,13.34 Z M24.77,15.15 C24.75,14.49 24.66,13.81 24.49,13.15 C24.34,12.5 24.13,11.86 23.9,11.27 C23.64,10.68 23.34,10.08 23,9.51 C22.66,8.94 22.3,8.41 21.9,7.9 C21.49,7.39 21.07,6.93 20.62,6.48 L20.62,17.75 C20.62,18.17 20.56,18.58 20.45,18.98 C20.33,19.36 20.18,19.72 19.94,20.04 C19.73,20.36 19.45,20.63 19.16,20.86 C18.86,21.1 18.52,21.29 18.14,21.41 C17.75,21.54 17.35,21.61 16.92,21.61 L16.86,21.61 C15.78,21.61 14.82,21.22 14.01,20.48 C13.2,19.74 12.8,18.83 12.8,17.77 L12.8,13.34 C12.8,12.98 12.69,12.65 12.5,12.35 C12.31,12.03 12.06,11.8 11.74,11.61 C11.42,11.42 11.08,11.33 10.72,11.31 C10.36,11.31 10.02,11.42 9.7,11.61 C9.38,11.8 9.12,12.03 8.93,12.35 C8.74,12.67 8.63,13.01 8.63,13.37 L8.63,22.05 C8.63,22.83 8.46,23.53 8.1,24.17 C7.74,24.78 7.25,25.27 6.61,25.59 C7.38,26.03 8.36,26.44 9.55,26.75 C10.74,27.07 11.78,27.24 12.67,27.24 L12.69,27.24 C14.88,27.24 16.92,26.71 18.82,25.63 C20.71,24.55 22.2,23.09 23.28,21.22 C24.34,19.34 24.85,17.33 24.77,15.15 L24.77,15.15 Z M18.05,2.2 C18.05,2.71 18.24,3.16 18.6,3.54 C18.96,3.9 19.41,4.09 19.92,4.09 C20.26,4.09 20.58,4 20.86,3.83 C21.13,3.66 21.37,3.43 21.54,3.16 C21.71,2.86 21.79,2.56 21.79,2.22 C21.79,1.89 21.71,1.57 21.54,1.29 C21.37,1 21.13,0.78 20.86,0.61 C20.56,0.44 20.26,0.36 19.92,0.36 C19.41,0.36 18.96,0.55 18.6,0.91 C18.24,1.25 18.05,1.67 18.05,2.2 L18.05,2.2 Z" id="Shape"></path>
            </g>
        </g>
    </g>
</svg>