<svg width="20px" height="20px" viewBox="0 0 41 41" xmlns="http://www.w3.org/2000/svg" xmlns:xlink="http://www.w3.org/1999/xlink">
    <g stroke="none" stroke-width="1" fill="none" fill-rule="evenodd">
        <g transform="translate(1.000000, 1.000000)">
            <g stroke="#00C1DE" stroke-width="1.6">
                <rect fill="#FFFFFF" fill-rule="nonzero" x="0.6" y="0.6" width="38.4" height="38.4" rx="8"></rect>
                <rect x="0.6" y="0.6" width="38.4" height="38.4" rx="8"></rect>
            </g>
            <g transform="translate(6.500000, 9.500000)" fill="#00C1DE" fill-rule="nonzero">
                <path d="M19.64,6.97 L18.21,7.16 L21.14,10.15 L23.31,6.62 L21.64,6.81 C21.64,6.62 21.57,6.38 21.44,6.08 C20.77,4.17 19.45,2.74 17.47,1.77 C16.32,1.2 15.06,0.88 13.73,0.81 C12.67,0.75 11.63,0.86 10.65,1.14 C9.67,1.42 8.81,1.83 8.07,2.37 C7.33,2.91 6.72,3.59 6.22,4.39 C5.74,5.19 5.44,6.06 5.31,7.01 C5.27,7.01 5.22,7.03 5.18,7.05 C5.12,7.07 5.07,7.07 5.05,7.1 C5.01,7.1 4.98,7.12 4.94,7.12 C4.9,7.12 4.85,7.14 4.81,7.14 C4.77,7.14 4.75,7.14 4.7,7.14 C4.68,7.14 4.66,7.14 4.62,7.16 L4.53,7.18 C3.75,7.38 3.07,7.7 2.49,8.14 C1.9,8.57 1.47,9.09 1.19,9.65 C0.9,10.22 0.69,10.76 0.56,11.28 C0.43,11.8 0.36,12.29 0.36,12.75 C0.36,14.81 0.99,16.48 2.25,17.75 C3.51,19.05 5.14,19.7 7.13,19.7 C7.37,19.7 7.59,19.62 7.79,19.42 C7.98,19.23 8.07,19.01 8.07,18.77 C8.07,18.53 7.98,18.32 7.79,18.12 C7.59,17.93 7.37,17.84 7.13,17.84 C5.64,17.84 4.44,17.36 3.53,16.43 C2.62,15.48 2.16,14.24 2.16,12.68 C2.16,12.25 2.29,11.73 2.55,11.17 C2.81,10.58 3.18,10.09 3.66,9.65 C4.53,8.85 5.57,8.46 6.77,8.53 C7.42,8.55 8,8.72 8.55,9.02 C9.09,9.33 9.59,9.78 10.07,10.39 L8.83,11.51 L12.93,12.21 L12.63,8.05 L11.5,9.05 C11.24,8.74 10.96,8.46 10.67,8.22 L10.65,8.2 L10.63,8.18 L10.61,8.16 L10.59,8.14 L10.56,8.11 L10.54,8.09 L10.52,8.07 L10.5,8.05 L10.48,8.03 L10.46,8.01 L10.43,7.98 L10.41,7.96 L10.39,7.94 L10.37,7.92 L10.35,7.9 L10.33,7.88 L10.3,7.85 L10.28,7.83 L10.26,7.81 L10.24,7.79 L10.22,7.77 L10.2,7.75 L10.17,7.72 L10.15,7.7 L10.13,7.68 L10.11,7.66 L10.09,7.64 L10.07,7.62 L10.04,7.59 L10.02,7.57 L10,7.55 L9.98,7.53 L9.96,7.51 L9.94,7.49 L9.91,7.46 L9.89,7.44 L9.87,7.42 L9.85,7.4 L9.83,7.38 L9.8,7.36 L9.78,7.33 L9.76,7.31 L9.74,7.29 L9.72,7.27 L9.7,7.25 L9.67,7.23 L9.65,7.2 L9.37,7.31 L9.35,7.29 L9.33,7.27 L9.31,7.25 L9.28,7.23 L9.26,7.2 L9.24,7.18 L9.22,7.16 L9.2,7.14 L9.18,7.12 L9.15,7.1 L9.13,7.07 L9.11,7.05 L9.09,7.03 L9.07,7.01 L9.04,6.99 L9.02,6.97 L9,6.94 L8.98,6.92 L8.96,6.9 L8.94,6.9 L8.91,6.9 L7.81,6.6 C7.7,6.58 7.61,6.58 7.5,6.55 C7.79,5.19 8.5,4.11 9.65,3.33 C10.8,2.55 12.17,2.18 13.73,2.29 C15.23,2.42 16.54,2.89 17.64,3.72 C18.62,4.69 19.34,5.73 19.64,6.97 L19.64,6.97 Z M27.04,12.55 C26.85,10.61 25.98,8.94 24.44,7.59 C24.27,7.42 24.05,7.36 23.74,7.36 C23.53,7.36 23.33,7.46 23.11,7.66 C22.94,7.83 22.88,8.03 22.88,8.29 C22.88,8.37 22.9,8.44 22.92,8.53 C22.94,8.59 22.98,8.68 23.03,8.72 C23.07,8.79 23.14,8.85 23.2,8.92 C24.4,9.98 25.07,11.23 25.2,12.64 C25.33,14.07 24.92,15.35 23.96,16.43 C23.16,17.36 22.14,17.95 20.92,18.19 C19.71,18.43 18.53,18.27 17.43,17.75 L18.12,16.13 L14.08,17.19 L16.08,20.85 L16.71,19.42 C16.88,19.51 17.01,19.57 17.14,19.62 C18.58,20.18 20.03,20.29 21.55,19.94 C23.05,19.6 24.31,18.84 25.31,17.69 C26.63,16.19 27.24,14.48 27.04,12.55 L27.04,12.55 Z" id="Shape"></path>
            </g>
        </g>
    </g>
</svg>