<svg width="20px" height="20px" viewBox="0 0 41 41" xmlns="http://www.w3.org/2000/svg" xmlns:xlink="http://www.w3.org/1999/xlink">
    <g stroke="none" stroke-width="1" fill="none" fill-rule="evenodd">
        <g transform="translate(1.000000, 1.000000)">
            <g stroke="#00C1DE" stroke-width="1.6">
                <rect fill="#FFFFFF" fill-rule="nonzero" x="0.6" y="0.6" width="38.4" height="38.4" rx="8"></rect>
                <rect x="0.6" y="0.6" width="38.4" height="38.4" rx="8"></rect>
            </g>
            <g transform="translate(6.500000, 13.500000)" fill="#00C1DE" fill-rule="nonzero">
                <path d="M24.16,0.3 L24.16,0.3 C23.06,0.3 22.19,0.75 21.57,1.68 C21.22,2.2 21.05,2.77 21.05,3.4 L21.05,3.4 C21.05,3.92 21.18,4.39 21.41,4.83 L16.37,9.83 C16.26,9.77 16.11,9.73 15.93,9.66 C15.76,9.6 15.61,9.6 15.48,9.6 L15.46,9.6 C15.35,9.6 15.26,9.6 15.18,9.62 C15.09,9.64 14.98,9.66 14.89,9.68 L12.86,6.89 C12.88,6.82 12.88,6.73 12.88,6.6 L12.88,6.6 C12.88,6.41 12.86,6.21 12.79,6.02 C12.73,5.82 12.64,5.67 12.53,5.52 C12.42,5.37 12.29,5.24 12.14,5.13 C11.99,5.02 11.82,4.94 11.64,4.87 C11.45,4.81 11.25,4.78 11.06,4.78 L11.06,4.78 C10.56,4.78 10.11,4.96 9.76,5.33 C9.39,5.69 9.22,6.13 9.22,6.63 L9.22,6.65 L6.23,9.53 L3.78,9.53 C3.63,9.29 3.41,9.08 3.09,8.9 C2.79,8.73 2.48,8.64 2.2,8.64 C1.88,8.64 1.55,8.73 1.27,8.88 C0.99,9.03 0.75,9.27 0.6,9.55 C0.42,9.83 0.36,10.14 0.36,10.49 C0.36,10.81 0.45,11.14 0.6,11.42 C0.77,11.7 0.99,11.94 1.27,12.09 C1.55,12.26 1.85,12.33 2.2,12.33 C2.5,12.33 2.81,12.24 3.13,12.05 C3.46,11.85 3.67,11.63 3.83,11.37 L6.99,11.37 L10.19,8.27 C10.24,8.3 10.28,8.32 10.32,8.34 C10.37,8.36 10.41,8.38 10.45,8.38 C10.5,8.4 10.54,8.4 10.58,8.43 C10.63,8.45 10.67,8.45 10.74,8.45 C10.8,8.45 10.82,8.47 10.89,8.47 C10.93,8.47 11,8.47 11.04,8.47 C11.15,8.47 11.25,8.47 11.34,8.45 C11.45,8.43 11.54,8.4 11.62,8.36 L13.64,11.14 C13.62,11.24 13.62,11.35 13.62,11.46 C13.62,11.72 13.66,11.96 13.77,12.18 C13.88,12.39 14.01,12.61 14.16,12.76 C14.33,12.93 14.53,13.06 14.74,13.15 C14.96,13.24 15.2,13.3 15.46,13.3 C15.65,13.3 15.85,13.28 16.02,13.22 C16.19,13.15 16.37,13.06 16.52,12.96 C16.67,12.85 16.8,12.72 16.91,12.57 C17.02,12.41 17.1,12.26 17.17,12.07 C17.23,11.89 17.28,11.7 17.28,11.5 L22.69,6.13 C23.15,6.37 23.62,6.5 24.14,6.5 C25.01,6.5 25.72,6.19 26.33,5.59 C26.94,4.98 27.24,4.24 27.24,3.4 L27.24,3.4 L27.24,3.37 C27.24,2.81 27.11,2.29 26.83,1.81 C26.55,1.34 26.18,0.97 25.7,0.69 C25.25,0.43 24.73,0.3 24.16,0.3 L24.16,0.3 Z M24.21,4.72 C23.97,4.72 23.75,4.65 23.56,4.55 C23.36,4.44 23.19,4.26 23.08,4.07 C22.97,3.87 22.91,3.66 22.91,3.42 C22.91,3.18 22.95,2.96 23.08,2.75 C23.19,2.55 23.36,2.38 23.56,2.27 C23.75,2.16 23.99,2.1 24.23,2.1 C24.6,2.1 24.9,2.23 25.16,2.49 C25.42,2.75 25.55,3.05 25.55,3.42 L25.55,3.42 C25.55,3.66 25.49,3.87 25.38,4.07 C25.27,4.26 25.1,4.44 24.9,4.55 C24.66,4.65 24.45,4.72 24.21,4.72 L24.21,4.72 Z" id="Shape"></path>
            </g>
        </g>
    </g>
</svg>