<svg width="20px" height="20px" viewBox="0 0 41 41" xmlns="http://www.w3.org/2000/svg" xmlns:xlink="http://www.w3.org/1999/xlink">
    <g stroke="none" stroke-width="1" fill="none" fill-rule="evenodd">
        <g transform="translate(1.000000, 1.000000)">
            <g stroke="#00C1DE" stroke-width="1.6">
                <rect fill="#FFFFFF" fill-rule="nonzero" x="0.6" y="0.6" width="38.4" height="38.4" rx="8"></rect>
                <rect x="0.6" y="0.6" width="38.4" height="38.4" rx="8"></rect>
            </g>
            <g transform="translate(7.500000, 6.500000)" fill="#00C1DE" fill-rule="nonzero">
                <path d="M7.62,18.97 L3.9,22.67 L2.32,21.1 L6.04,17.4 C5.76,17.01 5.5,16.62 5.27,16.19 L0.34,21.1 L3.9,24.66 L5.07,23.49 L6.17,24.59 L7.92,22.85 L6.82,21.75 L8.81,19.74 C8.4,19.51 8.01,19.25 7.62,18.97 L7.62,18.97 Z M24.08,19.9 L25.18,18.8 L23.43,17.05 L22.32,18.15 L20.31,16.17 C20.1,16.6 19.84,17.01 19.53,17.38 L23.25,21.08 L21.68,22.65 L17.98,18.95 C17.61,19.25 17.2,19.51 16.79,19.72 L21.7,24.61 L25.26,21.06 L24.08,19.9 Z M5.07,4.56 C5.96,3.68 7.15,2.92 8.64,2.32 C10.13,1.7 11.51,1.39 12.75,1.39 C12.75,1.39 12.77,1.39 12.77,1.39 C14.22,1.39 15.62,1.67 16.94,2.21 C18.26,2.75 19.45,3.55 20.46,4.58 C21.05,5.16 21.57,5.87 22.06,6.78 C22.56,7.66 22.95,8.59 23.23,9.56 C23.51,10.53 23.66,11.43 23.66,12.23 L23.66,12.25 C23.66,12.25 23.66,12.25 23.66,12.27 L24.72,12.27 L24.72,12.25 C24.72,11.58 24.64,10.81 24.44,9.9 C24.27,9 24.03,8.24 23.77,7.64 C23.6,7.25 23.38,6.82 23.1,6.35 C22.82,5.87 22.5,5.42 22.17,4.97 C21.85,4.52 21.52,4.15 21.22,3.85 C21.05,3.68 20.83,3.48 20.59,3.29 C20.36,3.1 20.1,2.9 19.84,2.71 C19.58,2.51 19.3,2.34 19.02,2.15 C18.73,1.95 18.45,1.8 18.19,1.67 C17.93,1.54 17.68,1.39 17.44,1.31 C16.83,1.05 16.08,0.83 15.17,0.64 C14.26,0.47 13.48,0.36 12.81,0.36 L12.79,0.36 C11.17,0.36 9.61,0.66 8.14,1.29 C7.67,1.48 7.21,1.72 6.76,1.98 C6.32,2.23 5.89,2.51 5.48,2.84 C5.07,3.14 4.68,3.48 4.34,3.85 C4.16,4.02 3.97,4.24 3.77,4.47 C3.58,4.71 3.38,4.97 3.19,5.23 C2.99,5.49 2.82,5.77 2.63,6.05 C2.45,6.33 2.28,6.61 2.15,6.86 C2,7.14 1.87,7.38 1.78,7.62 C1.52,8.22 1.31,8.98 1.11,9.88 C0.92,10.78 0.83,11.56 0.83,12.23 L0.83,12.25 L1.87,12.25 C1.87,10.81 2.15,9.41 2.69,8.09 C3.25,6.76 4.03,5.59 5.07,4.56 L5.07,4.56 Z M15.3,19.59 C16.75,19.1 18,18.13 19.04,16.71 C20.08,15.26 20.59,13.78 20.59,12.25 L20.59,12.23 C20.59,11.65 20.49,11 20.29,10.31 C20.1,9.62 19.82,8.95 19.45,8.31 C19.1,7.68 18.71,7.14 18.3,6.74 C18.09,6.52 17.85,6.33 17.59,6.13 C17.31,5.94 17.03,5.74 16.72,5.59 C16.42,5.42 16.1,5.27 15.75,5.14 C15.41,5.01 15.08,4.88 14.74,4.78 C14.41,4.67 14.06,4.6 13.74,4.54 C13.42,4.47 13.09,4.45 12.81,4.45 L12.79,4.45 L12.77,4.45 C11.88,4.45 10.89,4.67 9.83,5.12 C8.75,5.57 7.9,6.11 7.28,6.74 C6.65,7.36 6.11,8.2 5.65,9.28 C5.2,10.35 4.98,11.32 4.98,12.21 L4.98,12.23 C4.98,13.89 5.48,15.39 6.45,16.75 C7.43,18.11 8.7,19.03 10.28,19.57 L10.28,27.24 L15.32,27.24 L15.32,25.6 L16.9,25.6 L16.9,23.13 L15.32,23.13 L15.3,19.59 Z M14.43,18.41 L13.91,18.54 L13.91,25.86 L11.66,25.86 L11.66,18.54 L11.15,18.41 C9.83,18.06 8.7,17.29 7.77,16.08 C6.84,14.88 6.37,13.61 6.37,12.25 C6.37,11.11 6.65,10.03 7.23,9.06 C7.79,8.09 8.57,7.32 9.57,6.74 C10.54,6.18 11.62,5.87 12.77,5.87 C14.54,5.87 16.03,6.5 17.29,7.75 C18.54,9 19.17,10.5 19.17,12.25 C19.17,13.69 18.73,14.98 17.85,16.15 C16.96,17.31 15.82,18.04 14.43,18.41 L14.43,18.41 Z M12.79,7.55 C11.49,7.55 10.39,8.01 9.46,8.93 C8.53,9.86 8.08,10.96 8.08,12.25 C8.08,13.54 8.53,14.64 9.46,15.57 C10.39,16.49 11.49,16.94 12.79,16.94 C14.09,16.94 15.19,16.49 16.12,15.57 C17.05,14.64 17.5,13.54 17.5,12.25 C17.5,11.62 17.37,11 17.14,10.42 C16.88,9.84 16.55,9.34 16.14,8.93 C15.73,8.52 15.21,8.18 14.65,7.94 C14.04,7.68 13.42,7.55 12.79,7.55 L12.79,7.55 Z M12.79,16.23 C11.69,16.23 10.74,15.85 9.96,15.07 C9.18,14.3 8.79,13.35 8.79,12.25 C8.79,11.15 9.18,10.2 9.96,9.43 C10.74,8.65 11.69,8.26 12.79,8.26 C13.89,8.26 14.84,8.65 15.62,9.43 C16.4,10.2 16.79,11.15 16.79,12.25 C16.79,13.35 16.4,14.3 15.62,15.07 C14.84,15.85 13.89,16.23 12.79,16.23 L12.79,16.23 Z" id="Shape"></path>
            </g>
        </g>
    </g>
</svg>