<svg width="20px" height="20px" viewBox="0 0 41 41" xmlns="http://www.w3.org/2000/svg" xmlns:xlink="http://www.w3.org/1999/xlink">
    <g stroke="none" stroke-width="1" fill="none" fill-rule="evenodd">
        <g transform="translate(1.000000, 1.000000)">
            <g stroke="#00C1DE" stroke-width="1.6">
                <rect fill="#FFFFFF" fill-rule="nonzero" x="0.6" y="0.6" width="38.4" height="38.4" rx="8"></rect>
                <rect x="0.6" y="0.6" width="38.4" height="38.4" rx="8"></rect>
            </g>
            <g transform="translate(6.500000, 6.500000)" fill="#00C1DE" fill-rule="nonzero">
                <path d="M26.98,18.47 C26.89,18.38 26.79,18.29 26.61,18.16 C26.44,18.03 26.25,17.93 26.01,17.82 C25.77,17.71 25.6,17.67 25.47,17.69 C24.71,17.75 24.26,17.82 24.08,17.88 C24.36,17.73 24.26,17.47 23.76,17.13 C23.35,16.85 23.02,16.74 22.81,16.8 C22.5,16.85 21.96,16.95 21.23,17.13 C21.55,17 21.47,16.8 20.97,16.57 C20.62,16.39 20.34,16.33 20.17,16.37 C20.06,16.39 19.84,16.46 19.54,16.54 C19.24,16.63 18.89,16.74 18.53,16.87 C18.16,17 17.79,17.11 17.44,17.21 C17.1,17.32 16.8,17.43 16.56,17.52 L16.21,17.62 L18.55,17.62 C18.72,17.62 19,17.75 19.37,18.03 C19.74,18.32 20.08,18.64 20.38,19.03 C20.69,19.37 20.86,19.63 20.88,19.83 C20.9,20.02 20.8,20.17 20.58,20.3 C19.5,20.74 17.31,21.45 14.03,22.46 C13.96,22.49 13.92,22.51 13.88,22.51 C13.83,22.51 13.81,22.53 13.75,22.55 C13.7,22.57 13.66,22.57 13.62,22.59 C13.23,22.68 11.61,22.23 8.75,21.28 L8.75,21.28 C10.13,21.58 11.65,21.82 13.25,22.03 C13.4,22.05 13.62,22.05 13.85,22.01 C14.09,21.97 14.46,21.88 14.91,21.75 C15.37,21.62 15.8,21.49 16.17,21.36 C16.54,21.23 17.12,21.06 17.94,20.78 C18.74,20.52 19.41,20.3 19.95,20.13 C20.34,20 20.15,19.61 19.37,18.96 C18.87,18.53 18.5,18.32 18.31,18.29 L13.01,18.29 C12.88,18.29 12.73,18.29 12.6,18.27 C12.47,18.25 12.34,18.23 12.21,18.21 C12.08,18.19 11.95,18.14 11.84,18.12 C11.73,18.08 11.58,18.03 11.43,17.99 C10.48,17.58 9.7,17.28 9.12,17.06 C8.53,16.85 8.04,16.72 7.58,16.65 C7.13,16.59 6.78,16.59 6.5,16.63 C6.22,16.7 5.9,16.8 5.55,16.98 C4.4,17.36 2.67,18.03 0.36,19.01 L0.36,19.01 L3.71,25.01 C4.6,24.67 5.36,24.39 5.98,24.13 C6.09,24.06 6.22,24.04 6.35,24.06 C6.48,24.08 6.78,24.17 7.24,24.32 C7.73,24.52 8.77,24.93 10.33,25.51 C11.89,26.09 12.69,26.4 12.73,26.42 C12.84,26.46 12.97,26.5 13.1,26.57 C13.25,26.63 13.34,26.68 13.4,26.68 C13.46,26.7 13.55,26.7 13.66,26.7 C13.77,26.7 13.88,26.68 14.01,26.63 C14.11,26.59 14.26,26.5 14.44,26.42 C14.63,26.31 15.26,25.94 16.32,25.36 C17.38,24.75 18.5,24.13 19.71,23.46 C20.93,22.79 22.24,22.05 23.67,21.25 C25.1,20.45 26.12,19.89 26.72,19.55 C26.98,19.29 27.13,19.09 27.18,18.96 C27.24,18.77 27.18,18.62 26.98,18.47 L26.98,18.47 Z M13.34,16.5 C15.45,16.5 17.27,15.74 18.81,14.21 C20.34,12.68 21.1,10.86 21.1,8.74 C21.1,7.69 20.88,6.65 20.47,5.7 C20.06,4.75 19.5,3.91 18.81,3.19 C18.11,2.48 17.27,1.94 16.32,1.53 C15.37,1.12 14.37,0.9 13.31,0.9 C11.19,0.9 9.36,1.66 7.84,3.17 C6.31,4.68 5.55,6.5 5.55,8.61 C5.53,10.04 5.87,11.36 6.57,12.57 C7.26,13.78 8.21,14.75 9.42,15.44 C10.63,16.13 11.93,16.5 13.34,16.5 L13.34,16.5 Z M15.67,14.73 C15.99,14.3 16.32,13.76 16.6,13.15 C16.88,12.53 17.1,11.86 17.25,11.14 L19.33,11.14 C19.22,11.38 19.11,11.62 19,11.86 C18.87,12.07 18.74,12.31 18.59,12.5 C18.44,12.7 18.29,12.91 18.14,13.09 C17.96,13.28 17.79,13.45 17.62,13.61 C17.42,13.78 17.23,13.93 17.03,14.06 C16.84,14.19 16.62,14.32 16.38,14.43 C16.15,14.56 15.91,14.66 15.67,14.73 L15.67,14.73 Z M19.91,8.61 C19.91,8.96 19.87,9.41 19.78,10 L17.57,10 C17.62,9.7 17.64,9.26 17.64,8.68 C17.64,8.05 17.62,7.56 17.57,7.23 L19.78,7.23 C19.87,7.9 19.91,8.36 19.91,8.61 L19.91,8.61 Z M19.35,6.09 L17.25,6.09 C17.1,5.59 16.95,5.09 16.75,4.62 C16.56,4.14 16.38,3.75 16.19,3.41 C16.02,3.06 15.82,2.78 15.65,2.54 C16.21,2.76 16.73,3.04 17.21,3.39 C17.68,3.75 18.09,4.14 18.44,4.6 C18.81,5.05 19.11,5.55 19.35,6.09 L19.35,6.09 Z M13.77,2.11 L13.83,2.11 C14.83,3.24 15.52,4.57 15.91,6.09 L13.77,6.09 L13.77,2.11 Z M13.77,7.3 L16.17,7.3 C16.25,7.95 16.28,8.44 16.23,8.74 C16.23,8.92 16.23,9.15 16.21,9.44 C16.19,9.72 16.19,9.93 16.19,10.08 L13.83,10.08 L13.83,7.3 L13.77,7.3 L13.77,7.3 Z M13.77,11.21 L15.91,11.21 C15.45,12.76 14.72,14.06 13.77,15.12 L13.77,11.21 Z M12.77,15.18 C11.73,14.04 11.02,12.7 10.63,11.21 L12.77,11.21 L12.77,15.18 Z M12.77,10.06 L10.35,10.06 C10.33,9.91 10.31,9.7 10.29,9.41 C10.26,9.13 10.24,8.9 10.22,8.74 C10.22,8.07 10.24,7.58 10.29,7.3 L12.75,7.3 L12.77,10.06 L12.77,10.06 Z M12.77,2.18 L12.77,6.15 L10.55,6.15 C10.72,5.5 10.96,4.9 11.24,4.29 C11.52,3.69 11.78,3.24 12.02,2.91 C12.23,2.59 12.45,2.33 12.62,2.16 L12.77,2.16 L12.77,2.18 Z M10.93,2.61 C10.74,2.87 10.55,3.17 10.37,3.47 C10.2,3.78 10,4.19 9.81,4.68 C9.62,5.18 9.46,5.7 9.33,6.22 L7.26,6.22 C7.45,5.78 7.67,5.4 7.93,5.01 C8.19,4.64 8.47,4.29 8.77,3.99 C9.07,3.69 9.42,3.41 9.79,3.17 C10.13,2.93 10.52,2.76 10.93,2.61 L10.93,2.61 Z M6.83,8.61 C6.83,8.27 6.87,7.82 6.96,7.23 L9.16,7.23 C9.12,7.58 9.1,8.05 9.1,8.68 C9.1,8.85 9.1,9.09 9.12,9.37 C9.14,9.65 9.14,9.87 9.14,10.02 L6.89,10.02 C6.85,9.76 6.83,9.28 6.83,8.61 L6.83,8.61 Z M9.36,11.21 C9.57,11.99 9.81,12.68 10.09,13.3 C10.37,13.93 10.65,14.43 10.93,14.82 C10.09,14.49 9.36,14.02 8.69,13.41 C8.04,12.78 7.54,12.07 7.19,11.23 L9.36,11.23 L9.36,11.21 Z" id="Shape"></path>
            </g>
        </g>
    </g>
</svg>