<svg width="20px" height="20px" viewBox="0 0 41 41" xmlns="http://www.w3.org/2000/svg" xmlns:xlink="http://www.w3.org/1999/xlink">
    <g stroke="none" stroke-width="1" fill="none" fill-rule="evenodd">
        <g transform="translate(1.000000, 1.000000)">
            <g stroke="#00C1DE" stroke-width="1.6">
                <rect fill="#FFFFFF" fill-rule="nonzero" x="0.6" y="0.6" width="38.4" height="38.4" rx="8"></rect>
                <rect x="0.6" y="0.6" width="38.4" height="38.4" rx="8"></rect>
            </g>
            <g transform="translate(6.500000, 10.500000)" fill="#00C1DE" fill-rule="nonzero">
                <path d="M23.63,0.77 L20.06,0.77 C19.93,0.77 19.83,0.77 19.72,0.79 C19.62,0.79 19.51,0.81 19.45,0.83 C19.36,0.85 19.3,0.87 19.22,0.9 C19.15,0.92 19.09,0.94 19.05,0.96 C19.01,0.98 18.97,1 18.92,1.02 C18.88,1.04 18.86,1.06 18.84,1.08 C18.82,1.1 18.8,1.12 18.78,1.15 C18.76,1.17 18.76,1.17 18.74,1.19 L18.74,1.21 L13.95,7.88 C11.34,4.13 9.81,2 9.39,1.5 C9.26,1.35 9.12,1.23 8.97,1.12 C8.82,1.02 8.68,0.96 8.55,0.92 C8.42,0.87 8.32,0.85 8.21,0.83 C8.11,0.81 8.03,0.81 7.96,0.81 L7.88,0.81 L3.93,0.81 L0.36,18.83 C1.26,18.6 2.06,18.31 2.8,17.93 C3.53,17.56 4.1,17.2 4.48,16.89 C4.88,16.56 5.21,16.22 5.51,15.85 C5.8,15.47 5.99,15.22 6.05,15.1 C6.11,14.97 6.16,14.87 6.2,14.78 L6.2,14.78 L7.61,7.07 L13.93,15.64 L19.89,7.11 C20.63,11.13 21.3,13.87 21.89,15.28 C22.05,15.68 22.35,16.08 22.79,16.47 C23.23,16.87 23.67,17.2 24.13,17.45 C24.57,17.7 25.08,17.95 25.62,18.2 C26.17,18.43 26.55,18.6 26.76,18.66 C26.97,18.73 27.13,18.79 27.24,18.83 L27.24,18.83 L23.63,0.77 Z"></path>
            </g>
        </g>
    </g>
</svg>