<svg width="20px" height="20px" viewBox="0 0 41 41" xmlns="http://www.w3.org/2000/svg" xmlns:xlink="http://www.w3.org/1999/xlink">
    <g stroke="none" stroke-width="1" fill="none" fill-rule="evenodd">
        <g transform="translate(1.000000, 1.000000)">
            <g stroke="#00C1DE" stroke-width="1.6">
                <rect fill="#FFFFFF" fill-rule="nonzero" x="0.6" y="0.6" width="38.4" height="38.4" rx="8"></rect>
                <rect x="0.6" y="0.6" width="38.4" height="38.4" rx="8"></rect>
            </g>
            <g transform="translate(8.500000, 6.500000)" fill="#00C1DE" fill-rule="nonzero">
                <path d="M15.23,14.5 C15.23,13.99 15,13.61 14.51,13.33 L11.46,11.58 C11.37,11.52 11.25,11.48 11.14,11.44 C11.01,11.39 10.88,11.39 10.75,11.39 C10.69,11.39 10.63,11.39 10.56,11.41 C10.5,11.41 10.46,11.44 10.39,11.46 C10.33,11.48 10.29,11.5 10.22,11.52 C10.16,11.54 10.09,11.56 10.03,11.61 C9.56,11.88 9.3,12.27 9.3,12.78 L9.3,16.29 C9.3,16.8 9.54,17.19 10.03,17.46 C10.16,17.55 10.31,17.61 10.48,17.63 C10.65,17.66 10.8,17.66 10.97,17.63 C11.14,17.61 11.27,17.55 11.42,17.46 L14.47,15.72 C14.72,15.59 14.91,15.42 15.04,15.21 C15.17,14.95 15.23,14.74 15.23,14.5 L15.23,14.5 Z M11.67,23.04 C10.46,23.04 9.3,22.81 8.17,22.34 C7.04,21.87 6.06,21.19 5.23,20.32 C4.42,19.44 3.8,18.51 3.35,17.46 C3.14,16.93 2.97,16.38 2.86,15.82 C2.75,15.27 2.71,14.72 2.71,14.14 C2.71,13.01 2.95,11.86 3.44,10.69 C3.65,10.16 3.95,9.65 4.29,9.16 C4.63,8.67 5.02,8.24 5.46,7.84 C6.38,6.98 7.36,6.39 8.39,6.03 C8.71,5.88 8.92,5.66 9.03,5.45 C9.09,5.32 9.13,5.17 9.13,5.02 C9.13,4.88 9.09,4.73 9.03,4.6 C8.81,4.13 8.47,3.87 7.98,3.87 L7.98,3.87 L7.6,3.94 C6.91,4.19 6.27,4.51 5.66,4.9 C5.04,5.28 4.48,5.71 3.95,6.2 C3.59,6.54 3.25,6.9 2.93,7.3 C2.61,7.69 2.33,8.09 2.07,8.52 C1.82,8.94 1.6,9.37 1.41,9.84 C0.81,11.24 0.49,12.67 0.49,14.12 C0.49,14.84 0.56,15.55 0.69,16.25 C0.81,16.95 1.01,17.63 1.26,18.27 C1.77,19.59 2.54,20.79 3.61,21.85 C4.78,23.02 6.08,23.9 7.51,24.45 L7.64,24.51 L6.21,25.09 C6.06,25.15 5.93,25.24 5.83,25.34 C5.72,25.45 5.63,25.56 5.57,25.66 C5.42,25.94 5.42,26.22 5.57,26.52 C5.76,26.84 5.95,27.03 6.15,27.09 C6.42,27.24 6.7,27.24 7,27.09 L12.08,25.09 C12.33,25 12.53,24.83 12.65,24.6 C12.78,24.36 12.82,24.13 12.8,23.85 C12.78,23.77 12.76,23.68 12.72,23.6 C12.67,23.51 12.61,23.43 12.55,23.36 C12.48,23.3 12.4,23.24 12.31,23.17 C12.23,23.13 12.12,23.09 12.03,23.04 C11.86,23.07 11.76,23.04 11.67,23.04 L11.67,23.04 Z M15.15,24.49 C15.23,24.53 15.32,24.56 15.43,24.58 C15.53,24.6 15.62,24.6 15.73,24.58 C15.83,24.56 15.92,24.53 16,24.49 C17.37,23.98 18.58,23.21 19.65,22.21 C20.74,21.19 21.59,19.98 22.19,18.57 C22.79,17.17 23.11,15.74 23.11,14.29 C23.11,14.01 23.11,13.71 23.09,13.44 C23.06,13.16 23.04,12.86 23,12.59 C22.96,12.31 22.91,12.03 22.85,11.76 C22.79,11.48 22.72,11.2 22.64,10.95 C22.55,10.69 22.47,10.41 22.36,10.16 C21.85,8.84 21.08,7.64 20.01,6.58 C19.46,6 18.84,5.49 18.16,5.05 C17.45,4.6 16.71,4.22 15.92,3.92 L15.79,3.85 L17.79,2.49 C18.05,2.36 18.24,2.17 18.37,1.91 C18.52,1.64 18.52,1.36 18.37,1.06 C18.33,0.98 18.29,0.89 18.22,0.81 C18.16,0.72 18.11,0.66 18.05,0.62 C17.99,0.55 17.92,0.51 17.84,0.47 C17.75,0.42 17.69,0.4 17.6,0.38 C17.52,0.36 17.43,0.36 17.35,0.36 C17.28,0.36 17.24,0.36 17.2,0.36 C17.15,0.36 17.11,0.36 17.05,0.38 C16.98,0.38 16.94,0.4 16.9,0.42 L11.5,3.28 C11.25,3.36 11.05,3.53 10.93,3.77 C10.8,4 10.75,4.24 10.78,4.51 C10.84,4.77 10.97,4.98 11.18,5.17 C11.39,5.34 11.63,5.43 11.89,5.43 C12.7,5.43 13.46,5.54 14.23,5.75 C15,5.96 15.75,6.26 16.43,6.69 C17.13,7.09 17.75,7.58 18.31,8.18 C19.12,9.05 19.74,9.99 20.18,11.03 C20.4,11.54 20.57,12.07 20.67,12.63 C20.78,13.2 20.82,13.76 20.82,14.33 C20.82,14.91 20.76,15.48 20.63,16.06 C20.5,16.63 20.33,17.21 20.1,17.76 C19.65,18.83 18.99,19.79 18.09,20.62 C17.65,21.02 17.2,21.38 16.71,21.68 C16.22,21.98 15.7,22.23 15.17,22.43 C15.09,22.47 15,22.53 14.91,22.58 C14.83,22.62 14.77,22.7 14.68,22.77 C14.62,22.85 14.55,22.92 14.51,23 C14.47,23.09 14.45,23.17 14.42,23.28 C14.4,23.38 14.4,23.47 14.42,23.58 C14.45,23.68 14.47,23.77 14.51,23.85 C14.77,24.19 14.98,24.41 15.15,24.49 L15.15,24.49 Z" id="Shape"></path>
            </g>
        </g>
    </g>
</svg>