<svg width="20px" height="20px" viewBox="0 0 41 41" xmlns="http://www.w3.org/2000/svg" xmlns:xlink="http://www.w3.org/1999/xlink">
    <g stroke="none" stroke-width="1" fill="none" fill-rule="evenodd">
        <g transform="translate(1.000000, 1.000000)">
            <g stroke="#00C1DE" stroke-width="1.6">
                <rect fill="#FFFFFF" fill-rule="nonzero" x="0.6" y="0.6" width="38.4" height="38.4" rx="8"></rect>
                <rect x="0.6" y="0.6" width="38.4" height="38.4" rx="8"></rect>
            </g>
            <g transform="translate(6.500000, 10.500000)" fill="#00C1DE" fill-rule="nonzero">
                <path d="M14.06,16.6 L14.14,15.24 L4.73,15.24 C4.17,15.24 3.66,15.11 3.18,14.83 C2.71,14.55 2.34,14.18 2.06,13.71 C1.78,13.24 1.65,12.72 1.65,12.16 C1.65,11.79 1.72,11.45 1.85,11.13 C1.98,10.8 2.15,10.48 2.38,10.22 C2.62,9.94 2.9,9.72 3.2,9.53 C3.68,9.25 3.94,9.04 4,8.88 C4.06,8.73 4,8.41 3.81,7.91 C3.74,7.74 3.72,7.57 3.7,7.38 C3.7,7.07 3.78,6.77 3.94,6.51 C4.09,6.26 4.3,6.04 4.56,5.89 C4.82,5.74 5.1,5.65 5.42,5.65 C5.51,5.65 5.64,5.65 5.77,5.65 C5.96,5.65 6.07,5.65 6.11,5.7 C6.13,5.72 6.13,5.72 6.15,5.72 C6.18,5.72 6.2,5.74 6.22,5.76 C6.26,5.78 6.3,5.8 6.35,5.82 C6.54,5.91 6.69,5.95 6.8,5.98 C6.91,6 7.02,5.95 7.12,5.85 C7.23,5.74 7.3,5.65 7.34,5.57 C7.38,5.5 7.47,5.31 7.6,5.05 C7.98,4.21 8.57,3.54 9.36,3.02 C10.14,2.53 11,2.27 11.93,2.27 C13.15,2.27 14.23,2.68 15.11,3.5 C16,4.32 16.54,5.35 16.64,6.58 C16.66,6.86 16.69,7.05 16.71,7.16 C16.73,7.27 16.77,7.35 16.86,7.46 C16.94,7.57 17.05,7.63 17.16,7.66 C17.27,7.68 17.46,7.72 17.76,7.81 C18.09,7.87 18.45,8 18.84,8.22 C19.23,8.43 19.55,8.67 19.79,8.91 L21.25,8.56 C20.93,8.09 20.43,7.66 19.81,7.25 C19.18,6.84 18.58,6.58 18.02,6.47 C17.96,5.7 17.74,4.98 17.4,4.29 C17.05,3.61 16.6,3.02 16.08,2.53 C15.57,2.03 14.92,1.64 14.21,1.34 C13.5,1.06 12.74,0.91 11.95,0.91 C11.13,0.91 10.38,1.06 9.64,1.36 C8.91,1.67 8.26,2.1 7.7,2.61 C7.14,3.15 6.71,3.78 6.39,4.47 C6.33,4.45 6.26,4.42 6.18,4.4 C6.09,4.38 6,4.36 5.94,4.36 C5.85,4.34 5.77,4.34 5.7,4.32 C5.62,4.32 5.55,4.29 5.49,4.29 L5.49,4.29 C4.65,4.29 3.91,4.6 3.31,5.2 C2.71,5.8 2.41,6.51 2.41,7.38 C2.41,7.48 2.41,7.59 2.43,7.7 C2.45,7.81 2.47,7.91 2.49,8.02 C2.51,8.13 2.54,8.22 2.58,8.32 C1.91,8.71 1.37,9.25 0.96,9.92 C0.55,10.59 0.36,11.34 0.36,12.14 C0.36,13.37 0.79,14.42 1.65,15.28 C2.51,16.15 3.57,16.58 4.8,16.58 L4.8,16.58 L14.06,16.6 L14.06,16.6 L14.06,16.6 Z M11,11.64 L14.02,14.55 L25.58,8.71 L15.18,15.22 L15.09,18.58 L16.64,17.03 L18.3,18.69 L27.24,7.85 L11,11.64 Z" id="Shape"></path>
            </g>
        </g>
    </g>
</svg>