<svg width="20px" height="20px" viewBox="0 0 41 41" xmlns="http://www.w3.org/2000/svg" xmlns:xlink="http://www.w3.org/1999/xlink">
    <g stroke="none" stroke-width="1" fill="none" fill-rule="evenodd">
        <g transform="translate(1.000000, 1.000000)">
            <g stroke="#00C1DE" stroke-width="1.6">
                <rect fill="#FFFFFF" fill-rule="nonzero" x="0.6" y="0.6" width="38.4" height="38.4" rx="8"></rect>
                <rect x="0.6" y="0.6" width="38.4" height="38.4" rx="8"></rect>
            </g>
            <g transform="translate(6.500000, 10.500000)" fill="#00C1DE" fill-rule="nonzero">
                <path d="M22.84,17.09 L20.14,17.09 C19.99,17.09 19.87,17.05 19.74,16.99 C19.61,16.93 19.53,16.82 19.45,16.69 C19.38,16.57 19.34,16.44 19.34,16.29 C19.34,16.06 19.42,15.87 19.57,15.73 C19.72,15.58 19.91,15.49 20.14,15.49 L22.84,15.49 C23.64,15.49 24.31,15.16 24.86,14.5 C25.41,13.85 25.66,13.12 25.66,12.29 C25.66,11.47 25.37,10.78 24.8,10.19 C24.21,9.6 23.51,9.33 22.69,9.33 C22.54,9.33 22.37,9.35 22.23,9.37 C22.21,9.37 22.18,9.37 22.16,9.37 C22.14,9.37 22.12,9.37 22.1,9.37 C21.99,9.37 21.89,9.35 21.78,9.31 C21.68,9.26 21.59,9.2 21.53,9.14 C21.47,9.07 21.4,8.99 21.36,8.88 C21.32,8.78 21.3,8.69 21.3,8.57 C21.26,6.7 20.58,5.1 19.21,3.77 C17.87,2.44 16.24,1.77 14.37,1.77 C12.96,1.77 11.67,2.15 10.51,2.93 C9.36,3.71 8.51,4.74 7.96,6.04 C7.9,6.19 7.82,6.3 7.67,6.4 C7.52,6.51 7.37,6.55 7.23,6.55 C7.21,6.55 7.19,6.55 7.16,6.55 C7.14,6.55 7.12,6.55 7.1,6.55 C5.73,6.34 4.55,6.67 3.52,7.56 C2.49,8.44 1.96,9.58 1.96,10.93 C1.96,12.15 2.42,13.2 3.33,14.13 C4.24,15.03 5.31,15.49 6.53,15.49 L8.39,15.49 C8.49,15.49 8.6,15.51 8.7,15.56 C8.81,15.6 8.89,15.66 8.95,15.73 C9.02,15.79 9.08,15.87 9.12,15.98 C9.17,16.08 9.19,16.19 9.19,16.29 C9.19,16.53 9.1,16.71 8.95,16.86 C8.81,17.01 8.62,17.09 8.39,17.09 L6.53,17.09 C4.87,17.09 3.41,16.48 2.19,15.26 C0.97,14.04 0.36,12.59 0.36,10.93 C0.36,9.2 0.99,7.75 2.26,6.55 C3.52,5.35 5.02,4.8 6.74,4.91 C7.16,4.04 7.8,3.26 8.62,2.53 C9.44,1.79 10.37,1.22 11.4,0.8 C12.41,0.38 13.4,0.17 14.35,0.17 C14.35,0.17 14.37,0.17 14.37,0.17 C16.52,0.17 18.41,0.89 20.04,2.34 C21.66,3.79 22.58,5.58 22.84,7.71 C24.06,7.75 25.11,8.21 25.95,9.09 C26.82,9.98 27.24,11.03 27.24,12.27 C27.24,12.65 27.2,13.01 27.11,13.37 C27.03,13.73 26.92,14.06 26.78,14.38 C26.63,14.69 26.46,14.99 26.25,15.26 C26.04,15.54 25.83,15.79 25.55,16.02 C25.3,16.23 25.03,16.42 24.73,16.59 C24.44,16.76 24.12,16.86 23.81,16.95 C23.51,17.05 23.17,17.09 22.84,17.09 L22.84,17.09 Z M6.01,10.53 C6.01,11.03 6.2,11.47 6.55,11.83 C6.91,12.19 7.35,12.38 7.86,12.38 C8.6,12.38 9.14,12.04 9.5,11.39 C9.65,11.12 9.71,10.82 9.71,10.51 C9.71,10 9.52,9.56 9.17,9.2 C8.81,8.84 8.37,8.65 7.86,8.65 C7.69,8.65 7.52,8.67 7.37,8.72 C7.21,8.76 7.06,8.82 6.93,8.91 C6.81,8.99 6.68,9.07 6.55,9.2 C6.45,9.31 6.34,9.43 6.26,9.58 C6.17,9.71 6.11,9.87 6.07,10.02 C6.03,10.19 6.01,10.36 6.01,10.53 L6.01,10.53 Z M18.03,12.23 C18.03,12.48 18.08,12.72 18.18,12.95 C18.29,13.18 18.41,13.37 18.58,13.54 C18.75,13.7 18.94,13.83 19.17,13.94 C19.4,14.04 19.64,14.08 19.89,14.08 C20.63,14.08 21.17,13.75 21.53,13.09 C21.68,12.82 21.74,12.53 21.74,12.21 C21.74,11.47 21.4,10.93 20.75,10.57 C20.48,10.42 20.18,10.36 19.87,10.36 C19.61,10.36 19.38,10.4 19.15,10.51 C18.92,10.61 18.73,10.74 18.56,10.91 C18.39,11.07 18.27,11.26 18.16,11.49 C18.06,11.73 18.03,11.98 18.03,12.23 L18.03,12.23 Z M11.97,7.03 C11.97,7.54 12.16,7.98 12.51,8.34 C12.87,8.69 13.32,8.88 13.82,8.88 C14.56,8.88 15.11,8.55 15.46,7.9 C15.61,7.62 15.67,7.33 15.67,7.01 C15.67,6.86 15.65,6.72 15.63,6.59 C15.59,6.44 15.55,6.32 15.49,6.19 C15.42,6.06 15.36,5.96 15.27,5.85 C15.19,5.75 15.09,5.64 14.98,5.56 C14.87,5.47 14.75,5.41 14.64,5.35 C14.52,5.28 14.39,5.24 14.24,5.2 C14.09,5.16 13.97,5.16 13.82,5.16 C13.32,5.16 12.87,5.35 12.51,5.71 C12.14,6.06 11.97,6.51 11.97,7.03 L11.97,7.03 Z M11.5,11.41 L9.57,11.41 C9.42,11.41 9.29,11.37 9.17,11.31 C9.04,11.24 8.95,11.14 8.87,11.01 C8.81,10.88 8.77,10.76 8.77,10.61 C8.77,10.46 8.81,10.34 8.87,10.21 C8.93,10.08 9.04,10 9.17,9.92 C9.29,9.83 9.42,9.81 9.57,9.81 L11.5,9.81 C11.61,9.81 11.71,9.83 11.82,9.87 C11.93,9.92 12.01,9.98 12.07,10.04 C12.14,10.11 12.2,10.19 12.24,10.29 C12.28,10.4 12.3,10.51 12.3,10.61 C12.3,10.84 12.22,11.03 12.07,11.18 C11.93,11.35 11.74,11.41 11.5,11.41 L11.5,11.41 Z M11.5,19.43 L11.5,19.43 C11.27,19.43 11.08,19.35 10.94,19.2 C10.79,19.05 10.7,18.86 10.7,18.63 L10.7,10.61 C10.7,10.38 10.79,10.19 10.94,10.04 C11.08,9.89 11.27,9.81 11.5,9.81 C11.74,9.81 11.93,9.89 12.07,10.04 C12.22,10.19 12.3,10.38 12.3,10.61 L12.3,18.63 C12.3,19.03 12.11,19.28 11.74,19.41 C11.65,19.43 11.59,19.43 11.5,19.43 L11.5,19.43 Z M19.89,13.03 L16.2,13.03 C16.05,13.03 15.93,12.99 15.8,12.93 C15.67,12.86 15.59,12.76 15.51,12.63 C15.44,12.5 15.4,12.38 15.4,12.23 C15.4,12.08 15.44,11.96 15.51,11.83 C15.57,11.7 15.67,11.62 15.8,11.54 C15.93,11.47 16.05,11.43 16.2,11.43 L19.89,11.43 L19.91,11.43 C20.14,11.43 20.33,11.52 20.48,11.66 C20.63,11.81 20.71,12 20.71,12.23 C20.71,12.38 20.67,12.5 20.6,12.63 C20.54,12.76 20.44,12.84 20.31,12.93 C20.18,13.01 20.06,13.03 19.91,13.03 L19.89,13.03 Z M16.2,19.43 C15.97,19.43 15.78,19.35 15.63,19.2 C15.49,19.05 15.4,18.86 15.4,18.63 L15.4,12.21 C15.4,11.98 15.49,11.79 15.63,11.64 C15.78,11.49 15.97,11.41 16.2,11.41 C16.43,11.41 16.62,11.49 16.77,11.64 C16.92,11.79 17,11.98 17,12.21 L17,18.63 C17,19.03 16.81,19.28 16.43,19.41 C16.35,19.43 16.26,19.43 16.2,19.43 L16.2,19.43 Z M13.82,19.43 L13.82,19.43 C13.67,19.43 13.55,19.39 13.42,19.32 C13.29,19.26 13.21,19.16 13.13,19.03 C13.06,18.9 13.02,18.78 13.02,18.63 L13.02,18.63 L13.02,8.63 C13.02,8.48 13.06,8.36 13.13,8.23 C13.19,8.11 13.29,8.02 13.42,7.94 C13.55,7.85 13.67,7.83 13.82,7.83 C13.91,7.83 13.99,7.85 14.07,7.87 C14.16,7.9 14.22,7.94 14.31,7.98 C14.37,8.02 14.43,8.08 14.47,8.15 C14.52,8.21 14.56,8.29 14.58,8.38 C14.6,8.46 14.62,8.55 14.62,8.63 L14.62,18.63 C14.62,19.03 14.43,19.28 14.05,19.41 C13.97,19.43 13.88,19.43 13.82,19.43 L13.82,19.43 Z" id="Shape"></path>
            </g>
        </g>
    </g>
</svg>