<svg width="20px" height="20px" viewBox="0 0 41 41" xmlns="http://www.w3.org/2000/svg" xmlns:xlink="http://www.w3.org/1999/xlink">
    <g stroke="none" stroke-width="1" fill="none" fill-rule="evenodd">
        <g transform="translate(1.000000, 1.000000)">
            <g stroke="#00C1DE" stroke-width="1.6">
                <rect fill="#FFFFFF" fill-rule="nonzero" x="0.6" y="0.6" width="38.4" height="38.4" rx="8"></rect>
                <rect x="0.6" y="0.6" width="38.4" height="38.4" rx="8"></rect>
            </g>
            <g transform="translate(6.500000, 6.500000)" fill="#00C1DE" fill-rule="nonzero">
                <path d="M13.8,26.71 C13.55,26.71 13.31,26.65 13.08,26.52 C12.87,26.39 12.7,26.22 12.57,26.01 C12.45,25.8 12.38,25.57 12.38,25.3 L12.38,2.3 C12.38,1.92 12.53,1.59 12.81,1.31 C13.08,1.04 13.42,0.89 13.8,0.89 C14.18,0.89 14.52,1.04 14.79,1.31 C15.07,1.59 15.22,1.92 15.22,2.3 L15.22,25.3 C15.22,25.55 15.15,25.78 15.03,26.01 C14.9,26.22 14.73,26.39 14.52,26.52 C14.29,26.65 14.05,26.71 13.8,26.71 L13.8,26.71 Z M7.8,22.53 C7.42,22.53 7.08,22.38 6.81,22.1 C6.53,21.83 6.38,21.49 6.38,21.11 L6.38,6.83 C6.38,6.45 6.53,6.11 6.81,5.83 C7.08,5.56 7.42,5.41 7.8,5.41 C8.05,5.41 8.28,5.47 8.52,5.6 C8.73,5.73 8.9,5.9 9.02,6.11 C9.15,6.32 9.21,6.55 9.21,6.83 L9.21,21.11 C9.21,21.49 9.07,21.83 8.79,22.1 C8.52,22.38 8.18,22.53 7.8,22.53 L7.8,22.53 Z M1.78,18.79 C1.4,18.79 1.06,18.64 0.78,18.36 C0.51,18.09 0.36,17.75 0.36,17.37 L0.36,10.93 C0.36,10.55 0.51,10.21 0.78,9.93 C1.06,9.66 1.4,9.51 1.78,9.51 C2.16,9.51 2.49,9.66 2.77,9.93 C3.04,10.21 3.19,10.55 3.19,10.93 L3.19,17.37 C3.21,17.56 3.19,17.75 3.13,17.92 C3.06,18.09 2.96,18.24 2.83,18.36 C2.71,18.49 2.56,18.6 2.37,18.66 C2.18,18.74 1.99,18.79 1.78,18.79 L1.78,18.79 Z M25.82,18.79 C25.44,18.79 25.11,18.64 24.83,18.36 C24.56,18.09 24.41,17.75 24.41,17.37 L24.41,10.93 C24.41,10.55 24.56,10.21 24.83,9.93 C25.11,9.66 25.44,9.51 25.82,9.51 C26.2,9.51 26.54,9.66 26.82,9.93 C27.09,10.21 27.24,10.55 27.24,10.93 L27.24,17.37 C27.24,17.75 27.09,18.09 26.82,18.36 C26.54,18.64 26.2,18.79 25.82,18.79 Z M19.89,22.46 C19.51,22.46 19.17,22.32 18.89,22.04 C18.62,21.77 18.47,21.43 18.47,21.05 L18.47,6.76 C18.47,6.38 18.62,6.05 18.89,5.77 C19.17,5.5 19.51,5.35 19.89,5.35 C20.14,5.35 20.37,5.41 20.6,5.54 C20.82,5.66 20.98,5.83 21.11,6.05 C21.24,6.26 21.3,6.49 21.3,6.76 L21.3,21.05 C21.3,21.43 21.15,21.77 20.88,22.04 C20.6,22.32 20.27,22.46 19.89,22.46 L19.89,22.46 Z" id="Shape"></path>
            </g>
        </g>
    </g>
</svg>