<svg xmlns="http://www.w3.org/2000/svg" x="0" y="0" height="20px" width="20px" viewBox="0 0 600 600" style="fill:#59b4d9;">
    <polygon points="599.5888604263721,315.70078687288316 596.3065021785413,346.9303395120693 589.7777478867205,377.6457135307562 580.0741279491606,407.51038486359005 567.3019572565104,436.197149921864 551.6011703836273,463.39171050450807 533.1437884370913,488.7961173149512 512.1320343559643,512.1320343559643 488.7961173149513,533.1437884370912 463.3917105045082,551.6011703836272 436.197149921864,567.3019572565104 407.51038486359005,580.0741279491606 377.6457135307562,589.7777478867205 346.9303395120693,596.3065021785413 315.7007868728831,599.5888604263721 284.29921312711684,599.5888604263721 253.06966048793075,596.3065021785413 222.35428646924382,589.7777478867205 192.48961513640992,580.0741279491606 163.80285007813598,567.3019572565104 136.608289495492,551.6011703836273 111.20388268504882,533.1437884370913 87.86796564403576,512.1320343559643 66.85621156290878,488.7961173149513 48.39882961637281,463.3917105045082 32.69804274348968,436.197149921864 19.92587205083953,407.5103848635902 10.222252113279524,377.6457135307563 3.6934978214587204,346.9303395120693 0.4111395736278496,315.70078687288327 0.4111395736278496,284.29921312711696 3.6934978214586636,253.0696604879309 10.222252113279467,222.3542864692439 19.925872050839473,192.48961513640987 32.698042743489566,163.80285007813612 48.39882961637278,136.60828949549187 66.85621156290867,111.20388268504882 87.8679656440357,87.86796564403576 111.20388268504865,66.85621156290884 136.6082894954919,48.39882961637278 163.80285007813592,32.69804274348968 192.48961513641004,19.925872050839416 222.35428646924382,10.222252113279524 253.0696604879307,3.6934978214587204 284.29921312711696,0.41113957362779274 315.70078687288316,0.4111395736278496 346.9303395120692,3.6934978214586636 377.6457135307561,10.222252113279467 407.5103848635901,19.925872050839473 436.19714992186425,32.69804274348974 463.39171050450824,48.398829616372865 488.7961173149513,66.85621156290875 512.1320343559642,87.8679656440357 533.1437884370913,111.20388268504885 551.6011703836273,136.6082894954919 567.3019572565104,163.80285007813592 580.0741279491606,192.48961513641 589.7777478867205,222.3542864692438 596.3065021785412,253.06966048793066 599.5888604263722,284.29921312711696" />
</svg>