<svg xmlns="http://www.w3.org/2000/svg" x="0" y="0" height="20px" width="20px" viewBox="0 0 100 100">
<defs>
<clipPath id="clip0-B9D658CA-AF68-4DDD-AD3D-C3D4EAFDA0FA">
<path d="M644 359 747 359 747 478 644 478Z" fill-rule="evenodd" clip-rule="evenodd"></path>
</clipPath>
</defs>
<g clip-path="url(#clip0-B9D658CA-AF68-4DDD-AD3D-C3D4EAFDA0FA)" transform="translate(-644 -359)">
<path d="M0.191494-3.49476 4.89957-3.23678 9.71227-2.56835 14.4627-1.43092 19.1088 0.117786 27.7318 4.13307 35.5767 9.45165 42.155 15.6977 44.9738 19.2728 47.3422 22.9268 49.3336 26.7723 50.802 30.7579 51.7234 34.8689 51.9917 38.7592 52.2417 42.3842 52.1653 41.8595 52.9778 45.4845 52.8467 45.04 54.1592 48.6025 53.983 48.203 55.7955 51.703 55.6245 51.4089 57.812 54.7839 57.6234 54.5205 60.1859 57.7705 59.8347 57.3873 66.0847 63.2623 65.663 62.9233 72.9755 67.9233 72.2255 67.5341 81.1542 70.8718 78.7031 77.4287 69.3758 73.9419 61.488 68.5485 54.8504 62.3092 52.0262 58.7272 49.6578 55.0732 47.6664 51.2277 46.198 47.2421 45.2766 43.1311 45.0083 39.2408 44.7583 35.6158 44.8347 36.1405 44.0222 32.5155 44.1533 32.96 42.8408 29.3975 43.017 29.797 41.2045 26.297 41.3755 26.5911 39.188 23.2161 39.3766 23.4795 36.8141 20.2295 37.1525 20.6006 30.9651 14.7256 31.4109 15.0845 24.0359 10.0845 24.5226 10.3604 16.3351 6.54788 16.7057 6.69539 12.3932 5.25789 12.685 5.34129 8.24751 4.27879 8.58101 4.34172 4.08101 3.71672 4.37101 3.74476-0.191494 3.49476ZM78.8243 63.1375 97 78 74.2046 83.6231Z" transform="matrix(-4.37114e-08 1 1 4.37114e-08 648.5 360.5)"></path>
</g>
</svg>