<svg width="20px" height="20px" viewBox="0 0 41 41" xmlns="http://www.w3.org/2000/svg" xmlns:xlink="http://www.w3.org/1999/xlink">
    <g stroke="none" stroke-width="1" fill="none" fill-rule="evenodd">
        <g transform="translate(1.000000, 1.000000)">
            <g stroke="#00C1DE" stroke-width="1.6">
                <rect fill="#FFFFFF" fill-rule="nonzero" x="0.6" y="0.6" width="38.4" height="38.4" rx="8"></rect>
                <rect x="0.6" y="0.6" width="38.4" height="38.4" rx="8"></rect>
            </g>
            <g transform="translate(6.500000, 8.500000)" fill="#00C1DE" fill-rule="nonzero">
                <path d="M15.92,6.1 L15.92,6.1 C15.21,6.1 14.5,6.24 13.83,6.49 C14.41,5.47 15.28,4.46 16.45,3.46 C17.62,2.46 18.77,1.75 19.87,1.34 C18.63,0.89 17.35,0.66 16.02,0.66 C13.97,0.66 12.09,1.16 10.35,2.16 C8.6,3.16 7.25,4.53 6.24,6.24 C5.23,7.97 4.72,9.84 4.72,11.87 C4.72,12.03 4.72,12.19 4.72,12.35 L0.36,12.35 L9.06,20.98 L13.21,16.86 C13.56,17.04 14.02,17.2 14.55,17.34 C15.07,17.47 15.53,17.54 15.95,17.54 C17.53,17.54 18.91,16.97 20.03,15.86 C21.16,14.74 21.73,13.4 21.73,11.8 C21.73,10.75 21.48,9.79 20.95,8.93 C20.42,8.06 19.73,7.36 18.84,6.83 C17.94,6.35 16.98,6.1 15.92,6.1 L15.92,6.1 L15.92,6.1 Z M15.92,16.43 C15.28,16.43 14.66,16.29 14.06,16.04 L17.76,12.37 L12.46,12.37 C12.46,12.21 12.46,12.05 12.46,11.87 C12.46,11.53 12.48,11.14 12.55,10.68 C12.59,10.23 12.69,9.79 12.78,9.36 C12.87,8.93 12.99,8.54 13.08,8.22 C13.42,7.95 13.88,7.72 14.43,7.52 C14.98,7.31 15.49,7.22 15.95,7.22 C17.23,7.22 18.31,7.68 19.21,8.56 C20.1,9.45 20.56,10.55 20.56,11.8 C20.56,12.42 20.45,13.01 20.19,13.58 C19.94,14.15 19.62,14.63 19.21,15.04 C18.79,15.45 18.31,15.76 17.74,16.02 C17.14,16.31 16.54,16.43 15.92,16.43 L15.92,16.43 L15.92,16.43 Z M23.93,3.92 C23.77,3.76 23.54,3.55 23.31,3.35 C23.06,3.14 22.81,2.94 22.56,2.75 C22.3,2.57 22.08,2.41 21.87,2.28 L20.47,2.78 C20.06,2.94 19.64,3.1 19.25,3.3 C19.71,3.48 20.15,3.71 20.58,3.98 C21.02,4.26 21.43,4.58 21.8,4.92 C22.19,5.26 22.53,5.65 22.88,6.06 C23.22,6.47 23.52,6.9 23.77,7.38 C24.05,7.84 24.26,8.31 24.46,8.79 C24.65,9.27 24.81,9.77 24.9,10.27 C24.99,10.77 25.06,11.28 25.06,11.75 C25.06,13.4 24.65,14.92 23.84,16.31 C23.02,17.7 21.91,18.82 20.51,19.62 C19.11,20.44 17.58,20.82 15.92,20.82 C15.58,20.82 15.17,20.8 14.73,20.73 C14.27,20.66 13.83,20.57 13.4,20.46 C12.96,20.34 12.57,20.21 12.25,20.07 L10.69,21.62 C11.15,21.87 11.68,22.08 12.32,22.28 C12.96,22.49 13.6,22.65 14.25,22.76 C14.91,22.87 15.49,22.94 15.99,22.94 C18.04,22.94 19.92,22.44 21.64,21.44 C23.36,20.44 24.74,19.09 25.72,17.38 C26.73,15.67 27.24,13.81 27.24,11.78 C27.24,10.5 26.92,9.09 26.28,7.56 C25.61,6.04 24.83,4.83 23.93,3.92 L23.93,3.92 L23.93,3.92 Z" id="Shape"></path>
            </g>
        </g>
    </g>
</svg>