<svg width="20px" height="20px" viewBox="0 0 41 41" xmlns="http://www.w3.org/2000/svg" xmlns:xlink="http://www.w3.org/1999/xlink">
    <g stroke="none" stroke-width="1" fill="none" fill-rule="evenodd">
        <g transform="translate(1.000000, 1.000000)">
            <g stroke="#00C1DE" stroke-width="1.6">
                <rect fill="#FFFFFF" fill-rule="nonzero" x="0.6" y="0.6" width="38.4" height="38.4" rx="8"></rect>
                <rect x="0.6" y="0.6" width="38.4" height="38.4" rx="8"></rect>
            </g>
            <g transform="translate(6.500000, 6.500000)" fill="#00C1DE" fill-rule="nonzero">
                <path d="M8.52,16.92 L4.24,24.55 L6.2,25.65 L0.36,27.08 L6.65,15.89 L4.54,14.67 L7.76,13.91 L7.76,13.94 L7.76,13.94 C7.76,13.94 7.76,13.96 7.76,13.96 C7.76,13.96 7.76,13.98 7.76,13.98 C7.76,15.02 8.01,16.01 8.52,16.92 L8.52,16.92 Z M19.15,4.5 C17.57,3.6 15.89,3.14 14.08,3.09 C12.28,3.05 10.63,3.42 9.11,4.17 L8.19,3.65 C9.34,3 10.56,2.59 11.85,2.36 C13.13,2.13 14.44,2.13 15.78,2.34 C17.11,2.57 18.39,3 19.59,3.67 C19.87,3.83 20.14,4.01 20.42,4.2 C20.69,4.38 20.97,4.59 21.22,4.79 L20.78,5.6 C20.69,5.53 20.6,5.46 20.51,5.37 C20.39,5.28 20.28,5.21 20.16,5.12 C20.05,5.02 19.93,4.95 19.82,4.86 C19.7,4.79 19.59,4.7 19.47,4.63 C19.36,4.61 19.24,4.56 19.15,4.5 L19.15,4.5 Z M22.14,20.99 C22.58,20.46 22.97,19.91 23.31,19.31 C24.23,17.68 24.69,15.94 24.69,14.05 C24.69,12.17 24.28,10.49 23.45,8.93 L23.95,8.01 C24.99,9.8 25.54,11.71 25.56,13.78 C25.61,15.84 25.1,17.82 24.07,19.75 C23.72,20.35 23.36,20.9 22.92,21.43 L22.14,20.99 Z M5.69,6.79 C5.48,7.02 5.25,7.32 5,7.69 C4.75,8.06 4.54,8.38 4.38,8.65 C3.51,10.24 3.05,11.92 3,13.71 C2.96,15.5 3.32,17.15 4.06,18.67 L3.53,19.61 C2.59,17.87 2.11,15.98 2.11,14.01 C2.11,12.03 2.59,10.1 3.6,8.24 C3.76,7.96 3.97,7.64 4.22,7.28 C4.47,6.91 4.7,6.61 4.91,6.36 L5.69,6.79 Z M8.52,23.47 C10.15,24.39 11.87,24.85 13.73,24.87 C15.59,24.9 17.27,24.48 18.81,23.66 L19.73,24.16 C17.96,25.2 16.05,25.72 14.01,25.75 C11.96,25.77 9.99,25.29 8.08,24.25 C7.39,23.86 6.77,23.43 6.17,22.92 L6.63,22.12 C7.21,22.65 7.85,23.1 8.52,23.47 L8.52,23.47 Z M9.46,11.53 C9.85,10.81 10.47,10.22 11.34,9.71 C12.19,9.21 13.02,8.95 13.85,8.95 C14.72,8.95 15.55,9.16 16.3,9.6 C17.52,10.28 18.3,11.3 18.67,12.63 C19.04,13.96 18.9,15.25 18.21,16.44 C17.82,17.15 17.2,17.75 16.33,18.26 C15.48,18.76 14.65,19.02 13.82,19.02 C12.95,19.02 12.12,18.81 11.36,18.37 C10.97,18.14 10.61,17.87 10.28,17.57 C9.96,17.25 9.69,16.9 9.48,16.53 C9.27,16.17 9.09,15.78 8.98,15.34 C8.86,14.93 8.79,14.49 8.79,14.08 C8.79,13.64 8.84,13.23 8.93,12.79 C9.02,12.35 9.25,11.94 9.46,11.53 L9.46,11.53 L9.46,11.53 Z M24.48,23.36 L25.59,21.4 L27.01,27.24 L16.28,21.17 L15.06,23.29 L14.31,20.07 L14.33,20.07 L14.33,20.07 C15.32,20 16.24,19.68 17.06,19.18 L24.48,23.36 Z M3.03,4.27 L1.92,6.22 L0.5,0.38 L11.85,6.79 L13.06,4.68 L13.82,7.9 L13.8,7.9 L13.8,7.9 L13.78,7.9 L13.78,7.9 C13.55,7.9 13.27,7.92 12.95,7.96 C12.63,8.01 12.35,8.08 12.12,8.15 C12.03,8.17 11.94,8.22 11.82,8.24 C11.71,8.29 11.59,8.33 11.48,8.38 C11.36,8.42 11.25,8.47 11.13,8.52 C11.02,8.56 10.93,8.61 10.84,8.65 L3.03,4.27 L3.03,4.27 Z M19.08,10.54 L23.38,2.89 L21.43,1.78 L27.24,0.36 L21.08,11.3 L23.2,12.51 L19.98,13.27 L19.98,13.25 L19.98,13.25 C19.89,12.28 19.59,11.39 19.08,10.54 L19.08,10.54 Z" id="Shape"></path>
            </g>
        </g>
    </g>
</svg>