<svg width="20px" height="20px" viewBox="0 0 41 41" xmlns="http://www.w3.org/2000/svg" xmlns:xlink="http://www.w3.org/1999/xlink">
    <g stroke="none" stroke-width="1" fill="none" fill-rule="evenodd">
        <g transform="translate(1.000000, 1.000000)">
            <g stroke="#00C1DE" stroke-width="1.6">
                <rect fill="#FFFFFF" fill-rule="nonzero" x="0.6" y="0.6" width="38.4" height="38.4" rx="8"></rect>
                <rect x="0.6" y="0.6" width="38.4" height="38.4" rx="8"></rect>
            </g>
            <g transform="translate(7.500000, 6.500000)" fill="#00C1DE" fill-rule="nonzero">
                <path d="M18.07,0.36 L15.69,1.69 L24.97,7.02 L24.97,4.29 L18.07,0.36 Z M21.71,11.24 L24.99,13.11 L24.99,9.18 L21.71,7.31 L21.71,11.24 Z M21.71,21.87 L15.06,25.6 L17.93,27.24 L24.99,23.29 L24.99,15.26 L21.71,13.38 L21.71,21.87 L21.71,21.87 Z M7.5,0.36 L0.63,4.29 L0.63,7.02 L9.91,1.69 L7.5,0.36 Z M0.61,9.18 L0.61,13.11 L3.89,11.24 L3.89,7.31 L0.61,9.18 Z M0.61,15.26 L0.61,23.29 L7.67,27.24 L10.54,25.6 L3.89,21.87 L3.89,13.38 L0.61,15.26 Z M12.88,8.87 L18.86,5.67 L12.97,2.29 L7.01,5.62 L12.88,8.87 Z M13.73,17.69 L19.86,14.28 L19.86,7.25 L13.76,10.53 L13.73,17.69 Z M5.88,14.38 L11.99,17.67 L11.99,10.66 L5.86,7.25 L5.88,14.38 Z M19.86,16.4 L12.8,20.35 L5.93,16.42 L5.93,20.79 L12.8,24.72 L19.86,20.77 L19.86,16.4 Z" id="Shape"></path>
            </g>
        </g>
    </g>
</svg>