<svg width="20px" height="20px" viewBox="0 0 41 41" xmlns="http://www.w3.org/2000/svg" xmlns:xlink="http://www.w3.org/1999/xlink">
    <g stroke="none" stroke-width="1" fill="none" fill-rule="evenodd">
        <g transform="translate(1.000000, 1.000000)">
            <g stroke="#00C1DE" stroke-width="1.6">
                <rect fill="#FFFFFF" fill-rule="nonzero" x="0.6" y="0.6" width="38.4" height="38.4" rx="8"></rect>
                <rect x="0.6" y="0.6" width="38.4" height="38.4" rx="8"></rect>
            </g>
            <g transform="translate(6.500000, 6.500000)" fill="#00C1DE" fill-rule="nonzero">
                <path d="M19.53,0.36 L19.53,0.78 C19.53,4.43 19.16,7.73 18.4,10.68 C17.13,7.66 15.53,5.23 13.59,3.41 C11.65,1.61 9.6,0.6 7.44,0.43 L0.36,0.36 L0.36,27.24 L6.66,27.24 C9,27.24 11.18,26.33 13.21,24.53 C15.24,22.72 16.95,20.16 18.33,16.85 C18.69,18.41 18.98,20.01 19.18,21.7 C19.38,23.39 19.47,25.06 19.47,26.73 L19.47,27.22 L27.24,27.22 L27.24,0.36 L19.53,0.36 L19.53,0.36 Z M25.35,2.27 L25.35,25.33 L21.87,25.33 L21.87,2.27 L25.35,2.27 Z M19.96,12.31 L19.96,15.36 C19.87,15.05 19.8,14.76 19.73,14.51 C19.67,14.27 19.58,14.02 19.47,13.8 C19.6,13.47 19.78,12.98 19.96,12.31 L19.96,12.31 Z M17.55,13.87 C17.11,15.18 16.59,16.43 16.04,17.56 C15.48,18.7 14.88,19.72 14.23,20.61 C13.59,21.5 12.92,22.28 12.21,22.95 C11.5,23.61 10.76,24.12 9.98,24.53 C9.2,24.93 8.44,25.17 7.64,25.26 L7.64,2.36 C9.6,2.65 11.47,3.81 13.25,5.88 C15.04,7.95 16.46,10.6 17.55,13.87 L17.55,13.87 Z M5.75,2.27 L5.75,25.33 L2.28,25.33 L2.28,2.27 L5.75,2.27 Z" id="Shape"></path>
            </g>
        </g>
    </g>
</svg>