<svg width="20px" height="20px" viewBox="0 0 41 41" xmlns="http://www.w3.org/2000/svg" xmlns:xlink="http://www.w3.org/1999/xlink">
    <g stroke="none" stroke-width="1" fill="none" fill-rule="evenodd">
        <g transform="translate(1.000000, 1.000000)">
            <g stroke="#00C1DE" stroke-width="1.6">
                <rect fill="#FFFFFF" fill-rule="nonzero" x="0.6" y="0.6" width="38.4" height="38.4" rx="8"></rect>
                <rect x="0.6" y="0.6" width="38.4" height="38.4" rx="8"></rect>
            </g>
            <g transform="translate(6.500000, 12.500000)" fill="#00C1DE" fill-rule="nonzero">
                <path d="M27.19,4.37 C27.01,3.9 26.81,3.5 26.58,3.12 C26.35,2.73 26.13,2.42 25.92,2.15 C25.69,1.88 25.47,1.66 25.22,1.45 C24.97,1.25 24.74,1.09 24.53,0.98 C24.33,0.87 24.1,0.78 23.87,0.71 C23.65,0.65 23.46,0.6 23.28,0.58 C23.12,0.56 22.94,0.53 22.78,0.53 C22.37,0.53 21.99,0.6 21.55,0.76 C21.15,0.89 20.69,1.16 20.24,1.54 L19.74,2.04 C18.92,1.36 18.12,1.03 17.37,1.03 C17.07,1.03 16.76,1.07 16.46,1.16 C16.14,1.25 15.8,1.43 15.39,1.68 C14.98,1.93 14.57,2.33 14.14,2.87 C13.71,3.41 13.32,4.08 12.98,4.87 L11.28,9.05 L9.25,4.35 C8.93,3.57 8.57,2.89 8.16,2.35 C7.75,1.81 7.32,1.41 6.91,1.16 C6.5,0.91 6.11,0.74 5.8,0.65 C5.48,0.56 5.16,0.51 4.84,0.51 C4.54,0.51 4.23,0.56 3.93,0.65 C3.61,0.74 3.27,0.91 2.86,1.16 C2.45,1.41 2.04,1.81 1.61,2.35 C1.18,2.89 0.79,3.57 0.45,4.35 C0.36,4.6 0.41,4.87 0.54,5.14 C0.68,5.41 0.88,5.59 1.13,5.68 C1.25,5.72 1.34,5.72 1.45,5.74 C1.57,5.74 1.68,5.74 1.79,5.72 C1.91,5.7 2.02,5.65 2.11,5.59 C2.22,5.52 2.32,5.45 2.41,5.36 C2.5,5.27 2.59,5.16 2.66,5.03 C3,4.26 3.36,3.66 3.77,3.21 C4.16,2.76 4.52,2.53 4.86,2.53 C5.2,2.53 5.57,2.76 5.95,3.21 C6.34,3.66 6.73,4.26 7.07,5.03 L9.39,10.73 L9.89,11.74 C9.89,11.72 9.96,11.61 10.05,11.41 C9.82,11.85 9.59,12.12 9.37,12.24 C8.91,12.69 8.52,12.91 8.18,12.91 C7.96,12.91 7.73,12.8 7.46,12.6 C7.21,12.39 6.93,12.1 6.68,11.72 C6.43,11.34 6.18,10.91 5.95,10.39 C5.91,10.24 5.8,10.08 5.64,9.97 C5.48,9.86 5.29,9.77 5.09,9.72 C4.89,9.68 4.66,9.68 4.43,9.74 C4.18,9.83 3.98,10.01 3.84,10.3 C3.7,10.6 3.68,10.91 3.75,11.25 C4,11.88 4.29,12.44 4.64,12.93 C4.98,13.43 5.29,13.79 5.59,14.06 C5.89,14.33 6.23,14.53 6.57,14.71 C6.91,14.86 7.21,14.98 7.43,15.02 C7.68,15.07 7.91,15.09 8.16,15.09 C9.05,15.09 9.89,14.75 10.71,14.08 L11.21,13.58 C12.03,14.26 12.82,14.6 13.57,14.6 C13.8,14.6 14.05,14.57 14.28,14.53 C14.5,14.48 14.8,14.37 15.12,14.21 C15.44,14.06 15.76,13.83 16.05,13.56 C16.35,13.29 16.67,12.91 17.01,12.44 C17.35,11.97 17.67,11.41 17.96,10.75 L19.83,6.58 L21.85,11.43 C21.94,11.67 22.12,11.88 22.42,12.01 C22.71,12.15 23.03,12.17 23.37,12.1 C23.62,12.01 23.83,11.83 23.97,11.54 C24.1,11.25 24.12,10.93 24.06,10.6 L21.76,5.05 L21.26,4.04 C21.26,4.06 21.19,4.17 21.1,4.37 C21.17,4.22 21.24,4.1 21.28,4.04 C21.33,3.95 21.4,3.88 21.49,3.77 C21.58,3.68 21.67,3.59 21.78,3.54 C21.9,3.43 21.99,3.34 22.06,3.3 C22.12,3.23 22.21,3.16 22.31,3.09 C22.42,3.03 22.51,2.96 22.62,2.94 C22.74,2.91 22.85,2.89 22.96,2.89 C23.31,2.89 23.67,3.12 24.06,3.57 C24.44,4.01 24.83,4.62 25.17,5.39 C25.26,5.56 25.44,5.72 25.72,5.81 C25.99,5.9 26.26,5.88 26.51,5.72 C26.67,5.68 26.83,5.56 26.94,5.41 C27.08,5.25 27.15,5.09 27.19,4.91 C27.24,4.73 27.24,4.55 27.19,4.37 L27.19,4.37 Z M18.37,4.37 L16.01,9.9 C15.85,10.28 15.66,10.62 15.46,10.93 C15.28,11.25 15.07,11.52 14.89,11.72 C14.71,11.94 14.5,12.1 14.32,12.24 C14.14,12.35 13.96,12.42 13.78,12.42 C13.44,12.42 13.05,12.19 12.59,11.74 C12.14,12.42 11.87,12.8 11.75,12.91 C11.98,12.69 12.14,12.46 12.25,12.24 L12.75,11.23 L15.16,5.72 C15.32,5.34 15.51,5 15.71,4.69 C15.89,4.37 16.1,4.1 16.28,3.9 C16.46,3.68 16.67,3.52 16.85,3.39 C17.03,3.27 17.21,3.21 17.39,3.21 C17.58,3.21 17.76,3.25 17.94,3.36 C18.12,3.48 18.35,3.63 18.58,3.88 C19.03,3.21 19.3,2.82 19.42,2.71 C19.35,2.78 19.28,2.85 19.24,2.89 C19.19,2.94 19.14,3 19.08,3.09 C19.01,3.18 18.96,3.27 18.89,3.39 L18.37,4.37 Z" id="Shape"></path>
            </g>
        </g>
    </g>
</svg>