<svg width="20px" height="20px" viewBox="0 0 41 41" xmlns="http://www.w3.org/2000/svg" xmlns:xlink="http://www.w3.org/1999/xlink">
    <g stroke="none" stroke-width="1" fill="none" fill-rule="evenodd">
        <g transform="translate(1.000000, 1.000000)">
            <g stroke="#00C1DE" stroke-width="1.6">
                <rect fill="#FFFFFF" fill-rule="nonzero" x="0.6" y="0.6" width="38.4" height="38.4" rx="8"></rect>
                <rect x="0.6" y="0.6" width="38.4" height="38.4" rx="8"></rect>
            </g>
            <g transform="translate(6.500000, 6.500000)" fill="#00C1DE" fill-rule="nonzero">
                <path d="M17.18,13.01 C17.18,13.01 17.18,12.99 17.16,12.96 C17.12,12.88 17.12,12.83 17.12,12.81 L17.12,12.81 L17.05,13.01 C17.05,13.01 17.03,13.08 16.96,13.21 C16.91,13.34 16.82,13.57 16.69,13.88 L17.52,13.88 C17.43,13.59 17.32,13.3 17.18,13.01 L17.18,13.01 Z M12.48,12.79 L11.94,12.79 L11.94,13.63 L12.48,13.63 C12.81,13.63 12.99,13.48 12.99,13.19 C12.99,13.1 12.97,13.03 12.93,12.96 C12.88,12.9 12.84,12.85 12.75,12.83 C12.68,12.81 12.59,12.79 12.48,12.79 L12.48,12.79 Z M22.74,7.93 L20.92,7.93 L20.92,6.8 L19.71,6.8 L19.71,4.99 L22.74,4.99 L22.74,7.93 L22.74,7.93 L22.74,7.93 Z M20.92,13.52 L22.74,13.52 L22.74,8.62 L20.92,8.62 L20.92,13.52 L20.92,13.52 Z M20.92,19.02 L22.74,19.02 L22.74,14.19 L20.92,14.19 L20.92,19.02 Z M22.74,22.63 L19.71,22.63 L19.71,21.07 L20.92,21.07 L20.92,19.73 L22.74,19.73 L22.74,22.63 L22.74,22.63 L22.74,22.63 Z M19.02,19.93 L19.78,19.93 L19.78,19.18 L19.02,19.18 L19.02,19.93 Z M19.02,18.8 L19.78,18.8 L19.78,18.04 L19.02,18.04 L19.02,18.8 L19.02,18.8 L19.02,18.8 Z M19.02,16.55 L19.78,16.55 L19.78,15.79 L19.02,15.79 L19.02,16.55 L19.02,16.55 L19.02,16.55 Z M19.02,13.17 L19.78,13.17 L19.78,12.41 L19.02,12.41 L19.02,13.17 Z M19.02,9.8 L19.78,9.8 L19.78,9.05 L19.02,9.05 L19.02,9.8 Z M14.25,6.8 L19.02,6.8 L19.02,4.99 L14.25,4.99 L14.25,6.8 Z M14.25,22.63 L19.02,22.63 L19.02,21.07 L14.25,21.07 L14.25,22.63 L14.25,22.63 Z M13.31,19.93 L14.07,19.93 L14.07,19.18 L13.31,19.18 L13.31,19.93 Z M8.65,22.63 L13.58,22.63 L13.58,21.07 L8.65,21.07 L8.65,22.63 Z M7.6,19.93 L8.36,19.93 L8.36,19.18 L7.6,19.18 L7.6,19.93 Z M7.95,22.63 L4.86,22.63 L4.86,19.71 L6.45,19.71 L6.45,21.05 L7.93,21.05 L7.95,22.63 L7.95,22.63 Z M4.86,19.02 L6.45,19.02 L6.45,14.19 L4.86,14.19 L4.86,19.02 Z M4.86,13.52 L6.45,13.52 L6.45,8.62 L4.86,8.62 L4.86,13.52 Z M4.86,4.99 L7.95,4.99 L7.95,6.8 L6.48,6.8 L6.48,7.93 L4.88,7.93 L4.86,4.99 Z M7.6,8.67 L8.36,8.67 L8.36,7.91 L7.6,7.91 L7.6,8.67 Z M7.6,18.8 L8.36,18.8 L8.36,18.04 L7.6,18.04 L7.6,18.8 L7.6,18.8 L7.6,18.8 Z M7.6,14.3 L8.36,14.3 L8.36,13.54 L7.6,13.54 L7.6,14.3 L7.6,14.3 L7.6,14.3 Z M7.6,15.44 L8.36,15.44 L8.36,14.68 L7.6,14.68 L7.6,15.44 Z M7.6,17.69 L8.36,17.69 L8.36,16.93 L7.6,16.93 L7.6,17.69 Z M7.6,16.55 L8.36,16.55 L8.36,15.79 L7.6,15.79 L7.6,16.55 L7.6,16.55 L7.6,16.55 Z M7.6,13.17 L8.36,13.17 L8.36,12.41 L7.6,12.41 L7.6,13.17 Z M7.6,12.05 L8.36,12.05 L8.36,11.29 L7.6,11.29 L7.6,12.05 L7.6,12.05 L7.6,12.05 Z M7.6,9.8 L8.36,9.8 L8.36,9.05 L7.6,9.05 L7.6,9.8 L7.6,9.8 L7.6,9.8 Z M7.6,10.92 L8.36,10.92 L8.36,10.16 L7.6,10.16 L7.6,10.92 Z M8.74,8.67 L9.5,8.67 L9.5,7.91 L8.74,7.91 L8.74,8.67 L8.74,8.67 L8.74,8.67 Z M8.74,19.93 L9.5,19.93 L9.5,19.18 L8.74,19.18 L8.74,19.93 L8.74,19.93 L8.74,19.93 Z M8.65,6.8 L13.58,6.8 L13.58,4.99 L8.65,4.99 L8.65,6.8 Z M12.16,8.67 L12.93,8.67 L12.93,7.91 L12.16,7.91 L12.16,8.67 Z M11.02,19.93 L11.78,19.93 L11.78,19.18 L11.02,19.18 L11.02,19.93 Z M11.02,8.67 L11.78,8.67 L11.78,7.91 L11.02,7.91 L11.02,8.67 Z M9.88,8.67 L10.64,8.67 L10.64,7.91 L9.88,7.91 L9.88,8.67 Z M9.88,19.93 L10.64,19.93 L10.64,19.18 L9.88,19.18 L9.88,19.93 Z M9.97,13.77 L9.97,14.75 L9.61,14.75 L9.61,12.5 L11.2,12.5 L11.2,12.79 L9.97,12.79 L9.97,13.48 L11.04,13.48 L11.04,13.74 L9.97,13.77 L9.97,13.77 Z M12.16,19.93 L12.93,19.93 L12.93,19.18 L12.16,19.18 L12.16,19.93 Z M12.52,13.9 L11.94,13.9 L11.94,14.75 L11.58,14.75 L11.58,12.5 L12.55,12.5 C12.68,12.5 12.79,12.52 12.88,12.54 C12.97,12.56 13.06,12.61 13.13,12.68 C13.2,12.74 13.24,12.81 13.28,12.88 C13.33,12.96 13.35,13.05 13.35,13.17 C13.35,13.41 13.28,13.59 13.13,13.7 C12.97,13.81 12.81,13.9 12.52,13.9 L12.52,13.9 Z M13.31,8.67 L14.07,8.67 L14.07,7.91 L13.31,7.91 L13.31,8.67 Z M14.45,19.93 L15.21,19.93 L15.21,19.18 L14.45,19.18 L14.45,19.93 Z M15.59,8.67 L16.35,8.67 L16.35,7.91 L15.59,7.91 L15.59,8.67 Z M15.59,19.93 L16.35,19.93 L16.35,19.18 L15.59,19.18 L15.59,19.93 Z M16.73,19.93 L17.5,19.93 L17.5,19.18 L16.73,19.18 L16.73,19.93 L16.73,19.93 L16.73,19.93 Z M17.88,19.93 L18.64,19.93 L18.64,19.18 L17.88,19.18 L17.88,19.93 Z M17.88,8.67 L18.64,8.67 L18.64,7.91 L17.88,7.91 L17.88,8.67 L17.88,8.67 L17.88,8.67 Z M16.73,8.67 L17.5,8.67 L17.5,7.91 L16.73,7.91 L16.73,8.67 Z M16.91,12.52 L17.32,12.52 L18.24,14.77 L17.85,14.77 L17.63,14.17 L16.62,14.17 L16.4,14.77 L16.02,14.77 L16.91,12.52 Z M14.45,8.67 L15.21,8.67 L15.21,7.91 L14.45,7.91 L14.45,8.67 Z M14.76,12.48 C14.85,12.48 14.94,12.48 15.01,12.5 C15.08,12.52 15.17,12.52 15.23,12.54 C15.3,12.56 15.37,12.59 15.41,12.63 C15.48,12.65 15.52,12.7 15.57,12.74 C15.61,12.79 15.66,12.83 15.7,12.9 C15.75,12.94 15.77,13.01 15.79,13.08 L15.46,13.19 C15.35,12.9 15.12,12.76 14.76,12.76 C14.32,12.81 14.09,13.1 14.05,13.63 C14.05,13.81 14.09,13.97 14.16,14.1 C14.23,14.23 14.29,14.32 14.4,14.39 C14.52,14.46 14.65,14.5 14.81,14.5 C15.12,14.5 15.35,14.41 15.48,14.23 L15.48,13.79 L14.74,13.79 L14.74,13.5 L15.79,13.5 L15.79,14.32 C15.73,14.46 15.59,14.57 15.44,14.64 C15.28,14.7 15.05,14.75 14.81,14.75 C14.45,14.72 14.18,14.61 13.98,14.43 C13.78,14.26 13.69,13.97 13.67,13.61 C13.71,12.9 14.07,12.52 14.76,12.48 L14.76,12.48 L14.76,12.48 Z M19.02,10.92 L19.78,10.92 L19.78,10.16 L19.02,10.16 L19.02,10.92 Z M19.02,12.05 L19.78,12.05 L19.78,11.29 L19.02,11.29 L19.02,12.05 L19.02,12.05 L19.02,12.05 Z M19.02,14.3 L19.78,14.3 L19.78,13.54 L19.02,13.54 L19.02,14.3 L19.02,14.3 L19.02,14.3 Z M19.02,15.44 L19.78,15.44 L19.78,14.68 L19.02,14.68 L19.02,15.44 Z M19.02,17.69 L19.78,17.69 L19.78,16.93 L19.02,16.93 L19.02,17.69 Z M19.02,8.67 L19.78,8.67 L19.78,7.91 L19.02,7.91 L19.02,8.67 L19.02,8.67 L19.02,8.67 Z M27.22,9.4 L27.22,7.2 L24.98,7.2 L24.98,4.99 C24.98,4.59 24.89,4.24 24.69,3.88 C24.48,3.55 24.22,3.28 23.88,3.08 C23.54,2.88 23.16,2.79 22.76,2.79 L20.52,2.79 L20.52,0.58 L18.28,0.58 L18.28,2.79 L14.92,2.79 L14.92,0.58 L12.68,0.58 L12.68,2.79 L9.32,2.79 L9.32,0.58 L7.08,0.58 L7.08,2.79 L4.84,2.79 C4.21,2.79 3.7,3.01 3.25,3.43 C2.8,3.86 2.6,4.39 2.6,4.99 L2.6,7.2 L0.36,7.2 L0.36,9.4 L2.6,9.4 L2.6,12.7 L0.36,12.7 L0.36,14.9 L2.6,14.9 L2.6,18.2 L0.36,18.2 L0.36,20.4 L2.6,20.4 L2.6,22.61 C2.6,23.21 2.82,23.74 3.25,24.17 C3.68,24.59 4.21,24.81 4.84,24.81 L7.08,24.81 L7.08,27.02 L9.32,27.02 L9.32,24.81 L12.68,24.81 L12.68,27.02 L14.92,27.02 L14.92,24.81 L18.28,24.81 L18.28,27.02 L20.52,27.02 L20.52,24.81 L22.76,24.81 C23.39,24.81 23.9,24.59 24.35,24.17 C24.78,23.74 25,23.21 25,22.61 L25,20.4 L27.24,20.4 L27.24,18.2 L25,18.2 L25,14.9 L27.24,14.9 L27.24,12.7 L25,12.7 L25,9.4 L27.22,9.4 L27.22,9.4 Z" id="Shape"></path>
            </g>
        </g>
    </g>
</svg>