<svg width="20px" height="20px" viewBox="0 0 41 41" xmlns="http://www.w3.org/2000/svg" xmlns:xlink="http://www.w3.org/1999/xlink">
    <g stroke="none" stroke-width="1" fill="none" fill-rule="evenodd">
        <g transform="translate(1.000000, 1.000000)">
            <g stroke="#00C1DE" stroke-width="1.6">
                <rect fill="#FFFFFF" fill-rule="nonzero" x="0.6" y="0.6" width="38.4" height="38.4" rx="8"></rect>
                <rect x="0.6" y="0.6" width="38.4" height="38.4" rx="8"></rect>
            </g>
            <g transform="translate(6.500000, 6.500000)" fill="#00C1DE" fill-rule="nonzero">
                <path d="M6.65,7.5 L8.24,9.08 L1.95,15.37 L0.36,13.78 L6.65,7.5 Z M0.36,13.8 L1.95,12.21 L8.24,18.5 L6.65,20.08 L0.36,13.8 Z M20.95,20.08 L19.36,18.5 L25.65,12.21 L27.24,13.8 L20.95,20.08 Z M27.24,13.78 L25.65,15.37 L19.36,9.08 L20.95,7.5 L27.24,13.78 Z M17.95,2.76 L18.75,3.55 L7.71,14.57 L6.92,13.78 L17.95,2.76 Z M12.39,17.72 L11.6,18.52 L6.88,13.8 L7.67,13.01 L12.39,17.72 Z M13.98,14.57 L14.78,15.37 L11.64,18.5 L10.85,17.7 L13.98,14.57 Z M19.11,4.37 C18.77,4.37 18.42,4.28 18.14,4.1 C17.83,3.92 17.59,3.69 17.42,3.39 C17.24,3.08 17.16,2.76 17.16,2.41 C17.16,1.89 17.34,1.42 17.73,1.03 C18.12,0.64 18.59,0.46 19.11,0.46 C19.66,0.46 20.11,0.64 20.5,1.03 C20.89,1.42 21.07,1.86 21.07,2.41 C21.07,2.76 20.99,3.08 20.81,3.39 C20.62,3.69 20.4,3.92 20.09,4.1 C19.79,4.28 19.48,4.37 19.11,4.37 L19.11,4.37 Z M19.11,1.6 C18.97,1.6 18.83,1.64 18.69,1.7 C18.57,1.78 18.46,1.89 18.38,2.01 C18.3,2.13 18.26,2.27 18.26,2.43 C18.26,2.66 18.34,2.86 18.5,3.02 C18.67,3.19 18.87,3.27 19.09,3.27 C19.32,3.27 19.52,3.19 19.69,3.02 C19.85,2.86 19.93,2.66 19.93,2.43 C19.93,2.21 19.85,2.01 19.69,1.84 C19.54,1.68 19.36,1.6 19.11,1.6 L19.11,1.6 Z M9.63,24.84 L8.83,24.05 L19.87,13.03 L20.66,13.82 L9.63,24.84 Z M15.18,9.88 L15.98,9.08 L20.7,13.8 L19.91,14.59 L15.18,9.88 Z M13.6,13.03 L12.8,12.23 L15.94,9.1 L16.73,9.9 L13.6,13.03 Z M8.46,23.23 C9.01,23.23 9.46,23.42 9.85,23.8 C10.24,24.19 10.42,24.64 10.42,25.19 C10.42,25.74 10.24,26.18 9.85,26.57 C9.46,26.96 8.99,27.14 8.46,27.14 C7.91,27.14 7.47,26.96 7.08,26.57 C6.69,26.18 6.51,25.74 6.51,25.19 C6.51,24.64 6.69,24.19 7.08,23.8 C7.47,23.42 7.94,23.23 8.46,23.23 Z M8.46,26 C8.69,26 8.89,25.92 9.06,25.76 C9.22,25.59 9.3,25.39 9.3,25.17 C9.3,24.94 9.22,24.74 9.06,24.58 C8.89,24.41 8.69,24.33 8.46,24.33 C8.32,24.33 8.18,24.37 8.04,24.43 C7.91,24.52 7.81,24.62 7.73,24.74 C7.65,24.86 7.61,25 7.61,25.17 C7.61,25.39 7.69,25.59 7.85,25.76 C8.04,25.92 8.24,26 8.46,26 L8.46,26 Z" id="Shape"></path>
            </g>
        </g>
    </g>
</svg>