<svg width="20px" height="20px" viewBox="0 0 41 41" xmlns="http://www.w3.org/2000/svg" xmlns:xlink="http://www.w3.org/1999/xlink">
    <g stroke="none" stroke-width="1" fill="none" fill-rule="evenodd">
        <g transform="translate(1.000000, 1.000000)">
            <g stroke="#00C1DE" stroke-width="1.6">
                <rect fill="#FFFFFF" fill-rule="nonzero" x="0.6" y="0.6" width="38.4" height="38.4" rx="8"></rect>
                <rect x="0.6" y="0.6" width="38.4" height="38.4" rx="8"></rect>
            </g>
            <g transform="translate(6.500000, 8.500000)" fill="#00C1DE" fill-rule="nonzero">
                <path d="M22.15,12.95 C21.89,12.95 21.65,12.97 21.39,13.02 C21.13,13.06 20.89,13.13 20.67,13.19 C20.43,13.26 20.21,13.36 19.99,13.47 L17.17,9.28 C18.33,8.26 18.9,7 18.88,5.5 C18.88,4.11 18.37,2.91 17.37,1.91 C16.37,0.94 15.16,0.44 13.77,0.44 C12.37,0.44 11.17,0.94 10.16,1.94 C9.18,2.93 8.68,4.13 8.68,5.52 C8.68,6.26 8.83,6.95 9.14,7.61 C9.44,8.26 9.88,8.82 10.4,9.3 L7.63,13.52 C7.28,13.36 6.93,13.23 6.56,13.15 C6.19,13.06 5.82,13.02 5.45,13.02 C4.05,13.02 2.85,13.52 1.84,14.52 C0.86,15.52 0.36,16.71 0.36,18.1 C0.36,19.49 0.86,20.69 1.87,21.69 C2.87,22.66 4.07,23.16 5.47,23.16 C6.74,23.16 7.85,22.73 8.79,21.9 C9.73,21.06 10.3,20.04 10.47,18.77 L17.11,18.75 C17.28,19.99 17.85,21.03 18.81,21.86 C19.77,22.69 20.89,23.1 22.15,23.1 C23.55,23.1 24.75,22.6 25.76,21.6 C26.74,20.6 27.24,19.4 27.24,18.01 C27.24,16.62 26.74,15.43 25.73,14.43 C24.75,13.43 23.55,12.95 22.15,12.95 L22.15,12.95 Z M17.15,17.34 L10.51,17.36 C10.47,17.04 10.36,16.67 10.19,16.28 C10.01,15.88 9.81,15.52 9.57,15.17 C9.33,14.82 9.09,14.54 8.83,14.3 L11.61,10.08 C12.33,10.43 13.05,10.58 13.79,10.58 C14.55,10.58 15.27,10.41 15.97,10.06 L18.79,14.26 C18.53,14.47 18.29,14.78 18.05,15.12 C17.81,15.47 17.61,15.84 17.44,16.25 C17.3,16.65 17.2,16.99 17.15,17.34 L17.15,17.34 Z" id="Shape"></path>
            </g>
        </g>
    </g>
</svg>