<svg width="20px" height="20px" viewBox="0 0 41 41" xmlns="http://www.w3.org/2000/svg" xmlns:xlink="http://www.w3.org/1999/xlink">
    <g stroke="none" stroke-width="1" fill="none" fill-rule="evenodd">
        <g transform="translate(1.000000, 1.000000)">
            <g stroke="#00C1DE" stroke-width="1.6">
                <rect fill="#FFFFFF" fill-rule="nonzero" x="0.6" y="0.6" width="38.4" height="38.4" rx="8"></rect>
                <rect x="0.6" y="0.6" width="38.4" height="38.4" rx="8"></rect>
            </g>
            <g transform="translate(7.500000, 6.500000)" fill="#00C1DE" fill-rule="nonzero">
                <path d="M16.22,5.97 L13.02,4.07 L12.77,3.94 L12.52,4.01 L9.31,5.9 L5.48,3.82 L0.51,6.72 L0.51,12.38 L5.48,15.28 L5.61,15.34 L7.44,14.34 L7.44,11.76 L6.06,11.07 L3.73,12.45 L2.15,11.51 L2.15,7.61 L5.67,5.65 L7.81,6.84 L5.79,8.09 L8.5,9.86 L7.69,10.24 L7.69,16.22 L12.73,19.11 L12.79,19.18 L12.85,19.18 L18.02,16.28 L18.02,10.3 L17.2,9.92 L19.91,8.15 L17.89,6.9 L20.03,5.72 L23.55,7.67 L23.55,11.57 L21.99,12.51 L19.66,11.13 L18.22,11.82 L18.22,14.4 L20.06,15.4 L25.09,12.45 L25.09,6.78 L20.06,3.88 L16.22,5.97 Z M8.81,8.17 L12.77,5.65 L16.72,8.17 L12.77,10.63 L8.81,8.17 Z M15.48,10.76 L16.35,11.26 L16.35,15.22 L12.77,17.3 L9.25,15.28 L9.25,11.32 L10.12,10.82 L12.83,12.47 L15.48,10.76 Z M19.12,13.07 L19.56,12.82 L20.37,13.32 L19.99,13.57 L19.12,13.07 Z M5.17,13.32 L5.98,12.82 L6.42,13.07 L5.54,13.57 L5.17,13.32 Z M12.77,0.36 L13.02,0.49 L13.14,0.55 L17.85,3.13 L17.85,4.69 L16.29,5.57 L16.29,4.13 L12.77,2.05 L9.25,4.13 L9.25,5.63 L7.69,4.69 L7.69,3.13 L12.77,0.36 Z M22.32,14.4 L23.45,15.15 L23.45,19.55 L19.56,21.88 L18.31,21.26 L18.31,17.99 L16.81,17.11 L13.98,18.76 L13.98,20.59 L16.81,22.16 L16.81,23.34 L12.85,25.68 L8.9,23.34 L8.9,22.16 L11.73,20.59 L11.73,18.76 L8.77,17.05 L7.27,17.93 L7.27,21.2 L6.02,21.82 L2.13,19.49 L2.13,15.09 L3.25,14.34 L1.61,13.4 L0.55,14.28 L0.55,20.51 L5.96,23.66 L7.27,22.97 L7.27,24.03 L12.56,27.11 L12.81,27.24 L13.06,27.11 L18.18,24.09 L18.24,24.03 L18.24,22.97 L19.56,23.66 L24.97,20.51 L24.97,14.28 L23.91,13.4 L22.32,14.4 Z M15.54,19.61 L15.54,17.97 L16.79,18.72 L16.79,20.28 L15.54,19.61 Z M8.81,18.74 L10.06,17.99 L10.06,19.63 L8.81,20.26 L8.81,18.74 Z" id="Shape"></path>
            </g>
        </g>
    </g>
</svg>