<svg width="20px" height="20px" viewBox="0 0 41 41" xmlns="http://www.w3.org/2000/svg" xmlns:xlink="http://www.w3.org/1999/xlink">
    <g stroke="none" stroke-width="1" fill="none" fill-rule="evenodd">
        <g transform="translate(1.000000, 1.000000)">
            <g stroke="#00C1DE" stroke-width="1.6">
                <rect fill="#FFFFFF" fill-rule="nonzero" x="0.6" y="0.6" width="38.4" height="38.4" rx="8"></rect>
                <rect x="0.6" y="0.6" width="38.4" height="38.4" rx="8"></rect>
            </g>
            <g transform="translate(6.500000, 6.500000)" fill="#00C1DE" fill-rule="nonzero">
                <path d="M25.37,4.96 L23.13,5.78 L23.13,22.55 L25.37,23.37 C25.88,23.55 26.31,23.44 26.68,23.02 C27.06,22.6 27.24,21.98 27.24,21.2 L27.24,7.16 C27.24,6.38 27.06,5.76 26.68,5.34 C26.31,4.89 25.86,4.78 25.37,4.96 L25.37,4.96 Z M8.96,9.51 L2.74,10.31 C2.69,10.31 2.67,10.31 2.63,10.31 C2.6,10.29 2.56,10.29 2.54,10.27 C2.51,10.25 2.47,10.2 2.45,10.18 C2.43,10.13 2.4,10.09 2.38,10.05 C2.36,10 2.34,9.93 2.34,9.89 C2.31,9.82 2.31,9.78 2.31,9.71 C2.31,9.65 2.29,9.58 2.29,9.51 C2.29,9.36 2.31,9.2 2.36,9.07 C2.4,8.93 2.45,8.8 2.51,8.71 C2.58,8.62 2.65,8.56 2.74,8.56 L8.96,7.36 C9.13,7.31 9.31,7.4 9.45,7.6 C9.58,7.8 9.65,8.05 9.65,8.36 C9.65,8.67 9.58,8.93 9.45,9.18 C9.31,9.36 9.13,9.49 8.96,9.51 L8.96,9.51 Z M2.31,13.84 C2.31,13.76 2.31,13.67 2.34,13.56 C2.36,13.47 2.38,13.38 2.4,13.31 C2.43,13.24 2.47,13.18 2.49,13.11 C2.54,13.07 2.56,13.02 2.6,12.98 C2.65,12.93 2.69,12.93 2.74,12.93 L5.89,12.82 C6.05,12.82 6.18,12.91 6.29,13.11 C6.4,13.31 6.45,13.53 6.45,13.82 C6.45,14.11 6.4,14.33 6.29,14.53 C6.18,14.73 6.05,14.82 5.89,14.82 L2.74,14.73 C2.47,14.73 2.34,14.47 2.29,13.96 C2.31,13.91 2.31,13.87 2.31,13.84 L2.31,13.84 Z M6.85,19.98 L2.74,19.18 C2.63,19.15 2.51,19.04 2.43,18.86 C2.34,18.69 2.29,18.47 2.29,18.22 C2.29,17.98 2.34,17.78 2.43,17.62 C2.51,17.47 2.63,17.4 2.74,17.4 L6.85,17.93 C6.89,17.93 6.96,17.95 7,18 C7.05,18.02 7.09,18.07 7.14,18.13 C7.18,18.2 7.22,18.24 7.25,18.31 C7.29,18.38 7.31,18.44 7.34,18.53 C7.36,18.62 7.38,18.69 7.4,18.8 C7.42,18.89 7.42,18.98 7.42,19.09 C7.42,19.38 7.36,19.62 7.25,19.8 C7.16,19.93 7,20 6.85,19.98 L6.85,19.98 Z M10.69,0.63 L1.67,3.98 C1.29,4.11 1,4.49 0.74,5.11 C0.49,5.74 0.36,6.42 0.36,7.18 L0.36,20.51 C0.36,21.26 0.49,21.95 0.74,22.57 C0.98,23.2 1.29,23.57 1.67,23.71 L10.69,27.06 C11.16,27.24 11.6,27.22 12,27 C12.4,26.77 12.73,26.4 12.98,25.86 C13.22,25.31 13.33,24.69 13.33,23.93 L13.33,3.76 C13.33,2.63 13.07,1.76 12.56,1.14 C12.02,0.54 11.4,0.36 10.69,0.63 L10.69,0.63 Z M19.09,4.96 L15.51,6.27 L15.51,22.06 L19.09,23.37 C19.6,23.55 20.02,23.44 20.4,23.02 C20.78,22.6 20.95,21.98 20.95,21.2 L20.95,7.16 C20.95,6.65 20.86,6.2 20.69,5.8 C20.51,5.4 20.29,5.16 20,5 C19.73,4.85 19.42,4.83 19.09,4.96 L19.09,4.96 Z" id="Shape"></path>
            </g>
        </g>
    </g>
</svg>