<svg width="20px" height="20px" viewBox="0 0 41 41" xmlns="http://www.w3.org/2000/svg" xmlns:xlink="http://www.w3.org/1999/xlink">
    <g stroke="none" stroke-width="1" fill="none" fill-rule="evenodd">
        <g transform="translate(1.000000, 1.000000)">
            <g stroke="#00C1DE" stroke-width="1.6">
                <rect fill="#FFFFFF" fill-rule="nonzero" x="0.6" y="0.6" width="38.4" height="38.4" rx="8"></rect>
                <rect x="0.6" y="0.6" width="38.4" height="38.4" rx="8"></rect>
            </g>
            <g transform="translate(8.500000, 6.500000)" fill="#00C1DE" fill-rule="nonzero">
                <path d="M21.01,22.01 L20.33,20.99 L22.35,19.81 L22.35,7.69 L16.27,4.15 L16.87,3.14 L23.53,7.01 L23.53,20.49 L21.01,22.01 L21.01,22.01 L21.01,22.01 Z M1.25,15.02 L0.07,15.02 L0.07,7.09 L12.06,0.36 L14.76,1.88 L14.16,2.98 L12.06,1.72 L1.25,7.79 L1.25,15.02 L1.25,15.02 Z M11.8,27.24 L0.07,20.59 L0.07,17.29 L1.25,17.29 L1.25,19.91 L11.8,25.9 L18.65,22.03 L19.25,23.05 L11.8,27.24 L11.8,27.24 L11.8,27.24 Z M11.04,8.19 L8.42,6.67 L8.42,5.75 L11.88,3.73 L15.26,5.75 L15.26,6.67 L12.72,8.19 L12.64,9.11 L11.88,8.61 L11.04,9.11 L11.04,8.19 Z M16.37,14.26 L16.37,11.22 L13.74,9.71 L13.74,8.79 L17.13,6.85 L20.59,8.79 L20.59,12.74 L17.13,14.68 L16.37,14.26 Z M8.42,21.85 L8.42,17.97 L9.18,17.47 L11.8,18.99 L14.5,17.47 L15.26,17.89 L15.26,21.85 L11.8,23.87 L8.42,21.85 L8.42,21.85 Z M16.37,20.33 L16.37,17.29 L15.52,16.8 L16.37,16.38 L16.37,15.46 L17.13,15.96 L19.75,14.44 L20.59,14.86 L20.59,18.81 L17.13,20.75 L16.37,20.33 Z M8.42,15.78 L8.42,11.82 L11.88,9.89 L15.26,11.82 L15.26,15.78 L11.8,17.71 L8.42,15.78 L8.42,15.78 Z M3.01,18.81 L3.09,14.86 L3.85,14.44 L6.47,15.96 L7.31,15.46 L7.31,16.38 L8.16,16.88 L7.31,17.29 L7.31,20.33 L6.47,20.75 L3.01,18.81 Z M3.01,12.74 L3.09,8.79 L6.55,6.85 L9.94,8.79 L9.94,9.71 L7.31,11.22 L7.31,14.18 L6.47,14.68 L3.01,12.74 Z" id="Shape"></path>
            </g>
        </g>
    </g>
</svg>