<svg width="20px" height="20px" viewBox="0 0 41 41" xmlns="http://www.w3.org/2000/svg" xmlns:xlink="http://www.w3.org/1999/xlink">
    <g stroke="none" stroke-width="1" fill="none" fill-rule="evenodd">
        <g transform="translate(1.000000, 1.000000)">
            <g stroke="#00C1DE" stroke-width="1.6">
                <rect fill="#FFFFFF" fill-rule="nonzero" x="0.6" y="0.6" width="38.4" height="38.4" rx="8"></rect>
                <rect x="0.6" y="0.6" width="38.4" height="38.4" rx="8"></rect>
            </g>
            <g transform="translate(6.500000, 7.500000)" fill="#00C1DE" fill-rule="nonzero">
                <path d="M0.36,5.88 L0.36,5.88 L0.36,5.88 L0.36,5.86 L0.36,5.88 L11.9,0.1 L19.07,2.81 L6.6,9.24 L6.6,12.5 L0.38,9.33 L0.36,5.88 L0.36,5.88 L0.36,5.88 Z M1.61,6.49 L5.69,8.59 L16.76,2.94 L12.02,1.16 L1.61,6.49 L1.61,6.49 L1.61,6.49 Z M27.22,5.94 L27.22,9.41 L13.78,16.19 L8.4,13.43 L8.4,9.99 L8.4,9.99 L8.4,9.99 L8.4,9.99 L8.4,9.99 L20.55,3.68 L27.22,5.94 L27.22,5.94 L27.22,5.94 L27.22,5.94 L27.22,5.94 L27.22,5.94 L27.22,5.94 Z M26.01,6.54 L20.68,4.71 L9.57,10.56 L13.78,12.69 L26.01,6.54 L26.01,6.54 L26.01,6.54 Z M8.4,18.2 L8.4,14.73 L13.82,17.48 L27.24,10.7 L27.24,14.2 L13.82,20.95 L8.4,18.2 Z M6.62,17.29 L0.42,14.11 L0.4,10.64 L6.62,13.82 L6.62,17.29 L6.62,17.29 Z M0.36,15.17 L13.78,22.01 L27.2,15.23 L27.2,18.73 L13.78,25.5 L0.4,18.64 L0.36,15.17 Z" id="Shape"></path>
            </g>
        </g>
    </g>
</svg>