<svg width="20px" height="20px" viewBox="0 0 41 41" xmlns="http://www.w3.org/2000/svg" xmlns:xlink="http://www.w3.org/1999/xlink">
    <g stroke="none" stroke-width="1" fill="none" fill-rule="evenodd">
        <g transform="translate(1.000000, 1.000000)">
            <g stroke="#00C1DE" stroke-width="1.6">
                <rect fill="#FFFFFF" fill-rule="nonzero" x="0.6" y="0.6" width="38.4" height="38.4" rx="8"></rect>
                <rect x="0.6" y="0.6" width="38.4" height="38.4" rx="8"></rect>
            </g>
            <g transform="translate(6.500000, 7.500000)" fill="#00C1DE" fill-rule="nonzero">
                <path d="M24.84,25.37 L2.76,25.37 C2.6,25.37 2.47,25.34 2.32,25.32 C2.19,25.3 2.04,25.26 1.91,25.21 C1.78,25.17 1.65,25.1 1.54,25.06 C1.43,24.99 1.3,24.93 1.21,24.84 C1.12,24.75 1.01,24.67 0.93,24.58 C0.84,24.49 0.75,24.38 0.69,24.25 C0.62,24.12 0.56,24.01 0.51,23.9 C0.47,23.79 0.43,23.64 0.4,23.51 C0.38,23.38 0.36,23.22 0.36,23.07 L0.36,20.41 C0.36,19.75 0.6,19.2 1.06,18.77 C1.51,18.33 2.08,18.11 2.76,18.11 L24.84,18.11 C25.17,18.11 25.48,18.18 25.78,18.29 C26.09,18.39 26.33,18.55 26.54,18.77 C26.76,18.96 26.94,19.2 27.04,19.49 C27.17,19.77 27.24,20.08 27.24,20.41 L27.24,23.07 C27.24,23.51 27.13,23.9 26.91,24.25 C26.7,24.6 26.41,24.89 26.04,25.06 C25.69,25.28 25.28,25.37 24.84,25.37 L24.84,25.37 Z M22.19,20.01 L22.19,20.01 C21.71,20.01 21.29,20.19 20.97,20.51 C20.62,20.84 20.47,21.26 20.47,21.74 C20.47,22.22 20.64,22.63 20.97,22.96 C21.29,23.29 21.71,23.46 22.19,23.46 C22.64,23.44 23.04,23.27 23.38,22.94 C23.73,22.61 23.89,22.2 23.89,21.74 C23.89,21.28 23.71,20.86 23.38,20.54 C23.06,20.21 22.64,20.03 22.19,20.01 L22.19,20.01 L22.19,20.01 Z M24.84,16.41 L2.76,16.41 C2.32,16.41 1.93,16.32 1.56,16.12 C1.19,15.93 0.9,15.66 0.69,15.31 C0.47,14.96 0.36,14.57 0.36,14.13 L0.36,11.47 C0.36,10.81 0.6,10.26 1.06,9.83 C1.51,9.39 2.08,9.17 2.76,9.17 L24.84,9.17 C25.52,9.17 26.09,9.39 26.54,9.83 C27,10.26 27.24,10.81 27.24,11.47 L27.24,14.13 C27.24,14.79 27,15.34 26.54,15.77 C26.09,16.19 25.52,16.41 24.84,16.41 L24.84,16.41 Z M22.19,11.07 C21.71,11.07 21.29,11.25 20.97,11.58 C20.62,11.93 20.47,12.32 20.47,12.8 C20.47,13.28 20.64,13.7 20.97,14.02 C21.32,14.37 21.71,14.53 22.19,14.53 C22.67,14.53 23.08,14.35 23.41,14.02 C23.75,13.67 23.91,13.28 23.91,12.8 C23.91,12.32 23.73,11.9 23.41,11.58 C23.06,11.23 22.67,11.07 22.19,11.07 L22.19,11.07 L22.19,11.07 Z M24.84,7.47 L2.76,7.47 C2.32,7.47 1.93,7.38 1.56,7.18 C1.19,6.99 0.9,6.72 0.69,6.38 C0.47,6.03 0.36,5.63 0.36,5.19 L0.36,2.53 C0.36,1.87 0.6,1.33 1.06,0.89 C1.51,0.45 2.08,0.23 2.76,0.23 L24.84,0.23 C25.52,0.23 26.09,0.45 26.54,0.89 C27,1.33 27.24,1.87 27.24,2.53 L27.24,5.19 C27.24,5.85 27,6.4 26.54,6.83 C26.09,7.25 25.52,7.47 24.84,7.47 L24.84,7.47 Z M22.19,2.11 C21.71,2.11 21.29,2.29 20.97,2.62 C20.64,2.94 20.47,3.36 20.47,3.84 C20.47,4.32 20.64,4.74 20.97,5.06 C21.32,5.41 21.71,5.57 22.19,5.57 C22.49,5.57 22.8,5.48 23.06,5.33 C23.32,5.17 23.54,4.95 23.69,4.69 C23.84,4.43 23.93,4.15 23.93,3.82 C23.93,3.34 23.75,2.92 23.43,2.59 C23.06,2.29 22.64,2.11 22.19,2.11 L22.19,2.11 Z" id="Shape"></path>
            </g>
        </g>
    </g>
</svg>