<svg width="20px" height="20px" viewBox="0 0 41 41" xmlns="http://www.w3.org/2000/svg" xmlns:xlink="http://www.w3.org/1999/xlink">
    <g stroke="none" stroke-width="1" fill="none" fill-rule="evenodd">
        <g transform="translate(1.000000, 1.000000)">
            <g stroke="#00C1DE" stroke-width="1.6">
                <rect fill="#FFFFFF" fill-rule="nonzero" x="0.6" y="0.6" width="38.4" height="38.4" rx="8"></rect>
                <rect x="0.6" y="0.6" width="38.4" height="38.4" rx="8"></rect>
            </g>
            <g transform="translate(6.500000, 8.500000)" fill="#00C1DE" fill-rule="nonzero">
                <path d="M17.79,9.25 C17.23,9.25 16.74,9.45 16.35,9.87 C15.95,10.27 15.75,10.78 15.75,11.36 C15.75,11.93 15.95,12.44 16.35,12.84 C16.74,13.24 17.23,13.46 17.79,13.46 C18.34,13.46 18.83,13.26 19.22,12.84 C19.62,12.44 19.82,11.93 19.82,11.36 C19.82,10.78 19.62,10.27 19.22,9.87 C18.83,9.45 18.34,9.25 17.79,9.25 Z M16.72,16.7 L6.01,16.7 L6.01,12.55 L13.71,12.55 L13.71,10.98 L6.01,10.98 L6.01,6.94 L16.66,6.94 C17.3,6.94 17.92,7.08 18.49,7.32 C19.07,7.59 19.58,7.92 20,8.36 C20.42,8.81 20.75,9.32 21,9.92 C21.24,10.51 21.37,11.16 21.37,11.82 C21.37,13.17 20.93,14.33 20.02,15.28 C19.14,16.23 18.03,16.7 16.72,16.7 L16.72,16.7 Z M25.34,11.36 L27.17,11.36 L27.17,7.92 C27.17,7.59 27.11,7.3 26.95,7.01 C26.8,6.72 26.62,6.5 26.38,6.32 L21.7,1.51 C21.35,1.14 20.93,0.94 20.4,0.91 L2.2,0.91 C1.84,0.91 1.53,1 1.27,1.18 C0.98,1.36 0.76,1.58 0.6,1.87 C0.45,2.16 0.36,2.49 0.36,2.82 L0.36,20.67 C0.36,21.02 0.45,21.33 0.6,21.62 C0.76,21.91 1,22.15 1.29,22.31 C1.58,22.49 1.87,22.57 2.2,22.57 L2.86,22.57 L2.86,21.44 L4.3,21.44 L4.3,22.57 L4.9,22.57 L4.9,21.44 L6.34,21.44 L6.34,22.57 L6.94,22.57 L6.94,21.44 L8.38,21.44 L8.38,22.57 L8.97,22.57 L8.97,21.44 L10.41,21.44 L10.41,22.57 L11.01,22.57 L11.01,21.44 L12.45,21.44 L12.45,22.57 L13.05,22.57 L13.05,21.44 L14.49,21.44 L14.49,22.57 L15.08,22.57 L15.08,21.44 L16.52,21.44 L16.52,22.57 L17.12,22.57 L17.12,21.44 L18.56,21.44 L18.56,22.57 L19.16,22.57 L19.16,21.44 L20.6,21.44 L20.6,22.57 L21.2,22.57 L21.2,21.44 L22.63,21.44 L22.63,22.57 L23.23,22.57 L23.23,21.44 L24.67,21.44 L24.67,22.69 L25.4,22.69 C25.93,22.69 26.35,22.51 26.71,22.13 C27.06,21.75 27.24,21.31 27.24,20.78 L27.24,13.13 L25.4,13.13 C25.11,13.13 24.85,13.06 24.63,12.91 C24.41,12.75 24.3,12.55 24.3,12.27 C24.27,12.13 24.3,12.02 24.36,11.91 C24.43,11.8 24.49,11.69 24.61,11.62 C24.72,11.53 24.83,11.49 24.96,11.42 C25.09,11.38 25.23,11.36 25.34,11.36 L25.34,11.36 Z" id="Shape"></path>
            </g>
        </g>
    </g>
</svg>