<svg width="20px" height="20px" viewBox="0 0 41 41" xmlns="http://www.w3.org/2000/svg" xmlns:xlink="http://www.w3.org/1999/xlink">
    <g stroke="none" stroke-width="1" fill="none" fill-rule="evenodd">
        <g transform="translate(1.000000, 1.000000)">
            <g stroke="#00C1DE" stroke-width="1.6">
                <rect fill="#FFFFFF" fill-rule="nonzero" x="0.6" y="0.6" width="38.4" height="38.4" rx="8"></rect>
                <rect x="0.6" y="0.6" width="38.4" height="38.4" rx="8"></rect>
            </g>
            <g transform="translate(6.500000, 8.500000)" fill="#00C1DE" fill-rule="nonzero">
                <path d="M19.61,8.09 C20.79,8.09 21.88,8.31 22.86,8.76 C23.84,9.21 24.65,9.79 25.27,10.51 C25.89,11.24 26.39,12.06 26.73,12.96 C27.07,13.86 27.24,14.8 27.24,15.76 C27.24,17.05 26.94,18.27 26.36,19.43 C25.79,20.58 24.89,21.53 23.69,22.28 C22.5,23.03 21.15,23.41 19.61,23.41 C19.53,23.41 19.4,23.41 19.25,23.41 C19.1,23.41 18.8,23.37 18.37,23.31 C17.95,23.24 17.52,23.13 17.13,23.03 C16.73,22.9 16.3,22.71 15.79,22.43 C15.3,22.15 14.87,21.81 14.51,21.42 L15.59,19.96 C15.62,20.01 15.68,20.07 15.72,20.16 C15.79,20.24 15.94,20.37 16.15,20.56 C16.39,20.76 16.64,20.93 16.92,21.08 C17.2,21.23 17.58,21.36 18.05,21.48 C18.52,21.61 19.03,21.68 19.57,21.68 C21.09,21.68 22.43,21.1 23.65,19.96 C24.87,18.83 25.47,17.41 25.47,15.74 C25.47,14.09 24.91,12.7 23.78,11.54 C22.65,10.39 21.24,9.81 19.55,9.81 C18.67,9.81 17.84,9.94 17.01,10.21 L17.9,12.01 L13.56,11.11 L15.49,7.26 L16.17,8.71 C17.24,8.31 18.37,8.09 19.61,8.09 L19.61,8.09 Z M17.07,18.7 L15.49,17.95 C15.02,19.34 14.1,20.58 12.73,21.7 C11.36,22.81 9.78,23.39 7.99,23.39 C5.83,23.39 4.04,22.68 2.56,21.25 C1.09,19.81 0.36,17.88 0.36,15.46 C0.36,14.52 0.51,13.64 0.81,12.83 C1.11,12.01 1.47,11.35 1.9,10.86 C2.33,10.36 2.75,9.94 3.2,9.57 C3.65,9.21 4.01,8.95 4.29,8.8 C4.57,8.65 4.72,8.59 4.74,8.59 L4.87,9.55 L5.15,10.45 C4.29,10.79 3.57,11.41 2.97,12.29 C2.37,13.17 2.05,14.24 2.05,15.49 C2.05,16.19 2.18,16.88 2.43,17.58 C2.69,18.29 3.03,18.96 3.5,19.58 C3.97,20.2 4.59,20.71 5.36,21.1 C6.13,21.48 7.01,21.68 7.95,21.68 C10.3,21.68 12.26,20.13 13.78,17.05 L12.33,16.36 L16.17,14.37 L17.07,18.7 Z M6.62,14.37 L7.8,13.28 C6.43,11.8 5.72,9.89 5.72,7.56 C5.72,5.65 6.41,3.98 7.75,2.52 C9.23,0.98 11.09,0.19 13.35,0.19 C14.48,0.19 15.51,0.38 16.43,0.74 C17.35,1.11 18.09,1.58 18.63,2.09 C19.16,2.63 19.63,3.21 20,3.85 C20.36,4.47 20.62,5.03 20.77,5.5 C20.92,5.97 20.98,6.36 20.98,6.66 L21.04,7.28 C20.68,7.19 20.36,7.15 20.06,7.13 C19.78,7.11 19.57,7.11 19.48,7.11 C19.38,7.13 19.33,7.13 19.33,7.13 C19.42,6.79 19.42,6.64 19.33,6.64 C19.33,5.61 18.71,4.56 17.45,3.44 C16.21,2.35 14.87,1.79 13.42,1.79 C12.8,1.79 12.2,1.88 11.62,2.05 C11.04,2.22 10.49,2.48 10,2.82 C9.51,3.17 9.08,3.55 8.69,4.02 C8.31,4.47 8.03,5.01 7.82,5.59 C7.6,6.17 7.5,6.79 7.5,7.45 C7.5,8.03 7.54,8.56 7.65,9.06 C7.75,9.55 7.88,10 8.05,10.39 C8.22,10.75 8.39,11.07 8.54,11.33 C8.71,11.59 8.89,11.8 9.06,12.01 L10.3,10.92 L10.85,14.93 L6.62,14.37 Z" id="Shape"></path>
            </g>
        </g>
    </g>
</svg>