<svg width="20px" height="20px" viewBox="0 0 41 41" xmlns="http://www.w3.org/2000/svg" xmlns:xlink="http://www.w3.org/1999/xlink">
    <g stroke="none" stroke-width="1" fill="none" fill-rule="evenodd">
        <g transform="translate(1.000000, 1.000000)">
            <g stroke="#00C1DE" stroke-width="1.6">
                <rect fill="#FFFFFF" fill-rule="nonzero" x="0.6" y="0.6" width="38.4" height="38.4" rx="8"></rect>
                <rect x="0.6" y="0.6" width="38.4" height="38.4" rx="8"></rect>
            </g>
            <g transform="translate(6.500000, 6.500000)" fill="#00C1DE" fill-rule="nonzero">
                <path d="M23.31,24.28 C23.31,24.1 23.36,23.95 23.45,23.79 C23.54,23.64 23.65,23.53 23.8,23.44 C23.96,23.35 24.11,23.31 24.29,23.31 C24.47,23.31 24.62,23.35 24.78,23.44 C24.93,23.53 25.04,23.64 25.13,23.79 C25.22,23.95 25.27,24.1 25.27,24.28 C25.27,24.46 25.22,24.61 25.13,24.77 C25.04,24.92 24.93,25.03 24.78,25.12 C24.62,25.21 24.47,25.25 24.29,25.25 C24.02,25.25 23.78,25.16 23.6,24.97 C23.43,24.79 23.31,24.57 23.31,24.28 L23.31,24.28 Z M27.24,24.28 C27.24,23.46 26.95,22.78 26.38,22.2 C25.8,21.63 25.11,21.34 24.29,21.34 C23.91,21.34 23.56,21.39 23.25,21.5 C22.94,21.61 22.69,21.74 22.47,21.94 C22.25,22.14 22.07,22.38 21.9,22.67 C21.27,22.31 20.9,20.83 20.81,18.23 L20.81,11.8 C21.41,11.6 21.92,11.23 22.29,10.72 C22.67,10.21 22.87,9.61 22.87,8.97 L22.87,8.97 C22.87,8.58 22.78,8.18 22.63,7.8 C22.47,7.43 22.25,7.12 21.98,6.85 C21.72,6.59 21.41,6.37 21.03,6.21 C20.65,6.06 20.28,5.97 19.88,5.97 C19.34,5.97 18.83,6.1 18.39,6.37 C17.93,6.63 17.57,6.99 17.3,7.45 C17.04,7.91 16.93,8.42 16.93,8.95 L16.93,8.95 C16.93,9.22 16.95,9.46 17.02,9.7 C17.08,9.95 17.17,10.17 17.28,10.39 C17.39,10.61 17.55,10.79 17.7,10.96 C17.86,11.14 18.06,11.29 18.26,11.43 C18.46,11.56 18.68,11.67 18.9,11.76 L18.92,18.21 C18.95,18.96 18.97,19.58 18.99,20.02 C19.01,20.46 19.08,20.97 19.17,21.54 C19.26,22.12 19.39,22.58 19.57,22.96 C19.74,23.33 19.99,23.71 20.3,24.08 C20.61,24.46 21.01,24.79 21.45,25.08 C21.54,25.38 21.65,25.67 21.83,25.94 C22.01,26.2 22.23,26.42 22.47,26.62 C22.72,26.8 23,26.95 23.31,27.06 C23.62,27.17 23.96,27.22 24.29,27.22 C25.09,27.22 25.78,26.93 26.35,26.36 C26.95,25.8 27.24,25.1 27.24,24.28 L27.24,24.28 Z M13.53,4.34 C13.33,4.34 13.16,4.29 13,4.2 C12.85,4.11 12.71,3.98 12.62,3.83 C12.54,3.67 12.49,3.5 12.49,3.3 C12.49,3.01 12.6,2.75 12.8,2.55 C13,2.35 13.27,2.24 13.56,2.24 C13.84,2.24 14.09,2.35 14.31,2.55 C14.51,2.75 14.62,3.01 14.62,3.3 C14.62,3.58 14.51,3.85 14.31,4.05 C14.07,4.23 13.82,4.34 13.53,4.34 L13.53,4.34 Z M14.58,21.34 L14.58,6.24 C15.11,6.01 15.57,5.64 15.97,5.11 C16.37,4.58 16.57,4 16.57,3.39 C16.57,2.97 16.48,2.59 16.33,2.22 C16.17,1.84 15.95,1.53 15.69,1.24 C15.42,0.98 15.09,0.76 14.73,0.6 C14.38,0.45 13.98,0.36 13.56,0.36 C12.74,0.36 12.03,0.65 11.45,1.24 C10.87,1.84 10.58,2.55 10.58,3.39 C10.58,3.72 10.63,4.03 10.7,4.34 C10.78,4.62 10.89,4.91 11.07,5.15 C11.23,5.4 11.45,5.62 11.72,5.82 C11.98,6.01 12.29,6.15 12.65,6.26 L12.65,21.36 C11.96,21.56 11.43,21.92 11.09,22.43 C10.76,22.93 10.58,23.53 10.58,24.21 C10.58,25.05 10.87,25.76 11.45,26.36 C12.03,26.95 12.71,27.24 13.53,27.24 C13.73,27.24 13.93,27.22 14.13,27.17 C14.33,27.13 14.51,27.06 14.71,27 C14.89,26.93 15.06,26.82 15.22,26.71 C15.37,26.6 15.53,26.47 15.66,26.33 C15.8,26.2 15.93,26.05 16.04,25.89 C16.15,25.74 16.24,25.56 16.33,25.38 C16.39,25.21 16.46,25.01 16.51,24.81 C16.55,24.61 16.57,24.41 16.57,24.21 C16.57,23.9 16.51,23.6 16.39,23.29 C16.28,22.98 16.13,22.71 15.93,22.47 C15.73,22.23 15.53,22.01 15.31,21.83 C15.06,21.61 14.84,21.45 14.58,21.34 L14.58,21.34 Z M3.35,25.27 C3.18,25.27 3.02,25.23 2.87,25.14 C2.71,25.05 2.6,24.94 2.51,24.79 C2.42,24.63 2.38,24.48 2.38,24.3 C2.38,24.17 2.4,24.04 2.44,23.93 C2.49,23.82 2.56,23.71 2.64,23.62 C2.73,23.53 2.84,23.46 2.95,23.42 C3.07,23.37 3.2,23.33 3.33,23.33 C3.6,23.33 3.84,23.42 4.02,23.62 C4.22,23.82 4.31,24.04 4.31,24.3 C4.31,24.48 4.26,24.63 4.17,24.79 C4.09,24.94 3.98,25.05 3.82,25.14 C3.69,25.23 3.53,25.27 3.35,25.27 L3.35,25.27 Z M3.33,27.24 C4.02,27.24 4.62,27.04 5.13,26.64 C5.64,26.25 5.99,25.74 6.15,25.1 C6.61,24.81 6.99,24.48 7.3,24.1 C7.61,23.73 7.86,23.35 8.03,22.98 C8.21,22.6 8.34,22.14 8.43,21.56 C8.52,20.99 8.59,20.48 8.61,20.04 C8.63,19.6 8.65,18.98 8.68,18.23 L8.68,11.78 C9.28,11.56 9.76,11.2 10.14,10.7 C10.52,10.19 10.7,9.61 10.7,8.97 L10.7,8.97 C10.7,8.16 10.41,7.45 9.83,6.85 C9.25,6.26 8.54,5.97 7.72,5.97 C7.19,5.97 6.68,6.1 6.24,6.37 C5.77,6.63 5.42,6.99 5.15,7.45 C4.88,7.91 4.75,8.4 4.75,8.95 C4.75,9.39 4.84,9.79 5.02,10.19 C5.19,10.59 5.44,10.92 5.75,11.18 C6.06,11.45 6.41,11.67 6.81,11.8 L6.81,18.23 C6.73,20.83 6.37,22.31 5.73,22.67 C5.22,21.78 4.42,21.36 3.33,21.36 C3.02,21.36 2.71,21.41 2.4,21.52 C2.11,21.61 1.82,21.76 1.58,21.94 C1.34,22.12 1.14,22.34 0.94,22.58 C0.76,22.82 0.6,23.09 0.52,23.4 C0.43,23.71 0.36,24.02 0.36,24.32 C0.36,25.14 0.65,25.83 1.22,26.4 C1.8,26.97 2.51,27.24 3.33,27.24 L3.33,27.24 Z" id="Shape"></path>
            </g>
        </g>
    </g>
</svg>