<svg width="20px" height="20px" viewBox="0 0 41 41" xmlns="http://www.w3.org/2000/svg" xmlns:xlink="http://www.w3.org/1999/xlink">
    <g stroke="none" stroke-width="1" fill="none" fill-rule="evenodd">
        <g transform="translate(1.000000, 1.000000)">
            <g stroke="#00C1DE" stroke-width="1.6">
                <rect fill="#FFFFFF" fill-rule="nonzero" x="0.6" y="0.6" width="38.4" height="38.4" rx="8"></rect>
                <rect x="0.6" y="0.6" width="38.4" height="38.4" rx="8"></rect>
            </g>
            <g transform="translate(6.500000, 6.500000)" fill="#00C1DE" fill-rule="nonzero">
                <path d="M4.89,4.89 L4.89,10.13 L3.13,11.07 L3.13,3.13 L11.02,3.13 L10.08,4.89 L4.89,4.89 L4.89,4.89 Z M4.89,22.71 L10.08,22.71 L11.02,24.47 L3.13,24.47 L3.13,16.57 L4.89,17.53 L4.89,22.71 L4.89,22.71 Z M22.69,22.71 L22.69,17.49 L24.45,16.55 L24.45,24.47 L16.54,24.47 L17.48,22.71 L22.69,22.71 L22.69,22.71 Z M22.69,4.89 L17.48,4.89 L16.54,3.13 L24.45,3.13 L24.45,11.01 L22.69,10.07 L22.69,4.89 L22.69,4.89 Z M14.53,7.11 C14.3,6.99 14.06,6.93 13.79,6.93 C13.69,6.93 13.56,6.95 13.42,6.99 C13.28,7.03 13.15,7.07 13.07,7.11 L9.18,9.16 L13.79,0.36 L18.42,9.16 L14.53,7.11 L14.53,7.11 L14.53,7.11 Z M14.53,20.49 L18.42,18.44 L13.79,27.24 L9.16,18.44 L13.05,20.49 C13.54,20.74 14.04,20.74 14.53,20.49 L14.53,20.49 L14.53,20.49 Z M20.47,14.54 C20.6,14.31 20.66,14.07 20.66,13.8 C20.66,13.76 20.66,13.72 20.66,13.66 C20.66,13.62 20.64,13.55 20.64,13.49 C20.62,13.43 20.62,13.39 20.6,13.33 C20.58,13.27 20.58,13.23 20.56,13.18 C20.54,13.14 20.51,13.1 20.49,13.06 L18.44,9.16 L27.24,13.8 L18.44,18.44 L20.47,14.54 L20.47,14.54 Z M7.11,13.06 C6.98,13.29 6.92,13.53 6.92,13.8 C6.92,14.05 6.98,14.29 7.11,14.52 L9.16,18.42 L0.36,13.8 L9.16,9.16 L7.11,13.06 L7.11,13.06 L7.11,13.06 Z" id="Shape"></path>
            </g>
        </g>
    </g>
</svg>