<svg width="20px" height="20px" viewBox="0 0 41 41" xmlns="http://www.w3.org/2000/svg" xmlns:xlink="http://www.w3.org/1999/xlink">
    <g stroke="none" stroke-width="1" fill="none" fill-rule="evenodd">
        <g transform="translate(1.000000, 1.000000)">
            <g stroke="#00C1DE" stroke-width="1.6">
                <rect fill="#FFFFFF" fill-rule="nonzero" x="0.6" y="0.6" width="38.4" height="38.4" rx="8"></rect>
                <rect x="0.6" y="0.6" width="38.4" height="38.4" rx="8"></rect>
            </g>
            <g transform="translate(6.500000, 9.500000)" fill="#00C1DE" fill-rule="nonzero">
                <path d="M13.74,2.2 L10.69,3.24 L8.73,2.1 L13.78,0.29 L18.87,2.14 L16.93,3.24 L13.74,2.2 L13.74,2.2 Z M13.78,8.2 L16.83,7.16 L18.81,8.3 L13.74,10.11 L8.65,8.26 L10.59,7.16 L13.78,8.2 Z M9.13,6.65 L7.05,7.66 L0.42,5.19 L7.19,2.7 L9.17,3.86 L5.49,5.19 L9.13,6.65 L9.13,6.65 Z M22.17,5.19 L18.49,3.86 L20.45,2.7 L27.22,5.19 L20.57,7.64 L18.49,6.63 L22.17,5.19 Z M13.78,13.96 L0.38,8.74 L0.36,6.09 L13.78,11.31 L27.2,6.15 L27.2,8.82 L13.78,13.96 Z M13.82,14.97 L27.24,9.81 L27.24,12.48 L13.82,17.62 L0.42,12.4 L0.4,9.75 L13.82,14.97 Z M0.4,13.44 L13.82,18.66 L27.24,13.5 L27.24,16.17 L13.82,21.31 L0.42,16.09 L0.4,13.44 L0.4,13.44 Z" id="Shape"></path>
            </g>
        </g>
    </g>
</svg>