<svg width="20px" height="20px" viewBox="0 0 41 41" xmlns="http://www.w3.org/2000/svg" xmlns:xlink="http://www.w3.org/1999/xlink">
    <g stroke="none" stroke-width="1" fill="none" fill-rule="evenodd">
        <g transform="translate(1.000000, 1.000000)">
            <g stroke="#00C1DE" stroke-width="1.6">
                <rect fill="#FFFFFF" fill-rule="nonzero" x="0.6" y="0.6" width="38.4" height="38.4" rx="8"></rect>
                <rect x="0.6" y="0.6" width="38.4" height="38.4" rx="8"></rect>
            </g>
            <g transform="translate(6.500000, 6.500000)" fill="#00C1DE" fill-rule="nonzero">
                <path d="M26.8,20.02 L13.8,27.24 L0.8,19.99 L3.53,18.48 L13.87,24.27 L24.13,18.52 L26.8,20.02 L26.8,20.02 L26.8,20.02 Z M20.29,11.79 L26.8,15.42 L13.8,22.64 L0.8,15.42 L7.11,11.9 L7.11,13.14 L3.05,15.42 L13.8,21.43 L24.57,15.42 L20.29,13.03 L20.29,11.79 L20.29,11.79 Z M13.8,3.96 C13.08,3.96 12.39,3.92 11.74,3.81 C11.09,3.72 10.52,3.59 10.04,3.42 C9.57,3.27 9.2,3.07 8.92,2.85 C8.63,2.64 8.5,2.4 8.5,2.16 C8.5,2.05 8.53,1.97 8.57,1.88 C8.61,1.79 8.68,1.68 8.76,1.6 C8.85,1.51 8.96,1.42 9.09,1.34 C9.22,1.25 9.37,1.18 9.52,1.1 C9.68,1.03 9.87,0.95 10.07,0.88 C10.26,0.82 10.48,0.75 10.7,0.71 C10.91,0.66 11.15,0.6 11.39,0.56 C11.63,0.51 11.89,0.47 12.15,0.45 C12.41,0.43 12.69,0.4 12.98,0.38 C13.26,0.36 13.54,0.36 13.84,0.36 C15.32,0.36 16.58,0.53 17.62,0.88 C18.66,1.23 19.18,1.66 19.18,2.16 C19.18,2.49 18.94,2.79 18.47,3.07 C17.99,3.35 17.34,3.57 16.54,3.72 C15.67,3.9 14.78,3.96 13.8,3.96 L13.8,3.96 Z M19.12,2.77 L19.12,6.8 C19.12,7.3 18.6,7.71 17.56,8.08 C16.51,8.43 15.25,8.6 13.78,8.6 C12.8,8.6 11.91,8.52 11.11,8.37 C10.28,8.21 9.63,8 9.18,7.71 C8.7,7.43 8.46,7.13 8.46,6.8 L8.46,2.77 L8.46,2.79 C8.46,3.29 8.98,3.7 10.02,4.07 C11.06,4.42 12.32,4.59 13.8,4.59 C14.39,4.59 14.95,4.57 15.49,4.5 C16.04,4.44 16.54,4.35 16.97,4.24 C17.4,4.13 17.79,4 18.12,3.85 C18.45,3.7 18.71,3.55 18.88,3.35 C19.03,3.16 19.12,2.99 19.12,2.77 L19.12,2.77 L19.12,2.77 Z M19.12,7.5 L19.12,11.53 C19.12,12.03 18.6,12.44 17.56,12.81 C16.51,13.16 15.25,13.33 13.78,13.33 C12.3,13.33 11.04,13.16 10,12.81 C8.96,12.47 8.44,12.03 8.44,11.53 L8.44,7.5 L8.44,7.52 C8.44,8.02 8.96,8.43 10,8.8 C11.04,9.17 12.3,9.32 13.78,9.32 C14.76,9.32 15.65,9.23 16.45,9.08 C17.27,8.93 17.92,8.71 18.38,8.43 C18.84,8.15 19.12,7.84 19.12,7.5 L19.12,7.5 L19.12,7.5 L19.12,7.5 Z M19.12,12.21 L19.12,16.24 C19.12,16.74 18.6,17.15 17.56,17.52 C16.51,17.87 15.25,18.04 13.78,18.04 C12.8,18.04 11.91,17.95 11.11,17.8 C10.28,17.65 9.63,17.43 9.18,17.15 C8.7,16.87 8.46,16.57 8.46,16.24 L8.46,12.21 L8.46,12.23 C8.46,12.73 8.98,13.14 10.02,13.51 C11.06,13.85 12.32,14.03 13.8,14.03 C14.78,14.03 15.67,13.94 16.47,13.79 C17.29,13.64 17.95,13.42 18.4,13.14 C18.88,12.86 19.12,12.55 19.12,12.21 L19.12,12.21 L19.12,12.21 L19.12,12.21 Z" id="Shape"></path>
            </g>
        </g>
    </g>
</svg>