<svg width="20px" height="20px" viewBox="0 0 41 41" xmlns="http://www.w3.org/2000/svg" xmlns:xlink="http://www.w3.org/1999/xlink">
    <g stroke="none" stroke-width="1" fill="none" fill-rule="evenodd">
        <g transform="translate(1.000000, 1.000000)">
            <g stroke="#00C1DE" stroke-width="1.6">
                <rect fill="#FFFFFF" fill-rule="nonzero" x="0.6" y="0.6" width="38.4" height="38.4" rx="8"></rect>
                <rect x="0.6" y="0.6" width="38.4" height="38.4" rx="8"></rect>
            </g>
            <g transform="translate(6.500000, 8.500000)" fill="#00C1DE" fill-rule="nonzero">
                <path d="M27.24,13.47 C27.24,11.65 26.88,9.92 26.17,8.28 C25.46,6.63 24.5,5.2 23.3,4.01 C22.1,2.81 20.66,1.85 19.01,1.15 C17.36,0.44 15.62,0.08 13.8,0.08 C10.46,0.08 7.54,1.17 4.99,3.37 C2.57,5.48 1.09,8.09 0.55,11.22 C0.42,11.97 0.36,12.72 0.36,13.47 C0.36,14.47 0.51,15.54 0.79,16.65 C0.79,16.94 0.87,17.22 1.05,17.48 C1.22,17.73 1.43,17.95 1.69,18.1 C1.95,18.25 2.22,18.31 2.55,18.31 C3,18.31 3.38,18.16 3.7,17.88 C4.03,17.61 4.22,17.24 4.3,16.82 C5.03,18.8 6.25,20.42 7.99,21.66 C9.73,22.9 11.68,23.52 13.89,23.52 C15.88,23.52 17.7,22.99 19.35,21.94 C21,20.89 22.22,19.49 23.04,17.76 C23.12,18.18 23.32,18.52 23.64,18.78 C23.96,19.04 24.35,19.16 24.8,19.16 C25.5,19.16 26.04,18.87 26.38,18.25 C26.96,16.67 27.24,15.07 27.24,13.47 L27.24,13.47 Z M20.34,14.38 C20.08,15.96 19.33,17.29 18.11,18.33 C16.87,19.38 15.43,19.89 13.8,19.89 C12.09,19.89 10.58,19.31 9.32,18.18 C8.06,17.03 7.37,15.64 7.24,13.96 C8.27,13.61 9.3,13.36 10.35,13.21 C10.37,12.61 10.54,12.06 10.86,11.57 C11.18,11.07 11.59,10.67 12.11,10.39 C12.62,10.11 13.18,9.96 13.8,9.96 C14.76,9.96 15.58,10.31 16.24,10.97 C16.91,11.63 17.25,12.44 17.25,13.4 C17.51,13.49 17.77,13.57 18.02,13.64 C18.28,13.72 18.56,13.81 18.86,13.91 C19.16,14 19.39,14.08 19.57,14.15 C19.76,14.19 20.02,14.28 20.34,14.38 C20.34,14.32 20.34,14.25 20.36,14.19 C20.36,14.11 20.38,14.04 20.38,13.96 C20.38,13.87 20.4,13.81 20.4,13.72 C20.4,13.64 20.42,13.55 20.42,13.47 C20.42,12.57 20.25,11.69 19.91,10.88 C19.57,10.07 19.09,9.37 18.49,8.77 C17.89,8.17 17.21,7.72 16.37,7.36 C15.56,7.02 14.68,6.85 13.78,6.85 C13.76,6.85 13.76,6.85 13.74,6.85 C12.54,6.85 11.44,7.15 10.43,7.72 C9.43,8.3 8.61,9.11 8.03,10.11 C7.46,11.12 7.16,12.23 7.16,13.4 C7.16,13.42 7.16,13.42 7.16,13.44 L7.16,13.87 C5.76,14.36 4.65,14.83 3.79,15.3 L3.79,15.47 L3.7,15.39 C3.6,14.49 3.53,13.85 3.53,13.47 C3.53,13.47 3.53,13.44 3.53,13.44 C3.53,11.61 3.98,9.92 4.88,8.38 C5.78,6.85 7.03,5.61 8.57,4.71 C10.13,3.82 11.83,3.37 13.65,3.37 L13.67,3.37 L13.69,3.37 C15.06,3.37 16.37,3.62 17.64,4.16 C18.88,4.69 19.97,5.42 20.87,6.31 C21.77,7.21 22.5,8.3 23.04,9.54 C23.57,10.78 23.83,12.1 23.83,13.47 L23.83,13.49 C23.83,14.53 23.72,15.41 23.49,16.15 C22.42,15.41 21.35,14.83 20.34,14.38 L20.34,14.38 Z M14.72,13.14 L11.96,13.14 C11.74,13.14 11.57,13.17 11.46,13.23 L11.29,13.23 C11.08,13.23 10.91,13.25 10.8,13.32 L10.46,13.32 L10.46,13.49 C10.46,14.45 10.8,15.26 11.46,15.92 C12.13,16.58 12.94,16.92 13.91,16.92 C14.87,16.92 15.69,16.58 16.35,15.92 C17.02,15.26 17.36,14.45 17.36,13.49 C16.59,13.34 15.73,13.23 14.72,13.14 L14.72,13.14 Z" id="Shape"></path>
            </g>
        </g>
    </g>
</svg>