<svg width="20px" height="20px" viewBox="0 0 41 41" xmlns="http://www.w3.org/2000/svg" xmlns:xlink="http://www.w3.org/1999/xlink">
    <g stroke="none" stroke-width="1" fill="none" fill-rule="evenodd">
        <g transform="translate(1.000000, 1.000000)">
            <g stroke="#00C1DE" stroke-width="1.6">
                <rect fill="#FFFFFF" fill-rule="nonzero" x="0.6" y="0.6" width="38.4" height="38.4" rx="8"></rect>
                <rect x="0.6" y="0.6" width="38.4" height="38.4" rx="8"></rect>
            </g>
            <g transform="translate(6.500000, 6.500000)" fill="#00C1DE" fill-rule="nonzero">
                <path d="M24.3,24.79 C23.51,25.24 22.68,25.35 21.8,25.1 C20.93,24.85 20.26,24.33 19.8,23.54 C19.34,22.75 19.24,21.92 19.49,21.04 C19.74,20.17 20.26,19.51 21.05,19.05 C21.84,18.59 22.68,18.49 23.55,18.74 C24.43,18.99 25.09,19.51 25.55,20.3 C25.78,20.69 25.91,21.09 25.97,21.52 C26.01,21.96 25.99,22.38 25.86,22.77 C25.76,23.17 25.55,23.54 25.28,23.89 C25.03,24.27 24.7,24.56 24.3,24.79 Z M24.3,20.96 C24.05,20.5 23.68,20.21 23.18,20.07 C22.68,19.92 22.2,19.96 21.74,20.21 C21.28,20.46 20.99,20.84 20.84,21.34 C20.7,21.83 20.74,22.31 20.99,22.77 C21.24,23.23 21.61,23.52 22.11,23.66 C22.61,23.81 23.09,23.77 23.55,23.52 C24.01,23.27 24.3,22.89 24.45,22.4 C24.61,21.9 24.55,21.42 24.3,20.96 L24.3,20.96 Z M13.15,5.12 C12.76,5.33 12.34,5.43 11.92,5.43 C11.51,5.43 11.11,5.33 10.74,5.1 C10.36,4.87 10.05,4.58 9.84,4.21 C9.51,3.62 9.42,3 9.61,2.36 C9.8,1.71 10.17,1.21 10.76,0.88 C11.17,0.67 11.57,0.57 11.99,0.57 C12.4,0.57 12.8,0.67 13.17,0.9 C13.55,1.13 13.86,1.42 14.07,1.79 C14.4,2.42 14.49,3.06 14.3,3.71 C14.13,4.35 13.74,4.81 13.15,5.12 L13.15,5.12 L13.15,5.12 Z M12.82,2.54 C12.74,2.38 12.61,2.25 12.47,2.15 C12.3,2.04 12.13,2 11.97,2 C11.8,2 11.63,2.04 11.49,2.11 C11.24,2.23 11.07,2.44 11.01,2.71 C10.95,2.98 10.95,3.23 11.07,3.44 C11.2,3.69 11.4,3.85 11.67,3.92 C11.95,4 12.2,3.98 12.4,3.83 C12.55,3.77 12.67,3.69 12.76,3.58 C12.86,3.48 12.92,3.37 12.95,3.25 C12.99,3.13 12.99,3 12.97,2.88 C12.97,2.79 12.9,2.67 12.82,2.54 L12.82,2.54 L12.82,2.54 Z M4.51,15.24 C4.05,15.47 3.57,15.6 3.11,15.6 C2.65,15.6 2.21,15.47 1.8,15.22 C1.38,14.97 1.07,14.66 0.84,14.25 C0.46,13.58 0.36,12.9 0.57,12.17 C0.78,11.44 1.19,10.88 1.84,10.53 C2.51,10.15 3.21,10.07 3.92,10.28 C4.63,10.48 5.19,10.9 5.57,11.52 C5.78,11.98 5.88,12.46 5.88,12.92 C5.88,13.37 5.76,13.83 5.51,14.25 C5.28,14.66 4.94,15 4.51,15.24 L4.51,15.24 Z M4.26,12.25 C4.09,11.96 3.82,11.75 3.49,11.67 C3.13,11.57 2.82,11.61 2.53,11.75 C2.34,11.86 2.17,12.02 2.07,12.23 C1.94,12.44 1.88,12.65 1.88,12.87 C1.88,13.1 1.92,13.31 2.03,13.52 C2.19,13.81 2.46,14.02 2.8,14.1 C3.13,14.18 3.46,14.16 3.76,14.02 C4.09,13.85 4.32,13.58 4.4,13.25 C4.49,12.92 4.46,12.54 4.26,12.25 L4.26,12.25 Z M10.82,26.62 C10.24,26.95 9.61,27.03 8.97,26.84 C8.32,26.66 7.82,26.28 7.49,25.7 C7.15,25.12 7.07,24.5 7.26,23.85 C7.44,23.21 7.82,22.71 8.4,22.38 C9.24,21.9 10.07,21.92 10.88,22.42 C11.24,22.62 11.53,22.92 11.72,23.29 C12.05,23.87 12.13,24.5 11.95,25.14 C11.8,25.78 11.4,26.28 10.82,26.62 L10.82,26.62 L10.82,26.62 Z M19.57,14.75 L21.24,17.74 C21.13,17.78 21.05,17.8 20.99,17.82 C20.93,17.84 20.84,17.88 20.76,17.93 C20.66,17.97 20.57,18.01 20.51,18.07 C20.45,18.09 20.36,18.16 20.26,18.24 C20.16,18.32 20.07,18.38 20.01,18.4 L18.57,15.83 L16.4,18.16 L19.07,19.32 C18.74,19.88 18.55,20.3 18.49,20.57 L15.4,19.24 L12.74,22.15 C12.55,21.92 12.38,21.73 12.2,21.59 C12.01,21.44 11.84,21.31 11.65,21.25 L13.99,18.67 L11.07,17.34 L10.65,20.75 C10.42,20.67 10.22,20.63 10.01,20.61 C9.8,20.59 9.55,20.59 9.24,20.59 L9.74,16.68 L6.15,15.1 C6.49,14.54 6.67,14.1 6.74,13.77 L9.9,15.18 L10.24,12.02 L6.82,12.69 C6.82,12.52 6.82,12.36 6.8,12.21 C6.78,12.06 6.76,11.9 6.72,11.75 C6.67,11.61 6.63,11.44 6.57,11.27 L10.4,10.44 L10.82,6.53 C11.15,6.64 11.63,6.7 12.24,6.7 L11.82,10.11 L14.99,9.44 L13.24,6.45 C13.47,6.35 13.65,6.26 13.82,6.2 C14.15,5.97 14.38,5.81 14.49,5.7 L16.49,9.2 L20.49,8.36 C20.49,8.53 20.49,8.7 20.51,8.84 C20.53,8.99 20.57,9.13 20.61,9.3 C20.66,9.44 20.74,9.61 20.8,9.78 L17.22,10.53 L18.8,13.27 L21.3,10.61 C21.66,11.05 22.03,11.38 22.38,11.61 L19.57,14.75 Z M15.82,11 L11.74,11.84 L11.32,15.91 L15.07,17.57 L17.9,14.58 L15.82,11 Z M25.72,10.75 C25.05,11.13 24.36,11.21 23.64,11 C22.93,10.8 22.38,10.38 22.05,9.76 C21.86,9.42 21.76,9.09 21.72,8.72 C21.68,8.34 21.7,8.01 21.8,7.68 C21.88,7.35 22.05,7.05 22.26,6.76 C22.47,6.49 22.74,6.26 23.05,6.1 C23.72,5.72 24.41,5.64 25.14,5.85 C25.84,6.06 26.39,6.47 26.72,7.1 C27.14,7.72 27.24,8.38 27.03,9.11 C26.84,9.84 26.41,10.38 25.72,10.75 L25.72,10.75 Z" id="Shape"></path>
            </g>
        </g>
    </g>
</svg>