<svg width="20px" height="20px" viewBox="0 0 41 41" xmlns="http://www.w3.org/2000/svg" xmlns:xlink="http://www.w3.org/1999/xlink">
    <g stroke="none" stroke-width="1" fill="none" fill-rule="evenodd">
        <g transform="translate(1.000000, 1.000000)">
            <g stroke="#00C1DE" stroke-width="1.6">
                <rect fill="#FFFFFF" fill-rule="nonzero" x="0.6" y="0.6" width="38.4" height="38.4" rx="8"></rect>
                <rect x="0.6" y="0.6" width="38.4" height="38.4" rx="8"></rect>
            </g>
            <g transform="translate(6.500000, 8.500000)" fill="#00C1DE" fill-rule="nonzero">
                <path d="M27.24,13.48 C27.24,11.67 26.89,9.92 26.18,8.26 C25.47,6.6 24.5,5.16 23.31,3.97 C22.11,2.77 20.67,1.8 19.02,1.09 C17.36,0.38 15.61,0.03 13.8,0.03 C11.99,0.03 10.24,0.38 8.58,1.09 C6.93,1.8 5.49,2.77 4.29,3.97 C3.1,5.16 2.13,6.6 1.42,8.26 C0.71,9.92 0.36,11.67 0.36,13.48 C0.36,13.84 0.38,14.19 0.4,14.57 C0.43,14.94 0.49,15.3 0.56,15.63 C0.63,15.96 0.69,16.31 0.78,16.67 C0.78,16.98 0.87,17.27 1.02,17.51 C1.2,17.78 1.42,17.97 1.66,18.13 C1.93,18.28 2.22,18.35 2.53,18.35 C2.97,18.35 3.37,18.22 3.68,17.93 C3.99,17.64 4.21,17.29 4.29,16.85 C5.02,18.86 6.24,20.48 7.99,21.71 C9.73,22.95 11.68,23.57 13.89,23.57 C15.88,23.57 17.71,23.04 19.35,21.98 C21.01,20.92 22.22,19.52 23.04,17.78 C23.13,18.2 23.33,18.55 23.64,18.82 C23.95,19.08 24.34,19.21 24.81,19.21 C25.52,19.21 26.05,18.9 26.4,18.28 C26.97,16.69 27.24,15.1 27.24,13.48 L27.24,13.48 Z M20.37,14.41 C20.12,16 19.37,17.33 18.13,18.4 C16.89,19.46 15.46,19.97 13.82,19.97 C12.69,19.97 11.63,19.7 10.66,19.17 C9.69,18.64 8.89,17.93 8.3,17 C7.7,16.09 7.35,15.08 7.26,13.97 C8.3,13.61 9.33,13.37 10.37,13.22 C10.42,12.29 10.77,11.51 11.43,10.89 C12.1,10.25 12.89,9.94 13.82,9.94 C14.79,9.94 15.61,10.27 16.28,10.94 C16.94,11.6 17.27,12.42 17.27,13.39 C17.45,13.44 17.62,13.5 17.8,13.55 C17.98,13.61 18.15,13.66 18.35,13.73 C18.53,13.79 18.71,13.84 18.86,13.88 C19.02,13.92 19.19,13.99 19.39,14.06 C19.59,14.12 19.77,14.19 19.88,14.21 C19.97,14.28 20.12,14.32 20.37,14.41 C20.37,14.35 20.37,14.26 20.39,14.15 C20.41,14.04 20.41,13.92 20.43,13.81 C20.45,13.7 20.45,13.59 20.45,13.5 C20.45,12.29 20.17,11.18 19.57,10.16 C18.97,9.14 18.18,8.35 17.16,7.75 C16.14,7.15 15.02,6.86 13.82,6.86 C13.8,6.86 13.8,6.86 13.78,6.86 C11.97,6.86 10.4,7.51 9.11,8.79 C7.83,10.07 7.19,11.65 7.19,13.46 C7.19,13.48 7.19,13.48 7.19,13.5 L7.19,13.92 C5.8,14.43 4.67,14.9 3.83,15.36 L3.83,15.54 L3.74,15.45 C3.63,14.57 3.57,13.9 3.57,13.53 C3.57,13.53 3.57,13.5 3.57,13.5 C3.57,12.13 3.83,10.8 4.36,9.56 C4.89,8.33 5.62,7.22 6.53,6.31 C7.43,5.4 8.52,4.67 9.78,4.14 C11.04,3.61 12.34,3.35 13.71,3.35 L13.73,3.35 L13.76,3.35 C15.13,3.35 16.45,3.61 17.69,4.14 C18.95,4.67 20.03,5.4 20.94,6.31 C21.85,7.22 22.58,8.3 23.11,9.56 C23.64,10.83 23.9,12.13 23.9,13.5 L23.9,13.53 C23.9,13.86 23.9,14.17 23.88,14.46 C23.86,14.74 23.81,15.05 23.77,15.36 C23.73,15.67 23.66,15.96 23.57,16.23 C22.42,15.43 21.36,14.83 20.37,14.41 L20.37,14.41 Z M14.73,13.15 L11.94,13.15 C11.72,13.15 11.55,13.17 11.43,13.24 L11.26,13.24 C11.19,13.24 11.13,13.24 11.08,13.24 C11.04,13.24 10.99,13.24 10.93,13.26 C10.86,13.28 10.82,13.28 10.75,13.33 L10.42,13.33 L10.42,13.5 C10.42,14.48 10.75,15.3 11.41,15.96 C12.08,16.62 12.89,16.96 13.87,16.96 C14.84,16.96 15.66,16.62 16.32,15.96 C16.98,15.3 17.31,14.48 17.31,13.5 C16.61,13.35 15.72,13.24 14.73,13.15 L14.73,13.15 Z" id="Shape"></path>
            </g>
        </g>
    </g>
</svg>