<svg width="20px" height="20px" viewBox="0 0 41 41" xmlns="http://www.w3.org/2000/svg" xmlns:xlink="http://www.w3.org/1999/xlink">
    <g stroke="none" stroke-width="1" fill="none" fill-rule="evenodd">
        <g transform="translate(1.000000, 1.000000)">
            <g stroke="#00C1DE" stroke-width="1.6">
                <rect fill="#FFFFFF" fill-rule="nonzero" x="0.6" y="0.6" width="38.4" height="38.4" rx="8"></rect>
                <rect x="0.6" y="0.6" width="38.4" height="38.4" rx="8"></rect>
            </g>
            <g transform="translate(6.500000, 6.500000)" fill="#00C1DE" fill-rule="nonzero">
                <path d="M24.61,21.13 C24.38,21.13 24.23,21.15 24.16,21.2 L24.16,20.86 C24.18,20.35 24.03,19.88 23.67,19.47 C23.31,19.07 22.87,18.82 22.33,18.76 C22.2,18.76 22.04,18.78 21.91,18.82 C21.77,18.87 21.64,18.91 21.51,18.98 C21.4,19.05 21.28,19.14 21.17,19.23 C21.06,19.32 20.97,19.43 20.88,19.54 C20.26,18.65 19.41,18.18 18.34,18.11 C17.45,18.11 16.71,18.47 16.06,19.16 C15.44,19.85 15.1,20.7 15.06,21.71 C14.5,21.91 14.06,22.25 13.72,22.72 C13.39,23.19 13.23,23.73 13.23,24.33 C13.21,25.02 13.41,25.65 13.88,26.17 C14.35,26.7 14.93,26.97 15.64,27.02 L24.59,27.02 C25.34,26.95 25.97,26.64 26.48,26.05 C26.99,25.47 27.24,24.82 27.2,24.06 C27.22,23.57 27.13,23.1 26.91,22.67 C26.68,22.25 26.37,21.89 25.97,21.6 C25.57,21.31 25.12,21.17 24.61,21.13 L24.61,21.13 Z M16.96,15.83 C17.2,15.8 17.45,15.78 17.69,15.76 C17.94,15.74 18.18,15.76 18.41,15.78 C18.65,15.8 18.9,15.83 19.12,15.89 C19.34,15.96 19.59,16 19.81,16.09 C19.83,16.12 19.83,15.71 19.83,14.91 C19.83,14.1 19.83,13.07 19.81,11.89 C19.81,10.68 19.79,9.49 19.79,8.31 C19.79,7.12 19.77,6.11 19.77,5.24 C19.77,4.39 19.74,3.96 19.74,3.99 C19.72,3.02 19.48,2.22 19.03,1.57 C18.58,0.92 18.05,0.58 17.4,0.58 L10.31,0.58 C9.66,0.58 9.13,0.92 8.68,1.59 C8.23,2.26 8.03,3.09 8.03,4.05 L8.03,23.5 C8.03,24.44 8.26,25.27 8.7,25.94 C9.15,26.64 9.68,26.97 10.31,26.97 L11.42,26.97 C11.34,26.97 11.22,26.81 11.09,26.5 C10.96,26.19 10.84,25.83 10.73,25.38 C10.62,24.96 10.58,24.58 10.58,24.26 C10.58,23.57 10.78,22.92 11.18,22.34 C11.58,21.76 12.09,21.35 12.74,21.13 C12.74,20.55 12.87,19.94 13.12,19.32 C13.37,18.69 13.7,18.13 14.1,17.64 C14.5,17.15 14.95,16.74 15.46,16.41 C15.97,16.07 16.47,15.87 16.96,15.83 L16.96,15.83 Z M9.84,5.08 C9.84,4.66 9.93,4.3 10.13,3.99 C10.33,3.67 10.55,3.52 10.82,3.52 L16.89,3.52 C17.07,3.52 17.22,3.58 17.38,3.74 C17.54,3.9 17.65,4.08 17.74,4.32 C17.83,4.57 17.87,4.81 17.87,5.1 L17.87,8.91 L9.84,8.91 L9.84,5.08 L9.84,5.08 Z M10.82,15.22 C10.53,15.22 10.31,15.06 10.11,14.77 C9.93,14.46 9.84,14.1 9.84,13.65 L9.84,9.85 L17.87,9.85 L17.87,13.65 C17.87,13.92 17.83,14.19 17.74,14.44 C17.65,14.68 17.54,14.86 17.38,15.02 C17.22,15.15 17.07,15.24 16.89,15.24 L10.82,15.24 L10.82,15.22 Z M5.4,23.68 L5.4,3.9 C5.54,3.05 5.8,2.26 6.18,1.55 C6.29,1.37 6.32,1.17 6.25,0.96 C6.2,0.85 6.16,0.79 6.07,0.74 C5.98,0.7 5.91,0.7 5.85,0.76 L2.59,2.8 C1.27,3.67 0.58,4.66 0.49,5.75 C0.38,6.94 0.36,8.26 0.43,9.76 C0.43,10.1 0.43,11.55 0.45,14.19 C0.47,16.81 0.47,19.41 0.47,21.96 C0.54,22.7 0.78,23.35 1.19,23.93 C1.59,24.51 2.14,24.93 2.81,25.23 C2.99,25.32 3.53,25.61 4.44,26.14 C5.36,26.66 5.83,26.95 5.89,26.99 L6,26.99 C6.07,26.99 6.12,26.97 6.18,26.93 C6.25,26.88 6.29,26.81 6.32,26.75 C6.41,26.5 6.38,26.28 6.25,26.1 C5.96,25.74 5.76,25.38 5.6,24.96 C5.49,24.49 5.4,24.08 5.4,23.68 L5.4,23.68 Z" id="Shape"></path>
            </g>
        </g>
    </g>
</svg>