<svg width="20px" height="20px" viewBox="0 0 41 41" xmlns="http://www.w3.org/2000/svg" xmlns:xlink="http://www.w3.org/1999/xlink">
    <g stroke="none" stroke-width="1" fill="none" fill-rule="evenodd">
        <g transform="translate(1.000000, 1.000000)">
            <g stroke="#00C1DE" stroke-width="1.6">
                <rect fill="#FFFFFF" fill-rule="nonzero" x="0.6" y="0.6" width="38.4" height="38.4" rx="8"></rect>
                <rect x="0.6" y="0.6" width="38.4" height="38.4" rx="8"></rect>
            </g>
            <g transform="translate(6.500000, 8.500000)" fill="#00C1DE" fill-rule="nonzero">
                <path d="M22.32,0.71 L22.32,0.71 C22.78,0.71 23.24,0.77 23.66,0.92 C23.73,0.94 23.77,0.96 23.83,0.98 C23.89,1.01 23.93,1.03 24,1.05 C24.06,1.07 24.1,1.09 24.17,1.11 C24.23,1.13 24.27,1.15 24.31,1.19 C24.42,1.26 24.52,1.3 24.6,1.36 C24.69,1.42 24.79,1.49 24.9,1.55 C25.09,1.7 25.23,1.84 25.38,2.01 C25.52,2.18 25.65,2.35 25.75,2.51 C25.84,2.66 25.92,2.83 25.98,3.06 C26.05,3.27 26.09,3.48 26.11,3.63 C26.11,3.69 26.11,3.75 26.11,3.81 C26.11,3.94 26.09,4.11 26.05,4.3 C26.01,4.48 25.96,4.63 25.92,4.76 C25.75,5.16 25.5,5.49 25.19,5.76 C25.15,5.81 25.09,5.85 25.02,5.89 C24.96,5.93 24.9,5.99 24.81,6.04 C24.73,6.08 24.69,6.12 24.63,6.14 C24.44,6.25 24.23,6.35 24,6.41 C23.79,6.5 23.56,6.54 23.33,6.58 C23.29,6.58 23.24,6.6 23.2,6.6 C23.16,6.6 23.1,6.62 23.06,6.62 C23.01,6.62 22.95,6.62 22.91,6.64 C22.87,6.64 22.81,6.64 22.76,6.64 C22.72,6.64 22.68,6.64 22.64,6.64 C22.53,6.64 22.41,6.64 22.3,6.62 C22.16,6.6 21.99,6.58 21.8,6.56 C21.61,6.52 21.45,6.48 21.32,6.43 L18.37,9.01 C18.43,9.1 18.48,9.18 18.52,9.26 C18.56,9.35 18.6,9.43 18.64,9.52 C18.68,9.6 18.73,9.68 18.75,9.77 C18.79,9.85 18.81,9.93 18.83,10.04 C18.94,10.42 19,10.79 19,11.17 C19,11.53 18.96,11.88 18.85,12.24 C18.75,12.62 18.58,12.97 18.37,13.31 L21.55,16.03 C21.93,15.89 22.3,15.8 22.7,15.76 C22.83,15.74 22.97,15.74 23.1,15.74 C23.2,15.74 23.33,15.74 23.47,15.76 C23.62,15.78 23.75,15.78 23.85,15.8 C24.35,15.89 24.83,16.05 25.27,16.31 C25.36,16.35 25.42,16.39 25.5,16.43 C25.57,16.47 25.65,16.54 25.71,16.58 C25.78,16.62 25.86,16.68 25.92,16.75 C26.09,16.87 26.26,17.06 26.45,17.29 C26.63,17.52 26.78,17.73 26.86,17.92 C26.95,18.07 27.01,18.21 27.05,18.36 C27.11,18.51 27.16,18.65 27.18,18.8 C27.22,18.95 27.24,19.09 27.24,19.26 C27.24,19.3 27.24,19.35 27.24,19.39 C27.24,19.43 27.24,19.47 27.24,19.51 C27.24,19.68 27.22,19.87 27.18,20.08 C27.14,20.29 27.09,20.48 27.03,20.62 C26.86,21.09 26.59,21.48 26.24,21.84 C26.05,22.03 25.86,22.18 25.63,22.32 C25.42,22.45 25.19,22.57 24.96,22.66 C24.73,22.74 24.48,22.83 24.23,22.87 C23.98,22.91 23.73,22.93 23.45,22.93 C22.66,22.93 21.91,22.72 21.19,22.32 C20.96,22.18 20.76,22.03 20.55,21.84 C20.23,21.57 19.96,21.23 19.75,20.85 C19.56,20.52 19.42,20.14 19.35,19.76 C19.31,19.58 19.29,19.37 19.29,19.18 C19.29,19.14 19.29,19.07 19.29,19.01 C19.29,18.95 19.29,18.88 19.31,18.82 C19.31,18.76 19.33,18.7 19.33,18.65 C19.35,18.51 19.42,18.32 19.48,18.11 C19.56,17.9 19.63,17.73 19.71,17.59 L16.66,14.92 C16.55,14.99 16.45,15.05 16.32,15.09 C16.22,15.15 16.09,15.2 15.99,15.24 C15.76,15.34 15.5,15.41 15.27,15.47 C15.17,15.49 15.07,15.51 14.94,15.55 C14.81,15.57 14.67,15.59 14.54,15.61 C14.42,15.64 14.27,15.64 14.15,15.66 C14.02,15.66 13.89,15.68 13.79,15.68 L13.79,15.68 L13.79,15.68 C13.66,15.68 13.54,15.68 13.39,15.66 C13.25,15.64 13.08,15.64 12.93,15.61 C12.79,15.59 12.64,15.57 12.53,15.55 C12.37,15.51 12.16,15.45 11.93,15.38 C11.7,15.3 11.49,15.24 11.34,15.15 L8.08,18 C8.2,18.34 8.27,18.65 8.29,18.99 C8.29,19.05 8.29,19.12 8.29,19.18 C8.29,19.45 8.25,19.72 8.18,20 C8.1,20.35 7.95,20.67 7.77,20.98 C7.56,21.32 7.33,21.59 7.03,21.86 C6.82,22.05 6.61,22.2 6.38,22.34 C6.24,22.43 6.07,22.51 5.88,22.57 C5.69,22.66 5.48,22.72 5.3,22.76 C5.09,22.83 4.9,22.87 4.69,22.89 C4.48,22.93 4.29,22.93 4.15,22.93 C3.9,22.93 3.62,22.91 3.37,22.87 C3.33,22.87 3.29,22.85 3.23,22.85 C3.18,22.83 3.12,22.83 3.08,22.8 C3.04,22.78 2.97,22.78 2.91,22.76 C2.85,22.74 2.81,22.74 2.77,22.72 C2.72,22.7 2.68,22.68 2.64,22.68 C2.54,22.64 2.43,22.59 2.28,22.53 C2.16,22.47 2.03,22.41 1.95,22.34 C1.74,22.2 1.53,22.05 1.34,21.86 C0.99,21.53 0.72,21.11 0.55,20.65 C0.51,20.54 0.49,20.44 0.44,20.29 C0.4,20.14 0.38,20.02 0.38,19.89 C0.38,19.76 0.36,19.64 0.36,19.53 C0.36,19.49 0.36,19.45 0.36,19.41 C0.36,19.37 0.36,19.32 0.36,19.28 C0.38,19.14 0.4,18.97 0.42,18.82 C0.46,18.68 0.51,18.53 0.55,18.38 C0.61,18.23 0.67,18.09 0.74,17.94 C0.97,17.5 1.28,17.1 1.68,16.79 C1.85,16.64 2.05,16.52 2.33,16.35 C2.6,16.18 2.83,16.1 3.02,16.01 C3.5,15.85 3.98,15.76 4.5,15.76 C4.56,15.76 4.67,15.76 4.75,15.76 C4.86,15.76 4.94,15.78 5,15.78 C5.34,15.82 5.69,15.91 6.01,16.03 C6.09,16.05 6.18,16.1 6.24,16.14 C6.3,16.18 6.38,16.22 6.47,16.26 L9.52,13.71 C9.4,13.56 9.27,13.35 9.15,13.12 C9.02,12.89 8.92,12.66 8.85,12.49 C8.79,12.32 8.75,12.11 8.71,11.86 C8.66,11.61 8.64,11.4 8.64,11.23 C8.64,10.77 8.73,10.33 8.87,9.89 C9.04,9.45 9.25,9.05 9.54,8.7 L6.78,6.31 C6.66,6.35 6.53,6.41 6.36,6.48 C6.2,6.54 6.05,6.58 5.92,6.6 C5.63,6.66 5.32,6.69 5.02,6.69 C4.92,6.69 4.82,6.69 4.67,6.66 C4.52,6.64 4.42,6.64 4.31,6.62 C4.08,6.58 3.85,6.54 3.64,6.46 C3.43,6.37 3.23,6.29 3.02,6.18 C2.83,6.08 2.64,5.93 2.47,5.78 C2.16,5.51 1.91,5.18 1.74,4.78 C1.62,4.48 1.55,4.17 1.55,3.84 C1.55,3.77 1.55,3.71 1.55,3.65 C1.57,3.46 1.59,3.27 1.66,3.08 C1.72,2.89 1.8,2.7 1.89,2.54 C2.12,2.16 2.39,1.82 2.74,1.57 C2.83,1.51 2.93,1.42 3.04,1.38 C3.14,1.32 3.23,1.26 3.33,1.21 C3.54,1.11 3.75,1.03 3.96,0.94 C4.15,0.88 4.36,0.84 4.63,0.8 C4.9,0.75 5.11,0.73 5.3,0.73 L5.3,0.73 C5.53,0.73 5.76,0.75 5.97,0.8 C6.2,0.84 6.41,0.88 6.61,0.96 C6.72,1.01 6.82,1.05 6.93,1.09 C7.03,1.13 7.14,1.17 7.22,1.24 C7.41,1.34 7.6,1.47 7.77,1.61 C8.02,1.82 8.23,2.07 8.39,2.35 C8.5,2.51 8.58,2.72 8.64,2.98 C8.71,3.23 8.75,3.44 8.75,3.65 C8.75,3.71 8.75,3.77 8.73,3.86 C8.71,3.94 8.71,4 8.71,4.07 C8.69,4.19 8.64,4.34 8.58,4.51 C8.52,4.67 8.46,4.82 8.39,4.92 L11.32,7.29 C11.91,7.02 12.53,6.83 13.18,6.77 C13.27,6.77 13.37,6.75 13.5,6.75 C13.62,6.75 13.73,6.75 13.81,6.75 C14.02,6.75 14.27,6.77 14.56,6.81 C14.86,6.85 15.11,6.9 15.32,6.94 C15.44,6.98 15.57,7 15.67,7.04 C15.8,7.08 15.9,7.13 16.03,7.17 C16.15,7.21 16.26,7.27 16.38,7.31 C16.49,7.38 16.61,7.44 16.72,7.5 L19.42,5.2 C19.21,4.92 19.04,4.61 18.94,4.28 C18.87,4.04 18.83,3.81 18.83,3.56 L18.85,3.29 C18.89,2.95 18.98,2.66 19.14,2.37 C19.31,2.05 19.54,1.78 19.81,1.55 C19.98,1.4 20.17,1.28 20.36,1.17 C20.46,1.11 20.55,1.07 20.65,1.03 C20.76,0.98 20.86,0.94 20.96,0.9 C21.17,0.84 21.4,0.77 21.61,0.73 C21.7,0.71 21.82,0.71 21.95,0.69 C22.07,0.67 22.22,0.71 22.32,0.71 L22.32,0.71 Z"></path>
            </g>
        </g>
    </g>
</svg>