<svg width="20px" height="20px" viewBox="0 0 41 41" xmlns="http://www.w3.org/2000/svg" xmlns:xlink="http://www.w3.org/1999/xlink">
    <g stroke="none" stroke-width="1" fill="none" fill-rule="evenodd">
        <g transform="translate(1.000000, 1.000000)">
            <g stroke="#00C1DE" stroke-width="1.6">
                <rect fill="#FFFFFF" fill-rule="nonzero" x="0.6" y="0.6" width="38.4" height="38.4" rx="8"></rect>
                <rect x="0.6" y="0.6" width="38.4" height="38.4" rx="8"></rect>
            </g>
            <g transform="translate(6.500000, 8.500000)" fill="#00C1DE" fill-rule="nonzero">
                <path d="M25.17,8.17 L25.63,7.71 L26.62,8.69 L27.22,8.04 L24.16,4.89 L23.21,4.87 L21.6,3.29 L20.26,4.65 L16,0.76 C15.92,0.69 15.8,0.62 15.65,0.56 C15.5,0.47 15.17,0.36 14.68,0.23 C14.2,0.1 13.71,0.01 13.23,0.01 C12.74,0.01 12.17,0.1 11.49,0.34 C10.8,0.56 10.16,0.93 9.55,1.43 C8.93,1.94 8.47,2.48 8.16,3.1 C7.85,3.71 7.67,4.23 7.63,4.71 C7.59,5.17 7.63,5.65 7.72,6.14 C7.81,6.62 7.9,6.95 7.98,7.1 C8.05,7.25 8.12,7.38 8.16,7.47 L8.16,7.47 L10.85,10.53 L12.5,9.04 L10.47,6.7 C9.55,5.41 9.68,4.23 10.89,3.12 C11.42,2.61 12.02,2.31 12.63,2.18 C13.25,2.05 13.76,2.05 14.11,2.16 L14.64,2.33 L18.58,6.22 L17.22,7.54 L21.53,11.89 L21.64,11.87 L22.26,11.14 L24.24,13.18 L27.24,10.16 L25.17,8.17 L25.17,8.17 Z M13.09,9.63 L14.64,11.17 L13.07,12.72 L11.53,11.19 L13.09,9.63 L13.09,9.63 Z M15.08,14.66 L13.54,13.13 L15.1,11.58 L16.64,13.11 L15.08,14.66 Z M17.41,13.86 L15.85,15.34 L17.15,16.92 C17.19,16.96 17.24,17.05 17.28,17.14 C17.35,17.22 17.41,17.42 17.5,17.7 C17.59,17.99 17.66,18.27 17.66,18.54 C17.66,18.82 17.59,19.13 17.46,19.5 C17.3,19.87 17.06,20.2 16.73,20.53 C16.2,21.03 15.61,21.34 14.99,21.44 C14.37,21.55 13.87,21.58 13.51,21.49 C13.16,21.4 12.98,21.34 12.98,21.29 L9.04,17.4 L10.41,16.09 L6.09,11.73 L5.98,11.76 L5.36,12.48 L3.38,10.44 L0.36,13.46 L2.43,15.43 L1.97,15.89 L0.98,14.91 L0.38,15.58 L3.44,18.71 L4.39,18.73 L6,20.31 L7.34,18.95 L11.6,22.84 C11.68,22.91 11.8,22.98 11.95,23.04 C12.1,23.13 12.43,23.24 12.92,23.37 C13.4,23.5 13.89,23.59 14.37,23.59 C14.86,23.59 15.43,23.5 16.11,23.26 C16.8,23.04 17.44,22.67 18.05,22.17 C19.81,20.72 20.39,18.95 19.75,16.9 L19.44,16.13 L17.41,13.86 Z" id="Shape"></path>
            </g>
        </g>
    </g>
</svg>