<svg width="20px" height="20px" viewBox="0 0 41 41" xmlns="http://www.w3.org/2000/svg" xmlns:xlink="http://www.w3.org/1999/xlink">
    <g stroke="none" stroke-width="1" fill="none" fill-rule="evenodd">
        <g transform="translate(1.000000, 1.000000)">
            <g stroke="#00C1DE" stroke-width="1.6">
                <rect fill="#FFFFFF" fill-rule="nonzero" x="0.6" y="0.6" width="38.4" height="38.4" rx="8"></rect>
                <rect x="0.6" y="0.6" width="38.4" height="38.4" rx="8"></rect>
            </g>
            <g transform="translate(6.500000, 8.500000)" fill="#00C1DE" fill-rule="nonzero">
                <path d="M27.24,15.11 C27.24,15.58 27.16,16.04 26.97,16.48 C26.78,16.91 26.53,17.29 26.22,17.6 C25.91,17.91 25.53,18.16 25.09,18.34 C24.66,18.53 24.2,18.61 23.72,18.61 L20.53,18.61 L22.16,16.21 L23.78,16.21 C23.97,16.21 24.16,16.17 24.32,16.06 C24.49,15.96 24.64,15.83 24.74,15.65 C24.84,15.48 24.89,15.29 24.89,15.11 L24.89,11.42 C24.89,11.13 24.78,10.88 24.55,10.65 C24.32,10.42 24.07,10.32 23.78,10.32 L3.88,10.32 C3.59,10.32 3.34,10.42 3.11,10.65 C2.88,10.88 2.78,11.13 2.78,11.42 L2.78,15.11 C2.78,15.4 2.88,15.65 3.11,15.87 C3.34,16.1 3.59,16.21 3.88,16.21 L7.92,16.21 L7.92,18.61 L3.88,18.61 C2.9,18.61 2.07,18.28 1.38,17.6 C0.69,16.91 0.36,16.08 0.36,15.11 L0.36,11.42 C0.36,10.44 0.69,9.61 1.38,8.93 C2.07,8.24 2.9,7.91 3.88,7.91 L9.36,7.91 L9.36,6.09 L7.15,6.09 L11.53,0.96 L11.53,7.97 L16.09,7.97 L16.09,1.01 L18.18,1.01 L18.18,7.89 L23.72,7.89 C24.7,7.89 25.53,8.22 26.22,8.91 C26.91,9.59 27.24,10.42 27.24,11.4 L27.24,15.11 Z M16.09,22.64 L16.09,11.73 L18.18,11.73 L18.18,16.14 L20.38,16.14 L16.09,22.64 Z M13.01,18.61 L14.63,18.61 L14.63,16.21 L13.01,16.21 L13.01,18.61 Z M9.36,22.05 L11.57,22.05 L11.57,11.73 L9.36,11.73 L9.36,22.05 L9.36,22.05 Z" id="Shape"></path>
            </g>
        </g>
    </g>
</svg>