<svg width="20px" height="20px" viewBox="0 0 41 41" xmlns="http://www.w3.org/2000/svg" xmlns:xlink="http://www.w3.org/1999/xlink">
    <g stroke="none" stroke-width="1" fill="none" fill-rule="evenodd">
        <g transform="translate(1.000000, 1.000000)">
            <g stroke="#00C1DE" stroke-width="1.6">
                <rect fill="#FFFFFF" fill-rule="nonzero" x="0.6" y="0.6" width="38.4" height="38.4" rx="8"></rect>
                <rect x="0.6" y="0.6" width="38.4" height="38.4" rx="8"></rect>
            </g>
            <g transform="translate(8.500000, 6.500000)" fill="#00C1DE" fill-rule="nonzero">
                <path d="M11.8,25.93 L2.79,20.65 L9.32,20.65 C9.42,21.25 9.72,21.75 10.17,22.15 C10.63,22.54 11.17,22.75 11.8,22.75 C12.43,22.75 12.97,22.54 13.43,22.15 C13.88,21.75 14.18,21.25 14.28,20.65 L20.81,20.65 L11.8,25.93 L11.8,25.93 L11.8,25.93 Z M10.74,2.3 L7.23,8.37 C6.98,8.29 6.71,8.23 6.44,8.23 C5.98,8.23 5.57,8.33 5.17,8.56 C4.77,8.79 4.48,9.1 4.25,9.48 C4.02,9.88 3.92,10.29 3.92,10.75 C3.92,10.96 3.96,11.19 4.02,11.42 C4.11,11.67 4.21,11.9 4.34,12.11 C4.46,12.32 4.61,12.51 4.75,12.63 L1.46,18.33 L1.46,7.73 L10.74,2.3 Z M10.95,17.85 L8.01,12.74 C8.46,12.36 8.78,11.9 8.9,11.32 L14.72,11.32 C14.78,11.57 14.89,11.82 15.07,12.09 C15.24,12.36 15.43,12.59 15.64,12.74 L12.7,17.83 C12.43,17.72 12.13,17.66 11.84,17.66 C11.72,17.66 11.57,17.68 11.4,17.7 C11.2,17.77 11.05,17.79 10.95,17.85 L10.95,17.85 Z M11.8,2.15 L15.62,8.77 C15.39,8.96 15.18,9.21 14.99,9.54 C14.8,9.88 14.7,10.19 14.66,10.48 L8.92,10.48 C8.88,10.19 8.78,9.88 8.59,9.56 C8.4,9.23 8.19,8.98 7.96,8.79 L11.8,2.15 Z M1.61,19.79 L5.46,13.11 C5.77,13.24 6.09,13.3 6.42,13.3 C6.67,13.3 6.94,13.26 7.23,13.15 L10.19,18.27 C9.99,18.43 9.8,18.66 9.63,18.95 C9.46,19.25 9.34,19.54 9.3,19.79 L1.61,19.79 Z M14.28,19.79 C14.26,19.66 14.22,19.52 14.16,19.37 C14.09,19.23 14.03,19.08 13.95,18.95 C13.86,18.81 13.78,18.68 13.68,18.56 C13.57,18.43 13.49,18.33 13.38,18.25 L16.34,13.13 C16.49,13.17 16.62,13.22 16.74,13.24 C16.87,13.26 17.01,13.28 17.16,13.28 C17.26,13.28 17.39,13.28 17.49,13.26 C17.6,13.24 17.7,13.22 17.8,13.19 C17.91,13.17 18.01,13.13 18.12,13.09 L21.97,19.79 L14.28,19.79 Z M22.14,18.33 L18.85,12.63 C19.08,12.42 19.28,12.13 19.45,11.78 C19.62,11.4 19.7,11.07 19.7,10.75 C19.7,10.06 19.45,9.46 18.97,8.96 C18.49,8.46 17.89,8.21 17.18,8.21 C17.1,8.21 16.99,8.21 16.91,8.23 C16.82,8.25 16.72,8.25 16.64,8.27 C16.55,8.29 16.47,8.31 16.39,8.33 L12.9,2.28 L22.16,7.71 L22.14,18.33 Z M12.11,0.44 C12.01,0.38 11.93,0.36 11.8,0.36 C11.67,0.36 11.59,0.38 11.49,0.44 L0.54,6.85 C0.46,6.89 0.4,6.98 0.33,7.08 C0.27,7.18 0.25,7.29 0.25,7.37 L0.25,7.37 L0.25,20.21 C0.25,20.44 0.35,20.62 0.54,20.73 L11.49,27.16 C11.53,27.18 11.57,27.2 11.63,27.22 C11.7,27.24 11.74,27.24 11.8,27.24 C11.9,27.24 12.01,27.22 12.11,27.16 L23.06,20.73 C23.27,20.6 23.35,20.44 23.35,20.21 L23.35,7.37 C23.35,7.31 23.35,7.27 23.33,7.21 C23.31,7.16 23.29,7.1 23.27,7.06 C23.25,7.02 23.2,6.98 23.16,6.93 C23.12,6.89 23.08,6.87 23.04,6.83 L12.11,0.44 Z M11.24,1.03 L0.25,20.1 L1.44,20.79 L12.43,1.72 L11.24,1.03 Z M15.78,11.8 L11.65,18.93 L12.84,19.62 L16.97,12.49 L15.78,11.8 Z M8.05,11.8 L12.18,18.93 L10.99,19.62 L6.86,12.49 L8.05,11.8 Z M12.43,1.03 L23.06,19.75 L21.87,20.44 L11.24,1.72 L12.43,1.03 Z M6.09,11.36 L17.1,11.36 L17.1,9.98 L6.09,9.98 L6.09,11.36 L6.09,11.36 Z M1.27,20.98 L22.22,20.98 L22.22,19.6 L1.27,19.6 L1.27,20.98 L1.27,20.98 Z" id="Shape"></path>
            </g>
        </g>
    </g>
</svg>