<svg width="20px" height="20px" viewBox="0 0 41 41" xmlns="http://www.w3.org/2000/svg" xmlns:xlink="http://www.w3.org/1999/xlink">
    <g stroke="none" stroke-width="1" fill="none" fill-rule="evenodd">
        <g transform="translate(1.000000, 1.000000)">
            <g stroke="#00C1DE" stroke-width="1.6">
                <rect fill="#FFFFFF" fill-rule="nonzero" x="0.6" y="0.6" width="38.4" height="38.4" rx="8"></rect>
                <rect x="0.6" y="0.6" width="38.4" height="38.4" rx="8"></rect>
            </g>
            <g transform="translate(6.500000, 8.500000)" fill="#00C1DE" fill-rule="nonzero">
                <path d="M22.1,12.95 C21.35,12.95 20.63,13.12 19.93,13.45 L17.13,9.25 C18.27,8.24 18.85,6.96 18.85,5.46 C18.85,4.06 18.34,2.87 17.34,1.87 C16.34,0.87 15.15,0.39 13.73,0.41 C12.81,0.41 11.96,0.64 11.18,1.11 C10.39,1.57 9.77,2.19 9.33,2.97 C8.88,3.76 8.65,4.61 8.65,5.52 C8.65,7.03 9.24,8.28 10.39,9.3 L7.63,13.52 C6.9,13.18 6.18,13.01 5.44,13.03 C4.04,13.03 2.85,13.54 1.85,14.54 C0.85,15.53 0.36,16.74 0.38,18.14 C0.38,19.54 0.89,20.73 1.89,21.73 C2.89,22.73 4.1,23.21 5.5,23.19 C6.78,23.19 7.88,22.77 8.82,21.92 C9.75,21.07 10.33,20.03 10.5,18.8 L17.13,18.78 C17.32,20.03 17.87,21.05 18.83,21.9 C19.78,22.73 20.89,23.15 22.16,23.13 C23.56,23.13 24.75,22.62 25.75,21.62 C26.75,20.63 27.24,19.42 27.24,18.02 C27.24,16.62 26.73,15.43 25.73,14.43 C24.69,13.43 23.5,12.95 22.1,12.95 L22.1,12.95 Z M17.1,17.34 L10.47,17.36 C10.43,17.02 10.33,16.66 10.16,16.28 C9.99,15.89 9.79,15.51 9.54,15.15 C9.31,14.79 9.05,14.52 8.8,14.28 L11.56,10.06 C12.28,10.4 13,10.57 13.75,10.55 C13.96,10.55 14.19,10.53 14.47,10.48 C14.75,10.44 15,10.38 15.26,10.29 C15.51,10.21 15.74,10.12 15.91,10.04 L18.72,14.24 C18.34,14.58 17.98,15.05 17.66,15.66 C17.36,16.28 17.17,16.83 17.1,17.34 L17.1,17.34 L17.1,17.34 Z" id="Shape"></path>
            </g>
        </g>
    </g>
</svg>