<svg width="20px" height="20px" viewBox="0 0 41 41" xmlns="http://www.w3.org/2000/svg" xmlns:xlink="http://www.w3.org/1999/xlink">
    <g stroke="none" stroke-width="1" fill="none" fill-rule="evenodd">
        <g transform="translate(1.000000, 1.000000)">
            <g stroke="#00C1DE" stroke-width="1.6">
                <rect fill="#FFFFFF" fill-rule="nonzero" x="0.6" y="0.6" width="38.4" height="38.4" rx="8"></rect>
                <rect x="0.6" y="0.6" width="38.4" height="38.4" rx="8"></rect>
            </g>
            <g transform="translate(6.500000, 10.500000)" fill="#00C1DE" fill-rule="nonzero">
                <path d="M11.18,5.07 L12.03,4.73 C12.15,5.09 12.32,5.46 12.53,5.92 L12.86,5.92 C13.33,5.92 13.75,6.08 14.06,6.44 C14.37,6.77 14.54,7.17 14.54,7.6 L14.54,7.77 C14.93,7.92 15.47,8.1 16.15,8.35 C16.84,8.58 17.46,8.81 18.02,9 C18.58,9.19 18.87,9.29 18.89,9.29 C19.05,8.94 19.3,8.64 19.63,8.44 C19.97,8.23 20.32,8.1 20.73,8.1 L20.9,8.1 C20.96,7.79 21.04,7.44 21.15,7 C21.25,6.56 21.33,6.21 21.42,5.9 L20.26,5.9 C20.26,5.81 20.19,5.63 20.09,5.29 C19.99,4.98 19.76,4.57 19.45,4.05 C19.14,3.52 18.74,3.03 18.29,2.57 C17.83,2.09 17.19,1.69 16.38,1.36 C15.57,1.03 14.68,0.84 13.71,0.84 L12.53,0.84 C12.01,0.94 11.51,1.07 11.05,1.21 C10.6,1.36 10.18,1.55 9.85,1.71 C9.5,1.9 9.19,2.11 8.9,2.32 C8.61,2.55 8.36,2.75 8.17,2.98 C7.99,3.21 7.8,3.44 7.68,3.69 C8.28,4.15 8.73,4.48 9.06,4.73 C9.4,4.98 9.81,5.25 10.33,5.59 C10.83,5.92 11.3,6.19 11.72,6.4 C11.68,6.25 11.61,6.11 11.55,5.96 C11.49,5.81 11.43,5.65 11.36,5.5 C11.28,5.36 11.22,5.21 11.18,5.07 L11.18,5.07 L11.18,5.07 Z M11.01,2.03 C11.07,2.19 11.16,2.42 11.26,2.69 C11.36,2.98 11.45,3.19 11.51,3.36 L10.66,3.69 L10.16,2.17 L11.01,2.03 Z M18.06,14.18 L18.39,14.18 C18.87,13.39 19.26,12.6 19.57,11.81 C19.01,11.43 18.72,10.87 18.72,10.12 C18.2,10 16.65,9.48 14.02,8.6 C13.93,8.83 13.79,9.02 13.58,9.12 C13.38,9.23 13.13,9.29 12.84,9.29 C12.36,9.29 11.95,9.12 11.63,8.77 C11.32,8.44 11.16,8.04 11.16,7.6 L11.16,7.27 C10.04,6.56 8.75,5.67 7.28,4.57 C7.22,4.77 7.16,4.98 7.1,5.19 C7.05,5.4 7.01,5.59 6.99,5.77 C6.97,5.96 6.95,6.13 6.93,6.27 C6.91,6.44 6.91,6.58 6.91,6.71 C6.91,6.83 6.91,6.96 6.91,7.04 C6.91,7.13 6.91,7.21 6.93,7.29 C6.93,7.38 6.93,7.42 6.93,7.42 C6.89,7.42 6.83,7.42 6.74,7.44 C6.66,7.44 6.49,7.48 6.23,7.5 C5.98,7.54 5.71,7.58 5.46,7.65 C5.21,7.71 4.9,7.79 4.55,7.92 C4.19,8.04 3.86,8.17 3.55,8.31 C3.24,8.46 2.91,8.64 2.58,8.87 C2.25,9.1 1.94,9.35 1.69,9.62 C1.44,9.89 1.19,10.23 0.98,10.6 C0.77,10.98 0.63,11.39 0.55,11.81 C0.36,12.77 0.38,13.66 0.63,14.47 C0.88,15.28 1.25,15.95 1.77,16.45 C2.29,16.95 2.85,17.39 3.49,17.74 C4.13,18.09 4.73,18.36 5.31,18.51 C5.89,18.66 6.37,18.74 6.76,18.74 L14.87,18.74 C15.63,18.11 16.32,17.32 16.88,16.37 C16.88,16.32 16.86,16.2 16.79,16.01 C16.73,15.83 16.71,15.66 16.71,15.53 C16.71,15.41 16.73,15.31 16.75,15.2 C16.77,15.1 16.82,14.99 16.86,14.91 C16.9,14.83 16.96,14.74 17.02,14.66 C17.08,14.58 17.17,14.51 17.23,14.45 C17.31,14.39 17.4,14.35 17.48,14.31 C17.56,14.26 17.67,14.24 17.75,14.22 C17.87,14.18 17.98,14.18 18.06,14.18 L18.06,14.18 Z M14.7,11.64 C14.6,11.54 14.49,11.41 14.37,11.27 C14.25,11.12 14.16,10.98 14.08,10.85 C14,10.71 13.91,10.58 13.87,10.48 L14.54,9.98 C14.62,10.16 14.74,10.37 14.91,10.58 C15.07,10.79 15.22,11 15.39,11.16 L14.7,11.64 Z M15.55,12.83 L16.21,12.33 C16.32,12.43 16.46,12.64 16.63,12.91 C16.79,13.2 16.94,13.39 17.04,13.49 L16.38,13.99 C15.95,13.56 15.65,13.16 15.55,12.83 L15.55,12.83 Z M27.14,11.31 C26.76,11.31 26.31,11.29 25.75,11.25 C25.19,11.2 24.71,11.16 24.32,11.14 C23.92,11.1 23.34,11.06 22.6,10.98 C22.43,11.33 22.18,11.62 21.85,11.83 C21.52,12.04 21.17,12.16 20.75,12.16 L20.59,12.16 C20.48,12.45 20.28,12.87 20.01,13.43 C19.72,13.99 19.53,14.41 19.43,14.7 C19.65,14.93 19.76,15.2 19.76,15.55 C19.76,15.95 19.61,16.28 19.34,16.53 C19.07,16.78 18.76,16.91 18.41,16.91 L18.08,16.91 C17.93,17.09 17.77,17.3 17.6,17.51 C17.42,17.72 17.23,17.95 17.06,18.16 C16.88,18.36 16.71,18.57 16.59,18.76 L20.63,18.76 C20.71,18.76 20.82,18.76 20.94,18.76 C21.06,18.76 21.29,18.72 21.62,18.68 C21.96,18.64 22.29,18.55 22.6,18.47 C22.91,18.39 23.28,18.24 23.72,18.05 C24.15,17.87 24.55,17.64 24.92,17.37 C25.29,17.09 25.66,16.76 26.04,16.32 C26.41,15.89 26.74,15.41 27.03,14.89 C27.14,14.1 27.22,13.52 27.24,13.12 C27.22,12.68 27.2,12.1 27.14,11.31 L27.14,11.31 Z M20.26,18.57 L19.24,17.55 L19.9,16.89 L20.92,17.91 L20.26,18.57 Z M26.97,10.46 C26.72,9.33 26.18,8.4 25.35,7.6 C24.53,6.83 23.51,6.31 22.27,6.06 C22.16,6.48 22,7.27 21.77,8.44 C21.89,8.52 22.02,8.62 22.12,8.73 C22.22,8.83 22.33,8.96 22.41,9.1 C22.49,9.25 22.58,9.39 22.64,9.56 C22.7,9.73 22.76,9.91 22.8,10.12 C25,10.35 26.41,10.46 26.97,10.46 L26.97,10.46 Z" id="Shape"></path>
            </g>
        </g>
    </g>
</svg>