<svg width="20px" height="20px" viewBox="0 0 41 41" xmlns="http://www.w3.org/2000/svg" xmlns:xlink="http://www.w3.org/1999/xlink">
    <g stroke="none" stroke-width="1" fill="none" fill-rule="evenodd">
        <g transform="translate(1.000000, 1.000000)">
            <g stroke="#00C1DE" stroke-width="1.6">
                <rect fill="#FFFFFF" fill-rule="nonzero" x="0.6" y="0.6" width="38.4" height="38.4" rx="8"></rect>
                <rect x="0.6" y="0.6" width="38.4" height="38.4" rx="8"></rect>
            </g>
            <g transform="translate(7.500000, 6.500000)" fill="#00C1DE" fill-rule="nonzero">
                <path d="M12.7,4.68 C13.28,4.68 13.8,4.47 14.2,4.04 C14.63,3.61 14.85,3.11 14.85,2.53 C14.85,1.95 14.63,1.44 14.23,1.01 C13.82,0.58 13.3,0.36 12.7,0.36 C12.32,0.36 11.97,0.47 11.63,0.66 C11.31,0.85 11.03,1.11 10.84,1.46 C10.64,1.78 10.54,2.14 10.54,2.53 C10.54,3.11 10.75,3.63 11.18,4.04 C11.61,4.45 12.12,4.68 12.7,4.68 L12.7,4.68 Z M4.98,20.57 C4.98,20.17 4.87,19.8 4.68,19.46 C4.49,19.11 4.21,18.83 3.87,18.62 C3.52,18.4 3.14,18.32 2.71,18.32 C2.06,18.32 1.53,18.53 1.1,18.96 C0.67,19.39 0.46,19.93 0.46,20.57 C0.46,21.22 0.67,21.76 1.1,22.19 C1.53,22.62 2.06,22.83 2.71,22.83 C3.12,22.83 3.5,22.72 3.87,22.53 C4.21,22.32 4.49,22.04 4.68,21.69 C4.87,21.37 4.98,20.98 4.98,20.57 L4.98,20.57 Z M22.87,18.32 C22.46,18.32 22.1,18.42 21.76,18.62 C21.41,18.81 21.13,19.09 20.92,19.43 C20.7,19.78 20.62,20.17 20.62,20.6 C20.62,21.24 20.83,21.78 21.26,22.21 C21.69,22.64 22.23,22.85 22.87,22.85 C23.51,22.85 24.05,22.64 24.48,22.21 C24.91,21.78 25.12,21.24 25.12,20.6 C25.12,19.95 24.91,19.41 24.48,18.98 C24.05,18.53 23.51,18.32 22.87,18.32 L22.87,18.32 Z M16.48,2.23 C16.52,2.34 16.54,2.53 16.54,2.81 C16.54,3.37 16.44,3.91 16.2,4.45 C17.59,4.94 18.84,5.67 19.91,6.64 C21,7.61 21.84,8.79 22.46,10.17 C23.09,11.54 23.39,12.98 23.39,14.53 C23.39,15.18 23.32,15.82 23.21,16.44 C24.01,16.51 24.69,16.77 25.29,17.26 C25.49,16.29 25.59,15.39 25.59,14.57 C25.55,12.64 25.14,10.83 24.35,9.13 C23.56,7.43 22.48,5.99 21.11,4.79 C19.76,3.63 18.22,2.77 16.48,2.23 L16.48,2.23 Z M8.22,16.21 C7.94,15.37 7.86,14.53 7.96,13.74 C8.07,12.94 8.41,12.19 8.95,11.5 C9.49,10.81 10.15,10.32 10.94,9.99 C11.52,9.76 12.1,9.65 12.68,9.65 C13.18,9.65 13.67,9.74 14.16,9.89 C14.63,10.04 15.08,10.27 15.49,10.6 C15.9,10.9 16.26,11.26 16.56,11.69 L14.36,12.79 C14.27,12.7 14.2,12.64 14.12,12.57 C14.03,12.51 13.97,12.45 13.88,12.4 C13.8,12.36 13.71,12.29 13.6,12.27 C12.96,12.02 12.36,11.99 11.8,12.21 C11.2,12.45 10.77,12.85 10.52,13.46 C10.26,14.06 10.24,14.66 10.47,15.24 C10.64,15.69 10.94,16.06 11.35,16.34 C11.76,16.62 12.21,16.75 12.68,16.75 C12.98,16.75 13.26,16.68 13.56,16.57 C14.16,16.34 14.59,15.93 14.85,15.35 C15.06,14.88 15.08,14.36 14.96,13.78 L17.17,12.68 C17.25,12.92 17.34,13.18 17.38,13.43 C17.42,13.69 17.47,13.93 17.47,14.19 C17.49,14.45 17.47,14.68 17.44,14.94 C17.42,15.2 17.38,15.43 17.32,15.67 C17.25,15.91 17.17,16.14 17.08,16.36 C16.97,16.6 16.86,16.81 16.74,17 C16.61,17.22 16.46,17.41 16.29,17.61 C16.11,17.8 15.94,17.97 15.75,18.14 C15.56,18.29 15.34,18.44 15.13,18.6 C14.91,18.72 14.66,18.85 14.42,18.94 C13.2,19.43 12,19.41 10.77,18.9 C9.57,18.32 8.74,17.43 8.22,16.21 L8.22,16.21 Z M19.78,22.38 C17.77,24.21 15.41,25.11 12.7,25.11 C11.55,25.11 10.43,24.94 9.4,24.6 L11.2,20.51 C11.48,20.57 11.74,20.62 11.97,20.64 C12.21,20.66 12.49,20.68 12.77,20.68 C13.58,20.68 14.33,20.55 15.04,20.27 C16.63,19.67 17.79,18.57 18.45,17 C19.14,15.43 19.16,13.84 18.52,12.25 C17.92,10.66 16.82,9.5 15.26,8.83 C13.69,8.17 12.1,8.12 10.52,8.77 C10.3,8.85 10.11,8.94 9.91,9.05 C9.72,9.16 9.53,9.26 9.36,9.39 C9.19,9.52 9.01,9.65 8.84,9.78 C8.67,9.93 8.52,10.06 8.37,10.21 C8.22,10.36 8.09,10.51 7.96,10.68 L3.84,8.88 C4.04,8.53 4.27,8.19 4.51,7.86 C4.75,7.54 5.02,7.24 5.3,6.96 C5.58,6.68 5.88,6.4 6.18,6.17 C6.5,5.91 6.83,5.69 7.17,5.48 C7.51,5.26 7.86,5.07 8.22,4.9 C8.59,4.73 8.97,4.57 9.36,4.45 C9.12,3.97 9.01,3.44 9.01,2.81 C9.01,2.53 9.04,2.34 9.08,2.23 C6.44,3.03 4.25,4.55 2.56,6.81 C0.86,9.07 0.01,11.61 0.01,14.47 C0.01,15.28 0.11,16.17 0.31,17.15 C0.91,16.66 1.61,16.4 2.39,16.34 C2.28,15.69 2.21,15.05 2.21,14.42 C2.21,12.9 2.56,11.35 3.27,9.76 L7.34,11.56 C6.4,13.26 6.29,14.98 7,16.75 C7.28,17.5 7.71,18.14 8.24,18.72 C8.78,19.31 9.42,19.74 10.13,20.08 L8.39,24.1 C7.45,23.65 6.55,23.07 5.71,22.36 C5.15,23.05 4.55,23.5 3.91,23.69 C5.09,24.81 6.44,25.69 7.94,26.32 C9.44,26.94 11.05,27.24 12.72,27.24 C14.42,27.24 16.03,26.94 17.55,26.32 C19.07,25.69 20.4,24.81 21.56,23.69 C20.85,23.43 20.28,23 19.78,22.38 L19.78,22.38 Z" id="Shape"></path>
            </g>
        </g>
    </g>
</svg>