<svg width="20px" height="20px" viewBox="0 0 41 41" xmlns="http://www.w3.org/2000/svg" xmlns:xlink="http://www.w3.org/1999/xlink">
    <g stroke="none" stroke-width="1" fill="none" fill-rule="evenodd">
        <g transform="translate(1.000000, 1.000000)">
            <g stroke="#00C1DE" stroke-width="1.6">
                <rect fill="#FFFFFF" fill-rule="nonzero" x="0.6" y="0.6" width="38.4" height="38.4" rx="8"></rect>
                <rect x="0.6" y="0.6" width="38.4" height="38.4" rx="8"></rect>
            </g>
            <g transform="translate(6.500000, 6.500000)" fill="#00C1DE" fill-rule="nonzero">
                <path d="M18.9,8.55 L18.9,18.99 L26.86,18.99 L26.18,16.55 L21.68,16.55 L21.68,14.81 L26.18,14.81 L26.18,12.73 L21.68,12.73 L21.68,10.65 L26.22,10.65 L26.91,8.57 L18.9,8.55 L18.9,8.55 Z M11.26,16.55 L11.26,10.65 L12.39,10.65 C13.05,10.65 13.51,10.87 13.84,11.29 C13.89,11.33 13.91,11.4 13.95,11.47 C14,11.53 14.02,11.6 14.04,11.69 C14.06,11.78 14.09,11.86 14.09,11.95 C14.13,12.28 14.15,12.86 14.15,13.72 C14.15,14.23 14.15,14.7 14.13,15.12 C14.11,15.4 14.09,15.63 14.04,15.76 C14.02,15.8 14,15.87 13.95,15.93 L13.87,16.05 C13.71,16.22 13.54,16.36 13.29,16.44 C13.05,16.51 12.76,16.55 12.41,16.55 L11.26,16.55 L11.26,16.55 Z M15.87,17.99 C16.29,17.64 16.58,17.31 16.73,16.97 C16.78,16.91 16.8,16.84 16.85,16.75 C16.87,16.69 16.91,16.62 16.93,16.53 C16.96,16.47 16.98,16.38 17,16.31 C17.02,16.24 17.04,16.16 17.07,16.09 C17.09,16.02 17.09,15.93 17.11,15.87 C17.13,15.76 17.13,15.63 17.15,15.47 C17.18,15.32 17.18,15.18 17.18,15.03 C17.18,14.87 17.18,14.74 17.18,14.63 C17.18,14.61 17.18,14.61 17.18,14.59 C17.18,14.56 17.18,14.54 17.18,14.54 L17.18,12.75 C17.18,12.57 17.18,12.42 17.18,12.26 C17.18,12.11 17.15,11.95 17.15,11.82 C17.13,11.69 17.13,11.55 17.11,11.42 C17.04,11.05 16.93,10.67 16.76,10.32 C16.67,10.14 16.38,9.83 15.9,9.41 C15.19,8.79 14.11,8.48 12.61,8.48 L8.13,8.48 L8.13,18.92 L12.59,18.92 C14.02,18.99 15.12,18.66 15.87,17.99 L15.87,17.99 Z M1.2,18.99 L4.33,18.99 L4.33,8.55 L1.2,8.55 L1.2,18.99 L1.2,18.99 Z M6.23,2.77 C6.69,2.55 7.18,2.42 7.71,2.37 C8.24,2.33 8.77,2.35 9.34,2.44 C9.92,2.55 10.51,2.73 11.13,2.99 C13.76,4.12 15.83,5.05 17.35,5.74 C17.35,6.05 17.44,6.31 17.6,6.58 C17.75,6.84 17.95,7.04 18.21,7.2 C18.48,7.35 18.74,7.42 19.05,7.42 L19.05,7.42 C19.52,7.42 19.93,7.24 20.27,6.91 C20.6,6.58 20.77,6.18 20.77,5.69 L20.77,5.69 L20.77,5.69 C20.77,5.23 20.6,4.81 20.27,4.47 C19.93,4.14 19.54,3.97 19.05,3.97 L19.05,3.97 C18.74,3.97 18.46,4.05 18.19,4.21 C16.38,3.39 14.24,2.44 11.81,1.4 L11.77,1.38 L11.73,1.36 L11.68,1.33 L11.64,1.31 L11.59,1.29 L11.55,1.27 L11.51,1.24 L11.46,1.22 L11.42,1.2 L11.37,1.18 L11.33,1.16 L11.28,1.13 L11.24,1.11 L11.2,1.09 L11.15,1.07 L11.11,1.05 L11.06,1.02 L11.02,1 L10.98,0.98 L10.93,0.96 L10.89,0.94 L10.84,0.91 L10.8,0.89 L10.75,0.87 L10.71,0.85 L10.67,0.82 L10.62,0.8 L10.58,0.78 L10.53,0.76 L10.49,0.74 L10.45,0.74 L10.4,0.74 L10.36,0.74 L10.31,0.74 L10.27,0.74 L10.23,0.74 L10.18,0.74 L10.14,0.74 L10.09,0.74 L10.05,0.74 L10,0.74 L9.96,0.74 L9.92,0.74 L9.87,0.74 L9.83,0.74 L9.78,0.74 L9.74,0.74 L9.7,0.74 L9.65,0.74 L9.61,0.74 L9.56,0.74 L9.52,0.74 L9.47,0.74 L9.43,0.74 L9.39,0.74 L9.34,0.74 L9.3,0.74 L9.25,0.74 L9.21,0.74 L9.17,0.74 L9.12,0.74 L9.08,0.74 L9.03,0.74 L8.99,0.74 L8.95,0.74 L8.9,0.74 L8.86,0.74 L8.81,0.74 L8.77,0.74 L8.72,0.74 L8.68,0.74 L8.64,0.74 L8.59,0.74 L8.55,0.74 L8.5,0.74 L8.46,0.74 L8.42,0.74 L8.37,0.74 L7,0.71 C6.92,0.71 6.85,0.74 6.76,0.74 L6.72,0.74 L6.67,0.74 L6.63,0.74 L6.58,0.74 L6.54,0.74 L6.5,0.74 L6.45,0.74 L6.41,0.74 L6.36,0.74 L6.32,0.74 L6.28,0.74 L6.23,0.74 L6.19,0.74 L6.14,0.74 L6.1,0.74 L6.05,0.74 L6.01,0.74 L5.99,0.74 L5.97,0.74 L5.94,0.74 L5.92,0.74 L5.9,0.74 L5.88,0.74 L5.86,0.74 L5.83,0.74 L5.81,0.74 L5.79,0.74 L5.77,0.74 L5.75,0.74 L5.72,0.74 L5.7,0.74 L5.68,0.74 L5.66,0.74 L5.64,0.74 L5.61,0.74 L5.59,0.74 L5.57,0.74 L5.55,0.74 L5.53,0.74 L5.5,0.74 L5.48,0.74 L5.46,0.74 L5.44,0.76 L5.41,0.78 L5.39,0.8 L5.37,0.82 L5.35,0.85 L5.33,0.87 L5.3,0.89 L5.28,0.91 L5.26,0.94 L5.24,0.96 L5.22,0.98 L5.19,1 L5.17,1.02 L5.15,1.05 L5.13,1.07 L5.11,1.09 L5.06,1.11 C3.05,2 1.58,3.94 0.58,6.91 L2.37,6.93 C2.37,6.84 2.48,6.55 2.68,6.09 C2.88,5.6 3.27,5.01 3.85,4.28 C4.86,3.63 5.5,3.1 6.23,2.77 L6.23,2.77 Z M9.12,6.51 C9.32,6.42 9.63,6.24 10.03,6.05 C10.42,5.82 10.89,5.58 11.39,5.34 C11.9,5.07 12.45,4.83 13.03,4.56 L10.89,3.66 C10.4,3.88 9.89,4.12 9.36,4.43 C8.84,4.74 8.5,4.92 8.39,4.98 C8.33,4.94 8.26,4.92 8.17,4.87 C8.08,4.83 8.02,4.81 7.93,4.78 C7.84,4.76 7.75,4.74 7.67,4.72 C7.58,4.7 7.49,4.7 7.42,4.7 L7.42,4.7 L7.42,4.7 C6.96,4.7 6.54,4.87 6.21,5.21 C5.88,5.54 5.7,5.94 5.7,6.42 L5.7,6.42 L5.7,6.42 C5.7,6.89 5.88,7.31 6.21,7.64 C6.54,7.97 6.94,8.15 7.42,8.15 L7.42,8.15 C7.86,8.15 8.24,7.97 8.57,7.66 C8.9,7.31 9.08,6.93 9.12,6.51 L9.12,6.51 Z M17.04,2.97 C18.85,2.2 20.44,2.13 21.81,2.75 C23.27,3.44 24.41,4.85 25.23,7.02 L27.02,7 C27,6.86 26.93,6.69 26.86,6.47 C26.8,6.24 26.62,5.85 26.38,5.34 C26.14,4.81 25.85,4.3 25.54,3.83 C25.23,3.37 24.81,2.88 24.26,2.37 C23.73,1.86 23.16,1.49 22.54,1.2 C20.64,0.36 18.54,0.43 16.25,1.4 C16.14,1.44 16.03,1.49 15.94,1.53 C15.83,1.58 15.72,1.62 15.61,1.69 C15.48,1.73 15.39,1.78 15.34,1.8 C15.28,1.82 15.19,1.86 15.01,1.93 C14.86,2 14.75,2.04 14.73,2.06 L14.73,2.06 C14.73,2.06 15.45,2.35 16.93,2.93 L16.96,2.95 L17.04,2.97 Z M21.81,24.83 C20.42,25.47 18.79,25.4 16.93,24.61 C14.31,23.48 12.23,22.57 10.71,21.86 C10.71,21.64 10.64,21.42 10.56,21.22 C10.47,21.02 10.34,20.85 10.18,20.69 C10.03,20.54 9.85,20.43 9.65,20.34 C9.45,20.25 9.23,20.2 9.01,20.2 L9.01,20.2 C8.84,20.2 8.64,20.23 8.48,20.29 C8.31,20.36 8.15,20.43 8.02,20.54 C7.89,20.65 7.75,20.76 7.64,20.91 C7.53,21.05 7.47,21.2 7.4,21.38 C7.33,21.55 7.31,21.73 7.31,21.91 L7.31,21.91 L7.31,21.91 C7.31,22.22 7.38,22.51 7.53,22.77 C7.69,23.04 7.89,23.24 8.15,23.39 C8.42,23.55 8.7,23.61 9.01,23.61 L9.01,23.61 C9.32,23.61 9.61,23.52 9.87,23.37 C11.66,24.19 13.8,25.12 16.25,26.18 C18.54,27.17 20.64,27.24 22.54,26.38 C24.55,25.47 26.05,23.55 27.02,20.58 L25.23,20.56 C25.23,20.56 25.23,20.56 25.23,20.58 C25.19,20.71 25.12,20.87 25.05,21.02 C24.99,21.18 24.86,21.47 24.66,21.86 C24.46,22.26 24.24,22.62 23.99,22.95 C23.75,23.28 23.44,23.61 23.05,23.99 C22.67,24.34 22.25,24.63 21.81,24.83 L21.81,24.83 Z M18.94,21.09 C18.81,21.16 18.65,21.22 18.48,21.33 C18.3,21.42 18.13,21.51 17.97,21.6 C17.82,21.69 17.62,21.8 17.4,21.91 C17.18,22.02 16.96,22.13 16.73,22.26 C16.51,22.39 16.25,22.51 15.96,22.64 C15.68,22.77 15.37,22.93 15.06,23.06 L17.2,23.97 C17.55,23.81 17.9,23.63 18.21,23.48 C18.52,23.32 18.81,23.15 19.07,22.99 C19.34,22.84 19.54,22.73 19.71,22.64 C19.8,22.7 19.91,22.75 20,22.79 C20.11,22.84 20.22,22.86 20.33,22.88 C20.44,22.9 20.55,22.93 20.68,22.93 L20.68,22.93 C20.99,22.93 21.28,22.86 21.55,22.7 C21.81,22.55 22.01,22.35 22.16,22.09 C22.32,21.82 22.38,21.53 22.38,21.22 L22.38,21.22 L22.38,21.22 C22.38,20.76 22.21,20.34 21.88,20.01 C21.55,19.67 21.15,19.5 20.66,19.5 L20.66,19.5 C20.38,19.5 20.11,19.56 19.85,19.72 C19.58,19.87 19.38,20.05 19.23,20.29 C19.05,20.54 18.96,20.8 18.94,21.09 L18.94,21.09 Z M11,24.61 C9.19,25.38 7.6,25.45 6.23,24.83 C5.68,24.59 5.19,24.23 4.73,23.79 C4.27,23.35 3.91,22.88 3.65,22.37 C3.38,21.89 3.19,21.51 3.08,21.27 C2.97,21.02 2.88,20.8 2.81,20.6 C2.81,20.58 2.81,20.58 2.81,20.58 L1.02,20.6 C2.02,23.57 3.52,25.49 5.5,26.4 C7.4,27.24 9.5,27.17 11.79,26.2 C12.06,26.09 12.56,25.87 13.31,25.54 L12.34,25.16 L12.32,25.16 L12.3,25.16 L12.28,25.16 L12.26,25.16 L12.23,25.16 L12.21,25.16 L12.19,25.16 L12.17,25.16 L12.15,25.16 L12.12,25.16 L12.1,25.16 L12.08,25.16 L12.06,25.16 L12.03,25.16 L12.01,25.16 L11.99,25.16 L11.97,25.16 L11.95,25.16 L11.92,25.16 L11.9,25.16 L11.88,25.16 L11.86,25.16 L11.84,25.16 L11.81,25.16 L11.79,25.14 L11.77,25.12 L11.75,25.09 L11.59,24.85 L11.57,24.83 L11.55,24.81 L11.53,24.78 L11.51,24.76 L11.48,24.74 L11.46,24.72 L11.44,24.7 L11.42,24.67 L11.39,24.65 L11.37,24.63 L11.35,24.61 L11.33,24.59 L11.31,24.56 L11.28,24.54 L11.26,24.52 L11.24,24.5 L11.22,24.47 L11.2,24.45 L11,24.61 L11,24.61 Z" id="Shape"></path>
            </g>
        </g>
    </g>
</svg>