<svg width="20px" height="20px" viewBox="0 0 41 41" xmlns="http://www.w3.org/2000/svg" xmlns:xlink="http://www.w3.org/1999/xlink">
    <g stroke="none" stroke-width="1" fill="none" fill-rule="evenodd">
        <g transform="translate(1.000000, 1.000000)">
            <g stroke="#00C1DE" stroke-width="1.6">
                <rect fill="#FFFFFF" fill-rule="nonzero" x="0.6" y="0.6" width="38.4" height="38.4" rx="8"></rect>
                <rect x="0.6" y="0.6" width="38.4" height="38.4" rx="8"></rect>
            </g>
            <g transform="translate(6.500000, 10.500000)" fill="#00C1DE" fill-rule="nonzero">
                <path d="M16.35,12.49 C16.16,12.39 16.08,12.22 16.08,12.01 L16.08,12.01 L16.08,8.03 C16.08,7.93 16.1,7.84 16.16,7.76 C16.22,7.68 16.29,7.61 16.37,7.55 C16.56,7.44 16.75,7.44 16.94,7.55 L20.39,9.55 C20.48,9.59 20.54,9.67 20.6,9.76 C20.65,9.84 20.69,9.95 20.69,10.03 L20.69,10.03 C20.69,10.24 20.6,10.41 20.41,10.51 L16.96,12.51 C16.92,12.53 16.88,12.55 16.81,12.55 C16.75,12.55 16.71,12.58 16.66,12.58 C16.54,12.55 16.43,12.53 16.35,12.49 L16.35,12.49 Z M27.24,9.74 C27.24,9.65 27.24,9.55 27.24,9.46 C27.24,8.43 26.99,7.28 26.48,6.01 C25.98,4.75 25.37,3.74 24.65,3.01 C23.91,2.23 22.88,1.54 21.59,0.97 C20.31,0.4 19.11,0.11 18.03,0.08 C16.96,0.06 15.91,0.21 14.87,0.55 C13.86,0.88 12.92,1.37 12.07,2.02 C11.23,2.67 10.49,3.45 9.9,4.37 L9.71,4.67 L9.42,4.5 C9.38,4.48 9.33,4.46 9.29,4.44 C9.23,4.42 9.19,4.4 9.14,4.4 C8.77,4.33 8.39,4.31 8.01,4.31 C5.9,4.31 4.11,5.05 2.61,6.54 C1.1,8.03 0.36,9.82 0.36,11.92 C0.36,14.03 1.1,15.81 2.59,17.31 C4.09,18.8 5.88,19.54 7.99,19.54 C9.36,19.54 10.62,19.2 11.78,18.53 C12.94,17.85 13.86,16.93 14.56,15.77 L12.07,15.77 C11.84,16 11.57,16.23 11.23,16.44 C10.89,16.66 10.56,16.84 10.2,16.99 C9.84,17.14 9.46,17.27 9.08,17.37 C8.7,17.45 8.34,17.52 8.01,17.52 L8.01,17.52 C6.45,17.52 5.14,16.97 4.03,15.88 C2.93,14.78 2.38,13.46 2.38,11.9 C2.38,10.35 2.93,9.04 4.03,7.93 C5.12,6.81 6.45,6.29 8.01,6.29 C8.18,6.29 8.34,6.29 8.47,6.31 L8.89,6.35 L8.77,6.75 C8.66,7.07 8.58,7.47 8.49,7.93 C8.41,8.39 8.37,8.79 8.34,9.13 L8.34,9.51 L8.34,12.01 L10.98,9.36 C11,8.58 11.21,7.72 11.61,6.79 C12.01,5.87 12.51,5.13 13.08,4.59 C14.43,3.3 16.05,2.67 17.95,2.69 C18.33,2.69 18.75,2.76 19.19,2.88 C19.64,3.01 20.08,3.16 20.5,3.34 C20.92,3.53 21.34,3.74 21.72,4.02 C22.1,4.27 22.44,4.54 22.71,4.82 C23.05,5.17 23.36,5.62 23.66,6.16 C23.95,6.71 24.19,7.28 24.35,7.87 C24.52,8.45 24.61,9 24.61,9.48 C24.61,9.55 24.61,9.59 24.61,9.65 C24.59,10.83 24.27,11.92 23.68,12.93 C23.09,13.94 22.27,14.74 21.28,15.35 C20.27,15.96 19.17,16.28 17.99,16.3 L16.16,18.93 L17.97,18.93 C20.52,18.88 22.67,17.98 24.46,16.19 C26.25,14.45 27.18,12.28 27.24,9.74 L27.24,9.74 Z" id="Shape"></path>
            </g>
        </g>
    </g>
</svg>