<svg width="20px" height="20px" viewBox="0 0 41 41" xmlns="http://www.w3.org/2000/svg" xmlns:xlink="http://www.w3.org/1999/xlink">
    <g stroke="none" stroke-width="1" fill="none" fill-rule="evenodd">
        <g transform="translate(1.000000, 1.000000)">
            <g stroke="#00C1DE" stroke-width="1.6">
                <rect fill="#FFFFFF" fill-rule="nonzero" x="0.6" y="0.6" width="38.4" height="38.4" rx="8"></rect>
                <rect x="0.6" y="0.6" width="38.4" height="38.4" rx="8"></rect>
            </g>
            <g transform="translate(6.500000, 7.500000)" fill="#00C1DE" fill-rule="nonzero">
                <path d="M9.23,18.24 C9.21,18.24 9.17,18.24 9.15,18.24 C9.13,18.24 9.08,18.24 9.06,18.22 C9.04,18.22 9,18.2 8.98,18.2 C8.96,18.2 8.94,18.18 8.9,18.18 C8.88,18.16 8.85,18.16 8.81,18.14 C8.56,17.99 8.42,17.77 8.42,17.47 L8.42,12.02 C8.42,11.81 8.5,11.62 8.65,11.48 C8.79,11.33 8.98,11.25 9.19,11.25 C9.33,11.25 9.46,11.29 9.56,11.35 L14.29,14.08 C14.54,14.23 14.68,14.46 14.68,14.75 C14.68,15.04 14.56,15.27 14.31,15.41 L9.58,18.14 C9.48,18.2 9.33,18.24 9.23,18.24 L9.23,18.24 Z M17.97,16.37 L21.76,16.37 C21.26,18.91 19.97,21.01 17.95,22.66 C15.91,24.3 13.58,25.09 10.94,25.03 C9.48,24.99 8.08,24.68 6.77,24.07 C5.46,23.47 4.32,22.68 3.38,21.7 C2.44,20.72 1.69,19.56 1.15,18.2 C0.61,16.85 0.36,15.45 0.38,14 C0.4,12.85 0.61,11.75 0.96,10.69 C1.32,9.63 1.84,8.67 2.5,7.79 C3.15,6.94 3.92,6.19 4.77,5.54 C5.63,4.9 6.61,4.4 7.67,4.02 C8.73,3.67 9.83,3.48 10.96,3.46 L13.69,3.46 L11.19,7.15 C10.25,7.15 9.33,7.33 8.46,7.69 C7.58,8.04 6.84,8.54 6.21,9.17 C5.59,9.79 5.07,10.52 4.69,11.37 C4.32,12.23 4.11,13.14 4.09,14.08 C4.05,16.04 4.69,17.72 6.06,19.16 C7.42,20.58 9.08,21.3 11.04,21.35 C12.64,21.39 14.08,20.93 15.37,19.99 C16.64,19.08 17.52,17.87 17.97,16.37 L17.97,16.37 Z M18.43,13.58 C18.33,12.39 17.89,11.12 17.12,9.81 C16.35,8.5 15.46,7.5 14.46,6.86 L15.56,5.48 C16.43,6.09 17.2,6.77 17.87,7.61 C18.54,8.42 19.08,9.33 19.47,10.33 C19.87,11.33 20.12,12.37 20.2,13.46 L18.43,13.58 Z M22.03,13.16 C21.95,11.98 21.68,10.81 21.22,9.71 C20.79,8.6 20.2,7.61 19.47,6.69 C18.75,5.79 17.91,5 16.95,4.34 L18.06,2.96 C18.7,3.42 19.31,3.92 19.87,4.48 C20.43,5.04 20.93,5.65 21.39,6.29 C21.85,6.94 22.24,7.63 22.58,8.36 C22.91,9.06 23.18,9.83 23.39,10.62 C23.6,11.42 23.74,12.23 23.8,13.04 L22.03,13.16 Z M25.47,12.58 C25.3,10.42 24.68,8.4 23.62,6.52 C22.53,4.65 21.14,3.11 19.41,1.88 L20.51,0.51 C22.45,1.9 23.99,3.63 25.18,5.71 C26.37,7.79 27.05,10.04 27.24,12.46 L25.47,12.58 Z" id="Shape"></path>
            </g>
        </g>
    </g>
</svg>