<svg xmlns="http://www.w3.org/2000/svg" x="0" y="0" height="20px" width="20px" viewBox="0 0 50 50">
	<rect x="3" fill="#7FBA00" width="40.205" height="50"></rect>
	<rect x="19.19" y="4.915" width="18.921" height="11.888"></rect>
	<rect x="43.205" y="3.846" fill="#FCD116" width="4.501" height="8.577"></rect>
	<rect x="43.205" y="16.084" fill="#FCD116" width="4.501" height="22.825"></rect>
	<rect x="20.809" y="31.718" width="3.243" height="13.391"></rect>
	<rect x="15.565" y="31.718" width="3.243" height="13.391"></rect>
	<polygon opacity="0.2" points="17.636,37.365 11.492,37.365 11.492,11.908 19.734,11.908 19.734,14.006 13.59,14.006 13.59,35.267 17.636,35.267"></polygon>
	<polygon opacity="0.2" points="15.538,42.61 7.296,42.61 7.296,7.713 20.783,7.713 20.783,9.811 9.394,9.811 9.394,40.512 15.538,40.512"></polygon>
	<polygon opacity="0.2" points="33.12,40.144 27.058,40.144 27.058,22.834 31.798,22.834 31.798,15.035 33.896,15.035 33.896,24.932 29.156,24.932 29.156,38.046 33.12,38.046"></polygon>
	<path fill="#E5E5E5" d="M23.003,24.11c0,1.343-1.089,2.431-2.431,2.431l0,0c-1.343,0-2.431-1.089-2.431-2.431l0,0 c0-1.343,1.089-2.431,2.431-2.431l0,0C21.915,21.678,23.003,22.767,23.003,24.11L23.003,24.11z"></path>
	<rect x="32.846" y="32.343" fill="#E5E5E5" width="4.322" height="12.365"></rect>
</svg>