<svg xmlns="http://www.w3.org/2000/svg" x="0" y="0" height="20px" width="20px" viewBox="0 0 50 50">
	<style type="text/css">
		.st0 {
			fill: #59B4D9;
		}

		.st1 {
			opacity: 0.2;
			fill: #FFFFFF;
			enable-background: new;
		}

		.st2 {
			fill: #A0A1A2;
		}
	</style>
	<path class="st0" d="M43,15.9c0,4.9-3.9,8.8-8.8,8.8s-8.8-3.9-8.8-8.8c0.1-4.9,4-8.8,8.8-8.8C39.1,7.1,43,11,43,15.9"></path>
	<polygon class="st0" points="40.6,27.8 34.2,36.8 27.8,27.8 18.5,27.8 18.5,50 50,50 50,27.8"></polygon>
	<path class="st1" d="M25.5,15.9c0,4.8,3.9,8.7,8.6,8.8l2.2-17.3c-0.7-0.3-1.4-0.3-2.1-0.3C29.4,7.1,25.5,11,25.5,15.9"></path>
	<polygon class="st1" points="27.8,27.8 18.5,27.8 18.5,50 30.9,50 32.8,34.7"></polygon>
	<polygon class="st2" points="5.6,18.4 10.5,23.6 6.5,23.6 0,16.9 6.5,10.2 10.5,10.2 5.6,15.3 20,15.3 20,18.4"></polygon>
	<polygon class="st2" points="20,0 20,18.4 16.9,18.4 16.9,0"></polygon>
</svg>