<svg xmlns="http://www.w3.org/2000/svg" xmlns:xlink="http://www.w3.org/1999/xlink" x="0" y="0" width="20px" height="20px" viewBox="0 0 161.9 162" xml:space="preserve">
<path fill="#312D2A" d="M85.9,38.1l19.9,87.4h-14L81.6,63.7c-0.1-0.5-0.8-0.5-0.9,0l-10.8,61.8H56l19.9-87.4H85.9 M93.6,29.1h-7.7  h-10h-7.7L45.4,134.4H56h14H78l2.9-49.7l2.8,49.7h8.1h14h10.5L93.6,29.1L93.6,29.1z"></path>
<polygon fill="none" stroke="#312D2A" stroke-width="9" stroke-miterlimit="10" points="13.5,60.1 13.5,97.1 36.9,118.2 37.1,39.4   "></polygon>
<polygon fill="none" stroke="#312D2A" stroke-width="9" stroke-miterlimit="10" points="148.2,60.1 148.2,97.1 124.8,118.2   124.6,39.4 "></polygon>
</svg>