<svg xmlns="http://www.w3.org/2000/svg" xmlns:xlink="http://www.w3.org/1999/xlink" x="0" y="0" width="20px" height="20px" viewBox="0 0 161.9 162" xml:space="preserve">
<path fill="#312D2A" d="M133.7,57.9l0.1-25.3l-40.2-0.2l-0.2,59.3l40.2,0.2l0.1-25l10.2,0v53.5H18V66.6L29,66.5l-0.1,25.1l40.2,0.2  l0-10.2l11.9,0V64.7H69.3l0-6.2l11.8,0V41.5H69.4l0-9.1l-40.2-0.2l-0.1,25.2L9,57.7v71.8h143.9V58L133.7,57.9z M124.6,82.9  l-22.2-0.1l0.2-41.3l22.2,0.1L124.6,82.9z M76.1,69.7v6.9l-6.9,0l0-6.9H76.1z M76.1,46.5v6.9l-6.8,0l0-6.9H76.1z M38.1,41.3  l22.2,0.1l-0.2,41.3L38,82.6L38.1,41.3z"></path>
</svg>