<svg xmlns="http://www.w3.org/2000/svg" xmlns:xlink="http://www.w3.org/1999/xlink" x="0" y="0" height="20px" width="20px" viewBox="0 0 75 75">
<defs>
<linearGradient id="RedGradient-cdc56bd0-54e3-4dfe-b3a1-3e58e61f0af5" x1="-200.47" y1="-226.47" x2="-306.53" y2="-332.53" gradientTransform="translate(-242 291) rotate(90)" gradientUnits="userSpaceOnUse">
<stop offset="0" stop-color="#bd0816"></stop>
<stop offset="1" stop-color="#ff5252"></stop>
</linearGradient>
</defs>
<g>
<rect data-name="Red Gradient" style="fill:url(#RedGradient-cdc56bd0-54e3-4dfe-b3a1-3e58e61f0af5);" width="75" height="75"></rect>
<g data-name="Icon Test">
<path fill="#fff" d="M37.5,62.5a1,1,0,0,1-.71-.29l-6-6a1,1,0,0,1-.21-1.09,1,1,0,0,1,.92-.62h3v-4h2v5a1,1,0,0,1-1,1H33.92l3.58,3.59,3.59-3.59H39.5a1,1,0,0,1-1-1v-5h2v4h3a1,1,0,0,1,.93.62,1,1,0,0,1-.22,1.09l-6,6A1,1,0,0,1,37.5,62.5Z"></path>
<path fill="#fff" d="M49.5,49.5h-22a1,1,0,0,1-1-1v-28a1,1,0,0,1,1-1h15v2h-14v26h20v-20h2v21A1,1,0,0,1,49.5,49.5Z"></path>
<rect fill="#fff" x="30.5" y="31.5" width="16" height="2"></rect>
<rect fill="#fff" x="30.5" y="35.5" width="5" height="2"></rect>
<rect fill="#fff" x="30.5" y="39.5" width="10" height="2"></rect>
<rect fill="#fff" x="30.5" y="26.5" width="8" height="2"></rect>
<path fill="#fff" d="M43.75,61.71l-.5-1.94a23,23,0,1,0-11.5,0l-.5,1.94a25,25,0,1,1,12.5,0Z"></path>
<path fill="#fff" d="M49.5,28.5h-7a1,1,0,0,1-1-1v-7a1,1,0,0,1,.62-.92,1,1,0,0,1,1.09.21l7,7a1,1,0,0,1,.22,1.09A1,1,0,0,1,49.5,28.5Zm-6-2h3.59L43.5,22.91Z"></path>
</g>
</g>
</svg>