<svg xmlns="http://www.w3.org/2000/svg" xmlns:xlink="http://www.w3.org/1999/xlink" x="0" y="0" height="20px" width="20px" viewBox="0 0 75 75">
<defs>
<linearGradient id="RedGradient-44d2b9f5-31b9-4066-97f2-7527db6a1ab0" x1="-2436.76" y1="961.37" x2="-2436.76" y2="1111.37" gradientTransform="translate(-2418.37 -952.72) rotate(-135)" gradientUnits="userSpaceOnUse">
<stop offset="0" stop-color="#bd0816"></stop>
<stop offset="1" stop-color="#ff5252"></stop>
</linearGradient>
</defs>
<g>
<rect data-name="Red Gradient" style="fill:url(#RedGradient-44d2b9f5-31b9-4066-97f2-7527db6a1ab0);" width="75" height="75"></rect>
<g data-name="Icon Test">
<path fill="#fff" d="M24.5,62a1,1,0,0,1-.75-.34l-3.5-4A1,1,0,0,1,20,57V54.42l-2.71-2.71a1,1,0,0,1,0-1.42L20,47.59V46.42l-2.71-2.71a1,1,0,0,1,0-1.42L20,39.59V37.17a12.45,12.45,0,0,1-8-11.82,12.5,12.5,0,0,1,25,.15,12.43,12.43,0,0,1-8,11.66V58a1,1,0,0,1-.35.76l-3.5,3A1,1,0,0,1,24.5,62ZM22,56.62l2.6,3L27,57.54V36.45a1,1,0,0,1,.7-1,10.49,10.49,0,1,0-6.43,0,1,1,0,0,1,.73,1V40a1,1,0,0,1-.29.71L19.42,43l2.29,2.29A1,1,0,0,1,22,46v2a1,1,0,0,1-.29.7L19.42,51l2.29,2.29A1,1,0,0,1,22,54ZM24.5,26.5A4.5,4.5,0,1,1,29,22,4.51,4.51,0,0,1,24.5,26.5Zm0-7A2.5,2.5,0,1,0,27,22,2.5,2.5,0,0,0,24.5,19.5Z"></path>
<path fill="#fff" d="M61.09,55H31V53H61V31H39V29H61.09A1.9,1.9,0,0,1,63,30.87V53.13A1.9,1.9,0,0,1,61.09,55Z"></path>
<path fill="#fff" d="M34.5,45.5a4,4,0,1,1,4-4A4,4,0,0,1,34.5,45.5Zm0-6a2,2,0,1,0,2,2A2,2,0,0,0,34.5,39.5Z"></path>
<path fill="#fff" d="M44.5,45.5a4,4,0,1,1,4-4A4,4,0,0,1,44.5,45.5Zm0-6a2,2,0,1,0,2,2A2,2,0,0,0,44.5,39.5Z"></path>
<rect fill="#fff" x="31" y="48" width="7" height="2"></rect>
<rect fill="#fff" x="41" y="48" width="7" height="2"></rect>
<rect fill="#fff" x="51" y="48" width="7" height="2"></rect>
</g>
</g>
</svg>