<svg xmlns="http://www.w3.org/2000/svg" xmlns:xlink="http://www.w3.org/1999/xlink" x="0" y="0" height="20px" width="20px" viewBox="0 0 75 75">
<defs>
<linearGradient id="PurpleGradient-E96F0CB4-169F-406F-81D3-A87113BB9CEC" x1="622.53" y1="-41.53" x2="516.46" y2="64.54" gradientTransform="translate(607 49) rotate(180)" gradientUnits="userSpaceOnUse">
<stop offset="0" stop-color="#4d27a8"></stop>
<stop offset="1" stop-color="#a166ff"></stop>
</linearGradient>
</defs>
<g>
<rect data-name="Purple Gradient" style="fill:url(#PurpleGradient-E96F0CB4-169F-406F-81D3-A87113BB9CEC);" width="75" height="75"></rect>
<g data-name="Icon Test">
<path fill="#fff" d="M22.5,27.25h-9a1,1,0,0,0-1,1v32a1,1,0,0,0,1,1h9a1,1,0,0,0,1-1v-32A1,1,0,0,0,22.5,27.25Zm-1,32h-7v-30h7Z"></path>
<path fill="#fff" d="M36.5,54.67v5.58a1,1,0,0,1-1,1h-9a1,1,0,0,1-1-1V43a14.74,14.74,0,0,0,2,5.24v11h7V54A13.55,13.55,0,0,0,36.5,54.67Z"></path>
<path fill="#fff" d="M36.5,22.25v3.54a13.55,13.55,0,0,0-2,.71V23.25h-7v9a14.74,14.74,0,0,0-2,5.24V22.25a1,1,0,0,1,1-1h9A1,1,0,0,1,36.5,22.25Z"></path>
<path fill="#fff" d="M47.5,55.47v3.78h-7v-4h0a14.71,14.71,0,0,1-2-.13v5.13a1,1,0,0,0,1,1h9a1,1,0,0,0,1-1V57.47Zm1-42.22h-9a1,1,0,0,0-1,1V25.38a14.42,14.42,0,0,1,2-.13h0v-10h7V27a14.44,14.44,0,0,1,2,1.28v-14A1,1,0,0,0,48.5,13.25Z"></path>
<path fill="#fff" d="M61.5,18.25h-9a1,1,0,0,0-1,1V30.09a14.58,14.58,0,0,1,2,2.74V20.25h7V51l2,2V19.25A1,1,0,0,0,61.5,18.25Z"></path>
<path fill="#fff" d="M61.29,54.65l-9-9a13,13,0,1,0-5.74,6.07l8.85,8.84a4.16,4.16,0,0,0,5.89-5.88ZM29.5,40.23a11,11,0,1,1,11,11A11,11,0,0,1,29.5,40.23ZM59.87,59.12a2.17,2.17,0,0,1-3.06,0L48.29,50.6a13.21,13.21,0,0,0,3-3.17l8.6,8.64A2.16,2.16,0,0,1,59.87,59.12Z"></path>
<path fill="#fff" d="M36.07,45a6.46,6.46,0,1,1,7.69-10.38l-1.19,1.61a4.46,4.46,0,1,0-5.31,7.17Z"></path>
</g>
</g>
</svg>