<svg width="20px" height="20px" viewBox="0 0 41 41" xmlns="http://www.w3.org/2000/svg" xmlns:xlink="http://www.w3.org/1999/xlink">
    <g stroke="none" stroke-width="1" fill="none" fill-rule="evenodd">
        <g transform="translate(1.000000, 1.000000)">
            <g stroke="#00C1DE" stroke-width="1.6">
                <rect fill="#FFFFFF" fill-rule="nonzero" x="0.6" y="0.6" width="38.4" height="38.4" rx="8"></rect>
                <rect x="0.6" y="0.6" width="38.4" height="38.4" rx="8"></rect>
            </g>
            <g transform="translate(6.500000, 7.500000)" fill="#00C1DE" fill-rule="nonzero">
                <path d="M11.39,20.24 C11.39,20.94 11.63,21.54 12.13,22.04 C12.64,22.55 13.23,22.79 13.93,22.79 C14.63,22.79 15.23,22.55 15.73,22.04 C16.23,21.54 16.47,20.94 16.47,20.24 C16.47,19.54 16.23,18.94 15.73,18.44 C15.23,17.93 14.63,17.69 13.93,17.69 C13.82,17.69 13.73,17.69 13.62,17.71 C13.51,17.73 13.43,17.73 13.32,17.78 C12.7,16.66 12,15.43 11.26,14.06 C10.51,12.7 9.83,11.51 9.24,10.44 C8.65,9.38 8.34,8.83 8.32,8.79 C8.23,8.66 8.14,8.55 8.01,8.48 C7.88,8.42 7.75,8.37 7.6,8.37 C7.44,8.37 7.31,8.42 7.16,8.48 C6.63,8.79 6.04,8.97 5.42,8.97 C5.07,8.97 4.7,8.9 4.33,8.75 C3.93,8.59 3.58,8.39 3.25,8.13 C2.93,7.87 2.68,7.6 2.51,7.3 C2.42,7.14 2.33,6.97 2.27,6.77 C2.2,6.57 2.14,6.35 2.09,6.13 C2.05,5.91 2.03,5.71 2.03,5.56 C2.03,5.27 2.07,4.99 2.14,4.72 C2.22,4.35 2.42,3.96 2.73,3.54 C3.03,3.12 3.36,2.83 3.69,2.64 C4.22,2.33 4.81,2.15 5.42,2.15 C5.69,2.15 5.97,2.2 6.26,2.28 C6.54,2.37 6.83,2.48 7.09,2.64 C7.35,2.79 7.6,2.97 7.81,3.16 C8.03,3.36 8.21,3.58 8.36,3.82 C8.47,4.02 8.65,4.15 8.89,4.22 C9.11,4.28 9.33,4.24 9.55,4.13 C9.74,4.02 9.88,3.85 9.94,3.6 C10.01,3.38 9.96,3.16 9.85,2.94 C9.13,1.74 8.1,0.94 6.72,0.59 C5.34,0.24 4.07,0.44 2.86,1.16 C2.66,1.27 2.46,1.43 2.25,1.6 C2.05,1.78 1.85,1.98 1.68,2.2 C1.5,2.42 1.32,2.64 1.17,2.88 C1.02,3.12 0.89,3.36 0.78,3.6 C0.67,3.85 0.58,4.09 0.51,4.31 C0.4,4.72 0.36,5.14 0.36,5.58 C0.36,5.98 0.43,6.42 0.58,6.92 C0.73,7.43 0.89,7.84 1.08,8.2 C1.39,8.72 1.79,9.19 2.25,9.56 C2.71,9.93 3.23,10.22 3.78,10.42 C4.33,10.61 4.9,10.7 5.49,10.7 C6.04,10.7 6.61,10.61 7.18,10.42 L11.96,18.74 C11.56,19.16 11.39,19.65 11.39,20.24 L11.39,20.24 L11.39,20.24 Z M17.15,16.24 L21.85,8.06 C21.93,8.06 22,8.09 22.09,8.09 C22.79,8.09 23.4,7.84 23.89,7.34 C24.39,6.83 24.63,6.24 24.63,5.54 C24.63,5.08 24.52,4.66 24.28,4.26 C24.06,3.87 23.75,3.56 23.36,3.34 C22.96,3.12 22.55,2.99 22.09,2.99 C21.39,2.99 20.79,3.23 20.29,3.74 C19.79,4.24 19.54,4.83 19.54,5.54 C19.54,5.82 19.61,6.15 19.76,6.5 C19.92,6.86 20.09,7.14 20.29,7.34 C18.6,10.24 16.91,13.14 15.23,16.06 C15.2,16.11 15.18,16.17 15.16,16.26 C15.14,16.35 15.14,16.41 15.14,16.48 C15.14,16.81 15.29,17.07 15.58,17.23 C16.41,17.67 16.96,18.35 17.22,19.27 C17.48,20.17 17.4,21.05 16.94,21.89 C16.89,21.97 16.83,22.08 16.74,22.17 C16.65,22.26 16.58,22.37 16.5,22.46 C16.41,22.55 16.32,22.66 16.21,22.74 C16.1,22.83 16.01,22.92 15.9,23.01 C15.8,23.1 15.69,23.16 15.58,23.23 C15.47,23.29 15.36,23.36 15.25,23.4 C15.14,23.45 15.03,23.49 14.92,23.53 C14.61,23.62 14.28,23.69 13.95,23.69 C13.8,23.69 13.62,23.67 13.43,23.62 C13.23,23.58 13.03,23.53 12.84,23.47 C12.64,23.4 12.48,23.34 12.33,23.25 C11.98,23.05 11.65,22.77 11.34,22.37 C11.02,21.97 10.82,21.58 10.69,21.21 C10.6,20.9 10.53,20.57 10.53,20.24 C10.53,19.67 10.66,19.12 10.95,18.61 C11.02,18.48 11.06,18.35 11.06,18.19 C11.06,18.06 11.02,17.91 10.93,17.78 C10.84,17.62 10.73,17.51 10.62,17.45 L10.2,17.34 C9.88,17.34 9.61,17.49 9.46,17.78 C8.78,19.01 8.65,20.3 9.04,21.69 C9.2,22.26 9.52,22.83 10.01,23.42 C10.49,24.02 10.97,24.46 11.5,24.74 C12.27,25.16 13.08,25.36 13.93,25.36 C14.09,25.36 14.26,25.36 14.41,25.34 C14.57,25.31 14.74,25.29 14.9,25.27 C15.05,25.25 15.23,25.2 15.38,25.16 C15.95,25.01 16.52,24.68 17.11,24.19 C17.7,23.71 18.14,23.23 18.43,22.7 C18.82,21.97 19.04,21.21 19.06,20.41 C19.08,19.6 18.93,18.83 18.6,18.13 C18.27,17.43 17.77,16.77 17.15,16.24 L17.15,16.24 Z M25.57,1.76 C25.38,1.58 25.14,1.41 24.85,1.23 C24.57,1.05 24.26,0.92 23.95,0.79 C23.64,0.66 23.32,0.57 23.01,0.51 C22.68,0.44 22.39,0.4 22.11,0.4 C22.04,0.4 21.98,0.4 21.91,0.4 C20.86,0.44 19.85,0.83 18.86,1.58 C18.67,1.74 18.49,1.89 18.36,2.04 C18.05,2.37 17.79,2.79 17.53,3.32 C17.26,3.85 17.11,4.33 17.04,4.77 L7.86,4.77 C7.7,4.26 7.4,3.85 6.92,3.47 C6.43,3.12 5.93,2.94 5.42,2.94 L5.4,2.94 C4.7,2.94 4.11,3.19 3.6,3.69 C3.1,4.2 2.86,4.79 2.86,5.49 C2.86,6.2 3.1,6.79 3.6,7.3 C4.11,7.8 4.7,8.04 5.4,8.04 L5.4,8.04 C5.86,8.04 6.35,7.89 6.81,7.58 C7.27,7.27 7.6,6.9 7.77,6.46 C8.25,6.46 8.82,6.46 9.46,6.46 C10.09,6.46 10.71,6.46 11.34,6.46 C11.96,6.46 12.59,6.46 13.23,6.46 C13.87,6.46 14.46,6.46 15.01,6.46 C15.55,6.46 16.04,6.46 16.47,6.46 C16.91,6.46 17.24,6.46 17.51,6.46 C17.77,6.46 17.9,6.46 17.9,6.46 C17.99,6.46 18.08,6.44 18.16,6.42 C18.25,6.39 18.32,6.35 18.38,6.28 C18.45,6.24 18.51,6.17 18.56,6.11 C18.6,6.04 18.65,5.95 18.67,5.87 C18.69,5.78 18.71,5.69 18.71,5.6 C18.71,5.6 18.71,5.6 18.71,5.58 C18.71,5.58 18.71,5.58 18.71,5.56 C18.71,5.54 18.71,5.52 18.71,5.49 C18.71,5.47 18.71,5.45 18.71,5.43 C18.71,5.05 18.8,4.66 18.97,4.2 C19.15,3.74 19.37,3.38 19.61,3.12 C19.87,2.83 20.25,2.57 20.71,2.37 C21.17,2.15 21.58,2.04 21.98,2.02 L22.11,2.02 C22.48,2.02 22.88,2.11 23.34,2.28 C23.8,2.46 24.15,2.68 24.41,2.92 C24.7,3.19 24.96,3.56 25.16,4.02 C25.38,4.48 25.49,4.9 25.51,5.3 C25.55,6.24 25.24,7.05 24.61,7.76 C23.97,8.46 23.18,8.81 22.24,8.86 C22.13,8.86 22.02,8.88 21.91,8.94 C21.8,8.99 21.71,9.05 21.65,9.14 C21.58,9.21 21.52,9.32 21.47,9.4 C21.43,9.51 21.41,9.62 21.41,9.73 L21.41,9.76 C21.41,9.87 21.43,9.98 21.47,10.09 C21.52,10.2 21.58,10.28 21.65,10.35 C21.71,10.42 21.82,10.48 21.91,10.53 C22.02,10.57 22.13,10.59 22.24,10.59 L22.28,10.59 C23.69,10.53 24.87,9.98 25.84,8.94 C26.8,7.91 27.24,6.68 27.2,5.27 C27.17,4.59 27.02,3.96 26.74,3.34 C26.47,2.77 26.08,2.24 25.57,1.76 L25.57,1.76 Z" id="Shape"></path>
            </g>
        </g>
    </g>
</svg>