<svg width="20px" height="20px" viewBox="0 0 41 41" xmlns="http://www.w3.org/2000/svg" xmlns:xlink="http://www.w3.org/1999/xlink">
    <g stroke="none" stroke-width="1" fill="none" fill-rule="evenodd">
        <g transform="translate(1.000000, 1.000000)">
            <g stroke="#00C1DE" stroke-width="1.6">
                <rect fill="#FFFFFF" fill-rule="nonzero" x="0.6" y="0.6" width="38.4" height="38.4" rx="8"></rect>
                <rect x="0.6" y="0.6" width="38.4" height="38.4" rx="8"></rect>
            </g>
            <g transform="translate(6.500000, 6.500000)" fill="#00C1DE" fill-rule="nonzero">
                <path d="M13.5,22.08 C13.19,22.12 12.81,22.23 12.36,22.42 C11.96,22.59 11.58,22.76 11.2,22.95 L10.71,23.2 C10.69,23.22 10.65,23.26 10.6,23.26 C10.58,23.29 10.54,23.29 10.52,23.31 C10.48,23.33 10.46,23.35 10.41,23.37 C10.37,23.39 10.35,23.41 10.33,23.43 L9.93,23.69 C9.76,23.79 9.61,23.88 9.48,23.94 C9.33,24.03 9.21,24.11 9.08,24.22 C8.97,24.3 8.89,24.38 8.78,24.47 C8.72,24.58 8.68,24.64 8.66,24.68 C8.66,24.81 8.85,24.98 9.21,25.23 C9.38,25.34 9.57,25.46 9.74,25.57 C9.93,25.67 10.1,25.78 10.31,25.89 C10.67,26.08 10.86,26.16 10.86,26.14 C12.3,26.86 13.27,27.24 13.78,27.24 C14.01,27.24 14.37,27.16 14.86,26.97 C15.28,26.8 15.7,26.61 16.13,26.42 L16.66,26.16 C17.91,25.57 18.63,25.1 18.84,24.77 C18.9,24.64 18.84,24.49 18.67,24.32 C18.58,24.24 18.46,24.13 18.33,24.05 C18.2,23.94 18.03,23.86 17.86,23.75 L17.14,23.37 C17.12,23.35 17.08,23.33 17.04,23.31 C17,23.29 16.93,23.26 16.87,23.22 C16.81,23.18 16.74,23.16 16.7,23.14 C15.92,22.74 15.24,22.46 14.71,22.29 C14.2,22.1 13.8,22.04 13.5,22.08 L13.5,22.08 Z M11.92,21.3 C11.98,21.19 11.92,21.04 11.75,20.9 C11.7,20.85 11.68,20.83 11.64,20.79 C11.6,20.75 11.56,20.73 11.51,20.68 C11.47,20.64 11.43,20.62 11.37,20.58 C11.32,20.54 11.26,20.51 11.2,20.47 C11.13,20.43 11.09,20.39 11.03,20.37 C10.82,20.22 10.56,20.09 10.31,19.96 C10.27,19.94 10.22,19.92 10.18,19.9 C10.14,19.88 10.1,19.86 10.05,19.84 C10.01,19.82 9.97,19.8 9.93,19.77 C9.86,19.75 9.82,19.73 9.8,19.71 C9.78,19.69 9.76,19.69 9.74,19.69 C8.97,19.31 8.32,19.01 7.79,18.84 C7.26,18.67 6.84,18.61 6.54,18.65 C5.91,18.76 4.97,19.14 3.79,19.8 C3.75,19.82 3.73,19.84 3.68,19.86 C3.66,19.86 3.64,19.88 3.62,19.88 C3.6,19.9 3.56,19.9 3.53,19.92 C3.49,19.94 3.47,19.96 3.41,19.99 C3.3,20.05 3.22,20.09 3.11,20.16 C3.03,20.22 2.92,20.26 2.82,20.32 C2.71,20.39 2.62,20.45 2.54,20.49 C2.39,20.6 2.24,20.68 2.12,20.77 C2.01,20.83 1.91,20.92 1.84,21.02 C1.8,21.06 1.78,21.11 1.76,21.15 C1.74,21.19 1.74,21.21 1.74,21.25 C1.74,21.32 1.78,21.4 1.86,21.49 C1.95,21.57 2.1,21.7 2.26,21.8 C2.37,21.89 2.5,21.95 2.6,22.04 C2.73,22.12 2.84,22.19 2.96,22.25 C3.09,22.31 3.22,22.38 3.32,22.44 C3.66,22.61 3.85,22.69 3.87,22.69 C3.89,22.71 3.94,22.74 3.98,22.74 C4.02,22.76 4.06,22.78 4.09,22.8 C4.11,22.82 4.17,22.84 4.21,22.86 C4.25,22.88 4.3,22.9 4.34,22.93 C4.38,22.95 4.44,22.97 4.49,22.99 C4.61,23.05 4.78,23.12 4.97,23.2 C5.16,23.29 5.4,23.37 5.65,23.45 C6.18,23.64 6.56,23.75 6.82,23.75 C7.05,23.75 7.41,23.67 7.89,23.48 C8.3,23.33 8.7,23.14 9.14,22.95 C9.5,22.78 9.67,22.69 9.69,22.67 C11.01,22.1 11.73,21.61 11.92,21.3 L11.92,21.3 Z M27.07,17.26 C27.09,17.03 27.09,16.79 27.09,16.56 C27.07,16.24 27.03,15.82 26.92,15.31 C26.84,14.78 26.69,14.4 26.5,14.17 C26.33,13.96 26.03,13.73 25.61,13.43 C25.27,13.2 24.91,12.99 24.55,12.77 L24.07,12.52 C23.98,12.48 23.92,12.44 23.85,12.39 C23.83,12.39 23.77,12.35 23.66,12.29 C23.56,12.22 23.45,12.18 23.35,12.12 C23.26,12.08 23.13,12.01 23.01,11.95 C22.88,11.89 22.75,11.84 22.67,11.8 C22.54,11.74 22.35,11.67 22.08,11.59 C21.89,11.53 21.74,11.53 21.67,11.57 C21.55,11.65 21.46,11.89 21.42,12.29 C21.4,12.46 21.38,12.65 21.36,12.88 C21.33,13.11 21.33,13.3 21.33,13.47 L21.33,13.47 L21.36,14.02 C21.36,14.32 21.36,14.59 21.38,14.87 C21.4,15.12 21.4,15.35 21.42,15.59 C21.44,15.8 21.46,15.99 21.5,16.16 C21.55,16.33 21.57,16.48 21.61,16.6 C21.65,16.73 21.69,16.83 21.76,16.92 C21.89,17.11 22.14,17.36 22.54,17.66 C22.67,17.74 22.8,17.85 22.92,17.93 C23.05,18.02 23.18,18.1 23.3,18.19 C23.43,18.27 23.56,18.36 23.68,18.42 L24.21,18.72 C24.23,18.74 24.28,18.76 24.32,18.78 C24.36,18.8 24.4,18.82 24.43,18.84 C24.47,18.87 24.51,18.89 24.55,18.93 C24.62,18.95 24.66,18.99 24.7,19.01 C25,19.18 25.31,19.33 25.67,19.5 C25.89,19.61 26.08,19.67 26.22,19.71 C26.37,19.75 26.5,19.77 26.58,19.77 C26.96,19.75 27.13,18.93 27.07,17.26 L27.07,17.26 Z M1.14,12.52 C1.33,12.52 1.61,12.44 2.01,12.27 C2.16,12.2 2.35,12.12 2.56,12.01 C2.77,11.91 2.94,11.82 3.09,11.74 L3.53,11.48 L3.6,11.46 L3.66,11.44 L3.73,11.42 L3.79,11.4 L3.85,11.38 L3.92,11.36 L3.98,11.34 L4.04,11.29 L4.11,11.25 L4.17,11.21 L4.23,11.17 L4.3,11.12 L4.36,11.08 L4.42,11.04 L4.49,11 L4.55,10.96 L4.61,10.91 L4.68,10.87 L4.74,10.83 L4.78,10.79 L4.83,10.74 L4.87,10.7 L4.91,10.66 L4.95,10.62 L5,10.57 L5.04,10.53 L5.08,10.49 L5.12,10.45 L5.16,10.41 L5.21,10.36 L5.25,10.32 L5.29,10.28 L5.33,10.24 C5.67,9.98 5.88,9.75 6.01,9.56 C6.14,9.37 6.22,9.03 6.31,8.54 C6.37,8.12 6.41,7.68 6.41,7.25 L6.43,6.66 C6.48,5.16 6.37,4.34 6.12,4.19 C6.01,4.15 5.76,4.19 5.36,4.36 C5.02,4.48 4.64,4.65 4.21,4.89 C4.13,4.93 4.04,4.97 3.94,5.03 L3.7,5.16 C2.52,5.77 1.71,6.3 1.31,6.79 C1.1,7.02 0.95,7.4 0.85,7.91 C0.74,8.42 0.7,9.07 0.7,9.88 C0.7,10.43 0.7,10.89 0.74,11.27 C0.78,11.65 0.83,11.93 0.91,12.12 C0.99,12.31 1.02,12.5 1.14,12.52 L1.14,12.52 Z M23.71,19.48 C22.16,18.7 21.1,18.36 20.51,18.44 C20.47,18.44 20.42,18.46 20.38,18.46 C20.34,18.48 20.3,18.48 20.23,18.51 C20.19,18.53 20.13,18.53 20.09,18.55 C20.04,18.57 19.98,18.59 19.92,18.59 C19.85,18.61 19.81,18.63 19.75,18.65 C19.68,18.67 19.62,18.7 19.56,18.72 C19.49,18.74 19.43,18.76 19.37,18.78 C19.13,18.89 18.92,18.97 18.73,19.06 C18.54,19.14 18.35,19.22 18.2,19.33 L17.76,19.58 C17.74,19.58 17.72,19.61 17.69,19.63 C17.67,19.65 17.65,19.65 17.63,19.67 C17.59,19.69 17.55,19.71 17.48,19.75 C17.42,19.8 17.38,19.82 17.33,19.84 L16.91,20.07 C16.87,20.09 16.78,20.13 16.68,20.2 C16.57,20.26 16.51,20.3 16.47,20.32 C16.32,20.41 16.19,20.51 16.06,20.62 C15.96,20.71 15.87,20.77 15.77,20.87 C15.73,20.92 15.7,20.96 15.68,20.98 C15.66,21.02 15.66,21.04 15.66,21.06 C15.68,21.34 16.4,21.83 17.84,22.54 C17.97,22.61 18.18,22.69 18.48,22.84 C18.63,22.9 18.8,22.99 18.99,23.07 C19.18,23.16 19.41,23.24 19.64,23.33 C20.17,23.52 20.55,23.6 20.78,23.62 C21.04,23.62 21.4,23.54 21.86,23.37 C21.99,23.33 22.12,23.26 22.27,23.2 C22.41,23.14 22.56,23.07 22.73,22.99 C22.88,22.93 23.01,22.86 23.13,22.8 L23.66,22.54 C24.3,22.25 24.81,21.97 25.17,21.74 C25.53,21.51 25.76,21.3 25.84,21.15 C25.91,21.02 25.84,20.9 25.65,20.71 C25.57,20.62 25.46,20.51 25.34,20.43 C25.21,20.35 25.06,20.24 24.91,20.16 C24.85,20.11 24.76,20.07 24.7,20.03 C24.62,19.99 24.55,19.94 24.49,19.92 C24.43,19.9 24.38,19.86 24.32,19.82 C24.26,19.77 24.21,19.75 24.17,19.73 C23.87,19.54 23.71,19.48 23.71,19.48 L23.71,19.48 Z M5.84,16.92 C5.95,16.75 6.03,16.41 6.1,15.9 C6.1,15.86 6.12,15.82 6.12,15.76 C6.12,15.71 6.14,15.67 6.14,15.61 C6.14,15.57 6.16,15.52 6.16,15.48 C6.16,15.44 6.16,15.4 6.18,15.35 C6.18,15.31 6.18,15.27 6.2,15.23 C6.2,15.19 6.2,15.14 6.22,15.1 C6.24,15.06 6.22,15.02 6.24,14.97 C6.24,14.93 6.24,14.89 6.24,14.85 C6.24,14.8 6.24,14.76 6.24,14.72 C6.24,14.68 6.24,14.64 6.24,14.59 L6.24,14 C6.27,13.26 6.24,12.67 6.2,12.25 C6.14,11.82 6.05,11.59 5.93,11.53 C5.82,11.46 5.57,11.53 5.19,11.7 C5.08,11.74 4.95,11.78 4.83,11.84 C4.68,11.91 4.55,11.97 4.4,12.03 C4.25,12.1 4.15,12.16 4.04,12.2 C3.98,12.25 3.89,12.29 3.79,12.33 C3.6,12.41 3.51,12.48 3.53,12.48 C2.37,13.09 1.57,13.64 1.14,14.13 C0.74,14.59 0.53,15.63 0.53,17.22 C0.47,18.93 0.64,19.75 1.02,19.77 C1.21,19.77 1.48,19.69 1.88,19.52 C2.03,19.46 2.22,19.37 2.43,19.27 C2.65,19.16 2.82,19.08 2.96,18.99 L3.41,18.74 C4.78,17.93 5.61,17.34 5.84,16.92 L5.84,16.92 Z M14.77,5.82 C14.92,6.01 15.18,6.26 15.56,6.56 C15.87,6.79 16.26,7.04 16.68,7.3 L17.21,7.61 C17.25,7.64 17.33,7.68 17.44,7.74 C17.55,7.8 17.65,7.85 17.72,7.89 C18.01,8.06 18.33,8.21 18.69,8.38 C19.13,8.57 19.45,8.65 19.6,8.63 C19.68,8.63 19.77,8.59 19.83,8.48 C19.9,8.38 19.96,8.23 20,8.02 C20.04,7.8 20.06,7.55 20.09,7.23 C20.11,6.92 20.11,6.56 20.09,6.13 C20.09,5.33 20.04,4.67 19.94,4.15 C19.83,3.62 19.68,3.26 19.49,3.05 C19.35,2.86 19.05,2.62 18.63,2.31 C18.29,2.05 17.93,1.84 17.55,1.65 L17.1,1.4 C17.06,1.38 17.02,1.35 16.97,1.33 C16.93,1.31 16.89,1.29 16.85,1.27 C16.83,1.25 16.66,1.16 16.34,1.02 C16.11,0.91 15.9,0.8 15.66,0.7 C15.62,0.68 15.58,0.66 15.54,0.66 C15.49,0.63 15.45,0.63 15.43,0.61 C15.41,0.59 15.37,0.59 15.3,0.57 C15.24,0.55 15.22,0.53 15.2,0.53 C15.18,0.53 15.13,0.51 15.07,0.49 C14.96,0.47 14.9,0.44 14.82,0.44 C14.73,0.44 14.71,0.44 14.67,0.47 C14.54,0.53 14.46,0.76 14.41,1.18 C14.37,1.54 14.35,1.95 14.35,2.39 L14.35,2.94 C14.37,3.7 14.41,4.31 14.48,4.8 C14.54,5.27 14.65,5.6 14.77,5.82 L14.77,5.82 Z M19.64,10.32 C19.56,10.22 19.45,10.11 19.3,9.98 C19.15,9.86 18.99,9.73 18.77,9.58 C18.44,9.35 18.08,9.12 17.72,8.9 L17.27,8.65 C17.19,8.61 17.1,8.57 17.02,8.52 C16.97,8.5 16.91,8.46 16.87,8.44 C16.81,8.4 16.74,8.38 16.68,8.35 C16.61,8.33 16.57,8.29 16.51,8.27 C16.28,8.16 16.06,8.06 15.83,7.95 C15.77,7.93 15.7,7.91 15.64,7.89 C15.58,7.87 15.49,7.83 15.43,7.8 C15.37,7.78 15.3,7.76 15.24,7.74 C15.13,7.72 15.07,7.7 14.99,7.7 C14.92,7.7 14.88,7.7 14.84,7.72 C14.77,7.74 14.71,7.83 14.67,7.93 C14.63,8.06 14.58,8.21 14.56,8.42 C14.54,8.61 14.52,8.8 14.5,9.01 C14.48,9.22 14.5,9.41 14.5,9.64 L14.5,10.19 C14.52,11.7 14.65,12.65 14.9,13.09 C15.01,13.26 15.28,13.51 15.68,13.83 C15.79,13.92 15.92,14 16.04,14.09 C16.17,14.17 16.3,14.25 16.42,14.34 C16.55,14.42 16.68,14.49 16.81,14.57 L17.33,14.87 L17.33,14.87 C17.4,14.91 17.44,14.93 17.48,14.95 C17.53,14.97 17.57,15.02 17.63,15.06 C17.69,15.1 17.76,15.14 17.84,15.16 C18.33,15.4 18.65,15.57 18.82,15.65 C19.26,15.86 19.56,15.95 19.73,15.93 C19.79,15.93 19.85,15.9 19.92,15.84 C19.98,15.78 20.02,15.69 20.04,15.59 L20.19,14.7 C20.21,14.23 20.21,13.96 20.21,13.9 C20.21,13.75 20.21,13.6 20.19,13.45 C20.17,11.72 19.98,10.7 19.64,10.32 L19.64,10.32 Z M21.63,9.67 C21.67,9.73 21.74,9.79 21.8,9.88 C21.89,9.96 21.97,10.05 22.05,10.13 C22.16,10.22 22.27,10.32 22.41,10.41 C22.92,10.77 23.28,11.02 23.54,11.17 L24.07,11.46 C24.11,11.48 24.19,11.53 24.3,11.59 C24.4,11.65 24.51,11.7 24.57,11.74 C24.87,11.91 25.19,12.06 25.55,12.22 C25.76,12.33 25.95,12.39 26.1,12.44 C26.25,12.48 26.37,12.5 26.46,12.5 C26.84,12.48 26.99,11.65 26.94,9.98 C26.94,9.18 26.9,8.52 26.8,8.02 C26.69,7.51 26.54,7.13 26.35,6.89 C26.18,6.7 25.91,6.45 25.48,6.15 C25.14,5.92 24.78,5.71 24.43,5.5 L23.98,5.25 L23.73,5.14 C23.68,5.12 23.62,5.08 23.58,5.06 C23.54,5.03 23.45,4.99 23.39,4.95 C23.32,4.91 23.28,4.89 23.22,4.86 C23.01,4.74 22.77,4.63 22.54,4.55 C22.46,4.51 22.35,4.48 22.24,4.44 C22.12,4.4 22.03,4.36 21.95,4.34 C21.89,4.31 21.82,4.29 21.78,4.29 C21.74,4.29 21.69,4.27 21.65,4.29 C21.61,4.29 21.59,4.29 21.57,4.31 C21.44,4.38 21.36,4.63 21.31,5.03 C21.27,5.41 21.25,5.8 21.25,6.24 L21.25,6.79 C21.25,7.17 21.27,7.51 21.29,7.83 C21.31,8.14 21.33,8.42 21.38,8.65 C21.42,8.88 21.46,9.09 21.5,9.26 C21.5,9.43 21.57,9.56 21.63,9.67 L21.63,9.67 Z M7.87,15.9 C7.92,15.9 7.96,15.9 8,15.9 C8.04,15.9 8.09,15.88 8.15,15.88 C8.21,15.86 8.25,15.86 8.32,15.84 C8.38,15.82 8.45,15.8 8.51,15.78 C8.57,15.76 8.66,15.71 8.74,15.69 C8.89,15.63 9.08,15.54 9.29,15.44 C9.5,15.33 9.67,15.25 9.82,15.16 L10.27,14.87 L10.33,14.85 L10.39,14.83 L10.46,14.8 L10.52,14.78 L10.58,14.76 L10.65,14.74 L10.71,14.72 L10.77,14.7 L10.84,14.68 L10.9,14.66 L10.96,14.64 L11.03,14.59 L11.09,14.55 L11.15,14.51 L11.22,14.47 L11.28,14.42 L11.34,14.38 L11.41,14.34 L11.47,14.3 L11.51,14.25 L11.56,14.21 L11.6,14.17 L11.64,14.13 L11.68,14.09 L11.73,14.04 L11.77,14 L11.81,13.96 L11.85,13.92 L11.9,13.87 L11.94,13.83 L11.98,13.79 L12.02,13.75 L12.06,13.7 C12.4,13.45 12.64,13.22 12.74,13.03 C12.87,12.84 12.95,12.5 13.04,12.01 C13.06,11.84 13.08,11.61 13.1,11.36 C13.12,11.1 13.14,10.89 13.14,10.7 L13.17,10.11 C13.21,8.61 13.1,7.78 12.85,7.64 C12.74,7.57 12.47,7.61 12.09,7.76 C11.98,7.8 11.85,7.85 11.73,7.91 C11.6,7.97 11.45,8.04 11.32,8.1 C11.2,8.16 11.07,8.23 10.99,8.29 L10.46,8.59 C9.29,9.2 8.49,9.75 8.06,10.24 C7.66,10.68 7.45,11.7 7.45,13.32 L7.45,13.75 C7.45,13.79 7.45,13.83 7.45,13.87 C7.45,13.92 7.45,13.96 7.45,14.02 C7.45,14.09 7.45,14.13 7.45,14.17 C7.45,14.21 7.45,14.28 7.45,14.36 C7.45,14.45 7.45,14.51 7.45,14.55 C7.47,14.89 7.51,15.19 7.6,15.44 C7.62,15.78 7.73,15.9 7.87,15.9 L7.87,15.9 Z M8.74,17.62 C8.74,17.68 8.78,17.74 8.89,17.83 C8.97,17.91 9.12,18.02 9.31,18.15 C9.67,18.38 10.03,18.61 10.41,18.82 L10.94,19.08 C11.66,19.44 12.28,19.71 12.76,19.9 C13.25,20.09 13.63,20.18 13.91,20.18 C14.12,20.18 14.48,20.09 14.96,19.9 C15.39,19.73 15.81,19.56 16.21,19.35 L16.74,19.1 C18.03,18.48 18.75,18 18.92,17.66 C18.96,17.62 18.96,17.58 18.94,17.51 L18.82,17.3 C18.75,17.22 18.67,17.15 18.6,17.09 C18.56,17.07 18.52,17.03 18.46,16.98 C18.39,16.94 18.35,16.9 18.33,16.88 C18.31,16.86 18.27,16.83 18.24,16.81 C18.2,16.79 18.16,16.77 18.12,16.73 C18.08,16.71 18.03,16.67 18.01,16.64 L17.69,16.43 C17.67,16.41 17.63,16.39 17.59,16.39 L17.48,16.33 C17.44,16.31 17.42,16.28 17.38,16.28 L17.38,16.28 L17.1,16.16 L16.91,16.07 C16.85,16.03 16.83,16.01 16.83,15.99 C16.09,15.61 15.45,15.31 14.92,15.14 C14.39,14.97 13.97,14.91 13.63,14.95 C13.5,14.97 13.33,15.02 13.14,15.08 C12.95,15.14 12.74,15.21 12.51,15.31 C12.4,15.35 12.28,15.4 12.17,15.46 C12.06,15.5 11.96,15.54 11.87,15.59 C11.77,15.63 11.68,15.67 11.6,15.71 C11.51,15.76 11.43,15.8 11.34,15.84 L10.9,16.09 C10.88,16.09 10.86,16.12 10.84,16.14 C10.82,16.16 10.79,16.16 10.77,16.18 C10.69,16.24 10.58,16.28 10.48,16.35 C10.43,16.37 10.37,16.41 10.33,16.43 C10.27,16.45 10.22,16.5 10.2,16.52 C10.16,16.54 10.12,16.56 10.05,16.6 C9.86,16.71 9.72,16.81 9.61,16.86 C9.57,16.88 9.52,16.9 9.48,16.94 C9.44,16.98 9.38,17 9.33,17.05 C9.29,17.09 9.25,17.11 9.21,17.13 C9.1,17.22 9,17.3 8.91,17.38 C8.8,17.49 8.74,17.58 8.74,17.62 L8.74,17.62 Z M7.49,6.13 L7.56,7.8 L7.56,7.87 L7.58,7.93 L7.6,7.99 L7.62,8.06 L7.64,8.12 L7.66,8.19 L7.68,8.25 L7.7,8.31 L7.73,8.38 C7.81,8.54 7.89,8.63 8.02,8.63 C8.21,8.63 8.51,8.54 8.93,8.35 C9.06,8.29 9.23,8.21 9.42,8.12 C9.61,8.04 9.76,7.95 9.88,7.87 C9.97,7.83 10.05,7.76 10.14,7.72 C10.22,7.68 10.31,7.64 10.39,7.59 L10.92,7.28 C11.3,7.04 11.68,6.81 12.04,6.54 C12.47,6.24 12.72,6.01 12.81,5.8 C13.08,5.35 13.21,4.4 13.23,2.9 L13.23,2.35 C13.23,2.16 13.23,1.97 13.23,1.78 C13.23,1.59 13.21,1.38 13.19,1.14 C13.19,1.06 13.17,0.99 13.17,0.91 C13.17,0.83 13.14,0.78 13.12,0.72 C13.1,0.66 13.1,0.61 13.08,0.57 C13.06,0.53 13.04,0.51 13.02,0.47 C13,0.44 12.97,0.42 12.95,0.4 C12.89,0.36 12.76,0.38 12.55,0.42 C12.34,0.49 12.15,0.55 11.96,0.63 C11.92,0.66 11.81,0.7 11.66,0.78 C11.51,0.85 11.39,0.91 11.28,0.95 C11.22,0.97 11.15,1.02 11.07,1.06 C10.99,1.1 10.92,1.12 10.88,1.16 C10.84,1.18 10.79,1.21 10.77,1.23 C10.75,1.25 10.73,1.25 10.69,1.27 C10.65,1.29 10.63,1.31 10.6,1.31 C10.58,1.33 10.56,1.35 10.54,1.35 L10.1,1.61 C9.72,1.8 9.36,2.03 9.02,2.26 C8.83,2.39 8.66,2.54 8.51,2.64 C8.36,2.77 8.25,2.88 8.17,2.98 C7.7,3.49 7.49,4.53 7.49,6.13 L7.49,6.13 Z" id="Shape"></path>
            </g>
        </g>
    </g>
</svg>