<svg xmlns="http://www.w3.org/2000/svg" xmlns:xlink="http://www.w3.org/1999/xlink" x="0" y="0" height="20px" width="20px" viewBox="0 0 75 75">
<defs>
<linearGradient id="OrangeGradient-b3c60e0e-99f6-42da-80a8-3b38739acb66" x1="1131.1" y1="-516.48" x2="1131.1" y2="-366.48" gradientTransform="translate(1149.48 525.13) rotate(-135)" gradientUnits="userSpaceOnUse">
<stop offset="0" stop-color="#c8511b"></stop>
<stop offset="1" stop-color="#f90"></stop>
</linearGradient>
</defs>
<g>
<rect data-name="Orange Gradient" style="fill:url(#OrangeGradient-b3c60e0e-99f6-42da-80a8-3b38739acb66)" width="75" height="75"></rect>
<g data-name="Icon Test">
<path fill="#fff" d="M60.49,40.5h-5v-2h5v-24h-24v5h-2v-5a2,2,0,0,1,2-2h24a2,2,0,0,1,2,2v24A2,2,0,0,1,60.49,40.5Z"></path>
<path fill="#fff" d="M38.49,62.5h-24a2,2,0,0,1-2-2v-24a2,2,0,0,1,2-2h5v2h-5v24h24v-5h2v5A2,2,0,0,1,38.49,62.5Z"></path>
<path fill="#fff" d="M53.5,28.5v-2h-3a2.18,2.18,0,0,0-2-2v-3h-2v3h-3v-3h-2v3h-3v-3h-2v3h-3v-3h-2v3h-3v-3h-2v3a2.18,2.18,0,0,0-2,2h-3v2h3v3h-3v2h3v3h-3v2h3v3h-3v2h3v3h-3v2h3a2.18,2.18,0,0,0,2,2v3h2v-3h3v3h2v-3h3v3h2v-3h3v3h2v-3h3v3h2v-3a2.18,2.18,0,0,0,2-2h3v-2h-3v-3h3v-2h-3v-3h3v-2h-3v-3h3v-2h-3v-3Zm-5,19.82a.18.18,0,0,1-.18.18H26.68a.18.18,0,0,1-.18-.18V26.68a.18.18,0,0,1,.18-.18H48.32a.18.18,0,0,1,.18.18Z"></path>
</g>
</g>
</svg>