<svg xmlns="http://www.w3.org/2000/svg" x="0" y="0" width="20px" height="20px" viewBox="0 0 64 64">
<g stroke="none" stroke-width="1" fill="none" fill-rule="evenodd">
<g transform="translate(11.000000, 5.000000)">
<path d="M34.3203,22.8726 C31.7123,21.2206 28.6293,20.2496 25.3123,20.2496 L0.0003,20.2496 L0.0003,33.7496 L18.5623,33.7496 C25.7663,33.7496 31.8993,29.2266 34.3203,22.8726" fill="#343741"></path>
<path d="M38.2842,26.3354 C34.7492,33.6734 27.2372,38.7504 18.5622,38.7504 L0.0002,38.7504 L0.0002,54.0004 L25.3122,54.0004 C34.6332,54.0004 42.1872,46.4444 42.1872,37.1254 C42.1872,33.0204 40.7202,29.2604 38.2842,26.3354" fill="#00BFB3"></path>
<path d="M34.3203,22.8726 C35.0313,21.0066 35.4373,18.9906 35.4373,16.8746 C35.4373,7.5556 27.8833,-0.0004 18.5623,-0.0004 L0.0003,-0.0004 L0.0003,20.2496 L25.3123,20.2496 C28.6293,20.2496 31.7123,21.2206 34.3203,22.8726" fill="#0077CC"></path>
</g>
</g>
</svg>