<svg width="20px" height="20px" viewBox="0 0 41 41" xmlns="http://www.w3.org/2000/svg" xmlns:xlink="http://www.w3.org/1999/xlink">
    <g stroke="none" stroke-width="1" fill="none" fill-rule="evenodd">
        <g transform="translate(1.000000, 1.000000)">
            <g stroke="#00C1DE" stroke-width="1.6">
                <rect fill="#FFFFFF" fill-rule="nonzero" x="0.6" y="0.6" width="38.4" height="38.4" rx="8"></rect>
                <rect x="0.6" y="0.6" width="38.4" height="38.4" rx="8"></rect>
            </g>
            <g transform="translate(6.500000, 8.500000)" fill="#00C1DE" fill-rule="nonzero">
                <path d="M27.24,10.16 L13.82,0.99 L0.36,10.16 L0.36,13.28 L13.82,22.61 L19.14,18.99 L27.24,13.28 L27.24,10.16 L27.24,10.16 Z M16.95,17.44 L18.46,18.51 L13.82,21.68 L9.16,18.47 L10.93,17.24 L5.6,13.48 L5.6,9.96 L10.91,6.32 L9.16,5.13 L13.82,1.96 L18.44,5.13 L16.95,6.16 L22.56,9.98 L22.56,13.5 L16.95,17.44 L16.95,17.44 L16.95,17.44 Z M6.39,10.39 L6.39,13.09 L14.08,18.53 L21.78,13.09 L21.78,10.39 L14.08,5.11 L6.39,10.39 Z" id="Shape"></path>
            </g>
        </g>
    </g>
</svg>