<svg width="20px" height="20px" viewBox="0 0 41 41" xmlns="http://www.w3.org/2000/svg" xmlns:xlink="http://www.w3.org/1999/xlink">
    <g stroke="none" stroke-width="1" fill="none" fill-rule="evenodd">
        <g transform="translate(1.000000, 1.000000)">
            <g stroke="#00C1DE" stroke-width="1.6">
                <rect fill="#FFFFFF" fill-rule="nonzero" x="0.6" y="0.6" width="38.4" height="38.4" rx="8"></rect>
                <rect x="0.6" y="0.6" width="38.4" height="38.4" rx="8"></rect>
            </g>
            <g transform="translate(6.500000, 9.500000)" fill="#00C1DE" fill-rule="nonzero">
                <path d="M26.16,10.65 C25.69,10.18 25.15,9.86 24.52,9.7 C23.89,9.54 23.28,9.54 22.64,9.7 C22.01,9.86 21.49,10.18 21,10.65 C20.43,11.21 20.08,11.9 19.96,12.71 C19.84,13.52 19.98,14.25 20.35,14.92 L16.89,18.36 C16.57,18.68 16.2,18.92 15.79,19.1 C15.39,19.29 14.96,19.41 14.53,19.43 C14.1,19.45 13.66,19.45 13.21,19.35 C12.76,19.27 12.32,19.1 11.89,18.88 C11.46,18.66 11.06,18.38 10.71,18.01 C9.79,17.14 9.31,16.09 9.25,14.9 C9.18,13.68 9.55,12.67 10.38,11.86 L14.35,7.92 L12.93,6.5 L8.96,10.45 C8.49,10.91 8.11,11.46 7.82,12.06 C7.54,12.67 7.35,13.3 7.29,13.95 C7.23,14.59 7.25,15.24 7.35,15.91 C7.48,16.56 7.7,17.2 8.03,17.83 C8.35,18.46 8.78,19.02 9.29,19.53 C10.67,20.9 12.3,21.59 14.17,21.59 C15.79,21.59 17.2,21.03 18.4,19.91 L21.85,16.47 C22.46,16.78 23.05,16.92 23.6,16.92 C24.09,16.92 24.54,16.84 25,16.66 C25.47,16.47 25.84,16.23 26.14,15.89 C26.85,15.12 27.22,14.21 27.22,13.2 C27.24,12.19 26.87,11.34 26.16,10.65 L26.16,10.65 Z M24.74,14.27 C24.45,14.55 24.07,14.71 23.64,14.71 C23.19,14.71 22.83,14.57 22.54,14.27 C22.36,14.09 22.22,13.84 22.16,13.58 C22.1,13.32 22.1,13.04 22.16,12.77 C22.22,12.51 22.36,12.27 22.54,12.08 C22.85,11.78 23.21,11.64 23.64,11.64 C24.07,11.64 24.43,11.78 24.74,12.08 C25.02,12.37 25.19,12.75 25.19,13.18 C25.17,13.62 25.02,13.99 24.74,14.27 L24.74,14.27 Z M7.23,6.64 L10.69,3.2 C11.5,2.39 12.52,2.03 13.7,2.11 C14.9,2.17 15.93,2.66 16.87,3.53 C17.76,4.42 18.23,5.47 18.29,6.7 C18.35,7.9 17.99,8.89 17.2,9.68 L13.23,13.62 L14.65,15.04 L18.62,11.09 C19.82,9.9 20.39,8.42 20.31,6.62 C20.27,5.77 20.08,4.96 19.74,4.19 C19.39,3.41 18.9,2.72 18.29,2.09 C16.99,0.8 15.47,0.13 13.7,0.07 C11.93,0.01 10.42,0.57 9.18,1.77 L5.73,5.21 C5.28,4.96 4.79,4.84 4.28,4.8 C3.78,4.76 3.27,4.84 2.76,5.02 C2.25,5.21 1.82,5.49 1.44,5.87 C0.73,6.58 0.36,7.43 0.36,8.42 C0.36,9.41 0.73,10.26 1.44,10.97 C2.13,11.66 2.98,12 3.98,12 C5.04,12 5.89,11.66 6.52,10.97 C6.76,10.73 6.97,10.47 7.13,10.18 C7.29,9.9 7.42,9.6 7.5,9.31 C7.58,9.01 7.62,8.71 7.64,8.4 C7.66,8.1 7.62,7.8 7.54,7.49 C7.48,7.19 7.37,6.91 7.23,6.64 L7.23,6.64 Z M5.14,9.5 C5.06,9.58 5,9.64 4.89,9.68 C4.79,9.72 4.71,9.78 4.63,9.82 C4.53,9.86 4.45,9.88 4.35,9.9 C4.24,9.92 4.14,9.92 4.04,9.92 C3.94,9.92 3.84,9.92 3.74,9.9 C3.63,9.88 3.53,9.86 3.45,9.82 C3.35,9.78 3.27,9.74 3.19,9.68 C3.1,9.62 3.02,9.56 2.94,9.5 C2.66,9.21 2.49,8.83 2.49,8.4 C2.49,7.96 2.64,7.59 2.94,7.31 C3.25,7.01 3.61,6.87 4.04,6.87 C4.49,6.89 4.85,7.03 5.14,7.31 C5.42,7.59 5.59,7.96 5.59,8.38 C5.59,8.79 5.44,9.17 5.14,9.5 L5.14,9.5 Z" id="Shape"></path>
            </g>
        </g>
    </g>
</svg>