<svg width="20px" height="20px" viewBox="0 0 41 41" xmlns="http://www.w3.org/2000/svg" xmlns:xlink="http://www.w3.org/1999/xlink">
    <g stroke="none" stroke-width="1" fill="none" fill-rule="evenodd">
        <g transform="translate(1.000000, 1.000000)">
            <g stroke="#00C1DE" stroke-width="1.6">
                <rect fill="#FFFFFF" fill-rule="nonzero" x="0.6" y="0.6" width="38.4" height="38.4" rx="8"></rect>
                <rect x="0.6" y="0.6" width="38.4" height="38.4" rx="8"></rect>
            </g>
            <g transform="translate(8.500000, 6.500000)" fill="#00C1DE" fill-rule="nonzero">
                <path d="M20.01,10.69 C19.73,10.69 19.44,10.73 19.17,10.8 C18.9,10.88 18.65,10.98 18.4,11.11 C18.18,11.25 17.95,11.42 17.76,11.61 C17.58,11.79 17.41,12.02 17.27,12.25 C17.12,12.5 17.02,12.75 16.96,13.02 L6.6,13.02 C6.4,12.52 6.27,12.21 6.17,12.11 L10.63,6.64 C11,6.76 11.36,6.83 11.73,6.83 C12.62,6.83 13.36,6.51 13.98,5.89 C14.6,5.27 14.91,4.52 14.91,3.62 C14.91,2.73 14.62,1.96 14.02,1.32 C13.42,0.67 12.68,0.36 11.81,0.36 C11.56,0.36 11.31,0.38 11.09,0.44 C10.84,0.51 10.63,0.57 10.43,0.69 C10.22,0.8 10.01,0.92 9.85,1.07 C9.66,1.21 9.5,1.38 9.35,1.57 C9.21,1.75 9.08,1.94 8.98,2.15 C8.88,2.36 8.79,2.58 8.73,2.81 C8.67,3.06 8.65,3.29 8.65,3.54 C8.65,4.27 8.88,4.93 9.31,5.49 L4.91,10.9 C4.58,10.73 4.16,10.65 3.63,10.65 C3.28,10.65 2.94,10.71 2.61,10.82 C2.28,10.92 1.99,11.07 1.75,11.27 C1.48,11.46 1.25,11.69 1.06,11.96 C0.88,12.23 0.71,12.52 0.61,12.83 C0.51,13.17 0.44,13.5 0.44,13.85 C0.44,14.75 0.75,15.49 1.37,16.12 C1.99,16.74 2.74,17.05 3.63,17.05 C4.35,17.05 4.99,16.85 5.55,16.41 C6.11,15.97 6.48,15.41 6.66,14.73 L16.98,14.73 C17.18,15.22 17.31,15.54 17.41,15.64 L12.88,21.17 C12.41,20.96 11.95,20.86 11.54,20.86 C10.65,20.86 9.91,21.17 9.29,21.79 C8.67,22.42 8.36,23.17 8.36,24.06 C8.36,24.35 8.4,24.64 8.46,24.91 C8.55,25.18 8.65,25.45 8.77,25.68 C8.9,25.91 9.08,26.14 9.27,26.33 C9.45,26.51 9.68,26.68 9.91,26.82 C10.14,26.97 10.41,27.07 10.67,27.14 C10.94,27.2 11.23,27.24 11.52,27.24 C12.1,27.24 12.64,27.09 13.11,26.82 C13.61,26.53 13.98,26.16 14.27,25.66 C14.56,25.16 14.68,24.64 14.68,24.06 C14.68,23.41 14.5,22.83 14.12,22.27 L18.69,16.68 C18.77,16.72 18.88,16.76 18.98,16.8 C19.08,16.85 19.19,16.87 19.29,16.89 C19.39,16.91 19.52,16.93 19.62,16.93 C19.73,16.93 19.85,16.95 19.97,16.95 C20.86,16.95 21.61,16.64 22.23,16.01 C22.85,15.39 23.16,14.64 23.16,13.75 C23.16,12.87 22.85,12.13 22.25,11.54 C21.67,10.98 20.9,10.69 20.01,10.69 L20.01,10.69 Z"></path>
            </g>
        </g>
    </g>
</svg>