<svg width="20px" height="20px" viewBox="0 0 41 41" xmlns="http://www.w3.org/2000/svg" xmlns:xlink="http://www.w3.org/1999/xlink">
    <g stroke="none" stroke-width="1" fill="none" fill-rule="evenodd">
        <g transform="translate(1.000000, 1.000000)">
            <g stroke="#00C1DE" stroke-width="1.6">
                <rect fill="#FFFFFF" fill-rule="nonzero" x="0.6" y="0.6" width="38.4" height="38.4" rx="8"></rect>
                <rect x="0.6" y="0.6" width="38.4" height="38.4" rx="8"></rect>
            </g>
            <g transform="translate(6.500000, 8.500000)" fill="#00C1DE" fill-rule="nonzero">
                <path d="M26.32,6.51 L19.29,6.51 C19.12,6.33 18.74,6 18.17,5.52 C17.6,5.04 17.18,4.65 16.92,4.39 C16.72,4.19 16.47,4.1 16.21,4.13 C16.19,4.13 16.14,4.13 16.12,4.13 L1.42,4.13 C1.39,4.13 1.37,4.13 1.35,4.13 C1.33,4.13 1.31,4.13 1.26,4.13 C1.02,4.13 0.8,4.21 0.62,4.39 C0.45,4.56 0.36,4.78 0.36,5.09 L0.36,18.01 C0.36,18.06 0.36,18.08 0.36,18.12 C0.36,18.16 0.36,18.19 0.38,18.21 C0.38,18.23 0.4,18.27 0.4,18.3 C0.4,18.4 0.45,18.51 0.49,18.6 C0.54,18.69 0.6,18.78 0.67,18.86 C0.73,18.95 0.82,18.99 0.93,19.04 C1.04,19.08 1.17,19.1 1.31,19.1 L6.13,19.1 C6.19,19.76 6.48,20.3 6.99,20.76 C7.49,21.22 8.09,21.46 8.73,21.46 C9.08,21.46 9.41,21.4 9.72,21.27 C10.02,21.53 10.42,21.77 10.88,21.99 C11.35,22.2 11.83,22.38 12.34,22.51 C12.84,22.64 13.28,22.71 13.7,22.71 C14.43,22.71 15.13,22.58 15.81,22.34 C16.5,22.09 17.14,21.75 17.69,21.29 C18.02,21.42 18.35,21.48 18.68,21.48 C19.34,21.48 19.91,21.24 20.42,20.78 C20.92,20.33 21.21,19.78 21.27,19.13 L26.1,19.13 C26.38,19.19 26.65,19.13 26.87,18.95 C27.09,18.78 27.22,18.51 27.22,18.16 L27.22,7.49 C27.22,7.29 27.17,7.12 27.09,6.96 C27,6.81 26.89,6.7 26.76,6.64 C26.62,6.57 26.47,6.51 26.32,6.51 L26.32,6.51 Z M8.7,17.77 C9.01,17.77 9.28,17.88 9.5,18.1 C9.72,18.32 9.83,18.58 9.83,18.89 C9.83,19.08 9.78,19.28 9.67,19.45 C9.58,19.63 9.43,19.76 9.28,19.85 C9.1,19.93 8.92,20 8.7,20 C8.4,20 8.13,19.89 7.91,19.67 C7.69,19.45 7.58,19.19 7.58,18.89 C7.58,18.69 7.62,18.49 7.73,18.32 C7.82,18.14 7.98,18.01 8.13,17.92 C8.31,17.82 8.51,17.77 8.7,17.77 L8.7,17.77 Z M18.68,17.77 C18.83,17.77 18.98,17.79 19.12,17.86 C19.25,17.92 19.38,17.99 19.47,18.1 C19.58,18.21 19.64,18.32 19.71,18.45 C19.78,18.58 19.8,18.73 19.8,18.89 C19.8,19.19 19.69,19.45 19.47,19.67 C19.25,19.89 18.98,20 18.68,20 C18.52,20 18.37,19.98 18.24,19.91 C18.1,19.85 17.97,19.78 17.88,19.67 C17.77,19.56 17.71,19.45 17.64,19.32 C17.58,19.19 17.55,19.04 17.55,18.89 C17.55,18.73 17.58,18.58 17.64,18.45 C17.71,18.32 17.77,18.19 17.88,18.1 C17.99,17.99 18.1,17.92 18.24,17.86 C18.37,17.79 18.52,17.77 18.68,17.77 L18.68,17.77 L18.68,17.77 Z M11.46,12.14 C11.65,12.49 11.98,12.79 12.42,13.06 C12.86,13.32 13.28,13.43 13.7,13.43 L13.7,13.43 C13.79,13.43 13.88,13.43 13.99,13.4 C14.1,13.38 14.19,13.36 14.27,13.34 C14.36,13.32 14.47,13.27 14.56,13.25 C14.65,13.23 14.76,13.16 14.85,13.12 C14.93,13.08 15.02,13.01 15.11,12.97 C15.2,12.9 15.29,12.86 15.37,12.79 C15.46,12.73 15.53,12.66 15.59,12.6 C15.66,12.53 15.73,12.47 15.79,12.38 C15.86,12.31 15.9,12.23 15.95,12.14 C16.41,12.38 16.83,12.71 17.25,13.16 C17.64,13.62 17.95,14.13 18.19,14.67 C18.43,15.22 18.54,15.76 18.57,16.27 C18.24,16.29 17.91,16.35 17.6,16.51 C17.29,16.66 17.03,16.83 16.81,17.07 C16.58,17.31 16.41,17.58 16.28,17.88 C16.14,18.19 16.08,18.51 16.08,18.84 C16.08,19.1 16.12,19.34 16.19,19.58 C16.25,19.82 16.39,20.06 16.54,20.28 C16.19,20.52 15.75,20.74 15.2,20.92 C14.65,21.09 14.16,21.18 13.72,21.18 C13.28,21.18 12.8,21.09 12.25,20.92 C11.7,20.74 11.26,20.52 10.91,20.28 C11.02,20.13 11.08,19.98 11.15,19.82 C11.21,19.67 11.26,19.5 11.3,19.34 C11.35,19.17 11.35,19.02 11.35,18.84 L11.35,18.84 C11.35,18.4 11.24,17.97 11.02,17.58 C10.79,17.18 10.49,16.88 10.11,16.64 C9.74,16.4 9.32,16.27 8.86,16.24 C8.86,15.85 8.95,15.46 9.08,15.04 C9.21,14.63 9.41,14.23 9.63,13.86 C9.87,13.49 10.13,13.16 10.44,12.84 C10.77,12.58 11.1,12.31 11.46,12.14 L11.46,12.14 Z M12.58,10.85 C12.58,10.78 12.58,10.72 12.6,10.68 C12.6,10.61 12.62,10.57 12.64,10.5 C12.67,10.44 12.69,10.39 12.71,10.35 C12.73,10.3 12.78,10.24 12.8,10.2 C12.84,10.15 12.86,10.11 12.91,10.06 C12.95,10.02 13,9.98 13.04,9.96 C13.08,9.91 13.13,9.89 13.19,9.87 C13.24,9.85 13.3,9.82 13.35,9.8 C13.41,9.78 13.46,9.78 13.52,9.76 C13.59,9.76 13.66,9.74 13.7,9.74 C13.86,9.74 14.01,9.76 14.14,9.82 C14.27,9.89 14.41,9.96 14.49,10.06 C14.6,10.17 14.67,10.28 14.74,10.41 C14.8,10.54 14.82,10.7 14.82,10.85 C14.82,11.16 14.71,11.42 14.49,11.64 C14.27,11.85 14.01,11.96 13.7,11.96 C13.39,11.96 13.13,11.85 12.91,11.64 C12.69,11.42 12.58,11.16 12.58,10.85 L12.58,10.85 Z M20.72,17.29 C20.53,17.05 20.31,16.83 20.02,16.68 C20.02,16.64 20.02,16.61 20.02,16.59 C20.02,16.57 20.02,16.55 20.02,16.51 C20.02,16.48 20.02,16.44 20.02,16.42 L20.02,16.4 C20.02,15.28 19.64,14.15 18.92,13.03 C18.19,11.92 17.29,11.13 16.25,10.68 C16.21,10.02 15.95,9.45 15.44,8.97 C14.93,8.49 14.34,8.27 13.68,8.27 C13,8.27 12.4,8.51 11.9,8.97 C11.39,9.43 11.13,10 11.08,10.7 C9.94,11.2 9.03,11.96 8.35,13.01 C7.67,14.06 7.34,15.2 7.34,16.44 L7.34,16.72 C7.07,16.88 6.85,17.09 6.68,17.31 C6.63,17.31 6.57,17.29 6.52,17.29 L6.52,17.29 L2.23,17.29 L2.23,5.96 L15.9,5.96 C16.34,6.37 17.18,7.09 18.39,8.16 C18.52,8.3 18.65,8.36 18.83,8.36 L25.37,8.36 L25.37,17.29 L20.92,17.29 C20.86,17.27 20.77,17.27 20.72,17.29 L20.72,17.29 Z M1.42,2.75 C1.02,2.75 0.76,2.6 0.6,2.29 C0.45,1.99 0.45,1.68 0.6,1.37 C0.76,1.07 1.04,0.92 1.42,0.92 L17.62,0.92 C17.62,0.92 17.64,0.92 17.66,0.92 C17.69,0.92 17.71,0.92 17.71,0.92 C17.97,0.89 18.19,0.98 18.41,1.18 L20.81,3.56 L26.56,3.56 C26.69,3.56 26.8,3.6 26.89,3.67 C26.98,3.73 27.06,3.82 27.11,3.93 C27.15,4.04 27.2,4.15 27.22,4.3 C27.24,4.43 27.24,4.56 27.22,4.69 C27.2,4.82 27.15,4.95 27.11,5.06 C27.06,5.17 26.98,5.26 26.89,5.33 C26.8,5.39 26.69,5.44 26.56,5.44 L20.31,5.44 C20.2,5.44 20.11,5.41 20.02,5.37 C19.93,5.33 19.87,5.24 19.8,5.15 C19.78,5.13 19.75,5.13 19.71,5.11 C19.69,5.09 19.64,5.06 19.62,5.04 C19.6,5.02 19.58,5 19.56,4.98 L17.36,2.79 L1.42,2.75 L1.42,2.75 Z" id="Shape"></path>
            </g>
        </g>
    </g>
</svg>