<svg xmlns="http://www.w3.org/2000/svg" xmlns:xlink="http://www.w3.org/1999/xlink" x="0" y="0" height="20px" width="20px" viewBox="0 0 75 75">
<defs>
<linearGradient id="GreenGradient-0cfade41-c0b4-499e-aac3-6458e32420cf" x1="-15.54" y1="90.54" x2="90.53" y2="-15.53" gradientTransform="translate(0 0)" gradientUnits="userSpaceOnUse">
<stop offset="0" stop-color="#1b660f"></stop>
<stop offset="1" stop-color="#6cae3e"></stop>
</linearGradient>
</defs>
<g>
<rect data-name="Green Gradient" style="fill:url(#GreenGradient-0cfade41-c0b4-499e-aac3-6458e32420cf);" width="75" height="75"></rect>
<g data-name="Icon Test">
<rect fill="#fff" x="19.75" y="34.76" width="1.98" height="20.72" transform="translate(-12.35 8.1) rotate(-17.1)"></rect>
<rect fill="#fff" x="17.54" y="23.56" width="18.59" height="1.98" transform="translate(-9.23 19.83) rotate(-34.99)"></rect>
<rect fill="#fff" x="47.17" y="15.25" width="1.98" height="18.59" transform="translate(0.43 49.93) rotate(-55.01)"></rect>
<rect fill="#fff" x="43.9" y="44.13" width="20.72" height="1.98" transform="matrix(0.29, -0.96, 0.96, 0.29, -4.82, 83.71)"></rect>
<rect fill="#fff" x="28.36" y="56.31" width="18.28" height="1.98"></rect>
<path fill="#fff" d="M37.5,21.73a4,4,0,1,1,4-4A4,4,0,0,1,37.5,21.73Zm0-6.09a2.06,2.06,0,1,0,2.06,2.06A2.06,2.06,0,0,0,37.5,15.64Z"></path>
<path fill="#fff" d="M25.31,61.34a4,4,0,1,1,4-4A4,4,0,0,1,25.31,61.34Zm0-6.09a2.06,2.06,0,1,0,2.06,2A2.05,2.05,0,0,0,25.31,55.25Z"></path>
<path fill="#fff" d="M49.69,61.34a4,4,0,1,1,4-4A4,4,0,0,1,49.69,61.34Zm0-6.09a2.06,2.06,0,1,0,2.05,2A2.05,2.05,0,0,0,49.69,55.25Z"></path>
<path fill="#fff" d="M16.94,36.21a4,4,0,1,1,4-4A4,4,0,0,1,16.94,36.21Zm0-6.1a2.06,2.06,0,1,0,2,2.06A2.06,2.06,0,0,0,16.94,30.11Z"></path>
<path fill="#fff" d="M58.06,36.21a4,4,0,1,1,4-4A4,4,0,0,1,58.06,36.21Zm0-6.1a2.06,2.06,0,1,0,2.06,2.06A2.06,2.06,0,0,0,58.06,30.11Z"></path>
<rect fill="#fff" x="36.51" y="20.74" width="1.98" height="5.33"></rect>
<rect fill="#fff" x="21.66" y="31.93" width="1.98" height="5.8" transform="translate(-18.29 41.92) rotate(-66.79)"></rect>
<rect fill="#fff" x="25.61" y="51.74" width="5.49" height="1.98" transform="translate(-31.25 47.08) rotate(-56.31)"></rect>
<rect fill="#fff" x="45.65" y="49.99" width="1.98" height="5.49" transform="translate(-21.42 34.73) rotate(-33.69)"></rect>
<rect fill="#fff" x="49.45" y="33.84" width="5.8" height="1.98" transform="matrix(0.92, -0.39, 0.39, 0.92, -9.49, 23.45)"></rect>
<path fill="#fff" d="M29.58,35.24a1,1,0,0,1-1-.91l-.28-3.8,2-.14.2,2.8L33.3,33l.15,2-3.8.28Z"></path>
<path fill="#fff" d="M37.49,49.51A10.22,10.22,0,0,1,27.26,39.35l2,0a8.15,8.15,0,0,0,3.32,6.57,8.26,8.26,0,0,0,11.55-1.69,8.25,8.25,0,0,0-1.69-11.55,8.26,8.26,0,0,0-11.55,1.69l-1.59-1.19a10.24,10.24,0,1,1,8.2,16.35Z"></path>
</g>
</g>
</svg>