<svg width="20px" height="20px" viewBox="0 0 41 41" xmlns="http://www.w3.org/2000/svg" xmlns:xlink="http://www.w3.org/1999/xlink">
    <g stroke="none" stroke-width="1" fill="none" fill-rule="evenodd">
        <g transform="translate(1.000000, 1.000000)">
            <g stroke="#00C1DE" stroke-width="1.6">
                <rect fill="#FFFFFF" fill-rule="nonzero" x="0.6" y="0.6" width="38.4" height="38.4" rx="8"></rect>
                <rect x="0.6" y="0.6" width="38.4" height="38.4" rx="8"></rect>
            </g>
            <g transform="translate(7.500000, 6.500000)" fill="#00C1DE" fill-rule="nonzero">
                <path d="M2.4,4.29 L2.38,2.2 L2.38,1.52 C2.38,1.22 2.27,0.97 2.05,0.75 C1.83,0.56 1.59,0.45 1.28,0.45 C1.12,0.45 0.99,0.47 0.86,0.54 C0.73,0.6 0.59,0.67 0.51,0.78 C0.29,1 0.2,1.24 0.2,1.54 L0.26,7.65 C0.26,7.95 0.37,8.19 0.59,8.41 C0.79,8.61 1.03,8.72 1.32,8.72 L1.36,8.72 C1.67,8.72 1.94,8.61 2.16,8.39 C2.25,8.3 2.31,8.19 2.4,8.04 L2.44,7.97 C3.3,6.66 4.36,5.56 5.66,4.66 C6.96,3.78 8.37,3.17 9.91,2.86 C10.91,2.58 11.92,2.47 12.95,2.49 C13.99,2.51 15.03,2.73 16.08,3.15 C17.14,3.56 18.11,4.09 19.01,4.75 C19.92,5.38 20.73,6.2 21.48,7.18 C22.21,8.15 22.78,9.2 23.18,10.34 L23.31,10.7 C23.33,10.76 23.35,10.8 23.38,10.85 L23.4,10.89 C23.53,11.11 23.71,11.27 23.9,11.38 C24.04,11.44 24.19,11.46 24.37,11.46 C24.63,11.46 24.87,11.38 25.07,11.2 C25.27,11.02 25.4,10.8 25.45,10.56 C25.45,10.5 25.47,10.45 25.47,10.39 C25.47,10.28 25.45,10.17 25.42,10.06 L25.4,9.97 C24.83,8.22 23.95,6.66 22.76,5.28 C21.57,3.89 20.18,2.82 18.64,2.05 C17.1,1.28 15.4,0.78 13.59,0.58 C11.79,0.36 9.98,0.56 8.17,1.13 C7.03,1.48 5.97,1.96 5,2.58 C4.03,3.19 3.13,3.89 2.33,4.7 L2.4,4.29 Z M23.16,23.29 L23.18,25.37 L23.18,26.06 C23.18,26.21 23.2,26.34 23.27,26.47 C23.33,26.6 23.4,26.71 23.51,26.82 C23.62,26.91 23.73,27 23.86,27.04 C23.99,27.09 24.12,27.13 24.28,27.13 C24.59,27.13 24.85,27.02 25.07,26.8 C25.29,26.58 25.38,26.34 25.38,26.03 L25.31,19.93 C25.31,19.63 25.2,19.38 24.98,19.17 C24.81,18.99 24.61,18.9 24.39,18.88 L24.3,18.88 C24.28,18.88 24.26,18.88 24.24,18.88 C23.93,18.88 23.66,18.99 23.44,19.21 C23.4,19.25 23.35,19.3 23.31,19.36 C23.27,19.41 23.24,19.49 23.2,19.56 L23.16,19.63 C22.3,20.94 21.24,22.04 19.94,22.94 C18.64,23.82 17.23,24.43 15.69,24.74 C14.69,25.02 13.68,25.13 12.65,25.11 C11.61,25.09 10.57,24.87 9.52,24.45 C8.46,24.04 7.49,23.51 6.59,22.85 C5.68,22.19 4.87,21.4 4.12,20.42 C3.39,19.45 2.82,18.4 2.42,17.26 L2.29,16.9 C2.25,16.77 2.18,16.64 2.09,16.53 L2.2,16.71 C2.07,16.49 1.89,16.33 1.7,16.25 C1.63,16.22 1.56,16.18 1.48,16.18 C1.39,16.18 1.32,16.16 1.23,16.16 C0.97,16.16 0.73,16.25 0.53,16.42 C0.33,16.6 0.2,16.82 0.15,17.06 C0.13,17.23 0.13,17.39 0.18,17.54 L0.2,17.63 C0.77,19.38 1.65,20.94 2.84,22.32 C4.03,23.71 5.42,24.78 6.96,25.55 C8.5,26.32 10.2,26.82 12.01,27.02 C13.81,27.24 15.62,27.04 17.43,26.47 C19.7,25.77 21.64,24.56 23.27,22.9 L23.16,23.29 L23.16,23.29 Z M9.56,12.03 L16.1,12.03 C16.24,12.03 16.37,12.01 16.48,11.95 C16.59,11.88 16.7,11.79 16.77,11.7 C16.83,11.59 16.9,11.49 16.9,11.35 L16.9,11.31 C16.9,11.29 16.9,11.27 16.9,11.24 C16.9,11.13 16.88,11.02 16.83,10.94 C16.79,10.85 16.72,10.76 16.66,10.67 C16.61,10.63 16.55,10.59 16.5,10.54 C16.44,10.5 16.37,10.48 16.3,10.45 C16.24,10.43 16.17,10.43 16.08,10.43 L16.08,10.43 L9.56,10.43 C9.34,10.43 9.14,10.52 8.99,10.67 C8.92,10.74 8.86,10.83 8.81,10.94 C8.77,11.05 8.75,11.13 8.75,11.24 C8.75,11.46 8.83,11.66 8.99,11.81 C9.08,11.9 9.16,11.95 9.25,11.99 C9.34,12.03 9.47,12.03 9.56,12.03 L9.56,12.03 Z M8.86,14.62 C8.9,14.69 8.94,14.73 8.99,14.8 C9.03,14.84 9.1,14.89 9.14,14.93 C9.21,14.97 9.27,15 9.34,15.02 C9.41,15.04 9.47,15.04 9.56,15.04 L9.56,15.04 L16.1,15.04 C16.17,15.04 16.24,15.04 16.3,15.02 C16.37,15 16.44,14.97 16.48,14.95 C16.55,14.93 16.59,14.89 16.63,14.84 C16.68,14.8 16.72,14.75 16.77,14.71 C16.81,14.67 16.83,14.6 16.85,14.54 C16.88,14.47 16.9,14.4 16.9,14.34 L16.9,14.29 C16.9,14.27 16.9,14.25 16.9,14.23 C16.9,14.12 16.88,14.01 16.83,13.92 C16.79,13.83 16.72,13.75 16.66,13.66 C16.59,13.59 16.5,13.53 16.39,13.48 C16.28,13.44 16.19,13.42 16.08,13.42 L16.08,13.42 L9.56,13.42 C9.45,13.42 9.34,13.44 9.25,13.48 C9.14,13.53 9.05,13.59 8.99,13.66 C8.92,13.72 8.86,13.81 8.81,13.92 C8.77,14.01 8.75,14.12 8.75,14.23 C8.75,14.38 8.79,14.51 8.86,14.62 L8.86,14.62 Z M8.86,17.63 C8.9,17.69 8.94,17.74 8.99,17.8 C9.03,17.85 9.1,17.89 9.14,17.94 C9.21,17.98 9.27,18 9.34,18.02 C9.41,18.05 9.47,18.05 9.56,18.05 L9.56,18.05 L16.1,18.05 C16.3,18.05 16.48,17.98 16.63,17.85 C16.79,17.72 16.88,17.54 16.9,17.34 L16.9,17.3 C16.9,17.28 16.9,17.26 16.9,17.23 C16.9,17.17 16.9,17.08 16.88,17.01 C16.85,16.95 16.83,16.88 16.79,16.82 C16.74,16.75 16.7,16.71 16.66,16.66 C16.59,16.6 16.5,16.53 16.39,16.49 C16.3,16.44 16.19,16.42 16.08,16.42 L16.08,16.42 L9.56,16.42 C9.45,16.42 9.34,16.44 9.25,16.49 C9.14,16.53 9.05,16.6 8.99,16.66 C8.92,16.73 8.86,16.82 8.81,16.93 C8.77,17.01 8.75,17.12 8.75,17.23 C8.75,17.37 8.79,17.52 8.86,17.63 L8.86,17.63 Z" id="Shape"></path>
            </g>
        </g>
    </g>
</svg>