<svg width="20px" height="20px" viewBox="0 0 41 41" xmlns="http://www.w3.org/2000/svg" xmlns:xlink="http://www.w3.org/1999/xlink">
    <g stroke="none" stroke-width="1" fill="none" fill-rule="evenodd">
        <g transform="translate(1.000000, 1.000000)">
            <g stroke="#00C1DE" stroke-width="1.6">
                <rect fill="#FFFFFF" fill-rule="nonzero" x="0.6" y="0.6" width="38.4" height="38.4" rx="8"></rect>
                <rect x="0.6" y="0.6" width="38.4" height="38.4" rx="8"></rect>
            </g>
            <g transform="translate(6.500000, 6.500000)" fill="#00C1DE" fill-rule="nonzero">
                <path d="M22.49,21.17 L22.49,5.18 L6.39,5.18 C6.19,4.62 5.8,4.13 5.24,3.74 C4.67,3.35 4.09,3.14 3.48,3.14 L3.48,3.14 C2.64,3.14 1.9,3.44 1.29,4.06 C0.69,4.66 0.36,5.4 0.36,6.24 C0.36,6.88 0.56,7.48 0.92,8 C1.29,8.52 1.77,8.9 2.35,9.12 L2.35,21.15 C1.75,21.36 1.27,21.73 0.9,22.25 C0.53,22.76 0.36,23.37 0.36,24.03 C0.36,24.59 0.49,25.11 0.77,25.58 C1.05,26.06 1.44,26.44 1.92,26.72 C2.4,27 2.92,27.13 3.48,27.13 C4.13,27.13 4.74,26.94 5.26,26.57 C5.78,26.21 6.17,25.73 6.39,25.15 L18.5,25.15 C18.72,25.75 19.09,26.23 19.61,26.59 C20.13,26.96 20.74,27.13 21.41,27.13 C22.25,27.13 22.99,26.83 23.6,26.21 C24.21,25.6 24.53,24.87 24.53,24.03 C24.53,23.37 24.34,22.78 23.97,22.25 C23.6,21.75 23.1,21.39 22.49,21.17 L22.49,21.17 Z M20.37,21.17 L20.37,21.17 L20.15,21.24 L6.32,7.51 C6.32,7.48 6.34,7.44 6.36,7.4 C6.39,7.35 6.41,7.31 6.41,7.29 L20.3,7.29 L20.3,21.17 L20.37,21.17 L20.37,21.17 Z M4.61,21.17 L4.61,9.14 L4.61,9.14 L4.83,9.08 L18.66,22.81 C18.66,22.83 18.63,22.87 18.61,22.91 C18.59,22.96 18.57,23 18.57,23.02 L6.39,23.02 C6.34,22.89 6.3,22.76 6.23,22.66 C6.17,22.53 6.13,22.42 6.06,22.31 C6,22.2 5.91,22.1 5.84,22.01 C5.78,21.92 5.67,21.82 5.58,21.75 C5.5,21.67 5.39,21.6 5.3,21.54 C5.19,21.47 5.09,21.41 4.98,21.34 C4.85,21.26 4.74,21.21 4.61,21.17 L4.61,21.17 Z M7.73,0.47 L27.24,0.47 L27.24,19.84 L25.12,21.54 L25.12,2.6 L6.04,2.6 L7.73,0.47 L7.73,0.47 L7.73,0.47 Z" id="Shape"></path>
            </g>
        </g>
    </g>
</svg>