<svg width="20px" height="20px" viewBox="0 0 41 41" xmlns="http://www.w3.org/2000/svg" xmlns:xlink="http://www.w3.org/1999/xlink">
    <g stroke="none" stroke-width="1" fill="none" fill-rule="evenodd">
        <g transform="translate(1.000000, 1.000000)">
            <g stroke="#00C1DE" stroke-width="1.6">
                <rect fill="#FFFFFF" fill-rule="nonzero" x="0.6" y="0.6" width="38.4" height="38.4" rx="8"></rect>
                <rect x="0.6" y="0.6" width="38.4" height="38.4" rx="8"></rect>
            </g>
            <g transform="translate(6.500000, 8.500000)" fill="#00C1DE" fill-rule="nonzero">
                <path d="M22.34,0.84 L22.34,0.84 C22.8,0.84 23.24,0.91 23.69,1.05 C23.8,1.09 23.89,1.12 24.01,1.16 C24.13,1.21 24.22,1.26 24.31,1.3 C24.52,1.42 24.71,1.53 24.89,1.67 C24.99,1.74 25.08,1.81 25.15,1.88 C25.22,1.95 25.31,2.04 25.38,2.11 C25.45,2.18 25.52,2.28 25.57,2.37 C25.61,2.46 25.68,2.53 25.73,2.62 C25.8,2.74 25.85,2.86 25.89,2.97 C25.94,3.09 25.99,3.23 26.01,3.34 C26.03,3.46 26.06,3.6 26.06,3.71 L26.06,3.9 C26.06,4.04 26.03,4.2 26.01,4.39 C25.96,4.57 25.94,4.71 25.87,4.85 C25.82,4.97 25.75,5.08 25.68,5.2 C25.61,5.32 25.52,5.45 25.43,5.57 C25.33,5.69 25.24,5.78 25.15,5.85 C25.08,5.92 24.99,5.99 24.89,6.06 C24.78,6.13 24.68,6.2 24.61,6.24 C24.43,6.36 24.22,6.45 23.99,6.52 C23.78,6.59 23.55,6.66 23.31,6.68 C23.08,6.73 22.85,6.73 22.62,6.73 L22.29,6.71 C22.15,6.71 21.99,6.68 21.8,6.64 C21.62,6.59 21.46,6.57 21.32,6.52 L18.37,9.07 C18.46,9.24 18.55,9.4 18.64,9.58 C18.71,9.75 18.78,9.93 18.85,10.09 C18.97,10.47 19.02,10.84 19.02,11.23 C19.02,11.58 18.97,11.95 18.88,12.28 C18.76,12.65 18.62,12.99 18.41,13.32 L21.57,16.01 C21.94,15.87 22.31,15.78 22.71,15.73 C22.85,15.71 22.99,15.71 23.1,15.71 C23.17,15.71 23.24,15.71 23.34,15.71 C23.43,15.71 23.52,15.73 23.62,15.73 C23.71,15.73 23.78,15.76 23.85,15.76 C24.36,15.85 24.82,16.01 25.27,16.27 C25.5,16.41 25.71,16.54 25.92,16.71 C26.08,16.85 26.24,17.01 26.43,17.24 C26.61,17.47 26.75,17.66 26.85,17.84 C27.08,18.26 27.19,18.7 27.24,19.17 C27.24,19.19 27.24,19.24 27.24,19.28 C27.24,19.33 27.24,19.38 27.24,19.4 C27.24,19.77 27.17,20.14 27.03,20.49 C26.87,20.95 26.59,21.35 26.24,21.7 C26.06,21.88 25.87,22.02 25.64,22.16 C25.43,22.3 25.2,22.41 24.96,22.51 C24.73,22.6 24.48,22.67 24.22,22.72 C23.96,22.76 23.71,22.79 23.45,22.79 C22.92,22.79 22.41,22.69 21.92,22.51 C21.83,22.46 21.69,22.41 21.55,22.34 C21.41,22.28 21.29,22.23 21.2,22.16 C20.97,22.02 20.76,21.86 20.55,21.7 C20.22,21.42 19.97,21.09 19.76,20.72 C19.57,20.37 19.43,20.02 19.36,19.63 C19.32,19.44 19.32,19.24 19.32,19.05 C19.32,18.86 19.34,18.7 19.36,18.52 C19.39,18.35 19.43,18.19 19.5,17.98 C19.57,17.77 19.64,17.61 19.74,17.47 L16.69,14.85 C16.48,14.97 16.25,15.08 16.02,15.18 C15.79,15.27 15.55,15.34 15.3,15.41 C14.81,15.52 14.32,15.59 13.81,15.59 L13.81,15.59 C13.39,15.59 12.98,15.55 12.56,15.45 C12.39,15.41 12.19,15.36 11.95,15.29 C11.72,15.22 11.53,15.13 11.37,15.06 L8.12,17.89 C8.24,18.22 8.31,18.54 8.33,18.86 C8.33,19.03 8.33,19.19 8.33,19.38 C8.31,19.54 8.28,19.7 8.24,19.89 C8.21,19.93 8.21,19.98 8.19,20.02 C8.17,20.07 8.17,20.12 8.14,20.16 C8.12,20.21 8.12,20.26 8.1,20.3 C8.07,20.35 8.05,20.4 8.03,20.44 C8,20.49 7.98,20.54 7.96,20.58 C7.93,20.63 7.91,20.67 7.89,20.72 C7.86,20.77 7.84,20.81 7.82,20.86 C7.77,20.93 7.72,21 7.66,21.07 C7.59,21.14 7.54,21.23 7.47,21.3 C7.4,21.37 7.33,21.46 7.26,21.53 C7.19,21.6 7.12,21.67 7.07,21.72 C6.87,21.9 6.66,22.04 6.42,22.18 C6.19,22.32 5.96,22.44 5.7,22.53 C5.49,22.6 5.24,22.67 4.96,22.72 C4.66,22.76 4.4,22.79 4.19,22.79 C4.15,22.79 4.08,22.79 4.01,22.79 C3.94,22.79 3.87,22.79 3.8,22.76 C3.73,22.76 3.66,22.74 3.59,22.74 C3.52,22.74 3.47,22.72 3.4,22.72 C3.15,22.67 2.92,22.6 2.66,22.51 C2.59,22.48 2.52,22.46 2.43,22.41 C2.33,22.37 2.27,22.34 2.17,22.3 C2.1,22.25 2.03,22.21 1.96,22.18 C1.75,22.04 1.54,21.88 1.36,21.72 C1.01,21.37 0.73,20.98 0.57,20.51 C0.43,20.16 0.36,19.79 0.36,19.4 C0.36,19.33 0.36,19.24 0.36,19.17 C0.41,18.7 0.52,18.26 0.75,17.84 C0.99,17.4 1.31,17.01 1.68,16.68 C2.08,16.36 2.52,16.1 3.01,15.92 C3.19,15.85 3.45,15.8 3.73,15.73 C4.01,15.69 4.26,15.66 4.47,15.66 C4.54,15.66 4.63,15.66 4.73,15.66 C4.82,15.66 4.91,15.69 4.98,15.69 C5.03,15.69 5.1,15.71 5.17,15.71 C5.24,15.71 5.31,15.73 5.38,15.76 C5.45,15.78 5.52,15.78 5.59,15.8 C5.66,15.83 5.73,15.85 5.8,15.87 C5.87,15.9 5.91,15.92 5.98,15.94 C6.05,15.96 6.14,16.01 6.21,16.03 C6.28,16.08 6.38,16.1 6.45,16.15 L9.58,13.69 C9.51,13.6 9.42,13.46 9.33,13.32 C9.23,13.18 9.17,13.02 9.1,12.88 C9.03,12.72 8.96,12.6 8.93,12.46 C8.89,12.35 8.86,12.23 8.84,12.07 C8.82,11.93 8.79,11.77 8.77,11.6 C8.75,11.44 8.75,11.32 8.75,11.21 C8.75,10.74 8.82,10.3 8.98,9.89 C9.05,9.7 9.14,9.51 9.28,9.28 C9.42,9.05 9.54,8.87 9.65,8.73 L6.91,6.36 C6.63,6.48 6.35,6.57 6.05,6.64 C5.94,6.66 5.77,6.68 5.61,6.71 C5.42,6.73 5.29,6.73 5.17,6.73 C4.94,6.73 4.7,6.71 4.47,6.68 C4.24,6.64 4.03,6.59 3.8,6.52 C3.59,6.45 3.38,6.36 3.17,6.24 C2.99,6.13 2.8,6.01 2.61,5.85 C2.47,5.73 2.33,5.57 2.2,5.38 C2.06,5.2 1.94,5.01 1.87,4.85 C1.75,4.55 1.68,4.25 1.68,3.92 C1.68,3.85 1.68,3.81 1.68,3.74 C1.68,3.69 1.68,3.62 1.71,3.58 C1.71,3.53 1.73,3.46 1.73,3.41 C1.73,3.37 1.75,3.3 1.78,3.25 C1.8,3.2 1.8,3.13 1.82,3.09 C1.85,3.04 1.87,2.97 1.89,2.93 C1.92,2.88 1.94,2.83 1.96,2.76 C1.99,2.72 2.01,2.67 2.03,2.6 C2.13,2.44 2.24,2.28 2.43,2.09 C2.59,1.9 2.75,1.77 2.89,1.65 C3.08,1.51 3.26,1.39 3.47,1.28 C3.68,1.16 3.89,1.09 4.1,1.02 C4.54,0.88 4.98,0.81 5.45,0.81 L5.45,0.81 C5.56,0.81 5.68,0.81 5.8,0.84 C5.91,0.86 6.03,0.86 6.12,0.88 C6.35,0.93 6.56,0.98 6.77,1.05 C6.89,1.09 6.98,1.12 7.07,1.16 C7.17,1.21 7.28,1.26 7.38,1.3 C7.56,1.42 7.75,1.53 7.91,1.67 C8.17,1.88 8.38,2.14 8.54,2.39 C8.77,2.79 8.89,3.2 8.89,3.67 C8.89,3.81 8.86,3.95 8.84,4.09 C8.77,4.39 8.68,4.67 8.54,4.94 L11.4,7.38 C11.98,7.1 12.6,6.94 13.25,6.87 C13.46,6.85 13.67,6.85 13.9,6.85 C14.11,6.85 14.37,6.87 14.67,6.89 C14.97,6.94 15.21,6.99 15.41,7.03 C15.46,7.06 15.51,7.06 15.55,7.08 C15.6,7.1 15.65,7.1 15.69,7.12 C15.74,7.15 15.79,7.15 15.83,7.17 C15.88,7.19 15.93,7.19 15.97,7.22 C16.02,7.24 16.07,7.26 16.11,7.26 C16.34,7.36 16.58,7.47 16.79,7.59 L19.48,5.29 C19.27,5.01 19.11,4.71 19.02,4.36 C18.95,4.13 18.92,3.9 18.92,3.67 C18.92,3.58 18.92,3.48 18.95,3.41 C18.99,3.09 19.09,2.79 19.25,2.48 C19.32,2.35 19.41,2.21 19.55,2.07 C19.69,1.9 19.81,1.79 19.92,1.7 C20.08,1.56 20.27,1.44 20.46,1.32 C20.53,1.28 20.6,1.26 20.64,1.23 C20.69,1.21 20.78,1.16 20.85,1.14 C20.92,1.12 20.99,1.09 21.06,1.07 C21.27,1 21.48,0.95 21.71,0.91 C21.9,0.84 22.13,0.84 22.34,0.84 L22.34,0.84 Z"></path>
            </g>
        </g>
    </g>
</svg>