<svg width="20px" height="20px" viewBox="0 0 41 41" xmlns="http://www.w3.org/2000/svg" xmlns:xlink="http://www.w3.org/1999/xlink">
    <g stroke="none" stroke-width="1" fill="none" fill-rule="evenodd">
        <g transform="translate(1.000000, 1.000000)">
            <g stroke="#00C1DE" stroke-width="1.6">
                <rect fill="#FFFFFF" fill-rule="nonzero" x="0.6" y="0.6" width="38.4" height="38.4" rx="8"></rect>
                <rect x="0.6" y="0.6" width="38.4" height="38.4" rx="8"></rect>
            </g>
            <g transform="translate(8.500000, 6.500000)" fill="#00C1DE" fill-rule="nonzero">
                <path d="M11.8,0.36 L0.25,7.07 L0.25,12.82 L1.91,12.82 L1.91,8.02 L11.8,2.29 L15.93,4.7 L16.77,3.26 L11.8,0.36 Z M0.25,14.78 L0.25,20.53 L11.8,27.24 L16.77,24.34 L15.93,22.9 L11.8,25.33 L1.91,19.58 L1.91,14.78 L0.25,14.78 L0.25,14.78 Z M17.61,5.67 L21.69,8.04 L21.69,19.56 L17.61,21.93 L18.44,23.38 L23.35,20.53 L23.35,7.1 L18.44,4.24 L17.61,5.67 Z M14.55,15.38 C14.55,14.96 14.5,14.57 14.4,14.15 C14.29,13.71 14.11,13.22 13.81,12.68 C13.52,12.13 13.2,11.71 12.89,11.4 C13.37,11.21 13.9,11.12 14.42,11.12 C14.97,11.12 15.49,11.23 15.99,11.42 C15.93,11.69 15.8,12.03 15.64,12.38 C15.47,12.74 15.28,13.03 15.11,13.24 L15.07,13.31 L15.22,13.98 C15.26,14.21 15.3,14.44 15.34,14.67 L15.36,14.94 L15.57,14.75 C15.78,14.57 16.01,14.31 16.24,14.02 C16.47,13.73 16.66,13.41 16.85,13.08 C17.04,12.74 17.17,12.45 17.25,12.17 C17.65,12.53 18,13.01 18.3,13.64 C18.59,14.27 18.74,14.86 18.74,15.38 L18.74,15.38 C18.74,16.56 18.32,17.57 17.48,18.41 C16.64,19.25 15.64,19.66 14.46,19.66 L14.46,19.66 C14.32,19.66 14.15,19.64 13.98,19.62 C13.79,19.6 13.6,19.56 13.44,19.52 C13.25,19.48 13.1,19.43 12.95,19.37 C13.08,19.25 13.2,19.1 13.33,18.93 C13.46,18.76 13.58,18.59 13.69,18.41 C13.79,18.22 13.9,18.03 14,17.82 C14.11,17.61 14.19,17.42 14.25,17.21 C14.34,17 14.4,16.79 14.44,16.58 C14.5,16.37 14.55,16.16 14.57,15.97 C14.59,15.76 14.61,15.57 14.61,15.38 C14.55,15.41 14.55,15.41 14.55,15.38 L14.55,15.38 Z M11.63,12.13 C11.95,12.4 12.26,12.78 12.53,13.26 C12.81,13.75 12.99,14.19 13.08,14.61 C12.66,14.73 12.24,14.8 11.8,14.8 C11.25,14.8 10.73,14.69 10.23,14.5 C10.27,14.36 10.31,14.19 10.37,14 C10.44,13.83 10.52,13.64 10.63,13.47 C10.73,13.31 10.81,13.14 10.94,12.97 C11.07,12.8 11.17,12.66 11.3,12.51 C11.4,12.36 11.51,12.24 11.63,12.13 L11.63,12.13 Z M11.8,6.21 C12.87,6.21 13.81,6.57 14.63,7.28 C15.45,8 15.91,8.9 16.06,9.95 C15.91,9.91 15.74,9.87 15.53,9.82 C15.34,9.78 15.13,9.76 14.92,9.74 C14.71,9.72 14.55,9.7 14.4,9.7 C13.41,9.7 12.49,9.93 11.63,10.41 C11.28,10.2 10.84,10.03 10.29,9.91 C9.75,9.76 9.28,9.7 8.87,9.7 C8.82,9.7 8.74,9.7 8.63,9.72 C8.61,9.72 8.57,9.72 8.51,9.72 L8.38,9.72 L8.34,10.14 C8.32,10.24 8.32,10.37 8.32,10.47 C8.32,10.62 8.34,10.79 8.36,10.98 L8.38,11.1 L8.51,11.08 C8.55,11.08 8.61,11.08 8.68,11.08 C8.74,11.08 8.8,11.08 8.84,11.08 C8.93,11.08 9.03,11.08 9.14,11.1 C9.24,11.1 9.35,11.12 9.45,11.15 C9.56,11.17 9.66,11.19 9.79,11.21 C9.89,11.23 10,11.25 10.1,11.29 C10.21,11.31 10.29,11.36 10.37,11.38 C10.1,11.65 9.83,12.03 9.56,12.47 C9.28,12.93 9.1,13.35 8.97,13.71 C8.66,13.43 8.34,13.03 8.07,12.53 C7.8,12.03 7.63,11.57 7.54,11.15 C7.5,10.91 7.48,10.68 7.48,10.45 C7.48,10.31 7.48,10.16 7.5,10.03 C7.61,8.96 8.07,8.06 8.91,7.31 C9.77,6.59 10.71,6.21 11.8,6.21 L11.8,6.21 L11.8,6.21 Z M9.77,18.66 L9.83,18.74 L10.25,18.55 C10.48,18.45 10.71,18.32 10.94,18.13 L11.05,18.05 L10.96,17.94 C10.5,17.34 10.23,16.66 10.14,15.93 C10.67,16.1 11.23,16.18 11.78,16.18 C12.22,16.18 12.66,16.14 13.1,16.03 C13.06,16.27 12.99,16.5 12.91,16.77 C12.81,17.02 12.7,17.27 12.55,17.52 C12.41,17.78 12.26,17.99 12.07,18.22 C11.88,18.45 11.72,18.62 11.55,18.76 C11.23,19.01 10.79,19.25 10.29,19.43 C9.77,19.62 9.31,19.71 8.89,19.71 L8.89,19.71 C8.43,19.71 7.96,19.64 7.54,19.5 C7.1,19.35 6.71,19.14 6.37,18.89 C6.01,18.62 5.72,18.32 5.45,17.97 C5.18,17.61 4.99,17.23 4.84,16.79 C4.69,16.35 4.63,15.91 4.63,15.45 C4.63,14.02 5.22,12.87 6.37,12.01 C6.43,12.24 6.52,12.49 6.64,12.74 C6.77,12.99 6.89,13.24 7.06,13.5 C7.23,13.75 7.4,13.98 7.59,14.21 C7.78,14.44 7.96,14.65 8.17,14.84 C8.38,15.03 8.59,15.2 8.78,15.32 C8.78,15.38 8.78,15.43 8.78,15.45 C8.78,15.85 8.82,16.22 8.91,16.6 C8.99,16.98 9.1,17.34 9.26,17.69 C9.35,18.01 9.54,18.34 9.77,18.66 L9.77,18.66 Z M11.8,4.83 C11.19,4.83 10.61,4.91 10.02,5.1 C9.45,5.29 8.93,5.56 8.47,5.9 C8.01,6.24 7.61,6.66 7.25,7.1 C6.89,7.56 6.62,8.06 6.43,8.65 C6.25,9.24 6.14,9.82 6.14,10.43 C5.32,10.87 4.65,11.59 4.07,12.55 C3.5,13.52 3.21,14.46 3.21,15.38 L3.21,15.38 C3.21,16.96 3.75,18.28 4.86,19.39 C5.97,20.5 7.31,21.05 8.87,21.05 C9.26,21.05 9.75,20.99 10.29,20.84 C10.84,20.69 11.28,20.53 11.63,20.34 C11.86,20.46 12.16,20.59 12.47,20.69 C12.81,20.8 13.14,20.88 13.48,20.97 C13.81,21.03 14.13,21.07 14.4,21.07 C15.97,21.07 17.29,20.53 18.4,19.41 C19.51,18.3 20.06,16.96 20.06,15.41 L20.06,15.41 C20.06,14.54 19.81,13.66 19.3,12.72 C18.8,11.8 18.17,11.1 17.46,10.64 C17.46,10.58 17.46,10.54 17.46,10.52 C17.46,8.94 16.91,7.62 15.8,6.51 C14.69,5.4 13.37,4.83 11.8,4.83 L11.8,4.83 Z" id="Shape"></path>
            </g>
        </g>
    </g>
</svg>