<svg width="20px" height="20px" viewBox="0 0 41 41" xmlns="http://www.w3.org/2000/svg" xmlns:xlink="http://www.w3.org/1999/xlink">
    <g stroke="none" stroke-width="1" fill="none" fill-rule="evenodd">
        <g transform="translate(1.000000, 1.000000)">
            <g stroke="#00C1DE" stroke-width="1.6">
                <rect fill="#FFFFFF" fill-rule="nonzero" x="0.6" y="0.6" width="38.4" height="38.4" rx="8"></rect>
                <rect x="0.6" y="0.6" width="38.4" height="38.4" rx="8"></rect>
            </g>
            <g transform="translate(6.500000, 8.500000)" fill="#00C1DE" fill-rule="nonzero">
                <path d="M12.86,11.95 L15.71,14.01 L11.8,18.56 L8.08,14.7 L1.56,22.62 L8.08,17.47 L11.8,21.39 L17.25,15.13 L20.04,16.99 L20.04,10.06 L12.86,11.95 Z M20.72,19.96 C19.34,19.96 18.05,19.53 16.87,18.69 L17.8,17.42 C18.66,18.08 19.65,18.42 20.79,18.42 C21.17,18.42 21.56,18.37 21.92,18.28 C22.28,18.19 22.64,18.08 22.96,17.9 C23.28,17.74 23.59,17.53 23.89,17.31 C24.18,17.08 24.43,16.81 24.66,16.53 C24.88,16.24 25.09,15.94 25.25,15.6 C25.41,15.29 25.54,14.92 25.63,14.56 C25.72,14.2 25.77,13.81 25.77,13.42 C25.77,12.06 25.27,10.88 24.3,9.9 C23.32,8.93 22.14,8.43 20.79,8.43 L20.27,8.43 L19.54,8.5 L19.4,7.84 C19.34,7.5 19.25,7.18 19.13,6.86 C19.02,6.54 18.88,6.25 18.73,5.95 C18.57,5.68 18.39,5.41 18.18,5.14 C17.98,4.89 17.77,4.64 17.53,4.41 C17.3,4.18 17.05,3.98 16.78,3.8 C16.51,3.61 16.23,3.43 15.94,3.3 C15.65,3.16 15.35,3.02 15.03,2.93 C14.72,2.84 14.4,2.75 14.08,2.71 C13.77,2.66 13.43,2.64 13.09,2.64 C11.32,2.64 9.83,3.27 8.58,4.52 C7.33,5.77 6.7,7.27 6.7,9.04 L6.7,9.45 L6.77,10.24 L5.98,10.24 C4.84,10.24 3.89,10.63 3.1,11.43 C2.31,12.2 1.92,13.15 1.92,14.24 C1.92,14.9 2.08,15.54 2.38,16.13 C2.69,16.72 3.1,17.19 3.64,17.58 L2.78,18.85 C2.4,18.58 2.06,18.28 1.76,17.94 C1.47,17.6 1.2,17.24 0.99,16.85 C0.79,16.47 0.61,16.06 0.52,15.6 C0.41,15.17 0.36,14.72 0.36,14.24 C0.36,12.86 0.81,11.63 1.72,10.59 C2.62,9.54 3.78,8.9 5.14,8.72 C5.21,6.59 6.02,4.77 7.56,3.25 C9.1,1.73 10.96,0.98 13.11,0.98 C14.29,0.98 15.4,1.23 16.44,1.71 C17.48,2.21 18.39,2.89 19.13,3.75 C19.88,4.61 20.42,5.61 20.74,6.7 C22.53,6.7 24.07,7.34 25.34,8.61 C26.61,9.88 27.24,11.43 27.24,13.22 C27.24,15.1 26.61,16.69 25.34,18.01 C24.05,19.3 22.51,19.96 20.72,19.96 L20.72,19.96 Z" id="Shape"></path>
            </g>
        </g>
    </g>
</svg>