<svg width="20px" height="20px" viewBox="0 0 41 41" xmlns="http://www.w3.org/2000/svg" xmlns:xlink="http://www.w3.org/1999/xlink">
    <g stroke="none" stroke-width="1" fill="none" fill-rule="evenodd">
        <g transform="translate(1.000000, 1.000000)">
            <g stroke="#00C1DE" stroke-width="1.6">
                <rect fill="#FFFFFF" fill-rule="nonzero" x="0.6" y="0.6" width="38.4" height="38.4" rx="8"></rect>
                <rect x="0.6" y="0.6" width="38.4" height="38.4" rx="8"></rect>
            </g>
            <g transform="translate(6.500000, 9.500000)" fill="#00C1DE" fill-rule="nonzero">
                <path d="M16.98,0.61 C15.39,0.61 13.92,0.94 12.52,1.63 C11.11,2.29 9.95,3.23 8.99,4.4 C8.03,5.58 7.39,6.91 7.01,8.37 C6.96,8.37 6.92,8.37 6.85,8.37 C6.78,8.37 6.74,8.37 6.7,8.37 C6,8.37 5.33,8.48 4.69,8.68 C4.04,8.9 3.46,9.19 2.95,9.59 C2.43,9.99 1.97,10.43 1.59,10.94 C1.19,11.45 0.9,12.03 0.67,12.67 C0.45,13.32 0.36,13.98 0.36,14.67 L0.36,14.67 C0.36,15.03 0.4,15.4 0.52,15.82 C0.61,16.25 0.74,16.64 0.92,17.04 C1.1,17.44 1.27,17.82 1.52,18.2 C1.77,18.57 1.99,18.86 2.23,19.13 C2.75,19.64 3.44,20.08 4.31,20.44 C5.18,20.79 5.98,20.97 6.7,20.97 L6.72,20.97 C7.45,20.97 8.26,20.79 9.13,20.42 C10,20.04 10.71,19.62 11.22,19.11 C12.21,18.13 12.76,16.87 12.94,15.31 L10.64,15.14 C10.47,15.11 10.33,15.07 10.24,14.98 C10.15,14.89 10.11,14.78 10.11,14.67 C10.11,14.56 10.18,14.4 10.26,14.27 L14.17,9.48 C14.21,9.41 14.28,9.35 14.32,9.3 C14.39,9.26 14.44,9.24 14.5,9.21 C14.57,9.19 14.61,9.19 14.68,9.19 C14.75,9.19 14.79,9.21 14.84,9.26 C14.88,9.28 14.95,9.32 14.99,9.39 C15.04,9.46 15.08,9.52 15.1,9.59 L17.31,14.96 C17.42,15.2 17.4,15.4 17.29,15.54 C17.18,15.69 17,15.74 16.73,15.71 L15.02,15.56 C14.84,17.27 14.12,18.8 12.9,20.15 C13.16,20.26 13.48,20.37 13.81,20.48 C14.17,20.59 14.52,20.68 14.88,20.75 C15.24,20.81 15.62,20.88 15.97,20.93 C16.33,20.97 16.67,20.99 16.96,20.99 L16.96,20.99 C18.81,20.99 20.53,20.53 22.11,19.62 C23.69,18.71 24.92,17.47 25.86,15.89 C26.77,14.32 27.24,12.61 27.24,10.77 C27.24,8.93 26.77,7.22 25.86,5.64 C24.94,4.07 23.69,2.85 22.11,1.92 C20.57,1.07 18.85,0.61 16.98,0.61 L16.98,0.61 Z"></path>
            </g>
        </g>
    </g>
</svg>