<svg width="20px" height="20px" viewBox="0 0 41 41" xmlns="http://www.w3.org/2000/svg" xmlns:xlink="http://www.w3.org/1999/xlink">
    <g stroke="none" stroke-width="1" fill="none" fill-rule="evenodd">
        <g transform="translate(1.000000, 1.000000)">
            <g stroke="#00C1DE" stroke-width="1.6">
                <rect fill="#FFFFFF" fill-rule="nonzero" x="0.6" y="0.6" width="38.4" height="38.4" rx="8"></rect>
                <rect x="0.6" y="0.6" width="38.4" height="38.4" rx="8"></rect>
            </g>
            <g transform="translate(6.500000, 6.500000)" fill="#00C1DE" fill-rule="nonzero">
                <path d="M23.59,12.99 L21.43,14.25 L24.04,18.87 L22.96,20.85 L17.9,20.85 L17.9,23.31 L24.38,23.31 L26.93,18.87 L23.59,12.99 Z M12.84,2.85 L14.82,2.85 L17.33,7.19 L19.5,5.93 L16.26,0.36 L11.36,0.36 L8.12,6 L10.29,7.25 L12.84,2.85 Z M3.56,18.85 L6.17,14.29 L4.01,13.03 L0.67,18.85 L3.22,23.29 L9.76,23.29 L9.76,20.83 L4.66,20.83 L3.56,18.85 Z M22.01,10.25 C22.46,10.64 22.99,10.8 23.57,10.8 C24.16,10.78 24.67,10.56 25.09,10.15 C25.54,9.71 25.78,9.16 25.78,8.53 C25.78,7.9 25.56,7.35 25.09,6.91 C24.95,6.77 24.77,6.62 24.61,6.52 C24.44,6.42 24.24,6.34 24.06,6.3 C23.88,6.26 23.67,6.22 23.47,6.22 C23.27,6.22 23.09,6.24 22.88,6.3 C22.68,6.36 22.52,6.42 22.34,6.52 C22.15,6.62 21.99,6.75 21.85,6.91 C21.59,7.17 21.41,7.48 21.3,7.82 C21.2,8.16 21.16,8.53 21.22,8.89 L16.32,11.63 L16.2,11.51 C15.55,10.86 14.74,10.54 13.81,10.54 C12.86,10.54 12.05,10.86 11.38,11.51 L11.26,11.63 L6.36,8.89 C6.48,8.16 6.28,7.5 5.73,6.91 C5.28,6.46 4.74,6.22 4.11,6.22 C3.48,6.22 2.93,6.44 2.49,6.91 C2.18,7.21 1.98,7.56 1.88,7.94 C1.78,8.33 1.78,8.73 1.88,9.12 C1.98,9.5 2.18,9.85 2.49,10.15 C2.91,10.58 3.42,10.8 4.03,10.8 C4.64,10.8 5.14,10.64 5.57,10.25 L10.51,12.99 C10.33,13.56 10.31,14.14 10.47,14.75 C10.61,15.36 10.91,15.91 11.36,16.35 C11.78,16.78 12.33,17.08 13,17.27 L13,22.8 C12.72,22.92 12.43,23.08 12.15,23.31 C11.7,23.75 11.46,24.3 11.46,24.93 C11.46,25.56 11.68,26.1 12.15,26.55 C12.59,27 13.14,27.24 13.77,27.24 C14.4,27.24 14.94,27.02 15.39,26.55 C15.84,26.1 16.08,25.56 16.08,24.93 C16.08,24.3 15.86,23.75 15.39,23.31 C15.17,23.08 14.88,22.9 14.54,22.8 L14.54,17.27 C15.09,17.17 15.63,16.86 16.18,16.35 C16.48,16.05 16.71,15.73 16.89,15.34 C17.05,14.98 17.15,14.59 17.17,14.19 C17.19,13.8 17.15,13.39 17.03,12.99 L22.01,10.25 Z" id="Shape"></path>
            </g>
        </g>
    </g>
</svg>