<svg width="20px" height="20px" viewBox="0 0 41 41" xmlns="http://www.w3.org/2000/svg" xmlns:xlink="http://www.w3.org/1999/xlink">
    <g stroke="none" stroke-width="1" fill="none" fill-rule="evenodd">
        <g transform="translate(1.000000, 1.000000)">
            <g stroke="#00C1DE" stroke-width="1.6">
                <rect fill="#FFFFFF" fill-rule="nonzero" x="0.6" y="0.6" width="38.4" height="38.4" rx="8"></rect>
                <rect x="0.6" y="0.6" width="38.4" height="38.4" rx="8"></rect>
            </g>
            <g transform="translate(6.500000, 7.500000)" fill="#00C1DE" fill-rule="nonzero">
                <path d="M13.91,5.37 C14.26,5.37 14.6,5.28 14.9,5.11 C15.19,4.95 15.45,4.69 15.61,4.4 C15.78,4.1 15.89,3.77 15.89,3.41 C15.89,2.86 15.7,2.4 15.3,2.02 C14.92,1.64 14.43,1.45 13.88,1.45 C13.34,1.45 12.87,1.64 12.47,2.02 C12.09,2.4 11.88,2.86 11.88,3.41 C11.88,3.77 11.96,4.08 12.15,4.38 C12.32,4.67 12.58,4.9 12.87,5.09 C13.21,5.28 13.53,5.37 13.91,5.37 L13.91,5.37 Z M9.77,13.62 C9.77,13.07 9.58,12.61 9.18,12.23 C8.8,11.85 8.31,11.66 7.77,11.66 C7.49,11.66 7.24,11.71 6.99,11.81 C6.73,11.92 6.52,12.04 6.35,12.23 C6.18,12.4 6.04,12.61 5.93,12.86 C5.82,13.09 5.78,13.35 5.78,13.62 C5.78,13.89 5.82,14.15 5.93,14.38 C6.04,14.61 6.18,14.82 6.35,15.01 C6.52,15.18 6.73,15.33 6.99,15.43 C7.24,15.54 7.49,15.58 7.77,15.58 C7.96,15.58 8.12,15.56 8.29,15.52 C8.46,15.47 8.63,15.41 8.78,15.33 C8.93,15.24 9.05,15.14 9.18,15.01 C9.31,14.88 9.41,14.76 9.5,14.61 C9.58,14.46 9.64,14.32 9.69,14.15 C9.73,13.98 9.77,13.81 9.77,13.62 L9.77,13.62 Z M22.07,8.53 C21.23,8.53 20.51,8.23 19.92,7.64 C19.33,7.05 19.03,6.36 19.03,5.51 C19.03,4.69 19.33,3.98 19.92,3.39 C20.51,2.8 21.23,2.5 22.07,2.5 C22.62,2.5 23.13,2.63 23.61,2.9 C24.08,3.18 24.45,3.53 24.73,4 C25,4.46 25.13,4.97 25.13,5.49 C25.13,6.31 24.83,7.03 24.24,7.62 C23.65,8.21 22.91,8.53 22.07,8.53 L22.07,8.53 Z M16.8,20.09 C16.8,20.91 16.5,21.62 15.91,22.21 C15.32,22.8 14.6,23.1 13.76,23.1 C13.34,23.1 12.96,23.01 12.58,22.87 C12.2,22.7 11.88,22.49 11.61,22.23 C11.33,21.96 11.12,21.64 10.95,21.29 C10.78,20.91 10.72,20.53 10.72,20.13 C10.72,19.31 11.01,18.59 11.61,18 C12.2,17.41 12.91,17.12 13.76,17.12 C14.31,17.12 14.81,17.24 15.3,17.52 C15.76,17.79 16.14,18.15 16.42,18.61 C16.69,19.08 16.8,19.54 16.8,20.09 L16.8,20.09 Z M5.57,8.67 C4.73,8.67 4.01,8.38 3.42,7.79 C2.83,7.2 2.53,6.5 2.53,5.66 C2.53,4.84 2.83,4.12 3.42,3.53 C4.01,2.95 4.73,2.65 5.57,2.65 C5.91,2.65 6.23,2.69 6.54,2.8 C6.86,2.9 7.13,3.05 7.39,3.22 C7.64,3.41 7.85,3.62 8.04,3.87 C8.23,4.12 8.38,4.4 8.48,4.69 C8.59,4.99 8.63,5.3 8.63,5.64 C8.63,6.46 8.34,7.18 7.74,7.77 C7.13,8.38 6.42,8.67 5.57,8.67 L5.57,8.67 Z M22.07,0.42 C20.64,0.42 19.41,0.92 18.4,1.91 C17.39,2.9 16.88,4.1 16.88,5.51 C16.88,6.27 17.05,6.99 17.41,7.7 L13.82,10 L10.3,7.75 C10.59,7.09 10.76,6.4 10.76,5.66 C10.76,4.25 10.26,3.05 9.24,2.06 C8.23,1.07 7.01,0.57 5.57,0.57 C4.62,0.57 3.76,0.8 2.96,1.24 C2.15,1.68 1.52,2.31 1.06,3.09 C0.59,3.87 0.36,4.74 0.36,5.66 C0.36,7.07 0.87,8.27 1.88,9.26 C2.89,10.25 4.12,10.76 5.55,10.76 C7.05,10.76 8.31,10.21 9.35,9.11 L12.87,11.39 L12.87,15.05 C12.05,15.18 11.31,15.47 10.66,15.96 C10,16.42 9.47,17.03 9.09,17.75 C8.72,18.46 8.53,19.24 8.53,20.09 C8.53,21.5 9.03,22.7 10.04,23.69 C11.06,24.68 12.28,25.18 13.72,25.18 C15.15,25.18 16.37,24.68 17.39,23.69 C18.4,22.7 18.91,21.5 18.91,20.09 C18.91,18.82 18.48,17.73 17.66,16.78 C16.84,15.83 15.8,15.26 14.56,15.07 L14.56,11.49 L18.32,9.07 C18.46,9.22 18.61,9.35 18.8,9.49 C18.99,9.62 19.18,9.75 19.39,9.87 C19.6,9.98 19.81,10.08 20.05,10.19 C20.28,10.29 20.51,10.36 20.72,10.44 C20.95,10.5 21.16,10.57 21.4,10.59 C21.63,10.63 21.84,10.65 22.03,10.65 L22.03,10.65 C22.98,10.65 23.84,10.42 24.64,9.98 C25.45,9.52 26.08,8.9 26.54,8.13 C27.01,7.35 27.24,6.48 27.24,5.56 C27.24,4.15 26.73,2.95 25.72,1.93 C24.73,0.92 23.51,0.42 22.07,0.42 L22.07,0.42 Z M19.54,11.98 C19.26,11.98 19.01,12.02 18.76,12.13 C18.51,12.23 18.29,12.36 18.13,12.55 C17.96,12.72 17.81,12.93 17.7,13.18 C17.6,13.41 17.56,13.66 17.56,13.94 C17.56,14.21 17.6,14.46 17.7,14.7 C17.81,14.93 17.96,15.14 18.13,15.33 C18.29,15.5 18.51,15.64 18.76,15.75 C19.01,15.85 19.26,15.9 19.54,15.9 C19.9,15.9 20.24,15.81 20.53,15.64 C20.83,15.47 21.08,15.22 21.25,14.93 C21.42,14.63 21.52,14.3 21.52,13.94 C21.52,13.58 21.44,13.26 21.25,12.95 C21.06,12.63 20.83,12.42 20.53,12.23 C20.24,12.06 19.9,11.98 19.54,11.98 L19.54,11.98 Z" id="Shape"></path>
            </g>
        </g>
    </g>
</svg>