<svg xmlns="http://www.w3.org/2000/svg" xmlns:xlink="http://www.w3.org/1999/xlink" x="0" y="0" height="20px" width="20px" viewBox="0 0 75 75">
<defs>
<linearGradient id="BlueGradient-668f764d-ba59-438e-a633-4435edc440f4" x1="1131.1" y1="-516.48" x2="1131.1" y2="-366.48" gradientTransform="translate(1149.48 525.13) rotate(-135)" gradientUnits="userSpaceOnUse">
<stop offset="0" stop-color="#2e27ad"></stop>
<stop offset="1" stop-color="#527fff"></stop>
</linearGradient>
</defs>
<g>
<rect data-name="Blue Gradient" style="fill:url(#BlueGradient-668f764d-ba59-438e-a633-4435edc440f4);" width="75" height="75"></rect>
<g data-name="Icon Test">
<path fill="#fff" d="M25.38,29.53c-7.75,0-16-2.35-16-6.7s8.23-6.7,16-6.7,16,2.35,16,6.7S33.12,29.53,25.38,29.53Zm0-11.4c-8,0-14,2.48-14,4.7s6,4.7,14,4.7,14-2.48,14-4.7S33.37,18.13,25.38,18.13Z"></path>
<rect fill="#fff" x="39.41" y="23.13" width="2" height="17"></rect>
<path fill="#fff" d="M25.37,62c-7.74,0-16-2.32-16-6.63V23.13h2V55.39c0,2.2,6,4.65,14,4.65s14-2.45,14-4.65V52.13h2v3.26C41.41,59.7,33.12,62,25.37,62Z"></path>
<path fill="#fff" d="M25.38,40.83c-7.74,0-16-2.35-16-6.7h2c0,2.22,6,4.7,14,4.7s14-2.48,14-4.7h2C41.36,38.48,33.13,40.83,25.38,40.83Z"></path>
<path fill="#fff" d="M25.45,51.83c-7.74,0-16-2.35-16-6.7h2c0,2.22,6,4.7,14,4.7a31.14,31.14,0,0,0,9.66-1.4l.64,1.89A33.06,33.06,0,0,1,25.45,51.83Z"></path>
<path fill="#fff" d="M48.85,62.87a1,1,0,0,1-1-1C47.85,55,40,47.13,33.1,47.13a1,1,0,0,1,0-2c6.89,0,14.75-7.86,14.75-14.75a1,1,0,0,1,2,0c0,6.89,7.85,14.75,14.75,14.75a1,1,0,0,1,0,2c-6.9,0-14.75,7.85-14.75,14.74A1,1,0,0,1,48.85,62.87ZM38,46.13A20.52,20.52,0,0,1,48.85,57,20.48,20.48,0,0,1,59.73,46.13,20.5,20.5,0,0,1,48.85,35.25,20.54,20.54,0,0,1,38,46.13Z"></path>
<rect fill="#fff" x="53.41" y="22.13" width="2" height="6"></rect>
<rect fill="#fff" x="51.41" y="24.13" width="6" height="2"></rect>
<rect fill="#fff" x="42.41" y="12.13" width="2" height="6"></rect>
<rect fill="#fff" x="40.41" y="14.13" width="6" height="2"></rect>
</g>
</g>
</svg>