<svg xmlns="http://www.w3.org/2000/svg" xmlns:xlink="http://www.w3.org/1999/xlink" x="0" y="0" width="20px" height="20px" viewBox="85 80 140 140" style="enable-background:new 0 0 288 288;" xml:space="preserve">
<g>
<path fill="#F80000" d="M194.6,81.8H93.4c-3.5,0-6.3,2.8-6.3,6.3v54.3h18.2v-23.9c0-5.2,4.2-9.3,9.3-9.3h20.1c5.2,0,9.3,4.2,9.3,9.3   v20.9l22.7-21.8l-3-3.1l12.7-3.1l-3.6,12.6l-3-3.1l-22.4,21.6h28.7v-4.4l11.3,6.5l-11.3,6.5v-4.4h-28.7l22.4,21.6l3-3.1l3.6,12.6   l-12.7-3.1l3-3.1l-22.7-21.8v20.9c0,5.2-4.2,9.3-9.3,9.3h-20.1c-5.2,0-9.3-4.2-9.3-9.3v-23.9H87.1v53c0,3.5,2.8,6.3,6.3,6.3h101.1   c3.5,0,6.3-2.8,6.3-6.3V88.1C200.9,84.7,198,81.8,194.6,81.8z"></path>
<path fill="#F80000" d="M109.8,146.8v23.9c0,2.7,2.2,5,5,5h20.1c2.7,0,5-2.2,5-5v-52.1c0-2.7-2.2-5-5-5h-20.1c-2.7,0-5,2.2-5,5v23.9   h16.1v-4.4l11.3,6.5l-11.3,6.5v-4.4H109.8z"></path>
</g>
</svg>