<svg xmlns="http://www.w3.org/2000/svg" xmlns:xlink="http://www.w3.org/1999/xlink" x="0" y="0" width="20px" height="20px" viewBox="85 80 140 140" style="enable-background:new 0 0 288 288;" xml:space="preserve">
<g>
<g>
<g>
<rect x="99.6" y="100.3" fill="#F80000" width="22.1" height="22.9"></rect>
<path fill="#F80000" d="M188.4,123.3v-22.9h-59.6v22.9H188.4z M171.1,109.2h3.2l1.8,3.1l1.8-3.1h2.8l-3,4.6l3.1,4.8h-3.2l-1.9-3.4     l-1.9,3.4H171l3.1-5L171.1,109.2z M166.1,116.1h2.3v2.5h-2.3V116.1z M153.8,109.2h3.2l1.8,3.1l1.8-3.1h2.8l-3,4.6l3.1,4.8h-3.2     l-1.9-3.4l-1.9,3.4h-2.9l3.1-5L153.8,109.2z M148.8,116.1h2.3v2.5h-2.3V116.1z M139.8,109.2l1.8,3.1l1.8-3.1h2.8l-3,4.6l3.1,4.8     h-3.2l-1.9-3.4l-1.9,3.4h-2.9l3.1-5l-3-4.3H139.8z"></path>
<rect x="99.6" y="132.5" fill="#F80000" width="22.1" height="22.9"></rect>
<path fill="#F80000" d="M188.4,155.5v-22.9h-59.6v22.9H188.4z M171.1,140.2h3.2l1.8,3.1l1.8-3.1h2.8l-3,4.6l3.1,4.8h-3.2l-1.9-3.4     l-1.9,3.4H171l3.1-5L171.1,140.2z M166.1,147.1h2.3v2.5h-2.3V147.1z M153.8,140.2h3.2l1.8,3.1l1.8-3.1h2.8l-3,4.6l3.1,4.8h-3.2     l-1.9-3.4l-1.9,3.4h-2.9l3.1-5L153.8,140.2z M148.8,147.1h2.3v2.5h-2.3V147.1z M139.8,140.2l1.8,3.1l1.8-3.1h2.8l-3,4.6l3.1,4.8     h-3.2l-1.9-3.4l-1.9,3.4h-2.9l3.1-5l-3-4.3H139.8z"></path>
<path fill="#F80000" d="M188.4,187.7v-22.9h-59.6v22.9H188.4z M171.1,171.2h3.2l1.8,3.1l1.8-3.1h2.8l-3,4.6l3.1,4.8h-3.2l-1.9-3.4     l-1.9,3.4H171l3.1-5L171.1,171.2z M166.1,178.1h2.3v2.5h-2.3V178.1z M153.8,171.2h3.2l1.8,3.1l1.8-3.1h2.8l-3,4.6l3.1,4.8h-3.2     l-1.9-3.4l-1.9,3.4h-2.9l3.1-5L153.8,171.2z M148.8,178.1h2.3v2.5h-2.3V178.1z M139.8,171.2l1.8,3.1l1.8-3.1h2.8l-3,4.6l3.1,4.8     h-3.2l-1.9-3.4l-1.9,3.4h-2.9l3.1-5l-3-4.3H139.8z"></path>
<rect x="99.6" y="164.7" fill="#F80000" width="22.1" height="22.9"></rect>
</g>
</g>
</g>
</svg>