<svg xmlns="http://www.w3.org/2000/svg" xmlns:xlink="http://www.w3.org/1999/xlink" x="0" y="0" width="20px" height="20px" viewBox="-210 205 225 225"style="enable-background:new -251 163 288 288;" xml:space="preserve">
<switch>
<g>
<path fill="#F80000" d="M-107,254.3c-29.8,0-53.9,24.1-53.9,53.9c0,29.8,24.1,53.9,53.9,53.9s53.9-24.1,53.9-53.9    C-53.1,278.2-77.2,254.3-107,254.3z M-146.9,311v-6h13.9v-8.4l19.3,11.2L-133,319v-8H-146.9z M-106.9,347.4l-11.2-19.5h8.1v-40.4    h-8.1l11.2-19.5l11.2,19.5h-8.4V328h8.4L-106.9,347.4z M-80,311v8l-19.1-11.2l19.1-11.2v8.4h14v6H-80z"></path>
</g>
</switch>
</svg>