<svg width="20px" height="20px" viewBox="0 0 41 41" xmlns="http://www.w3.org/2000/svg" xmlns:xlink="http://www.w3.org/1999/xlink">
    <g stroke="none" stroke-width="1" fill="none" fill-rule="evenodd">
        <g transform="translate(1.000000, 1.000000)">
            <g stroke="#00C1DE" stroke-width="1.6">
                <rect fill="#FFFFFF" fill-rule="nonzero" x="0.6" y="0.6" width="38.4" height="38.4" rx="8"></rect>
                <rect x="0.6" y="0.6" width="38.4" height="38.4" rx="8"></rect>
            </g>
            <g transform="translate(8.500000, 6.500000)" fill="#00C1DE" fill-rule="nonzero">
                <path d="M17.84,6.87 L21.53,6.87 C21.79,6.87 22.01,6.93 22.23,7.05 C22.45,7.17 22.61,7.35 22.73,7.55 C22.86,7.76 22.92,8 22.92,8.26 L22.92,9.98 C22.92,10.59 22.63,11.01 22.09,11.25 C21.89,11.33 21.71,11.37 21.51,11.37 L17.46,11.37 L17.46,11.37 C17.08,11.37 16.73,11.23 16.47,10.97 C16.19,10.69 16.07,10.36 16.07,9.98 C16.07,9.9 16.07,9.82 16.09,9.72 C16.11,9.62 16.13,9.54 16.15,9.47 C16.17,9.45 16.17,9.41 16.19,9.39 C16.21,9.37 16.21,9.33 16.23,9.31 C16.25,9.29 16.25,9.25 16.25,9.23 C16.25,9.21 16.27,9.17 16.27,9.15 C16.29,9.05 16.33,8.93 16.35,8.83 C16.37,8.73 16.39,8.61 16.41,8.48 C16.43,8.36 16.45,8.24 16.45,8.12 C16.49,7.78 16.65,7.47 16.91,7.23 C17.2,6.99 17.5,6.87 17.84,6.87 L17.84,6.87 Z M14.76,12.91 L21.53,12.91 C21.91,12.91 22.25,13.05 22.51,13.31 C22.79,13.6 22.92,13.92 22.92,14.31 L22.92,16.02 L22.92,16.02 C22.92,16.29 22.86,16.51 22.73,16.73 C22.61,16.95 22.43,17.11 22.23,17.24 C22.01,17.36 21.79,17.42 21.53,17.42 L9.91,17.42 L9.91,17.42 C9.79,17.42 9.67,17.38 9.56,17.32 C9.46,17.26 9.38,17.18 9.3,17.05 C9.24,16.95 9.2,16.83 9.2,16.71 C9.2,16.41 9.34,16.21 9.61,16.08 C9.79,16 9.95,15.92 10.13,15.84 C10.29,15.76 10.49,15.66 10.69,15.56 C10.89,15.46 11.1,15.34 11.28,15.23 C11.48,15.11 11.66,15.01 11.86,14.89 C12.04,14.77 12.24,14.65 12.42,14.51 C12.61,14.39 12.77,14.24 12.91,14.12 C13.21,13.86 13.47,13.6 13.75,13.31 C13.83,13.23 13.91,13.15 14.04,13.09 C14.16,13.03 14.28,12.97 14.4,12.93 C14.54,12.91 14.66,12.91 14.76,12.91 L14.76,12.91 Z M6.08,18.95 L21.53,18.95 C21.91,18.95 22.25,19.1 22.51,19.36 C22.79,19.64 22.92,19.96 22.92,20.35 L22.92,25.85 L22.92,25.85 C22.92,26.23 22.77,26.57 22.51,26.84 C22.23,27.12 21.91,27.24 21.53,27.24 L6.08,27.24 L6.08,27.24 C5.7,27.24 5.36,27.1 5.09,26.84 C4.81,26.55 4.69,26.23 4.69,25.85 L4.69,20.35 C4.69,20.09 4.75,19.86 4.87,19.64 C4.99,19.42 5.17,19.26 5.38,19.14 C5.58,19.01 5.84,18.95 6.08,18.95 L6.08,18.95 Z M10.23,6.48 C10.15,6.44 10.05,6.42 9.95,6.42 C9.89,6.42 9.83,6.44 9.75,6.46 C8.68,6.81 7.75,7.27 6.95,7.88 C6.14,8.46 5.48,9.15 4.93,9.88 C4.67,10.24 4.41,10.67 4.15,11.11 C3.89,11.56 3.64,12.06 3.4,12.59 C3.32,12.75 3.3,12.91 3.36,13.05 C3.38,13.09 3.4,13.13 3.42,13.19 C3.46,13.23 3.48,13.27 3.54,13.31 C3.58,13.36 3.62,13.38 3.66,13.4 C3.75,13.44 3.85,13.46 3.95,13.46 L4.15,13.42 C4.29,13.38 4.41,13.27 4.51,13.11 C4.63,12.91 4.79,12.63 4.99,12.24 C5.19,11.86 5.34,11.58 5.42,11.44 C5.56,11.17 5.72,10.93 5.88,10.71 C6.04,10.49 6.2,10.26 6.36,10.06 C6.52,9.86 6.71,9.68 6.87,9.5 C7.03,9.31 7.21,9.17 7.39,9.01 C8.09,8.42 9.02,7.96 10.15,7.6 C10.31,7.53 10.43,7.43 10.51,7.29 C10.53,7.25 10.55,7.21 10.57,7.15 C10.59,7.09 10.59,7.05 10.59,7.01 L10.57,6.83 C10.55,6.77 10.51,6.69 10.45,6.63 C10.37,6.56 10.31,6.5 10.23,6.48 L10.23,6.48 Z M15.1,5.29 C15.26,6.75 15.06,8.1 14.52,9.35 C14.38,9.66 14.24,9.98 14.06,10.28 C13.87,10.59 13.69,10.89 13.47,11.17 C13.27,11.48 13.03,11.76 12.79,12.04 C12.55,12.32 12.26,12.61 11.98,12.89 C11.42,13.44 10.83,13.9 10.21,14.29 C9.58,14.67 8.92,14.97 8.24,15.19 C7.33,15.5 6.38,15.64 5.44,15.64 C5.34,15.64 5.01,15.6 4.49,15.52 C3.97,15.44 3.62,15.42 3.48,15.48 C3.38,15.54 3.28,15.68 3.2,15.88 C3.12,16.12 3.04,16.39 3,16.65 C2.98,16.79 2.94,16.93 2.88,17.05 C2.82,17.18 2.78,17.32 2.72,17.44 C2.6,17.7 2.44,17.86 2.25,17.9 C2.07,17.96 1.89,17.98 1.75,17.96 C1.63,17.94 1.51,17.9 1.39,17.84 C1.35,17.8 1.29,17.78 1.23,17.72 C1.17,17.68 1.11,17.62 1.07,17.58 C1.01,17.54 0.97,17.5 0.93,17.46 C0.87,17.42 0.83,17.36 0.78,17.3 C0.78,17.28 0.76,17.26 0.76,17.24 C0.74,17.22 0.74,17.2 0.74,17.18 C0.68,16.95 0.7,16.71 0.81,16.41 C0.93,16.1 1.07,15.84 1.25,15.6 C1.43,15.36 1.57,15.11 1.71,14.89 C1.85,14.65 1.89,14.47 1.85,14.37 C1.85,14.35 1.77,14.24 1.61,14.06 C1.45,13.88 1.37,13.76 1.33,13.72 C1.29,13.64 1.25,13.54 1.19,13.44 C1.15,13.34 1.09,13.21 1.05,13.09 C1.01,12.97 0.97,12.87 0.95,12.79 C0.87,12.57 0.81,12.28 0.76,11.96 C0.7,11.64 0.68,11.35 0.68,11.11 L0.7,10.65 C0.72,10.34 0.81,10 0.91,9.6 C1.01,9.19 1.13,8.87 1.27,8.61 C1.59,7.96 1.97,7.37 2.44,6.83 C2.64,6.61 2.9,6.34 3.2,6.04 C3.52,5.76 3.81,5.51 4.05,5.33 C4.35,5.11 4.77,4.89 5.32,4.66 C5.86,4.44 6.4,4.22 6.95,4.04 C7.49,3.86 8.03,3.65 8.58,3.45 C8.78,3.37 9.04,3.27 9.32,3.13 C9.61,2.99 9.85,2.87 10.03,2.74 C10.45,2.48 10.75,2.2 10.91,1.88 L11.1,1.51 L11.28,1.17 C11.4,0.95 11.46,0.85 11.48,0.91 C11.48,0.95 11.56,0.89 11.72,0.7 L11.78,0.64 C11.98,0.42 12.1,0.36 12.16,0.46 C12.4,0.38 12.67,0.44 12.95,0.66 C13.23,0.89 13.49,1.17 13.71,1.53 C13.93,1.9 14.14,2.26 14.3,2.58 C14.38,2.74 14.46,2.91 14.52,3.05 C14.58,3.19 14.62,3.31 14.66,3.43 C14.68,3.49 14.7,3.55 14.72,3.63 C14.74,3.71 14.76,3.76 14.78,3.84 C14.8,3.9 14.82,3.98 14.84,4.04 C14.86,4.1 14.88,4.18 14.88,4.24 C14.9,4.3 14.9,4.38 14.92,4.44 C14.94,4.5 14.94,4.58 14.96,4.64 C14.98,4.71 14.98,4.79 15,4.85 C15.02,4.91 15.02,4.99 15.02,5.05 C15.08,5.15 15.08,5.23 15.1,5.29 L15.1,5.29 Z" id="Shape"></path>
            </g>
        </g>
    </g>
</svg>