<svg width="20px" height="20px" viewBox="0 0 41 41" xmlns="http://www.w3.org/2000/svg" xmlns:xlink="http://www.w3.org/1999/xlink">
    <g stroke="none" stroke-width="1" fill="none" fill-rule="evenodd">
        <g transform="translate(1.000000, 1.000000)">
            <g stroke="#00C1DE" stroke-width="1.6">
                <rect fill="#FFFFFF" fill-rule="nonzero" x="0.6" y="0.6" width="38.4" height="38.4" rx="8"></rect>
                <rect x="0.6" y="0.6" width="38.4" height="38.4" rx="8"></rect>
            </g>
            <g transform="translate(6.500000, 9.500000)" fill="#00C1DE" fill-rule="nonzero">
                <path d="M23.53,11.53 C23.36,11.53 23.23,11.51 23.15,11.47 L23.09,11.47 C23,11.47 22.94,11.45 22.9,11.41 C22.83,11.39 22.77,11.39 22.71,11.37 C22.64,11.34 22.58,11.32 22.54,11.32 C22.5,11.3 22.43,11.3 22.37,11.28 C22.31,11.26 22.25,11.24 22.18,11.24 L22.18,19.16 L5.44,19.16 L5.44,11.22 C5.31,11.26 5.08,11.32 4.75,11.41 C4.66,11.41 4.6,11.43 4.56,11.47 L4.49,11.47 C4.45,11.47 4.39,11.49 4.3,11.51 C4.22,11.53 4.16,11.55 4.12,11.55 L3.68,11.55 C3.3,11.55 3.02,11.53 2.86,11.49 L2.86,20.02 C2.86,20.38 2.98,20.67 3.23,20.92 C3.49,21.17 3.78,21.3 4.14,21.3 L23.46,21.3 C23.82,21.3 24.11,21.17 24.37,20.92 C24.62,20.67 24.74,20.38 24.74,20.02 L24.74,11.47 C24.58,11.51 24.3,11.53 23.92,11.53 L23.53,11.53 L23.53,11.53 Z M15.01,13.17 L14.63,13.17 L14.57,13.61 C14.54,13.52 14.52,13.46 14.48,13.4 C14.44,13.34 14.4,13.27 14.34,13.23 C14.27,13.19 14.21,13.15 14.13,13.13 C14.04,13.11 13.96,13.08 13.87,13.08 C13.06,13.15 12.61,13.65 12.53,14.61 C12.55,15.35 12.87,15.73 13.41,15.75 C13.89,15.75 14.23,15.52 14.42,15.05 C14.38,15.29 14.42,15.45 14.52,15.58 C14.63,15.7 14.78,15.77 15.01,15.77 C15.82,15.7 16.29,15.16 16.35,14.11 C16.29,12.75 15.49,12.02 13.94,11.95 C13.41,11.99 12.95,12.12 12.59,12.31 C12.22,12.5 11.94,12.79 11.73,13.15 C11.52,13.5 11.42,13.96 11.4,14.49 C11.46,16 12.3,16.77 13.94,16.84 C14.36,16.84 14.73,16.77 15.07,16.65 C15.41,16.52 15.72,16.33 15.97,16.08 L15.85,15.89 C15.76,15.98 15.7,16.04 15.62,16.1 C15.53,16.17 15.45,16.21 15.34,16.27 C15.26,16.31 15.15,16.35 15.05,16.4 C14.94,16.44 14.84,16.46 14.73,16.48 C14.63,16.5 14.5,16.52 14.38,16.52 C14.25,16.54 14.13,16.54 14,16.54 C12.64,16.48 11.9,15.81 11.84,14.51 C11.88,13.82 12.07,13.27 12.45,12.9 C12.82,12.52 13.33,12.31 14,12.29 C15.32,12.35 15.97,12.96 15.97,14.13 C15.91,14.95 15.64,15.41 15.15,15.47 C15.03,15.52 14.94,15.45 14.88,15.35 C14.82,15.22 14.82,15.05 14.84,14.84 C14.84,14.8 14.84,14.72 14.86,14.57 C14.88,14.43 14.9,14.26 14.92,14.01 C14.94,13.76 14.99,13.48 15.01,13.17 L15.01,13.17 Z M14.5,14.32 C14.5,14.36 14.5,14.4 14.5,14.43 C14.5,14.45 14.5,14.47 14.48,14.49 C14.48,14.51 14.46,14.53 14.44,14.55 C14.42,14.64 14.4,14.7 14.4,14.74 C14.38,14.78 14.36,14.84 14.34,14.91 C14.31,14.97 14.27,15.03 14.25,15.08 C14.21,15.12 14.17,15.16 14.13,15.18 C14.08,15.24 14.04,15.29 13.98,15.33 C13.92,15.37 13.85,15.39 13.79,15.41 C13.73,15.43 13.64,15.43 13.56,15.43 C13.14,15.43 12.93,15.16 12.93,14.61 C12.93,14.45 12.95,14.28 12.99,14.11 C13.03,13.96 13.1,13.82 13.18,13.71 C13.29,13.61 13.39,13.52 13.5,13.48 C13.6,13.42 13.73,13.4 13.87,13.4 C14.29,13.46 14.5,13.69 14.5,14.09 L14.5,14.32 Z M24.97,2.33 C24.87,2.04 24.74,1.77 24.58,1.52 C24.41,1.26 24.2,1.05 23.97,0.87 C23.74,0.7 23.48,0.55 23.19,0.45 C22.9,0.34 22.6,0.3 22.29,0.3 L5.38,0.3 C4.75,0.3 4.2,0.49 3.72,0.87 C3.23,1.24 2.92,1.73 2.77,2.33 L2.71,2.33 L0.36,6.9 C0.36,7.84 0.7,8.64 1.35,9.29 C2,9.94 2.79,10.26 3.72,10.26 C4.64,10.26 5.44,9.92 6.09,9.27 C6.74,8.62 7.07,7.82 7.07,6.9 C7.07,7.84 7.41,8.64 8.06,9.29 C8.71,9.94 9.51,10.26 10.43,10.26 C11.04,10.26 11.59,10.11 12.11,9.79 C12.64,9.5 13.03,9.08 13.35,8.56 C13.64,8.03 13.81,7.49 13.81,6.88 C13.81,7.82 14.15,8.62 14.8,9.27 C15.45,9.92 16.24,10.23 17.17,10.23 C18.09,10.23 18.89,9.9 19.54,9.25 C20.19,8.6 20.53,7.8 20.53,6.88 C20.53,7.82 20.86,8.62 21.51,9.27 C22.16,9.92 22.96,10.23 23.88,10.23 C24.81,10.23 25.6,9.9 26.25,9.25 C26.93,8.58 27.24,7.8 27.24,6.88 L24.97,2.33 Z" id="Shape"></path>
            </g>
        </g>
    </g>
</svg>