<svg width="20px" height="20px" viewBox="0 0 41 41" xmlns="http://www.w3.org/2000/svg" xmlns:xlink="http://www.w3.org/1999/xlink">
    <g stroke="none" stroke-width="1" fill="none" fill-rule="evenodd">
        <g transform="translate(1.000000, 1.000000)">
            <g stroke="#00C1DE" stroke-width="1.6">
                <rect fill="#FFFFFF" fill-rule="nonzero" x="0.6" y="0.6" width="38.4" height="38.4" rx="8"></rect>
                <rect x="0.6" y="0.6" width="38.4" height="38.4" rx="8"></rect>
            </g>
            <g transform="translate(6.500000, 6.500000)" fill="#00C1DE" fill-rule="nonzero">
                <path d="M15.64,18.63 L17.27,18.63 L17.27,10.26 L15.58,10.26 L15.58,15.47 L12.26,10.32 L12.26,10.26 L10.57,10.26 L10.57,18.63 L12.26,18.63 L12.26,13.35 L15.58,18.57 L15.58,18.63 L15.64,18.63 L15.64,18.63 Z M5.13,8.33 C6.12,6.74 7.44,5.51 9.11,4.63 C8.64,5.99 8.28,7.34 8.02,8.69 L10.74,8.69 C11,6.95 11.42,5.26 12,3.6 L11.87,3.6 C12.22,3.54 12.54,3.49 12.88,3.47 C13.22,3.45 13.56,3.43 13.93,3.43 C14.31,3.43 14.68,3.45 15,3.49 C15.34,3.54 15.66,3.6 15.98,3.69 C16.41,4.87 16.84,6.56 17.25,8.78 L19.96,8.78 C19.84,8.02 19.66,7.34 19.49,6.69 C19.3,6.05 19.11,5.41 18.89,4.78 C20.48,5.64 21.76,6.84 22.77,8.41 C22.77,8.45 22.77,8.5 22.79,8.56 C22.81,8.63 22.81,8.67 22.81,8.71 L26.26,8.71 C25.25,6.26 23.62,4.27 21.4,2.74 C19.17,1.22 16.69,0.47 13.93,0.47 C11.17,0.47 8.66,1.22 6.42,2.74 C4.17,4.27 2.56,6.24 1.54,8.71 L4.98,8.71 C5,8.52 5.05,8.41 5.13,8.33 L5.13,8.33 Z M27.24,13.61 L22.23,13.61 L22.23,11.98 L27.07,11.98 C27,11.37 26.92,10.84 26.77,10.34 L20.61,10.34 L20.61,15.37 L25.61,15.37 L25.61,17.06 L20.61,17.06 L20.61,18.63 L26.41,18.63 C26.66,17.99 26.83,17.32 26.96,16.66 C27.09,15.99 27.15,15.28 27.2,14.57 L27.2,15.3 L27.24,13.61 Z M7.23,16.93 L7.23,11.98 C7.23,11.93 7.21,11.87 7.21,11.78 C7.19,11.7 7.17,11.57 7.08,11.37 C7.02,11.18 6.93,11.01 6.8,10.86 C6.69,10.71 6.52,10.58 6.31,10.45 C6.1,10.32 5.82,10.26 5.54,10.26 L1.13,10.26 C0.36,13.24 0.47,16.03 1.43,18.63 L5.54,18.63 C5.56,18.63 5.58,18.63 5.62,18.63 C5.65,18.63 5.71,18.63 5.8,18.61 C5.88,18.61 5.95,18.59 6.03,18.57 C6.1,18.54 6.2,18.52 6.29,18.48 C6.37,18.44 6.48,18.39 6.57,18.33 C6.65,18.27 6.74,18.2 6.82,18.12 C6.91,18.03 6.99,17.92 7.04,17.81 C7.08,17.71 7.14,17.58 7.19,17.43 C7.21,17.28 7.23,17.11 7.23,16.93 L7.23,16.93 Z M5.6,17 L2.29,17 L2.29,11.91 L5.6,11.91 L5.6,17 L5.6,17 Z M18.96,22.75 C19.11,22.39 19.32,21.59 19.62,20.39 L16.97,20.39 C16.75,21.34 16.41,22.52 15.94,23.98 C15.6,24.04 15.28,24.08 14.93,24.11 C14.59,24.13 14.25,24.15 13.89,24.15 C13.24,24.15 12.62,24.08 12,23.98 C11.64,23.25 11.3,22.04 10.98,20.39 L8.32,20.39 C8.47,21.14 8.73,21.96 9.05,22.88 C7.96,22.34 6.93,21.51 5.97,20.39 L2.35,20.39 C3.12,21.74 4.08,22.9 5.24,23.91 C6.4,24.92 7.72,25.69 9.24,26.27 C10.74,26.83 12.3,27.13 13.95,27.13 C16.39,27.13 18.64,26.53 20.69,25.31 C22.75,24.08 24.37,22.45 25.55,20.41 L21.8,20.41 C20.99,21.4 20.03,22.17 18.96,22.75 L18.96,22.75 Z" id="Shape"></path>
            </g>
        </g>
    </g>
</svg>