<svg width="20px" height="20px" viewBox="0 0 41 41" xmlns="http://www.w3.org/2000/svg" xmlns:xlink="http://www.w3.org/1999/xlink">
    <g stroke="none" stroke-width="1" fill="none" fill-rule="evenodd">
        <g transform="translate(1.000000, 1.000000)">
            <g stroke="#00C1DE" stroke-width="1.6">
                <rect fill="#FFFFFF" fill-rule="nonzero" x="0.6" y="0.6" width="38.4" height="38.4" rx="8"></rect>
                <rect x="0.6" y="0.6" width="38.4" height="38.4" rx="8"></rect>
            </g>
            <g transform="translate(6.500000, 6.500000)" fill="#00C1DE" fill-rule="nonzero">
                <path d="M13.8,0.36 C11.98,0.36 10.22,0.71 8.57,1.42 C6.92,2.14 5.48,3.07 4.29,4.29 C3.1,5.48 2.14,6.92 1.42,8.57 C0.71,10.22 0.36,11.98 0.36,13.8 C0.36,15.62 0.71,17.38 1.42,19.03 C2.14,20.68 3.07,22.12 4.29,23.31 C5.48,24.5 6.92,25.46 8.57,26.18 C10.22,26.89 11.98,27.24 13.8,27.24 C15.62,27.24 17.38,26.89 19.03,26.18 C20.68,25.46 22.12,24.53 23.31,23.31 C24.5,22.12 25.46,20.68 26.18,19.03 C26.89,17.38 27.24,15.62 27.24,13.8 C27.24,11.98 26.89,10.22 26.18,8.57 C25.46,6.92 24.53,5.48 23.31,4.29 C22.12,3.1 20.68,2.14 19.03,1.42 C17.38,0.71 15.62,0.36 13.8,0.36 L13.8,0.36 Z M11.72,3.53 C12.06,3.46 12.39,3.42 12.74,3.4 C13.08,3.38 13.43,3.36 13.8,3.36 C14.04,3.36 14.32,3.38 14.6,3.4 C14.89,3.42 15.12,3.46 15.3,3.49 C15.47,3.51 15.73,3.55 16.06,3.62 L15.88,3.68 C16.62,5.83 17.1,7.87 17.36,9.78 C16.51,9.89 15.67,9.98 14.82,10.02 C13.97,10.07 13.19,10.04 12.48,10.02 C11.76,9.98 11.06,9.91 10.39,9.8 C10.63,7.81 11.13,5.77 11.87,3.64 L11.72,3.53 Z M3.53,15.75 C3.4,15.15 3.36,14.49 3.36,13.8 C3.36,12.78 3.55,11.67 3.96,10.43 C4.94,10.93 6.09,11.39 7.44,11.85 C7.31,13.63 7.35,15.34 7.57,16.97 C5.9,16.62 4.55,16.21 3.53,15.75 L3.53,15.75 Z M4.7,18.88 C5.72,19.25 6.83,19.58 8,19.86 C8.33,21.25 8.61,22.29 8.85,22.98 C7.05,22.01 5.68,20.64 4.7,18.88 L4.7,18.88 Z M7.74,9.28 C6.44,8.91 5.51,8.59 4.94,8.31 C5.92,6.7 7.26,5.46 8.98,4.57 C8.42,6.11 8,7.68 7.74,9.28 L7.74,9.28 Z M15.88,24.07 C15.21,24.2 14.52,24.24 13.8,24.24 C13.15,24.24 12.52,24.18 11.91,24.07 C11.56,23.38 11.19,22.14 10.8,20.34 C12.76,20.55 14.8,20.55 16.9,20.34 C16.84,20.7 16.75,21.1 16.67,21.44 C16.58,21.81 16.49,22.14 16.41,22.42 C16.32,22.7 16.23,22.96 16.17,23.16 C16.1,23.35 16.04,23.55 15.97,23.74 C15.91,23.94 15.88,24.05 15.88,24.07 L15.88,24.07 Z M17.4,17.47 C15.02,17.75 12.67,17.75 10.37,17.47 C10.2,15.99 10.13,14.34 10.2,12.52 C10.87,12.63 11.56,12.71 12.24,12.78 C12.91,12.82 13.56,12.84 14.19,12.84 C14.82,12.82 15.41,12.8 15.95,12.76 C16.51,12.71 17.06,12.63 17.6,12.54 C17.62,13.43 17.62,14.3 17.6,15.12 C17.56,15.95 17.49,16.73 17.4,17.47 L17.4,17.47 Z M22.72,8.37 C22.22,8.57 21.31,8.87 20.03,9.22 C19.79,7.72 19.38,6.2 18.82,4.64 C20.42,5.57 21.73,6.81 22.72,8.37 L22.72,8.37 Z M18.92,22.83 C19.14,22.25 19.42,21.23 19.77,19.77 C20.66,19.55 21.7,19.23 22.94,18.79 C21.96,20.55 20.62,21.9 18.92,22.83 L18.92,22.83 Z M24,15.82 C22.92,16.23 21.66,16.62 20.23,16.97 C20.31,16.08 20.36,15.19 20.38,14.32 C20.38,13.43 20.36,12.61 20.29,11.85 C20.55,11.76 20.81,11.67 21.05,11.59 C21.31,11.5 21.53,11.41 21.75,11.32 C21.96,11.24 22.16,11.15 22.33,11.09 C22.51,11.02 22.68,10.93 22.83,10.87 C22.98,10.8 23.11,10.74 23.2,10.7 C23.29,10.65 23.4,10.61 23.48,10.54 C23.59,10.5 23.64,10.46 23.64,10.46 C23.83,11 23.98,11.56 24.09,12.13 C24.2,12.69 24.24,13.26 24.24,13.82 C24.24,14.6 24.16,15.28 24,15.82 L24,15.82 Z" id="Shape"></path>
            </g>
        </g>
    </g>
</svg>