<svg width="20px" height="20px" viewBox="0 0 41 41" xmlns="http://www.w3.org/2000/svg" xmlns:xlink="http://www.w3.org/1999/xlink">
    <g stroke="none" stroke-width="1" fill="none" fill-rule="evenodd">
        <g transform="translate(1.000000, 1.000000)">
            <g stroke="#00C1DE" stroke-width="1.6">
                <rect fill="#FFFFFF" fill-rule="nonzero" x="0.6" y="0.6" width="38.4" height="38.4" rx="8"></rect>
                <rect x="0.6" y="0.6" width="38.4" height="38.4" rx="8"></rect>
            </g>
            <g transform="translate(6.500000, 8.500000)" fill="#00C1DE" fill-rule="nonzero">
                <path d="M11.37,15.56 L3.44,15.56 L3.44,4.3 L18.84,4.3 L18.84,7.02 C19.01,7.02 19.22,7 19.48,7 C19.73,7 20.16,7 20.76,7.04 C21.36,7.08 21.81,7.17 22.15,7.27 L22.15,4.36 C22.15,4.34 22.15,4.3 22.15,4.24 C22.15,4.19 22.13,4.09 22.11,3.91 C22.09,3.76 22.04,3.59 22.02,3.44 C21.98,3.29 21.92,3.1 21.85,2.89 C21.77,2.67 21.68,2.48 21.57,2.31 C21.47,2.14 21.32,1.95 21.15,1.75 C20.97,1.56 20.78,1.41 20.57,1.28 C20.35,1.15 20.1,1.05 19.8,0.96 C19.5,0.88 19.16,0.83 18.81,0.83 L3.65,0.83 C3.65,0.83 3.61,0.85 3.52,0.88 C3.35,0.92 3.2,0.96 3.05,1 C2.9,1.05 2.71,1.11 2.43,1.24 C2.16,1.35 1.9,1.5 1.69,1.67 C1.47,1.84 1.26,2.05 1.04,2.31 C0.83,2.57 0.66,2.89 0.53,3.27 C0.4,3.66 0.36,4.09 0.36,4.56 L0.36,15.34 C0.36,15.45 0.36,15.58 0.36,15.73 C0.36,15.9 0.42,16.18 0.51,16.58 C0.62,16.99 0.77,17.35 0.96,17.67 C1.15,18 1.49,18.27 1.94,18.53 C2.39,18.79 2.95,18.92 3.59,18.92 C4.62,18.92 5.56,18.92 6.43,18.94 C7.31,18.96 7.95,18.96 8.31,18.96 C8.68,18.96 8.87,18.98 8.87,18.98 L8.87,18.98 C8.87,18.98 8.87,19 8.87,19.02 C8.87,19.04 8.87,19.06 8.87,19.13 C8.87,19.19 8.87,19.24 8.85,19.28 C8.83,19.32 8.81,19.39 8.79,19.47 C8.74,19.56 8.7,19.62 8.64,19.69 C8.57,19.75 8.49,19.84 8.38,19.92 C8.27,20.01 8.14,20.09 8.02,20.16 C7.87,20.22 7.69,20.31 7.5,20.37 C7.29,20.43 7.05,20.5 6.8,20.56 C6.5,20.61 6.11,20.69 5.6,20.76 C5.09,20.82 4.7,20.91 4.42,20.95 C4.15,20.99 3.85,21.08 3.46,21.18 C3.1,21.29 2.8,21.4 2.61,21.53 C2.41,21.65 2.22,21.8 2.05,22.02 C1.88,22.23 1.77,22.47 1.71,22.75 L15.07,22.75 C15.07,22.75 14.75,22.45 14.09,21.87 C12.19,19.92 11.29,17.8 11.37,15.56 L11.37,15.56 Z M20.16,8.6 C18.22,8.6 16.55,9.29 15.16,10.68 C13.77,12.07 13.08,13.74 13.08,15.68 C13.08,17.63 13.77,19.3 15.16,20.69 C16.55,22.08 18.22,22.77 20.16,22.77 C21.12,22.77 22.04,22.57 22.9,22.21 C23.78,21.85 24.52,21.33 25.17,20.69 C25.81,20.05 26.3,19.3 26.68,18.42 C27.05,17.55 27.24,16.63 27.24,15.68 C27.24,13.74 26.56,12.07 25.17,10.68 C23.8,9.29 22.13,8.6 20.16,8.6 L20.16,8.6 Z M19.05,10.31 C19.5,10.23 19.84,10.18 20.1,10.18 C20.35,10.18 20.76,10.23 21.3,10.31 L21.23,10.38 C21.42,10.95 21.59,11.49 21.72,12.02 C21.85,12.56 21.96,13.09 22.02,13.61 C20.85,13.78 19.65,13.78 18.39,13.61 C18.43,13.27 18.49,12.9 18.56,12.54 C18.62,12.17 18.73,11.83 18.81,11.47 C18.92,11.1 19.03,10.74 19.18,10.36 L19.05,10.31 Z M14.75,16.73 C14.67,16.28 14.62,15.94 14.62,15.68 C14.62,15.15 14.73,14.55 14.94,13.91 C15.03,13.95 15.14,14.01 15.26,14.06 C15.37,14.1 15.48,14.14 15.56,14.19 C15.65,14.23 15.76,14.27 15.91,14.31 C16.06,14.36 16.14,14.4 16.21,14.42 C16.27,14.44 16.38,14.49 16.53,14.53 C16.68,14.57 16.78,14.61 16.83,14.64 C16.8,14.81 16.8,14.98 16.8,15.15 C16.8,15.32 16.78,15.49 16.78,15.66 C16.78,15.83 16.78,16.03 16.78,16.2 C16.78,16.37 16.8,16.56 16.83,16.75 C16.85,16.95 16.87,17.14 16.89,17.33 C16.72,17.29 16.53,17.27 16.36,17.22 C16.18,17.18 16.03,17.14 15.88,17.1 C15.76,17.05 15.63,17.03 15.5,16.99 C15.37,16.95 15.26,16.93 15.18,16.88 C15.09,16.86 15.01,16.82 14.94,16.8 C14.88,16.78 14.84,16.75 14.79,16.75 L14.75,16.73 Z M15.41,18.34 C16.21,18.59 16.78,18.79 17.13,18.87 C17.3,19.58 17.45,20.13 17.6,20.52 C16.63,20.03 15.91,19.3 15.41,18.34 L15.41,18.34 Z M17,13.31 C16.76,13.24 16.53,13.18 16.29,13.09 C16.06,13.01 15.91,12.94 15.8,12.9 C15.69,12.86 15.63,12.82 15.54,12.77 C16.06,11.94 16.76,11.28 17.66,10.78 C17.51,11.15 17.38,11.55 17.27,11.96 C17.15,12.39 17.06,12.84 17,13.31 L17,13.31 Z M21.23,21.03 C21.04,21.08 20.85,21.1 20.68,21.12 C20.5,21.14 20.33,21.16 20.18,21.16 C20.08,21.16 19.91,21.14 19.69,21.12 C19.48,21.1 19.31,21.08 19.2,21.08 C19.2,21.06 19.18,20.97 19.11,20.82 C19.05,20.67 18.96,20.41 18.88,20.09 C18.77,19.77 18.69,19.43 18.62,19.09 C19.8,19.21 20.89,19.21 21.85,19.09 C21.81,19.28 21.74,19.47 21.7,19.66 C21.64,19.86 21.59,20.03 21.55,20.16 C21.51,20.28 21.47,20.43 21.42,20.54 C21.38,20.65 21.36,20.76 21.32,20.84 C21.25,20.97 21.23,21.01 21.23,21.03 L21.23,21.03 Z M22.02,17.61 C20.87,17.78 19.63,17.78 18.32,17.61 C18.24,16.54 18.22,15.66 18.26,15.02 C19.54,15.26 20.85,15.26 22.15,15.02 C22.15,16.22 22.11,17.07 22.02,17.61 L22.02,17.61 Z M24.8,12.84 C24.65,12.9 24.5,12.97 24.33,13.03 C24.16,13.09 24.01,13.14 23.9,13.18 C23.8,13.22 23.63,13.27 23.43,13.31 C23.24,12.32 23.03,11.53 22.83,10.93 C23.69,11.43 24.35,12.07 24.8,12.84 L24.8,12.84 Z M22.81,20.43 C22.94,20.09 23.09,19.56 23.28,18.85 C23.8,18.74 24.35,18.57 24.93,18.32 C24.46,19.26 23.75,19.96 22.81,20.43 L22.81,20.43 Z M25.53,16.73 C24.87,16.99 24.2,17.2 23.54,17.33 C23.65,16.45 23.67,15.56 23.6,14.61 C23.9,14.51 24.2,14.4 24.48,14.29 C24.78,14.16 24.97,14.1 25.08,14.04 C25.19,13.99 25.29,13.93 25.38,13.89 C25.59,14.46 25.7,15.06 25.7,15.66 C25.68,15.94 25.61,16.3 25.53,16.73 L25.53,16.73 Z" id="Shape"></path>
            </g>
        </g>
    </g>
</svg>