<svg width="20px" height="20px" viewBox="0 0 41 41" xmlns="http://www.w3.org/2000/svg" xmlns:xlink="http://www.w3.org/1999/xlink">
    <g stroke="none" stroke-width="1" fill="none" fill-rule="evenodd">
        <g transform="translate(1.000000, 1.000000)">
            <g stroke="#00C1DE" stroke-width="1.6">
                <rect fill="#FFFFFF" fill-rule="nonzero" x="0.6" y="0.6" width="38.4" height="38.4" rx="8"></rect>
                <rect x="0.6" y="0.6" width="38.4" height="38.4" rx="8"></rect>
            </g>
            <g transform="translate(6.500000, 7.500000)" fill="#00C1DE" fill-rule="nonzero">
                <path d="M2.67,7.01 L0.36,7.01 L0.36,0.16 L7.19,0.16 L7.19,2.47 L2.67,2.47 L2.67,7.01 L2.67,7.01 Z M27.22,0.11 L20.39,0.11 L20.39,2.43 L24.93,2.43 L24.93,6.96 L27.24,6.96 L27.22,0.11 L27.22,0.11 Z M2.67,18.64 L0.36,18.64 L0.36,25.47 L7.19,25.47 L7.19,23.15 L2.67,23.15 L2.67,18.64 L2.67,18.64 Z M27.22,18.64 L24.93,18.64 L24.93,23.17 L20.39,23.17 L20.39,25.49 L27.22,25.49 L27.22,18.64 Z M14.63,11.38 C14.72,11.5 14.78,11.63 14.83,11.8 C14.87,11.98 14.89,12.17 14.89,12.4 C14.89,12.85 14.81,13.22 14.61,13.47 C14.42,13.73 14.14,13.86 13.78,13.86 L13.26,13.86 L13.26,15.53 L12.32,15.53 L12.32,11.01 L13.86,11.01 C14.23,11.03 14.48,11.14 14.63,11.38 L14.63,11.38 Z M13.99,12.45 C13.99,12.45 13.99,12.45 13.99,12.45 C13.99,12.45 13.99,12.45 13.99,12.45 C13.99,12.3 13.97,12.19 13.91,12.08 C13.82,12 13.69,11.93 13.54,11.93 L13.29,11.93 L13.29,12.94 L13.52,12.94 C13.69,12.94 13.82,12.9 13.91,12.79 C13.95,12.73 13.99,12.6 13.99,12.45 L13.99,12.45 Z M24.59,13.41 C24.5,13.22 24.37,13.05 24.2,12.9 C24.03,12.77 23.75,12.64 23.32,12.49 C23.15,12.43 23.05,12.38 23.02,12.32 C23,12.3 22.98,12.28 22.98,12.23 C22.96,12.19 22.96,12.17 22.96,12.13 L22.96,12.13 L22.96,12.1 C22.96,12.02 22.98,11.93 23.05,11.87 C23.09,11.8 23.17,11.76 23.28,11.76 C23.32,11.76 23.37,11.76 23.41,11.78 C23.45,11.8 23.47,11.8 23.52,11.83 C23.56,11.85 23.58,11.87 23.6,11.91 C23.62,11.93 23.64,11.95 23.64,12 C23.67,12.02 23.67,12.06 23.69,12.1 C23.71,12.15 23.71,12.19 23.71,12.23 C23.71,12.28 23.73,12.32 23.73,12.38 L24.61,12.3 C24.56,11.83 24.46,11.48 24.24,11.27 C24.05,11.05 23.75,10.95 23.37,10.95 C23.05,10.95 22.81,11.01 22.62,11.12 C22.45,11.25 22.3,11.4 22.21,11.61 C22.19,11.68 22.15,11.74 22.13,11.83 C22.1,11.89 22.08,11.98 22.08,12.04 C22.08,12.13 22.06,12.19 22.06,12.28 C22.06,12.62 22.15,12.92 22.32,13.15 C22.4,13.26 22.51,13.37 22.66,13.45 C22.81,13.54 22.98,13.62 23.2,13.69 C23.45,13.77 23.6,13.86 23.67,13.95 C23.73,14.03 23.77,14.14 23.77,14.27 C23.77,14.4 23.73,14.5 23.67,14.59 C23.6,14.67 23.49,14.74 23.39,14.74 L23.37,14.74 C23.2,14.74 23.05,14.65 22.96,14.46 C22.94,14.4 22.9,14.33 22.9,14.25 C22.87,14.16 22.85,14.07 22.85,13.97 L21.98,14.05 C22,14.52 22.1,14.89 22.32,15.19 C22.36,15.25 22.42,15.32 22.49,15.38 C22.55,15.44 22.64,15.49 22.72,15.53 C22.81,15.57 22.92,15.59 23.02,15.62 C23.13,15.64 23.26,15.64 23.37,15.64 C23.67,15.64 23.9,15.57 24.09,15.44 C24.29,15.32 24.44,15.12 24.54,14.89 C24.59,14.78 24.63,14.65 24.65,14.5 C24.67,14.35 24.69,14.22 24.69,14.1 L24.69,14.07 C24.69,13.97 24.67,13.86 24.65,13.73 C24.65,13.6 24.61,13.5 24.59,13.41 L24.59,13.41 Z M20.65,13.54 L19.51,11.03 L18.66,11.03 L18.66,15.57 L19.54,15.57 L19.54,13.09 L20.65,15.57 L21.53,15.57 L21.53,11.03 L20.65,11.03 L20.65,13.54 L20.65,13.54 L20.65,13.54 Z M18.08,12.4 C18.12,12.68 18.14,12.98 18.14,13.28 C18.14,13.77 18.1,14.14 18.04,14.4 C17.97,14.65 17.87,14.89 17.74,15.06 C17.61,15.23 17.46,15.36 17.31,15.42 C17.1,15.51 16.92,15.55 16.75,15.55 L15.38,15.55 L15.38,11.01 L16.75,11.01 C17.03,11.01 17.25,11.08 17.42,11.18 C17.59,11.29 17.72,11.46 17.82,11.65 C17.95,11.87 18.04,12.1 18.08,12.4 L18.08,12.4 L18.08,12.4 Z M17.22,13.3 C17.22,13.07 17.2,12.85 17.18,12.7 C17.16,12.53 17.12,12.4 17.07,12.32 C16.95,12.15 16.77,12.06 16.56,12.06 L16.33,12.06 L16.33,14.52 L16.56,14.52 C16.6,14.52 16.65,14.52 16.69,14.52 C16.73,14.52 16.77,14.52 16.8,14.5 C16.84,14.5 16.86,14.48 16.88,14.48 C16.9,14.48 16.92,14.46 16.95,14.44 C17.03,14.35 17.1,14.25 17.14,14.1 C17.2,13.9 17.22,13.65 17.22,13.3 L17.22,13.3 Z M6.1,12.15 L7.04,12.15 L7.04,15.55 L7.96,15.55 L7.96,12.15 L8.9,12.15 L8.9,11.03 L6.1,11.03 L6.1,12.15 L6.1,12.15 Z M9.11,12.15 L10.05,12.15 L10.05,15.55 L10.98,15.55 L10.98,12.15 L11.92,12.15 L11.92,11.03 L9.11,11.03 L9.11,12.15 Z M4.75,12.6 L3.74,12.6 L3.74,11.01 L2.82,11.01 L2.82,15.55 L3.74,15.55 L3.74,13.71 L4.75,13.71 L4.75,15.55 L5.69,15.55 L5.69,11.01 L4.75,11.01 L4.75,12.6 L4.75,12.6 Z M6.01,9.06 C6.18,8.76 6.35,8.46 6.54,8.19 C6.74,7.91 6.95,7.65 7.17,7.39 C7.38,7.14 7.62,6.9 7.85,6.67 C8.09,6.43 8.34,6.24 8.62,6.02 C8.88,5.83 9.16,5.64 9.43,5.47 C9.05,6.67 8.73,7.97 8.49,9.38 L10.83,9.38 C11.08,7.63 11.45,5.98 11.92,4.46 L11.81,4.46 C12,4.42 12.19,4.37 12.39,4.35 C12.58,4.33 12.77,4.31 12.97,4.29 C13.16,4.27 13.37,4.27 13.56,4.27 C14.12,4.27 14.72,4.33 15.36,4.48 C15.49,4.89 15.6,5.29 15.7,5.72 C15.81,6.15 15.92,6.56 16,6.99 C16.09,7.39 16.18,7.8 16.24,8.21 C16.3,8.59 16.37,9 16.43,9.38 L18.74,9.38 C18.53,8.08 18.21,6.79 17.82,5.55 C19.21,6.41 20.33,7.59 21.14,9.08 C21.14,9.11 21.16,9.13 21.16,9.15 C21.2,9.23 21.25,9.32 21.27,9.41 L24.18,9.41 C23.94,8.74 23.64,8.1 23.3,7.5 C22.96,6.9 22.57,6.32 22.17,5.79 C21.74,5.25 21.29,4.76 20.8,4.31 C20.31,3.86 19.77,3.45 19.21,3.11 C18.66,2.77 18.08,2.47 17.46,2.21 C16.86,1.95 16.22,1.78 15.55,1.65 C14.89,1.53 14.23,1.46 13.54,1.46 C11.98,1.46 10.48,1.8 9.05,2.49 C7.64,3.17 6.4,4.1 5.35,5.29 C4.3,6.49 3.48,7.86 2.91,9.43 L5.88,9.43 C5.9,9.34 5.95,9.23 6.01,9.06 L6.01,9.06 L6.01,9.06 Z M17.93,20.03 C18.14,19.26 18.34,18.51 18.51,17.71 L16.24,17.71 C15.98,19.04 15.68,20.18 15.36,21.14 C15.26,21.16 15.13,21.18 15.02,21.2 C14.91,21.23 14.78,21.25 14.68,21.27 C14.55,21.29 14.44,21.29 14.31,21.31 C14.19,21.33 14.08,21.33 13.95,21.33 C13.82,21.33 13.71,21.33 13.59,21.33 C13.09,21.33 12.56,21.27 11.98,21.14 C11.64,20.13 11.34,19 11.08,17.69 L8.77,17.69 C8.96,18.59 9.18,19.41 9.39,20.11 C8.9,19.81 8.41,19.45 7.98,19.04 C7.53,18.64 7.12,18.19 6.76,17.69 L3.61,17.69 C4.62,19.66 6.01,21.23 7.79,22.4 C9.56,23.58 11.49,24.16 13.59,24.16 C15.68,24.16 17.61,23.58 19.39,22.4 C21.16,21.23 22.53,19.66 23.56,17.69 L20.39,17.69 C19.69,18.66 18.87,19.43 17.93,20.03 L17.93,20.03 Z" id="Shape"></path>
            </g>
        </g>
    </g>
</svg>