<svg width="20px" height="20px" viewBox="0 0 41 41" xmlns="http://www.w3.org/2000/svg" xmlns:xlink="http://www.w3.org/1999/xlink">
    <g stroke="none" stroke-width="1" fill="none" fill-rule="evenodd">
        <g transform="translate(1.000000, 1.000000)">
            <g stroke="#00C1DE" stroke-width="1.6">
                <rect fill="#FFFFFF" fill-rule="nonzero" x="0.6" y="0.6" width="38.4" height="38.4" rx="8"></rect>
                <rect x="0.6" y="0.6" width="38.4" height="38.4" rx="8"></rect>
            </g>
            <g transform="translate(6.500000, 7.500000)" fill="#00C1DE" fill-rule="nonzero">
                <path d="M1.73,5.76 L18.89,5.76 C19.27,5.76 19.58,5.64 19.86,5.4 C20.13,5.17 20.26,4.88 20.26,4.54 L20.26,1.68 C20.26,1.34 20.13,1.05 19.86,0.82 C19.58,0.59 19.27,0.46 18.89,0.46 L1.73,0.46 C1.35,0.42 1.03,0.52 0.76,0.78 C0.49,1.01 0.36,1.32 0.36,1.7 L0.36,4.56 C0.36,4.9 0.49,5.19 0.76,5.43 C1.03,5.66 1.35,5.76 1.73,5.76 L1.73,5.76 Z M3.22,1.7 C3.41,1.7 3.58,1.74 3.75,1.81 C3.91,1.87 4.04,1.98 4.17,2.08 C4.27,2.21 4.38,2.33 4.44,2.5 C4.5,2.65 4.55,2.82 4.55,2.99 C4.55,3.34 4.42,3.66 4.17,3.91 C3.91,4.16 3.6,4.29 3.26,4.29 C2.93,4.29 2.63,4.16 2.36,3.89 C2.11,3.64 1.96,3.32 1.96,2.99 C1.96,2.65 2.08,2.35 2.36,2.08 C2.63,1.81 2.88,1.7 3.22,1.7 L3.22,1.7 Z M1.73,12.77 L18.89,12.77 C19.08,12.77 19.25,12.73 19.42,12.66 C19.58,12.6 19.73,12.52 19.86,12.41 C19.98,12.31 20.07,12.18 20.15,12.01 C20.22,11.86 20.26,11.7 20.26,11.53 L20.26,8.67 C20.26,8.33 20.13,8.03 19.86,7.8 C19.58,7.57 19.27,7.45 18.89,7.45 L1.73,7.45 C1.58,7.45 1.43,7.47 1.31,7.51 C1.18,7.55 1.05,7.61 0.93,7.68 C0.82,7.76 0.72,7.85 0.63,7.93 C0.55,8.03 0.49,8.14 0.44,8.27 C0.4,8.39 0.38,8.52 0.38,8.64 L0.38,11.51 C0.38,11.82 0.51,12.1 0.78,12.35 C1.05,12.6 1.35,12.77 1.73,12.77 L1.73,12.77 Z M3.22,8.75 C3.58,8.75 3.89,8.88 4.15,9.13 C4.4,9.38 4.52,9.7 4.52,10.03 C4.52,10.22 4.48,10.39 4.42,10.56 C4.36,10.73 4.25,10.85 4.15,10.98 C4.02,11.09 3.89,11.19 3.73,11.25 C3.56,11.32 3.41,11.36 3.24,11.36 C2.9,11.36 2.61,11.23 2.34,10.96 C2.06,10.69 1.94,10.39 1.94,10.05 C1.94,9.7 2.06,9.38 2.32,9.13 C2.57,8.88 2.86,8.75 3.22,8.75 L3.22,8.75 Z M10.9,16.16 C11.09,15.34 11.47,14.73 12.05,14.33 L1.58,14.33 C1.56,14.33 1.52,14.33 1.45,14.33 C1.41,14.33 1.31,14.35 1.18,14.39 C1.05,14.43 0.93,14.47 0.82,14.56 C0.72,14.62 0.63,14.75 0.55,14.91 C0.47,15.08 0.42,15.27 0.42,15.5 L0.42,23.98 C0.42,24.07 0.44,24.17 0.47,24.3 C0.49,24.42 0.59,24.59 0.78,24.8 C0.97,25.01 1.24,25.12 1.58,25.12 L7.7,25.12 C7.6,24.99 7.47,24.8 7.32,24.57 C7.17,24.34 6.99,23.86 6.73,23.12 C6.48,22.38 6.38,21.65 6.4,20.91 C6.46,19.75 6.92,18.74 7.76,17.9 C8.63,17.06 9.66,16.49 10.9,16.16 L10.9,16.16 Z M24.8,18.41 C24.82,18.32 24.86,18.24 24.88,18.11 C24.91,17.99 24.93,17.73 24.91,17.38 C24.88,17.02 24.8,16.68 24.67,16.35 C24.53,16.03 24.25,15.67 23.83,15.29 C23.41,14.91 22.89,14.6 22.21,14.35 C21.73,14.18 21.27,14.07 20.8,14.03 C20.34,13.99 19.94,14.01 19.61,14.07 C19.27,14.14 18.93,14.24 18.62,14.39 C18.3,14.54 18.05,14.68 17.84,14.83 C17.63,14.98 17.46,15.15 17.29,15.31 C17.12,15.48 17,15.61 16.95,15.67 C16.91,15.74 16.87,15.8 16.85,15.82 L16.85,15.82 C16.05,15.1 15.08,14.87 13.93,15.15 C13.53,15.25 13.19,15.44 12.92,15.67 C12.64,15.9 12.45,16.13 12.37,16.37 C12.26,16.6 12.2,16.83 12.18,17.1 C12.16,17.38 12.14,17.54 12.14,17.65 C12.14,17.75 12.16,17.82 12.16,17.88 L12.16,17.88 C11.99,17.84 11.8,17.8 11.57,17.78 C11.34,17.75 11.11,17.78 10.83,17.82 C10.56,17.86 10.29,17.92 10.01,18.01 C9.74,18.09 9.47,18.24 9.21,18.43 C8.96,18.62 8.73,18.83 8.52,19.08 C8.33,19.33 8.16,19.65 8.04,20.03 C7.91,20.41 7.85,20.83 7.85,21.27 C7.85,21.9 7.95,22.45 8.14,22.95 C8.33,23.46 8.56,23.84 8.79,24.09 C9.03,24.34 9.3,24.57 9.61,24.76 C9.93,24.95 10.14,25.08 10.27,25.1 C10.39,25.14 10.5,25.16 10.56,25.18 L10.56,25.18 L24.67,25.18 C24.74,25.18 24.84,25.16 24.95,25.12 C25.05,25.08 25.26,25.01 25.56,24.87 C25.85,24.72 26.13,24.55 26.34,24.34 C26.57,24.13 26.78,23.81 26.95,23.37 C27.13,22.95 27.22,22.47 27.22,21.92 C27.24,21.35 27.16,20.87 26.97,20.41 C26.78,19.94 26.59,19.61 26.38,19.37 C26.17,19.14 25.89,18.93 25.6,18.76 C25.3,18.6 25.09,18.49 24.99,18.45 C24.97,18.45 24.88,18.43 24.8,18.41 L24.8,18.41 Z" id="Shape"></path>
            </g>
        </g>
    </g>
</svg>