<svg xmlns="http://www.w3.org/2000/svg" x="0" y="0" width="20px" height="20px" viewBox="0 0 32 32" fill="none">
<path d="M32 28H7.538L7.531 27.953L22.382 25.345C21.896 24.765 21.471 24.255 21.042 23.745C19.007 21.336 16.971 18.928 14.934 16.52C14.723 16.351 14.648 16.064 14.747 15.813C16.041 12.331 17.312 8.83901 18.59 5.35001C18.612 5.28901 18.639 5.22901 18.705 5.07001L32 28ZM16.019 6.85101C16.543 5.73101 17.066 4.61101 17.653 3.35101C17.453 3.49701 17.374 3.55101 17.302 3.60801C14.619 5.84901 11.938 8.08901 9.257 10.33C8.667 10.75 8.158 11.274 7.757 11.877C5.618 15.618 3.441 19.337 1.279 23.065C0.863 23.787 0.451 24.512 0 25.3H0.58C2.644 25.3 4.708 25.284 6.772 25.312C7.154 25.364 7.519 25.135 7.639 24.769C10.422 18.79 13.216 12.817 16.019 6.85101Z" fill="#0072C6"></path>
</svg>