<svg xmlns="http://www.w3.org/2000/svg" x="0" y="0" width="20px" height="20px" viewBox="0 0 96 96">
  <path d="M56 58 8 58 8 26 56 26 56 58ZM58 20 6 20C3.8 20 2 21.8 2 24L2 60C2 62.2 3.8 64 6 64L26 64 26 70 17 70 17 76 47 76 47 70 38 70 38 64 58 64C60.2 64 62 62.2 62 60L62 24C62 21.8 60.2 20 58 20Z" fill="#2E75B6"></path>
  <path d="M90 30 70 30 70 24 90 24 90 30ZM90 40 70 40 70 34 90 34 90 40ZM80 70C78.3 70 77 68.7 77 67 77 65.3 78.3 64 80 64 81.7 64 83 65.3 83 67 83 68.7 81.7 70 80 70ZM90 20 70 20C67.8 20 66 21.8 66 24L66 72C66 74.2 67.8 76 70 76L90 76C92.2 76 94 74.2 94 72L94 24C94 21.8 92.2 20 90 20Z" fill="#2E75B6"></path>
</svg>