<svg xmlns="http://www.w3.org/2000/svg" x="0" y="0" width="20px" height="20px" viewBox="0 0 64 64">
<g stroke="none" stroke-width="1" fill="none" fill-rule="evenodd">
<g transform="translate(5.000000, 5.000000)">
<path d="M27,13 L23.066,13 C25.557,17.081 27,21.867 27,27 C27,32.133 25.556,36.919 23.066,41 L27,41 C34.732,41 41,34.732 41,27 C41,19.268 34.732,13 27,13" fill="#343741"></path>
<path d="M27,0 C22.076,0 17.475,1.339 13.5,3.642 C17.42,5.912 20.711,9.14 23.066,13 L27,13 C34.732,13 41,19.268 41,27 C41,34.732 34.732,41 27,41 L23.066,41 C20.71,44.86 17.42,48.088 13.5,50.358 C17.475,52.661 22.076,54 27,54 C41.912,54 54,41.912 54,27 C54,12.088 41.912,0 27,0" fill="#00BFB3"></path>
<path d="M14,41 L16.92,41 C20.142,37.107 22,32.17 22,27 C22,21.83 20.142,16.893 16.921,13 L14,13 C6.268,13 0,19.268 0,27 C0,34.732 6.268,41 14,41" fill="#FEC514"></path>
</g>
</g>
</svg>