<svg xmlns="http://www.w3.org/2000/svg" x="0" y="0" width="20px" height="20px" viewBox="0 0 60.6 60.6">
<circle cx="30.3" cy="30.3" r="30.3" fill="#325c80"></circle>
<path d="M9.8 13h41v34.7h-41z" fill="#fff"></path>
<path d="M11 14.1h11.9v9.3H11z" fill="#325c80"></path>
<path d="M14.2 18.3h5.4v1h-5.4z" fill="#fff"></path>
<path d="M23.7 14.1h12.8v9.3H23.7z" fill="#325c80"></path>
<path d="M27.2 18.3h5.9v1h-5.9z" fill="#fff"></path>
<path d="M38 14.1h11.9v9.3H38z" fill="#325c80"></path>
<path d="M41.2 18.3h5.4v1h-5.4z" fill="#fff"></path>
<path d="M38 24.5h11.3v11.3H38z" fill="#325c80"></path>
<path d="M41.1 29.5h5.2v1.2h-5.2z" fill="#fff"></path>
<path d="M10.7 24.5h11.9v11.3H10.7z" fill="#325c80"></path>
<path d="M14 29.5h5.4v1.2H14z" fill="#fff"></path>
<path d="M23.7 24.5h12.9v11.6H23.7z" fill="#325c80"></path>
<path d="M27.2 29.6h5.9v1.3h-5.9z" fill="#fff"></path>
<path d="M11 37.2h11.9v9.3H11z" fill="#325c80"></path>
<path d="M14.2 41.3h5.4v1h-5.4z" fill="#fff"></path>
<path d="M23.7 37.2h12.9v9.3H23.7z" fill="#325c80"></path>
<path d="M27.2 41.3h5.9v1h-5.9z" fill="#fff"></path>
<path d="M38 37.2h11.3v9.3H38z" fill="#325c80"></path>
<path d="M41.1 41.3h5.2v1h-5.2z" fill="#fff"></path>
</svg>