<svg xmlns="http://www.w3.org/2000/svg" x="0" y="0" width="20px" height="20px" viewBox="0 0 59.9 59">
<ellipse cx="29.9" cy="29.5" rx="29.9" ry="29.5" fill="#325c80"></ellipse>
<g stroke="#fff">
<ellipse cx="30.1" cy="29.5" rx="14.4" ry="14.2" fill="none" stroke-width="3"></ellipse>
<ellipse cx="30.1" cy="29.5" rx="4.2" ry="4.1" fill="#fff" stroke-width="2"></ellipse>
<ellipse cx="29.9" cy="29.5" rx="22.2" ry="21.9" fill="none" stroke-width="3"></ellipse>
</g>
<g fill="#325c80">
<path d="M43.2 36.1l8.9 2.5-5.5 4.7-1.3 2.3-2 1-4.8 5.9-2.1-9.5-2.1-9.4 8.9 2.5z"></path>
<path d="M51.9 48.4l-3.4 3.3-6-6.1 3.4-3.3z"></path>
</g>
<g stroke="#fff" stroke-miterlimit="10">
<path d="M44 43.7l-1.3.1-3.3 4.2-1.5-6-1.5-6.1 12.2 3.6-4.4 3-.2 1.2z" fill="#fff" stroke-width="2"></path>
<path d="M44 43.7l5.6 5.8" fill="none" stroke-width="3"></path>
</g>
</svg>