<svg xmlns="http://www.w3.org/2000/svg" xmlns:xlink="http://www.w3.org/1999/xlink" x="0" y="0" width="20px" height="20px" viewBox="0 0 161.9 162" xml:space="preserve">
<path fill="#312D2A" d="M32.3,47.6v-11l-3.7,0.9v-2.4l5-3.5h3.2v16H32.3z M42.8,39.6v-3.9h4.4v3.9H42.8z M42.8,47.6v-3.9h4.4v3.9  H42.8z M42.8,70.7v-3.9h4.4v3.9H42.8z M42.8,78.7v-3.9h4.4v3.9H42.8z M53,47.6l4.9-8.5l-4.6-7.7h4.9l2.9,4.9l2.7-4.9h4.9l-4.7,7.8  l4.9,8.4H64l-3-5.4l-2.9,5.4H53z M78.3,48c-2.5,0-4.4-0.7-5.8-2.2s-2-3.6-2-6.3c0-1.8,0.3-3.3,0.9-4.6c0.6-1.3,1.5-2.2,2.7-2.9  c1.2-0.7,2.6-1,4.2-1c1.7,0,3.1,0.3,4.2,1c1.2,0.7,2.1,1.6,2.7,2.9c0.6,1.3,0.9,2.8,0.9,4.6c0,2.7-0.7,4.8-2,6.3  C82.7,47.2,80.8,48,78.3,48z M78.3,44.2c2.2,0,3.3-1.6,3.3-4.7c0-3.1-1.1-4.7-3.3-4.7c-2.2,0-3.3,1.6-3.3,4.7  C75,42.6,76.1,44.2,78.3,44.2z M87.6,47.6l4.9-8.5l-4.6-7.7h4.9l2.9,4.9l2.7-4.9h4.9l-4.7,7.8l4.9,8.4h-4.9l-3-5.4l-2.9,5.4H87.6z   M112.8,48c-2.5,0-4.4-0.7-5.8-2.2c-1.4-1.5-2-3.6-2-6.3c0-1.8,0.3-3.3,0.9-4.6c0.6-1.3,1.5-2.2,2.7-2.9c1.2-0.7,2.6-1,4.2-1  c1.7,0,3.1,0.3,4.2,1c1.2,0.7,2.1,1.6,2.7,2.9c0.6,1.3,0.9,2.8,0.9,4.6c0,2.7-0.7,4.8-2,6.3C117.3,47.2,115.3,48,112.8,48z   M112.8,44.2c2.2,0,3.3-1.6,3.3-4.7c0-3.1-1.1-4.7-3.3-4.7s-3.3,1.6-3.3,4.7C109.6,42.6,110.7,44.2,112.8,44.2z M28.7,78.8v-3.1  l3.6-3.9c1-1.1,1.7-1.9,2.1-2.5c0.4-0.6,0.6-1.1,0.6-1.5c0-0.5-0.2-0.9-0.6-1.2c-0.4-0.3-0.9-0.4-1.5-0.4c-0.5,0-1.1,0.1-1.7,0.3  c-0.6,0.2-1.3,0.5-2.2,1v-3.9c0.9-0.4,1.7-0.6,2.5-0.8c0.8-0.2,1.5-0.3,2.3-0.3c1.8,0,3.2,0.4,4.2,1.2c1,0.8,1.5,2,1.5,3.4  c0,0.6-0.1,1.2-0.3,1.8c-0.2,0.6-0.6,1.3-1.2,2c-0.5,0.7-1.3,1.6-2.2,2.6l-1.2,1.4h5v3.9H28.7z M53,78.8l4.9-8.5l-4.6-7.7h4.9  l2.9,4.9l2.7-4.9h4.9l-4.7,7.8l4.9,8.4H64l-3-5.4l-2.9,5.4H53z M143,9.1H9v143.7h9V18.1h116v35.6c3.3,1.7,6.3,3.9,9,6.4V9.1z   M75,70.6c0-3.1,1.1-4.7,3.3-4.7c0.4,0,0.7,0.1,1,0.2c0.8-1.1,1.7-2.2,2.6-3.2c-1.1-0.5-2.3-0.7-3.7-0.7c-1.6,0-3.1,0.3-4.2,1  c-1.2,0.7-2.1,1.6-2.7,2.9c-0.6,1.3-0.9,2.8-0.9,4.6c0,2.7,0.7,4.8,2,6.3c0.2,0.2,0.4,0.4,0.6,0.6c0.6-1.7,1.3-3.3,2.1-4.9  C75.1,72,75,71.4,75,70.6z M74.7,146.8l-7.2-6.8l-5.7,5.8l7.2,6.8L74.7,146.8z M104.9,110.3c-4.6,0-8.2-1.4-10.8-4.1  c-2.5-2.8-3.8-6.6-3.8-11.6c0-3.3,0.6-6.1,1.7-8.5c1.1-2.3,2.8-4.1,5-5.4c2.2-1.2,4.8-1.9,7.9-1.9c3.1,0,5.7,0.6,7.9,1.9  s3.8,3,5,5.4c1.1,2.3,1.7,5.2,1.7,8.5c0,5-1.3,8.9-3.8,11.6C113.1,108.9,109.6,110.3,104.9,110.3z M104.9,103.3c4,0,6.1-2.9,6.1-8.8  c0-5.8-2-8.8-6.1-8.8c-4,0-6.1,2.9-6.1,8.8C98.8,100.4,100.9,103.3,104.9,103.3z M116.9,53.6c-21.4-1.7-40.3,14.7-42,36.4  c-0.9,11.7,3.3,22.6,10.7,30.4l-15.3,16.4l7.2,6.8l15.8-16.8c5.1,3.2,11,5.3,17.4,5.8c1,0.1,2,0.1,3.1,0.1c9.3,0,18.2-3.3,25.4-9.5  c7.9-6.9,12.7-16.5,13.5-27C154.4,74.3,138.3,55.3,116.9,53.6z M142.8,101l-4.1-7l4.5-7.5c0.6,2.8,0.8,5.8,0.6,8.9  C143.6,97.3,143.3,99.2,142.8,101z M133.3,116.3c-6.1,5.3-13.8,7.9-21.8,7.3c-16.5-1.3-28.9-16-27.5-32.8c1.2-16,14.5-28.2,30-28.2  c0.8,0,1.5,0,2.3,0.1c10.9,0.9,20,7.6,24.5,16.9h-2.5l-5.1,9.2l-5.3-9.2h-9.2l8.6,14.4l-9.1,15.8h9.6l5.3-10l5.6,10h0.4  C137.4,112.1,135.5,114.3,133.3,116.3z"></path>
</svg>