<svg xmlns="http://www.w3.org/2000/svg" xmlns:xlink="http://www.w3.org/1999/xlink" x="0" y="0" width="20px" height="20px" viewBox="0 0 161.9 162" xml:space="preserve">
<path fill="#312D2A" d="M121.9,123.8H41.2c-10.4-0.8-18.4-4.5-23.8-11.1c-8.5-10.4-6.9-24.1-6.9-24.7v-0.2  C14,67.8,29.1,60,38.7,58.2c5.7-15.6,17.7-19.1,19.7-19.6c15.9-4.6,28.1,3.2,33.9,9.5c19.9-3.7,28.9,10.1,31.9,16.2  c28.7,4,27.4,30.3,27.3,30.5C150.5,116.5,131.7,123.2,121.9,123.8L121.9,123.8z M41.7,114.8h80c1.6-0.1,20-1.8,20.9-20.4  c0.1-2,0.4-19.5-21.8-21.4l-3-0.3l-0.9-2.9c-0.6-1.8-6.3-17.3-25.1-12.4l-3,0.8L87,55.6c-0.4-0.5-9.7-13.2-26-8.4l-0.4,0.1  c-0.4,0.1-10,2.4-14,16.1l-0.9,3l-3.1,0.2c-0.8,0.1-19.3,1.8-23,22.5c-0.1,1-0.9,10.8,4.9,17.9C28.1,111.6,33.9,114.2,41.7,114.8z   M48.4,72.6h2.5v34.3h-2.5V72.6z M55.4,72.6h10.2v34.3H55.4V72.6z M73,72.6h3.7v34.3H73V72.6z M80.5,72.6h7.2v34.3h-7.2V72.6z   M94,72.6h2.6v34.3H94V72.6z M100.6,72.6h8.9v34.3h-8.9V72.6z"></path>
</svg>