<svg xmlns="http://www.w3.org/2000/svg" xmlns:xlink="http://www.w3.org/1999/xlink" x="0" y="0" width="20px" height="20px" viewBox="0 0 161.9 162" xml:space="preserve">
<g>
<path fill="#312D2A" d="M47.1,60.6c-3.7,0-7.4-1.4-10.2-4.2c-2.7-2.7-4.2-6.3-4.2-10.2s1.5-7.4,4.2-10.2c2.7-2.7,6.3-4.2,10.2-4.2 s7.4,1.5,10.2,4.2h0c0,0,0,0,0,0c2.7,2.7,4.2,6.3,4.2,10.2s-1.5,7.4-4.2,10.2C54.4,59.2,50.7,60.6,47.1,60.6z M47.1,38.9 c-2,0-3.8,0.8-5.2,2.2c-1.4,1.4-2.2,3.2-2.2,5.2s0.8,3.8,2.2,5.2c2.9,2.9,7.5,2.9,10.4,0c1.4-1.4,2.2-3.2,2.2-5.2s-0.8-3.8-2.2-5.2 h0C50.9,39.7,49,38.9,47.1,38.9z"></path>
</g>
<path fill="#312D2A" d="M150.4,93.3L68.8,11.4L11.9,11v57.2l20.1,20.2c-7.5,6.4-12.3,16-12.3,26.7c0,19.3,15.7,35.1,35.1,35.1 c10.6,0,20.1-4.7,26.6-12.2l12.2,12.2L150.4,93.3z M54.8,142.1c-14.9,0-27.1-12.1-27.1-27.1c0-14.9,12.1-27.1,27.1-27.1 c14.9,0,27.1,12.1,27.1,27.1C81.9,130,69.8,142.1,54.8,142.1z M65,20.4l72.6,72.9l-44.1,44.1l-7.1-7.1c2.2-4.6,3.5-9.8,3.5-15.2 C89.9,95.7,74.2,80,54.8,80c-5.4,0-10.5,1.2-15.1,3.4L20.9,64.5V20.1"></path>
<polygon fill="#312D2A" points="70.3,111.6 59.4,111.6 59.4,100.7 50.6,100.7 50.6,111.6 39.3,111.6 39.3,120.7 50.6,120.7 50.6,131.7 59.4,131.7 59.4,120.7 70.3,120.7 "></polygon>
</svg>