<svg width="20px" height="20px" viewBox="0 0 41 41" xmlns="http://www.w3.org/2000/svg" xmlns:xlink="http://www.w3.org/1999/xlink">
    <g stroke="none" stroke-width="1" fill="none" fill-rule="evenodd">
        <g transform="translate(1.000000, 1.000000)">
            <g stroke="#00C1DE" stroke-width="1.6">
                <rect fill="#FFFFFF" fill-rule="nonzero" x="0.6" y="0.6" width="38.4" height="38.4" rx="8"></rect>
                <rect x="0.6" y="0.6" width="38.4" height="38.4" rx="8"></rect>
            </g>
            <g transform="translate(6.500000, 9.500000)" fill="#00C1DE" fill-rule="nonzero">
                <path d="M26.15,10.63 C25.69,10.17 25.14,9.86 24.51,9.69 C23.88,9.52 23.27,9.52 22.64,9.69 C22.01,9.86 21.46,10.17 21,10.63 C20.44,11.2 20.08,11.89 19.97,12.71 C19.87,13.51 20,14.27 20.35,14.94 L16.91,18.38 C16.59,18.7 16.24,18.95 15.82,19.14 C15.42,19.33 15,19.43 14.56,19.47 C14.12,19.52 13.67,19.49 13.23,19.39 C12.79,19.3 12.35,19.14 11.93,18.91 C11.51,18.68 11.11,18.38 10.76,18.05 C9.85,17.16 9.37,16.13 9.31,14.92 C9.24,13.7 9.62,12.69 10.44,11.87 L14.41,7.9 L12.98,6.47 L9.01,10.44 C8.53,10.93 8.15,11.45 7.88,12.06 C7.58,12.67 7.42,13.3 7.35,13.95 C7.29,14.6 7.31,15.25 7.42,15.9 C7.52,16.55 7.75,17.2 8.09,17.84 C8.42,18.46 8.84,19.03 9.35,19.54 C10.73,20.92 12.35,21.61 14.22,21.61 C15.84,21.61 17.24,21.05 18.44,19.94 L21.89,16.49 C22.49,16.79 23.08,16.95 23.65,16.95 C24.13,16.95 24.59,16.87 25.04,16.7 C25.48,16.53 25.88,16.26 26.17,15.92 C26.88,15.15 27.24,14.24 27.24,13.22 C27.22,12.17 26.86,11.33 26.15,10.63 L26.15,10.63 Z M24.72,14.29 C24.43,14.58 24.07,14.73 23.61,14.73 C23.14,14.73 22.79,14.58 22.49,14.29 C22.3,14.1 22.18,13.87 22.09,13.59 C22.03,13.32 22.03,13.05 22.09,12.77 C22.16,12.5 22.28,12.27 22.49,12.08 C22.79,11.79 23.17,11.62 23.61,11.62 C24.05,11.62 24.4,11.77 24.72,12.08 C25.01,12.38 25.16,12.73 25.16,13.19 C25.16,13.66 25.01,13.99 24.72,14.29 L24.72,14.29 Z M7.25,6.62 L10.69,3.18 C11.51,2.38 12.52,2 13.7,2.06 C14.87,2.13 15.94,2.61 16.84,3.49 C17.73,4.37 18.21,5.45 18.27,6.68 C18.34,7.88 17.98,8.87 17.16,9.67 L13.19,13.64 L14.62,15.06 L18.59,11.09 C19.79,9.9 20.35,8.41 20.27,6.62 C20.23,5.78 20.04,4.96 19.7,4.19 C19.34,3.41 18.88,2.69 18.25,2.09 C16.95,0.78 15.42,0.11 13.65,0.05 C11.89,-0.01 10.38,0.55 9.16,1.77 L5.72,5.21 C5.25,4.98 4.77,4.84 4.27,4.79 C3.76,4.75 3.26,4.84 2.75,5 C2.25,5.19 1.81,5.47 1.43,5.84 C0.72,6.56 0.36,7.42 0.36,8.41 C0.36,9.39 0.72,10.25 1.43,10.97 C2.12,11.66 2.96,12 3.97,12 C5.02,12 5.88,11.66 6.51,10.97 C6.77,10.72 6.95,10.46 7.12,10.17 C7.29,9.88 7.42,9.58 7.5,9.29 C7.58,8.99 7.63,8.68 7.63,8.39 C7.63,8.07 7.61,7.78 7.54,7.48 C7.48,7.17 7.37,6.89 7.25,6.62 L7.25,6.62 Z M5.17,9.48 C5.11,9.54 5.02,9.6 4.94,9.67 C4.85,9.73 4.77,9.77 4.67,9.81 C4.58,9.86 4.48,9.88 4.37,9.9 C4.27,9.92 4.16,9.92 4.08,9.92 C3.97,9.92 3.87,9.92 3.78,9.9 C3.68,9.88 3.59,9.86 3.49,9.81 C3.41,9.77 3.3,9.73 3.22,9.67 C3.13,9.6 3.05,9.54 2.99,9.48 C2.69,9.18 2.54,8.83 2.54,8.36 C2.54,7.9 2.69,7.55 2.99,7.25 C3.28,6.96 3.66,6.79 4.1,6.79 C4.54,6.81 4.9,6.96 5.21,7.25 C5.51,7.55 5.65,7.9 5.65,8.32 C5.61,8.76 5.46,9.14 5.17,9.48 L5.17,9.48 Z" id="Shape"></path>
            </g>
        </g>
    </g>
</svg>