<svg width="20px" height="20px" viewBox="0 0 41 41" xmlns="http://www.w3.org/2000/svg" xmlns:xlink="http://www.w3.org/1999/xlink">
    <g stroke="none" stroke-width="1" fill="none" fill-rule="evenodd">
        <g transform="translate(1.000000, 1.000000)">
            <g stroke="#00C1DE" stroke-width="1.6">
                <rect fill="#FFFFFF" fill-rule="nonzero" x="0.6" y="0.6" width="38.4" height="38.4" rx="8"></rect>
                <rect x="0.6" y="0.6" width="38.4" height="38.4" rx="8"></rect>
            </g>
            <g transform="translate(6.500000, 6.500000)" fill="#00C1DE" fill-rule="nonzero">
                <path d="M13.43,22.82 C15.96,22.82 18.12,21.94 19.89,20.16 C21.66,18.39 22.55,16.23 22.55,13.69 C22.55,11.16 21.66,9 19.89,7.23 C18.12,5.45 15.96,4.57 13.43,4.57 C10.9,4.57 8.74,5.45 6.97,7.23 C5.2,9 4.31,11.16 4.31,13.69 C4.31,16.23 5.2,18.39 6.97,20.16 C8.74,21.94 10.9,22.82 13.43,22.82 Z M7.12,17.35 L9.8,17.35 C10.12,18.55 10.54,19.61 11.07,20.58 C9.38,20.01 8.07,18.94 7.12,17.35 L7.12,17.35 Z M13.43,20.94 C12.67,19.8 12.08,18.62 11.66,17.35 L15.12,17.35 C14.78,18.55 14.23,19.76 13.43,20.94 L13.43,20.94 Z M15.82,20.58 C16.34,19.57 16.79,18.49 17.08,17.35 L19.76,17.35 C18.81,18.94 17.48,20.01 15.82,20.58 L15.82,20.58 Z M20.48,11.88 C20.55,12.15 20.57,12.36 20.61,12.51 C20.63,12.66 20.67,12.85 20.69,13.08 C20.71,13.31 20.74,13.53 20.74,13.72 C20.74,14.39 20.65,15 20.48,15.53 L17.38,15.53 C17.46,14.73 17.51,14.12 17.51,13.72 C17.51,13.31 17.46,12.7 17.38,11.9 L20.48,11.9 L20.48,11.88 Z M19.76,10.04 L17.08,10.04 C16.77,8.83 16.34,7.78 15.82,6.81 C17.48,7.38 18.81,8.45 19.76,10.04 L19.76,10.04 Z M13.43,6.45 C14.13,7.42 14.72,8.62 15.2,10.04 L11.72,10.04 C12.12,8.69 12.69,7.48 13.43,6.45 Z M11.3,11.88 L15.56,11.88 C15.65,12.68 15.69,13.29 15.69,13.69 C15.69,14.1 15.65,14.71 15.56,15.51 L11.3,15.51 C11.21,14.71 11.17,14.1 11.17,13.69 C11.19,12.89 11.21,12.28 11.3,11.88 Z M11.07,6.83 C10.54,7.84 10.09,8.92 9.8,10.06 L7.12,10.06 C8.07,8.45 9.38,7.38 11.07,6.83 L11.07,6.83 Z M6.13,13.69 C6.13,13.55 6.13,13.38 6.15,13.23 C6.15,13.08 6.17,12.93 6.19,12.79 C6.21,12.64 6.23,12.47 6.27,12.32 C6.32,12.17 6.34,12.02 6.38,11.88 L9.48,11.88 C9.4,12.68 9.36,13.29 9.36,13.69 C9.36,14.1 9.4,14.71 9.48,15.51 L6.38,15.51 C6.21,14.98 6.13,14.37 6.13,13.69 L6.13,13.69 Z M13.43,0.36 C10.09,0.36 7.16,1.48 4.6,3.7 C3.93,4.31 3.34,4.97 2.79,5.71 C2.56,5.71 2.35,5.75 2.16,5.85 C1.97,5.96 1.78,6.07 1.63,6.23 C1.48,6.38 1.37,6.57 1.29,6.78 C1.21,7 1.16,7.21 1.16,7.44 C1.16,7.9 1.33,8.31 1.65,8.64 C1.99,8.98 2.39,9.15 2.85,9.15 C3.34,9.15 3.74,8.98 4.08,8.66 C4.39,8.35 4.56,7.93 4.56,7.44 C4.56,7.19 4.5,6.95 4.37,6.7 C4.77,6.19 5.28,5.66 5.89,5.11 C6.95,4.18 8.13,3.47 9.42,2.98 C10.73,2.49 12.08,2.26 13.49,2.26 C15.56,2.26 17.48,2.77 19.26,3.8 C21.03,4.84 22.43,6.23 23.46,8.01 C24.49,9.78 25,11.71 25,13.78 C25,15.85 24.49,17.77 23.46,19.55 C22.43,21.32 21.03,22.72 19.26,23.75 C17.48,24.79 15.56,25.3 13.49,25.3 C12.4,25.3 11.34,25.15 10.28,24.85 C9.25,24.56 8.26,24.11 7.33,23.52 C6.4,22.93 5.58,22.23 4.86,21.41 L4.12,20.5 C4.16,20.41 4.18,20.27 4.18,20.08 C4.18,19.61 4.01,19.21 3.7,18.87 C3.38,18.53 2.96,18.36 2.49,18.36 C2.01,18.36 1.61,18.53 1.27,18.85 C0.93,19.17 0.78,19.59 0.78,20.08 C0.78,20.2 0.8,20.31 0.83,20.44 C0.85,20.54 0.89,20.67 0.93,20.75 C0.97,20.84 1.02,20.94 1.08,21.05 C1.14,21.13 1.21,21.22 1.29,21.3 C1.37,21.39 1.46,21.45 1.54,21.51 C1.63,21.58 1.73,21.62 1.84,21.66 C1.94,21.7 2.05,21.72 2.16,21.77 C2.26,21.81 2.39,21.81 2.51,21.81 L2.77,21.81 L3.51,22.72 C4.79,24.15 6.29,25.25 8.03,26.06 C9.76,26.84 11.57,27.24 13.49,27.24 C14.7,27.24 15.88,27.07 17.04,26.75 C18.2,26.44 19.26,25.99 20.23,25.42 C21.2,24.85 22.11,24.15 22.91,23.33 C23.73,22.51 24.43,21.62 25,20.65 C25.57,19.67 26.01,18.62 26.33,17.46 C26.65,16.29 26.82,15.13 26.82,13.91 C26.82,12.07 26.46,10.31 25.76,8.64 C25.06,6.97 24.11,5.56 22.93,4.35 C21.75,3.15 20.33,2.2 18.69,1.5 C17.04,0.8 15.25,0.36 13.43,0.36 L13.43,0.36 Z" id="Shape"></path>
            </g>
        </g>
    </g>
</svg>