<svg width="20px" height="20px" viewBox="0 0 41 41" xmlns="http://www.w3.org/2000/svg" xmlns:xlink="http://www.w3.org/1999/xlink">
    <g stroke="none" stroke-width="1" fill="none" fill-rule="evenodd">
        <g transform="translate(1.000000, 1.000000)">
            <g stroke="#00C1DE" stroke-width="1.6">
                <rect fill="#FFFFFF" fill-rule="nonzero" x="0.6" y="0.6" width="38.4" height="38.4" rx="8"></rect>
                <rect x="0.6" y="0.6" width="38.4" height="38.4" rx="8"></rect>
            </g>
            <g transform="translate(6.500000, 7.500000)" fill="#00C1DE" fill-rule="nonzero">
                <path d="M23.05,11.25 C22.92,11.17 22.75,11.09 22.54,11.02 C22.33,10.96 22.14,10.92 21.99,10.92 C21.72,10.92 21.45,10.98 21.19,11.09 L21.09,10.96 L20.37,11.64 L20.44,11.72 C20.39,11.78 20.35,11.87 20.31,11.95 C20.27,12.04 20.23,12.14 20.2,12.23 C20.18,12.31 20.16,12.42 20.14,12.52 C20.12,12.63 20.12,12.72 20.12,12.78 C20.12,13.05 20.2,13.33 20.35,13.65 C20.5,13.94 20.69,14.18 20.92,14.32 C21,14.39 21.11,14.45 21.24,14.49 C21.36,14.54 21.49,14.58 21.64,14.62 C21.76,14.64 21.89,14.66 21.99,14.66 C22.16,14.66 22.35,14.62 22.56,14.56 C22.77,14.49 22.94,14.39 23.11,14.26 C23.28,14.13 23.43,14.01 23.51,13.86 C23.6,13.73 23.68,13.56 23.74,13.35 C23.81,13.14 23.85,12.95 23.85,12.8 C23.85,12.63 23.81,12.44 23.74,12.23 C23.68,12.02 23.57,11.85 23.45,11.66 C23.32,11.49 23.2,11.36 23.05,11.25 L23.05,11.25 Z M8.89,9.05 L9.36,8.55 L8.64,7.87 L8.13,8.42 L8.3,8.57 C8.13,8.44 7.92,8.33 7.67,8.23 C7.42,8.12 7.19,8.04 6.93,7.95 C6.68,7.87 6.43,7.8 6.17,7.76 C5.92,7.72 5.69,7.7 5.48,7.7 C5.18,7.7 4.87,7.72 4.57,7.78 C3.18,8.04 2.07,8.76 1.29,9.9 C1.12,10.13 0.97,10.43 0.82,10.79 C0.68,11.13 0.57,11.49 0.49,11.87 C0.4,12.23 0.36,12.57 0.36,12.86 C0.36,13.16 0.38,13.48 0.44,13.77 C0.7,15.17 1.41,16.29 2.55,17.08 C2.78,17.24 3.08,17.39 3.41,17.54 C3.75,17.69 4.11,17.8 4.47,17.88 C4.83,17.96 5.16,18.01 5.44,18.01 L5.44,18.01 C5.98,18.01 6.51,17.92 7.02,17.75 C7.52,17.58 8.01,17.33 8.47,17.01 C8.93,16.67 9.31,16.27 9.63,15.81 C9.88,15.45 10.09,14.98 10.28,14.39 C10.47,13.82 10.56,13.31 10.56,12.86 C10.56,12.57 10.53,12.25 10.47,11.95 C10.39,11.49 10.2,10.96 9.88,10.39 C9.59,9.84 9.25,9.39 8.89,9.05 L8.89,9.05 Z M8.83,15.23 C8.6,15.55 8.3,15.85 7.92,16.12 C7.54,16.4 7.12,16.61 6.68,16.78 C6.24,16.95 5.82,17.01 5.44,17.01 C5.21,17.01 4.93,16.97 4.64,16.91 C4.34,16.84 4.05,16.76 3.77,16.63 C3.5,16.53 3.27,16.4 3.06,16.25 C2.8,16.08 2.55,15.83 2.32,15.53 C2.07,15.23 1.88,14.9 1.71,14.56 C1.54,14.22 1.43,13.88 1.37,13.58 C1.35,13.52 1.35,13.43 1.33,13.35 C1.33,13.27 1.31,13.18 1.31,13.08 C1.31,12.99 1.31,12.91 1.31,12.84 C1.33,11.97 1.58,11.19 2.05,10.47 C2.32,10.09 2.7,9.71 3.22,9.39 C3.75,9.05 4.24,8.84 4.7,8.78 C4.95,8.74 5.18,8.72 5.44,8.72 C5.54,8.72 5.65,8.72 5.75,8.74 C5.86,8.74 5.96,8.76 6.07,8.78 C6.17,8.8 6.28,8.82 6.36,8.84 C6.45,8.86 6.57,8.88 6.66,8.93 C6.76,8.95 6.85,8.99 6.95,9.03 C7.06,9.07 7.14,9.12 7.25,9.16 C7.35,9.2 7.44,9.27 7.52,9.31 C7.61,9.37 7.71,9.41 7.8,9.48 C8.18,9.75 8.55,10.13 8.87,10.66 C9.21,11.19 9.42,11.68 9.48,12.14 C9.52,12.4 9.54,12.65 9.54,12.91 C9.54,13.14 9.5,13.39 9.44,13.69 C9.38,13.99 9.29,14.26 9.17,14.54 C9.08,14.81 8.98,15.04 8.83,15.23 L8.83,15.23 Z M10.22,6.13 L10.94,6.81 L9.86,7.97 L9.14,7.3 L10.22,6.13 Z M20.52,10.43 L19.82,11.11 L18.75,10.01 L19.47,9.31 L20.52,10.43 Z M17.84,7.66 L17.13,8.33 L18.2,9.43 L18.92,8.76 L17.84,7.66 Z M16.29,6.03 C16.48,5.82 16.64,5.58 16.77,5.35 C16.88,5.14 16.98,4.88 17.07,4.57 C17.15,4.25 17.19,3.97 17.19,3.74 C17.19,3.36 17.11,2.98 16.96,2.58 C16.79,2.17 16.58,1.82 16.31,1.48 C16.03,1.14 15.74,0.88 15.4,0.71 C14.9,0.44 14.37,0.31 13.78,0.31 C13.21,0.31 12.64,0.48 12.05,0.84 C11.46,1.2 11.04,1.62 10.77,2.11 C10.66,2.32 10.56,2.58 10.47,2.89 C10.39,3.21 10.35,3.49 10.35,3.72 C10.35,3.97 10.39,4.27 10.49,4.61 C10.6,4.95 10.7,5.22 10.83,5.46 L10.77,5.54 L11.1,5.86 C11.21,5.98 11.29,6.09 11.4,6.2 C11.5,6.3 11.63,6.41 11.76,6.49 C11.88,6.58 12.01,6.66 12.16,6.75 C12.73,7.04 13.34,7.19 13.95,7.15 C14.56,7.11 15.13,6.94 15.63,6.6 L15.55,6.68 L16.62,7.78 L17.34,7.09 L16.29,6.03 Z M5.46,14.68 C5.71,14.68 5.96,14.64 6.17,14.54 C6.41,14.43 6.6,14.3 6.76,14.13 C6.93,13.96 7.06,13.77 7.16,13.54 C7.27,13.31 7.31,13.08 7.31,12.82 C7.31,12.29 7.12,11.87 6.76,11.49 C6.41,11.11 5.96,10.94 5.44,10.94 C5.1,10.94 4.78,11.02 4.49,11.19 C4.19,11.36 3.98,11.59 3.81,11.87 C3.65,12.17 3.56,12.46 3.56,12.82 C3.56,13.6 3.92,14.18 4.62,14.51 C4.91,14.62 5.18,14.68 5.46,14.68 L5.46,14.68 Z M24.9,8.52 C24.52,8.25 24.12,8.06 23.68,7.89 C23.24,7.74 22.82,7.64 22.37,7.61 C21.93,7.57 21.51,7.61 21.07,7.68 C20.63,7.76 20.2,7.89 19.82,8.06 C19.42,8.25 19.07,8.48 18.71,8.78 C18.35,9.07 18.06,9.41 17.78,9.79 C17.25,10.56 16.96,11.4 16.88,12.31 C16.79,13.22 16.96,14.09 17.34,14.92 C17.72,15.74 18.29,16.42 19.05,16.95 C19.4,17.2 19.87,17.41 20.44,17.6 C21,17.8 21.51,17.88 21.95,17.88 L21.95,17.88 C22.77,17.88 23.55,17.69 24.31,17.31 C25.05,16.93 25.68,16.38 26.17,15.68 C26.97,14.51 27.24,13.24 27.01,11.85 C26.78,10.45 26.06,9.33 24.9,8.52 L24.9,8.52 Z M25.37,15.11 C25.03,15.59 24.52,16.02 23.87,16.36 C23.22,16.69 22.58,16.88 21.97,16.88 C21.62,16.88 21.22,16.82 20.75,16.67 C20.29,16.53 19.91,16.36 19.61,16.14 C19.13,15.81 18.71,15.3 18.37,14.64 C18.03,13.99 17.84,13.35 17.84,12.74 C17.84,12.38 17.91,11.97 18.06,11.51 C18.2,11.04 18.37,10.66 18.58,10.37 C18.75,10.13 18.96,9.9 19.23,9.67 C19.51,9.43 19.78,9.27 20.08,9.1 C20.37,8.95 20.69,8.82 21.03,8.72 C21.36,8.63 21.66,8.57 21.95,8.57 L21.95,8.57 C22.82,8.57 23.6,8.82 24.31,9.31 C24.8,9.65 25.22,10.15 25.55,10.83 C25.89,11.51 26.08,12.12 26.08,12.74 C26.08,12.91 26.06,13.12 26.02,13.33 C25.98,13.54 25.93,13.75 25.87,13.96 C25.81,14.18 25.72,14.39 25.64,14.58 C25.55,14.79 25.47,14.96 25.37,15.11 L25.37,15.11 L25.37,15.11 Z M13.78,25.29 C14.73,25.29 15.53,24.95 16.18,24.29 C16.85,23.62 17.17,22.81 17.17,21.88 C17.17,20.93 16.83,20.12 16.18,19.47 C15.51,18.79 14.71,18.47 13.78,18.47 C12.83,18.47 12.03,18.81 11.38,19.47 C10.7,20.14 10.39,20.95 10.39,21.88 C10.39,23.11 10.89,24.06 11.93,24.74 C12.47,25.1 13.1,25.29 13.78,25.29 Z M17.91,16.36 L18.62,17.03 L18.12,17.58 L17.4,16.91 L17.91,16.36 L17.91,16.36 L17.91,16.36 Z M16.85,17.48 L17.57,18.15 L16.5,19.32 L15.78,18.64 L16.85,17.48 L16.85,17.48 L16.85,17.48 Z M6.93,14.35 L6.22,15.04 L7.29,16.14 L8.01,15.45 L6.93,14.35 Z M9.61,17.12 L8.89,17.82 L7.82,16.72 L8.53,16.02 L9.61,17.12 Z M11.21,18.77 L10.13,17.67 L9.44,18.35 L10.51,19.45 L11.21,18.77 Z" id="Shape"></path>
            </g>
        </g>
    </g>
</svg>