<svg width="20px" height="20px" viewBox="0 0 41 41" xmlns="http://www.w3.org/2000/svg" xmlns:xlink="http://www.w3.org/1999/xlink">
    <g stroke="none" stroke-width="1" fill="none" fill-rule="evenodd">
        <g transform="translate(1.000000, 1.000000)">
            <g stroke="#00C1DE" stroke-width="1.6">
                <rect fill="#FFFFFF" fill-rule="nonzero" x="0.6" y="0.6" width="38.4" height="38.4" rx="8"></rect>
                <rect x="0.6" y="0.6" width="38.4" height="38.4" rx="8"></rect>
            </g>
            <g transform="translate(6.500000, 11.500000)" fill="#00C1DE" fill-rule="nonzero">
                <path d="M27.24,8.43 L20.05,2.96 C18.28,1.13 16.2,0.23 13.78,0.23 C12.87,0.23 11.97,0.37 11.13,0.65 C10.29,0.92 9.49,1.32 8.79,1.82 C8.1,2.33 7.49,2.91 6.96,3.61 C6.44,4.3 6.02,5.05 5.74,5.87 C4.4,6.15 2.88,6.8 1.24,7.82 L0.36,8.37 L7.68,14.87 L7.74,14.81 C9.45,16.51 11.51,17.37 13.91,17.37 C15.71,17.37 17.33,16.87 18.78,15.86 C20.24,14.85 21.27,13.53 21.88,11.9 C23.58,11.39 25.18,10.43 26.69,8.98 L27.24,8.43 Z M13.78,1.74 C14.77,1.74 15.74,1.93 16.64,2.33 C17.54,2.73 18.32,3.27 18.97,3.98 L19.1,4.05 C20.32,5.39 20.93,6.96 20.93,8.79 C20.93,8.89 20.93,9 20.93,9.1 C20.93,9.21 20.91,9.31 20.91,9.44 C20.91,9.57 20.89,9.65 20.87,9.73 C20.85,9.82 20.85,9.92 20.82,10.05 C20.8,10.17 20.78,10.28 20.76,10.34 C20.74,10.41 20.72,10.51 20.7,10.66 C20.05,10.74 19.58,10.78 19.29,10.78 C18.64,10.78 18.01,10.7 17.4,10.51 C16.79,10.32 16.18,10.05 15.63,9.71 C15.06,9.36 14.54,8.94 14.05,8.43 C12.18,6.5 10.04,5.58 7.6,5.64 C7.87,5.08 8.23,4.53 8.65,4.07 C9.07,3.61 9.55,3.19 10.08,2.83 C10.6,2.47 11.19,2.22 11.82,2.03 C12.43,1.82 13.08,1.74 13.78,1.74 L13.78,1.74 Z M2.86,8.6 C3.85,8.1 4.67,7.76 5.3,7.57 C5.28,7.68 5.28,7.78 5.26,7.82 C5.24,7.87 5.24,7.97 5.22,8.08 C5.2,8.18 5.2,8.26 5.2,8.35 C5.2,8.43 5.18,8.5 5.18,8.6 C5.18,8.68 5.18,8.77 5.18,8.85 C5.18,9.02 5.18,9.21 5.2,9.38 C5.22,9.54 5.24,9.73 5.26,9.92 C5.28,10.11 5.3,10.28 5.32,10.41 C5.34,10.53 5.37,10.7 5.41,10.93 L2.86,8.6 Z M13.78,15.84 C11.82,15.84 10.16,15.15 8.77,13.78 C7.38,12.4 6.71,10.74 6.71,8.79 C6.71,8.22 6.78,7.7 6.9,7.22 C9.09,6.92 11.07,7.68 12.87,9.46 C14.64,11.31 16.74,12.25 19.18,12.31 L19.98,12.31 C19.33,13.39 18.47,14.25 17.35,14.9 C16.26,15.53 15.06,15.84 13.78,15.84 L13.78,15.84 Z M22.23,10.13 C22.32,9.57 22.36,9.13 22.36,8.79 C22.36,8.5 22.34,8.22 22.32,7.95 C22.3,7.68 22.26,7.4 22.19,7.13 C22.13,6.86 22.07,6.61 21.98,6.38 L24.84,8.56 C24.55,8.79 24.25,9 23.98,9.19 C23.71,9.38 23.41,9.54 23.12,9.71 C22.84,9.86 22.53,10.01 22.23,10.13 L22.23,10.13 Z" id="Shape"></path>
            </g>
        </g>
    </g>
</svg>