<svg width="20px" height="20px" viewBox="0 0 41 41" xmlns="http://www.w3.org/2000/svg" xmlns:xlink="http://www.w3.org/1999/xlink">
    <g stroke="none" stroke-width="1" fill="none" fill-rule="evenodd">
        <g transform="translate(1.000000, 1.000000)">
            <g stroke="#00C1DE" stroke-width="1.6">
                <rect fill="#FFFFFF" fill-rule="nonzero" x="0.6" y="0.6" width="38.4" height="38.4" rx="8"></rect>
                <rect x="0.6" y="0.6" width="38.4" height="38.4" rx="8"></rect>
            </g>
            <g transform="translate(6.500000, 6.500000)" fill="#00C1DE" fill-rule="nonzero">
                <path d="M13.96,11.55 L16.88,6.07 L13.38,6.07 L9.42,15.03 L13.29,15.03 L10.83,22.61 L18.63,11.55 L13.96,11.55 L13.96,11.55 Z M23.33,20.9 C22.87,20.66 22.37,20.42 21.86,20.23 C21.34,20.03 20.8,19.84 20.23,19.69 C20.64,18.02 20.86,16.33 20.9,14.62 L25.64,14.62 C25.57,15.57 25.32,16.68 24.86,17.91 C24.41,19.12 23.89,20.12 23.33,20.9 L23.33,20.9 Z M17.79,24.99 C18.57,23.99 19.22,22.74 19.76,21.2 C20.67,21.46 21.49,21.76 22.24,22.13 C21.27,23.13 20.02,23.97 18.5,24.69 C18.24,24.82 18.01,24.92 17.79,24.99 L17.79,24.99 Z M16.54,24.04 C15.93,24.82 15.28,25.34 14.59,25.55 L14.59,22.26 L14.59,20.42 C15.07,20.44 15.74,20.49 16.6,20.57 C16.77,20.6 16.9,20.62 16.99,20.62 C17.53,20.68 17.94,20.77 18.22,20.81 C17.72,22.18 17.16,23.24 16.54,24.04 L16.54,24.04 Z M12.99,20.92 L12.99,25.57 C12.45,25.4 11.95,25.05 11.48,24.56 C10.65,23.69 9.94,22.46 9.36,20.86 C9.53,20.81 9.75,20.79 10,20.75 C10.26,20.7 10.48,20.68 10.65,20.66 L11.19,19.02 C10.98,19.04 10.74,19.06 10.46,19.1 C10.18,19.15 9.9,19.19 9.64,19.23 C9.36,19.28 9.12,19.32 8.92,19.36 C8.56,17.89 8.34,16.33 8.3,14.67 L8.75,14.67 L9.44,13.09 C9.1,13.09 8.71,13.09 8.27,13.09 C8.3,12.26 8.36,11.46 8.47,10.66 C8.58,9.88 8.73,9.13 8.9,8.37 C9.68,8.52 10.5,8.65 11.35,8.74 L12.02,7.2 C11.91,7.2 11.8,7.18 11.67,7.18 C11.54,7.16 11.41,7.16 11.28,7.13 C11.15,7.11 11.04,7.11 10.93,7.09 C10.83,7.07 10.68,7.05 10.48,7.03 C10.33,7 10.13,6.98 9.92,6.94 C9.7,6.9 9.51,6.87 9.36,6.83 C9.57,6.23 9.81,5.66 10.09,5.12 C10.35,4.58 10.68,4.08 11.04,3.63 L11.04,3.63 C11.19,3.43 11.35,3.26 11.52,3.09 C11.67,2.94 11.84,2.78 11.99,2.65 C12.15,2.52 12.32,2.42 12.49,2.33 C12.66,2.24 12.84,2.16 13.01,2.11 L13.01,5.32 L14.59,5.32 C14.59,3.84 14.59,2.78 14.59,2.11 C15.13,2.31 15.63,2.63 16.1,3.13 C16.43,3.48 16.75,3.87 17.03,4.32 C17.31,4.78 17.55,5.19 17.72,5.58 C17.9,5.94 18.07,6.38 18.22,6.83 C18.18,6.83 18.14,6.85 18.09,6.85 C18.05,6.85 17.98,6.87 17.94,6.87 C17.9,6.87 17.83,6.9 17.77,6.9 C17.7,6.9 17.66,6.92 17.62,6.92 C17.57,6.92 17.51,6.94 17.49,6.94 C17.44,6.94 17.42,6.96 17.38,6.96 C17.36,6.96 17.34,6.96 17.34,6.96 L16.43,8.67 C17.18,8.61 17.94,8.48 18.7,8.32 C19,9.51 19.17,10.73 19.28,11.94 L19.28,12.03 C19.3,12.35 19.33,12.67 19.33,13.02 L18.57,13.02 L17.44,14.6 C17.77,14.6 18.09,14.6 18.4,14.6 C18.7,14.6 19,14.6 19.3,14.6 C19.26,16.2 19.04,17.76 18.68,19.3 C16.92,18.99 15.52,18.82 14.46,18.82 L12.99,20.92 Z M5.33,22.13 C6.13,21.74 6.98,21.44 7.82,21.2 C8.34,22.74 9.01,23.99 9.79,24.99 C9.07,24.73 8.3,24.32 7.43,23.78 C6.57,23.24 5.85,22.67 5.33,22.13 L5.33,22.13 L5.33,22.13 Z M4.25,20.9 C2.87,19.02 2.09,16.92 1.94,14.62 C3,14.62 4.58,14.62 6.67,14.62 C6.72,16.33 6.96,18.02 7.34,19.69 C6.22,20.01 5.18,20.42 4.25,20.9 L4.25,20.9 Z M4.25,6.74 C5.2,7.24 6.24,7.65 7.37,7.96 C7.26,8.41 7.15,8.95 7.04,9.56 C6.93,10.16 6.87,10.79 6.8,11.4 C6.74,12.03 6.7,12.57 6.7,13.02 L5.46,13.02 C3.91,13.02 2.74,13.02 1.96,13.02 C2.11,10.73 2.87,8.63 4.25,6.74 L4.25,6.74 Z M9.79,2.65 C9.01,3.65 8.36,4.9 7.82,6.44 C6.93,6.2 6.09,5.88 5.33,5.51 C5.85,4.97 6.57,4.43 7.43,3.87 C8.3,3.3 9.07,2.89 9.79,2.65 L9.79,2.65 Z M22.27,5.51 C21.47,5.9 20.62,6.2 19.78,6.44 C19.61,5.97 19.43,5.49 19.24,5.06 C19.04,4.62 18.85,4.21 18.61,3.84 C18.4,3.45 18.16,3.11 17.9,2.76 L17.9,2.74 L17.81,2.63 C18.16,2.76 18.55,2.94 18.96,3.15 C19.37,3.37 19.78,3.61 20.17,3.87 C20.56,4.13 20.95,4.39 21.31,4.69 C21.68,4.99 22.01,5.25 22.27,5.51 L22.27,5.51 L22.27,5.51 Z M23.3,6.74 C23.87,7.52 24.39,8.52 24.84,9.75 C25.29,10.99 25.55,12.07 25.62,13.04 L20.88,13.04 C20.84,11.33 20.6,9.64 20.21,7.98 C20.8,7.83 21.34,7.63 21.86,7.44 C22.37,7.24 22.85,6.98 23.3,6.74 L23.3,6.74 Z M27.24,13.58 C27.22,12.57 27.09,11.55 26.83,10.55 C26.59,9.56 26.22,8.63 25.77,7.72 C25.03,6.27 24.06,4.99 22.85,3.89 C21.64,2.76 20.28,1.92 18.78,1.33 C18.09,1.05 17.38,0.84 16.62,0.66 C15.87,0.51 15.09,0.4 14.26,0.36 L13.36,0.36 C11.54,0.45 9.85,0.84 8.32,1.53 C5.85,2.63 3.91,4.32 2.46,6.59 C1.12,8.71 0.42,11.03 0.36,13.56 L0.36,14.04 C0.4,15.4 0.62,16.7 1.01,17.93 C1.25,18.67 1.61,19.49 2.15,20.4 C2.67,21.33 3.19,22.07 3.69,22.65 C5.44,24.66 7.6,26.03 10.18,26.74 C11.13,27 12.19,27.18 13.36,27.24 L14.26,27.24 L14.26,27.24 C14.59,27.22 14.89,27.2 15.17,27.18 C15.45,27.15 15.71,27.11 15.97,27.07 C16.23,27.02 16.47,26.98 16.69,26.94 C17.23,26.81 17.83,26.61 18.53,26.35 C19.2,26.07 19.87,25.77 20.49,25.42 C21.14,25.08 21.66,24.73 22.11,24.38 C22.76,23.86 23.46,23.17 24.17,22.28 C24.88,21.4 25.45,20.57 25.81,19.84 C26.72,18.04 27.2,16.12 27.24,14.04 L27.24,13.58 L27.24,13.58 Z" id="Shape"></path>
            </g>
        </g>
    </g>
</svg>