<svg width="20px" height="20px" viewBox="0 0 41 41" xmlns="http://www.w3.org/2000/svg" xmlns:xlink="http://www.w3.org/1999/xlink">
    <g stroke="none" stroke-width="1" fill="none" fill-rule="evenodd">
        <g transform="translate(1.000000, 1.000000)">
            <g stroke="#00C1DE" stroke-width="1.6">
                <rect fill="#FFFFFF" fill-rule="nonzero" x="0.6" y="0.6" width="38.4" height="38.4" rx="8"></rect>
                <rect x="0.6" y="0.6" width="38.4" height="38.4" rx="8"></rect>
            </g>
            <g transform="translate(7.500000, 6.500000)" fill="#00C1DE" fill-rule="nonzero">
                <path d="M6.08,16.7 L5.79,16.15 L9.31,16.15 C9.33,16.23 9.37,16.32 9.4,16.39 C9.42,16.46 9.46,16.55 9.51,16.63 L10.55,16.63 C10.53,16.57 10.51,16.52 10.49,16.48 L10.42,16.32 C10.42,16.32 10.4,16.28 10.35,16.17 L13.87,16.17 L13.87,21.21 L13.67,21.21 C12.91,20.77 12.11,19.86 11.29,18.48 L10.58,19.19 C10.95,19.81 11.38,20.39 11.84,20.95 C11.75,20.93 11.67,20.9 11.58,20.86 C11.49,20.84 11.4,20.79 11.31,20.77 C11.22,20.75 11.13,20.7 11.04,20.68 C10.95,20.66 10.87,20.61 10.78,20.57 C10.69,20.53 10.6,20.5 10.51,20.46 C10.42,20.41 10.33,20.39 10.24,20.35 C10.15,20.3 10.06,20.26 9.98,20.24 C9.89,20.19 9.8,20.15 9.71,20.1 L8.8,20.9 C9.35,21.21 9.91,21.48 10.49,21.68 C11.07,21.9 11.69,22.06 12.36,22.19 C13,22.3 13.67,22.37 14.33,22.37 C16.34,22.37 18.18,21.88 19.87,20.9 C21.56,19.93 22.9,18.59 23.88,16.9 C24.85,15.21 25.34,13.37 25.34,11.37 C25.34,9.36 24.85,7.52 23.88,5.83 C22.9,4.14 21.56,2.81 19.87,1.83 C18.18,0.85 16.34,0.36 14.33,0.36 C12.33,0.36 10.49,0.85 8.8,1.83 C7.11,2.81 5.77,4.14 4.79,5.83 C3.81,7.52 3.33,9.36 3.33,11.37 C3.33,13.23 3.77,14.99 4.66,16.61 L6.06,16.61 L6.08,16.7 Z M10,15.08 C9.75,14.06 9.64,13.03 9.64,11.99 L13.85,11.99 L13.85,15.08 L10,15.08 L10,15.08 Z M18.96,14.52 C19.27,14.52 19.54,14.63 19.76,14.86 C19.98,15.08 20.1,15.35 20.1,15.66 C20.1,15.97 19.98,16.23 19.76,16.46 C19.54,16.68 19.27,16.79 18.96,16.79 C18.65,16.79 18.38,16.68 18.16,16.46 C17.94,16.23 17.83,15.97 17.83,15.66 C17.87,15.35 17.98,15.08 18.2,14.86 C18.45,14.63 18.69,14.52 18.96,14.52 L18.96,14.52 Z M17,15.08 L14.89,15.08 L14.89,12.01 L18.89,12.01 C18.89,12.39 18.85,12.9 18.76,13.54 C18.56,13.57 18.36,13.61 18.16,13.7 C17.96,13.79 17.8,13.9 17.65,14.06 C17.49,14.19 17.36,14.34 17.25,14.52 C17.14,14.7 17.05,14.9 17,15.08 L17,15.08 Z M18.89,8.21 C18.76,8.21 18.65,8.19 18.54,8.16 C18.43,8.12 18.32,8.07 18.23,8.01 C18.14,7.94 18.05,7.85 17.98,7.76 C17.92,7.67 17.87,7.56 17.83,7.45 C17.78,7.34 17.78,7.21 17.78,7.1 C17.78,6.9 17.83,6.7 17.94,6.52 C18.03,6.34 18.18,6.21 18.34,6.12 C18.49,6.03 18.69,5.96 18.92,5.96 C19.05,5.96 19.16,5.99 19.27,6.01 C19.38,6.05 19.49,6.1 19.58,6.16 C19.67,6.23 19.76,6.32 19.83,6.41 C19.89,6.5 19.94,6.61 19.98,6.72 C20.03,6.83 20.03,6.96 20.03,7.07 C20.03,7.14 20.01,7.21 19.98,7.27 C19.96,7.34 19.94,7.41 19.92,7.47 C19.89,7.54 19.85,7.59 19.83,7.65 C19.78,7.72 19.76,7.76 19.72,7.81 C19.67,7.85 19.63,7.9 19.58,7.94 C19.54,7.99 19.49,8.01 19.43,8.05 C19.38,8.07 19.32,8.12 19.27,8.14 C19.21,8.16 19.16,8.19 19.09,8.19 C19.03,8.21 18.96,8.21 18.89,8.21 L18.89,8.21 Z M18.76,9.28 C18.78,9.52 18.81,9.72 18.83,9.85 C18.85,9.99 18.85,10.19 18.87,10.41 C18.89,10.63 18.89,10.88 18.89,11.08 L14.89,11.08 L14.89,8.01 L16.91,8.01 C17.05,8.32 17.29,8.61 17.65,8.85 C18,9.1 18.38,9.23 18.76,9.28 L18.76,9.28 Z M13.85,11.1 L9.64,11.1 C9.64,10.57 9.75,9.54 10,8.01 L13.85,8.01 L13.85,11.1 L13.85,11.1 Z M15.05,21.17 L14.85,21.17 L14.85,16.12 L16.96,16.12 C16.98,16.21 17.03,16.32 17.07,16.41 C17.11,16.5 17.16,16.59 17.2,16.68 C17.25,16.77 17.31,16.83 17.38,16.92 C17.45,16.99 17.52,17.08 17.58,17.15 C17.65,17.21 17.74,17.28 17.83,17.32 C17.6,17.86 17.36,18.35 17.09,18.81 C16.83,19.28 16.56,19.66 16.29,19.97 C16.02,20.28 15.8,20.53 15.6,20.73 C15.36,20.93 15.2,21.08 15.05,21.17 L15.05,21.17 Z M16.8,20.9 C17.18,20.5 17.52,20.04 17.87,19.5 C18.2,18.97 18.52,18.39 18.76,17.75 L18.96,17.75 C19.43,17.75 19.85,17.59 20.23,17.3 C20.61,17.01 20.85,16.61 20.98,16.15 L22.88,16.15 C22.25,17.3 21.39,18.3 20.32,19.12 C19.25,19.95 18.09,20.55 16.8,20.9 L16.8,20.9 Z M23.39,15.08 L21.01,15.08 C20.81,14.37 20.38,13.88 19.74,13.61 C19.76,13.43 19.78,13.28 19.78,13.19 C19.81,13.08 19.81,12.97 19.83,12.81 C19.85,12.65 19.85,12.52 19.87,12.39 C19.87,12.25 19.87,12.14 19.87,12.03 L24.08,12.03 C24.01,13.21 23.76,14.23 23.39,15.08 L23.39,15.08 Z M24.14,11.01 L19.87,11.01 C19.87,10.68 19.85,10.32 19.83,10.01 C19.78,9.68 19.74,9.34 19.67,8.99 C20.14,8.79 20.5,8.41 20.72,7.87 L23.45,7.87 C23.59,8.21 23.7,8.56 23.81,8.92 C23.9,9.28 23.99,9.63 24.03,9.96 C24.08,10.3 24.12,10.65 24.14,11.01 L24.14,11.01 Z M23.1,6.96 L20.98,6.96 C20.94,6.61 20.83,6.3 20.63,6.01 C20.45,5.72 20.21,5.5 19.89,5.32 C19.61,5.14 19.27,5.07 18.94,5.07 L18.74,5.07 C18.27,4.05 17.56,2.94 16.63,1.78 C18,2.14 19.25,2.76 20.38,3.67 C21.54,4.56 22.43,5.67 23.1,6.96 L23.1,6.96 Z M17.63,5.41 C17.09,5.78 16.78,6.3 16.71,6.94 L14.82,6.94 L14.82,1.63 C16.07,2.63 17,3.87 17.63,5.41 L17.63,5.41 Z M13.71,1.56 L13.85,1.56 L13.85,6.96 L10.2,6.96 C10.91,4.65 12.02,2.92 13.51,1.72 L13.71,1.56 Z M11.95,1.78 C10.71,3.12 9.8,4.83 9.22,6.9 L5.5,6.9 C6.59,4.78 8.31,3.23 10.62,2.25 C11.07,2.05 11.51,1.89 11.95,1.78 L11.95,1.78 Z M5.08,7.94 L8.93,7.94 C8.86,8.23 8.8,8.56 8.77,8.9 C8.73,9.23 8.71,9.59 8.69,9.92 C8.66,10.25 8.66,10.63 8.66,11.01 L4.46,11.01 C4.53,9.94 4.75,8.92 5.08,7.94 L5.08,7.94 Z M8.66,12.08 C8.69,12.59 8.75,13.1 8.8,13.61 C8.86,14.12 8.93,14.63 9.02,15.17 L5.24,15.17 C4.77,14.08 4.53,13.06 4.53,12.08 L8.66,12.08 L8.66,12.08 Z M12.8,24.06 C12.29,23.99 11.78,23.93 11.29,23.82 C10.8,23.7 10.38,23.59 10,23.46 C9.62,23.33 9.26,23.19 8.91,23.04 C8.55,22.88 8.26,22.73 8,22.57 C7.73,22.42 7.51,22.26 7.28,22.1 C7.06,21.95 6.88,21.82 6.73,21.68 C6.57,21.55 6.46,21.44 6.35,21.33 C6.24,21.21 6.17,21.15 6.13,21.08 L6.06,20.99 L8.8,18.24 L0.26,18.24 L0.26,26.77 L2.77,24.26 C2.77,24.26 2.86,24.33 3.01,24.46 C3.17,24.59 3.39,24.75 3.68,24.95 C3.97,25.15 4.33,25.37 4.77,25.59 C5.22,25.84 5.71,26.06 6.26,26.26 C6.82,26.46 7.44,26.66 8.15,26.84 C8.86,27 9.62,27.11 10.42,27.17 C11.22,27.24 12.11,27.22 13.07,27.13 C16.43,26.77 19.23,25.06 21.5,21.97 C22.03,21.26 22.41,20.61 22.68,20.06 C22.68,20.08 22.5,20.24 22.12,20.53 C21.76,20.81 21.23,21.19 20.56,21.61 C19.89,22.06 19.16,22.46 18.36,22.88 C17.56,23.28 16.65,23.62 15.65,23.84 C14.67,24.08 13.71,24.15 12.8,24.06 L12.8,24.06 Z" id="Shape"></path>
            </g>
        </g>
    </g>
</svg>