<svg width="20px" height="20px" viewBox="0 0 41 41" xmlns="http://www.w3.org/2000/svg" xmlns:xlink="http://www.w3.org/1999/xlink">
    <g stroke="none" stroke-width="1" fill="none" fill-rule="evenodd">
        <g transform="translate(1.000000, 1.000000)">
            <g stroke="#00C1DE" stroke-width="1.6">
                <rect fill="#FFFFFF" fill-rule="nonzero" x="0.6" y="0.6" width="38.4" height="38.4" rx="8"></rect>
                <rect x="0.6" y="0.6" width="38.4" height="38.4" rx="8"></rect>
            </g>
            <g transform="translate(6.500000, 9.500000)" fill="#00C1DE" fill-rule="nonzero">
                <path d="M27.16,12.15 L21.22,0.57 C21.12,0.4 21.01,0.28 20.89,0.19 C20.76,0.11 20.6,0.07 20.43,0.07 L7.21,0.07 C7.15,0.07 7.09,0.07 7.04,0.09 C6.98,0.09 6.94,0.11 6.9,0.13 C6.86,0.15 6.79,0.17 6.75,0.19 C6.71,0.21 6.67,0.26 6.63,0.3 C6.59,0.34 6.55,0.38 6.52,0.42 C6.48,0.46 6.46,0.51 6.42,0.57 L0.48,12.15 C0.4,12.23 0.36,12.36 0.36,12.53 L0.36,20.68 C0.36,20.93 0.44,21.14 0.61,21.28 C0.78,21.43 0.98,21.53 1.21,21.53 L26.35,21.53 C26.6,21.53 26.8,21.45 26.95,21.28 C27.12,21.12 27.2,20.91 27.2,20.68 L27.2,12.53 C27.24,12.46 27.24,12.4 27.24,12.34 C27.24,12.28 27.2,12.21 27.16,12.15 L27.16,12.15 Z M7.27,10.55 C7.73,10.3 7.98,10.07 8.06,9.91 C8.14,9.74 8.08,9.41 7.89,8.89 C7.85,8.8 7.83,8.7 7.83,8.57 L7.83,8.57 C7.83,8.26 7.94,8.01 8.16,7.78 C8.39,7.58 8.66,7.47 8.99,7.47 C9.14,7.47 9.31,7.49 9.56,7.56 C9.62,7.58 9.64,7.58 9.68,7.6 C9.83,7.64 9.95,7.68 10.05,7.7 C10.16,7.72 10.26,7.7 10.34,7.68 C10.43,7.64 10.51,7.62 10.55,7.6 C10.59,7.58 10.66,7.51 10.74,7.41 C10.82,7.31 10.86,7.22 10.88,7.2 C10.9,7.18 10.95,7.08 11.03,6.93 L11.09,6.81 C11.55,5.91 12.25,5.31 13.23,5 C14.18,4.69 15.14,4.73 16.05,5.16 C16.45,5.35 16.78,5.58 17.07,5.87 C17.36,6.16 17.59,6.47 17.75,6.83 C17.92,7.18 18.02,7.58 18.07,7.97 C18.09,8.28 18.13,8.51 18.19,8.66 C18.25,8.8 18.36,8.89 18.48,8.97 C18.61,9.05 18.85,9.12 19.23,9.2 C19.83,9.28 20.35,9.57 20.81,10.03 C21.24,10.49 21.49,11.01 21.55,11.59 L6.3,11.59 C6.34,11.51 6.4,11.4 6.46,11.3 C6.52,11.2 6.61,11.11 6.69,11.01 C6.77,10.92 6.86,10.82 6.96,10.74 C7.06,10.7 7.17,10.61 7.27,10.55 L7.27,10.55 Z M13.81,3.15 C12.9,3.23 12.09,3.52 11.34,4.02 C10.61,4.5 10.01,5.14 9.6,5.91 C9.47,5.87 9.26,5.85 8.99,5.85 C8.48,5.85 8,5.98 7.54,6.22 C7.11,6.47 6.75,6.81 6.5,7.22 C6.25,7.64 6.11,8.12 6.11,8.62 C6.11,8.68 6.11,8.76 6.13,8.85 C6.13,8.93 6.15,9.01 6.15,9.07 C6.15,9.16 6.17,9.22 6.17,9.3 C5.72,9.57 5.34,9.93 5.03,10.34 C4.74,10.76 4.55,11.24 4.45,11.76 L2.62,11.76 L7.69,1.84 L19.79,1.84 L24.92,11.76 L23.21,11.76 C23.15,10.8 22.8,9.95 22.15,9.2 C21.51,8.45 20.7,7.97 19.73,7.76 C19.54,6.33 18.88,5.16 17.73,4.27 C16.59,3.35 15.28,2.98 13.81,3.15 L13.81,3.15 Z M25.5,13.38 L25.5,19.81 L2.15,19.81 L2.15,13.38 L25.5,13.38 Z" id="Shape"></path>
            </g>
        </g>
    </g>
</svg>