<svg width="20px" height="20px" viewBox="0 0 41 41" xmlns="http://www.w3.org/2000/svg" xmlns:xlink="http://www.w3.org/1999/xlink">
    <g stroke="none" stroke-width="1" fill="none" fill-rule="evenodd">
        <g transform="translate(1.000000, 1.000000)">
            <g stroke="#00C1DE" stroke-width="1.6">
                <rect fill="#FFFFFF" fill-rule="nonzero" x="0.6" y="0.6" width="38.4" height="38.4" rx="8"></rect>
                <rect x="0.6" y="0.6" width="38.4" height="38.4" rx="8"></rect>
            </g>
            <g transform="translate(6.500000, 6.500000)" fill="#00C1DE" fill-rule="nonzero">
                <path d="M18.21,13.7 L9.1,13.7 C8.99,13.7 8.88,13.72 8.79,13.77 C8.7,13.81 8.63,13.9 8.57,13.99 C8.52,14.08 8.5,14.19 8.5,14.3 L8.5,20.17 C8.5,20.35 8.57,20.5 8.68,20.61 C8.79,20.72 8.94,20.79 9.12,20.79 L18.17,20.79 C18.35,20.79 18.5,20.72 18.61,20.61 C18.72,20.5 18.79,20.35 18.79,20.17 L18.79,14.3 C18.81,14.12 18.77,13.99 18.66,13.86 C18.5,13.77 18.37,13.7 18.21,13.7 L18.21,13.7 Z M14.43,18.04 L14.43,18.04 C14.43,18.18 14.41,18.29 14.36,18.38 C14.32,18.49 14.23,18.55 14.14,18.62 C14.05,18.69 13.94,18.71 13.83,18.71 C13.72,18.71 13.61,18.69 13.52,18.64 C13.43,18.6 13.37,18.51 13.3,18.42 C13.26,18.33 13.24,18.22 13.24,18.11 L13.24,18.04 C13.06,17.95 12.9,17.8 12.79,17.62 C12.68,17.42 12.62,17.22 12.62,17 C12.62,16.67 12.73,16.38 12.97,16.14 C13.21,15.89 13.5,15.78 13.83,15.78 C13.99,15.78 14.17,15.81 14.3,15.87 C14.45,15.94 14.59,16.03 14.7,16.14 C14.81,16.25 14.9,16.38 14.96,16.54 C15.03,16.69 15.05,16.85 15.05,17 C15.03,17.51 14.83,17.84 14.43,18.04 L14.43,18.04 Z M27.24,13.21 C27.17,11.46 26.75,9.78 26.02,8.18 C25.29,6.59 24.32,5.24 23.13,4.08 C21.93,2.93 20.51,2.02 18.9,1.36 C17.28,0.69 15.58,0.36 13.81,0.36 C11.44,0.36 9.25,0.94 7.22,2.07 C5.18,3.2 3.57,4.75 2.35,6.72 C1.13,8.69 0.47,10.84 0.36,13.19 L0.36,14.1 C0.4,15.89 0.78,17.6 1.51,19.22 C2.24,20.84 3.19,22.23 4.39,23.41 C5.58,24.58 7,25.51 8.63,26.2 C10.27,26.89 12,27.24 13.79,27.24 C15.23,27.24 16.62,27.02 17.97,26.58 C19.32,26.13 20.54,25.51 21.64,24.69 C22.73,23.87 23.7,22.94 24.52,21.86 C25.36,20.77 26,19.57 26.47,18.22 C26.93,16.89 27.2,15.5 27.22,14.05 L27.24,13.21 L27.24,13.21 Z M22.35,6.92 C21.42,7.67 20.16,8.27 18.63,8.69 C18.3,7.45 17.86,6.32 17.31,5.32 C16.75,4.33 16.16,3.55 15.51,3 C15.98,3.06 16.42,3.17 16.86,3.29 C17.31,3.4 17.73,3.55 18.15,3.73 C18.57,3.91 18.97,4.11 19.34,4.33 C19.72,4.55 20.09,4.79 20.45,5.06 C20.8,5.32 21.13,5.61 21.47,5.92 C21.78,6.25 22.09,6.56 22.35,6.92 L22.35,6.92 Z M12.11,3 C11.49,3.55 10.91,4.33 10.36,5.32 C9.81,6.32 9.39,7.41 9.05,8.63 C7.57,8.2 6.36,7.63 5.38,6.85 C6.2,5.81 7.2,4.97 8.35,4.3 C9.5,3.66 10.76,3.22 12.11,3 L12.11,3 Z M22.79,20.13 C22.64,19.99 22.46,19.86 22.24,19.71 C22.02,19.55 21.84,19.44 21.71,19.35 C21.55,19.26 21.36,19.13 21.09,18.97 C20.67,18.77 20.38,18.8 20.23,19.06 C20.12,19.35 20.23,19.57 20.6,19.77 C20.87,19.88 21.13,20.04 21.4,20.22 C21.66,20.39 21.95,20.59 22.24,20.81 C21.64,21.52 20.98,22.17 20.25,22.7 C19.52,23.23 18.7,23.67 17.84,24 C16.97,24.34 16.05,24.56 15.12,24.67 C15.78,24.2 16.4,23.49 16.95,22.59 C17.04,22.34 16.95,22.19 16.69,22.1 C16.38,22.05 16.11,22.19 15.91,22.52 C15.14,23.63 14.43,24.18 13.77,24.18 C13.1,24.18 12.42,23.65 11.69,22.59 C11.36,22.08 11.02,21.92 10.74,22.14 C10.6,22.28 10.56,22.41 10.58,22.59 C11.11,23.41 11.71,24.09 12.35,24.6 C10.98,24.49 9.7,24.09 8.5,23.45 C7.31,22.81 6.27,21.94 5.4,20.88 C6.02,20.41 6.55,20.06 7.06,19.84 C7.31,19.71 7.44,19.55 7.46,19.35 C7.48,19.15 7.4,19.04 7.22,18.97 C7.04,18.91 6.82,18.93 6.55,19.06 C6.4,19.15 6.27,19.22 6.13,19.31 C6,19.4 5.87,19.46 5.71,19.57 C5.56,19.66 5.43,19.77 5.27,19.86 C5.12,19.97 4.98,20.06 4.85,20.17 C4.23,19.31 3.77,18.38 3.44,17.36 C3.1,16.34 2.93,15.27 2.88,14.17 L6.67,14.17 C6.8,14.17 6.91,14.12 7,14.03 C7.09,13.94 7.15,13.83 7.15,13.68 C7.15,13.35 7,13.19 6.67,13.19 L2.88,13.19 C3.01,11.09 3.66,9.18 4.83,7.5 C5.78,8.34 7.09,8.98 8.79,9.45 C8.63,10.27 8.52,10.89 8.48,11.35 C8.48,11.62 8.63,11.77 8.94,11.77 C9.25,11.77 9.41,11.64 9.41,11.35 C9.65,9.25 10.23,7.38 11.16,5.7 C12.09,4.02 12.97,3.2 13.81,3.2 C14.65,3.2 15.54,4.04 16.47,5.72 C17.4,7.41 17.99,9.31 18.26,11.46 C18.28,11.64 18.37,11.75 18.52,11.82 C18.68,11.88 18.83,11.88 18.99,11.79 C19.14,11.73 19.19,11.62 19.19,11.46 C19.19,11.37 19.16,11.26 19.14,11.15 C19.12,11.04 19.12,10.95 19.1,10.84 C19.08,10.73 19.05,10.64 19.05,10.55 C19.05,10.46 19.01,10.35 18.99,10.24 C18.97,10.11 18.94,10.02 18.92,9.96 C18.9,9.89 18.88,9.78 18.86,9.65 C20.58,9.2 21.93,8.54 22.88,7.69 C24.01,9.33 24.65,11.2 24.78,13.26 L21,13.26 C20.91,13.26 20.85,13.28 20.76,13.32 C20.69,13.37 20.63,13.41 20.58,13.5 C20.54,13.59 20.51,13.66 20.51,13.77 C20.51,13.83 20.54,13.92 20.56,13.97 C20.58,14.03 20.6,14.08 20.65,14.12 C20.69,14.17 20.74,14.19 20.8,14.21 C20.87,14.23 20.93,14.25 21,14.25 L24.78,14.25 C24.74,16.36 24.08,18.33 22.79,20.13 L22.79,20.13 Z M13.81,8.2 C13.48,8.2 13.15,8.25 12.84,8.36 C12.53,8.47 12.24,8.6 12,8.8 C11.75,8.98 11.53,9.2 11.33,9.47 C11.16,9.71 11,10 10.89,10.31 C10.78,10.62 10.74,10.95 10.74,11.28 L10.74,12.19 L11.95,12.19 L11.95,11.28 C11.95,11.04 12,10.82 12.09,10.58 C12.17,10.33 12.31,10.15 12.46,10 C12.62,9.82 12.82,9.69 13.04,9.6 C13.26,9.49 13.5,9.45 13.77,9.45 C14.28,9.45 14.72,9.62 15.07,9.98 C15.43,10.33 15.6,10.78 15.6,11.28 L15.6,15.56 L16.82,15.56 L16.82,11.28 C16.82,10.42 16.53,9.71 15.93,9.11 C15.38,8.49 14.67,8.2 13.81,8.2 L13.81,8.2 Z" id="Shape"></path>
            </g>
        </g>
    </g>
</svg>