<svg xmlns="http://www.w3.org/2000/svg" xmlns:xlink="http://www.w3.org/1999/xlink" x="0" y="0" width="20px" height="20px" viewBox="85 80 140 140" style="enable-background:new 0 0 288 288;" xml:space="preserve">
<g>
<g>
<g>
<path fill="#F80000" d="M124.1,148.1c0-1.3-1.1-2.4-2.4-2.4H78c-1.3,0-2.4,1.1-2.4,2.4v13.6h48.6V148.1z M117.3,156.5     c-1.4,0-2.6-1.2-2.6-2.6c0-1.4,1.2-2.6,2.6-2.6c1.4,0,2.6,1.2,2.6,2.6C119.9,155.4,118.8,156.5,117.3,156.5z"></path>
<path fill="#F80000" d="M75.6,166.3v16h48.6v-16H75.6z M117.3,177.2c-1.4,0-2.6-1.2-2.6-2.6c0-1.4,1.2-2.6,2.6-2.6     c1.4,0,2.6,1.2,2.6,2.6C119.9,176.1,118.8,177.2,117.3,177.2z"></path>
</g>
<path fill="#F80000" d="M75.6,200.5c0,1.3,1.1,2.4,2.4,2.4h43.7c1.3,0,2.4-1.1,2.4-2.4v-13.6H75.6V200.5z M117.3,192.1    c1.4,0,2.6,1.2,2.6,2.6c0,1.4-1.2,2.6-2.6,2.6c-1.4,0-2.6-1.2-2.6-2.6C114.7,193.3,115.9,192.1,117.3,192.1z"></path>
<g>
<g>
<path fill="#F80000" d="M199.5,99.6c-0.4,0-0.8,0-1.2,0.1c-1.6-5.2-6.5-9-12.3-9c-1.5,0-2.9,0.3-4.2,0.7c-2.6-3.8-7-6.3-12-6.3      c-6.9,0-12.7,4.8-14.2,11.2c-0.1,0-0.3,0-0.4,0c-8,0-14.6,6.5-14.6,14.6c0,8,6.5,14.6,14.6,14.6h44.3c7.1,0,12.9-5.8,12.9-12.9      C212.4,105.4,206.6,99.6,199.5,99.6z"></path>
</g>
<g>
<g>
<path fill="#F80000" d="M128.1,147.2l-3.4-4l3.2-2.7l3.4,4L128.1,147.2z M134.5,141.8l-3.4-4l3.2-2.7l3.4,4L134.5,141.8z        M140.8,136.5l-3.4-4l3.2-2.7l3.4,4L140.8,136.5z M147.2,131.1l-3.4-4l3.2-2.7l3.4,4L147.2,131.1z"></path>
</g>
</g>
</g>
</g>
</g>
</svg>