<svg xmlns="http://www.w3.org/2000/svg" x="0" y="0" width="20px" height="20px" viewBox="-10.5 -9.5 50 50">
<g>
<title></title>
<path fill="#0072c6" d="M 34.492 35.865 h 2 V -9.5 h -41 C -5.801 -9.333 -8.5 -6.2 -8.5 -5.749 l 0.059 43.882 A 2.368 2.368 0 0 0 -6.073 40.5 h 37.565 v -0.729 l 3 -3.906 Z"></path>
<path fill="#e5e5e5" d="M -2.726 -7.5 c -1.105 0 -1.58 0.185 -2.507 1 c -2.275 2 0.39 2 1.495 2 h 35.23 v 44.271 l 3 -3.906 V -7.5 H -2.726 Z"></path>
<path opacity="0.5" fill="#a0a1a2" d="M 31.492 39.771 l 3 -3.906 V -7.5 l -3 3 Z"></path>
<path fill="#ffffff" d="M 22.492 10.5 a 2 2 0 0 1 -2 2 h -17 a 2 2 0 0 1 -2 -2 v -5 a 2 2 0 0 1 2 -2 h 17 a 2 2 0 0 1 2 2 v 5 Z"></path>
</g>
</svg>