<svg xmlns="http://www.w3.org/2000/svg" x="0" y="0" width="20px" height="20px" viewBox="0 0 48 48">
<linearGradient id="D692A89B-481E-44FD-805B-DB77535CB9D8" x1="12" x2="44" y1="24" y2="24" gradientUnits="userSpaceOnUse">
<stop offset="0" stop-color="#c965eb"></stop>
<stop offset="1" stop-color="#c767e5"></stop>
</linearGradient>
<path fill="url(#D692A89B-481E-44FD-805B-DB77535CB9D8)" d="M42,6H14c-1.105,0-2,0.895-2,2v32c0,1.105,0.895,2,2,2h21V15.003h9V8C44,6.895,43.105,6,42,6z"></path>
<linearGradient id="97A30F9F-26B3-414E-817C-F0989634ABD5" x1="39.5" x2="39.5" y1="42" y2="33.054" gradientUnits="userSpaceOnUse">
<stop offset="0" stop-color="#7819a2"></stop>
<stop offset="1" stop-color="#771aa9"></stop>
</linearGradient>
<path fill="url(#97A30F9F-26B3-414E-817C-F0989634ABD5)" d="M35,33.054V42h7c1.105,0,2-0.895,2-2v-6.945L35,33.054L35,33.054z"></path>
<linearGradient id="62BA17BF-5446-4062-8A99-E1427A1AC50A" x1="35" x2="44" y1="19.504" y2="19.504" gradientUnits="userSpaceOnUse">
<stop offset="0" stop-color="#ae4cd5"></stop>
<stop offset="1" stop-color="#ac4ad5"></stop>
</linearGradient>
<path fill="url(#62BA17BF-5446-4062-8A99-E1427A1AC50A)" d="M35,15.003h9v9.002h-9V15.003z"></path>
<linearGradient id="83AC3EC1-873B-4CFA-B91E-71C5C4D4F7F3" x1="35" x2="44" y1="28.53" y2="28.53" gradientUnits="userSpaceOnUse">
<stop offset="0" stop-color="#912fbd"></stop>
<stop offset="1" stop-color="#9332bf"></stop>
</linearGradient>
<path fill="url(#83AC3EC1-873B-4CFA-B91E-71C5C4D4F7F3)" d="M35,24.005h9v9.05h-9V24.005z"></path>
<path d="M22.319,13H12v24h10.319C24.352,37,26,35.352,26,33.319V16.681C26,14.648,24.352,13,22.319,13z" opacity=".05"></path>
<path d="M22.213,36H12V13.333h10.213c1.724,0,3.121,1.397,3.121,3.121v16.425 C25.333,34.603,23.936,36,22.213,36z" opacity=".07"></path>
<path d="M22.106,35H12V13.667h10.106c1.414,0,2.56,1.146,2.56,2.56V32.44C24.667,33.854,23.52,35,22.106,35z" opacity=".09"></path>
<linearGradient id="A2829530-3DB1-4A78-A908-C60A5D0AB6A3" x1="4.586" x2="23.414" y1="14.586" y2="33.414" gradientUnits="userSpaceOnUse">
<stop offset="0" stop-color="#8521b0"></stop>
<stop offset="1" stop-color="#64129a"></stop>
</linearGradient>
<path fill="url(#A2829530-3DB1-4A78-A908-C60A5D0AB6A3)" d="M22,34H6c-1.105,0-2-0.895-2-2V16c0-1.105,0.895-2,2-2h16c1.105,0,2,0.895,2,2v16 C24,33.105,23.105,34,22,34z"></path>
<path fill="#fff" d="M16.501,19v7.393L11.779,19H9.59v10h1.909v-7.45L16.258,29h2.152V19H16.501z"></path>
</svg>