<svg x="0" y="0" width="20px" height="20px" viewBox="0 0 70 52">
<path fill-rule="evenodd" clip-rule="evenodd" d="M61.6423 0H7.71595C3.46182 0 0 3.41255 0 7.63301V30.2426H3.05956V7.63301C3.05956 5.08867 5.14397 3.02667 7.71595 3.02667H61.6423C64.2142 3.02667 66.2986 5.08867 66.2986 7.63301V36.5733C66.2986 39.1177 64.2142 41.1917 61.6423 41.1917H36.7147V44.2063H61.6423C65.9086 44.2063 69.3582 40.7938 69.3582 36.5733V7.63301C69.3582 3.41255 65.9086 0 61.6423 0Z" fill="#0066FF"></path>
<path fill-rule="evenodd" clip-rule="evenodd" d="M50.2197 26.6762H38.9551C37.6452 26.6762 36.5846 25.6145 36.5846 24.3059V20.4231H32.8896C32.7351 20.4291 31.8066 20.5022 31.5328 21.3441C30.8477 23.4532 25.574 39.766 25.215 40.8772C24.839 42.338 23.3995 44.9685 20.4682 44.9685H16.0057V48.6956C16.0057 50.0042 14.9451 51.0659 13.6352 51.0659H2.37056C1.06061 51.0659 0 50.0042 0 48.6956V37.4306C0 36.1219 1.06061 35.0602 2.37056 35.0602H13.6352C14.9451 35.0602 16.0057 36.1219 16.0057 37.4306V41.3134H20.4682C21.3066 41.3134 21.6814 39.9634 21.685 39.95L21.7227 39.8111C21.7227 39.8111 27.3518 22.3956 28.0624 20.2135C28.9458 17.4941 31.5134 16.7679 32.8896 16.7679H36.5846V13.0421C36.5846 11.7322 37.6452 10.6705 38.9551 10.6705H50.2197C51.5297 10.6705 52.5903 11.7322 52.5903 13.0421V24.3059C52.5903 25.6145 51.5297 26.6762 50.2197 26.6762ZM12.1949 47.255H3.81089V38.8711H12.1949V47.255Z" fill="#0066FF"></path>
</svg>