<svg xmlns="http://www.w3.org/2000/svg" xmlns:xlink="http://www.w3.org/1999/xlink" x="0" y="0" width="20px" height="20px" viewBox="0 0 49.8 52.9">
<rect x="-10.1" y="-7.8" width="70" height="70" style="fill:none"/>
<g>
<path d="M30.8,0.8c1.9-0.7,4-0.6,5.7,0.3l9.1,4.6c2.3,1.2,3.8,3.5,3.8,6v29.9c0,2.5-1.5,4.8-3.8,6L36.5,52 c-1.8,0.9-3.9,1-5.7,0.3L5,42.8c-2.7-1-4.5-3.5-4.5-6.3V16.6c0-2.8,1.8-5.3,4.5-6.3L30.8,0.8z" style="fill:#fff"/>
</g>
<path d="M44.6,7.7l-9.1-4.6c-1.2-0.6-2.6-0.7-3.9-0.2L5.8,12.5c-1.8,0.7-3,2.3-3,4.1v19.9c0,1.8,1.1,3.4,3,4.1l25.8,9.6 c1.3,0.5,2.7,0.4,3.9-0.2l9.1-4.6c1.6-0.8,2.5-2.3,2.5-3.9V11.6C47.1,10,46.2,8.5,44.6,7.7z M36.5,1.1c-1.8-0.9-3.9-1-5.7-0.3 L5,10.4c-2.7,1-4.5,3.5-4.5,6.3v19.9c0,2.8,1.8,5.3,4.5,6.3l25.8,9.6c1.9,0.7,4,0.6,5.7-0.3l9.1-4.6c2.3-1.2,3.8-3.5,3.8-6V11.6 c0-2.5-1.5-4.8-3.8-6L36.5,1.1z" style="fill-rule:evenodd;clip-rule:evenodd;fill:#854cc7"/>
<path d="M12.3,36.5c-0.4,0.4-1,0.4-1.4,0.2l-2.5-1.1c-0.5-0.2-0.9-0.8-0.9-1.3V18.9c0-0.6,0.3-1.1,0.9-1.3l2.5-1.1 c0.5-0.2,1-0.1,1.4,0.2l0.6,0.5c-0.5-0.4-1.2,0-1.2,0.6v17.5c0,0.7,0.7,1,1.2,0.7L12.3,36.5z" style="fill:#52218a"/>
<g>
<path d="M8.4,35.6c-0.5-0.2-0.9-0.8-0.9-1.3v-0.1c0,0.8,0.9,1.1,1.5,0.6l22.6-25c0.7-0.7,1.7-0.8,2.5-0.4l7.2,3.5 c0.8,0.4,1.2,1.1,1.2,2v0.1c0-1.2-1.4-1.8-2.3-1.1l-27,22.2l-0.6,0.5c-0.4,0.4-1,0.5-1.5,0.2L8.4,35.6z" style="fill:#6c33af"/>
</g>
<g>
<path d="M8.4,17.5c-0.5,0.2-0.9,0.8-0.9,1.3V19c0-0.8,0.9-1.1,1.5-0.6l22.6,25c0.7,0.7,1.7,0.8,2.5,0.4l7.2-3.5 c0.8-0.4,1.2-1.1,1.2-2v-0.1c0,1.2-1.4,1.8-2.3,1.1l-27-22.2l-0.6-0.5c-0.4-0.4-1-0.5-1.5-0.2L8.4,17.5z" style="fill:#854cc7"/>
</g>
<g>
<path d="M34,43.8c-0.8,0.4-1.8,0.2-2.5-0.4c0.8,0.8,2.2,0.2,2.2-0.9V10.6c0-1.1-1.4-1.7-2.2-0.9 c0.7-0.7,1.6-0.8,2.5-0.4l7.1,3.5c0.8,0.4,1.2,1.1,1.2,2v23.6c0,0.8-0.5,1.6-1.2,2L34,43.8z" style="fill:#b179f1"/>
</g>
<g style="opacity:.25">
<linearGradient id="SVGID_1_E88A816D-810C-4FED-B506-4F39C798565E" gradientUnits="userSpaceOnUse" x1="24.94" y1="-87.3515" x2="24.94" y2="-141.043" gradientTransform="matrix(1 0 0 -1 0 -87.638)">
<stop offset="0" style="stop-color:#fff"/>
<stop offset="1" style="stop-color:#fff;stop-opacity:0"/>
</linearGradient>
<path d="M30.8,0.8c1.9-0.7,4-0.6,5.7,0.3l9.1,4.6c2.3,1.2,3.8,3.5,3.8,6v29.9c0,2.5-1.5,4.8-3.8,6L36.5,52 c-1.8,0.9-3.9,1-5.7,0.3L5,42.8c-2.7-1-4.5-3.5-4.5-6.3V16.6c0-2.8,1.8-5.3,4.5-6.3L30.8,0.8z" style="fill:url(#SVGID_1_E88A816D-810C-4FED-B506-4F39C798565E)"/>
</g>
</svg>