<svg xmlns="http://www.w3.org/2000/svg" x="0" y="0" width="20px" height="20px" viewBox="0 0 48 48">
<linearGradient id="38C23353-33C6-4845-8D41-BE8010B499B9" x1="28" x2="28" y1="14.966" y2="6.45" gradientUnits="userSpaceOnUse">
<stop offset="0" stop-color="#42a3f2"></stop>
<stop offset="1" stop-color="#42a4eb"></stop>
</linearGradient>
<path fill="url(#38C23353-33C6-4845-8D41-BE8010B499B9)" d="M42,6H14c-1.105,0-2,0.895-2,2v7.003h32V8C44,6.895,43.105,6,42,6z"></path>
<linearGradient id="BAB70C50-9D63-40AA-8744-BB6ECADB437E" x1="28" x2="28" y1="42" y2="33.054" gradientUnits="userSpaceOnUse">
<stop offset="0" stop-color="#11408a"></stop>
<stop offset="1" stop-color="#103f8f"></stop>
</linearGradient>
<path fill="url(#BAB70C50-9D63-40AA-8744-BB6ECADB437E)" d="M12,33.054V40c0,1.105,0.895,2,2,2h28c1.105,0,2-0.895,2-2v-6.946H12z"></path>
<linearGradient id="5652AC98-ACF6-4853-9925-C8401B1C58BF" x1="28" x2="28" y1="-15.46" y2="-15.521" gradientUnits="userSpaceOnUse">
<stop offset="0" stop-color="#3079d6"></stop>
<stop offset="1" stop-color="#297cd2"></stop>
</linearGradient>
<path fill="url(#5652AC98-ACF6-4853-9925-C8401B1C58BF)" d="M12,15.003h32v9.002H12V15.003z"></path>
<linearGradient id="AEEE69E4-D6ED-447B-B24A-008E538A2BC6" x1="12" x2="44" y1="28.53" y2="28.53" gradientUnits="userSpaceOnUse">
<stop offset="0" stop-color="#1d59b3"></stop>
<stop offset="1" stop-color="#195bbc"></stop>
</linearGradient>
<path fill="url(#AEEE69E4-D6ED-447B-B24A-008E538A2BC6)" d="M12,24.005h32v9.05H12V24.005z"></path>
<path d="M22.319,13H12v24h10.319C24.352,37,26,35.352,26,33.319V16.681C26,14.648,24.352,13,22.319,13z" opacity=".05"></path>
<path d="M22.213,36H12V13.333h10.213c1.724,0,3.121,1.397,3.121,3.121v16.425 C25.333,34.603,23.936,36,22.213,36z" opacity=".07"></path>
<path d="M22.106,35H12V13.667h10.106c1.414,0,2.56,1.146,2.56,2.56V32.44C24.667,33.854,23.52,35,22.106,35z" opacity=".09"></path>
<linearGradient id="2552E9CA-E00F-427F-83ED-468A4228031C" x1="4.744" x2="23.494" y1="14.744" y2="33.493" gradientUnits="userSpaceOnUse">
<stop offset="0" stop-color="#256ac2"></stop>
<stop offset="1" stop-color="#1247ad"></stop>
</linearGradient>
<path fill="url(#2552E9CA-E00F-427F-83ED-468A4228031C)" d="M22,34H6c-1.105,0-2-0.895-2-2V16c0-1.105,0.895-2,2-2h16c1.105,0,2,0.895,2,2v16 C24,33.105,23.105,34,22,34z"></path>
<path fill="#fff" d="M18.403,19l-1.546,7.264L15.144,19h-2.187l-1.767,7.489L9.597,19H7.641l2.344,10h2.352l1.713-7.689 L15.764,29h2.251l2.344-10H18.403z"></path>
</svg>
