<svg xmlns="http://www.w3.org/2000/svg" xmlns:xlink="http://www.w3.org/1999/xlink" x="0" y="0" width="20px" height="20px" viewBox="85 80 140 140" xml:space="preserve">
<g>
<path fill="#F80000" d="M194.6,81.8H93.4c-3.5,0-6.3,2.8-6.3,6.3v111.8c0,3.5,2.8,6.3,6.3,6.3h101.1c3.5,0,6.3-2.8,6.3-6.3V88.1   C200.9,84.7,198,81.8,194.6,81.8z M105.1,114.4v-0.8V107c0-1.5,1.2-2.7,2.7-2.7H139c1.5,0,2.7,1.2,2.7,2.7v6.6v0.8v10.7   c0,1.5-1.2,2.7-2.7,2.7h-31.2c-1.5,0-2.7-1.2-2.7-2.7V114.4z M105.1,142.4v-0.8V135c0-1.5,1.2-2.7,2.7-2.7H139   c1.5,0,2.7,1.2,2.7,2.7v6.6v0.8v10.7c0,1.5-1.2,2.7-2.7,2.7h-31.2c-1.5,0-2.7-1.2-2.7-2.7V142.4z M182.9,180.1   c0,1.9-1.6,3.5-3.5,3.5h-70.7c-1.9,0-3.5-1.6-3.5-3.5v-19.6h77.8V180.1z M182.9,141.6v0.8v10.7c0,1.5-1.2,2.7-2.7,2.7H149   c-1.5,0-2.7-1.2-2.7-2.7v-10.7v-0.8V135c0-1.5,1.2-2.7,2.7-2.7h31.2c1.5,0,2.7,1.2,2.7,2.7V141.6z M182.9,113.6v0.8v10.7   c0,1.5-1.2,2.7-2.7,2.7H149c-1.5,0-2.7-1.2-2.7-2.7v-10.7v-0.8V107c0-1.5,1.2-2.7,2.7-2.7h31.2c1.5,0,2.7,1.2,2.7,2.7V113.6z"></path>
<circle fill="#F80000" cx="173" cy="171.8" r="3.8"></circle>
<rect x="110.6" y="109.5" fill="#F80000" width="3.5" height="12.8"></rect>
<rect x="118" y="109.5" fill="#F80000" width="3.5" height="12.8"></rect>
<rect x="125.3" y="109.5" fill="#F80000" width="3.5" height="12.8"></rect>
<rect x="132.6" y="109.5" fill="#F80000" width="3.5" height="12.8"></rect>
<rect x="151.9" y="109.5" fill="#F80000" width="3.5" height="12.8"></rect>
<rect x="159.2" y="109.5" fill="#F80000" width="3.5" height="12.8"></rect>
<rect x="166.5" y="109.5" fill="#F80000" width="3.5" height="12.8"></rect>
<rect x="173.9" y="109.5" fill="#F80000" width="3.5" height="12.8"></rect>
<rect x="110.6" y="137.4" fill="#F80000" width="3.5" height="12.8"></rect>
<rect x="118" y="137.4" fill="#F80000" width="3.5" height="12.8"></rect>
<rect x="125.3" y="137.4" fill="#F80000" width="3.5" height="12.8"></rect>
<rect x="132.6" y="137.4" fill="#F80000" width="3.5" height="12.8"></rect>
<rect x="151.9" y="137.4" fill="#F80000" width="3.5" height="12.8"></rect>
<rect x="159.2" y="137.4" fill="#F80000" width="3.5" height="12.8"></rect>
<rect x="166.5" y="137.4" fill="#F80000" width="3.5" height="12.8"></rect>
<rect x="173.9" y="137.4" fill="#F80000" width="3.5" height="12.8"></rect>
</g>
</svg>