<svg xmlns="http://www.w3.org/2000/svg" xmlns:xlink="http://www.w3.org/1999/xlink" x="0" y="0" width="20px" height="20px" viewBox="0 0 161.9 162" xml:space="preserve">
<path fill="#312D2A" d="M129.6,128.1h-19.2v-19.2h19.2V128.1z M94.1,108.9H74.9v19.2h19.2V108.9z M63.2,104.4H27.6v28.2h35.6V104.4z M36.6,113.4h17.6v10.2H36.6V113.4z M129.6,71.3h-19.2v19.2h19.2V71.3z M97.7,66.8H27.6V95h70.1V66.8z M36.6,75.8h52.1V86H36.6V75.8 z M134.1,29.3H27.6v28.2h106.5V29.3z M36.6,38.3h88.5v10.2H36.6V38.3z M152.8,9.2H9v143.6h143.8V9.2z M18,18.2h125.8v125.6H18V18.2z "></path>
</svg>