<svg width="20px" height="20px" viewBox="0 0 41 41" xmlns="http://www.w3.org/2000/svg" xmlns:xlink="http://www.w3.org/1999/xlink">
    <g stroke="none" stroke-width="1" fill="none" fill-rule="evenodd">
        <g transform="translate(1.000000, 1.000000)">
            <g stroke="#00C1DE" stroke-width="1.6">
                <rect fill="#FFFFFF" fill-rule="nonzero" x="0.6" y="0.6" width="38.4" height="38.4" rx="8"></rect>
                <rect x="0.6" y="0.6" width="38.4" height="38.4" rx="8"></rect>
            </g>
            <g transform="translate(10.500000, 6.500000)" fill="#00C1DE" fill-rule="nonzero">
                <path d="M16.53,16.24 C16.28,16.24 16.06,16.26 15.81,16.32 C15.59,16.38 15.36,16.46 15.16,16.57 C14.95,16.67 14.75,16.81 14.59,16.95 C14.4,17.1 14.24,17.26 14.08,17.46 L10.71,15.5 C10.91,14.89 11.01,14.32 11.01,13.79 C11.01,13.36 10.97,12.95 10.87,12.57 C10.77,12.18 10.65,11.81 10.46,11.48 L14.32,9.28 C14.5,9.46 14.71,9.63 14.93,9.77 C15.16,9.91 15.4,10.01 15.67,10.1 C15.93,10.18 16.2,10.22 16.44,10.22 C17.02,10.22 17.53,10.08 18,9.81 C18.46,9.54 18.83,9.18 19.1,8.71 C19.36,8.24 19.51,7.73 19.51,7.16 C19.51,6.59 19.36,6.07 19.1,5.61 C18.83,5.14 18.46,4.77 18,4.5 C17.53,4.24 17.02,4.1 16.44,4.1 C16.1,4.1 15.79,4.14 15.46,4.24 C15.16,4.34 14.87,4.48 14.63,4.67 C14.38,4.85 14.16,5.07 13.97,5.32 C13.79,5.56 13.65,5.85 13.55,6.16 C13.44,6.46 13.4,6.79 13.4,7.14 C13.4,7.24 13.4,7.36 13.42,7.46 C13.44,7.56 13.46,7.71 13.5,7.87 L9.57,10.18 C8.5,9.05 7.24,8.46 5.77,8.4 L5.77,6.38 C6.1,6.28 6.38,6.12 6.65,5.93 C6.91,5.73 7.16,5.5 7.34,5.26 C7.54,4.99 7.69,4.71 7.79,4.4 C7.89,4.07 7.95,3.75 7.95,3.4 C7.95,2.54 7.67,1.83 7.08,1.24 C6.48,0.65 5.77,0.36 4.91,0.36 C4.05,0.36 3.34,0.65 2.75,1.24 C2.16,1.83 1.87,2.54 1.87,3.4 C1.87,4.1 2.09,4.73 2.52,5.28 C2.95,5.83 3.5,6.18 4.14,6.34 L4.14,8.48 C3.36,8.69 2.67,9.03 2.05,9.54 C1.44,10.05 0.95,10.69 0.58,11.42 C0.22,12.16 0.05,12.95 0.05,13.79 C0.05,14.22 0.09,14.63 0.2,15.03 C0.3,15.44 0.42,15.83 0.6,16.18 C0.79,16.52 0.99,16.87 1.24,17.18 C1.48,17.48 1.77,17.77 2.05,18.04 C2.36,18.28 2.69,18.5 3.03,18.69 C3.38,18.87 3.77,19.01 4.14,19.12 L4.14,21.26 C3.48,21.42 2.95,21.77 2.52,22.32 C2.09,22.87 1.87,23.5 1.87,24.2 C1.87,25.06 2.16,25.77 2.75,26.36 C3.34,26.95 4.05,27.24 4.91,27.24 C5.77,27.24 6.48,26.95 7.08,26.36 C7.67,25.77 7.95,25.06 7.95,24.2 C7.95,23.5 7.75,22.89 7.34,22.34 C6.93,21.81 6.4,21.44 5.75,21.26 L5.75,19.3 C6.63,19.28 7.42,19.06 8.16,18.63 C8.89,18.22 9.5,17.67 9.97,16.97 L13.46,18.99 C13.46,19.04 13.46,19.08 13.44,19.14 C13.42,19.2 13.42,19.24 13.42,19.28 C13.42,19.71 13.5,20.1 13.67,20.48 C13.83,20.87 14.04,21.18 14.32,21.46 C14.61,21.75 14.91,21.95 15.3,22.12 C15.69,22.28 16.08,22.36 16.51,22.36 C17.36,22.36 18.08,22.08 18.67,21.48 C19.26,20.89 19.55,20.18 19.55,19.32 C19.55,18.89 19.46,18.5 19.32,18.12 C19.18,17.75 18.95,17.42 18.69,17.14 C18.42,16.87 18.1,16.65 17.73,16.48 C17.36,16.32 16.95,16.24 16.53,16.24 L16.53,16.24 Z"></path>
            </g>
        </g>
    </g>
</svg>