<svg width="20px" height="20px" viewBox="0 0 41 41" xmlns="http://www.w3.org/2000/svg" xmlns:xlink="http://www.w3.org/1999/xlink">
    <g stroke="none" stroke-width="1" fill="none" fill-rule="evenodd">
        <g transform="translate(1.000000, 1.000000)">
            <g stroke="#00C1DE" stroke-width="1.6">
                <rect fill="#FFFFFF" fill-rule="nonzero" x="0.6" y="0.6" width="38.4" height="38.4" rx="8"></rect>
                <rect x="0.6" y="0.6" width="38.4" height="38.4" rx="8"></rect>
            </g>
            <g transform="translate(6.500000, 6.500000)" fill="#00C1DE" fill-rule="nonzero">
                <path d="M13.11,9.7 L13.11,11.65 L7.53,14.73 L1.96,11.65 L1.96,5.26 L7.53,2.06 L13.11,5.26 L13.11,6.92 L14.49,6.92 L14.49,4.42 L7.53,0.38 L0.57,4.4 L0.57,12.47 L7.53,16.51 L14.49,12.47 L14.49,9.7 L13.11,9.7 L13.11,9.7 Z M20.07,0.36 L13.11,4.4 L13.11,12.47 L15.34,13.74 L16.03,12.47 L14.49,11.63 L14.49,5.24 L20.07,2.04 L25.64,5.24 L25.64,11.63 L20.07,14.7 L18.68,13.86 L17.84,15.25 L20.07,16.51 L27.03,12.47 L27.03,4.4 L20.07,0.36 Z M13.8,11.09 L11.57,12.47 L12.41,13.74 L13.8,12.9 L19.23,16.09 L19.23,22.36 L13.8,25.56 L8.37,22.36 L8.37,16.09 L9.76,15.25 L9.07,13.86 L6.84,15.13 L6.84,23.2 L13.8,27.24 L20.76,23.2 L20.76,15.13 L13.8,11.09 Z M9.07,15.55 L7.41,12.47 L11.3,10.25 L12.96,13.32 L11.7,14.16 L10.73,12.35 L9.47,13.04 L10.44,14.85 L9.07,15.55 Z M16.58,10.67 L13.11,10.67 L13.11,9.13 L15.19,9.13 L15.19,7.74 L13.11,7.74 L13.11,6.21 L16.58,6.21 L16.58,10.67 Z M17.42,17.35 L13.65,15.13 L15.31,12.05 L16.7,12.75 L15.73,14.56 L16.85,15.25 L17.96,13.59 L19.23,14.28 L17.42,17.35 Z M7.53,10.54 C6.99,10.54 6.48,10.33 6.08,9.91 C5.66,9.49 5.45,9 5.45,8.46 C5.45,7.91 5.66,7.41 6.08,7.01 C6.5,6.59 6.99,6.38 7.53,6.38 C7.89,6.38 8.25,6.48 8.56,6.67 C8.88,6.86 9.15,7.11 9.34,7.45 C9.53,7.76 9.64,8.12 9.64,8.48 C9.64,8.84 9.53,9.19 9.34,9.51 C9.15,9.82 8.9,10.1 8.56,10.29 C8.25,10.43 7.91,10.54 7.53,10.54 L7.53,10.54 Z M7.53,7.62 C7.32,7.62 7.13,7.7 6.97,7.87 C6.8,8.04 6.71,8.23 6.71,8.44 C6.71,8.65 6.8,8.84 6.97,9 C7.13,9.17 7.32,9.26 7.53,9.26 C7.74,9.26 7.93,9.17 8.1,9 C8.27,8.84 8.35,8.65 8.35,8.44 C8.35,8.39 8.35,8.33 8.33,8.29 C8.33,8.25 8.31,8.18 8.29,8.14 C8.27,8.1 8.25,8.04 8.23,7.99 C8.21,7.95 8.16,7.91 8.14,7.87 C8.1,7.83 8.08,7.78 8.02,7.76 C7.97,7.72 7.93,7.7 7.87,7.68 C7.83,7.66 7.76,7.64 7.7,7.62 C7.68,7.62 7.6,7.62 7.53,7.62 L7.53,7.62 Z M20.07,10.54 C19.52,10.54 19.02,10.33 18.62,9.91 C18.2,9.49 17.99,9 17.99,8.46 C17.99,8.18 18.05,7.91 18.15,7.66 C18.26,7.41 18.43,7.17 18.62,6.99 C18.81,6.8 19.04,6.65 19.29,6.52 C19.54,6.42 19.81,6.35 20.09,6.35 C20.63,6.35 21.14,6.56 21.54,6.99 C21.96,7.41 22.17,7.89 22.17,8.44 C22.17,8.79 22.07,9.15 21.88,9.47 C21.69,9.78 21.43,10.06 21.1,10.25 C20.76,10.43 20.42,10.54 20.07,10.54 L20.07,10.54 Z M20.07,7.62 C19.86,7.62 19.67,7.7 19.5,7.87 C19.33,8.04 19.25,8.23 19.25,8.44 C19.25,8.65 19.33,8.84 19.5,9 C19.67,9.17 19.86,9.26 20.07,9.26 C20.28,9.26 20.47,9.17 20.63,9 C20.8,8.84 20.89,8.65 20.89,8.44 C20.89,8.23 20.8,8.04 20.63,7.87 C20.47,7.7 20.28,7.62 20.07,7.62 L20.07,7.62 Z M13.95,21.1 C13.4,21.1 12.9,20.89 12.5,20.47 C12.08,20.05 11.87,19.56 11.87,19.02 C11.87,18.66 11.97,18.3 12.16,17.99 C12.35,17.67 12.6,17.4 12.94,17.21 C13.25,17.02 13.61,16.91 13.97,16.91 C14.33,16.91 14.68,17.02 15,17.21 C15.31,17.4 15.59,17.65 15.78,17.99 C15.97,18.3 16.07,18.66 16.07,19.02 C16.07,19.56 15.86,20.07 15.44,20.47 C14.98,20.91 14.49,21.1 13.95,21.1 L13.95,21.1 Z M13.95,18.17 C13.74,18.17 13.55,18.26 13.38,18.43 C13.21,18.6 13.13,18.78 13.13,19 C13.13,19.21 13.21,19.39 13.38,19.56 C13.55,19.73 13.74,19.82 13.95,19.82 C14.16,19.82 14.35,19.73 14.52,19.56 C14.68,19.39 14.77,19.21 14.77,19 C14.77,18.47 14.49,18.17 13.95,18.17 L13.95,18.17 Z" id="Shape"></path>
            </g>
        </g>
    </g>
</svg>