<svg width="20px" height="20px" viewBox="0 0 41 41" xmlns="http://www.w3.org/2000/svg" xmlns:xlink="http://www.w3.org/1999/xlink">
    <g stroke="none" stroke-width="1" fill="none" fill-rule="evenodd">
        <g transform="translate(1.000000, 1.000000)">
            <g stroke="#00C1DE" stroke-width="1.6">
                <rect fill="#FFFFFF" fill-rule="nonzero" x="0.6" y="0.6" width="38.4" height="38.4" rx="8"></rect>
                <rect x="0.6" y="0.6" width="38.4" height="38.4" rx="8"></rect>
            </g>
            <g transform="translate(6.500000, 7.500000)" fill="#00C1DE" fill-rule="nonzero">
                <path d="M14.62,12.49 C14.93,12.38 15.19,12.21 15.46,11.97 C15.72,11.73 15.92,11.44 16.07,11.11 C16.22,10.78 16.29,10.48 16.29,10.15 L16.29,10.15 C16.29,9.97 16.27,9.8 16.22,9.6 L22.48,5.63 L14.62,19.2 L14.62,12.49 L14.62,12.49 L14.62,12.49 Z M11.35,9.6 C11.31,9.82 11.29,10 11.29,10.15 C11.29,10.48 11.35,10.78 11.51,11.11 C11.66,11.44 11.86,11.73 12.12,11.97 C12.38,12.21 12.65,12.38 12.96,12.49 L12.96,19.77 L4.57,5.28 L11.35,9.6 Z M15.33,8.18 C15.13,8.02 14.89,7.91 14.6,7.8 C14.29,7.69 14.03,7.65 13.79,7.65 C13.2,7.65 12.69,7.83 12.25,8.18 L5.69,3.99 L21.95,3.99 L15.33,8.18 Z M24.76,0.68 C24.65,0.68 24.54,0.68 24.43,0.7 C24.32,0.73 24.21,0.75 24.1,0.79 C23.99,0.84 23.88,0.86 23.79,0.92 C23.69,0.97 23.6,1.03 23.49,1.1 C23.4,1.16 23.29,1.23 23.2,1.3 C23.11,1.36 23.03,1.45 22.94,1.54 C22.85,1.62 22.79,1.71 22.72,1.8 C22.65,1.89 22.59,1.97 22.54,2.08 C22.5,2.19 22.43,2.28 22.41,2.39 L5.17,2.39 C5.12,2.24 5.03,2.08 4.95,1.95 C4.86,1.8 4.75,1.67 4.64,1.56 C4.53,1.43 4.4,1.32 4.24,1.23 C4.09,1.14 3.96,1.03 3.81,0.97 C3.65,0.9 3.5,0.84 3.32,0.79 C3.15,0.75 2.99,0.73 2.84,0.73 L2.84,0.73 C2.38,0.73 1.98,0.84 1.59,1.05 C1.22,1.27 0.91,1.58 0.69,1.95 C0.47,2.33 0.36,2.74 0.36,3.2 C0.36,3.42 0.38,3.64 0.45,3.86 C0.51,4.08 0.6,4.28 0.69,4.45 C0.8,4.63 0.93,4.8 1.08,4.96 C1.24,5.11 1.41,5.24 1.59,5.35 C1.76,5.46 1.96,5.55 2.18,5.59 C2.4,5.66 2.62,5.68 2.84,5.68 L2.91,5.68 L11.77,21.02 C11.64,21.19 11.53,21.43 11.44,21.7 C11.35,21.98 11.31,22.22 11.31,22.44 L11.31,22.44 C11.31,22.9 11.42,23.3 11.64,23.69 C11.86,24.06 12.17,24.37 12.54,24.59 C12.91,24.81 13.33,24.92 13.79,24.92 C14.12,24.92 14.45,24.85 14.75,24.72 C15.06,24.59 15.33,24.41 15.54,24.19 C15.76,23.98 15.94,23.71 16.07,23.41 C16.2,23.1 16.27,22.77 16.27,22.44 C16.27,22.22 16.25,22.03 16.18,21.83 C16.11,21.63 16.05,21.43 15.96,21.26 C15.87,21.08 15.74,20.93 15.61,20.78 L24.37,5.63 C24.43,5.66 24.5,5.66 24.56,5.66 C24.63,5.66 24.69,5.66 24.76,5.66 C25.44,5.66 26.03,5.42 26.52,4.93 C27,4.45 27.24,3.86 27.24,3.18 C27.24,2.19 26.82,1.47 25.99,0.99 C25.59,0.79 25.18,0.68 24.76,0.68 L24.76,0.68 Z" id="Shape"></path>
            </g>
        </g>
    </g>
</svg>