<svg width="20px" height="20px" viewBox="0 0 41 41" xmlns="http://www.w3.org/2000/svg" xmlns:xlink="http://www.w3.org/1999/xlink">
    <g stroke="none" stroke-width="1" fill="none" fill-rule="evenodd">
        <g transform="translate(1.000000, 1.000000)">
            <g stroke="#00C1DE" stroke-width="1.6">
                <rect fill="#FFFFFF" fill-rule="nonzero" x="0.6" y="0.6" width="38.4" height="38.4" rx="8"></rect>
                <rect x="0.6" y="0.6" width="38.4" height="38.4" rx="8"></rect>
            </g>
            <g transform="translate(9.500000, 6.500000)" fill="#00C1DE" fill-rule="nonzero">
                <path d="M12.18,13.18 C12.36,13.18 12.53,13.14 12.68,13.07 C12.84,13.01 12.99,12.92 13.1,12.79 C13.21,12.68 13.29,12.53 13.38,12.38 C13.45,12.22 13.49,12.05 13.49,11.88 C13.49,11.51 13.36,11.2 13.12,10.96 C12.88,10.7 12.58,10.59 12.21,10.59 C11.97,10.59 11.77,10.66 11.57,10.77 C11.38,10.88 11.22,11.05 11.12,11.25 C11.01,11.44 10.94,11.66 10.94,11.9 C10.94,12.27 11.07,12.57 11.31,12.81 C11.53,13.05 11.81,13.18 12.18,13.18 L12.18,13.18 Z M14.51,13.03 C14.51,13.53 14.43,14.03 14.23,14.48 C14.04,14.94 13.77,15.35 13.45,15.68 C13.12,16.01 12.73,16.29 12.27,16.48 C11.81,16.68 11.33,16.79 10.83,16.79 C9.81,16.79 8.96,16.42 8.24,15.68 C7.52,14.94 7.15,14.05 7.15,13.03 C7.15,12.62 7.22,12.22 7.32,11.86 C7.46,11.46 7.63,11.14 7.85,10.81 C8.07,10.51 8.35,10.23 8.63,10.01 C8.94,9.77 9.26,9.6 9.66,9.46 C10.03,9.33 10.42,9.27 10.81,9.27 C11.83,9.27 12.71,9.64 13.4,10.38 C14.17,11.12 14.51,12.01 14.51,13.03 L14.51,13.03 Z M5.28,12.99 C5.28,14.55 5.82,15.88 6.89,16.96 C7.96,18.07 9.26,18.61 10.79,18.61 C11.29,18.61 11.77,18.55 12.25,18.42 C12.73,18.29 13.16,18.09 13.58,17.85 C13.99,17.61 14.36,17.31 14.69,16.96 C15.04,16.61 15.32,16.24 15.56,15.83 C15.8,15.42 15.97,14.96 16.11,14.48 C16.24,14.01 16.3,13.51 16.3,12.99 C16.3,11.42 15.76,10.1 14.69,9.01 C13.62,7.9 12.31,7.36 10.79,7.36 C9.26,7.36 7.96,7.9 6.89,9.01 C5.82,10.12 5.28,11.42 5.28,12.99 L5.28,12.99 Z M1.79,13.94 L1.79,14.44 C1.88,15.25 2.1,16.07 2.42,16.87 C2.75,17.68 3.16,18.42 3.64,19.09 C4.12,19.76 4.65,20.4 5.19,20.98 C5.73,21.57 6.32,22.11 6.91,22.59 C7.5,23.07 8.04,23.48 8.55,23.81 C9.02,24.13 9.48,24.42 9.92,24.65 L9.92,20.48 C8.24,20.29 6.78,19.57 5.56,18.35 C4.34,17.14 3.64,15.66 3.43,13.94 L1.79,13.94 L1.79,13.94 L1.79,13.94 Z M18.15,12.12 L19.83,12.12 L19.83,4.97 C16.39,4.18 13.66,3.45 11.68,2.73 L11.68,5.47 C13.38,5.68 14.84,6.4 16.04,7.64 C17.26,8.9 17.98,10.38 18.15,12.12 L18.15,12.12 L18.15,12.12 Z M0.14,10.31 L0.14,3.47 C0.51,3.4 1.03,3.32 1.68,3.16 C2.34,3.03 3.6,2.69 5.47,2.16 C7.35,1.64 9.13,1.03 10.81,0.36 C11.79,0.79 12.82,1.19 13.9,1.56 C14.99,1.92 15.97,2.23 16.85,2.45 C17.72,2.66 18.5,2.86 19.24,3.03 C19.98,3.21 20.53,3.32 20.92,3.38 L21.51,3.49 L21.51,13.96 L18.13,13.96 C17.91,15.68 17.22,17.14 16,18.35 C14.8,19.57 13.36,20.29 11.66,20.5 L11.66,24.68 C12.27,24.35 12.95,23.89 13.69,23.33 C14.43,22.76 15.21,22.09 16.02,21.33 C16.82,20.55 17.56,19.68 18.22,18.7 C18.87,17.72 19.33,16.74 19.57,15.79 L21.31,15.79 C21.14,16.57 20.88,17.35 20.51,18.11 C20.14,18.87 19.72,19.57 19.29,20.18 C18.85,20.79 18.33,21.39 17.67,22.05 C17.02,22.68 16.45,23.22 15.97,23.63 C15.47,24.05 14.89,24.52 14.14,25.02 C13.4,25.52 12.88,25.91 12.51,26.13 C12.14,26.37 11.66,26.68 11.07,27.04 C11.03,27.07 10.99,27.09 10.96,27.11 C10.94,27.13 10.9,27.15 10.88,27.17 C10.83,27.2 10.81,27.22 10.77,27.24 C10.66,27.17 10.44,27.04 10.16,26.87 C9.63,26.57 9.22,26.31 8.92,26.11 C8.61,25.91 8.13,25.59 7.5,25.18 C6.87,24.74 6.32,24.35 5.89,23.96 C5.45,23.59 4.93,23.13 4.34,22.59 C3.75,22.05 3.25,21.5 2.84,20.94 C2.42,20.37 2.01,19.76 1.6,19.11 C1.18,18.46 0.85,17.74 0.61,17.01 C0.35,16.24 0.2,15.48 0.09,14.68 L0.09,12.18 L3.4,12.18 C3.49,11.31 3.73,10.51 4.1,9.73 C4.47,8.94 4.95,8.27 5.52,7.68 C6.08,7.1 6.76,6.62 7.5,6.23 C8.26,5.84 9.05,5.6 9.9,5.51 L9.9,2.77 C8.15,3.42 5.43,4.16 1.75,5.01 L1.75,10.31 L0.14,10.31 L0.14,10.31 Z" id="Shape"></path>
            </g>
        </g>
    </g>
</svg>