<svg width="20px" height="20px" viewBox="0 0 41 41" xmlns="http://www.w3.org/2000/svg" xmlns:xlink="http://www.w3.org/1999/xlink">
    <g stroke="none" stroke-width="1" fill="none" fill-rule="evenodd">
        <g transform="translate(1.000000, 1.000000)">
            <g stroke="#00C1DE" stroke-width="1.6">
                <rect fill="#FFFFFF" fill-rule="nonzero" x="0.6" y="0.6" width="38.4" height="38.4" rx="8"></rect>
                <rect x="0.6" y="0.6" width="38.4" height="38.4" rx="8"></rect>
            </g>
            <g transform="translate(6.500000, 10.500000)" fill="#00C1DE" fill-rule="nonzero">
                <path d="M22.13,6.99 C21.95,5.06 21.14,3.43 19.72,2.11 C18.31,0.8 16.62,0.14 14.67,0.14 C14.18,0.14 13.68,0.18 13.18,0.28 C12.69,0.38 12.23,0.52 11.81,0.7 C11.37,0.88 10.96,1.1 10.56,1.38 C10.16,1.64 9.8,1.94 9.47,2.25 C9.13,2.57 8.83,2.93 8.55,3.33 C8.27,3.71 8.03,4.13 7.84,4.54 C7.48,4.42 7.08,4.36 6.68,4.36 C5.65,4.36 4.75,4.74 4,5.48 C3.26,6.22 2.88,7.11 2.88,8.17 C2.88,8.39 2.9,8.59 2.92,8.76 C2.96,8.94 3,9.14 3.06,9.32 C2.67,9.56 2.31,9.84 1.97,10.16 C1.63,10.5 1.35,10.86 1.12,11.25 C0.88,11.65 0.7,12.09 0.56,12.57 C0.42,13.05 0.36,13.52 0.36,14.02 C0.36,15.51 0.9,16.81 1.95,17.86 C3.02,18.94 4.3,19.46 5.79,19.46 L20.9,19.46 C22.65,19.46 24.12,18.84 25.35,17.61 C26.58,16.37 27.2,14.9 27.2,13.15 C27.24,11.63 26.76,10.28 25.79,9.12 C24.83,7.99 23.6,7.27 22.13,6.99 L22.13,6.99 Z M20.96,17.82 L5.85,17.82 C4.81,17.82 3.92,17.45 3.16,16.71 C2.43,15.97 2.05,15.08 2.05,14.02 C2.05,13.34 2.23,12.73 2.57,12.15 C2.9,11.57 3.36,11.11 3.96,10.78 C4.54,10.44 4.87,10.18 4.95,9.98 C5.03,9.78 4.93,9.4 4.69,8.82 C4.61,8.51 4.57,8.27 4.57,8.15 C4.57,7.57 4.77,7.07 5.17,6.67 C5.57,6.28 6.07,6.08 6.64,6.08 C7,6.04 7.4,6.1 7.8,6.26 C7.92,6.3 7.99,6.34 8.09,6.36 C8.17,6.38 8.25,6.4 8.33,6.4 C8.41,6.4 8.47,6.4 8.51,6.4 C8.55,6.4 8.61,6.38 8.67,6.32 C8.73,6.26 8.77,6.24 8.79,6.22 C8.81,6.2 8.85,6.14 8.91,6.04 C8.97,5.94 9.01,5.88 9.03,5.84 C9.05,5.8 9.09,5.72 9.17,5.58 C9.25,5.44 9.29,5.34 9.31,5.28 C9.8,4.24 10.52,3.41 11.49,2.79 C12.47,2.17 13.5,1.86 14.64,1.86 C16.17,1.86 17.48,2.35 18.57,3.37 C19.67,4.38 20.3,5.66 20.44,7.19 C20.5,7.81 20.58,8.17 20.7,8.29 C20.82,8.41 21.18,8.53 21.79,8.65 C22.89,8.86 23.78,9.38 24.48,10.24 C25.17,11.09 25.51,12.07 25.51,13.16 C25.55,14.44 25.11,15.53 24.2,16.45 C23.28,17.37 22.25,17.82 20.96,17.82 L20.96,17.82 Z" id="Shape"></path>
            </g>
        </g>
    </g>
</svg>