<svg width="20px" height="20px" viewBox="0 0 41 41" xmlns="http://www.w3.org/2000/svg" xmlns:xlink="http://www.w3.org/1999/xlink">
    <g stroke="none" stroke-width="1" fill="none" fill-rule="evenodd">
        <g transform="translate(1.000000, 1.000000)">
            <g stroke="#00C1DE" stroke-width="1.6">
                <rect fill="#FFFFFF" fill-rule="nonzero" x="0.6" y="0.6" width="38.4" height="38.4" rx="8"></rect>
                <rect x="0.6" y="0.6" width="38.4" height="38.4" rx="8"></rect>
            </g>
            <g transform="translate(6.500000, 6.500000)" fill="#00C1DE" fill-rule="nonzero">
                <path d="M13.83,25.32 L2.38,13.81 L13.83,2.3 L25.29,13.81 L13.83,25.32 L13.83,25.32 Z M26.93,16.43 L25.73,13.81 L26.93,11.19 C27,11.04 27.06,10.84 27.13,10.6 C27.17,10.35 27.22,10.16 27.22,9.98 C27.22,9.65 27.15,9.3 27,8.95 C26.85,8.59 26.65,8.29 26.39,8 C26.12,7.71 25.86,7.51 25.55,7.36 L21.94,5.67 L20.25,2.06 C20.03,1.57 19.7,1.2 19.29,0.91 C18.87,0.62 18.41,0.45 17.93,0.4 C17.45,0.36 16.94,0.45 16.46,0.67 L13.83,1.88 L11.23,0.67 C10.72,0.45 10.24,0.36 9.76,0.4 C9.28,0.45 8.82,0.6 8.4,0.91 C7.98,1.2 7.66,1.59 7.44,2.06 L5.75,5.67 L2.13,7.36 C1.41,7.69 0.93,8.24 0.64,8.99 C0.36,9.74 0.4,10.46 0.75,11.19 L1.96,13.81 L0.75,16.43 C0.43,17.16 0.38,17.88 0.64,18.63 C0.91,19.38 1.41,19.93 2.13,20.26 L5.75,21.96 L7.44,25.59 C7.66,26.05 8.01,26.45 8.51,26.76 C9.01,27.09 9.52,27.24 10.02,27.24 C10.44,27.24 10.85,27.15 11.25,26.98 L13.85,25.77 L16.46,26.98 C16.86,27.15 17.25,27.24 17.69,27.24 C18.02,27.24 18.37,27.17 18.72,27.02 C19.07,26.87 19.38,26.67 19.66,26.4 C19.94,26.14 20.14,25.88 20.3,25.57 L21.98,21.93 L25.6,20.24 C26.06,20.02 26.43,19.67 26.76,19.16 C27.09,18.65 27.24,18.15 27.24,17.64 C27.2,17.22 27.09,16.83 26.93,16.43 L26.93,16.43 Z" id="Shape"></path>
            </g>
        </g>
    </g>
</svg>