<svg width="20px" height="20px" viewBox="0 0 41 41" xmlns="http://www.w3.org/2000/svg" xmlns:xlink="http://www.w3.org/1999/xlink">
    <g stroke="none" stroke-width="1" fill="none" fill-rule="evenodd">
        <g transform="translate(1.000000, 1.000000)">
            <g stroke="#00C1DE" stroke-width="1.6">
                <rect fill="#FFFFFF" fill-rule="nonzero" x="0.6" y="0.6" width="38.4" height="38.4" rx="8"></rect>
                <rect x="0.6" y="0.6" width="38.4" height="38.4" rx="8"></rect>
            </g>
            <g transform="translate(6.500000, 6.500000)" fill="#00C1DE" fill-rule="nonzero">
                <path d="M25.39,12.48 C24.94,12.48 24.56,12.64 24.2,12.93 L19.29,12.21 C19.22,11.63 19.04,11.08 18.72,10.59 L22.87,6.22 C23.21,6.35 23.57,6.42 23.95,6.42 C24.78,6.42 25.48,6.13 26.09,5.54 C26.68,4.96 26.97,4.24 26.97,3.4 C26.97,3.06 26.92,2.75 26.81,2.46 C26.7,2.14 26.56,1.87 26.38,1.62 C26.2,1.37 25.98,1.15 25.73,0.97 C25.48,0.79 25.21,0.63 24.9,0.54 C24.58,0.43 24.27,0.38 23.95,0.38 C23.54,0.38 23.16,0.47 22.78,0.63 C22.4,0.79 22.08,1.01 21.81,1.28 C21.54,1.55 21.34,1.87 21.16,2.25 C21,2.64 20.91,3.02 20.91,3.42 C20.91,3.69 20.95,3.97 21.02,4.21 C21.09,4.46 21.2,4.71 21.31,4.93 L17.26,9.21 C17.03,9.08 16.74,8.97 16.38,8.85 C16.02,8.76 15.7,8.7 15.46,8.7 L14.42,3.81 C14.83,3.42 15.05,2.93 15.05,2.37 C15.05,1.8 14.85,1.33 14.46,0.95 C14.08,0.56 13.61,0.36 13.05,0.36 L13.05,0.36 C12.21,0.36 11.6,0.74 11.24,1.49 C11.11,1.78 11.04,2.05 11.04,2.34 C11.04,2.79 11.18,3.2 11.45,3.54 C11.72,3.9 12.05,4.12 12.48,4.26 L13.5,9.08 C13.29,9.17 13.09,9.33 12.84,9.51 C12.59,9.69 12.41,9.87 12.26,10.03 L7.41,7.52 C7.41,7.52 7.41,7.5 7.41,7.48 C7.41,7.46 7.41,7.43 7.41,7.43 C7.41,7.07 7.32,6.74 7.14,6.42 C6.96,6.11 6.71,5.88 6.42,5.7 C6.11,5.52 5.77,5.43 5.41,5.43 C5.25,5.43 5.09,5.45 4.96,5.47 C4.8,5.52 4.66,5.56 4.53,5.63 C4.39,5.7 4.28,5.77 4.17,5.86 C4.06,5.95 3.94,6.06 3.85,6.17 C3.76,6.29 3.67,6.42 3.63,6.53 C3.56,6.67 3.51,6.8 3.47,6.96 C3.42,7.12 3.42,7.25 3.42,7.41 C3.42,7.98 3.63,8.43 4.01,8.83 C4.39,9.21 4.87,9.42 5.43,9.42 C5.75,9.42 6.04,9.35 6.31,9.19 L11.36,11.81 C11.29,12.1 11.27,12.37 11.27,12.66 C11.27,13.45 11.49,14.17 11.92,14.85 L7.82,19.2 C7.66,19.11 7.43,19.06 7.19,18.99 C6.94,18.95 6.71,18.9 6.53,18.9 C5.41,18.9 4.57,19.38 3.97,20.32 C3.67,20.82 3.51,21.36 3.51,21.92 C3.51,22.76 3.81,23.45 4.39,24.06 C4.98,24.65 5.7,24.94 6.53,24.94 C7.37,24.94 8.07,24.65 8.67,24.06 C9.26,23.48 9.55,22.76 9.55,21.92 C9.55,21.47 9.46,21.04 9.26,20.62 L13.43,16.2 C14.01,16.52 14.64,16.67 15.32,16.67 C15.46,16.67 15.61,16.67 15.75,16.65 C15.88,16.63 16.04,16.61 16.18,16.58 C16.31,16.56 16.45,16.52 16.58,16.47 L19.67,21.34 C19.51,21.65 19.42,21.97 19.42,22.26 C19.42,22.82 19.62,23.27 20.01,23.68 C20.39,24.06 20.86,24.27 21.43,24.27 C21.7,24.27 21.97,24.22 22.22,24.11 C22.46,24 22.67,23.86 22.85,23.68 C23.03,23.5 23.16,23.3 23.27,23.05 C23.39,22.8 23.43,22.55 23.43,22.26 C23.43,21.7 23.23,21.25 22.85,20.84 C22.46,20.46 21.99,20.26 21.43,20.26 L21.36,20.26 L18.25,15.34 C18.57,14.98 18.84,14.6 19.02,14.15 L23.7,14.85 C23.82,15.19 24.04,15.48 24.38,15.7 C24.72,15.95 25.05,16.06 25.41,16.06 L25.41,16.06 C25.91,16.06 26.34,15.88 26.7,15.52 C27.06,15.16 27.24,14.74 27.24,14.24 C27.24,13.74 27.06,13.32 26.7,12.96 C26.32,12.66 25.91,12.48 25.39,12.48 L25.39,12.48 Z M6.6,12.17 C6.83,12.12 7.01,12.01 7.16,11.81 C7.32,11.63 7.39,11.4 7.39,11.18 C7.39,11.15 7.39,11.11 7.39,11.06 C7.39,11.02 7.39,10.97 7.37,10.95 C7.32,10.72 7.21,10.54 7.01,10.39 C6.83,10.23 6.6,10.16 6.38,10.16 C6.31,10.16 6.22,10.16 6.15,10.18 C5.32,10.36 4.55,10.25 3.83,9.8 C3.11,9.35 2.66,8.74 2.48,7.93 C2.46,7.84 2.43,7.73 2.43,7.59 C2.41,7.46 2.41,7.34 2.41,7.25 C2.41,6.69 2.57,6.15 2.86,5.68 C3.04,5.38 3.33,5.09 3.69,4.84 C4.08,4.57 4.44,4.42 4.78,4.33 C5.02,4.28 5.25,4.26 5.47,4.26 C5.7,4.26 5.93,4.28 6.15,4.35 C6.38,4.39 6.58,4.48 6.78,4.57 C6.98,4.66 7.16,4.78 7.34,4.93 C7.52,5.09 7.68,5.23 7.82,5.41 C7.95,5.59 8.09,5.77 8.18,5.97 C8.29,6.17 8.36,6.4 8.43,6.62 C8.47,6.85 8.58,7.03 8.79,7.16 C8.99,7.3 9.19,7.39 9.4,7.39 L9.62,7.37 C9.85,7.32 10.03,7.21 10.16,7.01 C10.3,6.8 10.39,6.6 10.39,6.4 C10.39,6.38 10.39,6.33 10.39,6.29 C10.39,6.24 10.39,6.2 10.36,6.17 C10.05,4.82 9.3,3.78 8.13,3.04 C6.96,2.3 5.68,2.09 4.3,2.39 C3.74,2.52 3.13,2.79 2.52,3.22 C1.89,3.65 1.44,4.12 1.13,4.62 C0.99,4.84 0.86,5.11 0.74,5.43 C0.63,5.75 0.54,6.06 0.47,6.4 C0.41,6.74 0.36,7.03 0.36,7.28 C0.36,7.66 0.41,8.02 0.5,8.4 C0.77,9.55 1.35,10.5 2.3,11.22 C3.24,11.94 4.28,12.3 5.45,12.3 C5.47,12.3 5.5,12.3 5.52,12.3 C5.54,12.3 5.56,12.3 5.59,12.3 C5.95,12.28 6.26,12.26 6.6,12.17 L6.6,12.17 Z M22.35,17.24 C22.28,17.21 22.22,17.21 22.15,17.21 C21.92,17.21 21.72,17.3 21.52,17.46 C21.34,17.62 21.2,17.82 21.16,18.02 C21.16,18.05 21.16,18.09 21.13,18.11 C21.13,18.16 21.13,18.18 21.13,18.2 C21.13,18.43 21.22,18.63 21.38,18.84 C21.54,19.04 21.74,19.15 21.95,19.2 C22.76,19.35 23.41,19.78 23.86,20.48 C24.31,21.18 24.49,21.95 24.33,22.76 C24.31,22.94 24.24,23.12 24.15,23.3 C24.06,23.48 23.97,23.68 23.86,23.84 C23.75,24.02 23.61,24.18 23.48,24.33 C23.34,24.49 23.18,24.6 23.05,24.69 C22.55,25.03 21.99,25.21 21.38,25.21 C21.18,25.21 21,25.19 20.82,25.17 C20.01,25.01 19.35,24.58 18.88,23.88 C18.41,23.18 18.25,22.42 18.41,21.61 C18.45,21.34 18.41,21.09 18.25,20.86 C18.09,20.64 17.87,20.5 17.6,20.44 C17.33,20.39 17.08,20.44 16.85,20.59 C16.63,20.75 16.49,20.98 16.42,21.25 C16.15,22.62 16.42,23.88 17.21,25.03 C18,26.18 19.06,26.9 20.41,27.15 C20.77,27.22 21.09,27.24 21.36,27.24 L21.36,27.24 C21.79,27.24 22.26,27.15 22.82,26.99 C23.36,26.81 23.82,26.61 24.18,26.38 C24.65,26.07 25.1,25.57 25.53,24.94 C25.93,24.31 26.2,23.7 26.29,23.14 C26.56,21.76 26.32,20.53 25.53,19.35 C24.76,18.2 23.7,17.51 22.35,17.24 L22.35,17.24 Z" id="Shape"></path>
            </g>
        </g>
    </g>
</svg>