<svg width="20px" height="20px" viewBox="0 0 41 41" xmlns="http://www.w3.org/2000/svg" xmlns:xlink="http://www.w3.org/1999/xlink">
    <g stroke="none" stroke-width="1" fill="none" fill-rule="evenodd">
        <g transform="translate(1.000000, 1.000000)">
            <g stroke="#00C1DE" stroke-width="1.6">
                <rect fill="#FFFFFF" fill-rule="nonzero" x="0.6" y="0.6" width="38.4" height="38.4" rx="8"></rect>
                <rect x="0.6" y="0.6" width="38.4" height="38.4" rx="8"></rect>
            </g>
            <g transform="translate(6.500000, 6.500000)" fill="#00C1DE" fill-rule="nonzero">
                <path d="M19.57,17.74 C19.52,18.44 19.37,19.19 19.08,19.96 C18.8,20.73 18.45,21.48 18.03,22.18 C17.59,22.88 17.11,23.52 16.54,24.12 C15.97,24.71 15.38,25.19 14.76,25.55 C13.65,26.21 12.44,26.6 11.17,26.76 C9.9,26.91 8.67,26.84 7.51,26.54 C6.35,26.23 5.25,25.68 4.22,24.93 C3.19,24.18 2.36,23.21 1.72,22.09 C1,20.82 0.58,19.47 0.47,18.02 C0.36,16.59 0.58,15.21 1.08,13.89 C1.59,12.57 2.38,11.4 3.41,10.41 C3.41,11.12 3.52,11.86 3.74,12.66 C2.84,13.89 2.36,15.25 2.25,16.75 C2.16,18.27 2.49,19.72 3.25,21.1 C4.31,22.95 5.89,24.16 7.95,24.69 C10.01,25.22 11.98,24.97 13.84,23.9 C14.85,23.32 15.73,22.42 16.5,21.19 C17.26,19.96 17.68,18.77 17.77,17.63 C17.4,17.43 17.11,17.14 16.89,16.79 C16.69,16.44 16.58,16.07 16.58,15.67 C16.58,15.56 16.58,15.47 16.61,15.36 C16.63,15.25 16.65,15.14 16.69,15.03 C16.74,14.92 16.78,14.81 16.83,14.72 C16.87,14.61 16.94,14.53 17,14.42 C17.07,14.33 17.13,14.24 17.2,14.15 C17.26,14.06 17.35,14 17.44,13.91 C17.53,13.84 17.61,13.78 17.7,13.73 C18.08,13.54 18.45,13.45 18.82,13.43 C19.19,13.43 19.57,13.51 19.92,13.71 C20.27,13.91 20.55,14.17 20.75,14.53 C20.95,14.88 21.06,15.25 21.06,15.65 C21.06,15.93 20.99,16.22 20.86,16.51 C20.73,16.79 20.55,17.06 20.33,17.28 C20.09,17.47 19.83,17.63 19.57,17.74 L19.57,17.74 Z M8.36,18.46 C7.13,17.67 6.08,16.48 5.21,14.9 C4.33,13.32 3.89,11.78 3.89,10.32 L3.89,10.3 C3.89,7.58 4.85,5.29 6.78,3.4 C8.65,1.59 10.84,0.69 13.41,0.69 C15.62,0.69 17.59,1.37 19.3,2.76 C21.01,4.14 22.13,5.88 22.66,7.99 C21.93,7.62 21.25,7.36 20.57,7.18 C20.18,6.28 19.61,5.46 18.91,4.76 C18.21,4.06 17.4,3.53 16.45,3.13 C15.51,2.74 14.55,2.54 13.51,2.54 C11.39,2.54 9.55,3.31 8.06,4.83 C6.54,6.34 5.8,8.19 5.8,10.35 C5.8,11.01 5.89,11.64 6.04,12.28 C6.19,12.92 6.43,13.51 6.72,14.06 C7.03,14.61 7.38,15.14 7.81,15.63 C8.25,16.11 8.74,16.53 9.28,16.88 C9.68,16.59 10.12,16.44 10.6,16.44 C11.21,16.44 11.74,16.66 12.18,17.1 C12.62,17.54 12.84,18.07 12.84,18.68 L12.84,18.68 L12.84,18.68 C12.84,19.3 12.62,19.83 12.18,20.27 C11.74,20.71 11.21,20.93 10.6,20.93 L10.6,20.93 L10.6,20.93 C10.2,20.93 9.83,20.82 9.48,20.62 C9.13,20.42 8.87,20.16 8.67,19.8 C8.47,19.45 8.36,19.08 8.36,18.68 L8.36,18.46 L8.36,18.46 Z M13.19,8.13 C14.63,7.38 16.17,7.03 17.79,7.07 C19.43,7.11 20.95,7.55 22.35,8.37 C23.47,9.03 24.43,9.86 25.2,10.9 C25.97,11.93 26.52,13.03 26.85,14.2 C27.15,15.36 27.24,16.59 27.09,17.87 C26.93,19.14 26.54,20.33 25.9,21.45 C24.78,23.39 23.21,24.75 21.14,25.57 C19.08,26.36 17,26.45 14.9,25.81 C15.53,25.41 16.12,24.95 16.67,24.4 C18.18,24.58 19.63,24.34 21.04,23.65 C22.42,22.97 23.51,21.96 24.28,20.6 C24.96,19.3 25.29,18 25.31,16.68 C25.31,15.36 24.98,14.09 24.28,12.88 C23.58,11.67 22.61,10.7 21.41,9.99 C20.9,9.71 20.27,9.44 19.5,9.25 C18.73,9.05 18.05,8.94 17.48,8.94 C17,8.94 16.45,9 15.8,9.16 C15.14,9.31 14.61,9.47 14.17,9.69 C14.19,9.8 14.19,9.91 14.19,10.02 C14.19,10.41 14.09,10.79 13.89,11.12 C13.71,11.42 13.43,11.69 13.05,11.91 C12.68,12.13 12.31,12.24 11.96,12.24 C11.78,12.24 11.61,12.22 11.39,12.15 C11.17,12.08 10.99,12.02 10.84,11.93 C10.53,11.75 10.27,11.47 10.05,11.09 C9.83,10.72 9.72,10.35 9.72,9.99 C9.72,9.84 9.74,9.64 9.81,9.42 C9.88,9.2 9.94,9.03 10.03,8.87 C10.14,8.67 10.31,8.48 10.51,8.32 C10.73,8.15 10.95,8.02 11.21,7.91 C11.48,7.8 11.72,7.75 11.94,7.75 C12.42,7.75 12.81,7.88 13.19,8.13 L13.19,8.13 Z" id="Shape"></path>
            </g>
        </g>
    </g>
</svg>