<svg width="20px" height="20px" viewBox="0 0 41 41" xmlns="http://www.w3.org/2000/svg" xmlns:xlink="http://www.w3.org/1999/xlink">
    <g stroke="none" stroke-width="1" fill="none" fill-rule="evenodd">
        <g transform="translate(1.000000, 1.000000)">
            <g stroke="#00C1DE" stroke-width="1.6">
                <rect fill="#FFFFFF" fill-rule="nonzero" x="0.6" y="0.6" width="38.4" height="38.4" rx="8"></rect>
                <rect x="0.6" y="0.6" width="38.4" height="38.4" rx="8"></rect>
            </g>
            <g transform="translate(6.500000, 11.500000)" fill="#00C1DE" fill-rule="nonzero">
                <path d="M15.14,14.06 C14.58,14.76 13.92,15.35 13.14,15.82 C12.35,16.29 11.59,16.6 10.81,16.76 C10.02,16.93 9.28,17.01 8.56,17.01 C7.83,17.01 7.19,16.91 6.64,16.74 C5.56,16.44 4.61,15.92 3.75,15.25 C2.9,14.57 2.2,13.73 1.68,12.77 C0.59,10.79 0.36,8.68 1,6.49 C1.41,5.09 2.16,3.91 3.21,2.92 C4.26,1.94 5.5,1.27 6.93,0.9 C8.35,0.53 9.82,0.53 11.3,0.9 C14.79,1.76 17,4.5 17.89,9.15 L17.91,9.19 C17.91,9.19 17.91,9.19 17.91,9.21 C17.93,9.35 17.97,9.52 17.99,9.68 C18.03,9.84 18.09,10.13 18.22,10.54 C18.34,10.95 18.47,11.34 18.59,11.69 C18.71,12.03 18.92,12.44 19.15,12.87 C19.39,13.3 19.64,13.67 19.91,13.98 C20.18,14.29 20.51,14.53 20.9,14.74 C21.29,14.94 21.71,15.04 22.16,15.04 C23.01,15.04 23.71,14.76 24.31,14.16 C24.91,13.57 25.2,12.87 25.2,12.03 L25.2,12.03 C25.2,11.2 24.91,10.5 24.31,9.91 C23.71,9.31 23.01,9.03 22.16,9.03 C22,9.03 21.85,9.03 21.69,9.05 C21.52,9.07 21.36,9.09 21.19,9.15 C21.01,9.19 20.82,9.25 20.63,9.35 C20.45,9.46 20.26,9.54 20.1,9.66 L18.9,6.73 C19.66,6.79 20.26,6.86 20.7,6.9 C21.15,6.94 21.62,6.98 22.14,7 C23.61,7.12 24.82,7.63 25.79,8.57 C26.77,9.52 27.24,10.66 27.24,12.03 L27.24,12.03 C27.24,13.43 26.74,14.61 25.75,15.6 C24.76,16.58 23.57,17.07 22.16,17.07 L22.16,17.07 C21.62,17.07 21.11,16.99 20.63,16.83 C20.16,16.66 19.73,16.46 19.35,16.19 C18.98,15.92 18.65,15.6 18.32,15.23 C17.99,14.86 17.72,14.47 17.5,14.1 C17.27,13.73 17.06,13.32 16.88,12.87 C16.69,12.42 16.53,12.06 16.42,11.71 C16.32,11.36 16.22,11.01 16.11,10.66 C16.03,10.31 15.97,10.05 15.93,9.91 C15.91,9.74 15.86,9.62 15.86,9.5 C15.7,8.68 15.51,7.94 15.29,7.29 C15.06,6.63 14.79,6.08 14.5,5.63 C14.21,5.18 13.92,4.79 13.63,4.46 C13.35,4.13 13.02,3.87 12.66,3.66 C12.31,3.46 12,3.29 11.71,3.17 C11.43,3.05 11.14,2.97 10.81,2.88 C9.09,2.45 7.46,2.64 5.95,3.46 C4.45,4.28 3.46,5.46 2.98,7.08 C2.49,8.72 2.65,10.29 3.5,11.81 C4.32,13.3 5.56,14.31 7.23,14.8 C7.63,14.92 8.08,14.98 8.56,15 C9.05,15.02 9.57,14.96 10.15,14.84 C10.72,14.72 11.26,14.51 11.8,14.25 C12.31,13.98 12.83,13.59 13.3,13.08 C13.78,12.57 14.17,11.97 14.46,11.28 L15.14,14.06 Z"></path>
            </g>
        </g>
    </g>
</svg>