<svg width="20px" height="20px" viewBox="0 0 41 41" xmlns="http://www.w3.org/2000/svg" xmlns:xlink="http://www.w3.org/1999/xlink">
    <g stroke="none" stroke-width="1" fill="none" fill-rule="evenodd">
        <g transform="translate(1.000000, 1.000000)">
            <g stroke="#00C1DE" stroke-width="1.6">
                <rect fill="#FFFFFF" fill-rule="nonzero" x="0.6" y="0.6" width="38.4" height="38.4" rx="8"></rect>
                <rect x="0.6" y="0.6" width="38.4" height="38.4" rx="8"></rect>
            </g>
            <g transform="translate(6.500000, 9.500000)" fill="#00C1DE" fill-rule="nonzero">
                <path d="M25.13,12.69 C25.02,12.69 24.89,12.69 24.8,12.71 L20.06,5.15 C20.26,4.91 20.43,4.61 20.58,4.24 C20.73,3.86 20.79,3.53 20.79,3.21 C20.79,2.41 20.51,1.73 19.95,1.15 C19.39,0.57 18.7,0.29 17.91,0.29 C17.71,0.29 17.52,0.31 17.32,0.35 C17.13,0.39 16.96,0.44 16.79,0.52 C16.61,0.59 16.44,0.69 16.29,0.78 C16.14,0.89 15.99,1 15.86,1.15 C15.73,1.28 15.62,1.43 15.51,1.58 C15.41,1.73 15.32,1.9 15.26,2.07 C15.19,2.24 15.13,2.44 15.08,2.63 C15.04,2.82 15.02,3.02 15.02,3.21 C15.02,4.16 15.38,4.93 16.14,5.51 L10.79,15.57 C10.69,15.55 10.58,15.53 10.43,15.51 C10.28,15.49 10.15,15.49 10.04,15.47 C9.56,15.47 9.11,15.57 8.7,15.79 L4.3,10.56 C4.54,10.2 4.67,9.79 4.67,9.34 C4.67,8.74 4.46,8.22 4.05,7.79 C3.61,7.36 3.12,7.14 2.52,7.14 C1.91,7.14 1.39,7.36 0.99,7.79 C0.55,8.22 0.36,8.74 0.36,9.34 C0.36,9.94 0.58,10.46 0.99,10.89 C1.39,11.32 1.91,11.53 2.52,11.53 C2.62,11.53 2.73,11.53 2.84,11.51 C2.95,11.49 3.05,11.47 3.14,11.45 L7.62,16.78 C7.54,16.91 7.45,17.08 7.39,17.27 C7.32,17.47 7.26,17.66 7.21,17.85 C7.17,18.05 7.15,18.24 7.15,18.39 L7.15,18.39 C7.15,19.19 7.43,19.87 7.99,20.45 C8.55,21.03 9.24,21.31 10.04,21.31 C10.84,21.31 11.53,21.03 12.09,20.45 C12.65,19.89 12.93,19.21 12.93,18.39 C12.93,17.57 12.63,16.88 12.04,16.3 L17.43,6.11 C17.5,6.13 17.58,6.13 17.65,6.13 C17.71,6.13 17.8,6.13 17.86,6.13 C18.04,6.13 18.19,6.11 18.36,6.09 C18.53,6.07 18.68,6.03 18.83,5.96 L23.49,13.4 C23.38,13.51 23.3,13.66 23.21,13.83 C23.12,14 23.06,14.18 22.99,14.37 C22.93,14.56 22.91,14.71 22.91,14.86 C22.91,15.06 22.93,15.25 22.99,15.44 C23.04,15.64 23.12,15.81 23.21,15.96 C23.3,16.11 23.42,16.26 23.55,16.39 C23.68,16.52 23.83,16.65 23.99,16.73 C24.14,16.82 24.31,16.91 24.5,16.95 C24.7,16.99 24.89,17.04 25.08,17.04 C25.69,17.04 26.21,16.82 26.61,16.39 C27.05,15.96 27.24,15.44 27.24,14.84 L27.24,14.82 C27.24,14.22 27.02,13.72 26.61,13.29 C26.23,12.91 25.73,12.69 25.13,12.69 L25.13,12.69 L25.13,12.69 Z"></path>
            </g>
        </g>
    </g>
</svg>