<svg width="20px" height="20px" viewBox="0 0 41 41" xmlns="http://www.w3.org/2000/svg" xmlns:xlink="http://www.w3.org/1999/xlink">
    <g stroke="none" stroke-width="1" fill="none" fill-rule="evenodd">
        <g transform="translate(1.000000, 1.000000)">
            <g stroke="#00C1DE" stroke-width="1.6">
                <rect fill="#FFFFFF" fill-rule="nonzero" x="0.6" y="0.6" width="38.4" height="38.4" rx="8"></rect>
                <rect x="0.6" y="0.6" width="38.4" height="38.4" rx="8"></rect>
            </g>
            <g transform="translate(6.500000, 6.500000)" fill="#00C1DE" fill-rule="nonzero">
                <path d="M23.45,2.11 C23.92,2.11 24.32,2.27 24.64,2.61 C24.97,2.94 25.13,3.35 25.13,3.82 C25.13,4.29 24.97,4.7 24.64,5.03 C24.3,5.37 23.9,5.53 23.45,5.53 C22.98,5.53 22.57,5.37 22.26,5.03 C21.92,4.7 21.76,4.29 21.76,3.82 C21.76,3.51 21.83,3.24 21.99,2.97 C22.15,2.7 22.35,2.5 22.59,2.34 C22.84,2.18 23.13,2.11 23.45,2.11 L23.45,2.11 Z M7.83,11.91 L1.55,11.91 C1.44,11.91 1.33,11.93 1.21,11.98 C1.1,12.02 1.01,12.09 0.95,12.16 C0.88,12.23 0.81,12.32 0.77,12.43 C0.72,12.54 0.7,12.65 0.7,12.77 C0.7,12.99 0.79,13.19 0.95,13.37 C1.1,13.55 1.3,13.62 1.55,13.62 L7.83,13.62 C8.89,13.62 9.78,13.26 10.52,12.52 C11.29,11.78 11.67,10.9 11.71,9.84 L15.35,9.84 C15.48,10.16 15.64,10.45 15.89,10.7 C16.11,10.95 16.4,11.15 16.72,11.28 C17.03,11.42 17.37,11.51 17.73,11.51 C18.42,11.51 19.03,11.26 19.52,10.74 C20.01,10.23 20.26,9.64 20.26,8.92 C20.26,8.65 20.22,8.38 20.13,8.11 C20.04,7.84 19.92,7.62 19.77,7.39 C19.61,7.19 19.43,6.99 19.23,6.83 C19.03,6.68 18.78,6.54 18.53,6.47 C18.26,6.38 18.02,6.34 17.73,6.34 C17.37,6.34 17.01,6.41 16.67,6.56 C16.33,6.72 16.07,6.92 15.82,7.19 C15.57,7.46 15.42,7.75 15.3,8.09 L11.74,8.09 L11.74,6.88 C11.74,6.27 11.96,5.73 12.39,5.3 C12.81,4.88 13.33,4.65 13.96,4.65 L20.17,4.65 C20.26,5.01 20.42,5.37 20.62,5.69 C20.82,6 21.07,6.27 21.36,6.5 C21.65,6.72 21.97,6.9 22.32,7.04 C22.68,7.17 23.07,7.24 23.45,7.24 C24.39,7.24 25.17,6.9 25.85,6.23 C26.5,5.55 26.83,4.74 26.83,3.8 C26.83,2.85 26.5,2.05 25.82,1.37 C25.15,0.7 24.37,0.36 23.42,0.36 C22.64,0.36 21.94,0.61 21.34,1.08 C20.73,1.57 20.33,2.18 20.13,2.92 L13.93,2.92 C12.86,2.92 11.94,3.3 11.18,4.09 C10.41,4.85 10.03,5.8 10.03,6.88 L10.03,8.09 L1.55,8.09 C1.46,8.09 1.37,8.11 1.28,8.14 C1.19,8.16 1.13,8.2 1.06,8.27 C0.99,8.32 0.92,8.38 0.88,8.45 C0.83,8.52 0.79,8.61 0.77,8.7 C0.74,8.79 0.72,8.88 0.72,8.97 C0.72,9.19 0.81,9.39 0.97,9.57 C1.13,9.75 1.33,9.82 1.57,9.82 L10.05,9.82 C10.01,10.38 9.78,10.88 9.36,11.28 C8.89,11.71 8.39,11.91 7.83,11.91 L7.83,11.91 Z M1.55,17.76 L12.3,17.76 C12.43,18.07 12.59,18.36 12.84,18.61 C13.06,18.86 13.35,19.06 13.67,19.19 C13.98,19.33 14.32,19.42 14.67,19.42 C15.15,19.42 15.55,19.31 15.95,19.08 C16.33,18.86 16.65,18.54 16.87,18.14 C17.1,17.73 17.21,17.31 17.21,16.86 C17.21,16.14 16.96,15.53 16.47,15.04 C15.98,14.54 15.37,14.27 14.67,14.27 C14.11,14.27 13.62,14.43 13.17,14.77 C12.72,15.1 12.41,15.53 12.25,16.05 L1.55,16.05 C1.39,16.05 1.26,16.09 1.13,16.16 C0.99,16.23 0.9,16.34 0.81,16.47 C0.74,16.61 0.7,16.74 0.7,16.9 C0.7,17.06 0.74,17.19 0.81,17.33 C0.88,17.46 0.99,17.58 1.13,17.64 C1.26,17.73 1.39,17.76 1.55,17.76 L1.55,17.76 Z M23.45,25.51 C22.98,25.51 22.57,25.35 22.26,25.01 C21.92,24.68 21.76,24.27 21.76,23.8 C21.76,23.33 21.92,22.92 22.26,22.59 C22.59,22.25 23,22.07 23.45,22.07 C23.92,22.07 24.32,22.23 24.64,22.57 C24.97,22.9 25.13,23.31 25.13,23.78 C25.13,24.25 24.97,24.66 24.64,24.99 C24.32,25.33 23.92,25.51 23.45,25.51 Z M23.45,20.34 C22.93,20.34 22.44,20.45 21.99,20.68 C21.54,20.9 21.14,21.22 20.82,21.6 C20.51,21.98 20.28,22.43 20.15,22.92 L18.29,22.92 C17.12,22.92 16.02,22.68 14.97,22.16 L12.12,20.77 C11.85,20.63 11.56,20.52 11.2,20.41 C10.84,20.3 10.5,20.18 10.12,20.12 C9.76,20.03 9.4,19.96 9.02,19.91 C8.66,19.87 8.33,19.85 8.03,19.85 L1.55,19.85 C1.48,19.85 1.42,19.85 1.35,19.87 C1.28,19.89 1.24,19.91 1.17,19.94 C1.13,19.96 1.06,20 1.01,20.05 C0.97,20.09 0.92,20.14 0.88,20.18 C0.83,20.23 0.81,20.3 0.79,20.34 C0.77,20.41 0.74,20.45 0.72,20.52 C0.7,20.59 0.7,20.65 0.7,20.72 C0.7,20.95 0.79,21.15 0.95,21.33 C1.1,21.51 1.3,21.58 1.55,21.58 L8.1,21.58 C9.25,21.58 10.37,21.82 11.42,22.34 L14.27,23.73 C14.54,23.87 14.83,23.98 15.19,24.09 C15.55,24.21 15.89,24.32 16.27,24.39 C16.63,24.48 16.99,24.54 17.37,24.59 C17.73,24.63 18.06,24.66 18.35,24.66 L20.22,24.66 C20.35,25.15 20.57,25.6 20.89,25.98 C21.2,26.36 21.58,26.68 22.06,26.9 C22.5,27.13 23,27.24 23.51,27.24 C24.46,27.24 25.24,26.9 25.91,26.23 C26.56,25.55 26.9,24.75 26.9,23.8 C26.9,22.86 26.56,22.05 25.89,21.37 C25.17,20.68 24.39,20.34 23.45,20.34 L23.45,20.34 Z" id="Shape"></path>
            </g>
        </g>
    </g>
</svg>