<svg width="20px" height="20px" viewBox="0 0 41 41" xmlns="http://www.w3.org/2000/svg" xmlns:xlink="http://www.w3.org/1999/xlink">
    <g stroke="none" stroke-width="1" fill="none" fill-rule="evenodd">
        <g transform="translate(1.000000, 1.000000)">
            <g stroke="#00C1DE" stroke-width="1.6">
                <rect fill="#FFFFFF" fill-rule="nonzero" x="0.6" y="0.6" width="38.4" height="38.4" rx="8"></rect>
                <rect x="0.6" y="0.6" width="38.4" height="38.4" rx="8"></rect>
            </g>
            <g transform="translate(7.500000, 6.500000)" fill="#00C1DE" fill-rule="nonzero">
                <path d="M12.91,4.74 L12.91,4.74 C12.48,4.74 12.04,4.8 11.54,4.9 C11.04,5.01 10.56,5.15 10.08,5.34 C9.6,5.53 9.14,5.74 8.71,5.99 C8.27,6.24 7.89,6.51 7.58,6.79 L9.25,8.46 L8.96,9.76 L6.81,7.6 C6.27,8.23 5.81,9.07 5.44,10.09 C5.06,11.12 4.85,12.06 4.85,12.9 L4.85,12.92 C4.85,15.16 5.64,17.09 7.23,18.68 C8.81,20.27 10.73,21.06 12.96,21.06 C15.04,21.06 16.85,20.37 18.39,18.97 L16.81,17.38 L17.08,16.08 L19.16,18.18 C19.69,17.55 20.14,16.73 20.52,15.71 C20.89,14.68 21.08,13.76 21.08,12.94 L21.08,12.92 C21.08,10.66 20.29,8.73 18.71,7.14 C17.12,5.55 15.14,4.74 12.91,4.74 L12.91,4.74 Z M17.5,9.8 L12.37,9.8 L11.85,12.23 L16.33,12.23 L15.96,14.03 L11.5,14.03 L10.58,18.38 L8.29,18.38 L10.48,7.85 L17.94,7.85 L17.5,9.8 L17.5,9.8 Z M12.81,0.36 L12.81,0.36 L12.71,0.36 L12.71,0.38 L0.94,3.52 L1.62,16.04 C1.62,16.1 1.62,16.17 1.62,16.25 C1.62,16.33 1.64,16.48 1.64,16.71 C1.66,16.94 1.69,17.15 1.73,17.34 C1.77,17.55 1.81,17.76 1.87,18.01 C1.94,18.26 2.02,18.47 2.12,18.64 C2.6,19.54 3.23,20.42 4.02,21.27 C4.81,22.13 5.58,22.86 6.33,23.45 C7.08,24.04 7.91,24.62 8.83,25.17 C9.75,25.71 10.46,26.13 11,26.4 C11.54,26.67 12.06,26.93 12.6,27.16 L12.64,27.18 L12.73,27.22 L12.73,27.24 C12.73,27.24 12.75,27.24 12.77,27.22 C12.79,27.22 12.81,27.24 12.83,27.24 L12.83,27.2 C12.85,27.2 12.87,27.18 12.89,27.18 C12.91,27.18 12.94,27.16 12.94,27.16 C13.48,26.93 14,26.65 14.54,26.4 C15.08,26.13 15.79,25.71 16.71,25.17 C17.62,24.6 18.44,24.04 19.21,23.45 C19.96,22.86 20.73,22.13 21.52,21.27 C22.31,20.42 22.94,19.54 23.41,18.64 C23.79,17.95 23.98,17.07 23.98,16.02 L24.66,3.5 L12.81,0.36 L12.81,0.36 L12.81,0.36 Z M12.91,22.05 C11.27,22.05 9.75,21.65 8.33,20.83 C6.94,20.02 5.83,18.91 5.02,17.51 C4.21,16.1 3.81,14.57 3.81,12.9 C3.81,10.37 4.71,8.21 6.48,6.43 C8.25,4.65 10.39,3.75 12.91,3.75 C15.44,3.75 17.58,4.65 19.35,6.43 C21.12,8.21 22.02,10.37 22.02,12.9 C22.02,15.43 21.12,17.59 19.35,19.37 C17.58,21.15 15.44,22.05 12.91,22.05 L12.91,22.05 Z" id="Shape"></path>
            </g>
        </g>
    </g>
</svg>