<svg width="20px" height="20px" viewBox="0 0 41 41" xmlns="http://www.w3.org/2000/svg" xmlns:xlink="http://www.w3.org/1999/xlink">
    <g stroke="none" stroke-width="1" fill="none" fill-rule="evenodd">
        <g transform="translate(1.000000, 1.000000)">
            <g stroke="#00C1DE" stroke-width="1.6">
                <rect fill="#FFFFFF" fill-rule="nonzero" x="0.6" y="0.6" width="38.4" height="38.4" rx="8"></rect>
                <rect x="0.6" y="0.6" width="38.4" height="38.4" rx="8"></rect>
            </g>
            <g transform="translate(7.500000, 6.500000)" fill="#00C1DE" fill-rule="nonzero">
                <path d="M12.89,0.36 L12.89,0.36 L12.78,0.36 L12.78,0.36 L0.92,3.49 L1.6,16.01 C1.6,17.11 1.78,17.99 2.11,18.61 C2.6,19.52 3.24,20.4 4.01,21.26 C4.79,22.12 5.58,22.85 6.34,23.44 C7.09,24.04 7.93,24.61 8.84,25.17 C9.75,25.72 10.48,26.14 11.01,26.4 C11.54,26.67 12.09,26.93 12.62,27.17 C12.62,27.17 12.65,27.17 12.67,27.2 C12.71,27.22 12.73,27.22 12.76,27.22 L12.76,27.24 C12.76,27.24 12.78,27.24 12.8,27.22 C12.82,27.22 12.84,27.24 12.84,27.24 L12.84,27.22 L12.89,27.2 L12.93,27.17 C13.29,27.02 13.64,26.84 14,26.69 C14.35,26.51 14.81,26.27 15.41,25.96 C16.01,25.63 16.56,25.3 17.09,24.97 C17.62,24.64 18.2,24.22 18.84,23.75 C19.48,23.27 20.06,22.78 20.59,22.27 C21.12,21.77 21.65,21.22 22.16,20.58 C22.67,19.94 23.11,19.3 23.45,18.63 C23.6,18.35 23.71,17.99 23.8,17.55 C23.89,17.11 23.95,16.78 23.98,16.54 C24,16.29 24,16.14 24,16.03 L24.68,3.52 L12.89,0.36 L12.89,0.36 Z M5.81,19.94 L5.81,5.37 L19.4,5.37 L19.4,11.95 C18.97,11.7 18.51,11.53 18.05,11.42 L18.05,6.65 L7.07,6.65 L7.07,18.59 L12.58,18.59 C12.65,18.72 12.73,18.83 12.8,18.96 C12.87,19.1 12.98,19.21 13.07,19.32 C13.15,19.43 13.26,19.54 13.35,19.65 C13.46,19.76 13.55,19.85 13.69,19.96 L5.81,19.96 L5.81,19.94 Z M11.98,16.47 L8.95,16.47 L8.95,15.21 L12.09,15.21 C12.05,15.39 12.03,15.54 12,15.72 C11.98,15.9 11.98,16.05 11.98,16.23 C11.98,16.25 11.98,16.25 11.98,16.27 C11.98,16.29 11.98,16.29 11.98,16.32 C11.98,16.34 11.98,16.4 11.98,16.47 L11.98,16.47 Z M8.95,12.98 L8.95,11.7 L14.88,11.7 C14.61,11.84 14.3,12.01 13.97,12.26 C13.64,12.5 13.38,12.74 13.18,12.96 L8.95,12.96 L8.95,12.98 L8.95,12.98 Z M8.95,9.52 L8.95,8.24 L16.52,8.24 L16.52,9.52 L8.95,9.52 L8.95,9.52 Z M16.96,20.53 C15.77,20.53 14.77,20.11 13.93,19.27 C13.09,18.43 12.67,17.42 12.67,16.25 C12.67,15.48 12.87,14.75 13.24,14.09 C13.62,13.42 14.15,12.92 14.81,12.52 C15.48,12.12 16.19,11.95 16.96,11.95 C18.16,11.95 19.15,12.37 19.99,13.2 C20.83,14.04 21.25,15.06 21.25,16.23 C21.25,17.42 20.83,18.41 19.99,19.25 C19.15,20.09 18.13,20.53 16.96,20.53 L16.96,20.53 Z M16.96,13.09 C16.1,13.09 15.35,13.4 14.75,14.02 C14.13,14.64 13.82,15.37 13.82,16.23 C13.82,16.8 13.95,17.31 14.24,17.79 C14.53,18.28 14.9,18.66 15.39,18.94 C15.88,19.23 16.41,19.36 16.96,19.36 C17.82,19.36 18.58,19.05 19.17,18.43 C19.79,17.82 20.1,17.09 20.1,16.23 C20.1,15.65 19.97,15.15 19.68,14.66 C19.4,14.18 19.02,13.8 18.53,13.51 C18.05,13.25 17.54,13.09 16.96,13.09 L16.96,13.09 Z M18.42,17.93 L17.8,17.66 L17.54,18.28 L16.96,16.93 L16.41,18.28 L16.14,17.66 L15.52,17.93 L16.05,16.67 L15.37,15.52 L16.19,14.18 L17.82,14.18 L18.64,15.52 L17.91,16.71 L18.42,17.93 L18.42,17.93 L18.42,17.93 Z" id="Shape"></path>
            </g>
        </g>
    </g>
</svg>