<svg width="20px" height="20px" viewBox="0 0 41 41" xmlns="http://www.w3.org/2000/svg" xmlns:xlink="http://www.w3.org/1999/xlink">
    <g stroke="none" stroke-width="1" fill="none" fill-rule="evenodd">
        <g transform="translate(1.000000, 1.000000)">
            <g stroke="#00C1DE" stroke-width="1.6">
                <rect fill="#FFFFFF" fill-rule="nonzero" x="0.6" y="0.6" width="38.4" height="38.4" rx="8"></rect>
                <rect x="0.6" y="0.6" width="38.4" height="38.4" rx="8"></rect>
            </g>
            <g transform="translate(6.500000, 6.500000)" fill="#00C1DE" fill-rule="nonzero">
                <path d="M13.61,20.59 L6.67,17.45 L6.67,15.13 L13.61,18.26 L20.55,15.13 L20.55,17.45 L13.61,20.59 Z M6.67,13.57 L6.67,11.25 L13.61,14.39 L20.55,11.25 L20.55,13.57 L13.61,16.71 L6.67,13.57 Z M6.67,9.72 L13.61,6.58 L20.55,9.72 L13.61,12.88 L6.67,9.72 Z M4.46,8.03 L2.68,6.25 C1.15,8.52 0.38,11.03 0.36,13.78 C0.36,16.53 1.13,19.03 2.68,21.31 L4.46,19.53 C4.01,18.81 3.63,17.88 3.31,16.75 C3,15.63 2.84,14.66 2.84,13.8 L2.84,13.78 L2.84,13.75 C2.84,13.42 2.86,13.06 2.93,12.65 C2.97,12.24 3.06,11.84 3.15,11.41 C3.24,11 3.38,10.58 3.51,10.17 C3.65,9.76 3.81,9.38 3.97,9 C4.12,8.66 4.28,8.32 4.46,8.03 L4.46,8.03 Z M24.74,13.78 L24.74,13.78 C24.74,13.96 24.74,14.14 24.72,14.32 C24.69,14.5 24.67,14.7 24.65,14.9 C24.63,15.11 24.58,15.31 24.56,15.51 C24.54,15.72 24.47,15.92 24.42,16.15 C24.38,16.35 24.31,16.55 24.27,16.78 C24.2,16.98 24.15,17.18 24.09,17.39 C24.02,17.59 23.95,17.79 23.88,17.97 C23.82,18.17 23.73,18.36 23.66,18.54 C23.57,18.72 23.5,18.9 23.41,19.05 C23.32,19.21 23.23,19.37 23.14,19.53 L24.92,21.31 C25.66,20.2 26.23,19.03 26.63,17.75 C27.04,16.46 27.24,15.15 27.24,13.78 C27.24,11.03 26.47,8.52 24.92,6.25 L23.14,8.03 C23.59,8.75 23.97,9.67 24.29,10.8 C24.58,11.93 24.74,12.92 24.74,13.78 L24.74,13.78 Z M8.04,4.44 C9.8,3.36 11.72,2.82 13.79,2.82 C14.31,2.82 14.83,2.86 15.34,2.93 C15.86,3 16.36,3.11 16.83,3.25 C17.3,3.38 17.78,3.56 18.23,3.77 C18.68,3.97 19.11,4.19 19.53,4.46 L21.31,2.68 C20.37,2.05 19.17,1.51 17.71,1.04 C16.24,0.59 14.94,0.36 13.81,0.36 L13.79,0.36 L13.77,0.36 C13.38,0.36 13,0.38 12.55,0.45 C12.12,0.5 11.67,0.59 11.22,0.68 C10.77,0.77 10.32,0.9 9.87,1.04 C9.4,1.17 8.97,1.33 8.54,1.51 C8.11,1.67 7.71,1.87 7.32,2.07 C6.94,2.28 6.58,2.48 6.26,2.68 L8.04,4.44 Z M19.53,23.11 C18.68,23.63 17.78,24.04 16.81,24.33 C15.84,24.6 14.83,24.76 13.81,24.76 C11.74,24.76 9.82,24.22 8.07,23.14 L6.29,24.92 C8.56,26.45 11.06,27.24 13.81,27.24 C16.56,27.24 19.06,26.47 21.34,24.92 L19.53,23.11 Z M19.06,3.49 C19.06,3.72 19.11,3.92 19.22,4.13 C19.33,4.33 19.49,4.46 19.67,4.58 C19.85,4.69 20.08,4.73 20.3,4.73 C20.64,4.73 20.93,4.62 21.18,4.37 C21.43,4.13 21.54,3.83 21.54,3.49 C21.54,2.95 21.29,2.57 20.77,2.34 C20.62,2.28 20.44,2.25 20.28,2.25 C20.05,2.25 19.85,2.3 19.65,2.41 C19.47,2.52 19.31,2.68 19.2,2.86 C19.11,3.04 19.06,3.27 19.06,3.49 L19.06,3.49 Z M5.99,3.49 C5.99,3.72 6.04,3.92 6.15,4.13 C6.26,4.31 6.42,4.46 6.6,4.58 C6.78,4.69 7.01,4.73 7.23,4.73 C7.57,4.73 7.86,4.62 8.11,4.37 C8.36,4.13 8.47,3.83 8.47,3.49 C8.47,3.27 8.43,3.07 8.31,2.86 C8.2,2.68 8.04,2.52 7.86,2.41 C7.68,2.3 7.46,2.25 7.23,2.25 C6.89,2.25 6.6,2.37 6.35,2.62 C6.13,2.84 5.99,3.13 5.99,3.49 Z M22.67,7.08 C22.67,7.31 22.71,7.51 22.82,7.71 C22.94,7.91 23.09,8.05 23.27,8.16 C23.45,8.28 23.68,8.32 23.91,8.32 C24.24,8.32 24.54,8.21 24.78,7.96 C25.03,7.71 25.14,7.42 25.14,7.08 C25.14,6.54 24.9,6.16 24.38,5.93 C24.22,5.86 24.04,5.84 23.88,5.84 C23.66,5.84 23.45,5.88 23.25,6 C23.07,6.11 22.91,6.27 22.8,6.45 C22.73,6.65 22.67,6.85 22.67,7.08 L22.67,7.08 Z M22.82,20.34 C22.82,20.88 23.07,21.26 23.59,21.49 C23.75,21.56 23.93,21.58 24.09,21.58 C24.63,21.58 25.01,21.33 25.23,20.81 C25.3,20.66 25.32,20.47 25.32,20.32 C25.32,19.98 25.21,19.69 24.96,19.44 C24.72,19.19 24.42,19.08 24.09,19.08 C23.75,19.08 23.45,19.19 23.21,19.44 C22.96,19.71 22.82,20 22.82,20.34 L22.82,20.34 Z M2.41,7.08 C2.41,7.42 2.52,7.71 2.77,7.96 C3.02,8.21 3.31,8.32 3.65,8.32 C3.99,8.32 4.28,8.21 4.53,7.96 C4.78,7.71 4.89,7.42 4.89,7.08 C4.89,6.85 4.84,6.65 4.73,6.45 C4.62,6.27 4.46,6.11 4.28,6 C4.1,5.88 3.87,5.84 3.65,5.84 C3.31,5.84 3.02,5.95 2.77,6.2 C2.52,6.45 2.41,6.74 2.41,7.08 L2.41,7.08 Z M2.41,20.5 C2.41,20.84 2.52,21.13 2.77,21.38 C3.02,21.62 3.31,21.74 3.65,21.74 C4.19,21.74 4.57,21.49 4.8,20.97 C4.87,20.81 4.89,20.63 4.89,20.47 C4.89,20.14 4.78,19.84 4.53,19.6 C4.28,19.35 3.99,19.23 3.65,19.23 C3.31,19.23 3.02,19.35 2.77,19.6 C2.52,19.87 2.41,20.16 2.41,20.5 L2.41,20.5 Z M19.08,24.06 C19.08,24.4 19.2,24.69 19.44,24.94 C19.69,25.19 19.98,25.3 20.32,25.3 C20.48,25.3 20.66,25.28 20.8,25.21 C20.95,25.14 21.09,25.05 21.2,24.94 C21.31,24.83 21.4,24.69 21.47,24.53 C21.54,24.38 21.56,24.22 21.56,24.06 C21.56,23.52 21.31,23.14 20.8,22.91 C20.64,22.84 20.46,22.82 20.3,22.82 C20.17,22.82 20.03,22.84 19.92,22.89 C19.8,22.93 19.67,22.98 19.58,23.07 C19.47,23.14 19.4,23.23 19.31,23.34 C19.24,23.45 19.17,23.56 19.13,23.68 C19.11,23.79 19.08,23.93 19.08,24.06 L19.08,24.06 Z M6.02,24.06 C6.02,24.4 6.13,24.69 6.38,24.94 C6.62,25.19 6.92,25.3 7.25,25.3 C7.59,25.3 7.89,25.19 8.13,24.94 C8.38,24.69 8.49,24.4 8.49,24.06 C8.49,23.72 8.38,23.43 8.13,23.18 C7.89,22.93 7.59,22.82 7.25,22.82 C6.92,22.82 6.62,22.93 6.38,23.18 C6.13,23.41 6.02,23.7 6.02,24.06 L6.02,24.06 Z" id="Shape"></path>
            </g>
        </g>
    </g>
</svg>