<svg width="20px" height="20px" viewBox="0 0 41 41" xmlns="http://www.w3.org/2000/svg" xmlns:xlink="http://www.w3.org/1999/xlink">
    <g stroke="none" stroke-width="1" fill="none" fill-rule="evenodd">
        <g transform="translate(1.000000, 1.000000)">
            <g stroke="#00C1DE" stroke-width="1.6">
                <rect fill="#FFFFFF" fill-rule="nonzero" x="0.6" y="0.6" width="38.4" height="38.4" rx="8"></rect>
                <rect x="0.6" y="0.6" width="38.4" height="38.4" rx="8"></rect>
            </g>
            <g transform="translate(6.500000, 6.500000)" fill="#00C1DE" fill-rule="nonzero">
                <path d="M4.9,19.39 C4.9,19.15 4.85,18.92 4.77,18.66 L5.6,18.25 L5.37,17.78 L4.53,18.19 C4.43,18.04 4.3,17.89 4.13,17.74 C3.96,17.59 3.76,17.46 3.57,17.37 C3.36,17.26 3.16,17.2 2.99,17.18 L2.99,15.38 L2.46,15.38 L2.46,17.18 C1.88,17.22 1.41,17.46 1,17.91 C0.6,18.34 0.4,18.85 0.4,19.43 C0.4,20.05 0.62,20.59 1.07,21.02 C1.52,21.47 2.03,21.68 2.65,21.68 C3.36,21.68 3.93,21.4 4.38,20.85 L5.65,21.47 L5.88,21 L4.66,20.4 C4.7,20.29 4.75,20.18 4.79,20.1 C4.83,19.99 4.85,19.88 4.88,19.77 C4.9,19.6 4.9,19.5 4.9,19.39 L4.9,19.39 Z M2.46,10.51 L2.46,12.31 L2.99,12.31 L2.99,10.49 C3.25,10.44 3.53,10.34 3.83,10.14 C4.13,9.95 4.34,9.76 4.49,9.54 L5.37,9.97 L5.6,9.5 L4.75,9.07 C4.85,8.79 4.9,8.53 4.9,8.25 C4.9,8.15 4.88,8.02 4.85,7.87 C4.83,7.72 4.79,7.59 4.75,7.5 L5.86,6.95 L5.62,6.47 L4.51,7.03 C4.45,6.92 4.34,6.82 4.23,6.71 C4.13,6.6 4,6.52 3.87,6.43 C3.74,6.35 3.61,6.28 3.46,6.22 C3.31,6.15 3.18,6.11 3.04,6.07 C2.89,6.02 2.76,6.02 2.61,6.02 C1.99,6.02 1.45,6.24 1.02,6.69 C0.6,7.14 0.36,7.65 0.36,8.28 C0.36,8.64 0.45,9.01 0.64,9.33 C0.83,9.67 1.07,9.93 1.39,10.14 C1.75,10.36 2.09,10.46 2.46,10.51 L2.46,10.51 Z M22.75,8.25 C22.75,8.4 22.77,8.55 22.79,8.71 C22.81,8.86 22.87,9.01 22.92,9.13 L22.13,9.52 L22.36,9.99 L23.2,9.58 C23.37,9.8 23.58,9.99 23.9,10.16 C24.2,10.34 24.5,10.44 24.76,10.46 L24.76,12.22 L25.27,12.22 L25.27,10.46 C25.63,10.42 25.96,10.29 26.26,10.08 C26.56,9.86 26.79,9.58 26.96,9.26 C27.13,8.94 27.22,8.6 27.22,8.23 C27.22,7.31 26.81,6.65 26,6.24 C25.66,6.07 25.31,6 24.97,5.98 C24.86,5.98 24.76,6 24.63,6.02 C24.5,6.04 24.39,6.09 24.27,6.13 C24.16,6.17 24.03,6.22 23.92,6.28 C23.82,6.35 23.71,6.41 23.6,6.47 C23.49,6.54 23.41,6.62 23.32,6.71 C23.24,6.8 23.17,6.88 23.11,6.97 L22.13,6.47 L21.89,6.95 L22.87,7.44 C22.83,7.55 22.79,7.68 22.77,7.83 C22.77,8.02 22.75,8.15 22.75,8.25 L22.75,8.25 Z M13.59,16.11 L13.59,16.32 L14.12,16.32 L14.12,16.11 C14.42,16.06 14.72,15.96 15.04,15.76 C15.36,15.57 15.6,15.33 15.77,15.08 L17.07,15.72 L17.31,15.25 L16,14.6 C16.09,14.35 16.13,14.11 16.13,13.88 C16.13,13.75 16.11,13.64 16.09,13.51 C16.07,13.38 16.03,13.27 16,13.15 L17.33,12.5 L17.1,12.03 L15.79,12.67 C15.64,12.42 15.38,12.2 15.06,11.99 C14.74,11.79 14.44,11.67 14.14,11.64 L14.14,11.54 L13.61,11.54 L13.61,11.64 C13.41,11.67 13.22,11.73 13.01,11.82 C12.79,11.9 12.6,12.03 12.43,12.18 C12.26,12.33 12.11,12.48 12,12.63 L10.7,11.99 L10.46,12.46 L11.77,13.1 C11.68,13.36 11.62,13.62 11.62,13.88 C11.62,14.13 11.66,14.37 11.77,14.65 L10.46,15.29 L10.7,15.76 L12,15.12 C12.15,15.36 12.39,15.57 12.71,15.76 C13.01,15.96 13.31,16.06 13.59,16.11 L13.59,16.11 Z M13.59,19.37 L14.12,19.37 L14.12,21.53 L13.59,21.53 L13.59,19.37 Z M13.59,16.75 L14.12,16.75 L14.12,18.92 L13.59,18.92 L13.59,16.75 Z M13.59,8.92 L14.12,8.92 L14.12,11.09 L13.59,11.09 L13.59,8.92 Z M13.59,6.32 L14.12,6.32 L14.12,8.49 L13.59,8.49 L13.59,6.32 Z M2.46,12.74 L2.99,12.74 L2.99,14.9 L2.46,14.9 L2.46,12.74 L2.46,12.74 Z M24.76,12.7 L25.29,12.7 L25.29,14.86 L24.76,14.86 L24.76,12.7 Z M5.75,17.56 L7.7,16.6 L7.94,17.07 L5.99,18.04 L5.75,17.56 Z M8.11,16.43 L10.05,15.46 L10.29,15.93 L8.34,16.9 L8.11,16.43 Z M19.41,10.87 L19.64,11.34 L17.7,12.31 L17.46,11.84 L19.41,10.87 Z M19.79,10.68 L20.03,11.15 L21.98,10.19 L21.74,9.73 L19.79,10.68 Z M25.27,16.94 L25.27,15.31 L24.76,15.31 L24.76,16.94 C24.44,16.99 24.12,17.09 23.79,17.33 C23.45,17.54 23.22,17.8 23.07,18.08 L22.38,17.74 L22.15,18.21 L22.85,18.55 C22.83,18.64 22.81,18.74 22.79,18.85 C22.77,18.98 22.77,19.07 22.77,19.17 C22.77,19.65 22.9,20.07 23.15,20.44 L22.19,20.91 L22.42,21.38 L23.52,20.85 C23.62,20.95 23.77,21.04 23.94,21.13 C24.12,21.21 24.31,21.28 24.48,21.34 C24.67,21.38 24.84,21.43 24.99,21.43 L24.99,21.43 C25.4,21.43 25.78,21.32 26.13,21.13 C26.47,20.93 26.75,20.65 26.94,20.31 C27.13,19.97 27.24,19.58 27.24,19.17 L27.24,19.17 C27.24,18.81 27.15,18.47 26.98,18.14 C26.81,17.82 26.58,17.54 26.28,17.33 C25.98,17.11 25.63,16.99 25.27,16.94 L25.27,16.94 Z M7.7,11.11 L7.94,10.64 L5.99,9.67 L5.75,10.14 L7.7,11.11 Z M10.27,11.79 L10.03,12.27 L8.09,11.3 L8.32,10.83 L10.27,11.79 Z M19.64,16.39 L17.7,15.42 L17.46,15.89 L19.41,16.86 L19.64,16.39 Z M21.98,17.52 L20.03,16.58 L19.79,17.05 L21.74,18.02 L21.98,17.52 Z M19.41,5.17 L17.46,4.2 L17.22,4.67 L19.17,5.64 L19.41,5.17 Z M21.74,6.32 L19.79,5.36 L19.56,5.83 L21.5,6.8 L21.74,6.32 Z M6.03,21.62 L7.98,22.58 L8.21,22.11 L6.27,21.15 L6.03,21.62 Z M8.39,22.78 L10.33,23.74 L10.57,23.27 L8.62,22.31 L8.39,22.78 Z M8.21,5.81 L7.98,5.34 L6.03,6.3 L6.27,6.77 L8.21,5.81 Z M10.33,4.18 L10.57,4.65 L8.62,5.62 L8.39,5.14 L10.33,4.18 Z M10.95,4.46 L12.05,3.92 C12.43,4.44 12.94,4.74 13.59,4.82 L13.59,5.87 L14.12,5.87 L14.12,4.82 C14.4,4.8 14.68,4.69 14.98,4.52 C15.28,4.35 15.51,4.16 15.66,3.94 L16.84,4.52 L17.07,4.05 L15.94,3.49 C15.98,3.38 16.03,3.23 16.07,3.06 C16.11,2.89 16.11,2.74 16.11,2.61 C16.11,2.2 16,1.82 15.81,1.48 C15.62,1.13 15.34,0.85 15,0.66 C14.66,0.47 14.27,0.36 13.86,0.36 C13.24,0.36 12.71,0.57 12.28,1.03 C11.85,1.48 11.62,1.99 11.62,2.61 C11.62,2.91 11.68,3.21 11.79,3.49 L10.72,4.01 L10.95,4.46 Z M17.12,23.4 L15.83,24.02 C15.68,23.74 15.45,23.49 15.11,23.25 C14.76,23.01 14.44,22.89 14.12,22.84 L14.12,21.96 L13.59,21.96 L13.59,22.84 C12.86,22.93 12.3,23.29 11.94,23.91 L10.95,23.42 L10.72,23.89 L11.72,24.39 C11.66,24.6 11.62,24.84 11.62,25.05 C11.64,25.65 11.85,26.17 12.3,26.6 C12.75,27.03 13.26,27.24 13.86,27.24 C14.46,27.24 15,27.03 15.43,26.6 C15.85,26.17 16.09,25.65 16.11,25.05 C16.11,24.86 16.09,24.67 16.03,24.49 L17.35,23.85 L17.12,23.4 Z M17.5,23.21 L17.74,23.68 L19.69,22.71 L19.45,22.24 L17.5,23.21 Z M19.86,22.05 L20.09,22.52 L22.04,21.56 L21.8,21.08 L19.86,22.05 Z" id="Shape"></path>
            </g>
        </g>
    </g>
</svg>