<svg width="20px" height="20px" viewBox="0 0 41 41" xmlns="http://www.w3.org/2000/svg" xmlns:xlink="http://www.w3.org/1999/xlink">
    <g stroke="none" stroke-width="1" fill="none" fill-rule="evenodd">
        <g transform="translate(1.000000, 1.000000)">
            <g stroke="#00C1DE" stroke-width="1.6">
                <rect fill="#FFFFFF" fill-rule="nonzero" x="0.6" y="0.6" width="38.4" height="38.4" rx="8"></rect>
                <rect x="0.6" y="0.6" width="38.4" height="38.4" rx="8"></rect>
            </g>
            <g transform="translate(6.500000, 6.500000)" fill="#00C1DE" fill-rule="nonzero">
                <path d="M13.63,16.24 C14.12,16.24 14.57,16.2 15.04,16.14 C15.48,16.05 15.89,15.94 16.27,15.8 C16.63,15.65 16.95,15.48 17.23,15.31 C17.51,15.12 17.72,14.9 17.87,14.67 C18.02,14.44 18.1,14.18 18.1,13.95 C18.1,13.61 17.97,13.29 17.74,12.99 C17.4,13.4 16.87,13.72 16.12,13.97 C15.38,14.22 14.57,14.35 13.69,14.35 C13.1,14.35 12.52,14.29 11.99,14.18 C11.46,14.05 10.97,13.91 10.58,13.69 C10.2,13.48 9.88,13.25 9.65,12.99 C9.52,13.14 9.43,13.29 9.37,13.44 C9.31,13.61 9.28,13.76 9.28,13.93 C9.26,14.56 9.69,15.12 10.54,15.56 C11.39,16.01 12.42,16.24 13.63,16.24 L13.63,16.24 Z M13.71,8.36 C14.99,8.36 16.08,8.6 16.99,9.07 C17.89,9.53 18.36,10.11 18.36,10.76 C18.36,11.08 18.23,11.4 18,11.7 C17.76,12 17.42,12.25 17.02,12.46 C16.61,12.67 16.1,12.84 15.55,12.97 C14.97,13.1 14.38,13.16 13.74,13.16 C12.46,13.16 11.37,12.93 10.46,12.46 C9.56,12 9.09,11.42 9.09,10.76 C9.09,10.11 9.54,9.53 10.46,9.07 C11.35,8.6 12.44,8.36 13.71,8.36 L13.71,8.36 Z M13.71,17.39 C12.78,17.39 11.93,17.26 11.16,16.98 C10.37,16.71 9.8,16.37 9.41,15.94 C9.28,16.09 9.2,16.24 9.14,16.39 C9.07,16.56 9.05,16.71 9.05,16.88 C9.05,17.54 9.5,18.11 10.41,18.58 C11.33,19.04 12.42,19.28 13.69,19.28 C14.97,19.28 16.06,19.04 16.97,18.58 C17.87,18.11 18.34,17.54 18.34,16.88 C18.34,16.54 18.21,16.22 17.97,15.92 C17.63,16.35 17.08,16.69 16.31,16.96 C15.5,17.26 14.65,17.39 13.71,17.39 L13.71,17.39 Z M27.03,13.35 C26.86,13.18 26.66,13.1 26.41,13.1 L23.51,13.1 C23.3,10.72 22.34,8.66 20.64,6.92 C18.93,5.2 16.89,4.2 14.52,3.99 L14.35,3.99 L14.35,1.32 C14.35,1.15 14.31,0.98 14.25,0.83 C14.18,0.68 14.08,0.57 13.95,0.49 C13.82,0.4 13.67,0.36 13.52,0.36 C13.35,0.36 13.22,0.4 13.1,0.47 C12.97,0.55 12.88,0.66 12.8,0.81 C12.74,0.95 12.69,1.12 12.69,1.32 L12.69,3.99 C12.61,3.99 12.56,4.01 12.52,4.03 L12.44,4.03 C12.39,4.03 12.33,4.05 12.27,4.05 C12.2,4.05 12.14,4.08 12.1,4.08 C12.05,4.08 11.99,4.08 11.9,4.1 C11.84,4.1 11.78,4.12 11.71,4.12 L11.46,4.12 C11.37,4.12 11.31,4.14 11.24,4.16 L11.2,4.16 C11.14,4.16 11.09,4.18 11.07,4.2 C11.01,4.2 10.99,4.22 10.99,4.25 L10.9,4.25 C10.86,4.27 10.8,4.27 10.71,4.29 C10.63,4.31 10.56,4.31 10.52,4.33 L10.48,4.37 C9.84,4.59 9.24,4.82 8.71,5.12 C8.69,5.12 8.65,5.14 8.58,5.2 C8.56,5.2 8.56,5.2 8.54,5.22 C8.52,5.24 8.52,5.24 8.5,5.24 C8.48,5.26 8.45,5.26 8.41,5.29 C8.37,5.31 8.35,5.31 8.33,5.33 L8.11,5.46 C8.09,5.48 8.07,5.48 8.05,5.5 C8.03,5.52 8.01,5.52 7.99,5.54 C6.71,6.37 5.66,7.43 4.88,8.77 C4.09,10.11 3.62,11.53 3.47,13.08 L1.32,13.08 C1.04,13.08 0.83,13.16 0.64,13.31 C0.47,13.46 0.36,13.67 0.36,13.91 C0.36,14.03 0.38,14.14 0.42,14.25 C0.47,14.35 0.53,14.44 0.62,14.5 C0.7,14.56 0.81,14.63 0.91,14.67 C1.04,14.71 1.17,14.73 1.3,14.73 L3.62,14.73 C3.81,17.2 4.77,19.3 6.49,21.06 C8.22,22.82 10.31,23.8 12.71,24.01 L12.71,26.28 C12.71,26.56 12.8,26.77 12.95,26.96 C13.1,27.16 13.31,27.24 13.54,27.24 C13.8,27.24 13.99,27.16 14.14,26.99 C14.29,26.82 14.38,26.58 14.38,26.31 L14.38,24.08 C16.8,23.86 18.89,22.89 20.62,21.13 C22.36,19.36 23.32,17.26 23.51,14.8 L26.37,14.8 C26.47,14.8 26.56,14.78 26.64,14.76 C26.73,14.73 26.81,14.69 26.88,14.65 C26.94,14.61 27.01,14.54 27.07,14.48 C27.11,14.42 27.15,14.35 27.2,14.27 C27.24,14.18 27.24,14.12 27.24,14.03 C27.22,13.69 27.15,13.48 27.03,13.35 L27.03,13.35 Z M13.54,5.71 C15.84,5.71 17.78,6.52 19.4,8.15 C21.02,9.79 21.81,11.76 21.81,14.08 C21.81,15.2 21.6,16.28 21.15,17.32 C20.7,18.36 20.13,19.26 19.38,20 C18.63,20.74 17.76,21.34 16.74,21.78 C15.72,22.23 14.65,22.44 13.52,22.44 C11.22,22.44 9.28,21.63 7.67,20 C6.05,18.36 5.26,16.39 5.26,14.08 C5.26,11.76 6.07,9.79 7.69,8.15 C9.33,6.54 11.27,5.71 13.54,5.71 L13.54,5.71 Z" id="Shape"></path>
            </g>
        </g>
    </g>
</svg>