<svg width="20px" height="20px" viewBox="0 0 41 41" xmlns="http://www.w3.org/2000/svg" xmlns:xlink="http://www.w3.org/1999/xlink">
    <g stroke="none" stroke-width="1" fill="none" fill-rule="evenodd">
        <g transform="translate(1.000000, 1.000000)">
            <g stroke="#00C1DE" stroke-width="1.6">
                <rect fill="#FFFFFF" fill-rule="nonzero" x="0.6" y="0.6" width="38.4" height="38.4" rx="8"></rect>
                <rect x="0.6" y="0.6" width="38.4" height="38.4" rx="8"></rect>
            </g>
            <g transform="translate(6.500000, 8.500000)" fill="#00C1DE" fill-rule="nonzero">
                <path d="M19.83,10.04 L19.83,10.04 C20.14,10.04 20.4,10.12 20.64,10.26 C20.88,10.4 21.09,10.6 21.23,10.84 C21.37,11.09 21.45,11.35 21.45,11.65 C21.45,12.09 21.29,12.47 20.98,12.78 C20.66,13.08 20.3,13.24 19.85,13.24 L19.85,13.24 L19.85,13.24 C19.71,13.24 19.57,13.22 19.43,13.18 C19.29,13.14 19.17,13.08 19.05,13.02 C18.93,12.96 18.82,12.86 18.72,12.78 C18.62,12.68 18.54,12.57 18.48,12.45 C18.42,12.33 18.36,12.21 18.32,12.07 C18.28,11.93 18.26,11.79 18.26,11.65 C18.26,11.21 18.42,10.82 18.72,10.52 C19.01,10.2 19.39,10.04 19.83,10.04 L19.83,10.04 Z M25.59,12.61 C25.48,12.61 25.38,12.59 25.3,12.55 C25.22,12.51 25.14,12.47 25.08,12.41 C25.02,12.35 24.96,12.27 24.92,12.19 C24.88,12.11 24.86,12.01 24.86,11.91 C24.86,11.71 24.92,11.55 25.06,11.41 C25.2,11.27 25.36,11.21 25.57,11.21 C25.67,11.21 25.77,11.23 25.85,11.27 C25.93,11.31 26.01,11.35 26.07,11.41 C26.13,11.47 26.19,11.55 26.23,11.63 C26.27,11.71 26.29,11.81 26.29,11.91 C26.29,12.11 26.21,12.27 26.07,12.41 C25.95,12.55 25.77,12.61 25.59,12.61 L25.59,12.61 Z M25.59,10.28 C25.4,10.28 25.22,10.3 25.06,10.36 C24.9,10.42 24.74,10.5 24.6,10.6 C24.46,10.7 24.33,10.82 24.23,10.94 C24.13,11.09 24.05,11.23 23.99,11.39 C23.93,11.55 23.91,11.73 23.91,11.89 C23.91,12.17 23.99,12.45 24.13,12.7 C24.27,12.94 24.48,13.14 24.72,13.28 C24.29,15.9 23.06,18.09 21,19.86 C18.95,21.63 16.54,22.52 13.82,22.52 C11.54,22.52 9.5,21.93 7.67,20.76 C5.85,19.6 4.5,18.05 3.65,16.08 L2.62,16.08 C3.49,18.31 4.92,20.1 6.96,21.43 C8.98,22.76 11.28,23.42 13.82,23.42 C16.79,23.42 19.39,22.48 21.61,20.6 C23.83,18.73 25.18,16.38 25.65,13.58 C26.09,13.56 26.47,13.4 26.78,13.08 C27.08,12.76 27.24,12.37 27.24,11.93 C27.24,11.47 27.08,11.07 26.76,10.74 C26.43,10.44 26.05,10.28 25.59,10.28 L25.59,10.28 Z M2.03,12.61 C1.83,12.61 1.67,12.55 1.53,12.41 C1.39,12.27 1.33,12.11 1.33,11.91 C1.33,11.71 1.39,11.55 1.53,11.41 C1.67,11.27 1.83,11.21 2.03,11.21 C2.24,11.21 2.4,11.27 2.54,11.41 C2.68,11.55 2.74,11.71 2.74,11.91 C2.74,12.11 2.68,12.27 2.54,12.41 C2.4,12.55 2.24,12.61 2.03,12.61 Z M3.71,11.93 C3.71,11.67 3.63,11.39 3.45,11.11 C3.29,10.82 3.08,10.62 2.84,10.5 C3.14,7.81 4.34,5.57 6.41,3.78 C8.49,1.99 10.95,1.1 13.8,1.1 L13.82,1.1 L13.84,1.1 C15.96,1.1 18.02,1.81 20.04,3.2 C22.05,4.59 23.43,6.28 24.15,8.27 L25.16,8.27 C24.35,5.77 22.94,3.8 20.88,2.35 C18.82,0.9 16.46,0.18 13.8,0.18 C11.78,0.18 9.91,0.62 8.17,1.51 C6.43,2.39 5.02,3.62 3.91,5.19 C2.8,6.74 2.16,8.47 1.91,10.38 C1.69,10.4 1.49,10.44 1.31,10.54 C1.13,10.62 0.95,10.74 0.8,10.88 C0.66,11.03 0.56,11.19 0.48,11.39 C0.4,11.59 0.36,11.79 0.36,11.99 C0.36,12.43 0.52,12.82 0.84,13.14 C1.17,13.46 1.57,13.62 2.01,13.62 C2.48,13.6 2.88,13.44 3.23,13.12 C3.55,12.76 3.71,12.37 3.71,11.93 L3.71,11.93 Z M11.82,9.78 L10.85,9.78 L10.85,10.72 L9.76,10.72 L9.76,9.78 L8.8,9.78 L8.8,8.71 L9.76,8.71 L9.76,7.77 L10.85,7.77 L10.85,8.71 L11.82,8.71 L11.82,9.78 L11.82,9.78 Z M19.75,7.14 C19.15,6.24 18.24,5.45 17.03,4.81 C15.82,4.16 14.67,3.84 13.58,3.84 L13.56,3.84 C11.5,3.84 9.74,4.57 8.31,5.99 C6.86,7.42 6.13,9.15 6.13,11.17 C6.13,13.18 6.86,14.91 8.31,16.34 C9.76,17.77 11.52,18.49 13.56,18.49 C14.37,18.49 15.13,18.37 15.9,18.13 C16.65,17.89 17.33,17.55 17.96,17.08 C18.56,16.64 19.11,16.12 19.55,15.49 L15.41,11.41 L19.75,7.14 Z" id="Shape"></path>
            </g>
        </g>
    </g>
</svg>