<svg width="20px" height="20px" viewBox="0 0 41 41" xmlns="http://www.w3.org/2000/svg" xmlns:xlink="http://www.w3.org/1999/xlink">
    <g stroke="none" stroke-width="1" fill="none" fill-rule="evenodd">
        <g transform="translate(1.000000, 1.000000)">
            <g stroke="#00C1DE" stroke-width="1.6">
                <rect fill="#FFFFFF" fill-rule="nonzero" x="0.6" y="0.6" width="38.4" height="38.4" rx="8"></rect>
                <rect x="0.6" y="0.6" width="38.4" height="38.4" rx="8"></rect>
            </g>
            <g transform="translate(6.500000, 6.500000)" fill="#00C1DE" fill-rule="nonzero">
                <path d="M18.17,19.8 C17.86,19.39 17.49,19.06 17.01,18.8 C16.53,18.54 16.09,18.43 15.66,18.43 L11.94,18.43 C11.51,18.43 11.05,18.56 10.59,18.8 C10.11,19.06 9.74,19.39 9.43,19.8 L7.9,21.91 C7.48,22.48 7.18,23.06 6.96,23.7 C6.74,24.33 6.63,24.89 6.65,25.41 C6.65,25.94 6.83,26.37 7.13,26.72 C7.44,27.07 7.88,27.24 8.47,27.24 L19.18,27.24 C19.94,27.24 20.47,26.96 20.75,26.37 C21.03,25.8 21.08,25.11 20.86,24.28 C20.66,23.46 20.27,22.67 19.72,21.91 L18.17,19.8 Z M13.82,0.36 C11.42,0.36 9.21,0.95 7.18,2.12 C5.15,3.3 3.53,4.91 2.35,6.93 C1.17,8.95 0.58,11.15 0.58,13.54 L0.58,13.56 C0.58,15.8 1.3,18.13 2.76,20.54 C3.57,21.87 4.45,22.91 5.36,23.67 C5.45,23.46 5.54,23.24 5.65,23.04 C5.76,22.85 5.87,22.63 5.98,22.41 C5.82,22.28 5.67,22.13 5.5,21.96 C5.32,21.78 5.15,21.59 4.97,21.41 C4.8,21.22 4.64,21.06 4.53,20.91 C4.73,20.85 4.95,20.76 5.23,20.65 C5.52,20.56 5.74,20.48 5.93,20.41 C6.04,20.8 6.19,21.28 6.37,21.8 C6.41,21.76 6.41,21.72 6.44,21.72 L6.85,21.15 C6.76,20.89 6.68,20.59 6.57,20.24 C6.72,20.19 6.92,20.15 7.13,20.09 C7.35,20.02 7.55,19.98 7.72,19.93 L8.31,19.11 C8.05,19.17 7.72,19.24 7.35,19.32 C6.98,19.41 6.65,19.5 6.39,19.58 C6.04,18.17 5.8,16.74 5.69,15.28 C5.95,15.24 6.22,15.13 6.46,14.95 C6.7,14.78 6.89,14.58 7.07,14.32 C7.24,14.08 7.33,13.82 7.38,13.56 L10.08,13.56 C10.08,13.58 10.08,13.6 10.08,13.63 C10.08,13.65 10.08,13.67 10.08,13.69 L10.08,13.69 C10.08,14.37 10.26,14.97 10.59,15.54 C10.92,16.11 11.37,16.56 11.94,16.89 C12.51,17.21 13.12,17.39 13.8,17.39 L13.8,17.39 L13.8,17.39 C14.48,17.39 15.09,17.21 15.66,16.89 C16.23,16.56 16.68,16.11 17.01,15.54 C17.34,14.97 17.52,14.37 17.52,13.69 L17.52,13.69 L17.52,13.69 L17.52,13.56 L20.29,13.56 C20.31,13.76 20.38,13.95 20.49,14.15 C20.6,14.34 20.73,14.52 20.86,14.67 C21.01,14.82 21.19,14.95 21.36,15.06 C21.56,15.17 21.75,15.24 21.95,15.28 C21.84,16.74 21.6,18.19 21.23,19.63 C20.97,19.54 20.66,19.45 20.29,19.37 C19.92,19.28 19.59,19.19 19.33,19.13 L19.92,19.95 C20.31,20.04 20.68,20.15 21.08,20.26 C21.03,20.43 20.95,20.74 20.79,21.17 L21.19,21.72 L21.25,21.82 C21.3,21.72 21.34,21.61 21.36,21.48 C21.41,21.37 21.43,21.26 21.47,21.13 C21.51,21.02 21.54,20.91 21.58,20.78 C21.62,20.67 21.65,20.54 21.69,20.43 C22.15,20.59 22.61,20.74 23.04,20.91 C22.83,21.17 22.61,21.43 22.37,21.67 C22.13,21.91 21.89,22.15 21.62,22.39 C21.86,22.8 22.08,23.22 22.26,23.65 C23.74,22.41 24.9,20.91 25.75,19.17 C26.61,17.41 27.02,15.54 27.02,13.54 C27.02,11.15 26.43,8.95 25.25,6.93 C24.07,4.91 22.45,3.3 20.42,2.12 C18.43,0.95 16.23,0.36 13.82,0.36 L13.82,0.36 L13.82,0.36 Z M25.67,12.89 L24.38,12.89 C24.31,12.5 24.09,12.13 23.77,11.8 C23.44,11.47 23.07,11.28 22.67,11.23 C22.54,9.54 22.24,7.88 21.78,6.25 C21.86,6.23 21.95,6.19 22.04,6.17 C22.13,6.14 22.21,6.1 22.32,6.08 C22.41,6.06 22.5,6.01 22.59,5.99 C22.67,5.97 22.76,5.93 22.85,5.88 C23.57,6.71 24.2,7.82 24.75,9.19 C25.3,10.56 25.6,11.8 25.67,12.89 L25.67,12.89 Z M22.37,5.36 C22.21,5.43 21.95,5.51 21.58,5.62 C21.51,5.43 21.45,5.19 21.34,4.91 C21.25,4.62 21.16,4.41 21.08,4.21 C21.54,4.56 21.97,4.95 22.37,5.36 L22.37,5.36 Z M20.14,3.56 C20.44,4.3 20.71,5.06 20.95,5.82 C20.27,6.01 19.42,6.19 18.43,6.38 C17.45,6.56 16.6,6.69 15.88,6.73 C15.85,6.45 15.77,6.17 15.61,5.91 C15.46,5.64 15.26,5.41 15.02,5.21 C14.78,5.01 14.52,4.91 14.24,4.84 L14.24,1.75 C14.83,1.77 15.48,1.86 16.2,2.03 C16.95,2.21 17.65,2.43 18.35,2.69 C19.04,2.95 19.66,3.25 20.14,3.56 L20.14,3.56 Z M13.82,8.21 C13.45,8.21 13.12,8.08 12.86,7.82 C12.6,7.56 12.47,7.23 12.47,6.86 C12.49,6.49 12.62,6.19 12.88,5.93 C13.14,5.67 13.47,5.54 13.84,5.54 C14.22,5.54 14.52,5.67 14.81,5.93 C15.09,6.19 15.22,6.49 15.22,6.86 C15.22,7.23 15.09,7.56 14.83,7.82 C14.52,8.08 14.19,8.21 13.82,8.21 L13.82,8.21 Z M7.59,3.49 C8.1,3.19 8.69,2.9 9.41,2.64 C10.11,2.38 10.83,2.17 11.57,2.01 C12.31,1.86 12.97,1.77 13.56,1.75 L13.56,4.82 C13.25,4.86 12.97,4.97 12.71,5.17 C12.45,5.36 12.23,5.58 12.05,5.86 C11.88,6.14 11.79,6.43 11.77,6.73 C10.08,6.6 8.42,6.3 6.78,5.84 C7.03,5.08 7.29,4.3 7.62,3.51 L7.59,3.49 Z M6.7,4.12 C6.5,4.62 6.33,5.12 6.17,5.64 C5.85,5.54 5.56,5.45 5.3,5.36 C5.34,5.32 5.39,5.27 5.43,5.23 C5.47,5.19 5.52,5.14 5.58,5.1 C5.63,5.06 5.69,5.01 5.74,4.95 C5.78,4.91 5.85,4.84 5.91,4.8 C5.98,4.75 6.02,4.69 6.09,4.64 C6.15,4.6 6.19,4.56 6.26,4.49 C6.33,4.45 6.37,4.41 6.44,4.36 C6.5,4.32 6.54,4.27 6.59,4.23 C6.59,4.19 6.63,4.14 6.7,4.12 L6.7,4.12 Z M4.82,5.86 C5.17,5.99 5.54,6.12 5.98,6.25 C5.52,7.88 5.21,9.54 5.06,11.23 C4.8,11.28 4.53,11.36 4.29,11.54 C4.05,11.69 3.83,11.91 3.66,12.15 C3.49,12.39 3.38,12.63 3.33,12.89 L1.98,12.89 C2.06,11.13 2.68,9.28 3.77,7.36 C4.12,6.78 4.47,6.28 4.82,5.86 L4.82,5.86 Z M4.14,20.39 C3.75,19.85 3.38,19.15 3.05,18.35 C2.72,17.54 2.44,16.71 2.24,15.87 C2.04,15.02 1.96,14.26 1.93,13.58 L3.33,13.58 C3.4,14 3.59,14.37 3.92,14.69 C4.25,15.02 4.62,15.24 5.04,15.3 C5.15,16.82 5.41,18.32 5.78,19.8 C5.23,19.98 4.69,20.17 4.14,20.39 L4.14,20.39 Z M5.36,14.65 C5.17,14.65 4.99,14.6 4.84,14.54 C4.67,14.47 4.53,14.37 4.4,14.26 C4.27,14.13 4.18,14 4.12,13.82 C4.05,13.65 4.01,13.47 4.01,13.3 C4.01,13.06 4.08,12.82 4.18,12.6 C4.32,12.39 4.47,12.23 4.69,12.1 C4.91,11.97 5.12,11.93 5.39,11.93 C5.76,11.93 6.09,12.06 6.37,12.32 C6.63,12.58 6.76,12.91 6.76,13.3 C6.76,13.67 6.63,14 6.37,14.26 C6.06,14.5 5.74,14.65 5.36,14.65 L5.36,14.65 Z M7.4,12.89 C7.35,12.63 7.24,12.39 7.09,12.15 C6.94,11.91 6.72,11.71 6.48,11.54 C6.24,11.36 6,11.28 5.74,11.23 C5.8,10.43 5.91,9.62 6.04,8.82 C6.19,8.02 6.37,7.23 6.59,6.45 C7.29,6.65 8.16,6.86 9.19,7.04 C10.22,7.23 11.09,7.34 11.83,7.41 C11.94,7.75 12.16,8.08 12.49,8.36 C12.82,8.65 13.17,8.82 13.54,8.86 L13.54,10.02 C12.77,10.08 12.07,10.39 11.42,10.95 C10.76,11.52 10.35,12.15 10.19,12.89 L7.4,12.89 L7.4,12.89 Z M20.31,12.89 L17.45,12.89 C17.3,12.19 16.9,11.56 16.27,10.99 C15.64,10.43 14.96,10.12 14.24,10.04 L14.24,8.84 C14.46,8.8 14.67,8.71 14.89,8.56 C15.11,8.41 15.31,8.23 15.46,8.04 C15.61,7.84 15.74,7.62 15.79,7.41 C16.53,7.34 17.43,7.23 18.48,7.04 C19.53,6.84 20.4,6.65 21.12,6.45 C21.56,8.02 21.84,9.62 21.97,11.26 C21.3,11.39 20.82,11.78 20.47,12.45 C20.4,12.6 20.36,12.76 20.31,12.89 L20.31,12.89 Z M20.97,13.28 C20.97,13.04 21.03,12.8 21.14,12.58 C21.27,12.36 21.43,12.21 21.65,12.08 C21.86,11.95 22.08,11.91 22.34,11.91 C22.72,11.91 23.04,12.04 23.31,12.3 C23.57,12.56 23.7,12.89 23.7,13.28 C23.7,13.52 23.63,13.76 23.52,13.97 C23.39,14.19 23.24,14.34 23.02,14.47 C22.8,14.6 22.59,14.65 22.32,14.65 C21.95,14.65 21.62,14.52 21.36,14.26 C21.1,13.97 20.97,13.65 20.97,13.28 L20.97,13.28 Z M21.89,19.82 C22.28,18.35 22.54,16.82 22.65,15.3 C23.07,15.24 23.44,15.04 23.77,14.69 C24.09,14.37 24.31,13.97 24.36,13.56 L25.64,13.56 C25.64,14.6 25.43,15.78 24.99,17.13 C24.55,18.45 24.03,19.54 23.44,20.39 C22.96,20.19 22.43,20 21.89,19.82 L21.89,19.82 Z" id="Shape"></path>
            </g>
        </g>
    </g>
</svg>