<svg width="20px" height="20px" viewBox="0 0 41 41" xmlns="http://www.w3.org/2000/svg" xmlns:xlink="http://www.w3.org/1999/xlink">
    <g stroke="none" stroke-width="1" fill="none" fill-rule="evenodd">
        <g transform="translate(1.000000, 1.000000)">
            <g stroke="#00C1DE" stroke-width="1.6">
                <rect fill="#FFFFFF" fill-rule="nonzero" x="0.6" y="0.6" width="38.4" height="38.4" rx="8"></rect>
                <rect x="0.6" y="0.6" width="38.4" height="38.4" rx="8"></rect>
            </g>
            <g transform="translate(6.500000, 6.500000)" fill="#1ABFDE" fill-rule="nonzero">
                <path d="M7.77,15.82 C6.96,16.2 6.03,16.6 5.03,17.03 C4.03,17.43 2.89,17.89 1.58,18.38 C1.47,17.6 1.07,17 0.36,16.57 C1.26,16.41 2.1,16.22 2.89,16.01 C3.67,15.79 4.43,15.58 5.14,15.31 C5.84,15.04 6.55,14.74 7.23,14.42 C7.91,14.1 8.61,13.72 9.35,13.29 C10.35,12.72 11.22,12.18 11.98,11.62 C12.74,11.08 13.34,10.46 13.8,9.79 C14.1,10.08 14.34,10.35 14.59,10.52 C14.83,10.7 15.05,10.81 15.29,10.87 C15.46,10.89 15.54,11 15.51,11.13 C15.48,11.27 15.4,11.35 15.24,11.35 C15.08,11.35 14.89,11.38 14.72,11.43 C15.84,12.18 16.9,12.83 17.9,13.37 C18.9,13.91 19.91,14.39 20.91,14.77 C21.92,15.15 22.92,15.44 23.95,15.68 C24.99,15.93 26.07,16.14 27.24,16.3 C26.94,16.65 26.72,16.95 26.56,17.22 C26.4,17.49 26.26,17.81 26.1,18.19 C24.9,17.87 23.79,17.49 22.76,17.11 C21.7,16.71 20.7,16.3 19.72,15.85 L19.72,17.25 C19.15,17.19 18.36,17.14 17.44,17.14 C16.49,17.11 15.48,17.11 14.4,17.11 L14.4,19.24 C16.22,19.24 17.76,19.21 19.07,19.18 C20.37,19.16 21.51,19.1 22.52,19 L22.52,20.83 C21.51,20.72 20.37,20.67 19.07,20.64 C17.76,20.61 16.22,20.59 14.4,20.59 L14.4,25.14 L16.24,25.14 C16.81,24.41 17.3,23.71 17.71,23.04 C18.12,22.36 18.44,21.69 18.66,21.02 C18.96,21.26 19.26,21.45 19.5,21.58 C19.75,21.72 20.02,21.85 20.32,21.96 C20.53,22.07 20.64,22.17 20.64,22.28 C20.64,22.42 20.56,22.5 20.34,22.52 C20.29,22.55 20.21,22.58 20.13,22.63 C20.04,22.69 19.91,22.79 19.77,22.95 C19.61,23.12 19.39,23.39 19.09,23.74 C18.8,24.09 18.42,24.54 17.95,25.14 L19.47,25.14 C21.86,25.14 23.74,25.05 25.07,24.87 L25.07,26.7 C23.66,26.62 22.05,26.56 20.23,26.54 C18.42,26.51 16.22,26.48 13.61,26.48 C11.03,26.48 8.83,26.51 7.04,26.54 C5.25,26.56 3.65,26.62 2.23,26.67 L2.23,24.84 C2.89,24.95 3.7,25 4.65,25.05 C5.6,25.08 6.66,25.11 7.85,25.11 L12.69,25.11 L12.69,20.61 C10.98,20.61 9.51,20.64 8.29,20.67 C7.07,20.69 5.98,20.77 5.03,20.83 L5.03,19 C5.98,19.08 7.07,19.13 8.29,19.16 C9.51,19.18 10.98,19.21 12.69,19.21 L12.69,17.08 C11.68,17.08 10.76,17.11 9.89,17.14 C9.02,17.17 8.34,17.19 7.8,17.25 L7.8,15.82 L7.77,15.82 Z M5.87,3 C6.03,3 6.12,3.06 6.14,3.16 C6.17,3.27 6.06,3.38 5.84,3.49 C5.68,3.57 5.6,3.73 5.55,4 C5.52,4.27 5.49,4.62 5.49,5.08 L5.49,8.85 C5.49,9.06 5.49,9.3 5.52,9.57 C5.52,9.84 5.55,10.11 5.57,10.38 C5.6,10.65 5.6,10.92 5.63,11.16 C5.65,11.4 5.65,11.62 5.68,11.81 L3.65,11.81 C3.67,11.43 3.73,10.97 3.78,10.41 C3.84,9.87 3.86,9.36 3.86,8.85 L3.86,5.16 C3.86,4.11 3.81,3.33 3.7,2.76 C4.13,2.87 4.51,2.92 4.81,2.95 C5.06,2.98 5.44,3 5.87,3 Z M9.18,25.03 C8.94,24.65 8.72,24.33 8.53,24.03 C8.32,23.74 8.13,23.49 7.91,23.25 C7.69,23.01 7.5,22.79 7.26,22.58 C7.04,22.36 6.79,22.15 6.52,21.88 L7.64,20.85 C8.15,21.29 8.64,21.8 9.16,22.34 C9.67,22.87 10.13,23.44 10.6,24.03 L9.18,25.03 Z M13.64,12.08 C12.9,12.72 12.09,13.34 11.22,13.91 C10.35,14.47 9.29,15.07 8.07,15.66 C8.72,15.68 9.54,15.74 10.57,15.74 C11.6,15.77 12.63,15.77 13.66,15.77 C14.72,15.77 15.73,15.77 16.73,15.74 C17.74,15.71 18.58,15.68 19.26,15.66 C17.14,14.63 15.27,13.42 13.64,12.08 Z M11.22,1.85 C11.38,1.85 11.46,1.9 11.49,2.01 C11.52,2.11 11.41,2.22 11.19,2.36 C11.08,2.41 11,2.55 10.95,2.73 C10.89,2.92 10.87,3.33 10.87,3.95 L10.87,9.01 C10.87,9.22 10.87,9.47 10.89,9.73 C10.89,10 10.92,10.27 10.92,10.54 C10.92,10.81 10.95,11.08 10.98,11.32 C11,11.57 11,11.78 11.03,11.97 L8.99,11.97 C9.08,11.59 9.13,11.13 9.16,10.57 C9.18,10.03 9.21,9.52 9.21,9.01 L9.21,4.05 C9.21,3.68 9.18,3.25 9.16,2.76 C9.13,2.28 9.08,1.93 9.02,1.66 C9.46,1.74 9.84,1.79 10.13,1.82 C10.43,1.82 10.79,1.85 11.22,1.85 Z M21.29,4.54 C22.3,4.54 23.11,4.51 23.76,4.48 C24.42,4.46 25.04,4.38 25.61,4.27 L25.61,6.15 C25.15,6.1 24.58,6.05 23.87,6.02 C23.19,5.99 22.35,5.96 21.38,5.96 L16.49,5.96 C15.81,6.85 15.21,7.55 14.75,8.07 C14.26,8.58 13.77,9.06 13.28,9.52 C13.04,9.12 12.8,8.85 12.55,8.68 C12.31,8.52 12.01,8.42 11.63,8.31 C12.23,7.96 12.82,7.53 13.42,6.99 C13.99,6.45 14.56,5.86 15.1,5.21 C15.65,4.56 16.14,3.86 16.6,3.14 C17.06,2.41 17.47,1.66 17.82,0.9 C18.14,1.23 18.44,1.47 18.69,1.58 C18.93,1.71 19.2,1.79 19.47,1.85 C19.72,1.9 19.85,2.01 19.85,2.11 C19.85,2.25 19.77,2.36 19.56,2.44 C19.45,2.46 19.2,2.68 18.85,3.03 C18.5,3.38 18.06,3.89 17.57,4.51 L21.29,4.51 L21.29,4.54 Z M22.38,12.48 C21.73,11.65 21.08,10.89 20.37,10.19 C19.69,9.49 18.93,8.85 18.14,8.25 L19.2,7.18 C20.07,7.88 20.91,8.55 21.67,9.25 C22.46,9.92 23.17,10.6 23.87,11.24 L22.38,12.48 Z" id="Shape"></path>
            </g>
        </g>
    </g>
</svg>