<svg width="20px" height="20px" viewBox="0 0 41 41" xmlns="http://www.w3.org/2000/svg" xmlns:xlink="http://www.w3.org/1999/xlink">
    <g stroke="none" stroke-width="1" fill="none" fill-rule="evenodd">
        <g transform="translate(1.000000, 1.000000)">
            <g stroke="#00C1DE" stroke-width="1.6">
                <rect fill="#FFFFFF" fill-rule="nonzero" x="0.6" y="0.6" width="38.4" height="38.4" rx="8"></rect>
                <rect x="0.6" y="0.6" width="38.4" height="38.4" rx="8"></rect>
            </g>
            <g transform="translate(7.500000, 6.500000)" fill="#00C1DE" fill-rule="nonzero">
                <path d="M25.18,4.21 L25.16,3.44 L24.45,3.11 C24.35,3.07 24.2,2.99 24.02,2.92 C23.83,2.86 23.5,2.71 23,2.53 C22.51,2.34 22.01,2.15 21.49,1.99 C20.98,1.82 20.35,1.63 19.63,1.42 C18.91,1.21 18.18,1.05 17.48,0.88 C16.77,0.74 16.01,0.61 15.18,0.51 C14.35,0.4 13.55,0.36 12.8,0.36 C11.77,0.36 10.65,0.46 9.47,0.65 C8.29,0.84 7.25,1.07 6.38,1.3 C5.51,1.53 4.62,1.82 3.75,2.13 C2.89,2.44 2.26,2.67 1.95,2.8 C1.64,2.92 1.37,3.05 1.17,3.13 L0.46,3.46 L0.44,4.24 C0.46,4.57 0.46,5.15 0.42,5.99 C0.4,6.82 0.44,8.15 0.59,9.95 C0.73,11.74 0.96,13.38 1.25,14.86 L3.44,12.74 C3.09,10.15 2.93,7.61 2.93,5.11 C6.61,3.61 9.9,2.88 12.8,2.88 C15.7,2.88 18.99,3.63 22.67,5.11 C22.67,6.01 22.65,6.92 22.63,7.88 C22.59,8.84 22.49,10.09 22.3,11.65 C22.11,13.22 21.87,14.57 21.56,15.76 C21.29,16.74 20.85,17.68 20.23,18.59 C19.61,19.51 18.99,20.26 18.33,20.86 C17.66,21.47 16.94,22.05 16.15,22.61 C15.35,23.16 14.7,23.57 14.21,23.82 C13.71,24.07 13.26,24.32 12.8,24.51 C12.45,24.34 12.08,24.18 11.68,23.97 C11.29,23.76 10.77,23.47 10.15,23.07 C9.51,22.68 8.91,22.26 8.37,21.8 C7.81,21.36 7.23,20.82 6.63,20.18 C6.03,19.53 5.51,18.86 5.1,18.18 L8.68,14.26 L12.18,17.22 L17.85,10.99 L17.95,13.11 L20.23,13.01 L19.92,6.72 L13.9,7.01 L14,9.3 L16.09,9.19 L11.95,13.76 L8.45,10.82 L2.08,17.78 L2.45,18.55 C2.99,19.63 3.69,20.68 4.56,21.66 C5.45,22.63 6.28,23.43 7.07,24.03 C7.85,24.64 8.7,25.18 9.59,25.7 C10.48,26.22 11.12,26.55 11.48,26.7 C11.83,26.84 12.14,26.99 12.37,27.07 L12.8,27.24 L13.23,27.07 C13.4,27.01 13.59,26.93 13.83,26.82 C14.08,26.72 14.52,26.51 15.14,26.18 C15.76,25.84 16.38,25.51 16.96,25.11 C17.54,24.72 18.22,24.24 18.97,23.64 C19.71,23.03 20.4,22.38 21,21.7 C21.6,21.01 22.18,20.22 22.71,19.3 C23.25,18.38 23.67,17.43 23.94,16.43 C24.2,15.45 24.43,14.34 24.6,13.15 C24.78,11.95 24.91,10.88 24.97,9.97 C25.03,9.03 25.09,8.09 25.12,7.13 C25.14,6.17 25.16,5.51 25.16,5.13 C25.2,4.74 25.2,4.44 25.18,4.21 L25.18,4.21 L25.18,4.21 Z"></path>
            </g>
        </g>
    </g>
</svg>