<svg width="20px" height="20px" viewBox="0 0 41 41" xmlns="http://www.w3.org/2000/svg" xmlns:xlink="http://www.w3.org/1999/xlink">
    <g stroke="none" stroke-width="1" fill="none" fill-rule="evenodd">
        <g transform="translate(1.000000, 1.000000)">
            <g stroke="#00C1DE" stroke-width="1.6">
                <rect fill="#FFFFFF" fill-rule="nonzero" x="0.6" y="0.6" width="38.4" height="38.4" rx="8"></rect>
                <rect x="0.6" y="0.6" width="38.4" height="38.4" rx="8"></rect>
            </g>
            <g transform="translate(7.500000, 6.500000)" fill="#00C1DE" fill-rule="nonzero">
                <path d="M23.92,16 C23.92,16.02 23.92,16.07 23.92,16.13 C23.92,16.17 23.92,16.26 23.9,16.39 C23.9,16.52 23.88,16.65 23.86,16.78 C23.84,16.9 23.81,17.06 23.79,17.23 C23.77,17.4 23.73,17.55 23.69,17.72 C23.64,17.87 23.6,18.04 23.54,18.19 C23.47,18.34 23.41,18.49 23.34,18.65 C22.87,19.55 22.23,20.43 21.46,21.29 C20.67,22.15 19.9,22.88 19.15,23.46 C18.4,24.06 17.57,24.62 16.67,25.18 C15.77,25.74 15.05,26.14 14.51,26.42 C13.98,26.7 13.44,26.94 12.91,27.18 C12.89,27.18 12.86,27.2 12.82,27.22 L12.82,27.24 L12.82,27.24 C12.82,27.24 12.8,27.24 12.8,27.24 C12.8,27.24 12.78,27.24 12.78,27.24 C12.76,27.24 12.76,27.24 12.74,27.24 L12.74,27.22 C12.69,27.2 12.65,27.2 12.61,27.18 C12.07,26.94 11.54,26.68 11,26.42 C10.47,26.14 9.74,25.74 8.84,25.18 C7.95,24.62 7.11,24.04 6.36,23.46 C5.61,22.86 4.84,22.15 4.05,21.29 C3.26,20.43 2.64,19.55 2.17,18.65 C1.83,18.02 1.66,17.14 1.66,16.02 L0.97,3.52 L12.74,0.38 L12.74,0.36 L12.84,0.36 L12.84,0.36 L24.63,3.5 L23.92,16 Z M17.51,9.17 C17.42,9.17 17.33,9.17 17.25,9.17 C17.16,9.17 17.08,9.17 16.99,9.19 C16.97,9.13 16.95,9.04 16.93,8.95 C16.91,8.87 16.84,8.72 16.74,8.48 C16.63,8.25 16.52,8.03 16.39,7.84 C16.26,7.64 16.09,7.41 15.86,7.17 C15.62,6.93 15.39,6.72 15.11,6.53 C14.83,6.35 14.51,6.2 14.13,6.08 C13.74,5.95 13.31,5.88 12.86,5.86 L12.86,5.86 L12.8,5.86 C12.76,5.86 12.69,5.86 12.65,5.86 C12.61,5.86 12.54,5.86 12.5,5.86 C12.46,5.86 12.39,5.86 12.35,5.86 C12.31,5.86 12.24,5.86 12.2,5.88 C12.14,5.88 12.09,5.9 12.03,5.9 C11.26,6.01 10.62,6.23 10.11,6.55 C9.57,6.87 9.21,7.21 8.99,7.56 C8.78,7.9 8.63,8.29 8.54,8.74 C8.46,9.17 8.42,9.49 8.42,9.66 C8.42,9.84 8.44,10.01 8.46,10.14 L8.27,10.14 C8.24,10.14 8.24,10.14 8.22,10.14 C8.07,10.14 7.92,10.14 7.77,10.16 C7.62,10.18 7.41,10.2 7.18,10.24 C6.94,10.29 6.7,10.35 6.47,10.42 C6.26,10.5 6.02,10.61 5.76,10.74 C5.51,10.89 5.29,11.06 5.1,11.25 C4.91,11.45 4.74,11.68 4.57,11.98 C4.42,12.29 4.29,12.61 4.22,12.97 C4.1,13.68 4.14,14.33 4.35,14.91 C4.57,15.49 4.89,15.96 5.31,16.3 C5.74,16.65 6.17,16.93 6.62,17.12 C7.07,17.31 7.5,17.46 7.9,17.53 L10.53,12.5 L12.12,15.42 L10.98,17.57 L14.43,17.57 L11.2,11.4 L12.78,8.48 L17.53,17.53 C19.24,17.29 20.46,16.45 21.18,14.99 C21.53,14.39 21.68,13.72 21.61,13.06 C21.55,12.37 21.38,11.75 21.1,11.17 C20.82,10.59 20.35,10.12 19.69,9.73 C19.09,9.34 18.34,9.17 17.51,9.17 L17.51,9.17 Z" id="Shape"></path>
            </g>
        </g>
    </g>
</svg>