<svg xmlns="http://www.w3.org/2000/svg" xmlns:xlink="http://www.w3.org/1999/xlink" x="0" y="0" height="20px" width="20px" viewBox="0 0 75 75">
<defs>
<linearGradient id="Squid-Ink_Gradient-FFD91CA1-879F-48E3-BB2F-6185A30621BD" x1="235.9" y1="565.49" x2="235.9" y2="415.49" gradientTransform="translate(217.52 -476.13) rotate(45)" gradientUnits="userSpaceOnUse">
<stop offset="0" stop-color="#141b23"></stop>
<stop offset="1" stop-color="#5a636e"></stop>
</linearGradient>
</defs>
<g>
<rect data-name="Pink Gradient" style="fill:url(#Squid-Ink_Gradient-FFD91CA1-879F-48E3-BB2F-6185A30621BD);" width="75" height="75"></rect>
<g data-name="Icon Test">
<path fill="#fff" d="M43,62a4.5,4.5,0,0,1,0-9l.37,0,1-2H17a1,1,0,0,1-1-.8l-3-15,2-.39L17.81,49H47.7L52,27.81A1,1,0,0,1,53,27h9v2H53.8L49.5,50.2a1,1,0,0,1-1,.8H46.61l-1.32,2.64A4.5,4.5,0,0,1,43,62Zm0-7a2.5,2.5,0,1,0,2.5,2.5A2.5,2.5,0,0,0,43,55ZM23,62a4.5,4.5,0,1,1,4.5-4.5A4.51,4.51,0,0,1,23,62Zm0-7a2.5,2.5,0,1,0,2.5,2.5A2.5,2.5,0,0,0,23,55Zm9-7.63a1,1,0,0,1-.5-.13l-8-4.62a1,1,0,0,1-.5-.86V33.05l-7.5-4.33a1,1,0,0,1-.5-.86V18.62a1,1,0,0,1,.5-.87l8-4.62a1,1,0,0,1,1,0L32,17.46l7.5-4.33a1,1,0,0,1,1,0l8,4.62a1,1,0,0,1,.5.87v9.24a1,1,0,0,1-.5.86L41,33.05v8.71a1,1,0,0,1-.5.86l-8,4.62A1,1,0,0,1,32,47.37Zm1-9.66v6.93l6-3.46V34.25Zm-8,3.47,6,3.46V37.71l-6-3.46Zm1-8.68L32,36l6-3.48L32,29Zm15-8.69v6.93l6-3.46V20.35Zm-8,3.47,6,3.46V23.81l-6-3.46Zm-8-3.47v6.93l6-3.46V20.35Zm-8,3.47,6,3.46V23.81l-6-3.46Zm17-8.66,6,3.46,6-3.46-6-3.47Zm-16,0,6,3.46,6-3.46-6-3.47Z"></path>
</g>
</g>
</svg>