<svg xmlns="http://www.w3.org/2000/svg" x="0" y="0" height="20px" width="20px" viewBox="0 0 50 50">
<g>
<title></title>
<path fill="#fcd116" d="M 39.337 19.525 a 5.688 5.688 0 0 0 0 -8.045 l -9.812 -9.813 a 5.69 5.69 0 0 0 -8.046 0 l -9.813 9.813 a 5.69 5.69 0 0 0 0 8.045 l 8.633 8.633 v 16.641 l 5.202 5.202 l 4.519 -4.519 v -0.033 l 2.652 -2.653 l -2.629 -2.629 l 2.629 -2.629 l -2.629 -2.629 l 2.629 -2.629 l -2.652 -2.653 v -0.784 l 9.317 -9.318 Z M 25.502 4.039 a 3.23 3.23 0 1 1 0 6.459 a 3.23 3.23 0 0 1 0 -6.459 Z"></path>
<path opacity="0.4" fill="#ff8c00" d="M 22.728 43.961 l 2.03 2 V 30.008 l -2.03 -1 Z"></path>
<path opacity="0.5" fill="#ffffff" d="M 15.868 13.617 h 18.64 v 2.679 h -18.64 Z m 0 4.359 h 18.64 v 2.679 h -18.64 Z"></path>
</g>
</svg>