<svg width="20px" height="20px" viewBox="0 0 41 41" xmlns="http://www.w3.org/2000/svg" xmlns:xlink="http://www.w3.org/1999/xlink">
    <g stroke="none" stroke-width="1" fill="none" fill-rule="evenodd">
        <g transform="translate(1.000000, 1.000000)">
            <g stroke="#00C1DE" stroke-width="1.6">
                <rect fill="#FFFFFF" fill-rule="nonzero" x="0.6" y="0.6" width="38.4" height="38.4" rx="8"></rect>
                <rect x="0.6" y="0.6" width="38.4" height="38.4" rx="8"></rect>
            </g>
            <g transform="translate(6.500000, 7.500000)" fill="#00C1DE" fill-rule="nonzero">
                <path d="M5.59,14.89 C5.55,14.82 5.48,14.78 5.39,14.78 C5.35,14.78 5.32,14.78 5.28,14.8 C5.23,14.82 5.21,14.84 5.19,14.89 L0.4,22.28 C0.38,22.32 0.36,22.37 0.36,22.41 C0.36,22.57 0.45,22.66 0.61,22.66 L0.61,22.66 L10.17,22.66 L10.17,22.66 C10.24,22.66 10.31,22.64 10.35,22.59 C10.4,22.55 10.42,22.48 10.42,22.41 C10.42,22.37 10.4,22.32 10.38,22.28 L5.59,14.89 Z M27.2,22.26 L22.41,14.87 C22.37,14.8 22.3,14.75 22.21,14.75 C22.12,14.75 22.05,14.8 22.01,14.87 L17.22,22.26 C17.2,22.3 17.18,22.35 17.18,22.39 C17.18,22.46 17.2,22.53 17.25,22.57 C17.29,22.62 17.36,22.64 17.43,22.64 L17.43,22.64 L26.99,22.64 C27.15,22.64 27.24,22.55 27.24,22.39 C27.24,22.37 27.24,22.35 27.22,22.32 C27.22,22.3 27.22,22.28 27.2,22.26 L27.2,22.26 L27.2,22.26 Z M21.69,12.58 L14.01,0.71 L13.81,0.6 L13.61,0.71 L5.88,12.58 C5.84,12.64 5.82,12.71 5.82,12.8 C5.82,12.89 5.84,12.96 5.88,13.02 L13.56,24.89 C13.59,24.91 13.61,24.95 13.65,24.98 C13.7,25 13.74,25 13.77,25 C13.86,25 13.92,24.95 13.97,24.89 L21.65,13.02 C21.69,12.96 21.72,12.89 21.72,12.8 C21.74,12.71 21.74,12.64 21.69,12.58 L21.69,12.58 Z M17.11,16.39 C17.11,16.44 17.09,16.48 17.07,16.51 C17.04,16.53 17,16.55 16.96,16.55 L10.64,16.55 C10.53,16.55 10.49,16.51 10.49,16.39 L10.49,15.32 C10.49,15.27 10.51,15.23 10.53,15.2 C10.56,15.18 10.6,15.16 10.64,15.16 L16.93,15.16 C17.02,15.18 17.07,15.25 17.09,15.32 L17.11,16.39 L17.11,16.39 Z M17.11,13.34 C17.11,13.38 17.09,13.43 17.07,13.45 C17.04,13.47 17,13.5 16.96,13.5 L10.64,13.5 C10.53,13.5 10.49,13.45 10.49,13.34 L10.49,12.26 C10.51,12.17 10.58,12.13 10.64,12.1 L16.93,12.1 C17.04,12.1 17.09,12.15 17.09,12.26 L17.11,13.34 L17.11,13.34 Z M17.11,10.28 C17.11,10.4 17.07,10.44 16.96,10.44 L10.64,10.44 C10.6,10.44 10.56,10.42 10.53,10.4 C10.51,10.37 10.49,10.33 10.49,10.28 L10.49,9.21 C10.51,9.12 10.58,9.07 10.64,9.05 L16.93,9.05 C17.04,9.05 17.09,9.09 17.09,9.21 L17.09,10.28 L17.11,10.28 Z M16.26,16.19 C16.35,16.19 16.44,16.17 16.51,16.1 C16.57,16.03 16.6,15.94 16.6,15.86 C16.6,15.77 16.57,15.68 16.51,15.61 C16.44,15.54 16.35,15.52 16.26,15.52 C16.17,15.52 16.08,15.54 16.01,15.61 C15.94,15.68 15.92,15.77 15.92,15.86 C15.92,15.94 15.94,16.03 16.01,16.1 C16.08,16.17 16.17,16.19 16.26,16.19 Z M16.26,10.08 C16.48,10.08 16.6,9.97 16.6,9.74 C16.6,9.66 16.57,9.57 16.51,9.5 C16.44,9.43 16.35,9.41 16.26,9.41 C16.17,9.41 16.08,9.43 16.01,9.5 C15.94,9.57 15.92,9.66 15.92,9.74 C15.94,9.95 16.06,10.06 16.26,10.08 L16.26,10.08 Z M16.26,13.14 C16.33,13.14 16.37,13.11 16.44,13.09 C16.48,13.07 16.53,13.02 16.57,12.96 C16.6,12.91 16.62,12.84 16.62,12.78 C16.57,12.58 16.46,12.46 16.28,12.44 C16.08,12.49 15.97,12.6 15.94,12.78 C15.92,13.02 16.03,13.14 16.26,13.14 L16.26,13.14 Z" id="Shape"></path>
            </g>
        </g>
    </g>
</svg>