<svg width="20px" height="20px" viewBox="0 0 41 41" xmlns="http://www.w3.org/2000/svg" xmlns:xlink="http://www.w3.org/1999/xlink">
    <g stroke="none" stroke-width="1" fill="none" fill-rule="evenodd">
        <g transform="translate(1.000000, 1.000000)">
            <g stroke="#00C1DE" stroke-width="1.6">
                <rect fill="#FFFFFF" fill-rule="nonzero" x="0.6" y="0.6" width="38.4" height="38.4" rx="8"></rect>
                <rect x="0.6" y="0.6" width="38.4" height="38.4" rx="8"></rect>
            </g>
            <g transform="translate(6.500000, 6.500000)" fill="#00C1DE" fill-rule="nonzero">
                <path d="M23.23,16.67 C22.98,17.28 22.59,17.98 22.1,18.76 C21.57,19.53 21.1,20.14 20.62,20.62 C20.15,21.1 19.53,21.58 18.76,22.1 C17.99,22.62 17.31,22.99 16.68,23.24 C16.57,23.28 16.43,23.31 16.32,23.31 C16.25,23.31 16.16,23.31 16.09,23.28 C15.93,23.24 15.77,23.15 15.64,22.99 C15.5,22.83 15.41,22.67 15.39,22.51 C15.39,22.49 15.39,22.44 15.39,22.42 C15.39,22.4 15.39,22.35 15.39,22.31 C15.39,22.1 15.45,21.92 15.59,21.76 L15.61,21.74 L15.64,21.71 C15.66,21.67 15.7,21.65 15.75,21.6 C15.79,21.58 15.84,21.53 15.86,21.51 C15.91,21.49 15.95,21.46 16,21.44 C16.11,21.4 16.23,21.35 16.34,21.3 C16.45,21.26 16.57,21.19 16.68,21.15 C17.38,20.71 17.95,20.12 18.33,19.37 C18.74,18.62 18.9,17.83 18.85,16.96 C18.83,16.73 18.81,16.51 18.76,16.28 C18.76,16.26 18.76,16.26 18.74,16.21 C18.74,16.17 18.72,16.14 18.72,16.1 L18.72,16.05 L18.72,16.01 L18.7,15.96 L18.67,15.91 C18.67,15.91 18.67,15.89 18.65,15.87 C18.65,15.85 18.65,15.85 18.63,15.82 L18.6,15.73 C18.6,15.73 18.6,15.71 18.58,15.69 C18.56,15.66 18.56,15.64 18.56,15.64 C18.56,15.62 18.54,15.6 18.54,15.55 L18.54,15.53 C18.51,15.48 18.51,15.46 18.51,15.46 L18.49,15.37 C18.49,15.35 18.47,15.35 18.47,15.32 C18.45,15.3 18.45,15.28 18.45,15.28 C18.45,15.28 18.45,15.26 18.42,15.23 L18.42,15.21 C18.4,15.14 18.38,15.1 18.33,15.05 L18.33,15.03 L18.31,15.01 C18.26,14.94 18.24,14.89 18.24,14.89 L18.22,14.85 L18.22,14.82 C18.22,14.82 18.2,14.8 18.17,14.78 C18.15,14.76 18.15,14.73 18.13,14.73 C18.13,14.73 18.13,14.71 18.11,14.71 C18.11,14.69 18.08,14.69 18.08,14.69 C18.08,14.69 18.06,14.66 18.04,14.64 C18.02,14.62 18.02,14.6 17.99,14.6 L17.97,14.57 L17.95,14.55 C17.92,14.53 17.9,14.48 17.88,14.46 C17.88,14.46 17.86,14.44 17.86,14.44 C17.86,14.44 17.83,14.41 17.83,14.41 C17.83,14.41 17.81,14.39 17.79,14.37 C17.77,14.35 17.74,14.32 17.74,14.32 C17.74,14.32 17.74,14.3 17.72,14.3 C17.72,14.3 17.7,14.28 17.7,14.28 C17.68,14.23 17.63,14.21 17.58,14.16 C17.58,14.16 17.56,14.14 17.56,14.14 C17.47,14.05 17.38,13.96 17.27,13.87 C17.27,13.87 17.27,13.87 17.27,13.87 C17.27,13.87 17.27,13.87 17.27,13.87 C17.22,13.82 17.18,13.8 17.13,13.75 C17.13,13.75 17.13,13.75 17.11,13.73 C17.11,13.73 17.09,13.73 17.09,13.71 C17.06,13.71 17.04,13.69 17.02,13.66 C17,13.64 16.97,13.62 16.97,13.62 L16.95,13.6 L16.93,13.6 C16.91,13.6 16.88,13.57 16.86,13.55 C16.84,13.53 16.81,13.53 16.81,13.5 L16.77,13.48 L16.63,13.39 C16.61,13.37 16.59,13.35 16.54,13.32 C16.5,13.3 16.47,13.28 16.45,13.28 L16.45,13.28 C16.27,13.19 16.09,13.1 15.91,13.03 L15.91,13.03 C15.89,13.03 15.86,13 15.82,13 C15.77,12.98 15.75,12.98 15.73,12.98 L15.7,12.98 C15.66,12.96 15.59,12.96 15.52,12.94 L15.5,12.94 C15.5,12.94 15.48,12.94 15.45,12.94 C15.43,12.94 15.43,12.94 15.41,12.94 L15.39,12.94 L15.36,12.94 L15.3,12.91 L15.27,12.91 L15.25,12.91 C15.25,12.91 15.23,12.91 15.21,12.91 C15.18,12.91 15.18,12.91 15.16,12.91 C15.16,12.91 15.14,12.91 15.14,12.91 C15.14,12.91 15.11,12.91 15.11,12.91 C15.11,12.91 15.09,12.91 15.09,12.91 C15.07,12.91 15.07,12.91 15.07,12.91 L15.05,12.91 L14.93,12.89 C14.93,12.89 14.91,12.89 14.91,12.89 C14.91,12.89 14.89,12.89 14.89,12.89 L14.73,12.87 C14.73,12.87 14.71,12.87 14.71,12.87 C14.68,12.87 14.68,12.87 14.68,12.87 L14.5,12.87 L14.21,12.87 C14.19,12.87 14.16,12.87 14.14,12.87 L14.07,12.87 C14.07,12.87 14.05,12.87 14.03,12.87 C14,12.87 13.98,12.87 13.98,12.87 C13.98,12.87 13.96,12.87 13.96,12.87 C13.94,12.87 13.94,12.87 13.94,12.87 L13.91,12.87 C13.91,12.87 13.89,12.87 13.89,12.87 C13.89,12.87 13.87,12.87 13.87,12.87 C13.85,12.87 13.8,12.87 13.75,12.89 L13.75,12.89 C13.75,12.89 13.73,12.89 13.71,12.89 C13.69,12.89 13.69,12.89 13.66,12.89 L13.64,12.89 L13.62,12.89 L13.51,12.91 L13.48,12.91 L13.46,12.91 C13.41,12.91 13.37,12.94 13.32,12.94 C13.26,12.96 13.17,12.98 13.05,13 C12.94,13.03 12.87,13.07 12.78,13.1 C12.76,13.1 12.76,13.12 12.73,13.12 C12.71,13.12 12.69,13.14 12.67,13.14 L12.62,13.16 L12.58,13.19 C12.58,13.19 12.55,13.19 12.53,13.21 C12.51,13.21 12.51,13.23 12.49,13.23 L12.46,13.23 L12.44,13.23 C12.26,13.3 12.05,13.37 11.87,13.41 C11.69,13.46 11.49,13.5 11.31,13.55 C11.31,13.55 11.28,13.55 11.28,13.55 C11.28,13.55 11.26,13.55 11.26,13.55 C11.26,13.55 11.24,13.55 11.22,13.55 C11.19,13.55 11.19,13.55 11.17,13.55 C11.08,13.57 10.97,13.57 10.83,13.6 C10.69,13.62 10.58,13.62 10.45,13.62 C10.31,13.62 10.2,13.64 10.11,13.64 C9.81,13.64 9.54,13.62 9.27,13.57 L9.24,13.57 C9.22,13.57 9.2,13.57 9.15,13.55 L9.06,13.53 C8.88,13.5 8.66,13.44 8.38,13.37 C8.13,13.3 7.91,13.23 7.73,13.16 L7.73,13.16 L7.5,13.07 C7.5,13.07 7.5,13.07 7.48,13.07 C7.48,13.07 7.45,13.07 7.45,13.07 C7.41,13.05 7.34,13.03 7.25,12.98 L7.25,12.98 C7.25,12.98 7.23,12.98 7.23,12.96 C7.23,12.96 7.2,12.96 7.2,12.94 C7.14,12.91 7.09,12.87 7.02,12.84 C7,12.84 6.98,12.82 6.98,12.82 C6.96,12.82 6.93,12.8 6.89,12.78 C6.84,12.75 6.82,12.73 6.8,12.73 C6.8,12.73 6.77,12.73 6.77,12.71 C6.77,12.71 6.75,12.69 6.75,12.69 C6.73,12.66 6.68,12.66 6.66,12.64 C6.64,12.62 6.59,12.59 6.57,12.57 L6.52,12.55 C6.5,12.53 6.48,12.5 6.43,12.48 C6.39,12.46 6.37,12.44 6.34,12.41 L6.32,12.39 L6.3,12.37 L6.28,12.34 L6.12,12.23 C6.09,12.21 6.09,12.21 6.09,12.21 L5.89,12.05 C5.84,12 5.8,11.98 5.75,11.91 C5.71,11.87 5.64,11.82 5.6,11.75 C5.55,11.71 5.48,11.66 5.44,11.59 C5.39,11.55 5.35,11.5 5.3,11.46 L5.3,11.46 L5.26,11.41 L5.21,11.37 L5.14,11.3 L5.12,11.28 C5.12,11.25 5.1,11.25 5.07,11.23 C5.03,11.18 5.01,11.14 4.98,11.12 L4.98,11.09 C4.96,11.07 4.94,11.03 4.92,11 C4.89,10.98 4.87,10.93 4.85,10.91 L4.85,10.91 L4.85,10.91 L4.78,10.82 C4.78,10.82 4.76,10.8 4.73,10.75 C4.71,10.71 4.69,10.68 4.67,10.66 C4.67,10.66 4.64,10.64 4.64,10.62 C4.64,10.59 4.62,10.59 4.62,10.57 C4.6,10.55 4.6,10.53 4.58,10.5 C4.55,10.48 4.55,10.46 4.53,10.43 L4.48,10.34 L4.39,10.18 L4.39,10.18 C4.37,10.16 4.37,10.12 4.35,10.12 C4.35,10.09 4.33,10.07 4.3,10.05 L4.26,9.98 C4.26,9.98 4.24,9.96 4.24,9.93 C4.24,9.91 4.21,9.89 4.21,9.89 L4.19,9.82 L4.17,9.75 C4.17,9.73 4.14,9.71 4.14,9.68 C4.12,9.66 4.12,9.64 4.12,9.62 C4.1,9.57 4.08,9.52 4.05,9.46 C4.05,9.43 4.03,9.39 4.03,9.37 C3.99,9.25 3.96,9.18 3.96,9.14 C3.96,9.14 3.96,9.12 3.94,9.09 C3.94,9.07 3.94,9.07 3.92,9.05 C3.9,8.98 3.87,8.91 3.85,8.84 L3.85,8.82 L3.85,8.82 C3.85,8.82 3.85,8.8 3.85,8.8 C3.85,8.8 3.85,8.77 3.85,8.77 C3.85,8.75 3.85,8.73 3.83,8.71 C3.83,8.66 3.8,8.64 3.8,8.64 L3.8,8.64 C3.78,8.59 3.78,8.57 3.78,8.52 C3.78,8.52 3.78,8.5 3.78,8.5 C3.78,8.5 3.78,8.48 3.78,8.48 L3.78,8.48 C3.78,8.48 3.78,8.46 3.78,8.46 C3.78,8.46 3.78,8.43 3.78,8.41 L3.78,8.41 L3.78,8.36 C3.78,8.36 3.78,8.34 3.78,8.34 C3.78,8.34 3.78,8.32 3.78,8.32 C3.78,8.27 3.76,8.25 3.76,8.21 C3.76,8.21 3.76,8.21 3.76,8.18 C3.76,8.18 3.76,8.16 3.76,8.16 C3.76,8.14 3.76,8.14 3.76,8.14 C3.76,8.14 3.76,8.11 3.76,8.09 C3.76,8.07 3.76,8.07 3.76,8.05 L3.76,8.05 L3.74,7.91 L3.74,7.91 C3.71,7.8 3.71,7.68 3.71,7.59 C3.71,7.57 3.71,7.55 3.71,7.52 L3.71,7.46 L3.71,7.36 L3.71,7.36 L3.71,7.02 C3.42,7.5 3.17,7.98 2.97,8.5 C2.47,9.71 2.24,10.96 2.24,12.28 C2.24,13.57 2.49,14.82 2.97,16.05 C3.17,16.57 3.49,17.14 3.92,17.8 C4.35,18.44 4.76,18.96 5.14,19.37 C5.53,19.76 6.05,20.19 6.71,20.6 C7.34,21.03 7.93,21.35 8.45,21.55 C9.63,22.03 10.85,22.28 12.12,22.28 L12.19,22.28 C12.28,22.28 12.39,22.31 12.51,22.35 C12.62,22.4 12.71,22.44 12.78,22.49 C12.78,22.49 12.8,22.51 12.83,22.51 C12.85,22.53 12.85,22.53 12.87,22.53 C13.07,22.71 13.17,22.96 13.17,23.24 C13.17,23.44 13.1,23.62 12.96,23.81 C12.83,23.99 12.67,24.1 12.46,24.15 C12.37,24.17 12.28,24.17 12.24,24.17 L12.24,24.17 L12.24,24.17 C11.6,24.17 10.83,24.08 9.97,23.92 C9.09,23.76 8.36,23.53 7.77,23.31 C7.16,23.06 6.46,22.67 5.69,22.17 C4.92,21.65 4.3,21.17 3.83,20.69 C3.35,20.21 2.88,19.6 2.35,18.83 C1.83,18.05 1.47,17.37 1.22,16.73 C0.97,16.14 0.77,15.39 0.61,14.53 C0.45,13.64 0.36,12.89 0.36,12.25 C0.36,10.8 0.63,9.34 1.18,7.89 C1.2,7.82 1.22,7.77 1.22,7.75 C1.33,7.46 1.52,7.11 1.7,6.75 C1.9,6.39 2.13,6.02 2.35,5.68 C2.58,5.32 2.83,5 3.1,4.66 C3.35,4.34 3.6,4.04 3.83,3.82 C4.14,3.5 4.51,3.18 4.98,2.84 C5.44,2.5 5.91,2.18 6.41,1.88 C6.91,1.59 7.34,1.36 7.75,1.2 L7.77,1.2 L7.79,1.2 C7.91,1.16 8.02,1.13 8.16,1.13 C8.38,1.16 8.56,1.22 8.75,1.34 C8.75,1.34 8.77,1.36 8.79,1.36 C8.81,1.36 8.81,1.38 8.84,1.38 C9.04,1.57 9.13,1.82 9.13,2.09 C9.13,2.29 9.09,2.47 8.97,2.63 C8.86,2.79 8.72,2.91 8.54,2.98 C8.45,3.02 8.34,3.07 8.2,3.13 C8.07,3.2 7.95,3.25 7.86,3.29 C7.16,3.73 6.59,4.32 6.21,5.07 C5.8,5.82 5.64,6.61 5.69,7.48 C5.71,7.73 5.73,7.96 5.78,8.16 C5.78,8.18 5.78,8.18 5.78,8.23 C5.78,8.27 5.8,8.32 5.8,8.34 C5.8,8.34 5.8,8.36 5.8,8.39 C5.8,8.41 5.8,8.41 5.8,8.43 L5.82,8.55 C5.82,8.55 5.82,8.57 5.84,8.59 C5.84,8.62 5.84,8.62 5.87,8.64 L5.89,8.73 C5.89,8.73 5.89,8.75 5.91,8.77 C5.91,8.8 5.94,8.82 5.94,8.82 C5.94,8.82 5.94,8.84 5.96,8.87 C5.98,8.89 5.98,8.91 5.98,8.91 C5.98,8.91 5.98,8.93 5.98,8.93 C6,8.96 6,8.98 6,9 L6.03,9.09 C6.03,9.12 6.05,9.12 6.05,9.14 C6.07,9.16 6.07,9.18 6.07,9.18 C6.07,9.18 6.09,9.21 6.09,9.25 L6.18,9.43 C6.18,9.43 6.18,9.43 6.21,9.46 C6.21,9.46 6.21,9.48 6.23,9.48 C6.25,9.52 6.28,9.57 6.3,9.62 C6.3,9.62 6.32,9.64 6.32,9.66 C6.32,9.66 6.32,9.68 6.32,9.68 C6.34,9.71 6.37,9.73 6.39,9.77 L6.41,9.8 C6.41,9.8 6.41,9.82 6.43,9.82 C6.43,9.84 6.46,9.84 6.46,9.84 C6.46,9.84 6.48,9.87 6.5,9.89 C6.52,9.91 6.52,9.93 6.55,9.93 C6.55,9.93 6.57,9.96 6.57,9.96 C6.57,9.98 6.59,9.98 6.59,9.98 C6.59,9.98 6.62,10 6.64,10.02 C6.66,10.05 6.66,10.07 6.68,10.07 C6.68,10.07 6.71,10.09 6.71,10.09 C6.71,10.09 6.73,10.12 6.73,10.12 C6.73,10.12 6.75,10.14 6.77,10.16 C6.8,10.18 6.82,10.21 6.82,10.21 C6.82,10.21 6.82,10.23 6.84,10.23 C6.84,10.23 6.86,10.25 6.86,10.25 C6.89,10.28 6.89,10.28 6.91,10.3 C6.93,10.32 6.96,10.34 6.96,10.37 L6.98,10.39 C7.09,10.5 7.18,10.59 7.27,10.66 L7.27,10.66 L7.27,10.66 C7.3,10.68 7.32,10.71 7.34,10.73 C7.36,10.75 7.39,10.75 7.41,10.78 C7.41,10.78 7.41,10.78 7.43,10.8 C7.43,10.8 7.45,10.8 7.45,10.82 C7.48,10.82 7.5,10.84 7.52,10.87 C7.54,10.89 7.57,10.91 7.57,10.91 C7.57,10.91 7.59,10.91 7.61,10.93 C7.64,10.93 7.64,10.96 7.68,10.98 C7.7,11 7.73,11 7.75,11.03 L7.77,11.05 L7.79,11.07 L7.93,11.16 L7.95,11.18 L8.11,11.28 C8.18,11.3 8.22,11.34 8.29,11.37 C8.36,11.39 8.41,11.41 8.47,11.46 C8.54,11.48 8.61,11.5 8.66,11.53 L8.66,11.53 C8.68,11.53 8.7,11.55 8.75,11.55 C8.79,11.57 8.81,11.57 8.84,11.57 L8.86,11.57 C8.88,11.57 8.9,11.59 8.95,11.59 C8.97,11.59 9.02,11.62 9.04,11.62 L9.06,11.62 C9.06,11.62 9.09,11.62 9.11,11.62 C9.13,11.62 9.13,11.62 9.15,11.62 L9.18,11.62 L9.2,11.62 L9.27,11.64 C9.27,11.64 9.27,11.64 9.29,11.64 C9.29,11.64 9.29,11.64 9.31,11.64 C9.31,11.64 9.34,11.64 9.36,11.64 C9.38,11.64 9.38,11.64 9.4,11.64 C9.4,11.64 9.43,11.64 9.43,11.64 C9.43,11.64 9.45,11.64 9.45,11.64 C9.45,11.64 9.47,11.64 9.47,11.64 C9.49,11.64 9.49,11.64 9.49,11.64 L9.52,11.64 L9.63,11.66 C9.63,11.66 9.65,11.66 9.65,11.66 C9.65,11.66 9.68,11.66 9.68,11.66 L9.83,11.69 L9.86,11.69 L9.88,11.69 L9.9,11.69 L10.06,11.69 L10.36,11.69 C10.38,11.69 10.4,11.69 10.42,11.69 C10.45,11.69 10.47,11.69 10.49,11.69 C10.54,11.69 10.58,11.69 10.6,11.69 C10.6,11.69 10.63,11.69 10.63,11.69 C10.65,11.69 10.65,11.69 10.65,11.69 L10.67,11.69 C10.67,11.69 10.69,11.69 10.69,11.69 C10.69,11.69 10.72,11.69 10.72,11.69 C10.74,11.69 10.79,11.69 10.83,11.69 L10.83,11.69 C10.83,11.69 10.85,11.69 10.88,11.69 C10.9,11.69 10.9,11.69 10.92,11.69 C10.92,11.69 10.94,11.69 10.94,11.69 C10.97,11.69 10.97,11.69 10.97,11.69 L11.08,11.66 C11.08,11.66 11.08,11.66 11.1,11.66 C11.1,11.66 11.13,11.66 11.13,11.66 C11.15,11.66 11.17,11.66 11.17,11.66 C11.19,11.66 11.22,11.66 11.24,11.64 C11.31,11.62 11.4,11.59 11.51,11.57 C11.62,11.55 11.69,11.5 11.78,11.48 C11.81,11.48 11.81,11.46 11.83,11.46 C11.85,11.46 11.87,11.43 11.9,11.43 C11.9,11.43 11.92,11.43 11.94,11.41 C11.96,11.41 11.99,11.39 11.99,11.39 C11.99,11.39 12.01,11.39 12.03,11.37 C12.05,11.34 12.05,11.34 12.08,11.34 C12.08,11.34 12.1,11.34 12.1,11.34 C12.12,11.34 12.12,11.34 12.12,11.34 C12.49,11.21 12.87,11.09 13.26,11.03 C13.26,11.03 13.28,11.03 13.28,11.03 L13.3,11.03 C13.3,11.03 13.32,11.03 13.35,11.03 C13.37,11.03 13.37,11.03 13.39,11.03 C13.75,10.96 14.09,10.93 14.46,10.93 C14.75,10.93 15.02,10.96 15.3,11 L15.3,11 C15.32,11 15.34,11 15.39,11.03 C15.43,11.03 15.45,11.03 15.48,11.05 C15.93,11.12 16.36,11.25 16.79,11.41 L16.79,11.41 L17.02,11.5 L17.04,11.5 L17.06,11.5 C17.11,11.53 17.18,11.55 17.24,11.59 C17.24,11.59 17.27,11.59 17.27,11.59 C17.27,11.59 17.29,11.59 17.29,11.62 C17.29,11.62 17.31,11.62 17.31,11.64 C17.36,11.66 17.43,11.69 17.49,11.73 L17.49,11.73 C17.52,11.73 17.54,11.75 17.54,11.75 C17.56,11.75 17.58,11.78 17.63,11.8 C17.68,11.82 17.7,11.84 17.72,11.84 C17.74,11.84 17.77,11.87 17.77,11.87 C17.83,11.89 17.88,11.94 17.95,11.98 L17.99,12 C18.04,12.03 18.11,12.07 18.17,12.12 C18.17,12.12 18.17,12.12 18.2,12.14 C18.22,12.16 18.22,12.14 18.22,12.16 C18.31,12.23 18.36,12.28 18.4,12.3 L18.4,12.3 C18.4,12.3 18.42,12.32 18.42,12.32 L18.63,12.48 L18.63,12.48 C18.83,12.66 19.04,12.84 19.22,13.05 L19.22,13.05 C19.24,13.07 19.26,13.1 19.31,13.14 C19.31,13.14 19.33,13.16 19.33,13.19 C19.35,13.21 19.35,13.21 19.35,13.23 L19.38,13.25 C19.47,13.37 19.51,13.41 19.51,13.44 L19.51,13.46 L19.65,13.64 L19.65,13.64 L19.65,13.64 L19.72,13.73 C19.72,13.75 19.74,13.75 19.76,13.78 C19.78,13.82 19.81,13.85 19.83,13.87 C19.83,13.87 19.85,13.89 19.85,13.91 C19.85,13.94 19.87,13.94 19.87,13.96 C19.9,14 19.94,14.05 19.96,14.12 L20.01,14.21 L20.1,14.37 C20.12,14.41 20.15,14.44 20.15,14.46 C20.15,14.48 20.17,14.5 20.19,14.53 C20.21,14.55 20.21,14.6 20.24,14.6 C20.24,14.6 20.26,14.62 20.26,14.64 C20.26,14.66 20.28,14.69 20.28,14.69 C20.28,14.71 20.3,14.73 20.33,14.8 C20.33,14.82 20.35,14.85 20.35,14.87 C20.37,14.89 20.37,14.91 20.37,14.94 C20.4,15.01 20.42,15.05 20.44,15.1 C20.46,15.14 20.46,15.16 20.46,15.19 C20.51,15.3 20.53,15.37 20.53,15.41 C20.53,15.44 20.55,15.48 20.55,15.51 L20.55,15.53 L20.6,15.71 C20.76,16.28 20.83,16.85 20.83,17.42 L20.83,17.58 C21.12,17.07 21.37,16.6 21.57,16.07 C22.07,14.87 22.3,13.62 22.3,12.3 C22.3,11 22.05,9.75 21.57,8.52 C21.44,8.18 21.26,7.8 21.01,7.39 C20.76,6.98 20.49,6.57 20.21,6.18 C19.92,5.8 19.65,5.48 19.4,5.2 C19.01,4.82 18.49,4.39 17.83,3.98 C17.2,3.54 16.61,3.23 16.09,3.02 C15.59,2.82 14.98,2.63 14.23,2.5 C13.51,2.36 12.87,2.29 12.33,2.29 L12.19,2.29 L11.96,2.27 C11.62,2.18 11.37,1.95 11.28,1.59 L11.26,1.5 C11.26,1.45 11.26,1.38 11.24,1.29 C11.24,1.2 11.26,1.09 11.28,1 C11.33,0.91 11.37,0.81 11.42,0.75 C11.42,0.75 11.42,0.72 11.44,0.72 C11.44,0.72 11.47,0.7 11.47,0.7 C11.65,0.47 11.9,0.36 12.19,0.36 L12.19,0.36 L12.21,0.36 C13.75,0.36 15.25,0.66 16.68,1.22 C17.29,1.47 17.99,1.86 18.76,2.36 C19.53,2.88 20.15,3.36 20.62,3.84 C21.1,4.32 21.57,4.93 22.1,5.7 C22.62,6.48 22.98,7.16 23.23,7.8 C23.48,8.39 23.68,9.14 23.84,10 C24,10.89 24.09,11.64 24.09,12.28 L24.09,12.28 L24.09,12.28 C24.09,13.73 23.82,15.19 23.27,16.62 C23.25,16.57 23.23,16.62 23.23,16.67 L23.23,16.67 Z M26.72,24.22 C27.06,24.56 27.24,24.99 27.24,25.47 C27.24,25.97 27.06,26.38 26.72,26.72 C26.38,27.06 25.95,27.24 25.47,27.24 C24.97,27.24 24.57,27.06 24.23,26.72 L21.1,23.58 C20.76,23.24 20.6,22.83 20.6,22.33 C20.6,22.08 20.64,21.85 20.74,21.65 C20.83,21.42 20.96,21.24 21.12,21.08 C21.28,20.92 21.46,20.78 21.69,20.69 C21.91,20.6 22.14,20.55 22.37,20.55 C22.84,20.58 23.25,20.74 23.61,21.05 L26.72,24.22 L26.72,24.22 L26.72,24.22 Z" id="Shape"></path>
            </g>
        </g>
    </g>
</svg>