<svg xmlns="http://www.w3.org/2000/svg" x="0" y="0" width="20px" height="20px" viewBox="0 0 50 50">
<g>
<title></title>
<circle fill="#0072c6" cx="25" cy="25" r="23.9"></circle>
<circle opacity="0.8" fill="#ffffff" cx="25" cy="25" r="21"></circle>
<path fill="#3999c6" d="M 25.9 20.4 v -5 h -2.5 v 5 c 0 0.9 -0.8 1.7 -2.1 2.1 l -3.4 0.7 c -2.3 0.7 -3.9 2.5 -3.9 4.5 v 5.7 h 2.5 v -5.7 c 0 -0.9 0.8 -1.7 2.1 -2.1 l 3.4 -0.8 c 2.3 -0.6 3.9 -2.4 3.9 -4.4 Z"></path>
<path fill="#3999c6" d="M 24.1 20.4 v -5 h 2.5 v 5 c 0 0.9 0.8 1.7 2.1 2.1 l 3.4 0.7 c 2.3 0.7 3.9 2.5 3.9 4.5 v 5.7 h -2.5 v -5.7 c 0 -0.9 -0.8 -1.7 -2.1 -2.1 l -3.4 -0.8 c -2.3 -0.6 -3.9 -2.4 -3.9 -4.4 Z"></path>
<path fill="#7fba00" d="M 19.6 36 v -4.6 c 0 -1.1 -0.9 -2 -2 -2 H 13 c -1.1 0 -2 0.9 -2 2 V 36 c 0 1.1 0.9 2 2 2 h 4.6 c 1.1 0 2 -0.9 2 -2 Z m 10.8 0.2 v -4.6 c 0 -1.1 0.9 -2 2 -2 H 37 c 1.1 0 2 0.9 2 2 v 4.6 c 0 1.1 -0.9 2 -2 2 h -4.6 c -1.1 0 -2 -0.9 -2 -2 Z"></path>
<path fill="#804998" d="M 26.989 11.011 v 3.978 h -3.978 v -3.978 h 3.978 M 27.849 8 H 22.15 C 20.968 8 20 8.968 20 10.151 v 5.699 c 0 1.182 0.968 2.15 2.151 2.15 h 5.699 c 1.182 0 2.15 -0.968 2.15 -2.151 V 10.15 C 30 8.968 29.032 8 27.849 8 Z"></path>
<path fill="#ffffff" d="M 23 11 h 4 v 4 h -4 Z"></path>
</g>
</svg>