<svg xmlns="http://www.w3.org/2000/svg" x="0" y="0" width="20px" height="20px" viewBox="65.2 173.5 180 180">
<g>
<path fill="#0080FF" d="M155.2,351.7v-34.2c36.2,0,64.3-35.9,50.4-74c-5.1-14.1-16.4-25.4-30.5-30.5        c-38.1-13.8-74,14.2-74,50.4l0,0H67c0-57.7,55.8-102.7,116.3-83.8c26.4,8.3,47.5,29.3,55.7,55.7C257.9,295.9,213,351.7,155.2,351.7z"></path>
</g>
<polygon fill="#0080FF" points="155.3,317.6 121.3,317.6 121.3,283.6 121.3,283.6 155.3,283.6 155.3,283.6"></polygon>
<polygon fill="#0080FF" points="121.3,343.8 95.1,343.8 95.1,343.8 95.1,317.6 121.3,317.6"></polygon>
<path fill="#0080FF" d="M95.1,317.6H73.2l0,0v-21.9l0,0h21.9l0,0V317.6z"></path>
</svg>