<svg xmlns="http://www.w3.org/2000/svg" x="0" y="0" height="20px" width="20px" viewBox="0 0 400 400">
<path fill="#40be46" d="M347.58,336H52.42V313.35H347.58Z"></path>
<path fill="#40be46" d="M169.42,148.24h0c0-16.2,14.26-29.38,31.8-29.38S233,132,233,148.24s-14.27,29.37-31.8,29.37-31.8-13.18-31.8-29.37m176.1-6.94c-.65-.78-16.27-19.44-42-38.46a221.73,221.73,0,0,0-45.78-26.5C238.24,68.14,218.8,64,200,64s-38.23,4.16-57.77,12.36a221.73,221.73,0,0,0-45.78,26.5c-25.71,19-41.32,37.68-42,38.44a13.38,13.38,0,0,0,0,17.14c.66.79,16.27,19.44,42,38.47a222.18,222.18,0,0,0,45.78,26.5c19.54,8.2,39,12.36,57.77,12.36a135.36,135.36,0,0,0,20.78-1.65l-3.23-20.6A113.45,113.45,0,0,1,200,214.9c-16,0-32.73-3.61-49.7-10.73a201.22,201.22,0,0,1-41.45-24,256.08,256.08,0,0,1-34.07-30.27,256.86,256.86,0,0,1,34.07-30.27,201.62,201.62,0,0,1,41.45-24c17-7.12,33.69-10.74,49.7-10.74s32.74,3.62,49.7,10.74a201.62,201.62,0,0,1,41.45,24,257.46,257.46,0,0,1,34.07,30.27,255.42,255.42,0,0,1-34.07,30.27,218.38,218.38,0,0,1-23.23,15.1l-5.28,3-10.67,6L238.65,183.5a48.9,48.9,0,0,0,15.22-35.26c0-27.7-23.62-50.22-52.65-50.22s-52.65,22.52-52.65,50.22,23.62,50.22,52.65,50.22a54.38,54.38,0,0,0,19.86-3.75L244.42,231l1.43-.93.6,1.1c4.06-2.21,17.77-9.91,26.39-14.75l5.27-3a243.94,243.94,0,0,0,25.44-16.53c25.7-19,41.32-37.68,42-38.44A13.38,13.38,0,0,0,345.52,141.3Z"></path>
</svg>