<svg xmlns="http://www.w3.org/2000/svg" x="0" y="0" height="20px" width="20px" viewBox="0 0 400 400">
<path fill="#40be46" d="M347.22,368.8H52.78V346.18H347.22Z"></path>
<path fill="#40be46" d="M205.06,204.76c-16.89,3.49-30.61-9.39-33.08-23.31-3.21-18.06,9.35-31.26,23.16-33.76,36.49-6.63,50,48.77,9.92,57.07Zm7.84,17.59c62.84-16,34.57-110.85-25.75-92.37C127.62,148.21,150.94,238.15,212.9,222.35Z"></path>
<path fill="#40be46" d="M210.45,50.5c13.73,1.89,25.21,4.61,34.85,8.12,12.43,4.44,6.9,15.33,4.78,24.4C251.89,86.68,265,95,268.44,97.91c6.07-2.13,13.85-11.09,21.43-8.45,5.43,1.88,26.67,39,26.85,40.61,1.06,9.6-11.52,13.15-16.83,17.88,1.08,5.42,2.83,18.65,4.36,23,27.34,6.05,23.38,4.8,14.82,43.37-4.46,20.06-9.35,16.91-27.76,12.51l-13.78,18.79c6.62,19.53,22.4,14.89-12.11,36.48-28.25,17.68-22.71,15.44-37.92-5.32a103.38,103.38,0,0,1-10.75,2.5c-4.41.78-8.12.46-12.4,2.11-5,22.74-4,23.92-30,17.86l-2.85-.66,0-.14c-4.52-1.28-12.91-3.61-13.5-3.82C98,273.33,62,209.76,76.65,146.22c12.22-53.29,56.2-92,107.39-98.15l-.3-16.87,28,26.55-27,29.79L184.44,71c-1.7.22-3.42.49-5.15.79A105.82,105.82,0,0,0,95.53,152c-12.28,53.36,18.37,106.63,69.37,124l16,4.83,4,1c6.5-26.7,8-15.8,30.87-20.52C236.07,257,236,250.67,247,270.48l16.31-9.55c-12.94-18.65-8.13-16.34,5-32.83,14.9-18.77,4.11-24.66,31.73-18.67l4.67-19c-27.61-6.82-15.27-7.77-20.5-30.91-5-22.17-9.91-19.1,9.34-31.29l-10-16.67c-4.57,2.38-10.72,9-17.14,7.48-3.49-.83-11.9-9.22-15.45-12-19-15-24.27-4-18.59-31.77-9.33-2.68-16.57-4.38-26-5l11.54-12.72-7.42-7Z"></path>
</svg>