<svg xmlns="http://www.w3.org/2000/svg" x="0" y="0" height="20px" width="20px" viewBox="0 0 400 400">
<path fill="#40be46" d="M348.34,353H51.66V330.21H348.34Z"></path>
<path fill="#40be46" d="M79.58,220.05H320.42a122,122,0,0,0,2.74-25.57,123.16,123.16,0,0,0-246.32,0,122,122,0,0,0,2.74,25.57M339,244.36H61l-2.54-8.77a147.84,147.84,0,0,1-5.91-41.11C52.53,113.16,118.68,47,200,47s147.47,66.16,147.47,147.48a147.84,147.84,0,0,1-5.91,41.11Z"></path>
<rect fill="#40be46" x="171.18" y="154.77" width="117.35" height="24.31" transform="translate(-54.22 167.5) rotate(-36.1)"></rect>
</svg>