<svg xmlns="http://www.w3.org/2000/svg" x="0" y="0" height="20px" width="20px" viewBox="0 0 400 400">
<path fill="#40be46" d="M316.65,174.59a24.07,24.07,0,1,0-16.93,7,23.87,23.87,0,0,0,16.93-7M197.52,281.84a124.19,124.19,0,0,0,109-64.74L286,208.52A102.13,102.13,0,1,1,286.71,108l20.72-8A124.09,124.09,0,0,0,197.86,33.49h-.56C129,33.59,73.37,89.29,73.37,157.62,73.37,226.11,129,281.84,197.52,281.84ZM346,157.66a46.42,46.42,0,1,1-13.56-32.73A46.19,46.19,0,0,1,346,157.66Z"></path>
<path fill="#40be46" d="M346.42,366.51H53.58V344H346.42Z"></path>
</svg>