<svg xmlns="http://www.w3.org/2000/svg" x="0" y="0" width="20px" height="20px" viewBox="0 0 72 50">
<g>
<path fill-rule="evenodd" clip-rule="evenodd" d="M42.023 26.4741C39.8549 26.4741 38.0977 28.1034 38.0977 30.1119L38.1002 46.1049C38.1002 48.1134 39.8583 49.7419 42.0256 49.7419C44.1938 49.7419 45.951 48.1134 45.951 46.1041L45.9484 30.1119C45.9484 28.1026 44.1912 26.4741 42.023 26.4741ZM54.3668 11.8708C52.1986 11.8716 50.4414 13.5001 50.4414 15.5094L50.444 45.9989C50.444 48.0074 52.202 49.6359 54.3693 49.6359C56.5375 49.6359 58.2947 48.0066 58.2947 45.9981L58.293 15.5086C58.293 13.4993 56.5358 11.8708 54.3668 11.8708ZM29.6832 20.9385C27.515 20.9385 25.7578 22.5669 25.7578 24.577L25.7604 46.1049C25.7604 48.1134 27.5184 49.7419 29.6866 49.7419C31.8539 49.7419 33.6111 48.1134 33.6111 46.1041L33.6094 24.5754C33.6094 22.5661 31.8514 20.9377 29.6832 20.9385ZM17.3394 34.0807H17.3385C15.1703 34.0815 13.4131 35.7099 13.414 37.72L13.4165 46.1057C13.4165 48.1142 15.1738 49.7418 17.3411 49.7418H17.3419C19.5101 49.7418 21.2673 48.1134 21.2664 46.1033L21.2639 37.7176C21.2639 35.7091 19.5067 34.0807 17.3394 34.0807ZM71.7098 7.83809V35.2161C71.7098 39.5389 67.9157 43.0542 63.2511 43.0542H61.8051V40.3741H63.2511C66.3205 40.3741 68.8169 38.0605 68.8169 35.2161V7.83809C68.8169 4.99362 66.3205 2.67933 63.2511 2.67933H8.45781C5.3893 2.67933 2.89288 4.99362 2.89288 7.83809V35.2161C2.89288 38.0605 5.3893 40.3741 8.45781 40.3741H9.90468V43.0542H8.45781C3.79408 43.0542 0 39.5389 0 35.2161V7.83809C0 3.51529 3.79408 0 8.45781 0H63.2511C67.9157 0 71.7098 3.51529 71.7098 7.83809Z" fill="#EDBD11"></path>
</g>
</svg>