<svg xmlns="http://www.w3.org/2000/svg" x="0" y="0" width="20px" height="20px" viewBox="0 0 70 51">
<path fill-rule="evenodd" clip-rule="evenodd" d="M60.7433 0H8.52537C3.83593 0 0 3.872 0 8.60554V36.3049C0 41.0372 3.83593 44.9104 8.52537 44.9104H9.59105V42.0609H8.52537C5.38109 42.0609 2.82421 39.4788 2.82421 36.3049V8.60554C2.82421 5.43293 5.38109 2.85077 8.52537 2.85077H60.7433C63.8876 2.85077 66.4445 5.43293 66.4445 8.60554V36.3049C66.4445 39.4788 63.8876 42.0609 60.7433 42.0609H59.6776V44.9104H60.7433C65.4327 44.9104 69.2687 41.0372 69.2687 36.3049V8.60554C69.2687 3.872 65.4327 0 60.7433 0Z" fill="#742774"></path>
<path fill-rule="evenodd" clip-rule="evenodd" d="M31.0687 36.4879L26.2464 41.1982C25.4122 42.0131 24.0648 42.0131 23.2305 41.1982L18.4082 36.4879C17.5629 35.673 17.5629 34.3569 18.4082 33.5312L23.2305 28.8209C24.0648 28.006 25.4122 28.006 26.2464 28.8209L31.0687 33.5312C31.9141 34.3569 31.9141 35.673 31.0687 36.4879ZM40.3182 33.1658L26.6315 19.797C25.5831 18.7741 23.8936 18.7741 22.8453 19.797L9.15853 33.1658C8.11138 34.1898 8.11138 35.84 9.15853 36.8629L22.8453 50.2329C23.8936 51.2557 25.5831 51.2557 26.6315 50.2329L40.3182 36.8629C41.3666 35.84 41.3666 34.1898 40.3182 33.1658Z" fill="#742774"></path>
<path fill-rule="evenodd" clip-rule="evenodd" d="M42.9482 32.3912L36.8775 26.3193C36.424 25.8658 36.424 25.1318 36.8775 24.6783L42.9482 18.6088C43.4017 18.1553 44.1369 18.1553 44.5904 18.6088L50.6599 24.6783C51.1134 25.1318 51.1134 25.8658 50.6599 26.3193L44.5904 32.3912C44.1369 32.8447 43.4017 32.8447 42.9482 32.3912Z" fill="#742774"></path>
<path fill-rule="evenodd" clip-rule="evenodd" d="M52.8436 42.2867L46.7729 36.2155C46.3194 35.762 46.3194 35.0279 46.7729 34.5743L52.8436 28.5043C53.2971 28.0508 54.0324 28.0508 54.4847 28.5043L60.5554 34.5743C61.0089 35.0279 61.0089 35.762 60.5554 36.2155L54.4847 42.2867C54.0324 42.7402 53.2971 42.7402 52.8436 42.2867Z" fill="#742774"></path>
<path fill-rule="evenodd" clip-rule="evenodd" d="M42.9482 50.6599L36.8775 44.5892C36.424 44.1357 36.424 43.4016 36.8775 42.9481L42.9482 36.8774C43.4017 36.4239 44.1369 36.4239 44.5904 36.8774L50.6599 42.9481C51.1134 43.4016 51.1134 44.1357 50.6599 44.5892L44.5904 50.6599C44.1369 51.1134 43.4017 51.1134 42.9482 50.6599Z" fill="#742774"></path>
</svg>
