<svg xmlns="http://www.w3.org/2000/svg" x="0" y="0" height="20px" width="20px" viewBox="0 0 48 48">
<g transform="translate(-175 -193)">
<g>
<path d="M78.919,97.5A18.7,18.7,0,1,1,97.638,78.8,18.73,18.73,0,0,1,78.919,97.5m0-34.01a15.3,15.3,0,1,0,15.32,15.3,15.33,15.33,0,0,0-15.32-15.3" transform="translate(120.09 138.028)" fill="#cb2029"></path>
<path d="M135.729,224.1c-.488-.977-1.1-2.2-2.308-2.2s-1.81,1.216-2.308,2.2c-.46.91-.718,1.388-1.293,1.388s-.833-.479-1.293-1.388c-.488-.977-1.1-2.2-2.308-2.2s-1.81,1.216-2.308,2.2c-.46.91-.718,1.388-1.293,1.388s-.833-.479-1.293-1.388c-.488-.977-1.1-2.2-2.308-2.2s-1.81,1.216-2.308,2.2c-.46.91-.718,1.388-1.293,1.388s-.833-.479-1.293-1.388c-.488-.977-1.1-2.2-2.308-2.2s-1.81,1.159-2.3,2.135c0,0-.373.833-.536,1.226s-.795,1.886-.22,2.6c.326.4.795-.172,1.063-.594.2-.326.68-1.264.68-1.264.488-.871.747-1.34,1.312-1.34s.833.479,1.293,1.388c.488.977,1.1,2.2,2.308,2.2s1.81-1.216,2.308-2.2c.46-.91.718-1.388,1.293-1.388s.833.479,1.293,1.388c.488.977,1.1,2.2,2.308,2.2s1.81-1.216,2.308-2.2c.46-.91.718-1.388,1.293-1.388s.833.479,1.293,1.388c.488.977,1.1,2.2,2.308,2.2s1.81-1.216,2.308-2.2c.46-.91.718-1.388,1.293-1.388s.833.479,1.293,1.388c0,0,.211.412.517.948.134.22.632,1.063,1.072,1.034.393-.029.536-1.273.1-2.365C136.1,224.945,135.729,224.1,135.729,224.1Z" transform="translate(76.388 -8.279)" fill="#cb2029"></path>
</g>
</g>
</svg>