<svg xmlns="http://www.w3.org/2000/svg" xmlns:xlink="http://www.w3.org/1999/xlink" x="0" y="0" width="20px" height="20px" viewBox="0 0 161.9 162" xml:space="preserve">
<path fill="#312D2A" d="M64.3,85.4c0.9,0,1.9,0.5,2.7,1.5v2.6c-0.6,1.5-1.7,2.3-2.7,2.3c-1.8,0-2.7-1.6-2.7-3.2 C61.6,87,62.4,85.3,64.3,85.4z M77.5,87.7c0-7.1-5.6-11.9-12.9-11.9c-7,0-12.7,5.5-12.7,12.6c0,6.9,5.6,12.6,12.6,12.6 c1.7,0,3.6-0.3,5.3-1.1c0.2-0.1,0.3-0.5,0.2-0.7l-1-1.9c-0.1-0.2-0.5-0.3-0.7-0.2c-1.3,0.6-2.5,0.8-3.8,0.8c-5,0-8.9-4.1-8.9-9.3 c0-5.3,4-9.3,9.1-9.3c5.8,0,9.3,3.3,9.3,8.8c0,1.8-0.7,4.1-2.2,4.1c-0.9,0-1.4-0.9-1.4-3.8v-5c0-0.3-0.2-0.6-0.6-0.6h-2.2 c-0.3,0-0.6,0.2-0.6,0.6v0.6c-0.8-0.8-2.2-1.4-3.3-1.4c-3.4,0-5.4,3.2-5.4,6.2c0,3.3,2.2,6.1,5.4,6.1c1.6,0,3.2-0.8,4-2.1 c0.9,2.1,2.5,2.6,3.9,2.6C75.5,95.3,77.4,91.7,77.5,87.7z"></path>
<path fill="#312D2A" d="M28.5,38.6v9.2h65.7c0.3-3.2,1-6.3,2.2-9.2H28.5z"></path>
<path fill="#312D2A" d="M132.6,118.4h9.2V77.9c-2.8,1.7-5.9,2.9-9.2,3.6V118.4z"></path>
<path fill="#312D2A" d="M110.5,80.2l1.3-1.3c-0.4-0.2-0.9-0.4-1.3-0.7V80.2z"></path>
<path fill="#312D2A" d="M111.7,78.9l-1.3,1.3v48.4h-92V80.3L53,114.8c3.2,3.2,7.3,4.7,11.5,4.7s8.3-1.6,11.5-4.7l34.5-34.5v-2 c-2.3-1.3-4.4-2.8-6.2-4.5l-34.7,34.7c-1.4,1.4-3.2,2.1-5.1,2.1s-3.7-0.7-5.1-2.1L19.6,68.7h80.2c-1.9-2.7-3.4-5.7-4.4-9H9.5v77.9 h110V81.6C116.7,81,114.2,80.1,111.7,78.9z"></path>
<g>
<path fill="#312D2A" d="M125.8,77.1c-14.7,0-26.7-12-26.7-26.7s12-26.7,26.7-26.7s26.7,12,26.7,26.7S140.6,77.1,125.8,77.1z M125.8,32.7c-9.8,0-17.7,7.9-17.7,17.7c0,9.8,7.9,17.7,17.7,17.7s17.7-7.9,17.7-17.7C143.6,40.6,135.6,32.7,125.8,32.7z"></path>
</g>
<path fill="#312D2A" d="M135.2,52.9l3.3,1.9l-2.5,4.4l-3.3-1.9c-1.2,1.2-2.7,2-4.3,2.5v3.8h-5.1v-3.8c-1.7-0.4-3.1-1.3-4.3-2.5 l-3.3,1.9l-2.5-4.4l3.3-1.9c-0.2-0.8-0.3-1.6-0.3-2.5c0-0.9,0.1-1.7,0.3-2.5l-3.3-1.9l2.5-4.4l3.3,1.9c1.2-1.2,2.7-2,4.3-2.5v-3.8 h5.1V41c1.7,0.4,3.1,1.3,4.3,2.5l3.3-1.9l2.5,4.4l-3.3,1.9c0.2,0.8,0.3,1.6,0.3,2.5C135.6,51.3,135.4,52.1,135.2,52.9z M125.8,45.4 c-2.8,0-5.1,2.3-5.1,5.1s2.3,5.1,5.1,5.1c2.8,0,5.1-2.3,5.1-5.1S128.6,45.4,125.8,45.4z"></path>
</svg>