<svg xmlns="http://www.w3.org/2000/svg" xmlns:xlink="http://www.w3.org/1999/xlink" x="0" y="0" width="20px" height="20px" viewBox="0 0 161.9 162" xml:space="preserve">
<path fill="#312D2A" d="M111.1,85.4h11.3l5.7,9.9l16.7,0l8.4-14.5l-8.3-14.5l-16.7,0l-5.8,10.1h-11.2c-2-13.4-12.6-23.9-26-25.7  V22.3H56.5v-7.8H31.8v24.7h24.7v-7.8h19.6v19.6C63.1,53,52.9,63.4,51,76.4H34.8l-7.7-13.2L9.5,93.8h35.3L40,85.4h11  c2,13,12.2,23.3,25.1,25.4v28.7h30.6v7.8h24.7v-24.7h-24.7v7.8H85.1V111C98.4,109.2,109.1,98.7,111.1,85.4z M132.2,73.4l8.6,0  l4.3,7.5l-4.3,7.5l-8.6,0l-4.3-7.5L132.2,73.4z M49.5,32.1H38.8V21.5h10.7V32.1z M19.9,87.8l7.2-12.6l7.3,12.6H19.9z M113.7,129.7  h10.7v10.7h-10.7V129.7z M59.7,80.8c0-11.8,9.6-21.4,21.4-21.4s21.4,9.6,21.4,21.4c0,11.8-9.6,21.4-21.4,21.4S59.7,92.6,59.7,80.8z"></path>
</svg>