<svg xmlns="http://www.w3.org/2000/svg" xmlns:xlink="http://www.w3.org/1999/xlink" x="0" y="0" width="20px" height="20px" viewBox="0 0 161.9 162" xml:space="preserve">
<path fill="#312D2A" d="M55.3,101.8h52.1v6.5H55.3V101.8z M55.3,119.9h30.9v6.5H55.3V119.9z M98.7,64.3H86.1V51.5H76v12.8H63.4v10.4 H76v12.2h10.1V74.7h12.6V64.3z M112.1,28.6v9h11.4v105.9H39.8V37.6H50v-9H30.8v123.9h101.7V28.6H112.1z M92.8,21.9v-0.1 c0-6.5-5.3-11.9-11.9-11.9S69,15.2,69,21.8v0.1H55.8v6.7l0.1,13.7h50.3l0.1-13.7v-6.7C106.3,21.9,92.8,21.9,92.8,21.9z M80.9,17.9 c2.1,0,3.9,1.7,3.9,3.9s-1.7,3.9-3.9,3.9S77,24,77,21.8S78.8,17.9,80.9,17.9z"></path>
</svg>