<svg xmlns="http://www.w3.org/2000/svg" xmlns:xlink="http://www.w3.org/1999/xlink" x="0" y="0" width="20px" height="20px" viewBox="0 0 161.9 162" xml:space="preserve">
<path fill="#312D2B" d="M24.7,18.2l-0.4-9h10.5l-0.4,9l-1.5,17h-6.8L24.7,18.2z M29.7,39.1c-3.7,0-6.7,3-6.7,6.7 c0,3.7,3,6.7,6.7,6.7s6.7-3,6.7-6.7C36.4,42.1,33.4,39.1,29.7,39.1z M76.2,96.1l-0.3-7.4h8.6l-0.3,7.4L83,110.1h-5.6L76.2,96.1z M80.3,113.5c-3,0-5.5,2.5-5.5,5.5s2.5,5.5,5.5,5.5s5.5-2.5,5.5-5.5S83.3,113.5,80.3,113.5z M124.5,129.8H36.8V81.3h62.3v-9H27.8 v66.6h105.7v-30.2h-9V129.8z M117.1,65.2l-0.2-5.4h6.3l-0.2,5.4L122,75.3H118L117.1,65.2z M120.1,77.6c-2.2,0-4,1.8-4,4s1.8,4,4,4 s4-1.8,4-4S122.3,77.6,120.1,77.6z M102.1,46.2v59.3h36.3V46.2H102.1z M132.4,52.2v43h-24.3v-43H132.4z M117.1,100c0-1.7,1.4-3,3-3 s3,1.4,3,3s-1.4,3-3,3S117.1,101.7,117.1,100z M123.6,41.7h-6V33h6V41.7z M123.6,26.5h-6v-5.8h0.1v-3h5.9V26.5z M111.2,23.7h-8.7v-6 h8.7V23.7z M96,23.7h-8.7v-6H96V23.7z M80.8,23.7h-8.7v-6h8.7V23.7z M65.5,23.7h-8.7v-6h8.7V23.7z M50.3,23.7h-8.7v-6h8.7V23.7z M83.7,67.9h-6v-8.7h6V67.9z M83.7,52.7h-6V44h6V52.7z M83.7,37.5h-6v-8.7h6V37.5z M142.2,143.7H19.7v9h122.5V143.7z"></path>
</svg>