<svg xmlns="http://www.w3.org/2000/svg" xmlns:xlink="http://www.w3.org/1999/xlink" x="0" y="0" width="20px" height="20px" viewBox="0 0 161.9 162" xml:space="preserve">
<path fill="#312D2A" d="M125,143.1H8.9v-9h107V27.9H8.9v-9h116V143.1z M133.1,30.7v26.5L153,44L133.1,30.7z M104.8,36.8H89.2v15.6 h15.6V36.8z M80.5,36.8H64.8v15.6h15.6V36.8z M56.1,36.8H40.5v15.6h15.6V36.8z M31.8,36.8H16.2v15.6h15.6V36.8z M133.1,66.9v26.5 L153,80.2L133.1,66.9z M104.8,73H89.2v15.6h15.6V73z M80.5,73H64.8v15.6h15.6V73z M133.1,103.1v26.5l19.8-13.2L133.1,103.1z M104.8,109.3H89.2v15.6h15.6V109.3z M80.5,109.3H64.8v15.6h15.6V109.3z M56.1,109.3H40.5v15.6h15.6V109.3z"></path>
</svg>