<svg xmlns="http://www.w3.org/2000/svg" xmlns:xlink="http://www.w3.org/1999/xlink" x="0" y="0" width="20px" height="20px" viewBox="0 0 161.9 162" xml:space="preserve">
<g>
<path fill="#312D2A" d="M49,81.9H8.9v9h42.8C50.6,88,49.7,85,49,81.9z"></path>
<path fill="#312D2A" d="M88.7,15.5H8.9v9h61.3C75.7,20.4,82,17.3,88.7,15.5z"></path>
<path fill="#312D2A" d="M57.7,37.6H8.9v9h43.7C54,43.4,55.7,40.4,57.7,37.6z"></path>
<path fill="#312D2A" d="M48.6,59.7H8.9v9h38.8C47.8,65.6,48.1,62.6,48.6,59.7z"></path>
<polygon fill="#312D2A" points="42.3,141.7 52.1,149.5 58.7,141.6 48.9,133.7 "></polygon>
<path fill="#312D2A" d="M121.8,49.3c-5.3,0-9.6,4.3-9.6,9.6c0,0.7,0.1,1.5,0.2,2.1l-7.6,4.4l0-15.8c0.9-0.5,1.7-1.2,2.3-2.2 c1.6-2.8,0.7-6.4-2.2-8h0c-1.4-0.8-2.9-1-4.5-0.6c-1.5,0.4-2.8,1.4-3.6,2.7c-1.6,2.8-0.7,6.4,2.2,8c0.1,0,0.1,0.1,0.2,0.1l0,15.7 L91.7,61c0.2-0.7,0.2-1.4,0.2-2.1c0-5.3-4.3-9.6-9.6-9.6s-9.6,4.3-9.6,9.6s4.3,9.6,9.6,9.6c2.6,0,4.9-1,6.7-2.7l7.5,4.4l-11.9,6.9 c0,0-0.1-0.1-0.1-0.1h0c-2.8-1.6-6.4-0.7-8,2.2c-1.6,2.8-0.7,6.4,2.2,8c0.9,0.5,1.9,0.8,2.9,0.8c2,0,4-1.1,5.1-2.9 c0.6-1,0.8-2.1,0.8-3.2l11.9-6.8l0,9.3c-4,1.2-6.9,4.9-6.9,9.2c0,5.3,4.3,9.6,9.6,9.6s9.6-4.3,9.6-9.6c0-4.3-2.9-8-6.9-9.2l0-9.3 l11.5,6.7c-0.1,2.1,1,4.2,2.9,5.3c0.9,0.5,1.9,0.8,2.9,0.8c2,0,4-1.1,5.1-2.9c1.6-2.8,0.7-6.4-2.2-8c-1.9-1.1-4.3-1-6,0.1 l-11.5-6.7l7.6-4.4c1.7,1.7,4.1,2.7,6.6,2.7c5.3,0,9.6-4.3,9.6-9.6S127.1,49.3,121.8,49.3z M82.3,63c-2.3,0-4.1-1.8-4.1-4.1 s1.8-4.1,4.1-4.1c2.3,0,4.1,1.8,4.1,4.1S84.6,63,82.3,63z M83.7,83.4c-0.7,1.2-2.3,1.6-3.5,0.9c-1.2-0.7-1.6-2.3-0.9-3.5 c0.5-0.8,1.3-1.3,2.2-1.3c0.4,0,0.9,0.1,1.3,0.3C84,80.6,84.5,82.2,83.7,83.4z M99.8,43.2c0.3-0.6,0.9-1,1.6-1.2 c0.2-0.1,0.4-0.1,0.7-0.1c0.4,0,0.9,0.1,1.3,0.3c1.2,0.7,1.6,2.3,0.9,3.5c-0.7,1.2-2.3,1.6-3.5,0.9C99.5,46,99.1,44.4,99.8,43.2z M106.1,93.6c0,2.3-1.8,4.1-4.1,4.1s-4.1-1.8-4.1-4.1c0-2.3,1.8-4.1,4.1-4.1S106.1,91.3,106.1,93.6z M120,80.7 c0.5-0.8,1.3-1.3,2.2-1.3c0.4,0,0.9,0.1,1.3,0.3c1.2,0.7,1.6,2.3,0.9,3.5c-0.7,1.2-2.3,1.6-3.5,0.9C119.7,83.4,119.3,81.9,120,80.7 z M121.8,63c-2.3,0-4.1-1.8-4.1-4.1s1.8-4.1,4.1-4.1s4.1,1.8,4.1,4.1S124.1,63,121.8,63z"></path>
<path fill="#312D2A" d="M103,20.8c-26.6,0-48.3,22-48.3,49c0,14.5,6.2,27.5,16.1,36.5l-18.5,23.2l9.8,7.9l19.1-23.8 c6.6,3.4,14,5.3,21.8,5.3c26.6,0,48.3-22,48.3-49S129.6,20.8,103,20.8z M103,109.7c-21.7,0-39.3-17.9-39.3-40s17.6-40,39.3-40 s39.3,17.9,39.3,40S124.6,109.7,103,109.7z"></path>
</g>
</svg>