<svg xmlns="http://www.w3.org/2000/svg" xmlns:xlink="http://www.w3.org/1999/xlink" x="0" y="0" width="20px" height="20px" viewBox="0 0 161.9 162" xml:space="preserve">
<g>
<path fill="#312D2A" d="M9,12.2v137.7l143.9,0.5V12.2H9z M18,53.1h124.8l-32.6,23.5l-32-9.6L40.9,95.6L18,81.4V53.1z M143.9,21.2 v22.9H18V21.2H143.9z M124.1,141.3L124,106l-9,0l0.1,35.3l-29.5-0.1l-0.1-46.8l-9,0l0.1,46.7L49.2,141l-0.1-17.8l-9,0l0.1,17.7 L18,140.9V92l23.5,14.6L80,76.9l31.8,9.6l32.1-23.1v78L124.1,141.3z"></path>
<rect x="24.4" y="26.8" fill="#312D2A" width="11.9" height="11.9"></rect>
</g>
</svg>