<svg xmlns="http://www.w3.org/2000/svg" xmlns:xlink="http://www.w3.org/1999/xlink" x="0" y="0" width="20px" height="20px" viewBox="-210 205 225 225" xml:space="preserve">
<switch>
<g>
<g>
<g>
<circle fill="#F80000" cx="-107" cy="307" r="96"></circle>
<circle fill="#FFFFFF" cx="-107" cy="307" r="88"></circle>
<circle fill="none" stroke="#F80000" stroke-width="3.0474" stroke-miterlimit="10" cx="-107" cy="307" r="76"></circle>
</g>
</g>
<g>
<path fill="#F80000" d="M-151.2,325.5c0-0.3,0-0.6,0-1l6.7-57.4c0.3-2.4,2.3-4.2,4.7-4.2h63.1c2.3,0,4.3,1.7,4.6,4l8.3,57.4     c0.1,0.4,0.1,0.7,0,1.1c-0.8-1.2-2.1-2-3.7-2h-80.1C-149,323.5-150.4,324.3-151.2,325.5z M-62,336.2v-2.8c0-2.8-2.6-5.7-5.1-5.7     h-81.7c-2.5,0-4.1,2.8-4.1,5.7v2.8c0,0.2,0.7-2.5,5.6-2.1h79.7C-62.6,334-62,336.4-62,336.2z M-61,346.7V343c0-2.7-2.2-5-5-5     h-82.8c-2.7,0-5,2.2-5,5v3.7c0,2.7,2.2,5,5,5H-66C-63.2,351.7-61,349.5-61,346.7z M-65.4,344.9c0,1.4-1.1,2.5-2.5,2.5     c-1.4,0-2.5-1.1-2.5-2.5c0-1.4,1.1-2.5,2.5-2.5C-66.5,342.3-65.4,343.5-65.4,344.9z M-83.3,302c0-5.1-3.8-9.3-8.7-10     c0,0,0-0.1,0-0.1c0-7.1-5.8-12.9-12.9-12.9c-4.7,0-8.8,2.5-11,6.2c-0.7-0.2-1.5-0.4-2.3-0.4c-4.2,0-7.6,3.4-7.7,7.5     c-4.1,1.3-7.1,5.1-7.1,9.6c0,5.5,4.5,10,10,10.1c0.5,0.1,1.1,0.2,1.6,0.2h27.7c0.8,0,1.5-0.1,2.2-0.4     C-86.8,311-83.3,306.9-83.3,302z"></path>
</g>
</g>
</switch>
</svg>