<svg xmlns="http://www.w3.org/2000/svg" x="0" y="0" height="20px" width="20px" viewBox="0 0 100 100">
<defs>
<clipPath id="clip0-70F3DAE0-57C1-4DD0-911D-6A6387CCD300">
<path d="M639 359 737 359 737 457 639 457Z" fill-rule="evenodd" clip-rule="evenodd"></path>
</clipPath>
</defs>
<g clip-path="url(#clip0-70F3DAE0-57C1-4DD0-911D-6A6387CCD300)" transform="translate(-639 -359)">
<path d="M640.5 372.375C640.5 378.933 661.99 384.25 688.5 384.25 715.01 384.25 736.5 378.933 736.5 372.375L736.5 443.625C736.5 450.183 715.01 455.5 688.5 455.5 661.99 455.5 640.5 450.183 640.5 443.625Z" fill="#59B4D9" fill-rule="evenodd"></path>
<path d="M640.5 372.375C640.5 365.817 661.99 360.5 688.5 360.5 715.01 360.5 736.5 365.817 736.5 372.375 736.5 378.933 715.01 384.25 688.5 384.25 661.99 384.25 640.5 378.933 640.5 372.375Z" fill="#9BD2E8" fill-rule="evenodd"></path>
<path d="M736.5 372.375C736.5 378.933 715.01 384.25 688.5 384.25 661.99 384.25 640.5 378.933 640.5 372.375 640.5 365.817 661.99 360.5 688.5 360.5 715.01 360.5 736.5 365.817 736.5 372.375ZM736.5 372.375 736.5 443.625C736.5 450.183 715.01 455.5 688.5 455.5 661.99 455.5 640.5 450.183 640.5 443.625L640.5 372.375" stroke="#2F528F" stroke-miterlimit="8" fill="none" fill-rule="evenodd"></path>
</g>
</svg>