<svg width="20px" height="20px" viewBox="0 0 41 41" xmlns="http://www.w3.org/2000/svg" xmlns:xlink="http://www.w3.org/1999/xlink">
    <g stroke="none" stroke-width="1" fill="none" fill-rule="evenodd">
        <g transform="translate(1.000000, 1.000000)">
            <g stroke="#00C1DE" stroke-width="1.6">
                <rect fill="#FFFFFF" fill-rule="nonzero" x="0.6" y="0.6" width="38.4" height="38.4" rx="8"></rect>
                <rect x="0.6" y="0.6" width="38.4" height="38.4" rx="8"></rect>
            </g>
            <g transform="translate(6.500000, 6.500000)" fill="#00C1DE" fill-rule="nonzero">
                <path d="M22.99,23.38 L21.86,23.38 L21.86,23.24 C21.82,23.79 21.66,24.29 21.43,24.77 C21.2,25.25 20.88,25.66 20.51,26.01 C20.14,26.35 19.7,26.62 19.2,26.83 C18.69,27.03 18.17,27.13 17.61,27.13 L4.61,27.13 C3.42,27.13 2.43,26.71 1.6,25.87 C0.77,25.02 0.36,24.04 0.36,22.9 L0.36,10.04 C0.36,8.86 0.77,7.87 1.62,7.05 C2.47,6.23 3.46,5.82 4.61,5.82 L5.74,5.82 L5.74,4.7 C5.74,3.51 6.15,2.53 7,1.71 C7.85,0.89 8.84,0.47 9.99,0.47 L22.99,0.47 C24.18,0.47 25.17,0.89 26,1.73 C26.83,2.58 27.24,3.56 27.24,4.7 L27.24,19.18 C27.24,20.37 26.83,21.35 25.98,22.17 C25.13,22.99 24.14,23.38 22.99,23.38 L22.99,23.38 Z M21.29,21.14 C21.75,21.14 22.14,21.07 22.48,20.94 C22.83,20.8 23.08,20.57 23.27,20.27 C23.45,19.98 23.56,19.61 23.56,19.18 C23.56,18.74 23.45,18.36 23.22,18.04 C22.99,17.69 22.69,17.44 22.32,17.26 C21.96,17.08 21.54,17.01 21.08,17.01 L19.82,16.8 L19.82,16.39 C19.82,15.18 19.43,14.27 18.65,13.58 C17.87,12.92 16.83,12.58 15.57,12.58 C14.54,12.58 13.66,12.83 12.93,13.33 C12.19,13.83 11.69,14.54 11.41,15.46 L10.84,15.46 C10.49,15.46 10.15,15.5 9.83,15.59 C9.5,15.68 9.23,15.8 8.98,15.98 C8.72,16.16 8.49,16.35 8.31,16.57 C8.13,16.8 7.99,17.08 7.87,17.37 C7.78,17.67 7.71,17.99 7.71,18.36 C7.71,19.22 7.96,19.91 8.49,20.41 C9.02,20.91 9.71,21.16 10.61,21.16 L21.29,21.16 L21.29,21.14 Z M2.47,11.07 L2.47,21.76 C2.47,22.63 2.8,23.4 3.44,24.04 C4.08,24.68 4.84,25 5.74,25 L16.49,25 C17.09,25 17.61,24.84 18.12,24.54 C18.62,24.22 19.02,23.84 19.31,23.31 L10.61,23.31 C9.73,23.31 8.91,23.08 8.17,22.65 C7.44,22.22 6.84,21.6 6.4,20.82 C5.97,20.05 5.76,19.22 5.76,18.33 C5.76,17.08 6.2,15.98 7.05,15.04 C7.9,14.11 8.93,13.56 10.15,13.42 C10.51,12.76 10.95,12.17 11.48,11.66 C12.01,11.16 12.63,10.77 13.34,10.48 C14.05,10.18 14.79,10.04 15.57,10.04 C16.33,10.04 17.06,10.18 17.8,10.48 C18.51,10.77 19.18,11.16 19.75,11.66 L19.75,10.96 C19.75,10.39 19.61,9.84 19.31,9.34 C19.02,8.83 18.62,8.44 18.12,8.15 C17.61,7.85 17.09,7.71 16.49,7.71 L5.74,7.71 C4.84,7.78 4.08,8.15 3.44,8.81 C2.8,9.47 2.47,10.2 2.47,11.07 L2.47,11.07 Z M21.86,2.51 L11.11,2.51 C10.24,2.51 9.46,2.83 8.81,3.47 C8.17,4.11 7.85,4.86 7.85,5.75 L17.48,5.75 C18.67,5.75 19.66,6.16 20.49,7.01 C21.31,7.85 21.73,8.83 21.73,9.97 L21.73,15.11 C22.09,15.16 22.44,15.25 22.78,15.41 C23.13,15.55 23.43,15.73 23.7,15.94 C23.98,16.14 24.23,16.39 24.44,16.67 C24.64,16.94 24.83,17.26 24.97,17.58 L24.97,5.77 C25.03,4.91 24.76,4.15 24.14,3.51 C23.52,2.87 22.76,2.51 21.86,2.51 L21.86,2.51 Z" id="Shape"></path>
            </g>
        </g>
    </g>
</svg>