<svg width="20px" height="20px" viewBox="0 0 41 41" xmlns="http://www.w3.org/2000/svg" xmlns:xlink="http://www.w3.org/1999/xlink">
    <g stroke="none" stroke-width="1" fill="none" fill-rule="evenodd">
        <g transform="translate(1.000000, 1.000000)">
            <g stroke="#00C1DE" stroke-width="1.6">
                <rect fill="#FFFFFF" fill-rule="nonzero" x="0.6" y="0.6" width="38.4" height="38.4" rx="8"></rect>
                <rect x="0.6" y="0.6" width="38.4" height="38.4" rx="8"></rect>
            </g>
            <g transform="translate(6.500000, 6.500000)" fill="#00C1DE" fill-rule="nonzero">
                <path d="M14.94,16.59 C14.94,16.88 15.01,17.17 15.16,17.41 C15.32,17.65 15.52,17.85 15.76,18.01 C16,18.16 16.29,18.23 16.58,18.23 C17.05,18.23 17.42,18.07 17.76,17.74 C18.09,17.41 18.24,17.04 18.24,16.57 C18.24,16.28 18.18,16 18.02,15.75 C17.87,15.51 17.67,15.31 17.42,15.16 C17.18,15 16.89,14.94 16.6,14.94 C16.14,14.94 15.76,15.09 15.43,15.42 C15.12,15.75 14.94,16.15 14.94,16.59 L14.94,16.59 Z M16.6,10.81 C14.99,10.81 13.59,11.38 12.46,12.53 C11.33,13.68 10.73,15.05 10.73,16.66 C10.73,18.27 11.31,19.64 12.44,20.77 C13.59,21.89 14.96,22.45 16.58,22.45 C17.22,22.45 17.82,22.36 18.42,22.16 C19.02,21.96 19.55,21.7 20.02,21.32 C20.48,20.97 20.9,20.55 21.26,20.06 C21.61,19.58 21.88,19.05 22.08,18.47 C22.28,17.88 22.36,17.28 22.36,16.66 C22.36,15.03 21.79,13.63 20.66,12.51 C19.57,11.38 18.2,10.81 16.6,10.81 L16.6,10.81 Z M16.6,20.19 C15.63,20.19 14.79,19.84 14.1,19.16 C13.41,18.47 13.06,17.63 13.06,16.66 C13.06,16.28 13.12,15.91 13.23,15.56 C13.35,15.2 13.52,14.87 13.74,14.58 C13.97,14.3 14.21,14.03 14.5,13.83 C14.79,13.61 15.12,13.44 15.47,13.33 C15.83,13.21 16.2,13.15 16.58,13.15 C17.56,13.15 18.4,13.5 19.09,14.19 C19.77,14.87 20.13,15.71 20.13,16.68 C20.13,17.65 19.77,18.49 19.09,19.18 C18.42,19.84 17.58,20.19 16.6,20.19 L16.6,20.19 Z M16.6,5.88 C14.7,5.88 12.95,6.35 11.33,7.27 C9.71,8.2 8.43,9.46 7.47,11.05 C6.52,12.64 6.01,14.36 5.99,16.26 L3.97,16.26 C3.71,16.26 3.46,16.17 3.29,15.98 C3.09,15.78 3,15.56 3,15.29 L3,3.96 C3,3.87 3,3.81 3.02,3.74 C3.04,3.67 3.06,3.61 3.09,3.54 C3.11,3.47 3.15,3.41 3.2,3.36 C3.24,3.3 3.29,3.25 3.35,3.21 C3.42,3.17 3.46,3.12 3.53,3.1 C3.6,3.08 3.66,3.03 3.73,3.03 C3.79,3.01 3.88,3.01 3.95,3.01 L15.32,3.01 C15.45,3.01 15.58,3.03 15.69,3.08 C15.81,3.12 15.92,3.19 16,3.28 C16.09,3.36 16.16,3.47 16.2,3.58 C16.25,3.7 16.27,3.83 16.27,3.96 L16.27,4.38 L18.95,4.38 L18.95,3.03 C18.95,2.55 18.84,2.1 18.6,1.69 C18.35,1.27 18.02,0.96 17.62,0.71 C17.2,0.47 16.76,0.36 16.27,0.36 L3.04,0.36 C2.8,0.36 2.55,0.38 2.33,0.45 C2.11,0.51 1.89,0.6 1.69,0.71 C1.49,0.82 1.31,0.98 1.14,1.13 C0.96,1.31 0.83,1.49 0.71,1.69 C0.6,1.88 0.52,2.1 0.45,2.33 C0.38,2.55 0.36,2.79 0.36,3.03 L0.36,16.31 C0.36,17.04 0.63,17.68 1.16,18.21 C1.69,18.74 2.31,19 3.06,19 L6.23,19 C6.79,21.36 8.03,23.33 9.96,24.9 C11.88,26.44 14.1,27.24 16.6,27.24 C18.53,27.22 20.3,26.73 21.94,25.78 C23.58,24.83 24.87,23.53 25.82,21.89 C26.77,20.26 27.24,18.49 27.24,16.57 C27.24,14.65 26.77,12.88 25.82,11.23 C24.87,9.59 23.58,8.29 21.94,7.34 C20.3,6.35 18.53,5.88 16.6,5.88 L16.6,5.88 Z M16.6,24.46 C14.41,24.46 12.53,23.68 10.95,22.12 C9.38,20.55 8.6,18.67 8.6,16.48 C8.6,14.3 9.38,12.42 10.95,10.85 C12.53,9.28 14.41,8.51 16.6,8.51 C17.33,8.51 18.02,8.6 18.73,8.8 C19.42,9 20.06,9.26 20.64,9.59 C21.21,9.95 21.77,10.37 22.25,10.85 C22.74,11.34 23.16,11.89 23.52,12.46 C23.87,13.04 24.14,13.68 24.31,14.36 C24.51,15.05 24.6,15.75 24.6,16.48 C24.6,18.67 23.83,20.55 22.25,22.12 C20.68,23.68 18.8,24.46 16.6,24.46 L16.6,24.46 Z" id="Shape"></path>
            </g>
        </g>
    </g>
</svg>