<svg width="20px" height="20px" viewBox="0 0 41 41" xmlns="http://www.w3.org/2000/svg" xmlns:xlink="http://www.w3.org/1999/xlink">
    <g stroke="none" stroke-width="1" fill="none" fill-rule="evenodd">
        <g transform="translate(1.000000, 1.000000)">
            <g stroke="#00C1DE" stroke-width="1.6">
                <rect fill="#FFFFFF" fill-rule="nonzero" x="0.6" y="0.6" width="38.4" height="38.4" rx="8"></rect>
                <rect x="0.6" y="0.6" width="38.4" height="38.4" rx="8"></rect>
            </g>
            <g transform="translate(6.500000, 6.500000)" fill="#00C1DE" fill-rule="nonzero">
                <path d="M15.46,9.43 L15.46,17.46 C15.46,17.71 15.54,17.92 15.71,18.09 C15.88,18.26 16.09,18.34 16.34,18.34 C16.59,18.34 16.8,18.26 16.97,18.09 C17.03,18.03 17.1,17.92 17.14,17.82 C17.18,17.71 17.22,17.59 17.22,17.46 L17.22,9.43 C17.22,9.26 17.18,9.11 17.12,8.99 C17.03,8.86 16.93,8.76 16.8,8.67 C16.68,8.59 16.53,8.57 16.36,8.57 C16.13,8.57 15.94,8.65 15.75,8.82 C15.54,8.96 15.46,9.17 15.46,9.43 L15.46,9.43 Z M26.27,15.89 C26.34,15.56 26.38,15.2 26.42,14.85 C26.46,14.49 26.46,14.13 26.46,13.78 C26.46,12.04 26.13,10.39 25.48,8.82 C24.83,7.25 23.88,5.85 22.66,4.63 C22.03,4 21.36,3.46 20.65,2.98 C19.93,2.5 19.18,2.1 18.4,1.76 C17.62,1.43 16.8,1.2 15.96,1.03 C15.12,0.86 14.26,0.78 13.4,0.78 C11.66,0.78 10,1.11 8.42,1.76 C6.85,2.41 5.42,3.35 4.16,4.59 C2.92,5.8 1.98,7.19 1.33,8.76 C0.68,10.33 0.36,12 0.36,13.74 C0.36,15.41 0.7,17.13 1.37,18.84 C2.04,20.41 2.96,21.82 4.18,23.01 C6.72,25.54 9.81,26.82 13.42,26.82 C15.04,26.82 16.61,26.53 18.17,25.94 L18.67,25.75 L17.98,23.95 L17.54,24.08 C16.24,24.58 14.87,24.83 13.48,24.83 C11.97,24.83 10.54,24.54 9.18,23.95 C7.82,23.37 6.64,22.59 5.65,21.61 C4.67,20.62 3.89,19.45 3.3,18.09 C2.69,16.71 2.4,15.29 2.4,13.78 C2.4,12.59 2.59,11.41 2.96,10.28 C3.34,9.15 3.87,8.15 4.54,7.23 C5.21,6.31 6.01,5.51 6.91,4.84 C7.82,4.15 8.84,3.63 9.96,3.25 C11.09,2.87 12.25,2.68 13.46,2.68 C15.48,2.68 17.33,3.17 19.03,4.15 C20.73,5.13 22.07,6.47 23.06,8.17 C24.05,9.86 24.53,11.71 24.53,13.72 C24.53,13.95 24.53,14.16 24.51,14.39 C24.49,14.62 24.47,14.89 24.43,15.22 C24.09,15.24 23.75,15.35 23.46,15.5 C23.14,15.64 22.89,15.83 22.66,16.06 C22.43,16.29 22.26,16.56 22.14,16.88 C22.01,17.19 21.95,17.51 21.95,17.84 C21.95,18.32 22.07,18.78 22.3,19.18 C22.54,19.58 22.85,19.89 23.27,20.12 C23.67,20.35 24.11,20.46 24.59,20.46 C25.08,20.46 25.54,20.33 25.94,20.1 C26.34,19.87 26.65,19.56 26.88,19.14 C27.11,18.72 27.22,18.3 27.22,17.82 C27.24,17.48 27.18,17.13 27.01,16.77 C26.78,16.42 26.55,16.12 26.27,15.89 L26.27,15.89 Z M19.39,10.85 C19.13,10.85 18.92,10.93 18.76,11.1 C18.59,11.27 18.5,11.48 18.5,11.73 L18.5,15.1 C18.5,15.35 18.59,15.56 18.76,15.73 C18.92,15.89 19.13,15.98 19.39,15.98 C19.49,15.98 19.6,15.96 19.68,15.91 C19.76,15.87 19.87,15.81 20,15.73 C20.08,15.66 20.14,15.58 20.18,15.47 C20.23,15.37 20.25,15.24 20.25,15.1 L20.25,11.73 C20.25,11.48 20.16,11.29 19.97,11.1 C19.83,10.93 19.62,10.85 19.39,10.85 L19.39,10.85 Z M6.51,11.73 L6.51,15.1 C6.51,15.35 6.6,15.56 6.77,15.73 C6.93,15.89 7.14,15.98 7.4,15.98 C7.48,15.98 7.54,15.96 7.63,15.94 C7.71,15.91 7.77,15.87 7.82,15.85 C7.86,15.83 7.92,15.79 8,15.73 C8.07,15.66 8.13,15.56 8.17,15.45 C8.21,15.35 8.26,15.22 8.26,15.1 L8.26,11.73 C8.26,11.48 8.17,11.27 8,11.1 C7.84,10.93 7.63,10.85 7.37,10.85 C7.12,10.85 6.91,10.93 6.74,11.1 C6.6,11.27 6.51,11.48 6.51,11.73 L6.51,11.73 Z M12.52,7.06 L12.52,19.7 C12.52,19.95 12.6,20.16 12.77,20.33 C12.94,20.5 13.15,20.58 13.4,20.58 C13.65,20.58 13.86,20.5 14.03,20.33 C14.2,20.16 14.28,19.95 14.28,19.7 L14.28,7.06 C14.28,6.81 14.2,6.6 14.03,6.43 C13.86,6.26 13.65,6.18 13.4,6.18 C13.15,6.2 12.94,6.31 12.77,6.47 C12.6,6.64 12.52,6.83 12.52,7.06 L12.52,7.06 Z M9.52,9.43 L9.52,17.46 C9.52,17.71 9.6,17.92 9.77,18.09 C9.94,18.26 10.15,18.34 10.4,18.34 C10.57,18.34 10.71,18.3 10.84,18.24 C10.96,18.15 11.07,18.05 11.15,17.92 C11.24,17.8 11.26,17.65 11.26,17.48 L11.26,9.45 C11.26,9.19 11.18,8.99 11.01,8.82 C10.84,8.65 10.63,8.57 10.38,8.57 C10.13,8.57 9.92,8.65 9.75,8.82 C9.6,8.96 9.52,9.17 9.52,9.43 L9.52,9.43 Z" id="Shape"></path>
            </g>
        </g>
    </g>
</svg>