<svg width="20px" height="20px" viewBox="0 0 41 41" xmlns="http://www.w3.org/2000/svg" xmlns:xlink="http://www.w3.org/1999/xlink">
    <g stroke="none" stroke-width="1" fill="none" fill-rule="evenodd">
        <g transform="translate(1.000000, 1.000000)">
            <g stroke="#00C1DE" stroke-width="1.6">
                <rect fill="#FFFFFF" fill-rule="nonzero" x="0.6" y="0.6" width="38.4" height="38.4" rx="8"></rect>
                <rect x="0.6" y="0.6" width="38.4" height="38.4" rx="8"></rect>
            </g>
            <g transform="translate(6.500000, 6.500000)" fill="#00C1DE" fill-rule="nonzero">
                <path d="M13.79,0.36 C10.45,0.36 7.54,1.44 5.02,3.63 C2.61,5.71 1.11,8.31 0.56,11.43 C0.43,12.22 0.36,13.02 0.36,13.79 C0.36,15.25 0.58,16.66 1.04,18.03 C1.51,19.4 2.13,20.64 2.97,21.74 C3.81,22.84 4.76,23.82 5.86,24.63 C6.96,25.47 8.2,26.11 9.57,26.56 C10.94,27 12.35,27.24 13.81,27.24 C15.62,27.24 17.37,26.89 19.02,26.18 C20.68,25.47 22.12,24.52 23.31,23.31 C24.5,22.12 25.47,20.68 26.18,19.02 C26.89,17.37 27.24,15.62 27.24,13.81 C27.24,12 26.89,10.26 26.18,8.6 C25.47,6.94 24.52,5.51 23.31,4.31 C22.12,3.12 20.68,2.15 19.02,1.44 C17.37,0.74 15.6,0.36 13.79,0.36 L13.79,0.36 Z M13.79,26.05 C11.71,26.05 9.77,25.56 7.96,24.57 C6.15,23.57 4.69,22.25 3.56,20.55 C2.44,18.85 1.77,16.99 1.57,14.94 L5.02,14.94 L5.02,13.77 L1.53,13.77 C1.53,12.11 1.86,10.52 2.5,9 C3.14,7.47 4.03,6.17 5.11,5.09 C6.21,3.98 7.52,3.12 9.02,2.48 C10.54,1.84 12.13,1.51 13.79,1.51 C16.02,1.51 18.07,2.06 19.95,3.14 C21.83,4.25 23.31,5.73 24.41,7.6 C25.52,9.48 26.05,11.54 26.05,13.77 L22.54,13.77 L22.54,14.94 L25.98,14.94 C25.78,16.97 25.12,18.85 23.99,20.55 C22.87,22.25 21.41,23.57 19.6,24.57 C17.79,25.56 15.87,26.05 13.79,26.05 L13.79,26.05 Z M13.79,5.02 C12.26,5.02 10.83,5.37 9.53,6.1 C8.22,6.83 7.16,7.83 6.37,9.06 C5.57,10.32 5.13,11.69 5.02,13.19 L22.49,13.19 C22.34,10.92 21.43,8.97 19.75,7.38 C18.07,5.82 16.09,5.02 13.79,5.02 L13.79,5.02 Z M12.62,3.28 C12.62,3.61 12.73,3.87 12.95,4.09 C13.17,4.31 13.46,4.42 13.77,4.42 C14.08,4.42 14.36,4.31 14.58,4.09 C14.8,3.87 14.92,3.58 14.92,3.28 C14.92,2.97 14.8,2.68 14.58,2.46 C14.36,2.24 14.08,2.13 13.77,2.13 C13.46,2.13 13.17,2.24 12.95,2.46 C12.73,2.68 12.62,2.94 12.62,3.28 L12.62,3.28 Z M5.02,15.53 L22.54,15.53 L22.54,17.28 L5.02,17.28 L5.02,15.53 Z M6.19,13.79 L21.39,13.79 L21.39,14.96 L6.19,14.96 L6.19,13.79 L6.19,13.79 Z M6.19,19.05 L7.36,19.05 L7.36,20.28 C7.03,20.35 6.77,20.5 6.52,20.77 C6.3,21.03 6.19,21.34 6.19,21.67 C6.19,21.94 6.26,22.18 6.39,22.4 C6.52,22.62 6.7,22.8 6.92,22.93 C7.14,23.07 7.38,23.13 7.65,23.13 C7.8,23.13 7.96,23.11 8.11,23.07 C8.27,23.02 8.4,22.96 8.51,22.87 C8.62,22.78 8.73,22.67 8.82,22.56 C8.91,22.45 8.97,22.31 9.02,22.16 C9.06,22.01 9.08,21.85 9.08,21.7 C9.08,21.34 8.97,21.06 8.75,20.79 C8.53,20.53 8.25,20.37 7.91,20.3 L7.91,19.07 L19.6,19.07 L19.6,20.3 C19.27,20.37 19,20.53 18.76,20.79 C18.54,21.06 18.43,21.36 18.43,21.7 C18.43,22.12 18.56,22.45 18.85,22.73 C19.13,23.02 19.47,23.15 19.88,23.15 C20.3,23.15 20.64,23.02 20.92,22.73 C21.21,22.45 21.34,22.12 21.34,21.7 C21.34,21.34 21.23,21.06 21.01,20.79 C20.79,20.53 20.5,20.37 20.17,20.3 L20.17,19.07 L21.34,19.07 L21.34,17.9 L6.19,17.9 L6.19,19.05 L6.19,19.05 Z" id="Shape"></path>
            </g>
        </g>
    </g>
</svg>