<svg width="20px" height="20px" viewBox="0 0 41 41" xmlns="http://www.w3.org/2000/svg" xmlns:xlink="http://www.w3.org/1999/xlink">
    <g stroke="none" stroke-width="1" fill="none" fill-rule="evenodd">
        <g transform="translate(1.000000, 1.000000)">
            <g stroke="#00C1DE" stroke-width="1.6">
                <rect fill="#FFFFFF" fill-rule="nonzero" x="0.6" y="0.6" width="38.4" height="38.4" rx="8"></rect>
                <rect x="0.6" y="0.6" width="38.4" height="38.4" rx="8"></rect>
            </g>
            <g transform="translate(6.500000, 6.500000)" fill="#00C1DE" fill-rule="nonzero">
                <path d="M2.04,13.8 C1.58,13.8 1.19,13.64 0.84,13.3 C0.52,12.98 0.36,12.57 0.36,12.11 L0.36,2.05 C0.36,1.75 0.43,1.48 0.59,1.21 C0.75,0.95 0.93,0.75 1.21,0.59 C1.46,0.43 1.74,0.36 2.06,0.36 L25.56,0.36 C26.02,0.36 26.41,0.52 26.76,0.86 C27.1,1.21 27.24,1.59 27.24,2.05 L27.24,2.05 L27.24,2.05 C27.24,2.51 27.08,2.9 26.76,3.24 C26.44,3.56 26.02,3.72 25.56,3.74 L3.71,3.74 L3.71,12.11 L3.71,12.11 C3.71,12.57 3.55,12.95 3.23,13.3 C2.89,13.64 2.49,13.8 2.04,13.8 L2.04,13.8 Z M12.07,12.13 L12.07,12.13 C12.07,12.04 12.07,11.95 12.09,11.86 C12.11,11.77 12.14,11.67 12.16,11.61 C12.18,11.51 12.23,11.45 12.25,11.38 C12.3,11.31 12.34,11.22 12.39,11.15 C12.43,11.08 12.5,11.01 12.55,10.94 C12.62,10.87 12.69,10.83 12.76,10.78 C12.82,10.74 12.89,10.69 12.99,10.65 C13.05,10.6 13.15,10.58 13.21,10.55 C13.31,10.53 13.38,10.51 13.47,10.49 C13.56,10.46 13.65,10.46 13.74,10.46 C14.2,10.46 14.59,10.62 14.94,10.97 C15.26,11.29 15.42,11.7 15.42,12.15 L15.42,12.15 L15.42,12.15 C15.42,12.91 15.07,13.43 14.36,13.71 C14.16,13.78 13.95,13.82 13.74,13.82 C13.51,13.82 13.31,13.78 13.1,13.69 C12.89,13.59 12.71,13.48 12.57,13.32 C12.41,13.16 12.3,13 12.2,12.79 C12.09,12.57 12.07,12.36 12.07,12.13 L12.07,12.13 Z M16.91,12.13 L16.91,12.13 C16.91,11.83 16.98,11.54 17.14,11.29 C17.3,11.03 17.48,10.83 17.76,10.67 C18.01,10.51 18.29,10.44 18.61,10.44 C19.07,10.44 19.46,10.6 19.8,10.94 C20.12,11.26 20.28,11.67 20.28,12.13 L20.28,12.13 L20.28,12.13 C20.28,12.59 20.12,12.98 19.8,13.32 C19.48,13.64 19.07,13.8 18.61,13.82 C18.31,13.82 18.04,13.75 17.76,13.59 C17.51,13.43 17.3,13.25 17.14,12.98 C17,12.7 16.91,12.43 16.91,12.13 L16.91,12.13 Z M25.54,10.44 C26,10.44 26.39,10.6 26.73,10.94 C27.06,11.26 27.22,11.67 27.22,12.13 L27.22,22.19 L27.22,22.19 C27.22,22.65 27.06,23.03 26.73,23.38 C26.41,23.72 26,23.86 25.54,23.88 L3.71,23.88 L0.36,27.24 L0.36,22.21 L0.36,22.21 C0.36,21.75 0.52,21.37 0.84,21.02 C1.16,20.7 1.58,20.54 2.04,20.52 L23.89,20.52 L23.89,12.15 L23.89,12.15 C23.89,12.02 23.91,11.9 23.93,11.77 C23.96,11.65 24,11.51 24.07,11.42 C24.12,11.31 24.19,11.22 24.28,11.1 C24.35,11.01 24.44,10.92 24.53,10.85 C24.62,10.78 24.74,10.71 24.85,10.65 C24.97,10.6 25.08,10.55 25.2,10.51 C25.29,10.46 25.43,10.44 25.54,10.44 L25.54,10.44 L25.54,10.44 Z M7.22,12.13 L7.22,12.13 C7.22,11.67 7.38,11.29 7.71,10.94 C8.03,10.62 8.44,10.46 8.9,10.44 C9.36,10.44 9.75,10.6 10.09,10.94 C10.44,11.29 10.57,11.67 10.57,12.13 L10.57,12.13 C10.57,12.36 10.53,12.57 10.44,12.79 C10.35,13 10.23,13.18 10.07,13.32 C9.91,13.48 9.75,13.59 9.54,13.69 C9.34,13.78 9.11,13.82 8.9,13.82 C8.44,13.82 8.05,13.66 7.71,13.32 C7.38,12.98 7.22,12.59 7.22,12.13 L7.22,12.13 L7.22,12.13 Z" id="Shape"></path>
            </g>
        </g>
    </g>
</svg>