<svg width="20px" height="20px" viewBox="0 0 41 41" xmlns="http://www.w3.org/2000/svg" xmlns:xlink="http://www.w3.org/1999/xlink">
    <g stroke="none" stroke-width="1" fill="none" fill-rule="evenodd">
        <g transform="translate(1.000000, 1.000000)">
            <g stroke="#00C1DE" stroke-width="1.6">
                <rect fill="#FFFFFF" fill-rule="nonzero" x="0.6" y="0.6" width="38.4" height="38.4" rx="8"></rect>
                <rect x="0.6" y="0.6" width="38.4" height="38.4" rx="8"></rect>
            </g>
            <g transform="translate(6.500000, 6.500000)" fill="#00C1DE" fill-rule="nonzero">
                <path d="M4.59,22.7 C4.55,22.63 4.52,22.59 4.48,22.5 C4.46,22.43 4.43,22.34 4.41,22.28 C4.39,22.21 4.39,22.1 4.39,21.94 C4.39,21.78 4.39,21.65 4.37,21.54 C4.37,21.43 4.37,21.25 4.37,21 L4.37,6.2 C4.32,5.59 4.39,5.1 4.57,4.72 C4.79,4.39 5.13,4.23 5.55,4.23 L10.5,4.23 C10.63,4.23 10.77,4.25 10.86,4.32 C10.95,4.39 11.06,4.47 11.13,4.59 C11.48,5.12 13.36,8.59 16.77,14.96 L21.06,14.96 C20.44,13.8 19.83,12.66 19.23,11.56 C18.62,10.45 18.11,9.48 17.66,8.66 C17.21,7.83 16.81,7.05 16.41,6.31 C16,5.57 15.67,4.94 15.4,4.43 C15.13,3.92 14.89,3.49 14.68,3.09 C14.48,2.71 14.33,2.42 14.21,2.22 C14.1,2.01 14.04,1.88 14.01,1.84 C13.86,1.55 13.63,1.28 13.34,1.05 C13.05,0.83 12.74,0.65 12.42,0.54 C12.09,0.43 11.77,0.36 11.46,0.36 L5.51,0.36 C5.08,0.36 4.68,0.4 4.3,0.47 C3.92,0.54 3.56,0.65 3.2,0.78 C2.87,0.92 2.55,1.1 2.26,1.32 C1.97,1.55 1.7,1.79 1.48,2.06 L1.46,2.08 L1.43,2.1 L1.41,2.13 L1.39,2.15 L1.37,2.17 L1.34,2.19 L1.32,2.22 L1.3,2.24 L1.28,2.26 L1.26,2.28 L1.23,2.31 L1.21,2.33 L1.19,2.35 L1.17,2.37 L1.14,2.4 L1.12,2.42 L1.1,2.44 L1.08,2.46 L1.05,2.48 L1.03,2.51 L1.01,2.53 L0.99,2.55 L0.96,2.57 L0.94,2.6 L0.92,2.62 L0.9,2.64 L0.87,2.66 L0.85,2.69 L0.83,2.71 L0.81,2.73 L0.79,2.75 L0.76,2.78 L0.74,2.8 L0.72,2.82 L0.7,2.84 L0.67,2.86 L0.65,2.89 L0.63,2.91 L0.61,2.93 L0.58,2.95 L0.56,2.98 L0.54,3 L0.52,3.02 L0.49,3.04 L0.47,3.07 L0.45,3.09 L0.45,3.11 L0.45,3.13 L0.45,3.16 L0.45,3.18 L0.45,3.2 L0.45,3.22 L0.45,3.24 L0.45,3.27 L0.45,3.29 L0.45,3.31 L0.45,3.33 L0.45,3.36 L0.45,3.38 L0.45,3.4 L0.45,3.42 L0.45,3.45 L0.45,3.47 L0.45,3.49 L0.45,3.51 L0.45,3.54 L0.45,3.56 L0.45,3.58 L0.45,3.6 L0.45,3.62 L0.45,3.65 L0.45,3.67 L0.45,3.69 L0.45,3.71 L0.45,3.74 L0.45,3.76 L0.45,3.78 L0.45,3.8 L0.45,3.83 L0.45,3.85 L0.45,3.87 L0.45,3.89 L0.45,3.92 L0.45,3.94 L0.45,3.96 L0.45,3.98 L0.45,4.01 L0.45,4.03 L0.45,4.05 L0.45,4.07 L0.36,5.57 C0.36,5.62 0.36,5.66 0.36,5.7 L0.36,20.44 C0.36,22.21 0.74,23.64 1.48,24.74 C2.37,25.92 3.67,26.57 5.35,26.7 L10.5,26.7 L8.17,22.83 L5.6,22.83 C5.15,23.33 4.81,23.08 4.59,22.7 L4.59,22.7 Z M23.17,4.94 C23.3,5.12 23.37,5.68 23.37,6.58 L23.37,21.38 C23.41,21.65 23.41,21.9 23.37,22.1 C23.35,22.3 23.3,22.43 23.28,22.5 C23.26,22.57 23.21,22.63 23.14,22.75 C22.9,23.13 22.54,23.3 22.09,23.3 L17.17,23.3 C17.03,23.3 16.9,23.28 16.81,23.21 C16.72,23.15 16.61,23.06 16.54,22.95 C16.52,22.92 16.45,22.81 16.34,22.59 C16.23,22.36 16.03,22.03 15.76,21.54 C15.49,21.05 15.13,20.44 14.73,19.73 C14.33,19.01 13.74,18.03 12.98,16.75 C12.24,15.5 11.39,14.09 10.48,12.57 L6.58,12.57 C11.21,21.31 13.54,25.72 13.56,25.76 C13.74,26.05 13.99,26.32 14.26,26.55 C14.53,26.77 14.84,26.95 15.15,27.06 C15.47,27.17 15.78,27.24 16.09,27.24 L22.09,27.24 C23.86,27.24 25.2,26.68 26.12,25.54 L26.14,25.52 L26.17,25.5 L26.19,25.47 L26.21,25.45 L26.23,25.43 L26.26,25.41 L26.28,25.38 L26.3,25.36 L26.32,25.34 L26.34,25.32 L26.37,25.29 L26.39,25.27 L26.41,25.25 L26.43,25.23 L26.46,25.2 L26.48,25.18 L26.5,25.16 L26.52,25.14 L26.55,25.12 L26.57,25.09 L26.59,25.07 L26.61,25.05 L26.64,25.03 L26.66,25 L26.68,24.98 L26.7,24.96 L26.73,24.94 L26.75,24.91 L26.77,24.89 L26.79,24.87 L26.81,24.85 L26.84,24.82 L26.86,24.8 L26.88,24.78 L26.9,24.76 L26.93,24.74 L26.95,24.71 L26.97,24.69 L26.99,24.67 L27.02,24.65 L27.04,24.62 L27.06,24.6 L27.08,24.58 L27.11,24.56 L27.13,24.53 L27.15,24.51 L27.15,24.49 L27.15,24.47 L27.15,24.44 L27.15,24.42 L27.15,24.4 L27.15,24.38 L27.15,24.36 L27.15,24.33 L27.15,24.31 L27.15,24.29 L27.15,24.27 L27.15,24.24 L27.15,24.22 L27.15,24.2 L27.15,24.18 L27.15,24.15 L27.15,24.13 L27.15,24.11 L27.15,24.09 L27.15,24.06 L27.15,24.04 L27.15,24.02 L27.15,24 L27.15,23.98 L27.15,23.95 L27.15,23.93 L27.15,23.91 L27.15,23.89 L27.15,23.86 L27.15,23.84 L27.15,23.82 L27.15,23.8 L27.15,23.77 L27.15,23.75 L27.15,23.73 L27.15,23.71 L27.15,23.68 L27.15,23.66 L27.15,23.64 L27.15,23.62 L27.15,23.59 L27.15,23.57 L27.15,23.55 L27.15,23.53 L27.24,22.03 C27.24,21.98 27.24,21.94 27.24,21.9 L27.24,7.23 C27.24,5.46 26.86,4.03 26.12,2.93 C25.16,1.75 23.86,1.1 22.25,0.96 L17.1,0.96 L19.43,4.83 L22.05,4.83 C22.36,4.27 22.74,4.52 23.17,4.94 L23.17,4.94 Z" id="Shape"></path>
            </g>
        </g>
    </g>
</svg>