<svg width="20px" height="20px" viewBox="0 0 41 41" xmlns="http://www.w3.org/2000/svg" xmlns:xlink="http://www.w3.org/1999/xlink">
    <g stroke="none" stroke-width="1" fill="none" fill-rule="evenodd">
        <g transform="translate(1.000000, 1.000000)">
            <g stroke="#00C1DE" stroke-width="1.6">
                <rect fill="#FFFFFF" fill-rule="nonzero" x="0.6" y="0.6" width="38.4" height="38.4" rx="8"></rect>
                <rect x="0.6" y="0.6" width="38.4" height="38.4" rx="8"></rect>
            </g>
            <g transform="translate(7.500000, 7.500000)" fill="#1ABFDE" fill-rule="nonzero">
                <path d="M25.02,10.74 C25.58,14.36 24.46,18.19 21.66,20.97 C17,25.63 9.42,25.63 4.75,20.97 C0.08,16.31 0.08,8.76 4.75,4.1 C7.88,0.97 12.33,-0.05 16.33,1.01 L16.33,0.42 C12.19,-0.64 7.6,0.44 4.35,3.68 C-0.54,8.57 -0.54,16.47 4.35,21.35 C9.25,26.24 17.17,26.24 22.06,21.35 C24.97,18.45 26.14,14.5 25.59,10.73 L25.02,10.73 L25.02,10.74 Z"></path>
                <polygon points="18.21 16.28 18.91 16.28 19.61 16.28 19.61 15.58 18.91 15.58 18.91 9.51 19.61 9.51 19.61 8.81 18.91 8.81 18.21 8.81 17.51 8.81 17.51 9.51 18.21 9.51 18.21 15.58 17.51 15.58 17.51 16.28"></polygon>
                <path d="M13.54,8.81 L12.84,8.81 L12.84,16.31 L13.54,16.31 L13.54,13.96 L15.67,13.96 C16.06,13.96 16.37,13.66 16.37,13.26 L16.37,9.51 C16.37,9.12 16.06,8.81 15.67,8.81 L13.54,8.81 Z M15.67,13.26 L13.54,13.26 L13.54,9.51 L15.67,9.51 L15.67,13.26 Z" id="Shape"></path>
                <path d="M10.88,16.31 L10.88,9.51 C10.88,9.12 10.58,8.81 10.18,8.81 L8.05,8.81 C7.66,8.81 7.35,9.12 7.35,9.51 L7.35,16.31 L8.05,16.31 L8.05,13.96 L10.16,13.96 L10.16,16.31 L10.88,16.31 Z M8.05,13.26 L8.05,9.51 L10.16,9.51 L10.16,13.26 L8.05,13.26 Z" id="Shape"></path>
            </g>
        </g>
    </g>
</svg>