<svg width="20px" height="20px" viewBox="0 0 41 41" xmlns="http://www.w3.org/2000/svg" xmlns:xlink="http://www.w3.org/1999/xlink">
    <g stroke="none" stroke-width="1" fill="none" fill-rule="evenodd">
        <g transform="translate(1.000000, 1.000000)">
            <g stroke="#00C1DE" stroke-width="1.6">
                <rect fill="#FFFFFF" fill-rule="nonzero" x="0.6" y="0.6" width="38.4" height="38.4" rx="8"></rect>
                <rect x="0.6" y="0.6" width="38.4" height="38.4" rx="8"></rect>
            </g>
            <g transform="translate(6.500000, 14.500000)" fill="#1ABFDE" fill-rule="nonzero">
                <path d="M0.71,9.51 C1.34,9.9 2.25,10.23 3.23,10.23 C4.67,10.23 5.51,9.47 5.51,8.39 C5.51,7.37 4.93,6.81 3.47,6.24 C1.69,5.62 0.6,4.71 0.6,3.17 C0.6,1.48 1.99,0.23 4.12,0.23 C5.23,0.23 6.04,0.49 6.51,0.75 L6.1,1.89 C5.75,1.7 5.01,1.37 4.04,1.37 C2.56,1.37 1.99,2.26 1.99,3 C1.99,4.01 2.64,4.51 4.14,5.08 C5.99,5.79 6.93,6.65 6.93,8.26 C6.93,9.92 5.69,11.37 3.12,11.37 C2.08,11.37 0.93,11.07 0.36,10.68 L0.71,9.51 Z"></path>
                <path d="M8.84,0.53 C9.69,0.4 10.71,0.31 11.82,0.31 C13.84,0.31 15.28,0.79 16.21,1.66 C17.17,2.54 17.74,3.8 17.74,5.53 C17.74,7.3 17.19,8.73 16.17,9.73 C15.15,10.75 13.47,11.29 11.36,11.29 C10.36,11.29 9.54,11.24 8.82,11.16 L8.82,0.53 L8.84,0.53 Z M10.26,10.1 C10.6,10.16 11.13,10.18 11.67,10.18 C14.67,10.18 16.3,8.52 16.3,5.59 C16.32,3.04 14.87,1.42 11.91,1.42 C11.19,1.42 10.62,1.48 10.26,1.57 L10.26,10.1 Z" id="Shape"></path>
                <path d="M19.58,0.4 L20.98,0.4 L20.98,5.62 L21.02,5.62 C21.3,5.2 21.61,4.82 21.87,4.47 L25.2,0.4 L26.94,0.4 L23,4.99 L27.24,11.2 L25.59,11.2 L22.02,5.9 L20.98,7.09 L20.98,11.2 L19.58,11.2 L19.58,0.4 Z"></path>
            </g>
        </g>
    </g>
</svg>