<svg xmlns="http://www.w3.org/2000/svg" x="0" y="0" width="20px" height="20px" viewBox="0 0 50 50">
<g>
<title></title>
<title>SignalRServiceblue</title>
<path fill="#59b4d9" fill-rule="evenodd" d="M 20.455 36.363 l 2.823 -6.818 h 6.267 a 4.551 4.551 0 0 0 4.546 -4.544 a 4.551 4.551 0 0 0 -4.546 -4.546 H 9.09 L 20.455 9.09 v 4.547 h 9.09 c 6.277 0 11.365 5.088 11.365 11.364 c 0 6.102 -4.825 11.044 -10.863 11.314 l 9.209 9.209 C 45.745 41.007 50 33.504 50 25 C 50 11.194 38.806 0 25 0 S 0 11.194 0 25 s 11.194 25 25 25 c 2.737 0 5.36 -0.455 7.825 -1.265 l -12.37 -12.372 Z"></path>
</g>
</svg>