<svg xmlns="http://www.w3.org/2000/svg" xmlns:xlink="http://www.w3.org/1999/xlink" x="0" y="0" width="20px" height="20px" viewBox="0 0 161.9 162" xml:space="preserve">
<g>
<path fill="#312D2B" d="M152.3,82.9V38L104,17.2L55.7,38l0.1,22.1H36.6v-9.6L10.9,64.6l25.7,14.1v-9.6h19.2l0.1,16.3l0.1,0.4 c7.2,41.5,44.8,57,46.4,57.6l1.9,0.8l1.8-0.9C152.3,119.5,152.3,84.3,152.3,82.9z M143.3,82.9c0,1.2-0.3,30.4-39.5,51.3 c-7.2-3.5-33.4-18.2-39-49.6l-0.1-15.5h12.6l24,0c5.4,0,9.9,4.4,9.9,9.9c0,5.4-4.4,9.9-9.9,9.9h-6.6v9h6.6 c10.4,0,18.9-8.5,18.9-18.9s-8.5-18.9-18.8-18.9l-24,0H64.7l-0.1-16.2L104,27l39.3,16.9V82.9z"></path>
<ellipse transform="matrix(0.7071 -0.7071 0.7071 0.7071 -52.3628 60.988)" fill="#312D2B" cx="47.4" cy="93.7" rx="5.6" ry="5.6"></ellipse>
<ellipse transform="matrix(0.7071 -0.7071 0.7071 0.7071 -57.1058 49.5372)" fill="#312D2B" cx="31.2" cy="93.7" rx="5.6" ry="5.6"></ellipse>
<circle fill="#312D2B" cx="15.1" cy="93.7" r="5.6"></circle>
<polygon fill="#312D2B" points="75,102.4 91.7,93.7 75,85 "></polygon>
</g>
</svg>