<svg width="20px" height="20px" viewBox="0 0 41 41" xmlns="http://www.w3.org/2000/svg" xmlns:xlink="http://www.w3.org/1999/xlink">
    <g stroke="none" stroke-width="1" fill="none" fill-rule="evenodd">
        <g transform="translate(1.000000, 1.000000)">
            <g stroke="#00C1DE" stroke-width="1.6">
                <rect fill="#FFFFFF" fill-rule="nonzero" x="0.6" y="0.6" width="38.4" height="38.4" rx="8"></rect>
                <rect x="0.6" y="0.6" width="38.4" height="38.4" rx="8"></rect>
            </g>
            <g transform="translate(6.500000, 6.500000)" fill="#00C1DE" fill-rule="nonzero">
                <path d="M24.73,2.29 L23.57,1.85 C23.47,1.48 23.27,1.14 22.93,0.89 C22.59,0.64 22.24,0.47 21.85,0.47 C21.38,0.47 20.96,0.64 20.62,0.98 C20.28,1.32 20.12,1.74 20.12,2.22 L20.12,2.24 L20.12,2.24 C20.12,2.72 20.28,3.13 20.62,3.48 C20.96,3.82 21.38,3.98 21.85,3.98 L21.85,3.98 C22.31,3.98 22.7,3.82 23.04,3.52 L24.14,3.91 C24.5,4.05 24.82,4.32 25.12,4.76 C25.39,5.2 25.53,5.63 25.53,6.09 L25.53,21.69 C25.53,22.13 25.39,22.57 25.12,23 C24.84,23.44 24.52,23.71 24.14,23.85 L23.13,24.19 C23.09,24.12 23.02,24.08 22.93,24.01 C22.86,23.94 22.77,23.89 22.68,23.85 C22.59,23.8 22.49,23.76 22.4,23.73 C22.31,23.71 22.22,23.66 22.11,23.64 C22.01,23.62 21.92,23.62 21.83,23.62 C21.35,23.62 20.94,23.78 20.6,24.12 C20.26,24.47 20.1,24.88 20.1,25.36 L20.1,25.38 L20.1,25.38 C20.1,25.86 20.26,26.28 20.6,26.62 C20.94,26.96 21.35,27.13 21.83,27.13 L21.83,27.13 C22.17,27.13 22.52,27.01 22.84,26.78 C23.16,26.55 23.38,26.25 23.47,25.93 L24.68,25.5 C25.41,25.25 26.01,24.74 26.51,24.01 C27.01,23.28 27.24,22.5 27.24,21.67 L27.24,6.07 C27.24,5.52 27.1,4.99 26.9,4.46 C26.67,3.94 26.37,3.48 25.98,3.06 C25.62,2.74 25.19,2.47 24.73,2.29 L24.73,2.29 Z M6.11,23.66 C5.84,23.66 5.59,23.73 5.33,23.85 C5.11,23.96 4.9,24.15 4.74,24.35 L3.46,23.89 C3.28,23.83 3.1,23.73 2.94,23.6 C2.78,23.46 2.62,23.3 2.5,23.11 C2.39,22.93 2.28,22.75 2.21,22.54 C2.14,22.34 2.09,22.13 2.09,21.95 L2.09,5.95 C2.09,5.56 2.23,5.15 2.5,4.76 C2.78,4.37 3.1,4.1 3.46,3.96 L4.86,3.45 C5.2,3.82 5.63,4 6.13,4 L6.13,4 C6.36,4 6.59,3.96 6.82,3.87 C7.02,3.77 7.23,3.66 7.37,3.5 C7.52,3.34 7.64,3.16 7.73,2.95 C7.82,2.74 7.87,2.51 7.87,2.26 L7.87,2.24 C7.87,2.1 7.84,1.96 7.82,1.85 C7.8,1.74 7.75,1.6 7.68,1.48 C7.62,1.37 7.55,1.25 7.48,1.16 C7.41,1.07 7.32,0.98 7.21,0.89 C7.09,0.8 7,0.75 6.89,0.68 C6.77,0.61 6.66,0.59 6.52,0.54 C6.38,0.5 6.25,0.5 6.13,0.5 L6.11,0.5 C5.86,0.5 5.61,0.54 5.38,0.66 C5.15,0.77 4.97,0.91 4.81,1.09 C4.65,1.28 4.54,1.48 4.47,1.74 L2.89,2.31 C2.66,2.4 2.44,2.51 2.21,2.65 C1.98,2.79 1.8,2.95 1.59,3.13 C1.41,3.32 1.25,3.52 1.09,3.75 C0.93,3.98 0.82,4.21 0.7,4.44 C0.59,4.67 0.52,4.92 0.45,5.17 C0.38,5.42 0.36,5.68 0.36,5.93 L0.36,21.9 C0.36,22.27 0.43,22.66 0.57,23.05 C0.7,23.44 0.88,23.78 1.09,24.1 C1.32,24.42 1.59,24.72 1.89,24.97 C2.21,25.22 2.53,25.41 2.89,25.52 L4.54,26.09 C4.65,26.39 4.88,26.64 5.17,26.83 C5.49,27.03 5.79,27.13 6.11,27.13 L6.11,27.13 C6.59,27.13 7,26.96 7.34,26.62 C7.68,26.28 7.84,25.86 7.84,25.38 L7.84,25.36 C7.84,24.88 7.68,24.47 7.34,24.12 C7.02,23.83 6.61,23.66 6.11,23.66 L6.11,23.66 Z M17.04,13.63 L17.04,13.63 C16.7,13.63 16.42,13.51 16.17,13.26 C15.94,13.03 15.81,12.73 15.81,12.39 L15.81,12.39 L15.81,12.39 C15.81,12.16 15.85,11.96 15.97,11.77 C16.08,11.59 16.22,11.43 16.4,11.34 C16.58,11.22 16.79,11.18 17.02,11.18 L17.02,11.18 C17.36,11.18 17.63,11.29 17.88,11.54 C18.11,11.77 18.25,12.07 18.25,12.41 C18.25,12.64 18.2,12.83 18.09,13.03 C17.98,13.22 17.84,13.38 17.66,13.49 C17.47,13.61 17.27,13.63 17.04,13.63 L17.04,13.63 Z M13.73,19.47 C13.18,19.47 12.66,19.36 12.16,19.13 C11.66,18.9 11.22,18.6 10.86,18.23 C10.49,17.87 10.22,17.43 9.99,16.93 C9.78,16.42 9.67,15.92 9.67,15.42 L17.77,15.42 C17.77,16.49 17.36,17.43 16.56,18.26 C15.79,19.06 14.85,19.47 13.73,19.47 L13.73,19.47 Z M9.19,12.39 C9.19,12.16 9.24,11.96 9.35,11.77 C9.46,11.59 9.6,11.43 9.78,11.34 C9.97,11.22 10.17,11.18 10.4,11.18 C10.63,11.18 10.83,11.22 11.02,11.34 C11.2,11.45 11.36,11.59 11.45,11.77 C11.56,11.96 11.61,12.16 11.61,12.39 C11.61,12.62 11.56,12.83 11.45,13.01 C11.34,13.19 11.2,13.35 11.02,13.44 C10.83,13.56 10.63,13.61 10.4,13.61 C10.06,13.61 9.78,13.49 9.53,13.24 C9.3,13.03 9.19,12.73 9.19,12.39 L9.19,12.39 Z M13.73,5.91 C11.56,5.91 9.72,6.68 8.16,8.22 C6.64,9.76 5.86,11.61 5.86,13.81 C5.86,15.99 6.64,17.84 8.16,19.4 C9.69,20.94 11.54,21.72 13.73,21.72 C15.9,21.72 17.75,20.94 19.3,19.4 C20.83,17.87 21.6,16.01 21.6,13.81 C21.6,11.63 20.83,9.78 19.3,8.22 C17.77,6.66 15.92,5.91 13.73,5.91 L13.73,5.91 Z" id="Shape"></path>
            </g>
        </g>
    </g>
</svg>