<svg width="20px" height="20px" viewBox="0 0 41 41" xmlns="http://www.w3.org/2000/svg" xmlns:xlink="http://www.w3.org/1999/xlink">
    <g stroke="none" stroke-width="1" fill="none" fill-rule="evenodd">
        <g transform="translate(1.000000, 1.000000)">
            <g stroke="#00C1DE" stroke-width="1.6">
                <rect fill="#FFFFFF" fill-rule="nonzero" x="0.6" y="0.6" width="38.4" height="38.4" rx="8"></rect>
                <rect x="0.6" y="0.6" width="38.4" height="38.4" rx="8"></rect>
            </g>
            <g transform="translate(6.500000, 6.500000)" fill="#00C1DE" fill-rule="nonzero">
                <path d="M21.47,12.92 C21.47,11.88 21.11,10.97 20.36,10.23 C19.61,9.48 18.72,9.12 17.65,9.12 C17.33,9.12 17.02,9.16 16.65,9.28 C16.29,9.39 15.95,9.55 15.63,9.73 C15.31,9.93 15.04,10.13 14.83,10.36 L12.24,8.94 C12.24,8.89 12.27,8.85 12.27,8.78 C12.27,8.71 12.29,8.64 12.29,8.6 C12.29,8.55 12.29,8.48 12.29,8.44 C12.29,7.67 12.02,7.01 11.47,6.49 C10.93,5.97 10.27,5.68 9.52,5.68 C8.74,5.68 8.09,5.95 7.56,6.49 C7.02,7.04 6.74,7.69 6.74,8.44 C6.74,8.94 6.86,9.41 7.11,9.82 C7.36,10.25 7.7,10.59 8.13,10.84 C8.56,11.09 9.02,11.2 9.52,11.2 L9.52,11.2 C9.77,11.2 9.99,11.18 10.22,11.11 C10.45,11.04 10.65,10.97 10.86,10.86 C11.06,10.75 11.24,10.61 11.4,10.47 L13.99,11.9 C13.9,12.24 13.86,12.58 13.86,12.94 C13.86,13.46 13.97,13.98 14.17,14.46 L11.58,16.38 C11.13,16.04 10.61,15.86 10.04,15.86 L10.04,15.86 C9.31,15.86 8.7,16.11 8.2,16.63 C7.7,17.15 7.43,17.74 7.43,18.46 C7.43,18.73 7.47,19 7.56,19.28 C7.65,19.55 7.77,19.77 7.93,20 C8.09,20.2 8.27,20.41 8.49,20.56 C8.7,20.72 8.95,20.86 9.22,20.93 C9.49,20.99 9.77,21.06 10.04,21.06 C10.52,21.06 10.95,20.95 11.36,20.72 C11.77,20.5 12.08,20.18 12.31,19.77 C12.54,19.37 12.65,18.94 12.65,18.46 C12.65,18.23 12.63,18.03 12.56,17.83 L15.22,15.86 C15.36,15.97 15.54,16.09 15.74,16.2 C15.95,16.31 16.15,16.4 16.38,16.49 C16.61,16.58 16.83,16.63 17.06,16.67 C17.29,16.72 17.49,16.74 17.7,16.74 C18.74,16.74 19.65,16.38 20.4,15.63 C21.11,14.86 21.47,13.96 21.47,12.92 L21.47,12.92 Z M2.9,13.17 C2.9,11.79 3.18,10.5 3.7,9.23 C4.22,7.96 4.95,6.9 5.86,5.99 C6.77,5.09 7.84,4.37 9.11,3.85 C10.36,3.3 11.68,3.05 13.04,3.05 C14.42,3.05 15.72,3.32 16.99,3.85 C18.24,4.39 19.33,5.09 20.24,5.99 C21.15,6.9 21.88,7.96 22.4,9.23 C22.92,10.5 23.2,11.79 23.2,13.14 C23.2,14.23 23.01,15.29 22.67,16.33 C22.33,17.35 21.85,18.28 21.22,19.12 C20.58,19.95 19.86,20.68 19.04,21.29 C18.2,21.92 17.27,22.4 16.24,22.74 C15.22,23.08 14.15,23.26 13.04,23.26 C11.2,23.26 9.49,22.8 7.95,21.9 C6.38,20.99 5.15,19.77 4.25,18.21 C3.36,16.7 2.9,15 2.9,13.17 L2.9,13.17 Z M26.81,24.95 L22.97,21.2 C23.49,20.56 23.97,19.77 24.4,18.85 C24.83,17.92 25.2,16.94 25.44,15.93 C25.69,14.93 25.83,14 25.83,13.19 L25.83,13.17 C25.83,11.45 25.49,9.8 24.83,8.23 C24.15,6.67 23.24,5.32 22.1,4.18 C20.97,3.05 19.61,2.15 18.04,1.47 C16.47,0.79 14.81,0.47 13.08,0.47 C12.22,0.47 11.36,0.56 10.52,0.72 C9.68,0.9 8.88,1.15 8.13,1.47 C7.38,1.79 6.65,2.17 5.97,2.65 C5.29,3.1 4.65,3.62 4.09,4.18 C3.52,4.75 3,5.38 2.54,6.06 C2.09,6.74 1.68,7.47 1.36,8.21 C1.04,8.96 0.79,9.75 0.61,10.59 C0.43,11.42 0.36,12.28 0.36,13.14 C0.36,14.86 0.7,16.51 1.36,18.08 C2.04,19.64 2.95,20.99 4.09,22.13 C5.22,23.26 6.59,24.16 8.15,24.84 C9.72,25.52 11.38,25.84 13.11,25.84 C13.11,25.84 13.13,25.84 13.13,25.84 C13.95,25.84 14.86,25.7 15.88,25.45 C16.88,25.2 17.86,24.84 18.81,24.41 C19.76,23.98 20.54,23.48 21.17,22.99 L25.04,26.76 C25.29,27.01 25.6,27.13 25.94,27.13 L25.94,27.13 C26.31,27.13 26.6,26.99 26.85,26.74 C27.1,26.49 27.24,26.18 27.24,25.84 C27.19,25.52 27.06,25.2 26.81,24.95 L26.81,24.95 Z" id="Shape"></path>
            </g>
        </g>
    </g>
</svg>