<svg width="20px" height="20px" viewBox="0 0 41 41" xmlns="http://www.w3.org/2000/svg" xmlns:xlink="http://www.w3.org/1999/xlink">
    <g stroke="none" stroke-width="1" fill="none" fill-rule="evenodd">
        <g transform="translate(1.000000, 1.000000)">
            <g stroke="#00C1DE" stroke-width="1.6">
                <rect fill="#FFFFFF" fill-rule="nonzero" x="0.6" y="0.6" width="38.4" height="38.4" rx="8"></rect>
                <rect x="0.6" y="0.6" width="38.4" height="38.4" rx="8"></rect>
            </g>
            <g transform="translate(6.500000, 6.500000)" fill="#00C1DE" fill-rule="nonzero">
                <path d="M24.61,2.48 L23.45,2.07 C23.41,1.81 23.3,1.59 23.15,1.38 C23,1.16 22.8,1.01 22.57,0.88 C22.33,0.75 22.07,0.69 21.81,0.69 C21.34,0.69 20.93,0.86 20.58,1.18 C20.26,1.51 20.09,1.92 20.09,2.42 C20.09,2.54 20.11,2.65 20.13,2.76 C20.15,2.87 20.2,2.98 20.24,3.09 C20.28,3.19 20.33,3.28 20.39,3.39 C20.46,3.47 20.52,3.56 20.61,3.65 C20.69,3.73 20.76,3.8 20.86,3.86 C20.95,3.93 21.06,3.97 21.17,4.02 C21.27,4.06 21.38,4.08 21.49,4.12 C21.6,4.14 21.73,4.17 21.83,4.17 C22.22,4.17 22.61,4.02 23,3.69 L23.97,4.1 C24.33,4.23 24.63,4.51 24.85,4.92 C25.09,5.33 25.19,5.77 25.19,6.24 L25.19,21.53 C25.19,21.98 25.09,22.44 24.85,22.85 C24.61,23.26 24.33,23.54 23.97,23.67 L23.08,24.02 C22.7,23.65 22.29,23.48 21.86,23.48 C21.38,23.48 20.97,23.65 20.63,23.97 C20.3,24.3 20.13,24.71 20.13,25.21 C20.13,25.44 20.18,25.66 20.26,25.88 C20.35,26.09 20.48,26.27 20.63,26.42 C20.78,26.57 20.97,26.7 21.17,26.79 C21.38,26.87 21.6,26.91 21.83,26.91 C22.2,26.91 22.54,26.81 22.82,26.59 C23.13,26.37 23.34,26.09 23.47,25.75 L24.7,25.34 C25.41,25.1 26.01,24.62 26.51,23.89 C27,23.17 27.24,22.42 27.24,21.62 L27.24,6.26 C27.2,5.03 26.68,4.02 25.73,3.19 C25.34,2.83 24.98,2.61 24.61,2.48 L24.61,2.48 Z M6.35,23.41 C5.81,23.41 5.36,23.65 4.97,24.1 L3.74,23.69 C3.4,23.52 3.1,23.24 2.84,22.85 C2.58,22.46 2.45,22.07 2.45,21.7 L2.45,6.07 C2.45,5.83 2.51,5.57 2.62,5.29 C2.75,5.03 2.9,4.79 3.1,4.58 C3.29,4.36 3.5,4.21 3.74,4.12 L5.12,3.65 C5.49,4.02 5.9,4.19 6.35,4.19 C6.82,4.19 7.23,4.02 7.58,3.69 C7.9,3.37 8.07,2.96 8.07,2.46 C8.07,1.96 7.9,1.57 7.58,1.23 C7.25,0.9 6.84,0.73 6.35,0.73 C5.96,0.73 5.62,0.84 5.31,1.05 C5.01,1.27 4.8,1.55 4.69,1.9 L2.97,2.44 C2.51,2.59 2.08,2.87 1.7,3.24 C1.31,3.6 0.98,4.04 0.73,4.53 C0.49,5.03 0.36,5.53 0.36,6.03 L0.36,21.73 C0.36,22.46 0.62,23.17 1.14,23.87 C1.65,24.56 2.3,25.03 3.03,25.31 L4.67,25.86 C4.75,26.05 4.88,26.24 5.03,26.4 C5.18,26.55 5.38,26.68 5.59,26.76 C5.81,26.85 6.02,26.89 6.24,26.89 C6.48,26.89 6.69,26.85 6.91,26.76 C7.12,26.68 7.3,26.55 7.45,26.4 C7.6,26.24 7.73,26.05 7.81,25.86 C7.9,25.64 7.94,25.42 7.94,25.18 C7.96,24.93 7.92,24.69 7.86,24.47 C7.77,24.26 7.66,24.06 7.51,23.91 C7.36,23.76 7.19,23.63 6.97,23.54 C6.82,23.46 6.58,23.41 6.35,23.41 L6.35,23.41 Z M10.4,10.89 C10.4,11.52 10.68,11.95 11.26,12.17 C11.43,12.23 11.6,12.25 11.75,12.25 C12.14,12.25 12.46,12.12 12.72,11.84 C12.98,11.58 13.13,11.26 13.13,10.87 C13.13,10.48 13,10.16 12.72,9.9 C12.46,9.64 12.14,9.49 11.75,9.49 C11.56,9.49 11.39,9.53 11.22,9.59 C11.04,9.66 10.89,9.77 10.78,9.9 C10.66,10.03 10.57,10.16 10.48,10.33 C10.44,10.52 10.4,10.7 10.4,10.89 L10.4,10.89 Z M18.5,11.65 L21.1,14.2 L21.17,17.79 L8.42,17.7 L8.42,15.56 L11.37,13.42 L14.25,15.35 L18.5,11.65 Z M17.12,21.49 L7.79,21.49 C7.4,21.49 7.04,21.4 6.67,21.25 C6.3,21.1 6,20.88 5.74,20.62 C5.49,20.36 5.27,20.06 5.12,19.69 C4.97,19.32 4.88,18.96 4.88,18.57 L4.88,11 C4.88,10.76 4.95,10.52 5.08,10.31 C5.21,10.09 5.36,9.92 5.57,9.81 C5.79,9.7 6,9.62 6.26,9.62 L6.54,9.62 L6.54,18.5 C6.54,18.85 6.65,19.11 6.89,19.35 C7.12,19.56 7.38,19.67 7.7,19.67 L18.41,19.67 L18.41,20.02 C18.45,20.43 18.32,20.77 18.06,21.05 C17.83,21.36 17.5,21.49 17.12,21.49 L17.12,21.49 Z M20.97,19.15 L8.29,19.15 C7.94,19.15 7.68,19.04 7.45,18.81 C7.21,18.57 7.12,18.31 7.12,17.98 L7.12,7.99 C7.12,7.58 7.27,7.22 7.58,6.93 C7.88,6.63 8.22,6.48 8.63,6.48 L20.97,6.48 C21.38,6.48 21.75,6.63 22.03,6.93 C22.33,7.24 22.48,7.58 22.48,7.99 L22.48,17.64 C22.52,18.05 22.37,18.4 22.07,18.7 C21.75,19 21.38,19.15 20.97,19.15 L20.97,19.15 Z M8.82,17.42 L20.82,17.42 L20.82,8.47 C20.82,8.23 20.71,8.12 20.48,8.12 L9.17,8.12 C8.93,8.12 8.82,8.23 8.82,8.47 L8.82,17.42 Z" id="Shape"></path>
            </g>
        </g>
    </g>
</svg>